<?xml version="1.0" encoding="UTF-8" standalone="no"?>
<!DOCTYPE svg PUBLIC "-//W3C//DTD SVG 1.1//EN"
 "http://www.w3.org/Graphics/SVG/1.1/DTD/svg11.dtd">
<!-- Generated by graphviz version 2.40.1 (0)
 -->
<!-- Title: fast Pages: 1 -->
<svg width="409pt" height="640pt"
 viewBox="0.00 0.00 409.30 640.25" xmlns="http://www.w3.org/2000/svg" xmlns:xlink="http://www.w3.org/1999/xlink">
<g id="graph0" class="graph" transform="scale(1 1) rotate(0) translate(4 636.2456)">
<title>fast</title>
<polygon fill="#ffffff" stroke="transparent" points="-4,4 -4,-636.2456 405.2964,-636.2456 405.2964,4 -4,4"/>
<text text-anchor="middle" x="200.6482" y="-7.8" font-family="Times,serif" font-size="14.00" fill="#000000">fast&#45;4.3_amd64 (2020&#45;05&#45;28) [D=Direct / I=Indirect]</text>
<!-- 2 -->
<g id="node1" class="node">
<title>2</title>
<polygon fill="#9acd32" stroke="#9acd32" points="243,-180.2456 181,-180.2456 181,-118.2456 243,-118.2456 243,-180.2456"/>
<text text-anchor="middle" x="212" y="-145.5456" font-family="Times,serif" font-size="14.00" fill="#000000">4.3.13</text>
</g>
<!-- 4 -->
<g id="node2" class="node">
<title>4</title>
<polygon fill="#9acd32" stroke="#9acd32" points="202,-632.2456 140,-632.2456 140,-570.2456 202,-570.2456 202,-632.2456"/>
<text text-anchor="middle" x="171" y="-597.5456" font-family="Times,serif" font-size="14.00" fill="#000000">4.3.22</text>
</g>
<!-- 2&#45;&gt;4 -->
<g id="edge2" class="edge">
<title>2&#45;&gt;4</title>
<path fill="none" stroke="#0000ff" stroke-dasharray="5,2" d="M180.9704,-176.8078C179.3181,-178.0079 177.6561,-179.1614 176,-180.2456 132.2601,-208.8823 103.4808,-191.0925 70,-231.2456 44.1754,-262.2168 46,-278.4204 46,-318.7456 46,-318.7456 46,-318.7456 46,-488.2456 46,-534.5698 93.826,-566.8208 130.3122,-584.6846"/>
<polygon fill="#0000ff" stroke="#0000ff" points="129.2401,-588.0477 139.7797,-589.1287 132.2146,-581.7111 129.2401,-588.0477"/>
<text text-anchor="middle" x="49.5" y="-371.5456" font-family="Times,serif" font-size="14.00" fill="#000000">I</text>
</g>
<!-- 9 -->
<g id="node4" class="node">
<title>9</title>
<polygon fill="#9acd32" stroke="#9acd32" points="233,-519.2456 171,-519.2456 171,-457.2456 233,-457.2456 233,-519.2456"/>
<text text-anchor="middle" x="202" y="-484.5456" font-family="Times,serif" font-size="14.00" fill="#000000">4.3.21</text>
</g>
<!-- 2&#45;&gt;9 -->
<g id="edge12" class="edge">
<title>2&#45;&gt;9</title>
<path fill="none" stroke="#0000ff" stroke-dasharray="5,2" d="M211.0771,-180.5303C209.2651,-241.9578 205.2426,-378.3225 203.2163,-447.0124"/>
<polygon fill="#0000ff" stroke="#0000ff" points="199.7171,-446.9377 202.9206,-457.0366 206.7141,-447.1442 199.7171,-446.9377"/>
<text text-anchor="middle" x="211.5" y="-315.0456" font-family="Times,serif" font-size="14.00" fill="#000000">I</text>
</g>
<!-- 10 -->
<g id="node5" class="node">
<title>10</title>
<polygon fill="#9acd32" stroke="#9acd32" points="302,-406.2456 240,-406.2456 240,-344.2456 302,-344.2456 302,-406.2456"/>
<text text-anchor="middle" x="271" y="-371.5456" font-family="Times,serif" font-size="14.00" fill="#000000">4.3.19</text>
</g>
<!-- 2&#45;&gt;10 -->
<g id="edge16" class="edge">
<title>2&#45;&gt;10</title>
<path fill="none" stroke="#0000ff" stroke-dasharray="5,2" d="M221.0249,-180.3131C222.7096,-186.2574 224.4323,-192.4373 226,-198.2456 238.5209,-244.6343 251.9867,-298.1259 260.8913,-334.056"/>
<polygon fill="#0000ff" stroke="#0000ff" points="257.5914,-335.2917 263.3896,-344.1591 264.3867,-333.6113 257.5914,-335.2917"/>
<text text-anchor="middle" x="253.5" y="-258.5456" font-family="Times,serif" font-size="14.00" fill="#000000">I</text>
</g>
<!-- 18 -->
<g id="node6" class="node">
<title>18</title>
<polygon fill="#9acd32" stroke="#9acd32" points="184,-293.2456 122,-293.2456 122,-231.2456 184,-231.2456 184,-293.2456"/>
<text text-anchor="middle" x="153" y="-258.5456" font-family="Times,serif" font-size="14.00" fill="#000000">4.3.18</text>
</g>
<!-- 2&#45;&gt;18 -->
<g id="edge19" class="edge">
<title>2&#45;&gt;18</title>
<path fill="none" stroke="#0000ff" stroke-dasharray="5,2" d="M195.7218,-180.4225C189.0152,-193.2674 181.159,-208.314 174.0253,-221.9768"/>
<polygon fill="#0000ff" stroke="#0000ff" points="170.7509,-220.6861 169.2251,-231.1705 176.956,-223.926 170.7509,-220.6861"/>
<text text-anchor="middle" x="190.5" y="-202.0456" font-family="Times,serif" font-size="14.00" fill="#000000">I</text>
</g>
<!-- 5 -->
<g id="node3" class="node">
<title>5</title>
<polygon fill="#fa8072" stroke="#fa8072" points="223.736,-50.7162 174,-63.2233 124.264,-50.7162 143.2614,-30.4792 204.7386,-30.4792 223.736,-50.7162"/>
<polygon fill="none" stroke="#fa8072" points="231.3314,-52.952 174,-67.3692 116.6686,-52.952 141.541,-26.4569 206.459,-26.4569 231.3314,-52.952"/>
<text text-anchor="middle" x="174" y="-41.4228" font-family="Times,serif" font-size="14.00" fill="#000000">4.2.29</text>
</g>
<!-- 5&#45;&gt;2 -->
<g id="edge9" class="edge">
<title>5&#45;&gt;2</title>
<path fill="none" stroke="#ff0000" stroke-width="2" d="M181.5076,-65.6941C185.9788,-77.9457 191.8102,-93.9241 197.1745,-108.6227"/>
<polygon fill="#ff0000" stroke="#ff0000" stroke-width="2" points="193.8969,-109.851 200.6132,-118.045 200.4727,-107.4511 193.8969,-109.851"/>
<text text-anchor="middle" x="199" y="-89.0456" font-family="Times,serif" font-size="14.00" fill="#000000">D</text>
</g>
<!-- 5&#45;&gt;4 -->
<g id="edge10" class="edge">
<title>5&#45;&gt;4</title>
<path fill="none" stroke="#ff0000" stroke-width="2" d="M120.3745,-53.971C69.2491,-65.832 0,-92.3913 0,-149.2456 0,-149.2456 0,-149.2456 0,-488.2456 0,-550.1658 79.0084,-580.1178 129.6159,-592.9519"/>
<polygon fill="#ff0000" stroke="#ff0000" stroke-width="2" points="129.0944,-596.4263 139.636,-595.3655 130.7337,-589.6209 129.0944,-596.4263"/>
<text text-anchor="middle" x="6" y="-315.0456" font-family="Times,serif" font-size="14.00" fill="#000000">D</text>
</g>
<!-- 5&#45;&gt;9 -->
<g id="edge18" class="edge">
<title>5&#45;&gt;9</title>
<path fill="none" stroke="#ff0000" stroke-width="2" d="M149.3973,-61.5139C125.2437,-79.783 92,-111.74 92,-149.2456 92,-149.2456 92,-149.2456 92,-318.7456 92,-347.4406 136.9207,-408.6799 169.35,-449.1512"/>
<polygon fill="#ff0000" stroke="#ff0000" stroke-width="2" points="166.6456,-451.3732 175.6523,-456.9528 172.0909,-446.9744 166.6456,-451.3732"/>
<text text-anchor="middle" x="98" y="-258.5456" font-family="Times,serif" font-size="14.00" fill="#000000">D</text>
</g>
<!-- 5&#45;&gt;10 -->
<g id="edge15" class="edge">
<title>5&#45;&gt;10</title>
<path fill="none" stroke="#ff0000" stroke-width="2" d="M199.3531,-61.3525C217.3572,-74.384 240.3274,-94.4067 252,-118.2456 286.1232,-187.9356 282.731,-281.1582 276.9937,-334.04"/>
<polygon fill="#ff0000" stroke="#ff0000" stroke-width="2" points="273.5072,-333.7215 275.8254,-344.0596 280.4601,-334.5323 273.5072,-333.7215"/>
<text text-anchor="middle" x="283" y="-202.0456" font-family="Times,serif" font-size="14.00" fill="#000000">D</text>
</g>
<!-- 5&#45;&gt;18 -->
<g id="edge17" class="edge">
<title>5&#45;&gt;18</title>
<path fill="none" stroke="#ff0000" stroke-width="2" d="M169.0984,-66.4365C165.9618,-80.9571 162.1,-100.6626 160,-118.2456 155.8759,-152.7756 154.1665,-192.2403 153.4654,-221.1124"/>
<polygon fill="#ff0000" stroke="#ff0000" stroke-width="2" points="149.9635,-221.1694 153.2502,-231.2415 156.962,-221.3182 149.9635,-221.1694"/>
<text text-anchor="middle" x="166" y="-145.5456" font-family="Times,serif" font-size="14.00" fill="#000000">D</text>
</g>
<!-- 23 -->
<g id="node7" class="node">
<title>23</title>
<ellipse fill="#d3d3d3" stroke="#d3d3d3" cx="361" cy="-262.2456" rx="40.0939" ry="18"/>
<text text-anchor="middle" x="361" y="-258.5456" font-family="Times,serif" font-size="14.00" fill="#000000">4.2.33</text>
</g>
<!-- 5&#45;&gt;23 -->
<g id="edge11" class="edge">
<title>5&#45;&gt;23</title>
<path fill="none" stroke="#0000ff" d="M223.4622,-54.9502C256.1114,-62.3665 295.0008,-73.2839 307,-85.2456 347.4514,-125.5709 357.7618,-195.2524 360.286,-234.0673"/>
<polygon fill="#0000ff" stroke="#0000ff" points="356.7954,-234.3418 360.8101,-244.1466 363.786,-233.9783 356.7954,-234.3418"/>
</g>
<!-- 9&#45;&gt;4 -->
<g id="edge1" class="edge">
<title>9&#45;&gt;4</title>
<path fill="none" stroke="#0000ff" stroke-dasharray="5,2" d="M193.4471,-519.4225C189.991,-532.0204 185.954,-546.7361 182.2639,-560.187"/>
<polygon fill="#0000ff" stroke="#0000ff" points="178.7954,-559.6008 179.525,-570.1705 185.546,-561.4528 178.7954,-559.6008"/>
<text text-anchor="middle" x="192.5" y="-541.0456" font-family="Times,serif" font-size="14.00" fill="#000000">I</text>
</g>
<!-- 10&#45;&gt;4 -->
<g id="edge3" class="edge">
<title>10&#45;&gt;4</title>
<path fill="none" stroke="#0000ff" stroke-dasharray="5,2" d="M269.3078,-406.4938C266.6365,-436.6983 259.7499,-483.0729 242,-519.2456 233.8173,-535.9212 221.3993,-551.9205 209.2246,-565.2888"/>
<polygon fill="#0000ff" stroke="#0000ff" points="206.4221,-563.1597 202.1183,-572.841 211.5201,-567.9566 206.4221,-563.1597"/>
<text text-anchor="middle" x="264.5" y="-484.5456" font-family="Times,serif" font-size="14.00" fill="#000000">I</text>
</g>
<!-- 10&#45;&gt;9 -->
<g id="edge5" class="edge">
<title>10&#45;&gt;9</title>
<path fill="none" stroke="#0000ff" stroke-dasharray="5,2" d="M251.9628,-406.4225C244.044,-419.3909 234.7549,-434.6035 226.3485,-448.3705"/>
<polygon fill="#0000ff" stroke="#0000ff" points="223.1994,-446.8118 220.9751,-457.1705 229.1737,-450.4598 223.1994,-446.8118"/>
<text text-anchor="middle" x="243.5" y="-428.0456" font-family="Times,serif" font-size="14.00" fill="#000000">I</text>
</g>
<!-- 18&#45;&gt;4 -->
<g id="edge8" class="edge">
<title>18&#45;&gt;4</title>
<path fill="none" stroke="#0000ff" stroke-dasharray="5,2" d="M153.3469,-293.5391C154.0528,-341.9705 156.1255,-437.9798 162,-519.2456 162.9614,-532.5457 164.414,-547.0183 165.8734,-560.0512"/>
<polygon fill="#0000ff" stroke="#0000ff" points="162.4146,-560.611 167.0359,-570.1448 169.3686,-559.8099 162.4146,-560.611"/>
<text text-anchor="middle" x="161.5" y="-428.0456" font-family="Times,serif" font-size="14.00" fill="#000000">I</text>
</g>
<!-- 18&#45;&gt;9 -->
<g id="edge13" class="edge">
<title>18&#45;&gt;9</title>
<path fill="none" stroke="#0000ff" stroke-dasharray="5,2" d="M159.8132,-293.67C168.4983,-333.7276 183.5328,-403.0704 193.1112,-447.2483"/>
<polygon fill="#0000ff" stroke="#0000ff" points="189.7051,-448.0569 195.2446,-457.0882 196.5462,-446.5736 189.7051,-448.0569"/>
<text text-anchor="middle" x="187.5" y="-371.5456" font-family="Times,serif" font-size="14.00" fill="#000000">I</text>
</g>
<!-- 18&#45;&gt;10 -->
<g id="edge7" class="edge">
<title>18&#45;&gt;10</title>
<path fill="none" stroke="#0000ff" stroke-dasharray="5,2" d="M184.036,-282.344C195.8483,-290.6443 209.0815,-300.7698 220,-311.2456 227.9276,-318.8518 235.7193,-327.7024 242.7338,-336.3516"/>
<polygon fill="#0000ff" stroke="#0000ff" points="239.9901,-338.5247 248.9389,-344.1967 245.4804,-334.1822 239.9901,-338.5247"/>
<text text-anchor="middle" x="236.5" y="-315.0456" font-family="Times,serif" font-size="14.00" fill="#000000">I</text>
</g>
<!-- 23&#45;&gt;4 -->
<g id="edge14" class="edge">
<title>23&#45;&gt;4</title>
<path fill="none" stroke="#0000ff" stroke-dasharray="5,2" d="M363.2808,-280.6493C366.0373,-308.7009 368.557,-363.4132 353,-406.2456 324.988,-483.37 302.2724,-498.8136 240,-552.2456 230.7661,-560.1687 220.2858,-568.0933 210.3319,-575.1893"/>
<polygon fill="#0000ff" stroke="#0000ff" points="208.3125,-572.3306 202.1333,-580.9369 212.3308,-578.0624 208.3125,-572.3306"/>
<text text-anchor="middle" x="348.5" y="-428.0456" font-family="Times,serif" font-size="14.00" fill="#000000">I</text>
</g>
<!-- 23&#45;&gt;9 -->
<g id="edge6" class="edge">
<title>23&#45;&gt;9</title>
<path fill="none" stroke="#0000ff" stroke-dasharray="5,2" d="M358.4109,-280.3206C353.4945,-309.3857 340.5353,-367.1992 311,-406.2456 288.9891,-435.3446 272.0859,-433.5029 241.3751,-455.0019"/>
<polygon fill="#0000ff" stroke="#0000ff" points="239.218,-452.2439 233.2582,-461.0036 243.3798,-457.8724 239.218,-452.2439"/>
<text text-anchor="middle" x="345.5" y="-371.5456" font-family="Times,serif" font-size="14.00" fill="#000000">I</text>
</g>
<!-- 23&#45;&gt;10 -->
<g id="edge4" class="edge">
<title>23&#45;&gt;10</title>
<path fill="none" stroke="#0000ff" stroke-dasharray="5,2" d="M347.3309,-279.4079C335.3693,-294.4264 317.5443,-316.8067 302.1272,-336.1637"/>
<polygon fill="#0000ff" stroke="#0000ff" points="299.1838,-334.2414 295.6915,-344.2441 304.6593,-338.6025 299.1838,-334.2414"/>
<text text-anchor="middle" x="324.5" y="-315.0456" font-family="Times,serif" font-size="14.00" fill="#000000">I</text>
</g>
</g>
</svg>
