<?xml version="1.0" encoding="UTF-8" standalone="no"?>
<!DOCTYPE svg PUBLIC "-//W3C//DTD SVG 1.1//EN"
 "http://www.w3.org/Graphics/SVG/1.1/DTD/svg11.dtd">
<!-- Generated by graphviz version 2.40.1 (0)
 -->
<!-- Title: fast Pages: 1 -->
<svg width="287pt" height="252pt"
 viewBox="0.00 0.00 286.59 252.25" xmlns="http://www.w3.org/2000/svg" xmlns:xlink="http://www.w3.org/1999/xlink">
<g id="graph0" class="graph" transform="scale(1 1) rotate(0) translate(4 248.2456)">
<title>fast</title>
<polygon fill="#ffffff" stroke="transparent" points="-4,4 -4,-248.2456 282.5928,-248.2456 282.5928,4 -4,4"/>
<text text-anchor="middle" x="139.2964" y="-7.8" font-family="Times,serif" font-size="14.00" fill="#000000">fast&#45;4.4 (2020&#45;05&#45;27) [amd64]</text>
<!-- 0 -->
<g id="node1" class="node">
<title>0</title>
<ellipse fill="#d3d3d3" stroke="#d3d3d3" cx="40.2964" cy="-122.2456" rx="40.0939" ry="18"/>
<text text-anchor="middle" x="40.2964" y="-118.5456" font-family="Times,serif" font-size="14.00" fill="#000000">4.3.21</text>
</g>
<!-- 3 -->
<g id="node2" class="node">
<title>3</title>
<polygon fill="#9acd32" stroke="#9acd32" points="188.7964,-244.2456 135.7964,-244.2456 135.7964,-191.2456 188.7964,-191.2456 188.7964,-244.2456"/>
<text text-anchor="middle" x="162.2964" y="-214.0456" font-family="Times,serif" font-size="14.00" fill="#000000">4.4.5</text>
</g>
<!-- 0&#45;&gt;3 -->
<g id="edge9" class="edge">
<title>0&#45;&gt;3</title>
<path fill="none" stroke="#0000ff" stroke-dasharray="5,2" d="M63.885,-137.0128C73.5138,-143.2852 84.6343,-150.8482 94.2964,-158.2456 105.5122,-166.8326 117.2511,-176.7403 127.7574,-185.9773"/>
<polygon fill="#0000ff" stroke="#0000ff" points="125.7223,-188.851 135.5223,-192.8771 130.372,-183.6183 125.7223,-188.851"/>
<text text-anchor="middle" x="123.7964" y="-162.0456" font-family="Times,serif" font-size="14.00" fill="#000000">ind</text>
</g>
<!-- 4 -->
<g id="node3" class="node">
<title>4</title>
<polygon fill="#9acd32" stroke="#9acd32" points="96.7964,-244.2456 43.7964,-244.2456 43.7964,-191.2456 96.7964,-191.2456 96.7964,-244.2456"/>
<text text-anchor="middle" x="70.2964" y="-214.0456" font-family="Times,serif" font-size="14.00" fill="#000000">4.4.4</text>
</g>
<!-- 0&#45;&gt;4 -->
<g id="edge2" class="edge">
<title>0&#45;&gt;4</title>
<path fill="none" stroke="#0000ff" stroke-dasharray="5,2" d="M29.1547,-140.0414C24.38,-149.9922 20.8163,-162.5145 25.2964,-173.2456 27.913,-179.5129 31.8895,-185.3481 36.4166,-190.5943"/>
<polygon fill="#0000ff" stroke="#0000ff" points="33.9074,-193.0346 43.3493,-197.8411 38.9657,-188.1957 33.9074,-193.0346"/>
<text text-anchor="middle" x="36.7964" y="-162.0456" font-family="Times,serif" font-size="14.00" fill="#000000">ind</text>
</g>
<!-- 5 -->
<g id="node4" class="node">
<title>5</title>
<polygon fill="#fa8072" stroke="#fa8072" points="189.0325,-50.7162 139.2964,-63.2233 89.5604,-50.7162 108.5579,-30.4792 170.035,-30.4792 189.0325,-50.7162"/>
<polygon fill="none" stroke="#fa8072" points="196.6278,-52.952 139.2964,-67.3692 81.965,-52.952 106.8374,-26.4569 171.7555,-26.4569 196.6278,-52.952"/>
<text text-anchor="middle" x="139.2964" y="-41.4228" font-family="Times,serif" font-size="14.00" fill="#000000">4.3.13</text>
</g>
<!-- 5&#45;&gt;0 -->
<g id="edge8" class="edge">
<title>5&#45;&gt;0</title>
<path fill="none" stroke="#0000ff" d="M117.3251,-62.2389C103.0019,-73.3969 84.1698,-88.0675 68.7116,-100.1097"/>
<polygon fill="#0000ff" stroke="#0000ff" points="66.2587,-97.5838 60.5208,-106.4904 70.5606,-103.106 66.2587,-97.5838"/>
</g>
<!-- 6 -->
<g id="node5" class="node">
<title>6</title>
<ellipse fill="#d3d3d3" stroke="#d3d3d3" cx="238.2964" cy="-122.2456" rx="40.0939" ry="18"/>
<text text-anchor="middle" x="238.2964" y="-118.5456" font-family="Times,serif" font-size="14.00" fill="#000000">4.3.19</text>
</g>
<!-- 5&#45;&gt;6 -->
<g id="edge4" class="edge">
<title>5&#45;&gt;6</title>
<path fill="none" stroke="#0000ff" d="M161.2677,-62.2389C175.5909,-73.3969 194.4231,-88.0675 209.8813,-100.1097"/>
<polygon fill="#0000ff" stroke="#0000ff" points="208.0323,-103.106 218.072,-106.4904 212.3341,-97.5838 208.0323,-103.106"/>
</g>
<!-- 7 -->
<g id="node6" class="node">
<title>7</title>
<ellipse fill="#d3d3d3" stroke="#d3d3d3" cx="139.2964" cy="-122.2456" rx="40.0939" ry="18"/>
<text text-anchor="middle" x="139.2964" y="-118.5456" font-family="Times,serif" font-size="14.00" fill="#000000">4.3.18</text>
</g>
<!-- 5&#45;&gt;7 -->
<g id="edge5" class="edge">
<title>5&#45;&gt;7</title>
<path fill="none" stroke="#0000ff" d="M139.2964,-67.4299C139.2964,-75.7163 139.2964,-85.2284 139.2964,-93.9777"/>
<polygon fill="#0000ff" stroke="#0000ff" points="135.7965,-94.1379 139.2964,-104.1379 142.7965,-94.1379 135.7965,-94.1379"/>
</g>
<!-- 6&#45;&gt;3 -->
<g id="edge1" class="edge">
<title>6&#45;&gt;3</title>
<path fill="none" stroke="#0000ff" stroke-dasharray="5,2" d="M239.8486,-140.498C239.866,-150.8322 238.366,-163.5822 232.2964,-173.2456 224.2224,-186.1006 210.9286,-195.9142 198.0829,-203.0115"/>
<polygon fill="#0000ff" stroke="#0000ff" points="196.2051,-200.0403 188.8895,-207.704 199.3875,-206.2751 196.2051,-200.0403"/>
<text text-anchor="middle" x="248.7964" y="-162.0456" font-family="Times,serif" font-size="14.00" fill="#000000">ind</text>
</g>
<!-- 6&#45;&gt;4 -->
<g id="edge7" class="edge">
<title>6&#45;&gt;4</title>
<path fill="none" stroke="#0000ff" stroke-dasharray="5,2" d="M222.2474,-138.8002C210.8349,-149.8008 194.6796,-163.8899 178.2964,-173.2456 157.0588,-185.3736 148.9386,-182.0015 126.2964,-191.2456 119.7398,-193.9225 112.8513,-196.9755 106.2355,-200.0339"/>
<polygon fill="#0000ff" stroke="#0000ff" points="104.3625,-197.0473 96.808,-204.4757 107.346,-203.3797 104.3625,-197.0473"/>
<text text-anchor="middle" x="210.7964" y="-162.0456" font-family="Times,serif" font-size="14.00" fill="#000000">ind</text>
</g>
<!-- 7&#45;&gt;3 -->
<g id="edge6" class="edge">
<title>7&#45;&gt;3</title>
<path fill="none" stroke="#0000ff" stroke-dasharray="5,2" d="M143.6225,-140.2085C146.4079,-151.7737 150.1281,-167.2205 153.5146,-181.2821"/>
<polygon fill="#0000ff" stroke="#0000ff" points="150.1593,-182.2986 155.9035,-191.2011 156.9647,-180.6595 150.1593,-182.2986"/>
<text text-anchor="middle" x="162.7964" y="-162.0456" font-family="Times,serif" font-size="14.00" fill="#000000">ind</text>
</g>
<!-- 7&#45;&gt;4 -->
<g id="edge3" class="edge">
<title>7&#45;&gt;4</title>
<path fill="none" stroke="#0000ff" stroke-dasharray="5,2" d="M105.3141,-131.9481C92.3692,-137.4669 78.9112,-145.8355 71.2964,-158.2456 67.1174,-165.0564 65.3723,-173.1828 64.9718,-181.2083"/>
<polygon fill="#0000ff" stroke="#0000ff" points="61.4721,-181.2596 65.1018,-191.2133 68.4715,-181.1687 61.4721,-181.2596"/>
<text text-anchor="middle" x="82.7964" y="-162.0456" font-family="Times,serif" font-size="14.00" fill="#000000">ind</text>
</g>
</g>
</svg>
