<?xml version="1.0" encoding="UTF-8" standalone="no"?>
<!DOCTYPE svg PUBLIC "-//W3C//DTD SVG 1.1//EN"
 "http://www.w3.org/Graphics/SVG/1.1/DTD/svg11.dtd">
<!-- Generated by graphviz version 2.40.1 (0)
 -->
<!-- Title: fast Pages: 1 -->
<svg width="322pt" height="252pt"
 viewBox="0.00 0.00 322.17 252.25" xmlns="http://www.w3.org/2000/svg" xmlns:xlink="http://www.w3.org/1999/xlink">
<g id="graph0" class="graph" transform="scale(1 1) rotate(0) translate(4 248.2456)">
<title>fast</title>
<polygon fill="#ffffff" stroke="transparent" points="-4,4 -4,-248.2456 318.1669,-248.2456 318.1669,4 -4,4"/>
<text text-anchor="middle" x="157.0834" y="-7.8" font-family="Times,serif" font-size="14.00" fill="#000000">fast&#45;4.4 (2020&#45;05&#45;20) [amd64]</text>
<!-- 1 -->
<g id="node1" class="node">
<title>1</title>
<polygon fill="#fa8072" stroke="#fa8072" points="155.6065,-50.7162 105.8705,-63.2233 56.1344,-50.7162 75.1319,-30.4792 136.609,-30.4792 155.6065,-50.7162"/>
<polygon fill="none" stroke="#fa8072" points="163.2018,-52.952 105.8705,-67.3692 48.5391,-52.952 73.4114,-26.4569 138.3295,-26.4569 163.2018,-52.952"/>
<text text-anchor="middle" x="105.8705" y="-41.4228" font-family="Times,serif" font-size="14.00" fill="#000000">4.3.13</text>
</g>
<!-- 2 -->
<g id="node2" class="node">
<title>2</title>
<polygon fill="#9acd32" stroke="#9acd32" points="151.3705,-244.2456 98.3705,-244.2456 98.3705,-191.2456 151.3705,-191.2456 151.3705,-244.2456"/>
<text text-anchor="middle" x="124.8705" y="-214.0456" font-family="Times,serif" font-size="14.00" fill="#000000">4.4.4</text>
</g>
<!-- 1&#45;&gt;2 -->
<g id="edge1" class="edge">
<title>1&#45;&gt;2</title>
<path fill="none" stroke="#ff0000" stroke-width="2" d="M66.2296,-57.5464C44.25,-66.6961 18.8123,-81.5594 5.8705,-104.2456 -2.0578,-118.1432 -1.7549,-126.1796 5.8705,-140.2456 23.3185,-172.4309 60.5633,-193.3534 88.7683,-205.2502"/>
<polygon fill="#ff0000" stroke="#ff0000" stroke-width="2" points="87.7364,-208.6075 98.3204,-209.0855 90.3446,-202.1115 87.7364,-208.6075"/>
<text text-anchor="middle" x="16.3705" y="-118.5456" font-family="Times,serif" font-size="14.00" fill="#000000">dir</text>
</g>
<!-- 3 -->
<g id="node3" class="node">
<title>3</title>
<ellipse fill="#d3d3d3" stroke="#d3d3d3" cx="75.8705" cy="-122.2456" rx="40.0939" ry="18"/>
<text text-anchor="middle" x="75.8705" y="-118.5456" font-family="Times,serif" font-size="14.00" fill="#000000">4.3.21</text>
</g>
<!-- 1&#45;&gt;3 -->
<g id="edge4" class="edge">
<title>1&#45;&gt;3</title>
<path fill="none" stroke="#0000ff" d="M97.831,-65.7903C94.353,-74.7315 90.2335,-85.3218 86.5074,-94.9007"/>
<polygon fill="#0000ff" stroke="#0000ff" points="83.1736,-93.8167 82.8102,-104.4053 89.6974,-96.3544 83.1736,-93.8167"/>
</g>
<!-- 4 -->
<g id="node4" class="node">
<title>4</title>
<ellipse fill="#d3d3d3" stroke="#d3d3d3" cx="174.8705" cy="-122.2456" rx="40.0939" ry="18"/>
<text text-anchor="middle" x="174.8705" y="-118.5456" font-family="Times,serif" font-size="14.00" fill="#000000">4.3.18</text>
</g>
<!-- 1&#45;&gt;4 -->
<g id="edge6" class="edge">
<title>1&#45;&gt;4</title>
<path fill="none" stroke="#0000ff" d="M122.2225,-63.3999C131.3941,-73.6511 142.9577,-86.5761 152.91,-97.6999"/>
<polygon fill="#0000ff" stroke="#0000ff" points="150.5385,-100.2985 159.8147,-105.4175 155.7554,-95.6311 150.5385,-100.2985"/>
</g>
<!-- 6 -->
<g id="node5" class="node">
<title>6</title>
<ellipse fill="#d3d3d3" stroke="#d3d3d3" cx="273.8705" cy="-122.2456" rx="40.0939" ry="18"/>
<text text-anchor="middle" x="273.8705" y="-118.5456" font-family="Times,serif" font-size="14.00" fill="#000000">4.3.19</text>
</g>
<!-- 1&#45;&gt;6 -->
<g id="edge5" class="edge">
<title>1&#45;&gt;6</title>
<path fill="none" stroke="#0000ff" d="M137.47,-59.629C165.6017,-72.5433 206.7889,-91.4509 236.5373,-105.1073"/>
<polygon fill="#0000ff" stroke="#0000ff" points="235.2145,-108.3512 245.7629,-109.3424 238.135,-101.9895 235.2145,-108.3512"/>
</g>
<!-- 3&#45;&gt;2 -->
<g id="edge2" class="edge">
<title>3&#45;&gt;2</title>
<path fill="none" stroke="#0000ff" stroke-dasharray="5,2" d="M85.087,-140.2085C91.1362,-151.9983 99.2551,-167.8218 106.5809,-182.0997"/>
<polygon fill="#0000ff" stroke="#0000ff" points="103.5716,-183.9016 111.2507,-191.2011 109.7996,-180.7061 103.5716,-183.9016"/>
<text text-anchor="middle" x="113.3705" y="-162.0456" font-family="Times,serif" font-size="14.00" fill="#000000">ind</text>
</g>
<!-- 4&#45;&gt;2 -->
<g id="edge3" class="edge">
<title>4&#45;&gt;2</title>
<path fill="none" stroke="#0000ff" stroke-dasharray="5,2" d="M165.4658,-140.2085C159.2932,-151.9983 151.0086,-167.8218 143.5333,-182.0997"/>
<polygon fill="#0000ff" stroke="#0000ff" points="140.3058,-180.7184 138.7681,-191.2011 146.5073,-183.9653 140.3058,-180.7184"/>
<text text-anchor="middle" x="167.3705" y="-162.0456" font-family="Times,serif" font-size="14.00" fill="#000000">ind</text>
</g>
<!-- 6&#45;&gt;2 -->
<g id="edge7" class="edge">
<title>6&#45;&gt;2</title>
<path fill="none" stroke="#0000ff" stroke-dasharray="5,2" d="M250.5892,-137.1675C226.3647,-152.694 188.1369,-177.1957 160.1902,-195.1078"/>
<polygon fill="#0000ff" stroke="#0000ff" points="158.0391,-192.3293 151.5087,-200.6722 161.8165,-198.2227 158.0391,-192.3293"/>
<text text-anchor="middle" x="229.3705" y="-162.0456" font-family="Times,serif" font-size="14.00" fill="#000000">ind</text>
</g>
</g>
</svg>
