<?xml version="1.0" encoding="UTF-8" standalone="no"?>
<!DOCTYPE svg PUBLIC "-//W3C//DTD SVG 1.1//EN"
 "http://www.w3.org/Graphics/SVG/1.1/DTD/svg11.dtd">
<!-- Generated by graphviz version 2.40.1 (0)
 -->
<!-- Title: fast Pages: 1 -->
<svg width="1257pt" height="1119pt"
 viewBox="0.00 0.00 1257.00 1119.49" xmlns="http://www.w3.org/2000/svg" xmlns:xlink="http://www.w3.org/1999/xlink">
<g id="graph0" class="graph" transform="scale(1 1) rotate(0) translate(4 1115.4913)">
<title>fast</title>
<polygon fill="#ffffff" stroke="transparent" points="-4,4 -4,-1115.4913 1253,-1115.4913 1253,4 -4,4"/>
<text text-anchor="middle" x="624.5" y="-1096.2913" font-family="Times,serif" font-size="14.00" fill="#000000">fast&#45;4.3 (2020&#45;05&#45;12) [amd64]</text>
<!-- 0 -->
<g id="node1" class="node">
<title>0</title>
<ellipse fill="#d3d3d3" stroke="#d3d3d3" cx="900" cy="-310" rx="40.0939" ry="18"/>
<text text-anchor="middle" x="900" y="-306.3" font-family="Times,serif" font-size="14.00" fill="#000000">4.2.22</text>
</g>
<!-- 2 -->
<g id="node3" class="node">
<title>2</title>
<polygon fill="#9acd32" stroke="#9acd32" points="778,-975.4913 716,-975.4913 716,-913.4913 778,-913.4913 778,-975.4913"/>
<text text-anchor="middle" x="747" y="-940.7913" font-family="Times,serif" font-size="14.00" fill="#000000">4.3.18</text>
</g>
<!-- 0&#45;&gt;2 -->
<g id="edge3" class="edge">
<title>0&#45;&gt;2</title>
<path fill="none" stroke="#000000" d="M936.7286,-317.4196C991.8232,-330.7455 1094.0758,-364.5032 1138,-438 1169.096,-490.0319 1303.7514,-373.2511 1135,-782.4913 1108.2812,-847.2871 1086.9512,-862.7127 1025,-895.4913 1004.382,-906.4003 860.673,-928.1846 788.3616,-938.6346"/>
<polygon fill="#000000" stroke="#000000" points="787.6336,-935.2032 778.2339,-940.0915 788.6304,-942.1319 787.6336,-935.2032"/>
</g>
<!-- 3 -->
<g id="node4" class="node">
<title>3</title>
<ellipse fill="#d3d3d3" stroke="#d3d3d3" cx="497" cy="-618.4913" rx="40.0939" ry="18"/>
<text text-anchor="middle" x="497" y="-614.7913" font-family="Times,serif" font-size="14.00" fill="#000000">4.2.28</text>
</g>
<!-- 0&#45;&gt;3 -->
<g id="edge18" class="edge">
<title>0&#45;&gt;3</title>
<path fill="none" stroke="#000000" d="M899.7807,-328.0696C898.1347,-375.4597 886.5721,-503.7769 811,-563.4913 770.8966,-595.1796 625.2014,-609.7728 547.1629,-615.4432"/>
<polygon fill="#000000" stroke="#000000" points="546.8058,-611.9596 537.0765,-616.1538 547.2977,-618.9423 546.8058,-611.9596"/>
</g>
<!-- 4 -->
<g id="node5" class="node">
<title>4</title>
<polygon fill="#fa8072" stroke="#fa8072" points="698.8261,-469.8605 649,-482.4157 599.1739,-469.8605 618.2058,-449.5458 679.7942,-449.5458 698.8261,-469.8605"/>
<polygon fill="none" stroke="#fa8072" points="706.4352,-472.1049 649,-486.5775 591.5648,-472.1049 616.4822,-445.508 681.5178,-445.508 706.4352,-472.1049"/>
<polygon fill="none" stroke="#fa8072" points="714.0443,-474.3494 649,-490.7393 583.9557,-474.3494 614.7586,-441.4702 683.2414,-441.4702 714.0443,-474.3494"/>
<text text-anchor="middle" x="649" y="-460.5456" font-family="Times,serif" font-size="14.00" fill="#000000">4.2.26</text>
</g>
<!-- 0&#45;&gt;4 -->
<g id="edge44" class="edge">
<title>0&#45;&gt;4</title>
<path fill="none" stroke="#000000" d="M878.2849,-325.289C846.8335,-347.2046 786.5041,-388.3896 733,-420 721.2392,-426.9483 708.2897,-434.0349 696.1537,-440.442"/>
<polygon fill="#000000" stroke="#000000" points="694.3041,-437.4595 687.065,-445.1956 697.5483,-443.6624 694.3041,-437.4595"/>
</g>
<!-- 5 -->
<g id="node6" class="node">
<title>5</title>
<ellipse fill="#d3d3d3" stroke="#d3d3d3" cx="762" cy="-545.4913" rx="40.0939" ry="18"/>
<text text-anchor="middle" x="762" y="-541.7913" font-family="Times,serif" font-size="14.00" fill="#000000">4.2.27</text>
</g>
<!-- 0&#45;&gt;5 -->
<g id="edge32" class="edge">
<title>0&#45;&gt;5</title>
<path fill="none" stroke="#000000" d="M892.7401,-327.7367C877.5842,-363.748 840.2857,-447.2875 796,-509.4913 793.0988,-513.5663 789.7599,-517.6487 786.3322,-521.5247"/>
<polygon fill="#000000" stroke="#000000" points="783.5191,-519.4107 779.2833,-529.122 788.6506,-524.1718 783.5191,-519.4107"/>
</g>
<!-- 10 -->
<g id="node11" class="node">
<title>10</title>
<ellipse fill="#d3d3d3" stroke="#d3d3d3" cx="776" cy="-718.4913" rx="40.0939" ry="18"/>
<text text-anchor="middle" x="776" y="-714.7913" font-family="Times,serif" font-size="14.00" fill="#000000">4.2.29</text>
</g>
<!-- 0&#45;&gt;10 -->
<g id="edge92" class="edge">
<title>0&#45;&gt;10</title>
<path fill="none" stroke="#000000" d="M916.279,-326.8741C937.1696,-349.8251 972.3426,-393.1835 986,-438 995.2623,-468.3939 994.5123,-478.8788 986,-509.4913 960.7284,-600.3742 863.8955,-668.3014 810.999,-699.5226"/>
<polygon fill="#000000" stroke="#000000" points="809.1822,-696.5301 802.2821,-704.5699 812.6899,-702.5879 809.1822,-696.5301"/>
</g>
<!-- 11 -->
<g id="node12" class="node">
<title>11</title>
<ellipse fill="#d3d3d3" stroke="#d3d3d3" cx="372" cy="-383" rx="40.0939" ry="18"/>
<text text-anchor="middle" x="372" y="-379.3" font-family="Times,serif" font-size="14.00" fill="#000000">4.2.25</text>
</g>
<!-- 0&#45;&gt;11 -->
<g id="edge70" class="edge">
<title>0&#45;&gt;11</title>
<path fill="none" stroke="#000000" d="M861.1749,-315.3679C766.6585,-328.4355 524.7539,-361.8806 420.7421,-376.261"/>
<polygon fill="#000000" stroke="#000000" points="419.9517,-372.8369 410.5253,-377.6736 420.9104,-379.771 419.9517,-372.8369"/>
</g>
<!-- 1 -->
<g id="node2" class="node">
<title>1</title>
<polygon fill="#d3d3d3" stroke="#d3d3d3" points="347.5,-744.9913 294.5,-744.9913 294.5,-691.9913 347.5,-691.9913 347.5,-744.9913"/>
<text text-anchor="middle" x="321" y="-714.7913" font-family="Times,serif" font-size="14.00" fill="#000000">4.3.3</text>
</g>
<!-- 1&#45;&gt;2 -->
<g id="edge65" class="edge">
<title>1&#45;&gt;2</title>
<path fill="none" stroke="#000000" d="M326.6172,-745.1621C334.329,-776.3547 350.8058,-828.0925 381,-862.4913 400.3107,-884.491 410.4131,-885.7008 438,-895.4913 529.9901,-928.1383 645.1005,-939.0963 705.5387,-942.7281"/>
<polygon fill="#000000" stroke="#000000" points="705.6362,-946.239 715.8169,-943.3061 706.0293,-939.25 705.6362,-946.239"/>
</g>
<!-- 9 -->
<g id="node10" class="node">
<title>9</title>
<polygon fill="#9acd32" stroke="#9acd32" points="528,-1088.4913 466,-1088.4913 466,-1026.4913 528,-1026.4913 528,-1088.4913"/>
<text text-anchor="middle" x="497" y="-1053.7913" font-family="Times,serif" font-size="14.00" fill="#000000">4.3.19</text>
</g>
<!-- 1&#45;&gt;9 -->
<g id="edge71" class="edge">
<title>1&#45;&gt;9</title>
<path fill="none" stroke="#000000" d="M294.3298,-722.9219C256.4084,-730.8497 188.4642,-751.4774 161,-800.4913 122.9777,-868.3476 132.5625,-903.911 163,-975.4913 170.8744,-994.0097 176.2304,-999.0478 194,-1008.4913 238.6815,-1032.2369 383.8176,-1047.7175 455.7774,-1054.128"/>
<polygon fill="#000000" stroke="#000000" points="455.576,-1057.6236 465.8428,-1055.0079 456.1856,-1050.6502 455.576,-1057.6236"/>
</g>
<!-- 19 -->
<g id="node20" class="node">
<title>19</title>
<polygon fill="#d3d3d3" stroke="#d3d3d3" points="676,-862.4913 614,-862.4913 614,-800.4913 676,-800.4913 676,-862.4913"/>
<text text-anchor="middle" x="645" y="-827.7913" font-family="Times,serif" font-size="14.00" fill="#000000">4.3.13</text>
</g>
<!-- 1&#45;&gt;19 -->
<g id="edge82" class="edge">
<title>1&#45;&gt;19</title>
<path fill="none" stroke="#000000" d="M347.6214,-744.1266C350.3398,-746.1028 353.1522,-747.9318 356,-749.4913 437.5596,-794.1549 545.6957,-816.3804 603.8275,-825.7579"/>
<polygon fill="#000000" stroke="#000000" points="603.32,-829.221 613.7411,-827.3101 604.4029,-822.3052 603.32,-829.221"/>
</g>
<!-- 2&#45;&gt;9 -->
<g id="edge4" class="edge">
<title>2&#45;&gt;9</title>
<path fill="none" stroke="#0000ff" stroke-dasharray="5,2" d="M731.4398,-975.67C724.0433,-987.5754 714.1378,-1000.2532 702,-1008.4913 675.6017,-1026.4083 590.0524,-1042.6513 538.1817,-1051.1879"/>
<polygon fill="#0000ff" stroke="#0000ff" points="537.596,-1047.7371 528.2842,-1052.7907 538.7151,-1054.6471 537.596,-1047.7371"/>
<text text-anchor="middle" x="746" y="-997.2913" font-family="Times,serif" font-size="14.00" fill="#000000">Indirect</text>
</g>
<!-- 3&#45;&gt;2 -->
<g id="edge88" class="edge">
<title>3&#45;&gt;2</title>
<path fill="none" stroke="#0000ff" stroke-dasharray="5,2" d="M537.1867,-620.9182C616.4704,-626.622 788.5217,-643.8468 825,-687.4913 849.9461,-717.338 843.886,-826.5533 829,-862.4913 820.1278,-883.9108 802.6451,-902.6524 786.0937,-916.7913"/>
<polygon fill="#0000ff" stroke="#0000ff" points="783.6015,-914.3085 778.0851,-923.3539 788.0383,-919.7228 783.6015,-914.3085"/>
<text text-anchor="middle" x="870" y="-771.2913" font-family="Times,serif" font-size="14.00" fill="#000000">Indirect</text>
</g>
<!-- 3&#45;&gt;9 -->
<g id="edge14" class="edge">
<title>3&#45;&gt;9</title>
<path fill="none" stroke="#0000ff" stroke-dasharray="5,2" d="M457.9397,-623.5469C348.7007,-638.7677 48,-688.5193 48,-774.9913 48,-774.9913 48,-774.9913 48,-944.4913 48,-1028.1044 344.5215,-1050.4464 455.6266,-1055.883"/>
<polygon fill="#0000ff" stroke="#0000ff" points="455.6311,-1059.387 465.7837,-1056.3579 455.9581,-1052.3946 455.6311,-1059.387"/>
<text text-anchor="middle" x="77" y="-827.7913" font-family="Times,serif" font-size="14.00" fill="#000000">Indirect</text>
</g>
<!-- 3&#45;&gt;10 -->
<g id="edge34" class="edge">
<title>3&#45;&gt;10</title>
<path fill="none" stroke="#000000" d="M533.5615,-626.2034C579.8849,-636.7011 661.5668,-657.6587 727,-687.4913 733.277,-690.3531 739.7049,-693.9043 745.7529,-697.5707"/>
<polygon fill="#000000" stroke="#000000" points="743.9568,-700.5759 754.2804,-702.9579 747.6955,-694.6579 743.9568,-700.5759"/>
</g>
<!-- 4&#45;&gt;2 -->
<g id="edge19" class="edge">
<title>4&#45;&gt;2</title>
<path fill="none" stroke="#ff0000" stroke-width="2" d="M699.8045,-478.0303C733.1206,-488.4827 776.6974,-504.9217 811,-527.4913 894.489,-582.4234 931.0453,-595.0392 969,-687.4913 1009.6166,-786.4272 939.3104,-839.8097 848,-895.4913 828.7833,-907.2098 806.3499,-918.3274 787.513,-927.0015"/>
<polygon fill="#ff0000" stroke="#ff0000" stroke-width="2" points="785.966,-923.86 778.3063,-931.1798 788.8589,-930.2342 785.966,-923.86"/>
<text text-anchor="middle" x="983" y="-658.2913" font-family="Times,serif" font-size="14.00" fill="#000000">Direct</text>
</g>
<!-- 4&#45;&gt;3 -->
<g id="edge64" class="edge">
<title>4&#45;&gt;3</title>
<path fill="none" stroke="#0000ff" stroke-width="2" d="M627.8651,-485.6928C599.7096,-514.2643 550.0428,-564.6648 520.6631,-594.4786"/>
<polygon fill="#0000ff" stroke="#0000ff" stroke-width="2" points="517.8288,-592.3683 513.3027,-601.9477 522.8147,-597.2816 517.8288,-592.3683"/>
</g>
<!-- 4&#45;&gt;5 -->
<g id="edge76" class="edge">
<title>4&#45;&gt;5</title>
<path fill="none" stroke="#0000ff" stroke-width="2" d="M676.3541,-483.9129C693.3061,-496.1012 715.0785,-511.7553 732.4287,-524.2299"/>
<polygon fill="#0000ff" stroke="#0000ff" stroke-width="2" points="730.3879,-527.0733 740.5503,-530.0692 734.4743,-521.3898 730.3879,-527.0733"/>
</g>
<!-- 4&#45;&gt;10 -->
<g id="edge17" class="edge">
<title>4&#45;&gt;10</title>
<path fill="none" stroke="#0000ff" stroke-width="2" d="M660.9479,-488.1645C684.6822,-535.679 737.6235,-641.6641 762.542,-691.5492"/>
<polygon fill="#0000ff" stroke="#0000ff" stroke-width="2" points="759.5352,-693.3623 767.135,-700.7442 765.7974,-690.2342 759.5352,-693.3623"/>
</g>
<!-- 5&#45;&gt;2 -->
<g id="edge86" class="edge">
<title>5&#45;&gt;2</title>
<path fill="none" stroke="#0000ff" stroke-dasharray="5,2" d="M782.9566,-561.1325C828.6521,-597.3022 931.0044,-690.6736 903,-782.4913 885.343,-840.3829 870.6973,-853.6134 827,-895.4913 815.2319,-906.7694 800.4387,-916.7181 786.7841,-924.6532"/>
<polygon fill="#0000ff" stroke="#0000ff" points="785.0275,-921.6254 778.0187,-929.5707 788.4525,-927.7303 785.0275,-921.6254"/>
<text text-anchor="middle" x="936" y="-714.7913" font-family="Times,serif" font-size="14.00" fill="#000000">Indirect</text>
</g>
<!-- 5&#45;&gt;3 -->
<g id="edge11" class="edge">
<title>5&#45;&gt;3</title>
<path fill="none" stroke="#000000" d="M727.6276,-554.9599C679.8696,-568.1159 593.4168,-591.9312 541.0021,-606.3699"/>
<polygon fill="#000000" stroke="#000000" points="540.0229,-603.0092 531.3115,-609.0394 541.882,-609.7579 540.0229,-603.0092"/>
</g>
<!-- 5&#45;&gt;10 -->
<g id="edge22" class="edge">
<title>5&#45;&gt;10</title>
<path fill="none" stroke="#000000" d="M763.4718,-563.6783C765.9085,-593.7895 770.7991,-654.2226 773.6966,-690.0278"/>
<polygon fill="#000000" stroke="#000000" points="770.2316,-690.6033 774.5269,-700.2883 777.2088,-690.0386 770.2316,-690.6033"/>
</g>
<!-- 6 -->
<g id="node7" class="node">
<title>6</title>
<ellipse fill="#d3d3d3" stroke="#d3d3d3" cx="229" cy="-18" rx="40.0939" ry="18"/>
<text text-anchor="middle" x="229" y="-14.3" font-family="Times,serif" font-size="14.00" fill="#000000">4.2.16</text>
</g>
<!-- 6&#45;&gt;3 -->
<g id="edge20" class="edge">
<title>6&#45;&gt;3</title>
<path fill="none" stroke="#000000" d="M189.6335,-22.3464C124.159,-30.6812 0,-51.6713 0,-91 0,-91 0,-91 0,-346.5 0,-548.8447 320.9342,-601.625 447.0092,-614.5526"/>
<polygon fill="#000000" stroke="#000000" points="446.8742,-618.0561 457.1685,-615.5508 447.5587,-611.0896 446.8742,-618.0561"/>
</g>
<!-- 6&#45;&gt;4 -->
<g id="edge85" class="edge">
<title>6&#45;&gt;4</title>
<path fill="none" stroke="#000000" d="M269.2336,-20.5575C364.9866,-27.0214 604.0025,-45.481 679,-73 734.432,-93.3398 759.1447,-95.6575 790,-146 851.022,-245.5614 739.5857,-376.144 681.2749,-434.1903"/>
<polygon fill="#000000" stroke="#000000" points="678.7862,-431.7288 674.1023,-441.2321 683.6902,-436.7239 678.7862,-431.7288"/>
</g>
<!-- 6&#45;&gt;5 -->
<g id="edge13" class="edge">
<title>6&#45;&gt;5</title>
<path fill="none" stroke="#000000" d="M269.335,-19.4561C434.1794,-25.6679 1048,-51.4535 1048,-91 1048,-91 1048,-91 1048,-346.5 1048,-461.6456 889.8642,-515.5763 808.7682,-535.6628"/>
<polygon fill="#000000" stroke="#000000" points="807.7098,-532.3174 798.804,-538.0565 809.3449,-539.1237 807.7098,-532.3174"/>
</g>
<!-- 6&#45;&gt;11 -->
<g id="edge73" class="edge">
<title>6&#45;&gt;11</title>
<path fill="none" stroke="#000000" d="M191.2645,-24.4988C135.6013,-35.1722 38,-58.5183 38,-91 38,-91 38,-91 38,-237 38,-299.0649 234.0784,-351.7326 325.765,-372.9674"/>
<polygon fill="#000000" stroke="#000000" points="325.0916,-376.4037 335.6203,-375.2219 326.6526,-369.58 325.0916,-376.4037"/>
</g>
<!-- 15 -->
<g id="node16" class="node">
<title>15</title>
<ellipse fill="#d3d3d3" stroke="#d3d3d3" cx="630" cy="-91" rx="40.0939" ry="18"/>
<text text-anchor="middle" x="630" y="-87.3" font-family="Times,serif" font-size="14.00" fill="#000000">4.2.18</text>
</g>
<!-- 6&#45;&gt;15 -->
<g id="edge33" class="edge">
<title>6&#45;&gt;15</title>
<path fill="none" stroke="#000000" d="M266.365,-24.8021C339.6421,-38.1418 502.072,-67.7114 582.7006,-82.3894"/>
<polygon fill="#000000" stroke="#000000" points="582.1185,-85.8409 592.5837,-84.1886 583.3723,-78.9541 582.1185,-85.8409"/>
</g>
<!-- 18 -->
<g id="node19" class="node">
<title>18</title>
<ellipse fill="#d3d3d3" stroke="#d3d3d3" cx="592" cy="-164" rx="40.0939" ry="18"/>
<text text-anchor="middle" x="592" y="-160.3" font-family="Times,serif" font-size="14.00" fill="#000000">4.2.19</text>
</g>
<!-- 6&#45;&gt;18 -->
<g id="edge52" class="edge">
<title>6&#45;&gt;18</title>
<path fill="none" stroke="#000000" d="M259.0146,-30.072C324.3657,-56.3565 479.5184,-118.7595 552.6162,-148.1597"/>
<polygon fill="#000000" stroke="#000000" points="551.3665,-151.4295 561.9503,-151.9139 553.9786,-144.9351 551.3665,-151.4295"/>
</g>
<!-- 21 -->
<g id="node22" class="node">
<title>21</title>
<ellipse fill="#d3d3d3" stroke="#d3d3d3" cx="243" cy="-237" rx="40.0939" ry="18"/>
<text text-anchor="middle" x="243" y="-233.3" font-family="Times,serif" font-size="14.00" fill="#000000">4.2.20</text>
</g>
<!-- 6&#45;&gt;21 -->
<g id="edge79" class="edge">
<title>6&#45;&gt;21</title>
<path fill="none" stroke="#000000" d="M230.1696,-36.2951C232.6153,-74.5542 238.2846,-163.2377 241.1989,-208.8258"/>
<polygon fill="#000000" stroke="#000000" points="237.7127,-209.1546 241.8436,-218.911 244.6984,-208.708 237.7127,-209.1546"/>
</g>
<!-- 22 -->
<g id="node23" class="node">
<title>22</title>
<ellipse fill="#d3d3d3" stroke="#d3d3d3" cx="296" cy="-310" rx="40.0939" ry="18"/>
<text text-anchor="middle" x="296" y="-306.3" font-family="Times,serif" font-size="14.00" fill="#000000">4.2.21</text>
</g>
<!-- 6&#45;&gt;22 -->
<g id="edge62" class="edge">
<title>6&#45;&gt;22</title>
<path fill="none" stroke="#000000" d="M204.8043,-32.4364C186.6807,-45.2773 165,-65.8867 165,-91 165,-91 165,-91 165,-237 165,-257.7616 215.8426,-280.9869 254.1793,-295.5485"/>
<polygon fill="#000000" stroke="#000000" points="253.0251,-298.8534 263.618,-299.0571 255.4642,-292.292 253.0251,-298.8534"/>
</g>
<!-- 7 -->
<g id="node8" class="node">
<title>7</title>
<polygon fill="#d3d3d3" stroke="#d3d3d3" points="418.5,-744.9913 365.5,-744.9913 365.5,-691.9913 418.5,-691.9913 418.5,-744.9913"/>
<text text-anchor="middle" x="392" y="-714.7913" font-family="Times,serif" font-size="14.00" fill="#000000">4.3.9</text>
</g>
<!-- 7&#45;&gt;2 -->
<g id="edge21" class="edge">
<title>7&#45;&gt;2</title>
<path fill="none" stroke="#000000" d="M411.4027,-745.0523C438.2714,-781.3818 485.981,-844.159 508,-862.4913 566.0329,-910.8076 654.0853,-931.2224 705.5456,-939.4126"/>
<polygon fill="#000000" stroke="#000000" points="705.2282,-942.9043 715.6386,-940.9365 706.2732,-935.9827 705.2282,-942.9043"/>
</g>
<!-- 7&#45;&gt;9 -->
<g id="edge35" class="edge">
<title>7&#45;&gt;9</title>
<path fill="none" stroke="#000000" d="M365.342,-743.4156C362.31,-745.6426 359.1677,-747.7205 356,-749.4913 290.8521,-785.91 242.9858,-742.5007 196,-800.4913 146.9718,-861.0026 157.7507,-903.3119 187,-975.4913 194.6728,-994.4257 200.9512,-998.9193 219,-1008.4913 259.3781,-1029.9054 388.4956,-1046.1269 455.6065,-1053.3546"/>
<polygon fill="#000000" stroke="#000000" points="455.5088,-1056.8638 465.8219,-1054.4368 456.2463,-1049.9027 455.5088,-1056.8638"/>
</g>
<!-- 7&#45;&gt;19 -->
<g id="edge27" class="edge">
<title>7&#45;&gt;19</title>
<path fill="none" stroke="#000000" d="M418.6416,-737.8553C424.8408,-741.9599 431.5253,-746.0785 438,-749.4913 493.4001,-778.6923 561.5849,-803.7749 604.1843,-818.2565"/>
<polygon fill="#000000" stroke="#000000" points="603.3225,-821.6594 613.9166,-821.5317 605.5552,-815.025 603.3225,-821.6594"/>
</g>
<!-- 8 -->
<g id="node9" class="node">
<title>8</title>
<ellipse fill="#d3d3d3" stroke="#d3d3d3" cx="516" cy="-310" rx="40.0939" ry="18"/>
<text text-anchor="middle" x="516" y="-306.3" font-family="Times,serif" font-size="14.00" fill="#000000">4.2.23</text>
</g>
<!-- 8&#45;&gt;2 -->
<g id="edge77" class="edge">
<title>8&#45;&gt;2</title>
<path fill="none" stroke="#000000" d="M551.4532,-318.8728C660.7359,-348.4443 991.6765,-455.1954 1102,-687.4913 1113.8214,-712.3823 1111.093,-723.4792 1102,-749.4913 1088.2802,-788.7393 1021.0209,-874.7274 985,-895.4913 941.7009,-920.4506 922.9807,-903.5579 874,-913.4913 845.0665,-919.359 812.747,-927.2675 787.9525,-933.6278"/>
<polygon fill="#000000" stroke="#000000" points="786.9668,-930.2675 778.1612,-936.1592 788.719,-937.0447 786.9668,-930.2675"/>
</g>
<!-- 8&#45;&gt;3 -->
<g id="edge37" class="edge">
<title>8&#45;&gt;3</title>
<path fill="none" stroke="#000000" d="M514.3871,-328.3074C513.9111,-333.9764 513.4087,-340.2446 513,-346 506.6803,-434.9912 501.0026,-540.4604 498.4405,-590.0446"/>
<polygon fill="#000000" stroke="#000000" points="494.9311,-590.1382 497.9137,-600.3045 501.9219,-590.4972 494.9311,-590.1382"/>
</g>
<!-- 8&#45;&gt;4 -->
<g id="edge30" class="edge">
<title>8&#45;&gt;4</title>
<path fill="none" stroke="#000000" d="M524.6454,-327.7512C538.1275,-354.9774 564.0565,-405.4285 578,-420 585.0792,-427.398 593.6439,-434.0769 602.3391,-439.8717"/>
<polygon fill="#000000" stroke="#000000" points="600.705,-442.9794 611.0276,-445.3657 604.4462,-437.063 600.705,-442.9794"/>
</g>
<!-- 8&#45;&gt;5 -->
<g id="edge53" class="edge">
<title>8&#45;&gt;5</title>
<path fill="none" stroke="#000000" d="M516.3682,-328.1796C518.1371,-364.6436 527.4932,-446.9372 575,-490.4913 595.4348,-509.2259 666.3127,-526.5089 714.6936,-536.5242"/>
<polygon fill="#000000" stroke="#000000" points="714.1529,-539.9859 724.6498,-538.549 715.5479,-533.1263 714.1529,-539.9859"/>
</g>
<!-- 8&#45;&gt;10 -->
<g id="edge55" class="edge">
<title>8&#45;&gt;10</title>
<path fill="none" stroke="#000000" d="M499.0384,-326.615C465.7057,-360.6018 392.5932,-442.0929 366,-527.4913 361.2429,-542.7677 359.451,-548.893 366,-563.4913 385.9719,-608.0105 404.1511,-615.0877 448,-636.4913 504.6399,-664.1384 668.2937,-664.5562 727,-687.4913 733.5517,-690.0509 740.1774,-693.5227 746.3486,-697.2181"/>
<polygon fill="#000000" stroke="#000000" points="744.6849,-700.3077 755.0033,-702.7121 748.4365,-694.3978 744.6849,-700.3077"/>
</g>
<!-- 8&#45;&gt;11 -->
<g id="edge42" class="edge">
<title>8&#45;&gt;11</title>
<path fill="none" stroke="#000000" d="M489.2522,-323.5597C466.4617,-335.1131 433.4987,-351.8236 408.3232,-364.5861"/>
<polygon fill="#000000" stroke="#000000" points="406.43,-361.6218 399.0932,-369.2652 409.5952,-367.8653 406.43,-361.6218"/>
</g>
<!-- 10&#45;&gt;2 -->
<g id="edge81" class="edge">
<title>10&#45;&gt;2</title>
<path fill="none" stroke="#0000ff" stroke-dasharray="5,2" d="M774.3674,-736.6362C771.3848,-768.7524 764.5657,-837.6746 756,-895.4913 755.6094,-898.1276 755.1825,-900.8391 754.7336,-903.5695"/>
<polygon fill="#0000ff" stroke="#0000ff" points="751.2818,-902.9912 753.0378,-913.4395 758.1807,-904.1766 751.2818,-902.9912"/>
<text text-anchor="middle" x="796" y="-827.7913" font-family="Times,serif" font-size="14.00" fill="#000000">Indirect</text>
</g>
<!-- 10&#45;&gt;9 -->
<g id="edge57" class="edge">
<title>10&#45;&gt;9</title>
<path fill="none" stroke="#0000ff" stroke-dasharray="5,2" d="M812.1454,-726.456C844.2013,-734.3325 891.7354,-748.0349 930,-767.4913 952.1077,-778.7324 962.9693,-778.8032 975,-800.4913 1014.01,-870.8161 993.6514,-927.6629 929,-975.4913 867.0369,-1021.3309 634.0398,-1045.8744 538.3811,-1054.1972"/>
<polygon fill="#0000ff" stroke="#0000ff" points="537.8843,-1050.7268 528.2184,-1055.0651 538.48,-1057.7014 537.8843,-1050.7268"/>
<text text-anchor="middle" x="1022" y="-884.2913" font-family="Times,serif" font-size="14.00" fill="#000000">Indirect</text>
</g>
<!-- 10&#45;&gt;19 -->
<g id="edge28" class="edge">
<title>10&#45;&gt;19</title>
<path fill="none" stroke="#000000" d="M757.2309,-734.6814C738.1432,-751.1464 708.0078,-777.1411 683.7683,-798.05"/>
<polygon fill="#000000" stroke="#000000" points="681.413,-795.4594 676.1269,-804.6413 685.9852,-800.7599 681.413,-795.4594"/>
</g>
<!-- 11&#45;&gt;2 -->
<g id="edge78" class="edge">
<title>11&#45;&gt;2</title>
<path fill="none" stroke="#000000" d="M332.1214,-386.4246C295.7517,-391.6421 242.9568,-404.8041 211,-438 148.526,-502.8963 138.8036,-551.985 170,-636.4913 202.2113,-723.7466 244.99,-725.4915 300,-800.4913 319.6847,-827.3291 317.7369,-839.7085 342,-862.4913 363.0598,-882.2663 370.7265,-885.9663 398,-895.4913 454.1105,-915.0872 626.054,-933.1608 705.7049,-940.7369"/>
<polygon fill="#000000" stroke="#000000" points="705.5722,-944.2399 715.8564,-941.6931 706.2287,-937.2707 705.5722,-944.2399"/>
</g>
<!-- 11&#45;&gt;3 -->
<g id="edge67" class="edge">
<title>11&#45;&gt;3</title>
<path fill="none" stroke="#000000" d="M375.7294,-401.1064C384.9786,-444.657 409.898,-553.7812 433,-582.4913 439.4136,-590.4618 448.0953,-596.9728 456.9928,-602.1561"/>
<polygon fill="#000000" stroke="#000000" points="455.4161,-605.2818 465.8863,-606.9017 458.7115,-599.106 455.4161,-605.2818"/>
</g>
<!-- 11&#45;&gt;4 -->
<g id="edge80" class="edge">
<title>11&#45;&gt;4</title>
<path fill="none" stroke="#000000" d="M405.6887,-392.8811C452.8859,-406.7243 539.1894,-432.0376 595.3016,-448.4956"/>
<polygon fill="#000000" stroke="#000000" points="594.4864,-451.9039 605.0673,-451.3599 596.4566,-445.1869 594.4864,-451.9039"/>
</g>
<!-- 11&#45;&gt;5 -->
<g id="edge56" class="edge">
<title>11&#45;&gt;5</title>
<path fill="none" stroke="#000000" d="M395.4136,-397.7905C412.0598,-408.5249 434.782,-423.6264 454,-438 493.803,-467.7697 494.7616,-488.8999 540,-509.4913 569.942,-523.1201 656.6561,-534.4051 712.4284,-540.5267"/>
<polygon fill="#000000" stroke="#000000" points="712.1439,-544.0162 722.4616,-541.609 712.8947,-537.0566 712.1439,-544.0162"/>
</g>
<!-- 11&#45;&gt;10 -->
<g id="edge59" class="edge">
<title>11&#45;&gt;10</title>
<path fill="none" stroke="#000000" d="M338.0681,-392.8926C291.1016,-408.9163 212,-445.3503 212,-508.9913 212,-508.9913 212,-508.9913 212,-618.4913 212,-663.6959 256.6022,-656.8387 300,-669.4913 391.1771,-696.074 636.3563,-659.1431 727,-687.4913 734.1336,-689.7223 741.2512,-693.2669 747.7619,-697.1755"/>
<polygon fill="#000000" stroke="#000000" points="745.9116,-700.1471 756.2086,-702.6418 749.7148,-694.2703 745.9116,-700.1471"/>
</g>
<!-- 12 -->
<g id="node13" class="node">
<title>12</title>
<polygon fill="#d3d3d3" stroke="#d3d3d3" points="1093,-749.4913 1031,-749.4913 1031,-687.4913 1093,-687.4913 1093,-749.4913"/>
<text text-anchor="middle" x="1062" y="-714.7913" font-family="Times,serif" font-size="14.00" fill="#000000">4.3.12</text>
</g>
<!-- 12&#45;&gt;2 -->
<g id="edge54" class="edge">
<title>12&#45;&gt;2</title>
<path fill="none" stroke="#000000" d="M1042.1738,-749.6857C1032.7435,-764.8506 1021.4845,-783.4436 1012,-800.4913 989.0012,-841.8299 1001.2981,-866.3935 964,-895.4913 937.0371,-916.5261 843.54,-931.9065 788.4603,-939.39"/>
<polygon fill="#000000" stroke="#000000" points="787.7693,-935.9509 778.3176,-940.7378 788.6915,-942.8899 787.7693,-935.9509"/>
</g>
<!-- 12&#45;&gt;9 -->
<g id="edge2" class="edge">
<title>12&#45;&gt;9</title>
<path fill="none" stroke="#000000" d="M1067.5918,-749.5378C1072.6999,-786.209 1076.553,-848.1981 1055,-895.4913 1033.4862,-942.6984 1013.9865,-947.9859 970,-975.4913 934.9361,-997.4172 923.1258,-998.4842 883,-1008.4913 760.027,-1039.1597 609.9755,-1051.1942 538.5878,-1055.4352"/>
<polygon fill="#000000" stroke="#000000" points="538.0136,-1051.9622 528.23,-1056.0281 538.4137,-1058.9508 538.0136,-1051.9622"/>
</g>
<!-- 12&#45;&gt;19 -->
<g id="edge46" class="edge">
<title>12&#45;&gt;19</title>
<path fill="none" stroke="#000000" d="M1030.6404,-732.2658C1015.3396,-738.4503 996.4989,-745.2868 979,-749.4913 910.7087,-765.8997 890.3765,-751.4415 822,-767.4913 774.0216,-778.7531 721.1407,-798.959 685.7867,-813.6614"/>
<polygon fill="#000000" stroke="#000000" points="684.1605,-810.5483 676.2984,-817.6503 686.8734,-817.0012 684.1605,-810.5483"/>
</g>
<!-- 13 -->
<g id="node14" class="node">
<title>13</title>
<polygon fill="#d3d3d3" stroke="#d3d3d3" points="443.5,-857.9913 390.5,-857.9913 390.5,-804.9913 443.5,-804.9913 443.5,-857.9913"/>
<text text-anchor="middle" x="417" y="-827.7913" font-family="Times,serif" font-size="14.00" fill="#000000">4.3.0</text>
</g>
<!-- 13&#45;&gt;2 -->
<g id="edge40" class="edge">
<title>13&#45;&gt;2</title>
<path fill="none" stroke="#000000" d="M427.7398,-858.1136C434.4703,-871.4113 444.4639,-886.5356 458,-895.4913 497.9655,-921.933 635.5386,-935.9893 705.4751,-941.5728"/>
<polygon fill="#000000" stroke="#000000" points="705.4475,-945.0811 715.6886,-942.3662 705.9897,-938.1021 705.4475,-945.0811"/>
</g>
<!-- 14 -->
<g id="node15" class="node">
<title>14</title>
<polygon fill="#d3d3d3" stroke="#d3d3d3" points="499.5,-744.9913 446.5,-744.9913 446.5,-691.9913 499.5,-691.9913 499.5,-744.9913"/>
<text text-anchor="middle" x="473" y="-714.7913" font-family="Times,serif" font-size="14.00" fill="#000000">4.3.1</text>
</g>
<!-- 14&#45;&gt;2 -->
<g id="edge16" class="edge">
<title>14&#45;&gt;2</title>
<path fill="none" stroke="#000000" d="M484.0066,-745.0861C497.4124,-775.5142 522.1364,-825.8557 553,-862.4913 592.0136,-908.8011 661.7325,-929.5103 706.1064,-938.3614"/>
<polygon fill="#000000" stroke="#000000" points="705.5133,-941.8112 715.988,-940.2205 706.8075,-934.9319 705.5133,-941.8112"/>
</g>
<!-- 14&#45;&gt;9 -->
<g id="edge61" class="edge">
<title>14&#45;&gt;9</title>
<path fill="none" stroke="#000000" d="M446.2981,-739.0997C440.484,-742.9446 434.2083,-746.6429 428,-749.4913 346.9696,-786.6682 288.4393,-729.8909 234,-800.4913 177.5501,-873.6991 174.9208,-937.3883 234,-1008.4913 261.6819,-1041.807 388.6412,-1052.5871 455.5159,-1055.9846"/>
<polygon fill="#000000" stroke="#000000" points="455.5537,-1059.4902 465.7085,-1056.4688 455.8859,-1052.4981 455.5537,-1059.4902"/>
</g>
<!-- 14&#45;&gt;19 -->
<g id="edge84" class="edge">
<title>14&#45;&gt;19</title>
<path fill="none" stroke="#000000" d="M499.5823,-743.5543C502.6291,-745.7543 505.7955,-747.7879 509,-749.4913 535.8473,-763.7624 548.3679,-752.8225 575,-767.4913 587.4188,-774.3315 599.4023,-783.8102 609.8385,-793.3788"/>
<polygon fill="#000000" stroke="#000000" points="607.4885,-795.9739 617.1483,-800.3258 612.3107,-790.8998 607.4885,-795.9739"/>
</g>
<!-- 15&#45;&gt;3 -->
<g id="edge58" class="edge">
<title>15&#45;&gt;3</title>
<path fill="none" stroke="#000000" d="M659.2896,-103.4941C664.4727,-105.4808 669.8568,-107.4039 675,-109 709.8069,-119.8018 720.8831,-114.1845 755,-127 930.6662,-192.9866 1116.0173,-241.2212 1059,-420 1019.4114,-544.1307 942.3701,-555.0586 815,-582.4913 721.6161,-602.6041 610.2335,-611.939 547.148,-615.9011"/>
<polygon fill="#000000" stroke="#000000" points="546.8416,-612.4132 537.0725,-616.5138 547.2665,-619.4003 546.8416,-612.4132"/>
</g>
<!-- 15&#45;&gt;4 -->
<g id="edge31" class="edge">
<title>15&#45;&gt;4</title>
<path fill="none" stroke="#000000" d="M645.5591,-107.6514C650.3724,-113.449 655.3604,-120.2092 659,-127 663.1832,-134.8051 663.6509,-137.2479 665,-146 680.9076,-249.2002 664.6594,-373.2265 655.0253,-431.2656"/>
<polygon fill="#000000" stroke="#000000" points="651.5425,-430.8691 653.3126,-441.315 658.443,-432.0452 651.5425,-430.8691"/>
</g>
<!-- 15&#45;&gt;5 -->
<g id="edge87" class="edge">
<title>15&#45;&gt;5</title>
<path fill="none" stroke="#000000" d="M664.8719,-100.2732C709.7475,-113.254 782,-138.1653 782,-164 782,-164 782,-164 782,-464.2456 782,-482.5964 777.1298,-502.6203 772.1959,-518.1975"/>
<polygon fill="#000000" stroke="#000000" points="768.8605,-517.1356 768.995,-527.7296 775.4964,-519.364 768.8605,-517.1356"/>
</g>
<!-- 15&#45;&gt;11 -->
<g id="edge38" class="edge">
<title>15&#45;&gt;11</title>
<path fill="none" stroke="#000000" d="M638.7602,-108.827C648.7114,-131.8654 661.4502,-172.4071 644,-201 597.9202,-276.5039 538.4663,-239.8774 467,-292 448.7183,-305.3334 447.2781,-312.283 431,-328 420.0823,-338.5414 407.8346,-350.0145 397.3396,-359.7413"/>
<polygon fill="#000000" stroke="#000000" points="394.6758,-357.4373 389.7068,-366.7947 399.4265,-362.5784 394.6758,-357.4373"/>
</g>
<!-- 15&#45;&gt;18 -->
<g id="edge63" class="edge">
<title>15&#45;&gt;18</title>
<path fill="none" stroke="#000000" d="M620.8013,-108.6713C616.3533,-117.216 610.9185,-127.6566 605.9732,-137.1568"/>
<polygon fill="#000000" stroke="#000000" points="602.7586,-135.7522 601.2457,-146.2385 608.9677,-138.9844 602.7586,-135.7522"/>
</g>
<!-- 15&#45;&gt;21 -->
<g id="edge43" class="edge">
<title>15&#45;&gt;21</title>
<path fill="none" stroke="#000000" d="M589.7807,-93.1815C506.4147,-98.013 320.5453,-110.5063 297,-127 269.7404,-146.0957 255.6314,-182.9328 248.7803,-208.6957"/>
<polygon fill="#000000" stroke="#000000" points="245.3246,-208.0929 246.3465,-218.6384 252.1238,-209.7574 245.3246,-208.0929"/>
</g>
<!-- 15&#45;&gt;22 -->
<g id="edge66" class="edge">
<title>15&#45;&gt;22</title>
<path fill="none" stroke="#000000" d="M597.987,-102.0916C546.9041,-120.8033 445.3513,-162.2291 373,-219 349.3148,-237.5848 327.6838,-264.4327 313.4206,-284.1515"/>
<polygon fill="#000000" stroke="#000000" points="310.5115,-282.2034 307.5898,-292.3874 316.2246,-286.2482 310.5115,-282.2034"/>
</g>
<!-- 16 -->
<g id="node17" class="node">
<title>16</title>
<polygon fill="#d3d3d3" stroke="#d3d3d3" points="1249,-749.4913 1187,-749.4913 1187,-687.4913 1249,-687.4913 1249,-749.4913"/>
<text text-anchor="middle" x="1218" y="-714.7913" font-family="Times,serif" font-size="14.00" fill="#000000">4.3.10</text>
</g>
<!-- 16&#45;&gt;2 -->
<g id="edge50" class="edge">
<title>16&#45;&gt;2</title>
<path fill="none" stroke="#000000" d="M1211.9774,-749.5683C1204.1027,-782.0965 1187.2067,-832.5228 1154,-862.4913 1149.6177,-866.4462 1058.7376,-894.1037 1053,-895.4913 959.5155,-918.1002 847.3771,-933.0272 788.2233,-939.9761"/>
<polygon fill="#000000" stroke="#000000" points="787.6879,-936.5146 778.1568,-941.1414 788.4929,-943.4682 787.6879,-936.5146"/>
</g>
<!-- 16&#45;&gt;9 -->
<g id="edge1" class="edge">
<title>16&#45;&gt;9</title>
<path fill="none" stroke="#000000" d="M1220.2255,-749.6163C1220.3888,-760.1296 1219.923,-771.8865 1218,-782.4913 1211.2246,-819.8553 1211.5018,-832.6644 1188,-862.4913 1132.5359,-932.8826 1101.3077,-935.7185 1021,-975.4913 979.8155,-995.8881 967.8543,-998.4768 923,-1008.4913 784.0401,-1039.5165 614.9431,-1051.5334 538.2981,-1055.6274"/>
<polygon fill="#000000" stroke="#000000" points="537.9157,-1052.1424 528.1095,-1056.1537 538.2768,-1059.1331 537.9157,-1052.1424"/>
</g>
<!-- 16&#45;&gt;19 -->
<g id="edge8" class="edge">
<title>16&#45;&gt;19</title>
<path fill="none" stroke="#000000" d="M1186.6859,-727.7192C1163.4527,-734.3552 1130.9258,-743.2058 1102,-749.4913 1015.6773,-768.249 993.3801,-769.523 906,-782.4913 843.9453,-791.7009 827.6133,-788.6842 766,-800.4913 739.099,-805.6464 709.2877,-813.2611 685.9866,-819.6533"/>
<polygon fill="#000000" stroke="#000000" points="684.7991,-816.3505 676.1004,-822.3988 686.6723,-823.0952 684.7991,-816.3505"/>
</g>
<!-- 17 -->
<g id="node18" class="node">
<title>17</title>
<polygon fill="#d3d3d3" stroke="#d3d3d3" points="570.5,-744.9913 517.5,-744.9913 517.5,-691.9913 570.5,-691.9913 570.5,-744.9913"/>
<text text-anchor="middle" x="544" y="-714.7913" font-family="Times,serif" font-size="14.00" fill="#000000">4.3.2</text>
</g>
<!-- 17&#45;&gt;2 -->
<g id="edge7" class="edge">
<title>17&#45;&gt;2</title>
<path fill="none" stroke="#000000" d="M546.1185,-745.0875C550.87,-785.1111 566.1565,-859.9186 615,-895.4913 642.2775,-915.3575 678.5202,-928.0467 706.1273,-935.5224"/>
<polygon fill="#000000" stroke="#000000" points="705.3171,-938.928 715.875,-938.0444 707.0705,-932.1511 705.3171,-938.928"/>
</g>
<!-- 17&#45;&gt;9 -->
<g id="edge6" class="edge">
<title>17&#45;&gt;9</title>
<path fill="none" stroke="#000000" d="M517.2009,-743.8209C514.5198,-745.8612 511.7646,-747.7886 509,-749.4913 456.8574,-781.6047 415.3661,-749.805 381,-800.4913 331.7745,-873.0935 408.292,-969.9721 458.6417,-1021.5724"/>
<polygon fill="#000000" stroke="#000000" points="456.3341,-1024.216 465.8624,-1028.8488 461.3028,-1019.2852 456.3341,-1024.216"/>
</g>
<!-- 17&#45;&gt;19 -->
<g id="edge26" class="edge">
<title>17&#45;&gt;19</title>
<path fill="none" stroke="#000000" d="M570.8245,-739.9342C575.4467,-743.2894 580.2835,-746.599 585,-749.4913 600.5894,-759.0511 609.7843,-753.8826 622,-767.4913 627.8955,-774.059 632.309,-782.2479 635.6035,-790.5512"/>
<polygon fill="#000000" stroke="#000000" points="632.3892,-791.9645 638.9785,-800.2609 639.0012,-789.6661 632.3892,-791.9645"/>
</g>
<!-- 18&#45;&gt;3 -->
<g id="edge91" class="edge">
<title>18&#45;&gt;3</title>
<path fill="none" stroke="#000000" d="M624.8395,-174.6398C711.2818,-202.7957 939.1828,-278.051 949,-292 958.2087,-305.0844 951.8576,-312.2572 949,-328 928.4352,-441.2934 931.756,-492.6277 841,-563.4913 796.1535,-598.508 631.4064,-611.7622 547.2306,-616.3281"/>
<polygon fill="#000000" stroke="#000000" points="546.937,-612.8386 537.133,-616.855 547.3018,-619.8291 546.937,-612.8386"/>
</g>
<!-- 18&#45;&gt;4 -->
<g id="edge9" class="edge">
<title>18&#45;&gt;4</title>
<path fill="none" stroke="#000000" d="M595.4798,-182.3297C604.8673,-231.7781 630.8086,-368.4231 642.7883,-431.5255"/>
<polygon fill="#000000" stroke="#000000" points="639.3501,-432.1811 644.6539,-441.3528 646.2273,-430.8755 639.3501,-432.1811"/>
</g>
<!-- 18&#45;&gt;5 -->
<g id="edge75" class="edge">
<title>18&#45;&gt;5</title>
<path fill="none" stroke="#000000" d="M602.0166,-181.4445C605.2885,-187.2949 608.8808,-193.8859 612,-200 665.0411,-303.9681 678.3859,-330.1469 723,-438 734.0709,-464.7636 745.1899,-495.9337 752.7064,-517.7954"/>
<polygon fill="#000000" stroke="#000000" points="749.4509,-519.0928 755.9921,-527.4273 756.076,-516.8328 749.4509,-519.0928"/>
</g>
<!-- 18&#45;&gt;10 -->
<g id="edge23" class="edge">
<title>18&#45;&gt;10</title>
<path fill="none" stroke="#000000" d="M630.2067,-170.0922C676.8906,-178.2056 757.8299,-194.4515 824,-219 946.8022,-264.5585 1016.9062,-250.217 1080,-365 1146.405,-485.807 1032.3846,-544.1801 930,-636.4913 896.523,-666.6745 849.9293,-689.475 816.7799,-703.2769"/>
<polygon fill="#000000" stroke="#000000" points="815.3261,-700.0897 807.3817,-707.0996 817.9635,-706.5739 815.3261,-700.0897"/>
</g>
<!-- 18&#45;&gt;11 -->
<g id="edge10" class="edge">
<title>18&#45;&gt;11</title>
<path fill="none" stroke="#000000" d="M568.7264,-178.9299C535.5601,-200.9514 473.9649,-244.6758 431,-292 413.0538,-311.7671 396.8871,-337.5551 386.0344,-356.6296"/>
<polygon fill="#000000" stroke="#000000" points="382.9585,-354.9592 381.1491,-365.3984 389.0736,-358.366 382.9585,-354.9592"/>
</g>
<!-- 18&#45;&gt;21 -->
<g id="edge83" class="edge">
<title>18&#45;&gt;21</title>
<path fill="none" stroke="#000000" d="M552.1623,-167.6402C503.8387,-172.5783 420.1347,-182.8145 350,-200 327.1953,-205.5879 302.3757,-214.017 282.3867,-221.4191"/>
<polygon fill="#000000" stroke="#000000" points="281.1191,-218.1564 272.992,-224.9535 283.584,-224.7082 281.1191,-218.1564"/>
</g>
<!-- 18&#45;&gt;22 -->
<g id="edge60" class="edge">
<title>18&#45;&gt;22</title>
<path fill="none" stroke="#000000" d="M555.9155,-172.1396C531.6054,-178.2666 499.1471,-187.7127 472,-200 417.1564,-224.8231 358.9364,-264.0964 325.1055,-288.3865"/>
<polygon fill="#000000" stroke="#000000" points="322.6855,-285.8176 316.64,-294.5184 326.7918,-291.4867 322.6855,-285.8176"/>
</g>
<!-- 19&#45;&gt;2 -->
<g id="edge41" class="edge">
<title>19&#45;&gt;2</title>
<path fill="none" stroke="#000000" d="M673.142,-862.6682C685.1824,-876.0071 699.366,-891.7203 712.0684,-905.7926"/>
<polygon fill="#000000" stroke="#000000" points="709.6512,-908.3382 718.9499,-913.4162 714.8474,-903.6478 709.6512,-908.3382"/>
</g>
<!-- 19&#45;&gt;9 -->
<g id="edge5" class="edge">
<title>19&#45;&gt;9</title>
<path fill="none" stroke="#000000" d="M624.4212,-862.9156C597.9127,-903.3949 551.8203,-973.7792 522.9397,-1017.8806"/>
<polygon fill="#000000" stroke="#000000" points="519.9545,-1016.0506 517.404,-1026.3338 525.8105,-1019.8855 519.9545,-1016.0506"/>
</g>
<!-- 20 -->
<g id="node21" class="node">
<title>20</title>
<polygon fill="#d3d3d3" stroke="#d3d3d3" points="646.5,-744.9913 593.5,-744.9913 593.5,-691.9913 646.5,-691.9913 646.5,-744.9913"/>
<text text-anchor="middle" x="620" y="-714.7913" font-family="Times,serif" font-size="14.00" fill="#000000">4.3.5</text>
</g>
<!-- 20&#45;&gt;2 -->
<g id="edge72" class="edge">
<title>20&#45;&gt;2</title>
<path fill="none" stroke="#000000" d="M608.3147,-745.1483C596.868,-775.6342 583.9508,-826.0294 605,-862.4913 626.5687,-899.8531 672.3606,-921.7156 706.1395,-933.3366"/>
<polygon fill="#000000" stroke="#000000" points="705.1641,-936.7 715.7567,-936.4837 707.3412,-930.0471 705.1641,-936.7"/>
</g>
<!-- 20&#45;&gt;9 -->
<g id="edge45" class="edge">
<title>20&#45;&gt;9</title>
<path fill="none" stroke="#000000" d="M646.5952,-742.1563C661.2718,-757.1669 677.923,-777.9605 685,-800.4913 693.2575,-826.7805 694.7644,-836.7237 685,-862.4913 656.6062,-937.4209 582.7211,-998.9941 536.4824,-1031.7952"/>
<polygon fill="#000000" stroke="#000000" points="534.3865,-1028.9897 528.1875,-1037.5818 538.3915,-1034.7308 534.3865,-1028.9897"/>
</g>
<!-- 20&#45;&gt;19 -->
<g id="edge39" class="edge">
<title>20&#45;&gt;19</title>
<path fill="none" stroke="#000000" d="M637.8533,-745.1974C641.6169,-752.1687 645.0397,-759.8719 647,-767.4913 648.8471,-774.6708 649.5962,-782.4528 649.6939,-790.0363"/>
<polygon fill="#000000" stroke="#000000" points="646.1916,-790.1026 649.4654,-800.1789 653.1898,-790.2603 646.1916,-790.1026"/>
</g>
<!-- 21&#45;&gt;3 -->
<g id="edge12" class="edge">
<title>21&#45;&gt;3</title>
<path fill="none" stroke="#000000" d="M242.0281,-255.0117C241.4376,-273.535 241.6371,-303.1109 247,-328 271.7007,-442.636 273.7714,-491.066 366,-563.4913 391.5711,-583.5718 425.5394,-597.5549 452.4784,-606.3961"/>
<polygon fill="#000000" stroke="#000000" points="451.4668,-609.747 462.0567,-609.4225 453.5758,-603.0722 451.4668,-609.747"/>
</g>
<!-- 21&#45;&gt;4 -->
<g id="edge48" class="edge">
<title>21&#45;&gt;4</title>
<path fill="none" stroke="#000000" d="M283.2835,-239.0436C359.7891,-243.6868 522.2941,-257.4367 565,-292 612.6015,-330.5255 586.1052,-366.5545 616,-420 618.3887,-424.2705 621.1374,-428.5978 624.0075,-432.7892"/>
<polygon fill="#000000" stroke="#000000" points="621.3225,-435.051 629.9927,-441.1402 627.0121,-430.9732 621.3225,-435.051"/>
</g>
<!-- 21&#45;&gt;5 -->
<g id="edge89" class="edge">
<title>21&#45;&gt;5</title>
<path fill="none" stroke="#000000" d="M209.0503,-246.9114C196.3864,-252.4401 183.3184,-260.7599 176,-273 142.0651,-329.757 142.1689,-386.1893 199,-420 271.0619,-462.872 293.0081,-468.7835 374,-490.4913 492.779,-522.3269 637.2504,-536.6253 711.9221,-542.2805"/>
<polygon fill="#000000" stroke="#000000" points="711.7552,-545.7776 721.9854,-543.0221 712.2697,-538.7966 711.7552,-545.7776"/>
</g>
<!-- 21&#45;&gt;10 -->
<g id="edge69" class="edge">
<title>21&#45;&gt;10</title>
<path fill="none" stroke="#000000" d="M208.8257,-246.6255C187.3617,-254.7661 161.7709,-268.893 151,-292 79.4482,-445.501 47.6691,-602.004 203,-669.4913 309.8627,-715.9204 615.6636,-653.1472 727,-687.4913 734.1423,-689.6945 741.2634,-693.2274 747.775,-697.1335"/>
<polygon fill="#000000" stroke="#000000" points="745.9246,-700.105 756.2212,-702.6013 749.7287,-694.2288 745.9246,-700.105"/>
</g>
<!-- 21&#45;&gt;11 -->
<g id="edge74" class="edge">
<title>21&#45;&gt;11</title>
<path fill="none" stroke="#000000" d="M276.3912,-247.3637C298.8092,-255.9469 327.3648,-270.2966 345,-292 359.4679,-309.8054 366.1849,-335.1575 369.3025,-354.5823"/>
<polygon fill="#000000" stroke="#000000" points="365.861,-355.2484 370.6905,-364.6785 372.7958,-354.295 365.861,-355.2484"/>
</g>
<!-- 21&#45;&gt;22 -->
<g id="edge47" class="edge">
<title>21&#45;&gt;22</title>
<path fill="none" stroke="#000000" d="M255.5603,-254.3C262.0947,-263.3003 270.2101,-274.478 277.4521,-284.4529"/>
<polygon fill="#000000" stroke="#000000" points="274.8225,-286.7883 283.5299,-292.8242 280.487,-282.6757 274.8225,-286.7883"/>
</g>
<!-- 22&#45;&gt;2 -->
<g id="edge68" class="edge">
<title>22&#45;&gt;2</title>
<path fill="none" stroke="#000000" d="M272.2829,-324.8983C225.7262,-355.7988 123.8781,-432.0145 89,-527.4913 51.6784,-629.6569 123.3137,-665.1533 192,-749.4913 254.4684,-826.1945 265.9262,-864.9004 360,-895.4913 423.6032,-916.1737 619.4284,-934.1096 705.5884,-941.2256"/>
<polygon fill="#000000" stroke="#000000" points="705.5274,-944.7322 715.7795,-942.059 706.098,-937.7555 705.5274,-944.7322"/>
</g>
<!-- 22&#45;&gt;3 -->
<g id="edge51" class="edge">
<title>22&#45;&gt;3</title>
<path fill="none" stroke="#000000" d="M289.379,-327.8929C283.4846,-346.5762 276.9382,-376.5129 285,-401 301.0568,-449.7712 385.2108,-554.1093 428,-582.4913 437.928,-589.0765 449.2023,-595.3961 459.7179,-600.8518"/>
<polygon fill="#000000" stroke="#000000" points="458.2085,-604.0106 468.7106,-605.4088 461.3727,-597.7665 458.2085,-604.0106"/>
</g>
<!-- 22&#45;&gt;4 -->
<g id="edge24" class="edge">
<title>22&#45;&gt;4</title>
<path fill="none" stroke="#000000" d="M296.1105,-328.2703C297.2778,-349.0177 302.4993,-382.3936 323,-401 342.5515,-418.7448 501.0539,-443.4795 589.6331,-456.1139"/>
<polygon fill="#000000" stroke="#000000" points="589.1588,-459.5816 599.551,-457.5197 590.1412,-452.6508 589.1588,-459.5816"/>
</g>
<!-- 22&#45;&gt;5 -->
<g id="edge15" class="edge">
<title>22&#45;&gt;5</title>
<path fill="none" stroke="#000000" d="M291.1831,-328.2316C287.0925,-348.0256 284.0039,-379.6603 299,-401 321.292,-432.7219 344.3772,-418.6941 378,-438 413.6,-458.4412 416.4967,-473.7968 454,-490.4913 499.4986,-510.7448 637.8493,-530.2032 712.6854,-539.6135"/>
<polygon fill="#000000" stroke="#000000" points="712.4514,-543.1113 722.8072,-540.8737 713.3163,-536.1649 712.4514,-543.1113"/>
</g>
<!-- 22&#45;&gt;10 -->
<g id="edge25" class="edge">
<title>22&#45;&gt;10</title>
<path fill="none" stroke="#000000" d="M281.1983,-326.84C261.6561,-350.0921 227.7685,-394.1474 211,-438 174.1026,-534.4936 136.9853,-628.9371 232,-669.4913 333.2369,-712.7012 621.8505,-654.9399 727,-687.4913 734.14,-689.7016 741.2603,-693.2376 747.7716,-697.1443"/>
<polygon fill="#000000" stroke="#000000" points="745.9213,-700.1158 756.2179,-702.6117 749.7251,-694.2395 745.9213,-700.1158"/>
</g>
<!-- 22&#45;&gt;11 -->
<g id="edge49" class="edge">
<title>22&#45;&gt;11</title>
<path fill="none" stroke="#000000" d="M313.2456,-326.5648C323.3513,-336.2717 336.282,-348.692 347.4387,-359.4083"/>
<polygon fill="#000000" stroke="#000000" points="345.1861,-362.0976 354.8227,-366.5007 350.0352,-357.0492 345.1861,-362.0976"/>
</g>
<!-- 23 -->
<g id="node24" class="node">
<title>23</title>
<polygon fill="#d3d3d3" stroke="#d3d3d3" points="717.5,-744.9913 664.5,-744.9913 664.5,-691.9913 717.5,-691.9913 717.5,-744.9913"/>
<text text-anchor="middle" x="691" y="-714.7913" font-family="Times,serif" font-size="14.00" fill="#000000">4.3.8</text>
</g>
<!-- 23&#45;&gt;2 -->
<g id="edge29" class="edge">
<title>23&#45;&gt;2</title>
<path fill="none" stroke="#000000" d="M700.6939,-745.2096C706.2419,-761.1232 713.0592,-781.7987 718,-800.4913 727.0543,-834.7466 734.8226,-874.2347 740.0338,-903.1858"/>
<polygon fill="#000000" stroke="#000000" points="736.6432,-904.1109 741.8357,-913.346 743.5356,-902.8885 736.6432,-904.1109"/>
</g>
<!-- 23&#45;&gt;9 -->
<g id="edge36" class="edge">
<title>23&#45;&gt;9</title>
<path fill="none" stroke="#000000" d="M717.738,-744.3967C720.7093,-746.3719 723.8169,-748.1246 727,-749.4913 800.4706,-781.0373 839.9368,-722.4497 906,-767.4913 957.604,-802.6747 994.5571,-841.0202 964,-895.4913 916.8619,-979.5196 869.1646,-974.5339 779,-1008.4913 697.0857,-1039.3415 594.3854,-1050.9361 538.286,-1055.1678"/>
<polygon fill="#000000" stroke="#000000" points="537.7643,-1051.6959 528.0381,-1055.8974 538.2615,-1058.6783 537.7643,-1051.6959"/>
</g>
<!-- 23&#45;&gt;19 -->
<g id="edge90" class="edge">
<title>23&#45;&gt;19</title>
<path fill="none" stroke="#000000" d="M680.0986,-745.2707C674.6065,-758.7622 667.8278,-775.4144 661.6966,-790.4757"/>
<polygon fill="#000000" stroke="#000000" points="658.3098,-789.5126 657.7811,-800.0942 664.7932,-792.1519 658.3098,-789.5126"/>
</g>
</g>
</svg>
