<?xml version="1.0" encoding="UTF-8" standalone="no"?>
<!DOCTYPE svg PUBLIC "-//W3C//DTD SVG 1.1//EN"
 "http://www.w3.org/Graphics/SVG/1.1/DTD/svg11.dtd">
<!-- Generated by graphviz version 2.40.1 (0)
 -->
<!-- Title: fast Pages: 1 -->
<svg width="411pt" height="287pt"
 viewBox="0.00 0.00 410.73 287.00" xmlns="http://www.w3.org/2000/svg" xmlns:xlink="http://www.w3.org/1999/xlink">
<g id="graph0" class="graph" transform="scale(1 1) rotate(0) translate(4 283)">
<title>fast</title>
<polygon fill="#ffffff" stroke="transparent" points="-4,4 -4,-283 406.7338,-283 406.7338,4 -4,4"/>
<text text-anchor="middle" x="201.3669" y="-7.8" font-family="Times,serif" font-size="14.00" fill="#000000">fast&#45;4.4_amd64 (2020&#45;06&#45;03)</text>
<!-- 0 -->
<g id="node1" class="node">
<title>0</title>
<ellipse fill="#d3d3d3" stroke="#d3d3d3" cx="352.2338" cy="-172" rx="40.0939" ry="18"/>
<text text-anchor="middle" x="352.2338" y="-168.3" font-family="Times,serif" font-size="14.00" fill="#000000">4.3.18</text>
</g>
<!-- 5 -->
<g id="node4" class="node">
<title>5</title>
<polygon fill="#9acd32" stroke="#9acd32" points="158.7338,-279 105.7338,-279 105.7338,-226 158.7338,-226 158.7338,-279"/>
<text text-anchor="middle" x="132.2338" y="-248.8" font-family="Times,serif" font-size="14.00" fill="#000000">4.4.6</text>
</g>
<!-- 0&#45;&gt;5 -->
<g id="edge15" class="edge">
<title>0&#45;&gt;5</title>
<path fill="none" stroke="#0000ff" stroke-dasharray="5,2" d="M321.1632,-183.6369C314.9264,-185.845 308.3958,-188.0668 302.2338,-190 243.3943,-208.4599 223.802,-199.2598 168.2338,-226 168.1377,-226.0463 168.0415,-226.0928 167.9454,-226.1396"/>
<polygon fill="#0000ff" stroke="#0000ff" points="166.0793,-223.1735 159.0785,-231.1257 169.5104,-229.2749 166.0793,-223.1735"/>
</g>
<!-- 6 -->
<g id="node5" class="node">
<title>6</title>
<polygon fill="#9acd32" stroke="#9acd32" points="300.7338,-279 247.7338,-279 247.7338,-226 300.7338,-226 300.7338,-279"/>
<text text-anchor="middle" x="274.2338" y="-248.8" font-family="Times,serif" font-size="14.00" fill="#000000">4.4.4</text>
</g>
<!-- 0&#45;&gt;6 -->
<g id="edge13" class="edge">
<title>0&#45;&gt;6</title>
<path fill="none" stroke="#0000ff" stroke-dasharray="5,2" d="M336.0722,-188.6797C327.7417,-197.2771 317.2648,-208.0898 307.3142,-218.3593"/>
<polygon fill="#0000ff" stroke="#0000ff" points="304.645,-216.0844 300.1999,-225.7017 309.6722,-220.9555 304.645,-216.0844"/>
</g>
<!-- 9 -->
<g id="node8" class="node">
<title>9</title>
<polygon fill="#9acd32" stroke="#9acd32" points="229.7338,-279 176.7338,-279 176.7338,-226 229.7338,-226 229.7338,-279"/>
<text text-anchor="middle" x="203.2338" y="-248.8" font-family="Times,serif" font-size="14.00" fill="#000000">4.4.5</text>
</g>
<!-- 0&#45;&gt;9 -->
<g id="edge6" class="edge">
<title>0&#45;&gt;9</title>
<path fill="none" stroke="#0000ff" stroke-dasharray="5,2" d="M322.653,-184.2994C299.3843,-194.4061 266.4588,-209.6742 239.2338,-226 239.0425,-226.1147 238.8509,-226.2303 238.6591,-226.3465"/>
<polygon fill="#0000ff" stroke="#0000ff" points="236.4742,-223.5916 229.9838,-231.9657 240.2798,-229.4668 236.4742,-223.5916"/>
</g>
<!-- 1 -->
<g id="node2" class="node">
<title>1</title>
<ellipse fill="#d3d3d3" stroke="#d3d3d3" cx="154.2338" cy="-172" rx="40.0939" ry="18"/>
<text text-anchor="middle" x="154.2338" y="-168.3" font-family="Times,serif" font-size="14.00" fill="#000000">4.3.19</text>
</g>
<!-- 1&#45;&gt;5 -->
<g id="edge9" class="edge">
<title>1&#45;&gt;5</title>
<path fill="none" stroke="#0000ff" stroke-dasharray="5,2" d="M149.2417,-190.2667C147.16,-197.8838 144.6642,-207.0162 142.234,-215.9084"/>
<polygon fill="#0000ff" stroke="#0000ff" points="138.8039,-215.1834 139.5438,-225.7523 145.5563,-217.0288 138.8039,-215.1834"/>
</g>
<!-- 1&#45;&gt;6 -->
<g id="edge2" class="edge">
<title>1&#45;&gt;6</title>
<path fill="none" stroke="#0000ff" stroke-dasharray="5,2" d="M178.3915,-186.6143C195.5937,-197.1973 219.1301,-212.0383 239.2338,-226 239.3199,-226.0598 239.4061,-226.1197 239.4923,-226.1797"/>
<polygon fill="#0000ff" stroke="#0000ff" points="237.4779,-229.042 247.6471,-232.0149 241.5514,-223.3493 237.4779,-229.042"/>
</g>
<!-- 1&#45;&gt;9 -->
<g id="edge4" class="edge">
<title>1&#45;&gt;9</title>
<path fill="none" stroke="#0000ff" stroke-dasharray="5,2" d="M164.8661,-189.4673C169.8226,-197.6102 175.9082,-207.608 181.76,-217.2215"/>
<polygon fill="#0000ff" stroke="#0000ff" points="178.84,-219.1559 187.0292,-225.8781 184.8194,-215.5162 178.84,-219.1559"/>
</g>
<!-- 3 -->
<g id="node3" class="node">
<title>3</title>
<polygon fill="#fa8072" stroke="#fa8072" points="203.9699,-76.0934 154.2338,-88.6005 104.4978,-76.0934 123.4953,-55.8564 184.9724,-55.8564 203.9699,-76.0934"/>
<polygon fill="none" stroke="#fa8072" points="211.5652,-78.3292 154.2338,-92.7463 96.9025,-78.3292 121.7748,-51.8341 186.6929,-51.8341 211.5652,-78.3292"/>
<text text-anchor="middle" x="154.2338" y="-66.8" font-family="Times,serif" font-size="14.00" fill="#000000">4.3.13</text>
</g>
<!-- 3&#45;&gt;0 -->
<g id="edge1" class="edge">
<title>3&#45;&gt;0</title>
<path fill="none" stroke="#0000ff" d="M175.4484,-87.415C188.2391,-97.1277 205.126,-109.1196 221.2338,-118 237.3891,-126.9066 279.5803,-143.9124 311.7544,-156.47"/>
<polygon fill="#0000ff" stroke="#0000ff" points="310.7893,-159.8499 321.378,-160.2105 313.3253,-153.3254 310.7893,-159.8499"/>
</g>
<!-- 3&#45;&gt;1 -->
<g id="edge11" class="edge">
<title>3&#45;&gt;1</title>
<path fill="none" stroke="#0000ff" d="M154.2338,-92.7746C154.2338,-107.6626 154.2338,-127.3847 154.2338,-143.4267"/>
<polygon fill="#0000ff" stroke="#0000ff" points="150.7339,-143.8401 154.2338,-153.8401 157.7339,-143.8401 150.7339,-143.8401"/>
</g>
<!-- 3&#45;&gt;5 -->
<g id="edge10" class="edge">
<title>3&#45;&gt;5</title>
<path fill="none" stroke="#ff0000" stroke-width="2" d="M110.6023,-81.9374C75.5263,-93.6869 28.5501,-115.7864 6.2338,-154 -1.8348,-167.8165 -2.1995,-176.403 6.2338,-190 25.5757,-221.1849 65.6299,-237.2947 95.4132,-245.2819"/>
<polygon fill="#ff0000" stroke="#ff0000" stroke-width="2" points="94.9199,-248.7657 105.4687,-247.7798 96.6075,-241.9722 94.9199,-248.7657"/>
</g>
<!-- 7 -->
<g id="node6" class="node">
<title>7</title>
<ellipse fill="#d3d3d3" stroke="#d3d3d3" cx="253.2338" cy="-172" rx="40.0939" ry="18"/>
<text text-anchor="middle" x="253.2338" y="-168.3" font-family="Times,serif" font-size="14.00" fill="#000000">4.3.21</text>
</g>
<!-- 3&#45;&gt;7 -->
<g id="edge3" class="edge">
<title>3&#45;&gt;7</title>
<path fill="none" stroke="#0000ff" d="M171.933,-88.6462C188.0898,-105.2109 212.085,-129.8121 229.8227,-147.9977"/>
<polygon fill="#0000ff" stroke="#0000ff" points="227.5124,-150.6417 237.0003,-155.3565 232.5235,-145.754 227.5124,-150.6417"/>
</g>
<!-- 8 -->
<g id="node7" class="node">
<title>8</title>
<ellipse fill="#d3d3d3" stroke="#d3d3d3" cx="55.2338" cy="-172" rx="40.0939" ry="18"/>
<text text-anchor="middle" x="55.2338" y="-168.3" font-family="Times,serif" font-size="14.00" fill="#000000">4.3.22</text>
</g>
<!-- 3&#45;&gt;8 -->
<g id="edge12" class="edge">
<title>3&#45;&gt;8</title>
<path fill="none" stroke="#0000ff" d="M136.5346,-88.6462C120.3779,-105.2109 96.3826,-129.8121 78.645,-147.9977"/>
<polygon fill="#0000ff" stroke="#0000ff" points="75.9442,-145.754 71.4674,-155.3565 80.9553,-150.6417 75.9442,-145.754"/>
</g>
<!-- 7&#45;&gt;5 -->
<g id="edge14" class="edge">
<title>7&#45;&gt;5</title>
<path fill="none" stroke="#0000ff" stroke-dasharray="5,2" d="M229.1339,-186.6981C211.959,-197.3206 188.4314,-212.1744 168.2338,-226 167.8496,-226.263 167.4636,-226.5283 167.0761,-226.7955"/>
<polygon fill="#0000ff" stroke="#0000ff" points="164.9805,-223.9905 158.8237,-232.6128 169.0137,-229.7119 164.9805,-223.9905"/>
</g>
<!-- 7&#45;&gt;6 -->
<g id="edge8" class="edge">
<title>7&#45;&gt;6</title>
<path fill="none" stroke="#0000ff" stroke-dasharray="5,2" d="M257.9991,-190.2667C259.9861,-197.8838 262.3685,-207.0162 264.6882,-215.9084"/>
<polygon fill="#0000ff" stroke="#0000ff" points="261.3452,-216.9597 267.2562,-225.7523 268.1185,-215.1927 261.3452,-216.9597"/>
</g>
<!-- 7&#45;&gt;9 -->
<g id="edge7" class="edge">
<title>7&#45;&gt;9</title>
<path fill="none" stroke="#0000ff" stroke-dasharray="5,2" d="M242.3846,-189.4673C237.3269,-197.6102 231.1171,-207.608 225.1459,-217.2215"/>
<polygon fill="#0000ff" stroke="#0000ff" points="222.0723,-215.5366 219.7692,-225.8781 228.0187,-219.23 222.0723,-215.5366"/>
</g>
<!-- 8&#45;&gt;5 -->
<g id="edge16" class="edge">
<title>8&#45;&gt;5</title>
<path fill="none" stroke="#0000ff" stroke-dasharray="5,2" d="M71.1883,-188.6797C79.4119,-197.2771 89.7545,-208.0898 99.5775,-218.3593"/>
<polygon fill="#0000ff" stroke="#0000ff" points="97.1591,-220.8945 106.6006,-225.7017 102.2176,-216.0559 97.1591,-220.8945"/>
</g>
<!-- 8&#45;&gt;9 -->
<g id="edge5" class="edge">
<title>8&#45;&gt;9</title>
<path fill="none" stroke="#0000ff" stroke-dasharray="5,2" d="M84.8761,-184.1978C106.2671,-193.424 135.7802,-207.025 167.833,-226.1388"/>
<polygon fill="#0000ff" stroke="#0000ff" points="166.1194,-229.193 176.4827,-231.3958 169.755,-223.2111 166.1194,-229.193"/>
</g>
<!-- Key -->
<g id="node9" class="node">
<title>Key</title>
<text text-anchor="start" x="301.2338" y="-83.3" font-family="Times,serif" font-weight="bold" font-size="14.00" fill="#000000">Key</text>
<text text-anchor="start" x="254.2338" y="-66.3" font-family="Times,serif" font-size="14.00" fill="#000000">Direct Path</text>
<text text-anchor="start" x="354.2338" y="-66.3" font-family="Times,serif" font-size="14.00" fill="#ff0000">⟶</text>
<text text-anchor="start" x="254.2338" y="-50.3" font-family="Times,serif" font-size="14.00" fill="#000000">Indirect Path</text>
<text text-anchor="start" x="350.2338" y="-50.3" font-family="Times,serif" font-size="14.00" fill="#0000ff">→ ⤏</text>
<polygon fill="none" stroke="#000000" stroke-dasharray="1,5" points="251.7338,-45 251.7338,-96 380.7338,-96 380.7338,-45 251.7338,-45"/>
</g>
</g>
</svg>
