<?xml version="1.0" encoding="UTF-8" standalone="no"?>
<!DOCTYPE svg PUBLIC "-//W3C//DTD SVG 1.1//EN"
 "http://www.w3.org/Graphics/SVG/1.1/DTD/svg11.dtd">
<!-- Generated by graphviz version 2.40.1 (0)
 -->
<!-- Title: fast Pages: 1 -->
<svg width="238pt" height="406pt"
 viewBox="0.00 0.00 238.00 406.49" xmlns="http://www.w3.org/2000/svg" xmlns:xlink="http://www.w3.org/1999/xlink">
<g id="graph0" class="graph" transform="scale(1 1) rotate(0) translate(4 402.4913)">
<title>fast</title>
<polygon fill="#ffffff" stroke="transparent" points="-4,4 -4,-402.4913 234,-402.4913 234,4 -4,4"/>
<text text-anchor="middle" x="115" y="-383.2913" font-family="Times,serif" font-size="14.00" fill="#000000">fast&#45;4.4 (2020&#45;05&#45;12) [amd64]</text>
<!-- 0 -->
<g id="node1" class="node">
<title>0</title>
<polygon fill="#fa8072" stroke="#fa8072" points="148.0337,-104.8605 98.2076,-117.4157 48.3815,-104.8605 67.4134,-84.5458 129.0018,-84.5458 148.0337,-104.8605"/>
<polygon fill="none" stroke="#fa8072" points="155.6428,-107.1049 98.2076,-121.5775 40.7724,-107.1049 65.6898,-80.508 130.7254,-80.508 155.6428,-107.1049"/>
<polygon fill="none" stroke="#fa8072" points="163.2519,-109.3494 98.2076,-125.7393 33.1633,-109.3494 63.9662,-76.4702 132.449,-76.4702 163.2519,-109.3494"/>
<text text-anchor="middle" x="98.2076" y="-95.5456" font-family="Times,serif" font-size="14.00" fill="#000000">4.3.13</text>
</g>
<!-- 1 -->
<g id="node2" class="node">
<title>1</title>
<ellipse fill="#d3d3d3" stroke="#d3d3d3" cx="61.2076" cy="-180.4913" rx="40.0939" ry="18"/>
<text text-anchor="middle" x="61.2076" y="-176.7913" font-family="Times,serif" font-size="14.00" fill="#000000">4.3.18</text>
</g>
<!-- 0&#45;&gt;1 -->
<g id="edge3" class="edge">
<title>0&#45;&gt;1</title>
<path fill="none" stroke="#0000ff" stroke-width="2" d="M87.3065,-123.1826C82.9899,-132.6611 78.0052,-143.6066 73.5562,-153.3759"/>
<polygon fill="#0000ff" stroke="#0000ff" stroke-width="2" points="70.2896,-152.104 69.3303,-162.6553 76.6601,-155.0052 70.2896,-152.104"/>
</g>
<!-- 4 -->
<g id="node5" class="node">
<title>4</title>
<ellipse fill="#d3d3d3" stroke="#d3d3d3" cx="172.2076" cy="-253.4913" rx="40.0939" ry="18"/>
<text text-anchor="middle" x="172.2076" y="-249.7913" font-family="Times,serif" font-size="14.00" fill="#000000">4.3.19</text>
</g>
<!-- 0&#45;&gt;4 -->
<g id="edge1" class="edge">
<title>0&#45;&gt;4</title>
<path fill="none" stroke="#0000ff" stroke-width="2" d="M109.6079,-123.0085C123.0122,-150.9483 145.2086,-197.2145 159.2525,-226.4877"/>
<polygon fill="#0000ff" stroke="#0000ff" stroke-width="2" points="156.197,-228.2105 163.6782,-235.7127 162.5083,-225.1826 156.197,-228.2105"/>
</g>
<!-- 3 -->
<g id="node4" class="node">
<title>3</title>
<polygon fill="#9acd32" stroke="#9acd32" points="98.7076,-375.4913 45.7076,-375.4913 45.7076,-322.4913 98.7076,-322.4913 98.7076,-375.4913"/>
<text text-anchor="middle" x="72.2076" y="-345.2913" font-family="Times,serif" font-size="14.00" fill="#000000">4.4.3</text>
</g>
<!-- 1&#45;&gt;3 -->
<g id="edge6" class="edge">
<title>1&#45;&gt;3</title>
<path fill="none" stroke="#0000ff" stroke-dasharray="5,2" d="M61.7585,-198.6338C62.3745,-217.0104 63.5135,-246.2459 65.2076,-271.4913 66.098,-284.76 67.3386,-299.2834 68.5285,-312.1347"/>
<polygon fill="#0000ff" stroke="#0000ff" points="65.0802,-312.8467 69.5072,-322.4723 72.049,-312.1869 65.0802,-312.8467"/>
<text text-anchor="middle" x="94.2076" y="-249.7913" font-family="Times,serif" font-size="14.00" fill="#000000">Indirect</text>
</g>
<!-- 1&#45;&gt;4 -->
<g id="edge7" class="edge">
<title>1&#45;&gt;4</title>
<path fill="none" stroke="#000000" d="M83.9379,-195.4401C100.3992,-206.2659 122.8525,-221.0325 140.9936,-232.9632"/>
<polygon fill="#000000" stroke="#000000" points="139.2293,-235.9919 149.5076,-238.5625 143.0757,-230.1434 139.2293,-235.9919"/>
</g>
<!-- 2 -->
<g id="node3" class="node">
<title>2</title>
<ellipse fill="#d3d3d3" stroke="#d3d3d3" cx="98.2076" cy="-18" rx="40.0939" ry="18"/>
<text text-anchor="middle" x="98.2076" y="-14.3" font-family="Times,serif" font-size="14.00" fill="#000000">4.3.12</text>
</g>
<!-- 2&#45;&gt;0 -->
<g id="edge2" class="edge">
<title>2&#45;&gt;0</title>
<path fill="none" stroke="#000000" d="M98.2076,-36.031C98.2076,-44.9368 98.2076,-55.9666 98.2076,-66.307"/>
<polygon fill="#000000" stroke="#000000" points="94.7077,-66.3133 98.2076,-76.3134 101.7077,-66.3134 94.7077,-66.3133"/>
</g>
<!-- 2&#45;&gt;1 -->
<g id="edge8" class="edge">
<title>2&#45;&gt;1</title>
<path fill="none" stroke="#000000" d="M69.6212,-30.9238C53.0756,-40.089 33.6979,-54.1219 24.2076,-73 13.7291,-93.8438 17.4004,-103.177 24.2076,-125.4913 27.4648,-136.1685 33.5657,-146.6507 39.8877,-155.5528"/>
<polygon fill="#000000" stroke="#000000" points="37.1127,-157.686 45.9312,-163.5584 42.6996,-153.4684 37.1127,-157.686"/>
</g>
<!-- 2&#45;&gt;4 -->
<g id="edge4" class="edge">
<title>2&#45;&gt;4</title>
<path fill="none" stroke="#000000" d="M126.7939,-30.9238C143.3395,-40.089 162.7173,-54.1219 172.2076,-73 196.8025,-121.9242 187.8196,-188.1582 179.6401,-225.2731"/>
<polygon fill="#000000" stroke="#000000" points="176.1483,-224.8335 177.2743,-235.3683 182.9637,-226.4307 176.1483,-224.8335"/>
</g>
<!-- 4&#45;&gt;3 -->
<g id="edge5" class="edge">
<title>4&#45;&gt;3</title>
<path fill="none" stroke="#0000ff" stroke-dasharray="5,2" d="M154.7889,-270.1261C141.3956,-282.9167 122.478,-300.983 106.1277,-316.5975"/>
<polygon fill="#0000ff" stroke="#0000ff" points="103.6398,-314.1338 98.8252,-323.5715 108.4744,-319.1962 103.6398,-314.1338"/>
<text text-anchor="middle" x="162.2076" y="-293.2913" font-family="Times,serif" font-size="14.00" fill="#000000">Indirect</text>
</g>
</g>
</svg>
