<?xml version="1.0" encoding="UTF-8" standalone="no"?>
<!DOCTYPE svg PUBLIC "-//W3C//DTD SVG 1.1//EN"
 "http://www.w3.org/Graphics/SVG/1.1/DTD/svg11.dtd">
<!-- Generated by graphviz version 2.40.1 (0)
 -->
<!-- Title: fast Pages: 1 -->
<svg width="403pt" height="377pt"
 viewBox="0.00 0.00 403.00 377.25" xmlns="http://www.w3.org/2000/svg" xmlns:xlink="http://www.w3.org/1999/xlink">
<g id="graph0" class="graph" transform="scale(1 1) rotate(0) translate(4 373.2456)">
<title>fast</title>
<polygon fill="#ffffff" stroke="transparent" points="-4,4 -4,-373.2456 399,-373.2456 399,4 -4,4"/>
<text text-anchor="middle" x="197.5" y="-7.8" font-family="Times,serif" font-size="14.00" fill="#000000">fast&#45;4.4_amd64 (2020&#45;05&#45;28) [D=Direct / I=Indirect]</text>
<!-- 2 -->
<g id="node1" class="node">
<title>2</title>
<polygon fill="#9acd32" stroke="#9acd32" points="146.5511,-265.2456 93.5511,-265.2456 93.5511,-212.2456 146.5511,-212.2456 146.5511,-265.2456"/>
<text text-anchor="middle" x="120.0511" y="-235.0456" font-family="Times,serif" font-size="14.00" fill="#000000">4.4.4</text>
</g>
<!-- 4 -->
<g id="node2" class="node">
<title>4</title>
<polygon fill="#9acd32" stroke="#9acd32" points="226.5511,-369.2456 173.5511,-369.2456 173.5511,-316.2456 226.5511,-316.2456 226.5511,-369.2456"/>
<text text-anchor="middle" x="200.0511" y="-339.0456" font-family="Times,serif" font-size="14.00" fill="#000000">4.4.5</text>
</g>
<!-- 2&#45;&gt;4 -->
<g id="edge4" class="edge">
<title>2&#45;&gt;4</title>
<path fill="none" stroke="#0000ff" stroke-dasharray="5,2" d="M138.1464,-265.487C145.374,-275.8701 153.9036,-287.7633 162.0511,-298.2456 164.506,-301.404 167.1046,-304.6435 169.7448,-307.8646"/>
<polygon fill="#0000ff" stroke="#0000ff" points="167.2454,-310.3326 176.3348,-315.7763 172.624,-305.8525 167.2454,-310.3326"/>
<text text-anchor="middle" x="165.5511" y="-287.0456" font-family="Times,serif" font-size="14.00" fill="#000000">I</text>
</g>
<!-- 5 -->
<g id="node3" class="node">
<title>5</title>
<polygon fill="#fa8072" stroke="#fa8072" points="250.7871,-50.7162 201.0511,-63.2233 151.3151,-50.7162 170.3125,-30.4792 231.7897,-30.4792 250.7871,-50.7162"/>
<polygon fill="none" stroke="#fa8072" points="258.3825,-52.952 201.0511,-67.3692 143.7197,-52.952 168.5921,-26.4569 233.5102,-26.4569 258.3825,-52.952"/>
<text text-anchor="middle" x="201.0511" y="-41.4228" font-family="Times,serif" font-size="14.00" fill="#000000">4.3.19</text>
</g>
<!-- 5&#45;&gt;2 -->
<g id="edge6" class="edge">
<title>5&#45;&gt;2</title>
<path fill="none" stroke="#ff0000" stroke-width="2" d="M156.8046,-56.3022C132.2404,-65.0175 103.7526,-79.8609 89.0511,-104.2456 70.821,-134.4832 83.8454,-174.4695 98.1856,-202.9658"/>
<polygon fill="#ff0000" stroke="#ff0000" stroke-width="2" points="95.2816,-204.9607 103.056,-212.1586 101.4671,-201.6836 95.2816,-204.9607"/>
<text text-anchor="middle" x="95.0511" y="-118.5456" font-family="Times,serif" font-size="14.00" fill="#000000">D</text>
</g>
<!-- 5&#45;&gt;4 -->
<g id="edge2" class="edge">
<title>5&#45;&gt;4</title>
<path fill="none" stroke="#ff0000" stroke-width="2" d="M201.3011,-67.4464C201.7594,-109.6134 202.7178,-203.8693 203.0511,-283.2456 203.0791,-289.9123 203.2754,-291.5828 203.0511,-298.2456 202.9667,-300.7511 202.8557,-303.3345 202.7262,-305.9362"/>
<polygon fill="#ff0000" stroke="#ff0000" stroke-width="2" points="199.2312,-305.75 202.1516,-315.9343 206.2197,-306.1516 199.2312,-305.75"/>
<text text-anchor="middle" x="209.0511" y="-172.5456" font-family="Times,serif" font-size="14.00" fill="#000000">D</text>
</g>
<!-- 6 -->
<g id="node4" class="node">
<title>6</title>
<ellipse fill="#d3d3d3" stroke="#d3d3d3" cx="275.0511" cy="-176.2456" rx="40.0939" ry="18"/>
<text text-anchor="middle" x="275.0511" y="-172.5456" font-family="Times,serif" font-size="14.00" fill="#000000">4.3.22</text>
</g>
<!-- 5&#45;&gt;6 -->
<g id="edge8" class="edge">
<title>5&#45;&gt;6</title>
<path fill="none" stroke="#0000ff" d="M216.7509,-63.7017C221.9457,-70.2857 227.5448,-77.8896 232.0511,-85.2456 244.5853,-105.7065 256.0451,-130.4003 263.9767,-148.8987"/>
<polygon fill="#0000ff" stroke="#0000ff" points="260.7913,-150.3528 267.897,-158.2116 267.243,-147.6369 260.7913,-150.3528"/>
</g>
<!-- 7 -->
<g id="node5" class="node">
<title>7</title>
<ellipse fill="#d3d3d3" stroke="#d3d3d3" cx="150.0511" cy="-122.2456" rx="40.0939" ry="18"/>
<text text-anchor="middle" x="150.0511" y="-118.5456" font-family="Times,serif" font-size="14.00" fill="#000000">4.3.21</text>
</g>
<!-- 5&#45;&gt;7 -->
<g id="edge7" class="edge">
<title>5&#45;&gt;7</title>
<path fill="none" stroke="#0000ff" d="M188.1817,-64.5842C181.7728,-74.2757 173.9399,-86.1207 167.0443,-96.5483"/>
<polygon fill="#0000ff" stroke="#0000ff" points="164.1208,-94.624 161.5243,-104.8957 169.9596,-98.4851 164.1208,-94.624"/>
</g>
<!-- 6&#45;&gt;4 -->
<g id="edge3" class="edge">
<title>6&#45;&gt;4</title>
<path fill="none" stroke="#0000ff" stroke-dasharray="5,2" d="M270.437,-194.2765C263.808,-218.6829 250.3434,-263.2077 232.0511,-298.2456 230.4162,-301.3773 228.5824,-304.5365 226.642,-307.6494"/>
<polygon fill="#0000ff" stroke="#0000ff" points="223.5595,-305.9657 220.9671,-316.2384 229.3999,-309.8245 223.5595,-305.9657"/>
<text text-anchor="middle" x="267.5511" y="-235.0456" font-family="Times,serif" font-size="14.00" fill="#000000">I</text>
</g>
<!-- 7&#45;&gt;2 -->
<g id="edge1" class="edge">
<title>7&#45;&gt;2</title>
<path fill="none" stroke="#0000ff" stroke-dasharray="5,2" d="M145.4294,-140.1935C141.1919,-156.6487 134.7872,-181.5204 129.4723,-202.1602"/>
<polygon fill="#0000ff" stroke="#0000ff" points="126.0693,-201.3402 126.9649,-211.8971 132.8482,-203.0858 126.0693,-201.3402"/>
<text text-anchor="middle" x="144.5511" y="-172.5456" font-family="Times,serif" font-size="14.00" fill="#000000">I</text>
</g>
<!-- 7&#45;&gt;4 -->
<g id="edge5" class="edge">
<title>7&#45;&gt;4</title>
<path fill="none" stroke="#0000ff" stroke-dasharray="5,2" d="M154.1428,-140.2901C162.3346,-176.4158 180.8912,-258.2504 191.7373,-306.0816"/>
<polygon fill="#0000ff" stroke="#0000ff" points="188.3682,-307.0514 193.9931,-316.0298 195.1949,-305.5034 188.3682,-307.0514"/>
<text text-anchor="middle" x="186.5511" y="-235.0456" font-family="Times,serif" font-size="14.00" fill="#000000">I</text>
</g>
</g>
</svg>
