<?xml version="1.0" encoding="UTF-8" standalone="no"?>
<!DOCTYPE svg PUBLIC "-//W3C//DTD SVG 1.1//EN"
 "http://www.w3.org/Graphics/SVG/1.1/DTD/svg11.dtd">
<!-- Generated by graphviz version 2.40.1 (0)
 -->
<!-- Title: fast Pages: 1 -->
<svg width="2049pt" height="1133pt"
 viewBox="0.00 0.00 2048.63 1133.00" xmlns="http://www.w3.org/2000/svg" xmlns:xlink="http://www.w3.org/1999/xlink">
<g id="graph0" class="graph" transform="scale(1 1) rotate(0) translate(4 1129)">
<title>fast</title>
<polygon fill="#ffffff" stroke="transparent" points="-4,4 -4,-1129 2044.6323,-1129 2044.6323,4 -4,4"/>
<text text-anchor="middle" x="1020.3161" y="-7.8" font-family="Times,serif" font-size="14.00" fill="#000000">fast&#45;4.3 (2020&#45;05&#45;20) [amd64]</text>
<!-- 0 -->
<g id="node1" class="node">
<title>0</title>
<polygon fill="#c0c0c0" stroke="#c0c0c0" points="1948,-733 1886,-733 1886,-671 1948,-671 1948,-733"/>
<text text-anchor="middle" x="1917" y="-698.3" font-family="Times,serif" font-size="14.00" fill="#000000">4.3.10</text>
</g>
<!-- 9 -->
<g id="node10" class="node">
<title>9</title>
<polygon fill="#c0c0c0" stroke="#c0c0c0" points="1569,-1125 1507,-1125 1507,-1063 1569,-1063 1569,-1125"/>
<text text-anchor="middle" x="1538" y="-1090.3" font-family="Times,serif" font-size="14.00" fill="#000000">4.3.21</text>
</g>
<!-- 0&#45;&gt;9 -->
<g id="edge105" class="edge">
<title>0&#45;&gt;9</title>
<path fill="none" stroke="#000000" d="M1942.8701,-733.1866C1992.3073,-796.6596 2088.6711,-942.0264 2011,-1027 1981.965,-1058.7649 1689.0925,-1083.0636 1579.2863,-1091.1226"/>
<polygon fill="#000000" stroke="#000000" points="1578.9666,-1087.6365 1569.2463,-1091.8515 1579.4736,-1094.6182 1578.9666,-1087.6365"/>
</g>
<!-- 10 -->
<g id="node11" class="node">
<title>10</title>
<polygon fill="#c0c0c0" stroke="#c0c0c0" points="1098,-929 1036,-929 1036,-867 1098,-867 1098,-929"/>
<text text-anchor="middle" x="1067" y="-894.3" font-family="Times,serif" font-size="14.00" fill="#000000">4.3.18</text>
</g>
<!-- 0&#45;&gt;10 -->
<g id="edge92" class="edge">
<title>0&#45;&gt;10</title>
<path fill="none" stroke="#000000" d="M1885.7941,-729.2305C1848.6413,-759.8917 1783.3661,-808.378 1718,-831 1604.2815,-870.3559 1233.0367,-890.4547 1108.3031,-896.2192"/>
<polygon fill="#000000" stroke="#000000" points="1107.8678,-892.7353 1098.0374,-896.6868 1108.1864,-899.728 1107.8678,-892.7353"/>
</g>
<!-- 11 -->
<g id="node12" class="node">
<title>11</title>
<polygon fill="#c0c0c0" stroke="#c0c0c0" points="1512,-1027 1450,-1027 1450,-965 1512,-965 1512,-1027"/>
<text text-anchor="middle" x="1481" y="-992.3" font-family="Times,serif" font-size="14.00" fill="#000000">4.3.19</text>
</g>
<!-- 0&#45;&gt;11 -->
<g id="edge103" class="edge">
<title>0&#45;&gt;11</title>
<path fill="none" stroke="#000000" d="M1889.3017,-733.2227C1845.3325,-781.1482 1754.979,-873.1457 1662,-929 1617.1761,-955.9266 1559.7412,-974.922 1521.7268,-985.6499"/>
<polygon fill="#000000" stroke="#000000" points="1520.7324,-982.2934 1512.0238,-988.3275 1522.5946,-989.0411 1520.7324,-982.2934"/>
</g>
<!-- 14 -->
<g id="node15" class="node">
<title>14</title>
<polygon fill="#c0c0c0" stroke="#c0c0c0" points="1590,-831 1528,-831 1528,-769 1590,-769 1590,-831"/>
<text text-anchor="middle" x="1559" y="-796.3" font-family="Times,serif" font-size="14.00" fill="#000000">4.3.13</text>
</g>
<!-- 0&#45;&gt;14 -->
<g id="edge77" class="edge">
<title>0&#45;&gt;14</title>
<path fill="none" stroke="#000000" d="M1885.6964,-726.2799C1881.5686,-728.8064 1877.2812,-731.1291 1873,-733 1780.537,-773.407 1661.8283,-790.1703 1600.2282,-796.5233"/>
<polygon fill="#000000" stroke="#000000" points="1599.733,-793.0552 1590.1268,-797.524 1600.4231,-800.0211 1599.733,-793.0552"/>
</g>
<!-- 1 -->
<g id="node2" class="node">
<title>1</title>
<polygon fill="#c0c0c0" stroke="#c0c0c0" points="1347.5,-728.5 1294.5,-728.5 1294.5,-675.5 1347.5,-675.5 1347.5,-728.5"/>
<text text-anchor="middle" x="1321" y="-698.3" font-family="Times,serif" font-size="14.00" fill="#000000">4.3.2</text>
</g>
<!-- 1&#45;&gt;9 -->
<g id="edge104" class="edge">
<title>1&#45;&gt;9</title>
<path fill="none" stroke="#000000" d="M1321.8545,-728.5377C1323.1735,-754.8652 1326.5205,-796.1997 1335,-831 1346.0592,-876.3874 1351.0865,-887.7433 1373,-929 1397.8681,-975.8193 1403.4736,-989.5535 1441,-1027 1457.8845,-1043.8485 1479.4989,-1059.2422 1498.0374,-1071.014"/>
<polygon fill="#000000" stroke="#000000" points="1496.2422,-1074.0191 1506.5829,-1076.3257 1499.9376,-1068.074 1496.2422,-1074.0191"/>
</g>
<!-- 1&#45;&gt;10 -->
<g id="edge30" class="edge">
<title>1&#45;&gt;10</title>
<path fill="none" stroke="#000000" d="M1294.3121,-708.2843C1231.5042,-723.1935 1079.0839,-760.1198 1072,-769 1052.6664,-793.2363 1052.7666,-828.9451 1056.9435,-856.6519"/>
<polygon fill="#000000" stroke="#000000" points="1053.553,-857.5844 1058.7119,-866.8384 1060.4498,-856.387 1053.553,-857.5844"/>
</g>
<!-- 1&#45;&gt;11 -->
<g id="edge115" class="edge">
<title>1&#45;&gt;11</title>
<path fill="none" stroke="#000000" d="M1327.3473,-728.6422C1338.7732,-773.0005 1365.8144,-863.5771 1410,-929 1418.7862,-942.0092 1430.5091,-954.3755 1441.8934,-964.8612"/>
<polygon fill="#000000" stroke="#000000" points="1439.8874,-967.7618 1449.6805,-971.8048 1444.5461,-962.5372 1439.8874,-967.7618"/>
</g>
<!-- 1&#45;&gt;14 -->
<g id="edge29" class="edge">
<title>1&#45;&gt;14</title>
<path fill="none" stroke="#000000" d="M1347.839,-713.0513C1389.4382,-730.1804 1469.7526,-763.2511 1518.4516,-783.3036"/>
<polygon fill="#000000" stroke="#000000" points="1517.1696,-786.5608 1527.749,-787.132 1519.8349,-780.088 1517.1696,-786.5608"/>
</g>
<!-- 2 -->
<g id="node3" class="node">
<title>2</title>
<polygon fill="#c0c0c0" stroke="#c0c0c0" points="1171.5,-728.5 1118.5,-728.5 1118.5,-675.5 1171.5,-675.5 1171.5,-728.5"/>
<text text-anchor="middle" x="1145" y="-698.3" font-family="Times,serif" font-size="14.00" fill="#000000">4.3.3</text>
</g>
<!-- 2&#45;&gt;9 -->
<g id="edge73" class="edge">
<title>2&#45;&gt;9</title>
<path fill="none" stroke="#000000" d="M1118.4674,-708.0702C1089.2059,-716.3396 1043.5498,-734.2697 1023,-769 1013.6175,-784.857 1018.6144,-912.5484 1027,-929 1058.8998,-991.5837 1086.8638,-998.3493 1151,-1027 1212.6203,-1054.5268 1410.3402,-1079.5439 1496.8363,-1089.4738"/>
<polygon fill="#000000" stroke="#000000" points="1496.4851,-1092.9563 1506.8167,-1090.6091 1497.2764,-1086.0012 1496.4851,-1092.9563"/>
</g>
<!-- 2&#45;&gt;10 -->
<g id="edge7" class="edge">
<title>2&#45;&gt;10</title>
<path fill="none" stroke="#000000" d="M1118.4934,-714.2157C1088.7292,-728.5427 1043.3494,-752.4361 1034,-769 1018.4989,-796.4626 1028.8886,-831.2872 1041.9777,-857.8296"/>
<polygon fill="#000000" stroke="#000000" points="1038.9535,-859.5998 1046.682,-866.8469 1045.1597,-856.362 1038.9535,-859.5998"/>
</g>
<!-- 2&#45;&gt;11 -->
<g id="edge113" class="edge">
<title>2&#45;&gt;11</title>
<path fill="none" stroke="#000000" d="M1171.05,-728.6089C1226.1535,-784.7957 1351.2601,-911.8037 1373,-929 1394.3507,-945.8885 1420.2063,-962.0602 1441.2657,-974.2834"/>
<polygon fill="#000000" stroke="#000000" points="1439.5536,-977.3362 1449.9704,-979.2707 1443.0336,-971.2625 1439.5536,-977.3362"/>
</g>
<!-- 2&#45;&gt;14 -->
<g id="edge28" class="edge">
<title>2&#45;&gt;14</title>
<path fill="none" stroke="#000000" d="M1171.5273,-708.2794C1241.9256,-724.9437 1433.8434,-770.3735 1518.2471,-790.3532"/>
<polygon fill="#000000" stroke="#000000" points="1517.4546,-793.7622 1527.9919,-792.6599 1519.0671,-786.9505 1517.4546,-793.7622"/>
</g>
<!-- 3 -->
<g id="node4" class="node">
<title>3</title>
<ellipse fill="#c0c0c0" stroke="#c0c0c0" cx="638" cy="-113" rx="40.0939" ry="18"/>
<text text-anchor="middle" x="638" y="-109.3" font-family="Times,serif" font-size="14.00" fill="#000000">4.2.18</text>
</g>
<!-- 5 -->
<g id="node6" class="node">
<title>5</title>
<ellipse fill="#c0c0c0" stroke="#c0c0c0" cx="638" cy="-257" rx="40.0939" ry="18"/>
<text text-anchor="middle" x="638" y="-253.3" font-family="Times,serif" font-size="14.00" fill="#000000">4.2.20</text>
</g>
<!-- 3&#45;&gt;5 -->
<g id="edge95" class="edge">
<title>3&#45;&gt;5</title>
<path fill="none" stroke="#000000" d="M638,-131.2377C638,-155.799 638,-199.7526 638,-228.6459"/>
<polygon fill="#000000" stroke="#000000" points="634.5001,-228.9103 638,-238.9104 641.5001,-228.9104 634.5001,-228.9103"/>
</g>
<!-- 6 -->
<g id="node7" class="node">
<title>6</title>
<ellipse fill="#c0c0c0" stroke="#c0c0c0" cx="904" cy="-473" rx="40.0939" ry="18"/>
<text text-anchor="middle" x="904" y="-469.3" font-family="Times,serif" font-size="14.00" fill="#000000">4.2.26</text>
</g>
<!-- 3&#45;&gt;6 -->
<g id="edge117" class="edge">
<title>3&#45;&gt;6</title>
<path fill="none" stroke="#000000" d="M674.9453,-120.3363C751.067,-137.7271 923.6299,-189.4616 988,-311 999.856,-333.3856 978.9192,-412.6018 975,-419 966.3072,-433.1911 952.4017,-444.9834 939.1915,-453.8901"/>
<polygon fill="#000000" stroke="#000000" points="937.2222,-450.9948 930.6726,-459.3227 940.986,-456.8968 937.2222,-450.9948"/>
</g>
<!-- 7 -->
<g id="node8" class="node">
<title>7</title>
<ellipse fill="#c0c0c0" stroke="#c0c0c0" cx="426" cy="-545" rx="40.0939" ry="18"/>
<text text-anchor="middle" x="426" y="-541.3" font-family="Times,serif" font-size="14.00" fill="#000000">4.2.27</text>
</g>
<!-- 3&#45;&gt;7 -->
<g id="edge41" class="edge">
<title>3&#45;&gt;7</title>
<path fill="none" stroke="#000000" d="M598.1381,-115.688C478.3818,-124.8441 130,-159.8305 130,-257 130,-257 130,-257 130,-329 130,-451.4159 297.2427,-511.8408 380.3051,-534.3023"/>
<polygon fill="#000000" stroke="#000000" points="379.4389,-537.6935 390.0005,-536.8549 381.2212,-530.9241 379.4389,-537.6935"/>
</g>
<!-- 13 -->
<g id="node14" class="node">
<title>13</title>
<ellipse fill="#c0c0c0" stroke="#c0c0c0" cx="1017" cy="-617" rx="40.0939" ry="18"/>
<text text-anchor="middle" x="1017" y="-613.3" font-family="Times,serif" font-size="14.00" fill="#000000">4.2.28</text>
</g>
<!-- 3&#45;&gt;13 -->
<g id="edge91" class="edge">
<title>3&#45;&gt;13</title>
<path fill="none" stroke="#000000" d="M677.1473,-117.7589C723.0788,-124.3849 800.7393,-138.883 862,-167 911.7737,-189.8448 922.8993,-200.6536 962,-239 1041.8331,-317.293 1075.1866,-344.3065 1091,-455 1097.8173,-502.7208 1104.2788,-520.788 1081,-563 1073.656,-576.3171 1061.6273,-587.7675 1049.9688,-596.6531"/>
<polygon fill="#000000" stroke="#000000" points="1047.6919,-593.9795 1041.6174,-602.66 1051.7793,-599.6622 1047.6919,-593.9795"/>
</g>
<!-- 20 -->
<g id="node21" class="node">
<title>20</title>
<ellipse fill="#c0c0c0" stroke="#c0c0c0" cx="502" cy="-401" rx="40.0939" ry="18"/>
<text text-anchor="middle" x="502" y="-397.3" font-family="Times,serif" font-size="14.00" fill="#000000">4.2.25</text>
</g>
<!-- 3&#45;&gt;20 -->
<g id="edge4" class="edge">
<title>3&#45;&gt;20</title>
<path fill="none" stroke="#000000" d="M629.4926,-131.0157C606.3495,-180.0245 542.1546,-315.9668 514.7097,-374.0854"/>
<polygon fill="#000000" stroke="#000000" points="511.4358,-372.8218 510.3305,-383.3588 517.7655,-375.8109 511.4358,-372.8218"/>
</g>
<!-- 21 -->
<g id="node22" class="node">
<title>21</title>
<ellipse fill="#c0c0c0" stroke="#c0c0c0" cx="756" cy="-329" rx="40.0939" ry="18"/>
<text text-anchor="middle" x="756" y="-325.3" font-family="Times,serif" font-size="14.00" fill="#000000">4.2.21</text>
</g>
<!-- 3&#45;&gt;21 -->
<g id="edge107" class="edge">
<title>3&#45;&gt;21</title>
<path fill="none" stroke="#000000" d="M675.8535,-119.4839C702.9568,-126.3124 737.6145,-140.0118 755,-167 781.1576,-207.6053 772.6702,-266.6352 764.2486,-301.0965"/>
<polygon fill="#000000" stroke="#000000" points="760.8145,-300.3953 761.6756,-310.9551 767.5876,-302.1631 760.8145,-300.3953"/>
</g>
<!-- 22 -->
<g id="node23" class="node">
<title>22</title>
<ellipse fill="#c0c0c0" stroke="#c0c0c0" cx="706" cy="-185" rx="40.0939" ry="18"/>
<text text-anchor="middle" x="706" y="-181.3" font-family="Times,serif" font-size="14.00" fill="#000000">4.2.19</text>
</g>
<!-- 3&#45;&gt;22 -->
<g id="edge15" class="edge">
<title>3&#45;&gt;22</title>
<path fill="none" stroke="#000000" d="M653.7715,-129.6992C662.5256,-138.9683 673.5687,-150.661 683.2432,-160.9046"/>
<polygon fill="#000000" stroke="#000000" points="680.9032,-163.5244 690.314,-168.3913 685.9923,-158.718 680.9032,-163.5244"/>
</g>
<!-- 4 -->
<g id="node5" class="node">
<title>4</title>
<ellipse fill="#c0c0c0" stroke="#c0c0c0" cx="714" cy="-702" rx="40.0939" ry="18"/>
<text text-anchor="middle" x="714" y="-698.3" font-family="Times,serif" font-size="14.00" fill="#000000">4.2.29</text>
</g>
<!-- 4&#45;&gt;9 -->
<g id="edge37" class="edge">
<title>4&#45;&gt;9</title>
<path fill="none" stroke="#000000" d="M705.0632,-719.6981C679.1196,-773.8476 610.639,-938.9408 692,-1027 719.6235,-1056.8976 1330.1606,-1085.112 1496.4827,-1092.2639"/>
<polygon fill="#000000" stroke="#000000" points="1496.6443,-1095.7739 1506.7847,-1092.7043 1496.9434,-1088.7803 1496.6443,-1095.7739"/>
</g>
<!-- 4&#45;&gt;10 -->
<g id="edge87" class="edge">
<title>4&#45;&gt;10</title>
<path fill="none" stroke="#000000" d="M735.3321,-717.3059C752.5748,-730.162 777.0151,-749.5099 796,-769 820.316,-793.963 814.7321,-812.0842 844,-831 901.5808,-868.2143 928.8897,-845.5269 994,-867 1004.7123,-870.5329 1016.0441,-874.9792 1026.502,-879.3926"/>
<polygon fill="#000000" stroke="#000000" points="1025.249,-882.6638 1035.8176,-883.4093 1028.0206,-876.2358 1025.249,-882.6638"/>
</g>
<!-- 4&#45;&gt;11 -->
<g id="edge99" class="edge">
<title>4&#45;&gt;11</title>
<path fill="none" stroke="#000000" d="M754.4253,-703.2452C854.212,-707.0304 1109.0594,-721.2421 1177,-769 1202.5376,-786.9513 1191.4912,-805.8635 1210,-831 1246.3369,-880.3486 1255.7066,-895.4643 1307,-929 1348.7295,-956.2828 1403.2295,-974.9887 1440.0287,-985.5627"/>
<polygon fill="#000000" stroke="#000000" points="1439.3399,-989.0043 1449.9133,-988.3298 1441.227,-982.2635 1439.3399,-989.0043"/>
</g>
<!-- 4&#45;&gt;14 -->
<g id="edge66" class="edge">
<title>4&#45;&gt;14</title>
<path fill="none" stroke="#000000" d="M753.0614,-706.5302C893.6572,-722.836 1373.2053,-778.4522 1517.5572,-795.1936"/>
<polygon fill="#000000" stroke="#000000" points="1517.4174,-798.7008 1527.7541,-796.3762 1518.2239,-791.7474 1517.4174,-798.7008"/>
</g>
<!-- 23 -->
<g id="node24" class="node">
<title>23</title>
<ellipse fill="#c0c0c0" stroke="#c0c0c0" cx="471" cy="-800" rx="40.0939" ry="18"/>
<text text-anchor="middle" x="471" y="-796.3" font-family="Times,serif" font-size="14.00" fill="#000000">4.2.33</text>
</g>
<!-- 4&#45;&gt;23 -->
<g id="edge64" class="edge">
<title>4&#45;&gt;23</title>
<path fill="none" stroke="#000000" d="M683.7152,-714.2136C640.0322,-731.8306 559.2785,-764.398 510.8173,-783.942"/>
<polygon fill="#000000" stroke="#000000" points="509.2489,-780.8005 501.2838,-787.7868 511.8671,-787.2925 509.2489,-780.8005"/>
</g>
<!-- 5&#45;&gt;4 -->
<g id="edge14" class="edge">
<title>5&#45;&gt;4</title>
<path fill="none" stroke="#000000" d="M639.6576,-275.1674C642.0009,-302.4608 646,-355.6802 646,-401 646,-401 646,-401 646,-473 646,-531.6212 668.3883,-542.7817 685,-599 692.5207,-624.4521 700.6789,-653.574 706.4209,-674.3432"/>
<polygon fill="#000000" stroke="#000000" points="703.0779,-675.3865 709.1096,-684.0968 709.8262,-673.5262 703.0779,-675.3865"/>
</g>
<!-- 5&#45;&gt;6 -->
<g id="edge83" class="edge">
<title>5&#45;&gt;6</title>
<path fill="none" stroke="#000000" d="M677.0998,-261.7533C713.475,-267.8723 767.5476,-281.4806 805,-311 850.4312,-346.8081 880.0995,-409.6558 894.2657,-445.6404"/>
<polygon fill="#000000" stroke="#000000" points="891.0147,-446.9381 897.8505,-455.0328 897.5546,-444.4421 891.0147,-446.9381"/>
</g>
<!-- 5&#45;&gt;7 -->
<g id="edge75" class="edge">
<title>5&#45;&gt;7</title>
<path fill="none" stroke="#000000" d="M597.9726,-259.9022C506.523,-266.9384 288.4768,-286.1708 267,-311 217.6744,-368.0248 257.8075,-376.6363 360,-491 370.66,-502.9296 384.0806,-514.4098 396.0318,-523.6942"/>
<polygon fill="#000000" stroke="#000000" points="393.9356,-526.4972 404.0189,-529.7497 398.1647,-520.9191 393.9356,-526.4972"/>
</g>
<!-- 5&#45;&gt;13 -->
<g id="edge76" class="edge">
<title>5&#45;&gt;13</title>
<path fill="none" stroke="#000000" d="M677.9752,-259.9076C754.9044,-266.0834 920.2485,-282.3415 969,-311 1004.1849,-331.6834 1007.2719,-346.7366 1026,-383 1041.2955,-412.6169 1042.286,-422.0017 1047,-455 1049.2627,-470.8392 1047.1111,-475.0004 1047,-491 1046.7778,-523.0023 1054.0219,-532.0186 1046,-563 1043.5318,-572.5323 1039.0592,-582.2285 1034.3535,-590.7249"/>
<polygon fill="#000000" stroke="#000000" points="1031.2982,-589.0159 1029.2398,-599.4089 1037.33,-592.568 1031.2982,-589.0159"/>
</g>
<!-- 5&#45;&gt;20 -->
<g id="edge81" class="edge">
<title>5&#45;&gt;20</title>
<path fill="none" stroke="#000000" d="M630.2693,-274.8055C621.2269,-294.1842 604.8094,-325.2992 584,-347 570.686,-360.8844 553.1754,-373.0212 537.7555,-382.2532"/>
<polygon fill="#000000" stroke="#000000" points="535.8646,-379.3036 528.9656,-387.3444 539.3731,-385.3609 535.8646,-379.3036"/>
</g>
<!-- 5&#45;&gt;21 -->
<g id="edge32" class="edge">
<title>5&#45;&gt;21</title>
<path fill="none" stroke="#000000" d="M661.8791,-271.5703C679.6325,-282.4029 704.0566,-297.3057 723.5752,-309.2154"/>
<polygon fill="#000000" stroke="#000000" points="721.797,-312.2304 732.1565,-314.4514 725.4431,-306.255 721.797,-312.2304"/>
</g>
<!-- 5&#45;&gt;23 -->
<g id="edge116" class="edge">
<title>5&#45;&gt;23</title>
<path fill="none" stroke="#000000" d="M597.9276,-259.57C525.9515,-264.826 370.4029,-279.1076 243,-311 131.2778,-338.967 0,-285.8306 0,-401 0,-401 0,-401 0,-545 0,-648.6499 50.6291,-677.2358 138,-733 184.5382,-762.7028 341.1424,-784.7982 421.9089,-794.5246"/>
<polygon fill="#000000" stroke="#000000" points="421.4983,-798.0003 431.8413,-795.7043 422.324,-791.0492 421.4983,-798.0003"/>
</g>
<!-- 6&#45;&gt;4 -->
<g id="edge79" class="edge">
<title>6&#45;&gt;4</title>
<path fill="none" stroke="#000000" d="M894.5008,-490.7589C877.3373,-521.9353 838.9294,-587.6876 796,-635 780.536,-652.0429 760.5887,-668.4384 744.2401,-680.7446"/>
<polygon fill="#000000" stroke="#000000" points="742.0235,-678.0307 736.0617,-686.789 746.184,-683.6601 742.0235,-678.0307"/>
</g>
<!-- 6&#45;&gt;7 -->
<g id="edge70" class="edge">
<title>6&#45;&gt;7</title>
<path fill="none" stroke="#000000" d="M865.6913,-478.7704C779.3363,-491.7778 569.6192,-523.367 474.4289,-537.7053"/>
<polygon fill="#000000" stroke="#000000" points="473.8583,-534.2516 464.4912,-539.2022 474.901,-541.1736 473.8583,-534.2516"/>
</g>
<!-- 6&#45;&gt;10 -->
<g id="edge82" class="edge">
<title>6&#45;&gt;10</title>
<path fill="none" stroke="#000000" d="M933.2403,-485.5294C971.9793,-503.9479 1038.6052,-542.3926 1066,-599 1072.9698,-613.4021 1071.3235,-619.9116 1066,-635 1053.275,-671.0665 970.725,-732.9335 958,-769 948.8317,-794.9856 944.5522,-806.9487 958,-831 972.5464,-857.0162 1001.7915,-874.1671 1026.3293,-884.5985"/>
<polygon fill="#000000" stroke="#000000" points="1025.2226,-887.9256 1035.8067,-888.4024 1027.83,-881.4294 1025.2226,-887.9256"/>
</g>
<!-- 6&#45;&gt;13 -->
<g id="edge21" class="edge">
<title>6&#45;&gt;13</title>
<path fill="none" stroke="#000000" d="M917.4063,-490.0842C937.2003,-515.3083 974.3675,-562.6718 997.2747,-591.8633"/>
<polygon fill="#000000" stroke="#000000" points="994.6842,-594.2318 1003.6111,-599.9381 1000.1911,-589.9104 994.6842,-594.2318"/>
</g>
<!-- 6&#45;&gt;23 -->
<g id="edge60" class="edge">
<title>6&#45;&gt;23</title>
<path fill="none" stroke="#000000" d="M882.2411,-488.3222C835.7866,-521.147 723.6686,-600.9703 632,-671 584.4486,-707.3266 530.3914,-751.1809 498.5727,-777.2655"/>
<polygon fill="#000000" stroke="#000000" points="496.1037,-774.7641 490.5958,-783.8147 500.5456,-780.1743 496.1037,-774.7641"/>
</g>
<!-- 7&#45;&gt;4 -->
<g id="edge114" class="edge">
<title>7&#45;&gt;4</title>
<path fill="none" stroke="#000000" d="M451.5581,-558.9327C503.305,-587.142 620.5251,-651.0432 679.1914,-683.0245"/>
<polygon fill="#000000" stroke="#000000" points="677.6298,-686.1594 688.0852,-687.8728 680.9803,-680.0134 677.6298,-686.1594"/>
</g>
<!-- 7&#45;&gt;10 -->
<g id="edge52" class="edge">
<title>7&#45;&gt;10</title>
<path fill="none" stroke="#000000" d="M440.1793,-562.1981C483.2986,-613.1711 619.0413,-764.0455 768,-831 791.4023,-841.519 949.3452,-874.2352 1025.7537,-889.7182"/>
<polygon fill="#000000" stroke="#000000" points="1025.4763,-893.2328 1035.9717,-891.7844 1026.8638,-886.3717 1025.4763,-893.2328"/>
</g>
<!-- 7&#45;&gt;13 -->
<g id="edge6" class="edge">
<title>7&#45;&gt;13</title>
<path fill="none" stroke="#000000" d="M465.2349,-549.7799C569.3609,-562.4653 852.562,-596.9669 967.5155,-610.9714"/>
<polygon fill="#000000" stroke="#000000" points="967.4291,-614.4867 977.779,-612.2218 968.2757,-607.5381 967.4291,-614.4867"/>
</g>
<!-- 7&#45;&gt;23 -->
<g id="edge34" class="edge">
<title>7&#45;&gt;23</title>
<path fill="none" stroke="#000000" d="M429.2363,-563.339C437.004,-607.3559 456.7455,-719.2247 466.0303,-771.8383"/>
<polygon fill="#000000" stroke="#000000" points="462.6084,-772.5876 467.793,-781.8272 469.5018,-771.3711 462.6084,-772.5876"/>
</g>
<!-- 8 -->
<g id="node9" class="node">
<title>8</title>
<polygon fill="#c0c0c0" stroke="#c0c0c0" points="1863.5,-728.5 1810.5,-728.5 1810.5,-675.5 1863.5,-675.5 1863.5,-728.5"/>
<text text-anchor="middle" x="1837" y="-698.3" font-family="Times,serif" font-size="14.00" fill="#000000">4.3.9</text>
</g>
<!-- 8&#45;&gt;9 -->
<g id="edge1" class="edge">
<title>8&#45;&gt;9</title>
<path fill="none" stroke="#000000" d="M1863.7617,-723.5551C1878.4942,-736.0571 1896.6449,-752.5449 1911,-769 1989.1824,-858.6198 2059.5684,-936.8483 1982,-1027 1955.8242,-1057.4221 1684.4622,-1082.2544 1579.3097,-1090.8046"/>
<polygon fill="#000000" stroke="#000000" points="1578.7677,-1087.3368 1569.0805,-1091.6275 1579.329,-1094.3143 1578.7677,-1087.3368"/>
</g>
<!-- 8&#45;&gt;10 -->
<g id="edge44" class="edge">
<title>8&#45;&gt;10</title>
<path fill="none" stroke="#000000" d="M1810.3871,-727.1733C1776.5306,-757.5281 1714.8691,-807.4036 1652,-831 1551.8812,-868.5771 1224.6791,-889.4839 1108.4365,-895.8701"/>
<polygon fill="#000000" stroke="#000000" points="1107.9758,-892.3898 1098.1799,-896.4258 1108.3546,-899.3796 1107.9758,-892.3898"/>
</g>
<!-- 8&#45;&gt;11 -->
<g id="edge53" class="edge">
<title>8&#45;&gt;11</title>
<path fill="none" stroke="#000000" d="M1815.7738,-728.5445C1778.4582,-773.9603 1697.0537,-867.6031 1613,-929 1584.5041,-949.8148 1548.6015,-967.5761 1521.4357,-979.5713"/>
<polygon fill="#000000" stroke="#000000" points="1519.9993,-976.3792 1512.2176,-983.5692 1522.7846,-982.8012 1519.9993,-976.3792"/>
</g>
<!-- 8&#45;&gt;14 -->
<g id="edge106" class="edge">
<title>8&#45;&gt;14</title>
<path fill="none" stroke="#000000" d="M1810.1336,-723.5043C1804.9719,-727.0082 1799.4662,-730.3515 1794,-733 1776.4597,-741.4986 1663.0045,-772.3214 1600.3781,-789.0382"/>
<polygon fill="#000000" stroke="#000000" points="1599.1783,-785.7357 1590.4168,-791.6926 1600.9808,-792.4997 1599.1783,-785.7357"/>
</g>
<!-- 10&#45;&gt;9 -->
<g id="edge101" class="edge">
<title>10&#45;&gt;9</title>
<path fill="none" stroke="#000000" d="M1098.0255,-924.1767C1134.1897,-953.3938 1196.8335,-1000.0913 1258,-1027 1338.3758,-1062.3594 1440.2968,-1080.7407 1496.3414,-1088.7944"/>
<polygon fill="#000000" stroke="#000000" points="1496.1999,-1092.3085 1506.5878,-1090.2247 1497.1677,-1085.3757 1496.1999,-1092.3085"/>
</g>
<!-- 10&#45;&gt;11 -->
<g id="edge109" class="edge">
<title>10&#45;&gt;11</title>
<path fill="none" stroke="#000000" d="M1098.1444,-906.7832C1121.2271,-913.1982 1153.492,-921.967 1182,-929 1273.843,-951.6579 1382.3611,-975.1659 1440.0743,-987.4106"/>
<polygon fill="#000000" stroke="#000000" points="1439.3977,-990.8449 1449.9058,-989.4918 1440.8474,-983.9966 1439.3977,-990.8449"/>
</g>
<!-- 11&#45;&gt;9 -->
<g id="edge102" class="edge">
<title>11&#45;&gt;9</title>
<path fill="none" stroke="#000000" d="M1499.0352,-1027.0078C1504.0254,-1035.5874 1509.5126,-1045.0217 1514.7543,-1054.0336"/>
<polygon fill="#000000" stroke="#000000" points="1511.8333,-1055.9731 1519.8865,-1062.8575 1517.8842,-1052.4536 1511.8333,-1055.9731"/>
</g>
<!-- 12 -->
<g id="node13" class="node">
<title>12</title>
<ellipse fill="#c0c0c0" stroke="#c0c0c0" cx="316" cy="-329" rx="40.0939" ry="18"/>
<text text-anchor="middle" x="316" y="-325.3" font-family="Times,serif" font-size="14.00" fill="#000000">4.2.23</text>
</g>
<!-- 12&#45;&gt;4 -->
<g id="edge74" class="edge">
<title>12&#45;&gt;4</title>
<path fill="none" stroke="#000000" d="M324.8055,-346.71C334.7457,-365.7279 352.1435,-396.2715 372,-419 424.0125,-478.5354 612.3092,-624.4042 685.0467,-679.9933"/>
<polygon fill="#000000" stroke="#000000" points="683.2545,-683.0284 693.3273,-686.313 687.5014,-677.4638 683.2545,-683.0284"/>
</g>
<!-- 12&#45;&gt;6 -->
<g id="edge63" class="edge">
<title>12&#45;&gt;6</title>
<path fill="none" stroke="#000000" d="M342.6894,-342.7077C361.9317,-352.9754 388.2372,-367.8146 410,-383 430.4404,-397.2627 430.1223,-409.1084 453,-419 524.1158,-449.7481 751.7793,-465.1087 853.7632,-470.5879"/>
<polygon fill="#000000" stroke="#000000" points="853.6441,-474.0864 863.8145,-471.1177 854.0126,-467.0961 853.6441,-474.0864"/>
</g>
<!-- 12&#45;&gt;7 -->
<g id="edge25" class="edge">
<title>12&#45;&gt;7</title>
<path fill="none" stroke="#000000" d="M320.077,-347.1324C324.6096,-365.706 332.7956,-395.1557 344,-419 361.4751,-456.1892 388.4696,-495.2913 406.6656,-519.888"/>
<polygon fill="#000000" stroke="#000000" points="403.9103,-522.0478 412.7047,-527.9562 409.5144,-517.8532 403.9103,-522.0478"/>
</g>
<!-- 12&#45;&gt;10 -->
<g id="edge18" class="edge">
<title>12&#45;&gt;10</title>
<path fill="none" stroke="#000000" d="M281.0726,-338.1841C206.4075,-360.158 38,-423.2184 38,-545 38,-545 38,-545 38,-702 38,-816.115 151.1385,-796.7742 260,-831 405.2322,-876.6607 882.3314,-893.0168 1025.8192,-896.9713"/>
<polygon fill="#000000" stroke="#000000" points="1025.8634,-900.4737 1035.9544,-897.2452 1026.0526,-893.4762 1025.8634,-900.4737"/>
</g>
<!-- 12&#45;&gt;13 -->
<g id="edge3" class="edge">
<title>12&#45;&gt;13</title>
<path fill="none" stroke="#000000" d="M332.9913,-345.3512C359.7691,-371.1089 408.8864,-418.3039 410,-419 597.5746,-536.2559 861.5693,-591.0217 968.8528,-609.47"/>
<polygon fill="#000000" stroke="#000000" points="968.2942,-612.9252 978.738,-611.1429 969.4622,-606.0233 968.2942,-612.9252"/>
</g>
<!-- 12&#45;&gt;20 -->
<g id="edge55" class="edge">
<title>12&#45;&gt;20</title>
<path fill="none" stroke="#000000" d="M346.7141,-340.8893C378.2153,-353.0833 427.3616,-372.1077 461.9098,-385.4812"/>
<polygon fill="#000000" stroke="#000000" points="460.6511,-388.747 471.2403,-389.093 463.1781,-382.219 460.6511,-388.747"/>
</g>
<!-- 12&#45;&gt;23 -->
<g id="edge86" class="edge">
<title>12&#45;&gt;23</title>
<path fill="none" stroke="#000000" d="M303.5784,-346.2254C279.3211,-381.6129 228,-465.8367 228,-545 228,-545 228,-545 228,-617 228,-673.4987 238.4064,-694.763 280,-733 319.4343,-769.2519 379.6253,-786.0869 421.8733,-793.7751"/>
<polygon fill="#000000" stroke="#000000" points="421.489,-797.2601 431.936,-795.4961 422.6691,-790.3603 421.489,-797.2601"/>
</g>
<!-- 13&#45;&gt;4 -->
<g id="edge78" class="edge">
<title>13&#45;&gt;4</title>
<path fill="none" stroke="#000000" d="M985.5249,-628.3098C978.1899,-630.7167 970.3686,-633.1016 963,-635 877.6558,-656.988 850.732,-640.627 768,-671 760.2941,-673.829 752.4083,-677.7074 745.1275,-681.7637"/>
<polygon fill="#000000" stroke="#000000" points="743.1545,-678.8628 736.2876,-686.9311 746.6871,-684.906 743.1545,-678.8628"/>
</g>
<!-- 13&#45;&gt;9 -->
<g id="edge56" class="edge">
<title>13&#45;&gt;9</title>
<path fill="none" stroke="#000000" d="M978.8651,-623.0143C949.4345,-629.6801 909.9812,-643.3865 887,-671 841.1208,-726.1271 839.8764,-764.2058 866,-831 909.1891,-941.4281 941.8474,-972.2041 1047,-1027 1125.28,-1067.7924 1393.5426,-1086.2374 1496.9216,-1091.9513"/>
<polygon fill="#000000" stroke="#000000" points="1496.8004,-1095.4497 1506.975,-1092.4953 1497.1787,-1088.46 1496.8004,-1095.4497"/>
</g>
<!-- 13&#45;&gt;10 -->
<g id="edge2" class="edge">
<title>13&#45;&gt;10</title>
<path fill="none" stroke="#000000" d="M994.3387,-632.1143C943.9966,-667.5635 831.1723,-758.5338 882,-831 898.8478,-855.0203 976.3848,-876.9724 1025.5776,-888.8163"/>
<polygon fill="#000000" stroke="#000000" points="1025.0757,-892.294 1035.6126,-891.1873 1026.6854,-885.4816 1025.0757,-892.294"/>
</g>
<!-- 13&#45;&gt;11 -->
<g id="edge98" class="edge">
<title>13&#45;&gt;11</title>
<path fill="none" stroke="#000000" d="M1057.3927,-618.4526C1137.2751,-622.1031 1311.6421,-634.1776 1357,-671 1445.1896,-742.5941 1470.7269,-884.4321 1478.0696,-954.6416"/>
<polygon fill="#000000" stroke="#000000" points="1474.6125,-955.2538 1479.0626,-964.8687 1481.5798,-954.5773 1474.6125,-955.2538"/>
</g>
<!-- 13&#45;&gt;23 -->
<g id="edge45" class="edge">
<title>13&#45;&gt;23</title>
<path fill="none" stroke="#000000" d="M985.1769,-628.1731C977.928,-630.5601 970.2311,-632.9709 963,-635 894.0737,-654.3416 865.2897,-630.8794 806,-671 778.227,-689.7937 790.7717,-714.2043 763,-733 723.7412,-759.5701 592.3419,-782.2718 519.9246,-793.1426"/>
<polygon fill="#000000" stroke="#000000" points="519.065,-789.7317 509.686,-794.6597 520.0911,-796.6561 519.065,-789.7317"/>
</g>
<!-- 14&#45;&gt;9 -->
<g id="edge100" class="edge">
<title>14&#45;&gt;9</title>
<path fill="none" stroke="#000000" d="M1556.7725,-831.1848C1552.9686,-884.4401 1545.2197,-992.9237 1540.9635,-1052.5107"/>
<polygon fill="#000000" stroke="#000000" points="1537.4577,-1052.4685 1540.2363,-1062.6925 1544.4399,-1052.9673 1537.4577,-1052.4685"/>
</g>
<!-- 14&#45;&gt;10 -->
<g id="edge90" class="edge">
<title>14&#45;&gt;10</title>
<path fill="none" stroke="#000000" d="M1527.8499,-806.2047C1442.3527,-823.2346 1204.0286,-870.7057 1107.937,-889.8459"/>
<polygon fill="#000000" stroke="#000000" points="1107.1375,-886.4363 1098.0139,-891.8224 1108.505,-893.3014 1107.1375,-886.4363"/>
</g>
<!-- 14&#45;&gt;11 -->
<g id="edge12" class="edge">
<title>14&#45;&gt;11</title>
<path fill="none" stroke="#000000" d="M1549.3134,-831.1558C1540.8323,-857.535 1527.7452,-896.1833 1514,-929 1510.3581,-937.695 1506.1232,-946.8552 1501.9258,-955.5149"/>
<polygon fill="#000000" stroke="#000000" points="1498.6955,-954.1523 1497.4158,-964.6696 1504.9748,-957.2459 1498.6955,-954.1523"/>
</g>
<!-- 15 -->
<g id="node16" class="node">
<title>15</title>
<ellipse fill="#c0c0c0" stroke="#c0c0c0" cx="920" cy="-329" rx="40.0939" ry="18"/>
<text text-anchor="middle" x="920" y="-325.3" font-family="Times,serif" font-size="14.00" fill="#000000">4.2.22</text>
</g>
<!-- 15&#45;&gt;4 -->
<g id="edge5" class="edge">
<title>15&#45;&gt;4</title>
<path fill="none" stroke="#000000" d="M929.8073,-346.542C945.3905,-376.8369 972.1766,-440.5616 953,-491 922.5691,-571.0394 892.0248,-581.7081 825,-635 798.8463,-655.795 787.4631,-653.4986 759,-671 754.1512,-673.9814 749.1033,-677.2682 744.2161,-680.5534"/>
<polygon fill="#000000" stroke="#000000" points="741.9481,-677.8642 735.6702,-686.3988 745.9001,-683.642 741.9481,-677.8642"/>
</g>
<!-- 15&#45;&gt;6 -->
<g id="edge24" class="edge">
<title>15&#45;&gt;6</title>
<path fill="none" stroke="#000000" d="M917.9736,-347.2377C915.2446,-371.799 910.3608,-415.7526 907.1505,-444.6459"/>
<polygon fill="#000000" stroke="#000000" points="903.6358,-444.585 906.01,-454.9104 910.593,-445.3581 903.6358,-444.585"/>
</g>
<!-- 15&#45;&gt;7 -->
<g id="edge65" class="edge">
<title>15&#45;&gt;7</title>
<path fill="none" stroke="#000000" d="M890.9423,-341.7054C806.2623,-378.7315 559.6884,-486.5451 464.3012,-528.2529"/>
<polygon fill="#000000" stroke="#000000" points="462.7813,-525.0975 455.0211,-532.3106 465.5857,-531.5112 462.7813,-525.0975"/>
</g>
<!-- 15&#45;&gt;10 -->
<g id="edge62" class="edge">
<title>15&#45;&gt;10</title>
<path fill="none" stroke="#000000" d="M954.459,-338.5853C977.7981,-346.7697 1007.6226,-360.8109 1026,-383 1047.2619,-408.6718 1038.3948,-422.7966 1047,-455 1068.0393,-533.7358 1098.7801,-555.2479 1082,-635 1068.6018,-698.6786 1036.3982,-705.3214 1023,-769 1017.3264,-795.9652 1015.1061,-804.5993 1023,-831 1025.8108,-840.4006 1030.411,-849.7054 1035.6017,-858.254"/>
<polygon fill="#000000" stroke="#000000" points="1032.8016,-860.3692 1041.1745,-866.8612 1038.6775,-856.5648 1032.8016,-860.3692"/>
</g>
<!-- 15&#45;&gt;13 -->
<g id="edge71" class="edge">
<title>15&#45;&gt;13</title>
<path fill="none" stroke="#000000" d="M948.7943,-341.6435C966.4882,-350.7751 988.3136,-364.7132 1002,-383 1047.8079,-444.2054 1034.4802,-541.5377 1024.1274,-589.0556"/>
<polygon fill="#000000" stroke="#000000" points="1020.6834,-588.4153 1021.8564,-598.9451 1027.5058,-589.9821 1020.6834,-588.4153"/>
</g>
<!-- 15&#45;&gt;20 -->
<g id="edge8" class="edge">
<title>15&#45;&gt;20</title>
<path fill="none" stroke="#000000" d="M882.1681,-335.5165C805.8685,-348.659 633.683,-378.3178 549.7715,-392.7714"/>
<polygon fill="#000000" stroke="#000000" points="549.0067,-389.3515 539.746,-394.4983 550.195,-396.2499 549.0067,-389.3515"/>
</g>
<!-- 15&#45;&gt;23 -->
<g id="edge59" class="edge">
<title>15&#45;&gt;23</title>
<path fill="none" stroke="#000000" d="M899.3176,-344.729C840.0211,-390.4907 666.2395,-529.3252 550,-671 523.1784,-703.6906 498.8443,-746.291 484.4791,-773.4028"/>
<polygon fill="#000000" stroke="#000000" points="481.3565,-771.8213 479.826,-782.3051 487.5602,-775.064 481.3565,-771.8213"/>
</g>
<!-- 16 -->
<g id="node17" class="node">
<title>16</title>
<polygon fill="#c0c0c0" stroke="#c0c0c0" points="1509.5,-728.5 1456.5,-728.5 1456.5,-675.5 1509.5,-675.5 1509.5,-728.5"/>
<text text-anchor="middle" x="1483" y="-698.3" font-family="Times,serif" font-size="14.00" fill="#000000">4.3.8</text>
</g>
<!-- 16&#45;&gt;9 -->
<g id="edge57" class="edge">
<title>16&#45;&gt;9</title>
<path fill="none" stroke="#000000" d="M1509.7801,-725.2142C1513.4477,-727.9828 1517.2451,-730.6545 1521,-733 1553.3823,-753.2278 1578.4223,-736.8389 1599,-769 1656.3285,-858.5993 1598.7173,-988.7491 1562.515,-1053.8149"/>
<polygon fill="#000000" stroke="#000000" points="1559.4485,-1052.1273 1557.563,-1062.553 1565.5385,-1055.5786 1559.4485,-1052.1273"/>
</g>
<!-- 16&#45;&gt;10 -->
<g id="edge33" class="edge">
<title>16&#45;&gt;10</title>
<path fill="none" stroke="#000000" d="M1456.134,-709.4278C1430.7401,-716.2536 1391.4979,-726.2992 1357,-733 1301.6852,-743.7441 1148.7388,-732.2773 1106,-769 1080.8701,-790.5925 1071.6085,-827.7691 1068.3491,-856.6818"/>
<polygon fill="#000000" stroke="#000000" points="1064.8385,-856.6356 1067.4016,-866.9157 1071.8087,-857.281 1064.8385,-856.6356"/>
</g>
<!-- 16&#45;&gt;11 -->
<g id="edge39" class="edge">
<title>16&#45;&gt;11</title>
<path fill="none" stroke="#000000" d="M1482.819,-728.6091C1482.469,-780.0524 1481.6975,-893.4681 1481.2806,-954.7591"/>
<polygon fill="#000000" stroke="#000000" points="1477.7801,-954.8274 1481.2119,-964.851 1484.7799,-954.8751 1477.7801,-954.8274"/>
</g>
<!-- 16&#45;&gt;14 -->
<g id="edge68" class="edge">
<title>16&#45;&gt;14</title>
<path fill="none" stroke="#000000" d="M1503.5667,-728.5202C1511.2735,-738.4579 1520.2017,-749.9706 1528.6114,-760.8146"/>
<polygon fill="#000000" stroke="#000000" points="1526.0183,-763.1823 1534.9123,-768.9396 1531.5499,-758.8925 1526.0183,-763.1823"/>
</g>
<!-- 17 -->
<g id="node18" class="node">
<title>17</title>
<polygon fill="#c0c0c0" stroke="#c0c0c0" points="1582.5,-728.5 1529.5,-728.5 1529.5,-675.5 1582.5,-675.5 1582.5,-728.5"/>
<text text-anchor="middle" x="1556" y="-698.3" font-family="Times,serif" font-size="14.00" fill="#000000">4.3.5</text>
</g>
<!-- 17&#45;&gt;9 -->
<g id="edge72" class="edge">
<title>17&#45;&gt;9</title>
<path fill="none" stroke="#000000" d="M1582.5691,-713.8857C1661.3426,-749.246 1888.7327,-852.2394 1898,-867 1935.8119,-927.225 1943.4508,-972.3098 1898,-1027 1857.8238,-1075.3433 1664.9025,-1088.9787 1579.1912,-1092.6808"/>
<polygon fill="#000000" stroke="#000000" points="1578.894,-1089.19 1569.0447,-1093.094 1579.1789,-1096.1842 1578.894,-1089.19"/>
</g>
<!-- 17&#45;&gt;10 -->
<g id="edge67" class="edge">
<title>17&#45;&gt;10</title>
<path fill="none" stroke="#000000" d="M1529.1794,-727.0086C1525.9037,-729.2779 1522.4798,-731.3414 1519,-733 1443.3857,-769.0413 1413.4823,-742.5604 1334,-769 1249.8999,-796.9757 1158.1597,-845.6666 1107.0917,-874.5575"/>
<polygon fill="#000000" stroke="#000000" points="1105.3017,-871.5491 1098.3434,-879.5386 1108.7653,-877.6322 1105.3017,-871.5491"/>
</g>
<!-- 17&#45;&gt;11 -->
<g id="edge13" class="edge">
<title>17&#45;&gt;11</title>
<path fill="none" stroke="#000000" d="M1538.506,-728.7291C1531.4527,-740.6254 1523.8521,-755.0715 1519,-769 1497.2318,-831.4878 1487.7252,-908.1199 1483.7256,-954.4491"/>
<polygon fill="#000000" stroke="#000000" points="1480.2139,-954.4511 1482.888,-964.7028 1487.1906,-955.021 1480.2139,-954.4511"/>
</g>
<!-- 17&#45;&gt;14 -->
<g id="edge10" class="edge">
<title>17&#45;&gt;14</title>
<path fill="none" stroke="#000000" d="M1556.8118,-728.5202C1557.0982,-737.8734 1557.4272,-748.6217 1557.7417,-758.8945"/>
<polygon fill="#000000" stroke="#000000" points="1554.2447,-759.0514 1558.0492,-768.9396 1561.2415,-758.8372 1554.2447,-759.0514"/>
</g>
<!-- 18 -->
<g id="node19" class="node">
<title>18</title>
<polygon fill="#c0c0c0" stroke="#c0c0c0" points="1784.5,-728.5 1731.5,-728.5 1731.5,-675.5 1784.5,-675.5 1784.5,-728.5"/>
<text text-anchor="middle" x="1758" y="-698.3" font-family="Times,serif" font-size="14.00" fill="#000000">4.3.1</text>
</g>
<!-- 18&#45;&gt;9 -->
<g id="edge16" class="edge">
<title>18&#45;&gt;9</title>
<path fill="none" stroke="#000000" d="M1784.9414,-721.0905C1790.5659,-725.0454 1796.4671,-729.1722 1802,-733 1875.7889,-784.0487 1917.8194,-784.4586 1953,-867 1980.8841,-932.4222 2001.1262,-972.871 1955,-1027 1930.7131,-1055.5006 1679.6818,-1081.1768 1579.2235,-1090.3897"/>
<polygon fill="#000000" stroke="#000000" points="1578.7829,-1086.9152 1569.1405,-1091.3053 1579.4161,-1093.8865 1578.7829,-1086.9152"/>
</g>
<!-- 18&#45;&gt;10 -->
<g id="edge22" class="edge">
<title>18&#45;&gt;10</title>
<path fill="none" stroke="#000000" d="M1731.248,-725.0612C1690.01,-760.4002 1614.0795,-824.5632 1599,-831 1510.4458,-868.8 1217.6353,-889.2588 1108.4898,-895.7202"/>
<polygon fill="#000000" stroke="#000000" points="1107.991,-892.2432 1098.2116,-896.3192 1108.3983,-899.2313 1107.991,-892.2432"/>
</g>
<!-- 18&#45;&gt;11 -->
<g id="edge112" class="edge">
<title>18&#45;&gt;11</title>
<path fill="none" stroke="#000000" d="M1739.5531,-728.6412C1708.1314,-772.9979 1640.9076,-863.5723 1572,-929 1556.3712,-943.8395 1537.3991,-958.2805 1520.8308,-969.9325"/>
<polygon fill="#000000" stroke="#000000" points="1518.6453,-967.1886 1512.4162,-975.7588 1522.6302,-972.9437 1518.6453,-967.1886"/>
</g>
<!-- 18&#45;&gt;14 -->
<g id="edge35" class="edge">
<title>18&#45;&gt;14</title>
<path fill="none" stroke="#000000" d="M1731.3265,-718.2937C1722.9918,-723.1969 1713.6999,-728.4736 1705,-733 1669.9506,-751.2355 1628.982,-769.8065 1599.379,-782.7571"/>
<polygon fill="#000000" stroke="#000000" points="1597.9615,-779.5569 1590.189,-786.7569 1600.7549,-785.9754 1597.9615,-779.5569"/>
</g>
<!-- 19 -->
<g id="node20" class="node">
<title>19</title>
<polygon fill="#c0c0c0" stroke="#c0c0c0" points="1167.5,-826.5 1114.5,-826.5 1114.5,-773.5 1167.5,-773.5 1167.5,-826.5"/>
<text text-anchor="middle" x="1141" y="-796.3" font-family="Times,serif" font-size="14.00" fill="#000000">4.3.0</text>
</g>
<!-- 19&#45;&gt;10 -->
<g id="edge110" class="edge">
<title>19&#45;&gt;10</title>
<path fill="none" stroke="#000000" d="M1120.9745,-826.5202C1113.4705,-836.4579 1104.7773,-847.9706 1096.5889,-858.8146"/>
<polygon fill="#000000" stroke="#000000" points="1093.6867,-856.85 1090.4538,-866.9396 1099.273,-861.0683 1093.6867,-856.85"/>
</g>
<!-- 20&#45;&gt;4 -->
<g id="edge27" class="edge">
<title>20&#45;&gt;4</title>
<path fill="none" stroke="#000000" d="M515.922,-418.2625C553.3519,-464.6982 653.751,-589.4243 660,-599 676.1713,-623.7803 691.5247,-653.9446 701.6968,-675.2072"/>
<polygon fill="#000000" stroke="#000000" points="698.5551,-676.7509 705.9902,-684.2987 704.8848,-673.7617 698.5551,-676.7509"/>
</g>
<!-- 20&#45;&gt;6 -->
<g id="edge23" class="edge">
<title>20&#45;&gt;6</title>
<path fill="none" stroke="#000000" d="M539.4582,-407.7089C612.918,-420.8659 775.753,-450.0304 856.5826,-464.5073"/>
<polygon fill="#000000" stroke="#000000" points="856.03,-467.964 866.4904,-466.2819 857.2641,-461.0736 856.03,-467.964"/>
</g>
<!-- 20&#45;&gt;7 -->
<g id="edge20" class="edge">
<title>20&#45;&gt;7</title>
<path fill="none" stroke="#000000" d="M492.6809,-418.6572C479.5759,-443.4878 455.5904,-488.934 440.2414,-518.0164"/>
<polygon fill="#000000" stroke="#000000" points="436.9676,-516.7208 435.3953,-527.1983 443.1583,-519.9882 436.9676,-516.7208"/>
</g>
<!-- 20&#45;&gt;10 -->
<g id="edge36" class="edge">
<title>20&#45;&gt;10</title>
<path fill="none" stroke="#000000" d="M463.2446,-406.5011C408.0444,-415.0007 310.4171,-432.6992 283,-455 185.4862,-534.3169 156.5148,-631.7476 231,-733 287.5376,-809.8551 330.5401,-803.8283 422,-831 536.1701,-864.9187 902.2155,-888.5375 1025.7985,-895.7123"/>
<polygon fill="#000000" stroke="#000000" points="1025.7896,-899.2175 1035.9742,-896.2976 1026.1917,-892.2291 1025.7896,-899.2175"/>
</g>
<!-- 20&#45;&gt;13 -->
<g id="edge9" class="edge">
<title>20&#45;&gt;13</title>
<path fill="none" stroke="#000000" d="M531.5384,-413.3889C619.4472,-450.2594 879.4023,-559.2891 978.254,-600.7493"/>
<polygon fill="#000000" stroke="#000000" points="977.0055,-604.0209 987.581,-604.6611 979.713,-597.5657 977.0055,-604.0209"/>
</g>
<!-- 20&#45;&gt;23 -->
<g id="edge58" class="edge">
<title>20&#45;&gt;23</title>
<path fill="none" stroke="#000000" d="M463.5573,-406.4996C396.6839,-418.4719 266,-453.5655 266,-545 266,-545 266,-545 266,-617 266,-703.9949 370.0109,-759.9058 429.8589,-784.8762"/>
<polygon fill="#000000" stroke="#000000" points="428.836,-788.2384 439.418,-788.7589 431.4702,-781.7529 428.836,-788.2384"/>
</g>
<!-- 21&#45;&gt;4 -->
<g id="edge89" class="edge">
<title>21&#45;&gt;4</title>
<path fill="none" stroke="#000000" d="M756.3952,-347.1372C757.0945,-394.7993 756.8487,-527.3289 736,-635 733.418,-648.3344 728.9424,-662.6939 724.6993,-674.686"/>
<polygon fill="#000000" stroke="#000000" points="721.3937,-673.5344 721.2364,-684.1281 727.9657,-675.9447 721.3937,-673.5344"/>
</g>
<!-- 21&#45;&gt;6 -->
<g id="edge19" class="edge">
<title>21&#45;&gt;6</title>
<path fill="none" stroke="#000000" d="M772.9775,-345.5186C799.1558,-370.9894 849.4917,-419.9649 879.5787,-449.2387"/>
<polygon fill="#000000" stroke="#000000" points="877.1566,-451.7654 886.7646,-456.2305 882.0381,-446.7483 877.1566,-451.7654"/>
</g>
<!-- 21&#45;&gt;7 -->
<g id="edge47" class="edge">
<title>21&#45;&gt;7</title>
<path fill="none" stroke="#000000" d="M732.1625,-343.725C714.839,-354.4851 690.8696,-369.495 670,-383 597.3512,-430.0122 580.1353,-443.2036 508,-491 491.3704,-502.0187 472.8082,-514.2483 457.5558,-524.279"/>
<polygon fill="#000000" stroke="#000000" points="455.4312,-521.4871 448.9976,-529.905 459.2764,-527.3364 455.4312,-521.4871"/>
</g>
<!-- 21&#45;&gt;10 -->
<g id="edge88" class="edge">
<title>21&#45;&gt;10</title>
<path fill="none" stroke="#000000" d="M743.7064,-346.5208C704.0485,-405.3864 586.5228,-599.826 665,-733 681.7659,-761.4513 703.3154,-749.5449 730,-769 762.5206,-792.71 760.6473,-811.7663 796,-831 835.5013,-852.4908 960.1361,-878.0309 1025.7226,-890.457"/>
<polygon fill="#000000" stroke="#000000" points="1025.2453,-893.9285 1035.7197,-892.3361 1026.5384,-887.049 1025.2453,-893.9285"/>
</g>
<!-- 21&#45;&gt;13 -->
<g id="edge11" class="edge">
<title>21&#45;&gt;13</title>
<path fill="none" stroke="#000000" d="M786.3188,-341.0239C829.141,-359.4501 907.2119,-398.5676 953,-455 985.7213,-495.328 1003.3427,-554.4526 1011.398,-589.0064"/>
<polygon fill="#000000" stroke="#000000" points="1008.0093,-589.8916 1013.597,-598.8931 1014.8423,-588.3718 1008.0093,-589.8916"/>
</g>
<!-- 21&#45;&gt;20 -->
<g id="edge38" class="edge">
<title>21&#45;&gt;20</title>
<path fill="none" stroke="#000000" d="M724.1519,-340.0856C716.9043,-342.4771 709.2143,-344.9118 702,-347 637.8028,-365.582 620.1972,-364.418 556,-383 551.942,-384.1746 547.7334,-385.4589 543.5377,-386.7834"/>
<polygon fill="#000000" stroke="#000000" points="542.2875,-383.5091 533.8481,-389.9144 544.4399,-390.17 542.2875,-383.5091"/>
</g>
<!-- 21&#45;&gt;23 -->
<g id="edge111" class="edge">
<title>21&#45;&gt;23</title>
<path fill="none" stroke="#000000" d="M722.8976,-339.5345C693.4345,-349.369 649.4811,-365.1763 613,-383 606.1,-386.3712 380.7588,-520.3032 377,-527 329.2222,-612.1221 408.5235,-725.7102 449.2165,-775.2025"/>
<polygon fill="#000000" stroke="#000000" points="446.7541,-777.7134 455.8592,-783.1307 452.1196,-773.2177 446.7541,-777.7134"/>
</g>
<!-- 22&#45;&gt;4 -->
<g id="edge49" class="edge">
<title>22&#45;&gt;4</title>
<path fill="none" stroke="#000000" d="M744.7927,-190.5137C796.4792,-198.4193 890.4286,-214.7488 968,-239 1150.8483,-296.164 1330,-281.4243 1330,-473 1330,-473 1330,-473 1330,-545 1330,-661.3988 911.7766,-692.5709 764.5407,-699.9385"/>
<polygon fill="#000000" stroke="#000000" points="764.2365,-696.4491 754.4175,-700.4287 764.5751,-703.4409 764.2365,-696.4491"/>
</g>
<!-- 22&#45;&gt;5 -->
<g id="edge96" class="edge">
<title>22&#45;&gt;5</title>
<path fill="none" stroke="#000000" d="M690.2285,-201.6992C681.4744,-210.9683 670.4313,-222.661 660.7568,-232.9046"/>
<polygon fill="#000000" stroke="#000000" points="658.0077,-230.718 653.686,-240.3913 663.0968,-235.5244 658.0077,-230.718"/>
</g>
<!-- 22&#45;&gt;6 -->
<g id="edge97" class="edge">
<title>22&#45;&gt;6</title>
<path fill="none" stroke="#000000" d="M744.4384,-190.4985C804.5889,-201.401 919.2224,-231.9569 969,-311 997.4346,-356.1521 956.0043,-415.8308 927.3643,-448.6928"/>
<polygon fill="#000000" stroke="#000000" points="924.4822,-446.6641 920.4088,-456.4446 929.6924,-451.339 924.4822,-446.6641"/>
</g>
<!-- 22&#45;&gt;7 -->
<g id="edge17" class="edge">
<title>22&#45;&gt;7</title>
<path fill="none" stroke="#000000" d="M666.991,-189.5986C565.1095,-202.4901 295.2911,-242.5767 243,-311 189.6199,-380.8482 255.1479,-437.625 325,-491 344.1442,-505.6283 367.7934,-518.5068 387.3938,-528.0146"/>
<polygon fill="#000000" stroke="#000000" points="386.1178,-531.283 396.6532,-532.4042 389.1164,-524.9578 386.1178,-531.283"/>
</g>
<!-- 22&#45;&gt;13 -->
<g id="edge26" class="edge">
<title>22&#45;&gt;13</title>
<path fill="none" stroke="#000000" d="M743.8784,-191.1881C799.0681,-200.7002 898.3505,-219.8323 929,-239 999.3934,-283.0228 1012.5358,-307.9299 1048,-383 1082.2751,-455.553 1089.3163,-487.5511 1062,-563 1057.9923,-574.0694 1050.615,-584.4643 1042.9767,-593.1212"/>
<polygon fill="#000000" stroke="#000000" points="1040.2862,-590.873 1035.9778,-600.5523 1045.3819,-595.6724 1040.2862,-590.873"/>
</g>
<!-- 22&#45;&gt;20 -->
<g id="edge31" class="edge">
<title>22&#45;&gt;20</title>
<path fill="none" stroke="#000000" d="M705.3326,-203.0098C703.9394,-222.0094 699.7127,-252.2854 687,-275 655.5275,-331.2339 587.1998,-367.4855 542.9716,-386.0462"/>
<polygon fill="#000000" stroke="#000000" points="541.5877,-382.8306 533.6492,-389.847 544.2305,-389.3126 541.5877,-382.8306"/>
</g>
<!-- 22&#45;&gt;21 -->
<g id="edge85" class="edge">
<title>22&#45;&gt;21</title>
<path fill="none" stroke="#000000" d="M712.2314,-202.9465C720.8022,-227.6304 736.3086,-272.2889 746.3761,-301.2833"/>
<polygon fill="#000000" stroke="#000000" points="743.1035,-302.5286 749.69,-310.8273 749.7162,-300.2325 743.1035,-302.5286"/>
</g>
<!-- 22&#45;&gt;23 -->
<g id="edge43" class="edge">
<title>22&#45;&gt;23</title>
<path fill="none" stroke="#000000" d="M665.7882,-186.8451C574.8365,-191.5561 356.1666,-206.0587 291,-239 251.4444,-258.9951 239.0943,-270.1071 222,-311 149.6466,-484.084 105.1767,-593.8541 231,-733 256.4919,-761.1911 360.0627,-782.2481 422.5157,-792.6826"/>
<polygon fill="#000000" stroke="#000000" points="422.1087,-796.1626 432.5431,-794.3259 423.2408,-789.2547 422.1087,-796.1626"/>
</g>
<!-- 23&#45;&gt;9 -->
<g id="edge54" class="edge">
<title>23&#45;&gt;9</title>
<path fill="none" stroke="#000000" d="M478.9583,-817.6888C500.0525,-862.1971 562.1446,-978.7139 654,-1027 729.1529,-1066.506 1331.5033,-1087.6852 1496.3982,-1092.7804"/>
<polygon fill="#000000" stroke="#000000" points="1496.5144,-1096.2855 1506.6167,-1093.0928 1496.7283,-1089.2888 1496.5144,-1096.2855"/>
</g>
<!-- 23&#45;&gt;11 -->
<g id="edge108" class="edge">
<title>23&#45;&gt;11</title>
<path fill="none" stroke="#000000" d="M505.9175,-809.1473C593.2477,-831.796 828.3863,-891.3687 1027,-929 1178.1447,-957.6373 1359.5547,-981.1899 1439.5974,-991.0374"/>
<polygon fill="#000000" stroke="#000000" points="1439.4027,-994.5396 1449.7538,-992.2801 1440.2529,-987.5914 1439.4027,-994.5396"/>
</g>
<!-- 24 -->
<g id="node25" class="node">
<title>24</title>
<ellipse fill="#c0c0c0" stroke="#c0c0c0" cx="600" cy="-41" rx="40.0939" ry="18"/>
<text text-anchor="middle" x="600" y="-37.3" font-family="Times,serif" font-size="14.00" fill="#000000">4.2.16</text>
</g>
<!-- 24&#45;&gt;3 -->
<g id="edge61" class="edge">
<title>24&#45;&gt;3</title>
<path fill="none" stroke="#000000" d="M609.3933,-58.7978C613.7649,-67.0808 619.0573,-77.1085 623.8953,-86.2752"/>
<polygon fill="#000000" stroke="#000000" points="620.9518,-88.1968 628.7148,-95.407 627.1425,-84.9294 620.9518,-88.1968"/>
</g>
<!-- 24&#45;&gt;5 -->
<g id="edge94" class="edge">
<title>24&#45;&gt;5</title>
<path fill="none" stroke="#000000" d="M594.5604,-59.0334C589.8139,-77.2781 584.3561,-106.2458 589,-131 595.6859,-166.639 612.1477,-205.1513 624.1511,-230.0893"/>
<polygon fill="#000000" stroke="#000000" points="621.109,-231.8348 628.6623,-239.2644 627.3908,-228.7461 621.109,-231.8348"/>
</g>
<!-- 24&#45;&gt;6 -->
<g id="edge48" class="edge">
<title>24&#45;&gt;6</title>
<path fill="none" stroke="#000000" d="M640.4175,-41.7607C777.4609,-45.4175 1216,-66.3861 1216,-185 1216,-185 1216,-185 1216,-257 1216,-384.377 1038.0331,-442.5582 950.9193,-463.4075"/>
<polygon fill="#000000" stroke="#000000" points="949.9631,-460.0364 941.0157,-465.7105 951.5486,-466.8545 949.9631,-460.0364"/>
</g>
<!-- 24&#45;&gt;7 -->
<g id="edge40" class="edge">
<title>24&#45;&gt;7</title>
<path fill="none" stroke="#000000" d="M559.8513,-42.9358C433.7593,-50.0966 54,-80.3498 54,-185 54,-185 54,-185 54,-329 54,-476.4713 275.3388,-524.9549 376.5525,-539.4162"/>
<polygon fill="#000000" stroke="#000000" points="376.1584,-542.8948 386.5417,-540.7884 377.111,-535.96 376.1584,-542.8948"/>
</g>
<!-- 24&#45;&gt;13 -->
<g id="edge46" class="edge">
<title>24&#45;&gt;13</title>
<path fill="none" stroke="#000000" d="M640.0753,-43.421C749.6029,-50.2791 1052.2303,-70.9101 1149,-95 1251.1155,-120.4207 1368,-79.768 1368,-185 1368,-185 1368,-185 1368,-329 1368,-486.2412 1154.8761,-573.301 1060.771,-604.0781"/>
<polygon fill="#000000" stroke="#000000" points="1059.4283,-600.833 1050.9743,-607.2189 1061.5654,-607.4988 1059.4283,-600.833"/>
</g>
<!-- 24&#45;&gt;20 -->
<g id="edge84" class="edge">
<title>24&#45;&gt;20</title>
<path fill="none" stroke="#000000" d="M587.4018,-58.2007C580.4524,-68.4343 572.2024,-81.9343 567,-95 528.1056,-192.6828 510.8651,-317.6195 504.7708,-372.7274"/>
<polygon fill="#000000" stroke="#000000" points="501.278,-372.4743 503.6974,-382.7892 508.2385,-373.2169 501.278,-372.4743"/>
</g>
<!-- 24&#45;&gt;21 -->
<g id="edge80" class="edge">
<title>24&#45;&gt;21</title>
<path fill="none" stroke="#000000" d="M592.2603,-58.7741C575.1501,-101.1065 539.3966,-209.2574 589,-275 603.6002,-294.3506 664.5599,-310.5069 708.6136,-319.9647"/>
<polygon fill="#000000" stroke="#000000" points="708.0653,-323.4258 718.5706,-322.0513 709.5011,-316.5746 708.0653,-323.4258"/>
</g>
<!-- 24&#45;&gt;22 -->
<g id="edge69" class="edge">
<title>24&#45;&gt;22</title>
<path fill="none" stroke="#000000" d="M631.1235,-52.8154C650.1251,-61.6167 673.3207,-75.4978 687,-95 699.6307,-113.0073 704.1701,-137.6902 705.6686,-156.6528"/>
<polygon fill="#000000" stroke="#000000" points="702.1823,-156.9997 706.2291,-166.7912 709.1716,-156.6132 702.1823,-156.9997"/>
</g>
<!-- 25 -->
<g id="node26" class="node">
<title>25</title>
<polygon fill="#c0c0c0" stroke="#c0c0c0" points="1696,-733 1634,-733 1634,-671 1696,-671 1696,-733"/>
<text text-anchor="middle" x="1665" y="-698.3" font-family="Times,serif" font-size="14.00" fill="#000000">4.3.12</text>
</g>
<!-- 25&#45;&gt;9 -->
<g id="edge51" class="edge">
<title>25&#45;&gt;9</title>
<path fill="none" stroke="#000000" d="M1696.4765,-718.9272C1720.4928,-732.0686 1754.2329,-751.0204 1783,-769 1848.3364,-809.8356 1889.7325,-799.0216 1926,-867 1959.4736,-929.7416 1972.8183,-972.6155 1927,-1027 1904.6834,-1053.4889 1675.0054,-1079.9258 1579.4038,-1089.8724"/>
<polygon fill="#000000" stroke="#000000" points="1578.8238,-1086.4135 1569.2355,-1090.9206 1579.5417,-1093.3766 1578.8238,-1086.4135"/>
</g>
<!-- 25&#45;&gt;10 -->
<g id="edge50" class="edge">
<title>25&#45;&gt;10</title>
<path fill="none" stroke="#000000" d="M1633.6474,-716.1033C1620.8452,-721.6546 1605.8242,-727.906 1592,-733 1414.1768,-798.525 1196.7311,-861.5677 1107.8211,-886.6365"/>
<polygon fill="#000000" stroke="#000000" points="1106.8028,-883.287 1098.1238,-889.3637 1108.698,-890.0256 1106.8028,-883.287"/>
</g>
<!-- 25&#45;&gt;11 -->
<g id="edge42" class="edge">
<title>25&#45;&gt;11</title>
<path fill="none" stroke="#000000" d="M1650.7647,-733.202C1629.4914,-778.3666 1586.7608,-863.6937 1539,-929 1532.1162,-938.4127 1524.2242,-948.125 1516.5244,-957.1344"/>
<polygon fill="#000000" stroke="#000000" points="1513.7448,-954.9975 1509.8377,-964.8456 1519.0334,-959.5835 1513.7448,-954.9975"/>
</g>
<!-- 25&#45;&gt;14 -->
<g id="edge93" class="edge">
<title>25&#45;&gt;14</title>
<path fill="none" stroke="#000000" d="M1633.7698,-730.8732C1622.4482,-741.3404 1609.5224,-753.2906 1597.6386,-764.2776"/>
<polygon fill="#000000" stroke="#000000" points="1594.9737,-761.9746 1590.007,-771.3332 1599.7257,-767.1146 1594.9737,-761.9746"/>
</g>
</g>
</svg>
