<?xml version="1.0" encoding="UTF-8" standalone="no"?>
<!DOCTYPE svg PUBLIC "-//W3C//DTD SVG 1.1//EN"
 "http://www.w3.org/Graphics/SVG/1.1/DTD/svg11.dtd">
<!-- Generated by graphviz version 2.42.4 (0)
 -->
<!-- Title: fast Pages: 1 -->
<svg width="661pt" height="483pt"
 viewBox="0.00 0.00 661.47 483.00" xmlns="http://www.w3.org/2000/svg" xmlns:xlink="http://www.w3.org/1999/xlink">
<g id="graph0" class="graph" transform="scale(1 1) rotate(0) translate(4 479)">
<title>fast</title>
<polygon fill="white" stroke="transparent" points="-4,4 -4,-479 657.47,-479 657.47,4 -4,4"/>
<text text-anchor="middle" x="326.74" y="-7.8" font-family="Times,serif" font-size="14.00">fast&#45;4.6_amd64 (2021&#45;02&#45;07)</text>
<!-- 6 -->
<g id="node1" class="node">
<title>6</title>
<ellipse fill="lightgrey" stroke="lightgrey" cx="444.36" cy="-172" rx="40.09" ry="18"/>
<text text-anchor="middle" x="444.36" y="-168.3" font-family="Times,serif" font-size="14.00">4.5.27</text>
</g>
<!-- 7 -->
<g id="node2" class="node">
<title>7</title>
<polygon fill="yellowgreen" stroke="yellowgreen" points="485.36,-475 423.36,-475 423.36,-413 485.36,-413 485.36,-475"/>
<text text-anchor="middle" x="454.36" y="-440.3" font-family="Times,serif" font-size="14.00">4.6.15</text>
</g>
<!-- 6&#45;&gt;7 -->
<g id="edge6" class="edge">
<title>6&#45;&gt;7</title>
<path fill="none" stroke="blue" stroke-dasharray="5,2" d="M484.57,-174.27C521.46,-177.83 574.21,-189.49 600.36,-226 639.44,-280.56 636.75,-320.61 600.36,-377 577.36,-412.63 529.98,-429.23 495.41,-436.83"/>
<polygon fill="blue" stroke="blue" points="494.68,-433.41 485.58,-438.83 496.08,-440.26 494.68,-433.41"/>
</g>
<!-- 9 -->
<g id="node4" class="node">
<title>9</title>
<polygon fill="yellowgreen" stroke="yellowgreen" points="219.36,-475 157.36,-475 157.36,-413 219.36,-413 219.36,-475"/>
<text text-anchor="middle" x="188.36" y="-440.3" font-family="Times,serif" font-size="14.00">4.6.13</text>
</g>
<!-- 6&#45;&gt;9 -->
<g id="edge16" class="edge">
<title>6&#45;&gt;9</title>
<path fill="none" stroke="blue" stroke-dasharray="5,2" d="M442.21,-190.19C439.07,-211.74 432.03,-249.42 418.36,-279 410.08,-296.91 402.8,-298.25 392.36,-315 375.85,-341.49 382.72,-356.3 359.36,-377 322.35,-409.79 267.26,-427.09 229.68,-435.63"/>
<polygon fill="blue" stroke="blue" points="228.62,-432.27 219.58,-437.81 230.09,-439.12 228.62,-432.27"/>
</g>
<!-- 35 -->
<g id="node11" class="node">
<title>35</title>
<polygon fill="yellowgreen" stroke="yellowgreen" points="350.36,-377 288.36,-377 288.36,-315 350.36,-315 350.36,-377"/>
<text text-anchor="middle" x="319.36" y="-342.3" font-family="Times,serif" font-size="14.00">4.6.12</text>
</g>
<!-- 6&#45;&gt;35 -->
<g id="edge28" class="edge">
<title>6&#45;&gt;35</title>
<path fill="none" stroke="blue" stroke-dasharray="5,2" d="M437.52,-189.76C428.21,-211.52 410.18,-250.1 388.36,-279 379.52,-290.71 368.54,-302.21 357.96,-312.25"/>
<polygon fill="blue" stroke="blue" points="355.32,-309.92 350.37,-319.28 360.08,-315.06 355.32,-309.92"/>
</g>
<!-- 8 -->
<g id="node3" class="node">
<title>8</title>
<ellipse fill="lightgrey" stroke="lightgrey" cx="71.36" cy="-172" rx="40.09" ry="18"/>
<text text-anchor="middle" x="71.36" y="-168.3" font-family="Times,serif" font-size="14.00">4.5.22</text>
</g>
<!-- 8&#45;&gt;7 -->
<g id="edge27" class="edge">
<title>8&#45;&gt;7</title>
<path fill="none" stroke="blue" stroke-dasharray="5,2" d="M69.49,-190.3C67.99,-212.99 68.72,-252.96 88.36,-279 111.11,-309.16 136.23,-290.95 165.36,-315 191.62,-336.68 182.33,-357.67 210.36,-377 272.55,-419.88 361.43,-434.93 412.99,-440.2"/>
<polygon fill="blue" stroke="blue" points="412.8,-443.69 423.09,-441.15 413.46,-436.73 412.8,-443.69"/>
</g>
<!-- 8&#45;&gt;9 -->
<g id="edge31" class="edge">
<title>8&#45;&gt;9</title>
<path fill="none" stroke="blue" stroke-dasharray="5,2" d="M51.75,-187.85C40.84,-197.4 28.3,-210.83 22.36,-226 -2.28,-288.94 -1.42,-323.88 40.36,-377 66.6,-410.37 113.33,-427.33 147.27,-435.63"/>
<polygon fill="blue" stroke="blue" points="146.83,-439.12 157.36,-437.94 148.39,-432.3 146.83,-439.12"/>
</g>
<!-- 22 -->
<g id="node8" class="node">
<title>22</title>
<polygon fill="yellowgreen" stroke="yellowgreen" points="193.86,-279 140.86,-279 140.86,-226 193.86,-226 193.86,-279"/>
<text text-anchor="middle" x="167.36" y="-248.8" font-family="Times,serif" font-size="14.00">4.6.8</text>
</g>
<!-- 8&#45;&gt;22 -->
<g id="edge3" class="edge">
<title>8&#45;&gt;22</title>
<path fill="none" stroke="blue" stroke-dasharray="5,2" d="M89.87,-188.14C102.01,-198.06 118.25,-211.34 132.73,-223.18"/>
<polygon fill="blue" stroke="blue" points="130.6,-225.96 140.55,-229.58 135.03,-220.54 130.6,-225.96"/>
</g>
<!-- 8&#45;&gt;35 -->
<g id="edge10" class="edge">
<title>8&#45;&gt;35</title>
<path fill="none" stroke="blue" stroke-dasharray="5,2" d="M76.77,-190.19C84.96,-213.5 102.65,-254.98 131.36,-279 154.02,-297.96 230.17,-321.01 278.32,-334.24"/>
<polygon fill="blue" stroke="blue" points="277.57,-337.67 288.14,-336.91 279.41,-330.91 277.57,-337.67"/>
</g>
<!-- 10 -->
<g id="node5" class="node">
<title>10</title>
<ellipse fill="lightgrey" stroke="lightgrey" cx="116.36" cy="-346" rx="40.09" ry="18"/>
<text text-anchor="middle" x="116.36" y="-342.3" font-family="Times,serif" font-size="14.00">4.5.28</text>
</g>
<!-- 10&#45;&gt;7 -->
<g id="edge19" class="edge">
<title>10&#45;&gt;7</title>
<path fill="none" stroke="blue" stroke-dasharray="5,2" d="M138.54,-361.16C148.04,-366.74 159.45,-372.8 170.36,-377 253.74,-409.12 357.15,-428.32 413.34,-437.15"/>
<polygon fill="blue" stroke="blue" points="412.85,-440.62 423.26,-438.68 413.91,-433.7 412.85,-440.62"/>
</g>
<!-- 10&#45;&gt;9 -->
<g id="edge2" class="edge">
<title>10&#45;&gt;9</title>
<path fill="none" stroke="blue" stroke-dasharray="5,2" d="M128.57,-363.29C137.02,-374.55 148.64,-390.04 159.39,-404.37"/>
<polygon fill="blue" stroke="blue" points="156.79,-406.74 165.59,-412.64 162.39,-402.54 156.79,-406.74"/>
</g>
<!-- 15 -->
<g id="node6" class="node">
<title>15</title>
<ellipse fill="lightgrey" stroke="lightgrey" cx="207.36" cy="-172" rx="40.09" ry="18"/>
<text text-anchor="middle" x="207.36" y="-168.3" font-family="Times,serif" font-size="14.00">4.5.21</text>
</g>
<!-- 15&#45;&gt;7 -->
<g id="edge24" class="edge">
<title>15&#45;&gt;7</title>
<path fill="none" stroke="blue" stroke-dasharray="5,2" d="M227.24,-187.91C240.63,-198.21 258.49,-212.43 273.36,-226 313.99,-263.07 323.78,-273.05 359.36,-315 383.88,-343.92 409.37,-378.55 427.76,-404.49"/>
<polygon fill="blue" stroke="blue" points="425.09,-406.78 433.72,-412.93 430.81,-402.74 425.09,-406.78"/>
</g>
<!-- 15&#45;&gt;9 -->
<g id="edge30" class="edge">
<title>15&#45;&gt;9</title>
<path fill="none" stroke="blue" stroke-dasharray="5,2" d="M182.04,-186.21C144.67,-207.41 76.66,-253.05 53.36,-315 43.66,-340.79 38.77,-353.62 53.36,-377 73.74,-409.65 115.47,-426.59 147.17,-435.08"/>
<polygon fill="blue" stroke="blue" points="146.52,-438.52 157.07,-437.55 148.21,-431.73 146.52,-438.52"/>
</g>
<!-- 15&#45;&gt;22 -->
<g id="edge1" class="edge">
<title>15&#45;&gt;22</title>
<path fill="none" stroke="blue" stroke-dasharray="5,2" d="M198.88,-189.65C194.81,-197.63 189.78,-207.5 184.94,-217"/>
<polygon fill="blue" stroke="blue" points="181.82,-215.41 180.4,-225.91 188.06,-218.59 181.82,-215.41"/>
</g>
<!-- 15&#45;&gt;35 -->
<g id="edge22" class="edge">
<title>15&#45;&gt;35</title>
<path fill="none" stroke="blue" stroke-dasharray="5,2" d="M218.1,-189.49C235.48,-216.19 270.25,-269.59 294.16,-306.3"/>
<polygon fill="blue" stroke="blue" points="291.29,-308.31 299.68,-314.78 297.16,-304.49 291.29,-308.31"/>
</g>
<!-- 17 -->
<g id="node7" class="node">
<title>17</title>
<ellipse fill="lightgrey" stroke="lightgrey" cx="518.36" cy="-252.5" rx="40.09" ry="18"/>
<text text-anchor="middle" x="518.36" y="-248.8" font-family="Times,serif" font-size="14.00">4.5.24</text>
</g>
<!-- 17&#45;&gt;7 -->
<g id="edge34" class="edge">
<title>17&#45;&gt;7</title>
<path fill="none" stroke="blue" stroke-dasharray="5,2" d="M512.57,-270.65C502.53,-300.36 481.67,-362.15 467.84,-403.09"/>
<polygon fill="blue" stroke="blue" points="464.45,-402.17 464.57,-412.76 471.09,-404.41 464.45,-402.17"/>
</g>
<!-- 17&#45;&gt;9 -->
<g id="edge11" class="edge">
<title>17&#45;&gt;9</title>
<path fill="none" stroke="blue" stroke-dasharray="5,2" d="M505.85,-269.96C485.05,-296.23 440.84,-347.66 392.36,-377 340.61,-408.31 272.38,-426.46 229.43,-435.55"/>
<polygon fill="blue" stroke="blue" points="228.7,-432.12 219.61,-437.56 230.11,-438.98 228.7,-432.12"/>
</g>
<!-- 17&#45;&gt;35 -->
<g id="edge8" class="edge">
<title>17&#45;&gt;35</title>
<path fill="none" stroke="blue" stroke-dasharray="5,2" d="M491.11,-266.03C457.25,-281.6 399.18,-308.3 360.05,-326.29"/>
<polygon fill="blue" stroke="blue" points="358.16,-323.31 350.53,-330.67 361.08,-329.67 358.16,-323.31"/>
</g>
<!-- 22&#45;&gt;7 -->
<g id="edge17" class="edge">
<title>22&#45;&gt;7</title>
<path fill="none" stroke="blue" stroke-dasharray="5,2" d="M184.79,-279.04C204.76,-306.6 239.87,-350.14 279.36,-377 320.83,-405.22 375.97,-423.41 413.19,-433.41"/>
<polygon fill="blue" stroke="blue" points="412.62,-436.88 423.18,-436.01 414.39,-430.1 412.62,-436.88"/>
</g>
<!-- 22&#45;&gt;9 -->
<g id="edge23" class="edge">
<title>22&#45;&gt;9</title>
<path fill="none" stroke="blue" stroke-dasharray="5,2" d="M140.47,-270.27C135.77,-273.19 130.93,-276.19 126.36,-279 100.2,-295.11 82.39,-288.21 67.36,-315 53.87,-339.03 53.29,-353.31 67.36,-377 84.62,-406.08 119.71,-423.17 147.67,-432.64"/>
<polygon fill="blue" stroke="blue" points="146.63,-435.98 157.22,-435.68 148.76,-429.31 146.63,-435.98"/>
</g>
<!-- 22&#45;&gt;35 -->
<g id="edge29" class="edge">
<title>22&#45;&gt;35</title>
<path fill="none" stroke="blue" stroke-dasharray="5,2" d="M194.22,-270.31C198.92,-273.22 203.78,-276.21 208.36,-279 231.82,-293.27 258.25,-309 279.43,-321.52"/>
<polygon fill="blue" stroke="blue" points="277.77,-324.6 288.16,-326.67 281.33,-318.58 277.77,-324.6"/>
</g>
<!-- 28 -->
<g id="node9" class="node">
<title>28</title>
<ellipse fill="lightgrey" stroke="lightgrey" cx="306.36" cy="-172" rx="40.09" ry="18"/>
<text text-anchor="middle" x="306.36" y="-168.3" font-family="Times,serif" font-size="14.00">4.5.23</text>
</g>
<!-- 28&#45;&gt;7 -->
<g id="edge7" class="edge">
<title>28&#45;&gt;7</title>
<path fill="none" stroke="blue" stroke-dasharray="5,2" d="M342.63,-180.06C413.91,-193.98 565.57,-223.81 567.36,-226 615.07,-284.38 542.29,-366.13 493.17,-410.77"/>
<polygon fill="blue" stroke="blue" points="490.64,-408.34 485.52,-417.61 495.31,-413.56 490.64,-408.34"/>
</g>
<!-- 28&#45;&gt;9 -->
<g id="edge9" class="edge">
<title>28&#45;&gt;9</title>
<path fill="none" stroke="blue" stroke-dasharray="5,2" d="M298.98,-189.89C280.53,-232.1 232.01,-343.11 205.78,-403.13"/>
<polygon fill="blue" stroke="blue" points="202.42,-402.09 201.62,-412.65 208.83,-404.89 202.42,-402.09"/>
</g>
<!-- 28&#45;&gt;22 -->
<g id="edge4" class="edge">
<title>28&#45;&gt;22</title>
<path fill="none" stroke="blue" stroke-dasharray="5,2" d="M282.46,-186.49C260.62,-198.83 228.01,-217.25 203.07,-231.33"/>
<polygon fill="blue" stroke="blue" points="201.25,-228.34 194.26,-236.3 204.69,-234.43 201.25,-228.34"/>
</g>
<!-- 28&#45;&gt;35 -->
<g id="edge12" class="edge">
<title>28&#45;&gt;35</title>
<path fill="none" stroke="blue" stroke-dasharray="5,2" d="M307.65,-190.12C309.65,-216.57 313.55,-268.1 316.29,-304.45"/>
<polygon fill="blue" stroke="blue" points="312.83,-305.02 317.07,-314.73 319.81,-304.49 312.83,-305.02"/>
</g>
<!-- 30 -->
<g id="node10" class="node">
<title>30</title>
<polygon fill="salmon" stroke="salmon" points="356.09,-76.09 306.36,-88.6 256.62,-76.09 275.62,-55.86 337.1,-55.86 356.09,-76.09"/>
<polygon fill="none" stroke="salmon" points="363.69,-78.33 306.36,-92.75 249.03,-78.33 273.9,-51.83 338.82,-51.83 363.69,-78.33"/>
<text text-anchor="middle" x="306.36" y="-66.8" font-family="Times,serif" font-size="14.00">4.5.20</text>
</g>
<!-- 30&#45;&gt;6 -->
<g id="edge14" class="edge">
<title>30&#45;&gt;6</title>
<path fill="none" stroke="blue" d="M328.23,-87.27C351.85,-104.3 389.6,-131.52 415.61,-150.27"/>
<polygon fill="blue" stroke="blue" points="413.79,-153.27 423.94,-156.28 417.88,-147.59 413.79,-153.27"/>
</g>
<!-- 30&#45;&gt;7 -->
<g id="edge25" class="edge">
<title>30&#45;&gt;7</title>
<path fill="none" stroke="red" stroke-width="2" d="M325.69,-88.01C338.26,-97.99 355.41,-110.24 372.36,-118 483.89,-169.07 567.41,-118.42 626.36,-226 658.61,-284.86 665.43,-321.73 627.36,-377 597.86,-419.83 536.55,-434.89 495.42,-440.17"/>
<polygon fill="red" stroke="red" stroke-width="2" points="494.96,-436.69 485.43,-441.31 495.76,-443.65 494.96,-436.69"/>
</g>
<!-- 30&#45;&gt;8 -->
<g id="edge26" class="edge">
<title>30&#45;&gt;8</title>
<path fill="none" stroke="blue" d="M274.67,-84.92C231.62,-103.14 154.8,-135.67 108.92,-155.1"/>
<polygon fill="blue" stroke="blue" points="107.46,-151.91 99.62,-159.04 110.19,-158.36 107.46,-151.91"/>
</g>
<!-- 30&#45;&gt;10 -->
<g id="edge33" class="edge">
<title>30&#45;&gt;10</title>
<path fill="none" stroke="blue" d="M252.85,-79.33C178.52,-91.42 50.03,-117.15 22.36,-154 -11,-198.43 -3.26,-229.71 22.36,-279 34.08,-301.55 57.44,-318.01 77.93,-328.85"/>
<polygon fill="blue" stroke="blue" points="76.59,-332.09 87.1,-333.44 79.72,-325.83 76.59,-332.09"/>
</g>
<!-- 30&#45;&gt;15 -->
<g id="edge32" class="edge">
<title>30&#45;&gt;15</title>
<path fill="none" stroke="blue" d="M289.11,-88.83C272.83,-105.2 248.29,-129.86 230.34,-147.9"/>
<polygon fill="blue" stroke="blue" points="227.67,-145.62 223.1,-155.18 232.63,-150.56 227.67,-145.62"/>
</g>
<!-- 30&#45;&gt;17 -->
<g id="edge13" class="edge">
<title>30&#45;&gt;17</title>
<path fill="none" stroke="blue" d="M326.09,-87.98C338.68,-97.82 355.71,-109.93 372.36,-118 422.84,-142.48 454.45,-113.58 493.36,-154 511.29,-172.63 516.85,-202.31 518.34,-224.03"/>
<polygon fill="blue" stroke="blue" points="514.85,-224.43 518.79,-234.27 521.85,-224.12 514.85,-224.43"/>
</g>
<!-- 30&#45;&gt;22 -->
<g id="edge5" class="edge">
<title>30&#45;&gt;22</title>
<path fill="none" stroke="red" stroke-width="2" d="M264.14,-82.2C228.94,-93.59 181.01,-115.45 158.36,-154 147.51,-172.47 149.52,-196.39 154.36,-215.91"/>
<polygon fill="red" stroke="red" stroke-width="2" points="151.03,-216.98 157.1,-225.67 157.77,-215.09 151.03,-216.98"/>
</g>
<!-- 30&#45;&gt;28 -->
<g id="edge20" class="edge">
<title>30&#45;&gt;28</title>
<path fill="none" stroke="blue" d="M306.36,-93.09C306.36,-107.86 306.36,-127.56 306.36,-143.46"/>
<polygon fill="blue" stroke="blue" points="302.86,-143.75 306.36,-153.75 309.86,-143.75 302.86,-143.75"/>
</g>
<!-- 30&#45;&gt;35 -->
<g id="edge18" class="edge">
<title>30&#45;&gt;35</title>
<path fill="none" stroke="red" stroke-width="2" d="M320.73,-89.19C332.64,-105.08 348.65,-129.58 355.36,-154 369.53,-205.6 352.33,-266.55 337.19,-305.48"/>
<polygon fill="red" stroke="red" stroke-width="2" points="333.89,-304.3 333.41,-314.88 340.39,-306.91 333.89,-304.3"/>
</g>
<!-- 35&#45;&gt;7 -->
<g id="edge21" class="edge">
<title>35&#45;&gt;7</title>
<path fill="none" stroke="blue" stroke-dasharray="5,2" d="M350.67,-369.27C369.84,-382.9 394.53,-400.46 415.02,-415.02"/>
<polygon fill="blue" stroke="blue" points="413.04,-417.91 423.22,-420.86 417.1,-412.21 413.04,-417.91"/>
</g>
<!-- 35&#45;&gt;9 -->
<g id="edge15" class="edge">
<title>35&#45;&gt;9</title>
<path fill="none" stroke="blue" stroke-dasharray="5,2" d="M288.31,-369.75C270.17,-383.04 247.11,-399.95 227.7,-414.17"/>
<polygon fill="blue" stroke="blue" points="225.63,-411.35 219.63,-420.08 229.77,-416.99 225.63,-411.35"/>
</g>
<!-- Key -->
<g id="node12" class="node">
<title>Key</title>
<text text-anchor="start" x="452.36" y="-83.3" font-family="Times,serif" font-weight="bold" font-size="14.00">Key</text>
<text text-anchor="start" x="405.36" y="-66.3" font-family="Times,serif" font-size="14.00">Direct Path</text>
<text text-anchor="start" x="504.36" y="-66.3" font-family="Times,serif" font-size="14.00" fill="red">⟶</text>
<text text-anchor="start" x="405.36" y="-50.3" font-family="Times,serif" font-size="14.00">Indirect Path</text>
<text text-anchor="start" x="500.36" y="-50.3" font-family="Times,serif" font-size="14.00" fill="blue">→ ⤏</text>
<polygon fill="none" stroke="black" stroke-dasharray="1,5" points="403.36,-45 403.36,-96 531.36,-96 531.36,-45 403.36,-45"/>
</g>
</g>
</svg>
