<?xml version="1.0" encoding="UTF-8" standalone="no"?>
<!DOCTYPE svg PUBLIC "-//W3C//DTD SVG 1.1//EN"
 "http://www.w3.org/Graphics/SVG/1.1/DTD/svg11.dtd">
<!-- Generated by graphviz version 2.40.1 (0)
 -->
<!-- Title: fast Pages: 1 -->
<svg width="1031pt" height="741pt"
 viewBox="0.00 0.00 1031.30 741.00" xmlns="http://www.w3.org/2000/svg" xmlns:xlink="http://www.w3.org/1999/xlink">
<g id="graph0" class="graph" transform="scale(1 1) rotate(0) translate(4 737)">
<title>fast</title>
<polygon fill="#ffffff" stroke="transparent" points="-4,4 -4,-737 1027.2964,-737 1027.2964,4 -4,4"/>
<text text-anchor="middle" x="511.6482" y="-7.8" font-family="Times,serif" font-size="14.00" fill="#000000">fast&#45;4.4_amd64 (2020&#45;07&#45;08)</text>
<!-- 0 -->
<g id="node1" class="node">
<title>0</title>
<ellipse fill="#d3d3d3" stroke="#d3d3d3" cx="40.2964" cy="-172" rx="40.0939" ry="18"/>
<text text-anchor="middle" x="40.2964" y="-168.3" font-family="Times,serif" font-size="14.00" fill="#000000">4.3.28</text>
</g>
<!-- 3 -->
<g id="node4" class="node">
<title>3</title>
<polygon fill="#9acd32" stroke="#9acd32" points="255.2964,-733 193.2964,-733 193.2964,-671 255.2964,-671 255.2964,-733"/>
<text text-anchor="middle" x="224.2964" y="-698.3" font-family="Times,serif" font-size="14.00" fill="#000000">4.4.11</text>
</g>
<!-- 0&#45;&gt;3 -->
<g id="edge11" class="edge">
<title>0&#45;&gt;3</title>
<path fill="none" stroke="#0000ff" stroke-dasharray="5,2" d="M34.7542,-190.1113C25.8375,-220.9015 9.2964,-285.5586 9.2964,-341.5 9.2964,-341.5 9.2964,-341.5 9.2964,-519.5 9.2964,-609.8925 121.1192,-664.8251 183.4752,-688.4304"/>
<polygon fill="#0000ff" stroke="#0000ff" points="182.4401,-691.7789 193.0336,-691.9505 184.8593,-685.2102 182.4401,-691.7789"/>
</g>
<!-- 1 -->
<g id="node2" class="node">
<title>1</title>
<polygon fill="#9acd32" stroke="#9acd32" points="766.7964,-368 713.7964,-368 713.7964,-315 766.7964,-315 766.7964,-368"/>
<text text-anchor="middle" x="740.2964" y="-337.8" font-family="Times,serif" font-size="14.00" fill="#000000">4.4.5</text>
</g>
<!-- 1&#45;&gt;3 -->
<g id="edge38" class="edge">
<title>1&#45;&gt;3</title>
<path fill="none" stroke="#0000ff" stroke-dasharray="5,2" d="M740.6729,-368.2061C740.3267,-391.9834 738.1211,-427.472 729.2964,-457 716.4876,-499.8593 715.371,-515.8826 682.2964,-546 651.3558,-574.1742 628.0821,-555.9959 595.2964,-582 572.5877,-600.0115 581.6411,-619.2699 557.2964,-635 509.3603,-665.9734 343.5446,-688.4116 265.5088,-697.5146"/>
<polygon fill="#0000ff" stroke="#0000ff" points="265.0822,-694.0405 255.5473,-698.6597 265.8816,-700.9947 265.0822,-694.0405"/>
</g>
<!-- 9 -->
<g id="node8" class="node">
<title>9</title>
<polygon fill="#9acd32" stroke="#9acd32" points="492.7964,-546 439.7964,-546 439.7964,-493 492.7964,-493 492.7964,-546"/>
<text text-anchor="middle" x="466.2964" y="-515.8" font-family="Times,serif" font-size="14.00" fill="#000000">4.4.8</text>
</g>
<!-- 1&#45;&gt;9 -->
<g id="edge57" class="edge">
<title>1&#45;&gt;9</title>
<path fill="none" stroke="#0000ff" stroke-dasharray="5,2" d="M713.5253,-358.8915C663.8029,-391.1929 557.2132,-460.4373 501.6407,-496.5391"/>
<polygon fill="#0000ff" stroke="#0000ff" points="499.6554,-493.6551 493.1762,-502.0379 503.4688,-499.5252 499.6554,-493.6551"/>
</g>
<!-- 13 -->
<g id="node11" class="node">
<title>13</title>
<polygon fill="#9acd32" stroke="#9acd32" points="492.7964,-457 439.7964,-457 439.7964,-404 492.7964,-404 492.7964,-457"/>
<text text-anchor="middle" x="466.2964" y="-426.8" font-family="Times,serif" font-size="14.00" fill="#000000">4.4.6</text>
</g>
<!-- 1&#45;&gt;13 -->
<g id="edge54" class="edge">
<title>1&#45;&gt;13</title>
<path fill="none" stroke="#0000ff" stroke-dasharray="5,2" d="M713.652,-350.6054C698.3593,-355.7894 678.7801,-362.3554 661.2964,-368 609.926,-384.5848 596.6668,-387.4152 545.2964,-404 531.3641,-408.498 516.1011,-413.5811 502.7369,-418.0838"/>
<polygon fill="#0000ff" stroke="#0000ff" points="501.2938,-414.877 492.9409,-421.3946 503.5351,-421.5085 501.2938,-414.877"/>
</g>
<!-- 16 -->
<g id="node14" class="node">
<title>16</title>
<polygon fill="#9acd32" stroke="#9acd32" points="547.7964,-635 494.7964,-635 494.7964,-582 547.7964,-582 547.7964,-635"/>
<text text-anchor="middle" x="521.2964" y="-604.8" font-family="Times,serif" font-size="14.00" fill="#000000">4.4.9</text>
</g>
<!-- 1&#45;&gt;16 -->
<g id="edge55" class="edge">
<title>1&#45;&gt;16</title>
<path fill="none" stroke="#0000ff" stroke-dasharray="5,2" d="M735.1421,-368.0422C725.5184,-410.9233 700.9351,-495.7038 649.2964,-546 619.3195,-575.1976 599.3544,-562.5624 562.2964,-582 560.5514,-582.9153 558.7851,-583.883 557.0159,-584.8859"/>
<polygon fill="#0000ff" stroke="#0000ff" points="555.0326,-581.9932 548.2295,-590.1153 558.6128,-588.0084 555.0326,-581.9932"/>
</g>
<!-- 17 -->
<g id="node15" class="node">
<title>17</title>
<polygon fill="#9acd32" stroke="#9acd32" points="675.2964,-733 613.2964,-733 613.2964,-671 675.2964,-671 675.2964,-733"/>
<text text-anchor="middle" x="644.2964" y="-698.3" font-family="Times,serif" font-size="14.00" fill="#000000">4.4.10</text>
</g>
<!-- 1&#45;&gt;17 -->
<g id="edge28" class="edge">
<title>1&#45;&gt;17</title>
<path fill="none" stroke="#0000ff" stroke-dasharray="5,2" d="M758.0428,-368.2833C791.8919,-423.0579 857.5152,-549.8846 801.2964,-635 775.7673,-673.6512 722.8846,-690.0811 685.5675,-697.0161"/>
<polygon fill="#0000ff" stroke="#0000ff" points="684.7617,-693.6029 675.4907,-698.7309 685.9361,-700.5037 684.7617,-693.6029"/>
</g>
<!-- 2 -->
<g id="node3" class="node">
<title>2</title>
<ellipse fill="#d3d3d3" stroke="#d3d3d3" cx="644.2964" cy="-608.5" rx="40.0939" ry="18"/>
<text text-anchor="middle" x="644.2964" y="-604.8" font-family="Times,serif" font-size="14.00" fill="#000000">4.3.27</text>
</g>
<!-- 2&#45;&gt;3 -->
<g id="edge26" class="edge">
<title>2&#45;&gt;3</title>
<path fill="none" stroke="#0000ff" stroke-dasharray="5,2" d="M619.0846,-622.6592C610.2068,-627.1591 600.0155,-631.7939 590.2964,-635 475.9293,-672.7268 334.0332,-691.0376 265.3565,-698.2037"/>
<polygon fill="#0000ff" stroke="#0000ff" points="264.9665,-694.7252 255.3725,-699.2203 265.6757,-701.6892 264.9665,-694.7252"/>
</g>
<!-- 2&#45;&gt;17 -->
<g id="edge41" class="edge">
<title>2&#45;&gt;17</title>
<path fill="none" stroke="#0000ff" stroke-dasharray="5,2" d="M644.2964,-626.5277C644.2964,-636.214 644.2964,-648.5861 644.2964,-660.498"/>
<polygon fill="#0000ff" stroke="#0000ff" points="640.7965,-660.7683 644.2964,-670.7684 647.7965,-660.7684 640.7965,-660.7683"/>
</g>
<!-- 5 -->
<g id="node5" class="node">
<title>5</title>
<ellipse fill="#d3d3d3" stroke="#d3d3d3" cx="803.2964" cy="-252.5" rx="40.0939" ry="18"/>
<text text-anchor="middle" x="803.2964" y="-248.8" font-family="Times,serif" font-size="14.00" fill="#000000">4.3.22</text>
</g>
<!-- 5&#45;&gt;1 -->
<g id="edge14" class="edge">
<title>5&#45;&gt;1</title>
<path fill="none" stroke="#0000ff" stroke-dasharray="5,2" d="M790.8497,-270.0835C783.5074,-280.4559 773.9529,-293.9535 765.1298,-306.4179"/>
<polygon fill="#0000ff" stroke="#0000ff" points="762.0954,-304.6467 759.1745,-314.831 767.8089,-308.6911 762.0954,-304.6467"/>
</g>
<!-- 5&#45;&gt;9 -->
<g id="edge10" class="edge">
<title>5&#45;&gt;9</title>
<path fill="none" stroke="#0000ff" stroke-dasharray="5,2" d="M803.4184,-270.8039C802.6777,-295.308 798.0878,-339.0397 776.2964,-368 707.5789,-459.3243 569.1002,-498.674 503.0134,-512.7948"/>
<polygon fill="#0000ff" stroke="#0000ff" points="502.1377,-509.4016 493.0502,-514.8486 503.551,-516.2575 502.1377,-509.4016"/>
</g>
<!-- 5&#45;&gt;13 -->
<g id="edge47" class="edge">
<title>5&#45;&gt;13</title>
<path fill="none" stroke="#0000ff" stroke-dasharray="5,2" d="M777.133,-266.3192C717.3143,-297.9149 570.4687,-375.4773 502.2323,-411.519"/>
<polygon fill="#0000ff" stroke="#0000ff" points="500.3505,-408.5547 493.1428,-416.32 503.6198,-414.7443 500.3505,-408.5547"/>
</g>
<!-- 5&#45;&gt;16 -->
<g id="edge32" class="edge">
<title>5&#45;&gt;16</title>
<path fill="none" stroke="#0000ff" stroke-dasharray="5,2" d="M805.8482,-270.6146C808.4384,-293.7947 810.7399,-334.907 800.2964,-368 771.7317,-458.5154 756.2289,-486.4771 682.2964,-546 677.1696,-550.1276 603.3122,-578.0039 557.4343,-595.1035"/>
<polygon fill="#0000ff" stroke="#0000ff" points="555.9766,-591.9115 547.8255,-598.6799 558.4183,-598.4718 555.9766,-591.9115"/>
</g>
<!-- 5&#45;&gt;17 -->
<g id="edge5" class="edge">
<title>5&#45;&gt;17</title>
<path fill="none" stroke="#0000ff" stroke-dasharray="5,2" d="M827.3988,-267.045C868.3921,-293.8321 947.2964,-355.1757 947.2964,-430.5 947.2964,-430.5 947.2964,-430.5 947.2964,-519.5 947.2964,-640.3725 768.1731,-683.2615 685.3727,-696.6302"/>
<polygon fill="#0000ff" stroke="#0000ff" points="684.6468,-693.2007 675.2988,-698.1873 685.7161,-700.1186 684.6468,-693.2007"/>
</g>
<!-- 6 -->
<g id="node6" class="node">
<title>6</title>
<ellipse fill="#d3d3d3" stroke="#d3d3d3" cx="229.2964" cy="-519.5" rx="40.0939" ry="18"/>
<text text-anchor="middle" x="229.2964" y="-515.8" font-family="Times,serif" font-size="14.00" fill="#000000">4.3.26</text>
</g>
<!-- 6&#45;&gt;3 -->
<g id="edge2" class="edge">
<title>6&#45;&gt;3</title>
<path fill="none" stroke="#0000ff" stroke-dasharray="5,2" d="M228.7987,-537.666C228.0198,-566.0977 226.4924,-621.8476 225.434,-660.4781"/>
<polygon fill="#0000ff" stroke="#0000ff" points="221.9242,-660.7909 225.1489,-670.883 228.9216,-660.9827 221.9242,-660.7909"/>
</g>
<!-- 6&#45;&gt;16 -->
<g id="edge36" class="edge">
<title>6&#45;&gt;16</title>
<path fill="none" stroke="#0000ff" stroke-dasharray="5,2" d="M255.2008,-533.515C263.959,-537.8998 273.9015,-542.5011 283.2964,-546 352.7104,-571.8514 437.2737,-591.3552 484.6234,-601.2511"/>
<polygon fill="#0000ff" stroke="#0000ff" points="484.2046,-604.7383 494.7054,-603.3301 485.6184,-597.8825 484.2046,-604.7383"/>
</g>
<!-- 6&#45;&gt;17 -->
<g id="edge3" class="edge">
<title>6&#45;&gt;17</title>
<path fill="none" stroke="#0000ff" stroke-dasharray="5,2" d="M246.8088,-535.8153C274.5212,-560.7742 331.122,-608.339 387.2964,-635 459.1527,-669.1038 550.8608,-687.6684 603.0414,-696.1506"/>
<polygon fill="#0000ff" stroke="#0000ff" points="602.509,-699.6098 612.9329,-697.7142 603.602,-692.6957 602.509,-699.6098"/>
</g>
<!-- 8 -->
<g id="node7" class="node">
<title>8</title>
<polygon fill="#9acd32" stroke="#9acd32" points="502.7964,-279 449.7964,-279 449.7964,-226 502.7964,-226 502.7964,-279"/>
<text text-anchor="middle" x="476.2964" y="-248.8" font-family="Times,serif" font-size="14.00" fill="#000000">4.4.4</text>
</g>
<!-- 8&#45;&gt;1 -->
<g id="edge4" class="edge">
<title>8&#45;&gt;1</title>
<path fill="none" stroke="#0000ff" stroke-dasharray="5,2" d="M503.063,-261.5236C550.6977,-277.5822 650.2158,-311.1319 703.9761,-329.2557"/>
<polygon fill="#0000ff" stroke="#0000ff" points="702.8649,-332.5745 713.459,-332.4525 705.1011,-325.9413 702.8649,-332.5745"/>
</g>
<!-- 8&#45;&gt;3 -->
<g id="edge7" class="edge">
<title>8&#45;&gt;3</title>
<path fill="none" stroke="#0000ff" stroke-dasharray="5,2" d="M449.5038,-256.3554C402.7606,-263.6964 303.8918,-281.9715 226.2964,-315 157.7639,-344.1709 120.362,-338.8315 84.2964,-404 33.8801,-495.0993 58.2326,-553.713 123.2964,-635 139.5612,-655.3203 163.6885,-671.646 184.2828,-683.0933"/>
<polygon fill="#0000ff" stroke="#0000ff" points="182.6896,-686.2104 193.1565,-687.8519 185.9978,-680.0414 182.6896,-686.2104"/>
</g>
<!-- 8&#45;&gt;9 -->
<g id="edge50" class="edge">
<title>8&#45;&gt;9</title>
<path fill="none" stroke="#0000ff" stroke-dasharray="5,2" d="M462.0669,-279.1378C442.9911,-318.326 413.375,-393.7203 430.2964,-457 432.767,-466.239 436.9677,-475.5283 441.6462,-484.0154"/>
<polygon fill="#0000ff" stroke="#0000ff" points="438.7662,-486.0226 446.8513,-492.8696 444.8007,-482.4751 438.7662,-486.0226"/>
</g>
<!-- 8&#45;&gt;13 -->
<g id="edge45" class="edge">
<title>8&#45;&gt;13</title>
<path fill="none" stroke="#0000ff" stroke-dasharray="5,2" d="M474.7993,-279.1484C473.0859,-309.647 470.2696,-359.7768 468.3516,-393.9178"/>
<polygon fill="#0000ff" stroke="#0000ff" points="464.8539,-393.7799 467.7874,-403.9605 471.8429,-394.1726 464.8539,-393.7799"/>
</g>
<!-- 8&#45;&gt;16 -->
<g id="edge49" class="edge">
<title>8&#45;&gt;16</title>
<path fill="none" stroke="#0000ff" stroke-dasharray="5,2" d="M483.148,-279.3111C494.0457,-323.4843 514.8561,-414.4951 522.2964,-493 524.5189,-516.4505 522.4849,-522.4452 522.2964,-546 522.2305,-554.2405 522.1157,-563.0916 521.9868,-571.466"/>
<polygon fill="#0000ff" stroke="#0000ff" points="518.4829,-571.6807 521.8187,-581.7367 525.482,-571.7954 518.4829,-571.6807"/>
</g>
<!-- 8&#45;&gt;17 -->
<g id="edge25" class="edge">
<title>8&#45;&gt;17</title>
<path fill="none" stroke="#0000ff" stroke-dasharray="5,2" d="M502.9264,-277.4486C555.2309,-328.5375 669.8083,-451.311 710.2964,-582 717.2672,-604.5005 719.2289,-613.2038 710.2964,-635 704.4608,-649.2395 693.9762,-662.0756 683.0567,-672.6115"/>
<polygon fill="#0000ff" stroke="#0000ff" points="680.5062,-670.2007 675.4794,-679.5271 685.2251,-675.3711 680.5062,-670.2007"/>
</g>
<!-- 9&#45;&gt;3 -->
<g id="edge19" class="edge">
<title>9&#45;&gt;3</title>
<path fill="none" stroke="#0000ff" stroke-dasharray="5,2" d="M439.4736,-539.728C396.7797,-571.9248 313.1484,-634.9939 263.6601,-672.3145"/>
<polygon fill="#0000ff" stroke="#0000ff" points="261.3054,-669.7066 255.4286,-678.5222 265.5202,-675.2955 261.3054,-669.7066"/>
</g>
<!-- 9&#45;&gt;16 -->
<g id="edge22" class="edge">
<title>9&#45;&gt;16</title>
<path fill="none" stroke="#0000ff" stroke-dasharray="5,2" d="M482.7982,-546.2029C488.0191,-554.6513 493.8732,-564.1243 499.4102,-573.0841"/>
<polygon fill="#0000ff" stroke="#0000ff" points="496.5719,-575.1491 504.8063,-581.8159 502.5266,-571.4692 496.5719,-575.1491"/>
</g>
<!-- 9&#45;&gt;17 -->
<g id="edge17" class="edge">
<title>9&#45;&gt;17</title>
<path fill="none" stroke="#0000ff" stroke-dasharray="5,2" d="M464.0603,-546.2442C463.3793,-571.7169 466.3144,-609.8091 486.2964,-635 514.9841,-671.166 566.8197,-688.0966 603.2768,-695.8279"/>
<polygon fill="#0000ff" stroke="#0000ff" points="602.6309,-699.2679 613.1198,-697.773 603.988,-692.4007 602.6309,-699.2679"/>
</g>
<!-- 10 -->
<g id="node9" class="node">
<title>10</title>
<ellipse fill="#d3d3d3" stroke="#d3d3d3" cx="571.2964" cy="-172" rx="40.0939" ry="18"/>
<text text-anchor="middle" x="571.2964" y="-168.3" font-family="Times,serif" font-size="14.00" fill="#000000">4.3.21</text>
</g>
<!-- 10&#45;&gt;1 -->
<g id="edge18" class="edge">
<title>10&#45;&gt;1</title>
<path fill="none" stroke="#0000ff" stroke-dasharray="5,2" d="M603.1608,-183.4287C624.8786,-192.4308 653.2248,-206.6914 673.2964,-226 696.5992,-248.4169 714.399,-280.6945 725.7745,-305.4324"/>
<polygon fill="#0000ff" stroke="#0000ff" points="722.6995,-307.1312 729.9628,-314.8445 729.0949,-304.2852 722.6995,-307.1312"/>
</g>
<!-- 10&#45;&gt;8 -->
<g id="edge56" class="edge">
<title>10&#45;&gt;8</title>
<path fill="none" stroke="#0000ff" stroke-dasharray="5,2" d="M552.0718,-188.2904C540.288,-198.2756 524.8539,-211.3539 510.9921,-223.1"/>
<polygon fill="#0000ff" stroke="#0000ff" points="508.4182,-220.6934 503.0516,-229.8285 512.9436,-226.0339 508.4182,-220.6934"/>
</g>
<!-- 10&#45;&gt;9 -->
<g id="edge24" class="edge">
<title>10&#45;&gt;9</title>
<path fill="none" stroke="#0000ff" stroke-dasharray="5,2" d="M568.9905,-189.973C562.6671,-235.9151 542.7654,-360.8032 502.2964,-457 498.4764,-466.0805 493.6043,-475.4824 488.6877,-484.1507"/>
<polygon fill="#0000ff" stroke="#0000ff" points="485.6136,-482.4743 483.5901,-492.8741 491.6573,-486.006 485.6136,-482.4743"/>
</g>
<!-- 10&#45;&gt;13 -->
<g id="edge40" class="edge">
<title>10&#45;&gt;13</title>
<path fill="none" stroke="#0000ff" stroke-dasharray="5,2" d="M564.0793,-189.7678C546.9893,-231.8419 503.7738,-338.2344 480.945,-394.4366"/>
<polygon fill="#0000ff" stroke="#0000ff" points="477.5842,-393.4104 477.0635,-403.9924 484.0696,-396.0448 477.5842,-393.4104"/>
</g>
<!-- 10&#45;&gt;16 -->
<g id="edge15" class="edge">
<title>10&#45;&gt;16</title>
<path fill="none" stroke="#0000ff" stroke-dasharray="5,2" d="M572.3105,-190.1995C573.3025,-211.5104 574.3863,-247.8604 572.2964,-279 564.2784,-398.4717 558.2969,-428.298 536.2964,-546 534.7222,-554.422 532.743,-563.4143 530.7432,-571.8772"/>
<polygon fill="#0000ff" stroke="#0000ff" points="527.2769,-571.3202 528.3197,-581.8636 534.0794,-572.9711 527.2769,-571.3202"/>
</g>
<!-- 10&#45;&gt;17 -->
<g id="edge23" class="edge">
<title>10&#45;&gt;17</title>
<path fill="none" stroke="#0000ff" stroke-dasharray="5,2" d="M610.7255,-176.1421C678.1486,-183.7838 812.2034,-201.5788 852.2964,-226 931.1281,-274.0174 940.2144,-313.6896 959.2964,-404 980.9373,-506.4211 995.9855,-570.8055 913.2964,-635 877.9321,-662.4547 751.8947,-685.3909 685.6547,-695.8757"/>
<polygon fill="#0000ff" stroke="#0000ff" points="684.9011,-692.4509 675.5601,-697.4504 685.9801,-699.3672 684.9011,-692.4509"/>
</g>
<!-- 12 -->
<g id="node10" class="node">
<title>12</title>
<polygon fill="#fa8072" stroke="#fa8072" points="488.0325,-76.0934 438.2964,-88.6005 388.5604,-76.0934 407.5579,-55.8564 469.035,-55.8564 488.0325,-76.0934"/>
<polygon fill="none" stroke="#fa8072" points="495.6278,-78.3292 438.2964,-92.7463 380.965,-78.3292 405.8374,-51.8341 470.7555,-51.8341 495.6278,-78.3292"/>
<text text-anchor="middle" x="438.2964" y="-66.8" font-family="Times,serif" font-size="14.00" fill="#000000">4.3.19</text>
</g>
<!-- 12&#45;&gt;0 -->
<g id="edge51" class="edge">
<title>12&#45;&gt;0</title>
<path fill="none" stroke="#0000ff" d="M394.1828,-81.7501C317.8672,-101.2125 162.0178,-140.958 85.1746,-160.5549"/>
<polygon fill="#0000ff" stroke="#0000ff" points="84.1413,-157.2063 75.3164,-163.069 85.8712,-163.9892 84.1413,-157.2063"/>
</g>
<!-- 12&#45;&gt;1 -->
<g id="edge20" class="edge">
<title>12&#45;&gt;1</title>
<path fill="none" stroke="#ff0000" stroke-width="2" d="M458.5859,-87.7439C471.108,-97.6924 487.871,-109.8135 504.2964,-118 552.6095,-142.0795 572.8968,-128.1688 620.2964,-154 664.0677,-177.8539 678.9766,-184.3039 706.2964,-226 721.8638,-249.7593 730.4844,-280.8394 735.1468,-304.7735"/>
<polygon fill="#ff0000" stroke="#ff0000" stroke-width="2" points="731.7502,-305.6607 736.9663,-314.8826 738.6395,-304.4207 731.7502,-305.6607"/>
</g>
<!-- 12&#45;&gt;2 -->
<g id="edge8" class="edge">
<title>12&#45;&gt;2</title>
<path fill="none" stroke="#0000ff" d="M457.2113,-88.2328C469.6201,-98.76 486.7489,-111.3199 504.2964,-118 726.9919,-202.7776 1023.2964,-14.2134 1023.2964,-252.5 1023.2964,-252.5 1023.2964,-252.5 1023.2964,-341.5 1023.2964,-502.1872 792.797,-574.6316 691.3116,-598.7405"/>
<polygon fill="#0000ff" stroke="#0000ff" points="690.2779,-595.3872 681.3266,-601.055 691.8587,-602.2064 690.2779,-595.3872"/>
</g>
<!-- 12&#45;&gt;5 -->
<g id="edge52" class="edge">
<title>12&#45;&gt;5</title>
<path fill="none" stroke="#0000ff" d="M457.3116,-87.9773C469.7594,-98.4054 486.8938,-110.9509 504.2964,-118 606.3039,-159.319 658.9369,-91.1674 749.2964,-154 773.3173,-170.7032 787.7295,-201.6571 795.5455,-224.4227"/>
<polygon fill="#0000ff" stroke="#0000ff" points="792.3014,-225.7688 798.6833,-234.2258 798.9682,-223.6348 792.3014,-225.7688"/>
</g>
<!-- 12&#45;&gt;6 -->
<g id="edge21" class="edge">
<title>12&#45;&gt;6</title>
<path fill="none" stroke="#0000ff" d="M406.3002,-84.7512C377.4333,-98.9135 335.3212,-122.9809 307.2964,-154 253.5978,-213.4361 244.7966,-237.0645 226.2964,-315 211.6855,-376.5512 218.8648,-451.4793 224.5811,-491.3521"/>
<polygon fill="#0000ff" stroke="#0000ff" points="221.1441,-492.0328 226.0986,-501.3978 228.0656,-490.9872 221.1441,-492.0328"/>
</g>
<!-- 12&#45;&gt;8 -->
<g id="edge30" class="edge">
<title>12&#45;&gt;8</title>
<path fill="none" stroke="#ff0000" stroke-width="2" d="M442.7299,-91.7339C449.0828,-122.1611 460.8658,-178.5952 468.6441,-215.8495"/>
<polygon fill="#ff0000" stroke="#ff0000" stroke-width="2" points="465.254,-216.7374 470.724,-225.811 472.1062,-215.3067 465.254,-216.7374"/>
</g>
<!-- 12&#45;&gt;9 -->
<g id="edge43" class="edge">
<title>12&#45;&gt;9</title>
<path fill="none" stroke="#ff0000" stroke-width="2" d="M432.4304,-91.2898C416.8045,-150.3347 378.2047,-323.4016 421.2964,-457 424.4363,-466.7347 429.718,-476.2325 435.5811,-484.7657"/>
<polygon fill="#ff0000" stroke="#ff0000" stroke-width="2" points="432.8456,-486.9541 441.5802,-492.9505 438.4915,-482.8159 432.8456,-486.9541"/>
</g>
<!-- 12&#45;&gt;10 -->
<g id="edge13" class="edge">
<title>12&#45;&gt;10</title>
<path fill="none" stroke="#0000ff" d="M460.2587,-87.2607C482.6984,-104.3857 517.66,-131.0669 542.3487,-149.9083"/>
<polygon fill="#0000ff" stroke="#0000ff" points="540.5426,-152.9328 550.6155,-156.2172 544.7894,-147.3681 540.5426,-152.9328"/>
</g>
<!-- 12&#45;&gt;13 -->
<g id="edge34" class="edge">
<title>12&#45;&gt;13</title>
<path fill="none" stroke="#ff0000" stroke-width="2" d="M437.3423,-92.7754C435.9669,-130.9749 434.2111,-211.3991 440.2964,-279 443.8493,-318.4679 452.0283,-363.1223 458.2714,-393.6671"/>
<polygon fill="#ff0000" stroke="#ff0000" stroke-width="2" points="454.9263,-394.7726 460.3881,-403.8511 461.7798,-393.3481 454.9263,-394.7726"/>
</g>
<!-- 14 -->
<g id="node12" class="node">
<title>14</title>
<ellipse fill="#d3d3d3" stroke="#d3d3d3" cx="153.2964" cy="-430.5" rx="40.0939" ry="18"/>
<text text-anchor="middle" x="153.2964" y="-426.8" font-family="Times,serif" font-size="14.00" fill="#000000">4.3.25</text>
</g>
<!-- 12&#45;&gt;14 -->
<g id="edge31" class="edge">
<title>12&#45;&gt;14</title>
<path fill="none" stroke="#0000ff" d="M383.1288,-78.8892C308.8304,-91.4398 182.7261,-117.5835 155.2964,-154 99.1309,-228.5672 127.142,-349.4 143.8527,-403.1796"/>
<polygon fill="#0000ff" stroke="#0000ff" points="140.5245,-404.263 146.9172,-412.7118 147.1885,-402.1205 140.5245,-404.263"/>
</g>
<!-- 15 -->
<g id="node13" class="node">
<title>15</title>
<ellipse fill="#d3d3d3" stroke="#d3d3d3" cx="275.2964" cy="-341.5" rx="40.0939" ry="18"/>
<text text-anchor="middle" x="275.2964" y="-337.8" font-family="Times,serif" font-size="14.00" fill="#000000">4.3.23</text>
</g>
<!-- 12&#45;&gt;15 -->
<g id="edge16" class="edge">
<title>12&#45;&gt;15</title>
<path fill="none" stroke="#0000ff" d="M409.5432,-85.543C384.7718,-99.9312 349.8527,-123.8726 329.2964,-154 295.44,-203.6203 282.5773,-274.4634 277.8691,-313.3192"/>
<polygon fill="#0000ff" stroke="#0000ff" points="274.3764,-313.0598 276.7467,-323.386 281.3333,-313.8355 274.3764,-313.0598"/>
</g>
<!-- 12&#45;&gt;16 -->
<g id="edge29" class="edge">
<title>12&#45;&gt;16</title>
<path fill="none" stroke="#ff0000" stroke-width="2" d="M457.2759,-88.0665C469.7098,-98.5292 486.8422,-111.0798 504.2964,-118 665.7867,-182.0275 871.2964,-78.7801 871.2964,-252.5 871.2964,-252.5 871.2964,-252.5 871.2964,-430.5 871.2964,-570.4317 728.6427,-539.5775 595.2964,-582 582.902,-585.9431 569.4791,-590.6235 557.5117,-594.9455"/>
<polygon fill="#ff0000" stroke="#ff0000" stroke-width="2" points="556.0509,-591.7527 547.8558,-598.4676 558.4498,-598.3288 556.0509,-591.7527"/>
</g>
<!-- 13&#45;&gt;3 -->
<g id="edge6" class="edge">
<title>13&#45;&gt;3</title>
<path fill="none" stroke="#0000ff" stroke-dasharray="5,2" d="M439.6333,-454.5602C408.1015,-483.5309 354.6782,-534.2657 313.2964,-582 291.0524,-607.6587 268.2827,-638.4583 251.3429,-662.4296"/>
<polygon fill="#0000ff" stroke="#0000ff" points="248.257,-660.734 245.3774,-670.93 253.9868,-664.7551 248.257,-660.734"/>
</g>
<!-- 13&#45;&gt;9 -->
<g id="edge39" class="edge">
<title>13&#45;&gt;9</title>
<path fill="none" stroke="#0000ff" stroke-dasharray="5,2" d="M466.2964,-457.2029C466.2964,-465.2113 466.2964,-474.1403 466.2964,-482.6802"/>
<polygon fill="#0000ff" stroke="#0000ff" points="462.7965,-482.8159 466.2964,-492.8159 469.7965,-482.8159 462.7965,-482.8159"/>
</g>
<!-- 13&#45;&gt;16 -->
<g id="edge12" class="edge">
<title>13&#45;&gt;16</title>
<path fill="none" stroke="#0000ff" stroke-dasharray="5,2" d="M484.4829,-457.1575C491.0265,-467.8776 497.8768,-480.617 502.2964,-493 511.3596,-518.3937 516.1319,-548.4903 518.6266,-571.5938"/>
<polygon fill="#0000ff" stroke="#0000ff" points="515.1561,-572.0661 519.6198,-581.6748 522.1224,-571.3798 515.1561,-572.0661"/>
</g>
<!-- 13&#45;&gt;17 -->
<g id="edge9" class="edge">
<title>13&#45;&gt;17</title>
<path fill="none" stroke="#0000ff" stroke-dasharray="5,2" d="M492.937,-438.8592C543.0481,-456.2035 650.168,-501.3646 693.2964,-582 704.406,-602.7712 700.6106,-612.6088 693.2964,-635 690.1418,-644.6574 685.0085,-654.077 679.2256,-662.6573"/>
<polygon fill="#0000ff" stroke="#0000ff" points="676.2699,-660.7727 673.2755,-670.9356 681.954,-664.8583 676.2699,-660.7727"/>
</g>
<!-- 14&#45;&gt;3 -->
<g id="edge1" class="edge">
<title>14&#45;&gt;3</title>
<path fill="none" stroke="#0000ff" stroke-dasharray="5,2" d="M149.2474,-448.7823C144.8545,-471.7901 139.4481,-512.3675 147.2964,-546 157.1041,-588.029 179.9535,-631.7428 198.2296,-662.1657"/>
<polygon fill="#0000ff" stroke="#0000ff" points="195.2889,-664.0659 203.4912,-670.7721 201.2613,-660.4146 195.2889,-664.0659"/>
</g>
<!-- 14&#45;&gt;9 -->
<g id="edge58" class="edge">
<title>14&#45;&gt;9</title>
<path fill="none" stroke="#0000ff" stroke-dasharray="5,2" d="M187.3887,-440.194C246.7008,-457.0591 368.3766,-491.657 429.5166,-509.0418"/>
<polygon fill="#0000ff" stroke="#0000ff" points="428.9201,-512.5109 439.4961,-511.8795 430.8346,-505.7778 428.9201,-512.5109"/>
</g>
<!-- 14&#45;&gt;16 -->
<g id="edge35" class="edge">
<title>14&#45;&gt;16</title>
<path fill="none" stroke="#0000ff" stroke-dasharray="5,2" d="M180.6556,-443.7335C246.175,-475.425 412.0696,-555.6675 485.4453,-591.159"/>
<polygon fill="#0000ff" stroke="#0000ff" points="484.2253,-594.4568 494.7516,-595.6604 487.2734,-588.1552 484.2253,-594.4568"/>
</g>
<!-- 14&#45;&gt;17 -->
<g id="edge37" class="edge">
<title>14&#45;&gt;17</title>
<path fill="none" stroke="#0000ff" stroke-dasharray="5,2" d="M153.7176,-448.8489C155.0848,-473.0153 160.394,-515.9572 180.2964,-546 217.3635,-601.9529 240.7918,-608.1323 302.2964,-635 404.6594,-679.7163 537.2536,-694.7823 603.2349,-699.7075"/>
<polygon fill="#0000ff" stroke="#0000ff" points="603.016,-703.2007 613.2377,-700.4139 603.5091,-696.2181 603.016,-703.2007"/>
</g>
<!-- 15&#45;&gt;3 -->
<g id="edge48" class="edge">
<title>15&#45;&gt;3</title>
<path fill="none" stroke="#0000ff" stroke-dasharray="5,2" d="M249.3042,-355.2864C240.5401,-359.656 230.6164,-364.306 221.2964,-368 170.7184,-388.0466 136.6191,-360.2365 104.2964,-404 66.2758,-455.4783 99.206,-539.4374 156.2964,-635 164.0312,-647.9472 174.8594,-660.1557 185.6045,-670.5148"/>
<polygon fill="#0000ff" stroke="#0000ff" points="183.2825,-673.135 192.991,-677.3773 188.0471,-668.0066 183.2825,-673.135"/>
</g>
<!-- 15&#45;&gt;9 -->
<g id="edge27" class="edge">
<title>15&#45;&gt;9</title>
<path fill="none" stroke="#0000ff" stroke-dasharray="5,2" d="M284.7034,-359.0222C298.4786,-383.4133 326.1359,-427.8764 359.2964,-457 384.4018,-479.0491 396.5789,-475.9194 425.2964,-493 427.1904,-494.1265 429.1225,-495.2975 431.0655,-496.4923"/>
<polygon fill="#0000ff" stroke="#0000ff" points="429.2372,-499.477 439.5698,-501.8198 432.9534,-493.5449 429.2372,-499.477"/>
</g>
<!-- 15&#45;&gt;13 -->
<g id="edge46" class="edge">
<title>15&#45;&gt;13</title>
<path fill="none" stroke="#0000ff" stroke-dasharray="5,2" d="M303.4791,-354.6323C337.1048,-370.3008 393.3851,-396.5256 430.1749,-413.6685"/>
<polygon fill="#0000ff" stroke="#0000ff" points="428.9982,-416.9815 439.5407,-418.0327 431.9548,-410.6365 428.9982,-416.9815"/>
</g>
<!-- 15&#45;&gt;16 -->
<g id="edge33" class="edge">
<title>15&#45;&gt;16</title>
<path fill="none" stroke="#0000ff" stroke-dasharray="5,2" d="M276.4999,-359.6909C279.039,-384.4649 286.9151,-428.9354 311.2964,-457 335.8085,-485.2151 357.903,-469.914 387.2964,-493 411.1514,-511.736 408.0093,-525.4237 430.2964,-546 447.2048,-561.6105 468.2709,-576.3265 485.8749,-587.5532"/>
<polygon fill="#0000ff" stroke="#0000ff" points="484.3912,-590.7535 494.7247,-593.0922 488.105,-584.8199 484.3912,-590.7535"/>
</g>
<!-- 15&#45;&gt;17 -->
<g id="edge53" class="edge">
<title>15&#45;&gt;17</title>
<path fill="none" stroke="#0000ff" stroke-dasharray="5,2" d="M272.3361,-359.6526C269.3403,-383.2311 266.9601,-425.1392 281.2964,-457 327.5939,-559.8903 366.9975,-574.6014 462.2964,-635 506.8082,-663.2107 564.9219,-681.9701 603.3677,-692.2902"/>
<polygon fill="#0000ff" stroke="#0000ff" points="602.6194,-695.7121 613.1795,-694.8554 604.39,-688.9397 602.6194,-695.7121"/>
</g>
<!-- 16&#45;&gt;3 -->
<g id="edge44" class="edge">
<title>16&#45;&gt;3</title>
<path fill="none" stroke="#0000ff" stroke-dasharray="5,2" d="M494.6783,-616.8798C442.6175,-633.2693 327.0178,-669.6618 265.1832,-689.1282"/>
<polygon fill="#0000ff" stroke="#0000ff" points="263.8638,-685.8742 255.3763,-692.2156 265.9658,-692.5511 263.8638,-685.8742"/>
</g>
<!-- 16&#45;&gt;17 -->
<g id="edge42" class="edge">
<title>16&#45;&gt;17</title>
<path fill="none" stroke="#0000ff" stroke-dasharray="5,2" d="M547.9856,-628.7881C564.6033,-641.4203 586.277,-657.8958 604.855,-672.0181"/>
<polygon fill="#0000ff" stroke="#0000ff" points="602.7937,-674.8476 612.8728,-678.113 607.0299,-669.2749 602.7937,-674.8476"/>
</g>
<!-- Key -->
<g id="node16" class="node">
<title>Key</title>
<text text-anchor="start" x="584.2964" y="-83.3" font-family="Times,serif" font-weight="bold" font-size="14.00" fill="#000000">Key</text>
<text text-anchor="start" x="537.2964" y="-66.3" font-family="Times,serif" font-size="14.00" fill="#000000">Direct Path</text>
<text text-anchor="start" x="636.2964" y="-66.3" font-family="Times,serif" font-size="14.00" fill="#ff0000">⟶</text>
<text text-anchor="start" x="537.2964" y="-50.3" font-family="Times,serif" font-size="14.00" fill="#000000">Indirect Path</text>
<text text-anchor="start" x="632.2964" y="-50.3" font-family="Times,serif" font-size="14.00" fill="#0000ff">→ ⤏</text>
<polygon fill="none" stroke="#000000" stroke-dasharray="1,5" points="535.2964,-45 535.2964,-96 663.2964,-96 663.2964,-45 535.2964,-45"/>
</g>
</g>
</svg>
