<?xml version="1.0" encoding="UTF-8" standalone="no"?>
<!DOCTYPE svg PUBLIC "-//W3C//DTD SVG 1.1//EN"
 "http://www.w3.org/Graphics/SVG/1.1/DTD/svg11.dtd">
<!-- Generated by graphviz version 2.42.4 (0)
 -->
<!-- Title: fast Pages: 1 -->
<svg width="554pt" height="465pt"
 viewBox="0.00 0.00 554.48 465.00" xmlns="http://www.w3.org/2000/svg" xmlns:xlink="http://www.w3.org/1999/xlink">
<g id="graph0" class="graph" transform="scale(1 1) rotate(0) translate(4 461)">
<title>fast</title>
<polygon fill="white" stroke="transparent" points="-4,4 -4,-461 550.48,-461 550.48,4 -4,4"/>
<text text-anchor="middle" x="273.24" y="-7.8" font-family="Times,serif" font-size="14.00">fast&#45;4.7_amd64 (2021&#45;03&#45;16)</text>
<!-- 0 -->
<g id="node1" class="node">
<title>0</title>
<ellipse fill="lightgrey" stroke="lightgrey" cx="40.3" cy="-172" rx="40.09" ry="18"/>
<text text-anchor="middle" x="40.3" y="-168.3" font-family="Times,serif" font-size="14.00">4.6.17</text>
</g>
<!-- 3 -->
<g id="node3" class="node">
<title>3</title>
<polygon fill="yellowgreen" stroke="yellowgreen" points="139.8,-279 86.8,-279 86.8,-226 139.8,-226 139.8,-279"/>
<text text-anchor="middle" x="113.3" y="-248.8" font-family="Times,serif" font-size="14.00">4.7.0</text>
</g>
<!-- 0&#45;&gt;3 -->
<g id="edge3" class="edge">
<title>0&#45;&gt;3</title>
<path fill="none" stroke="blue" stroke-dasharray="5,2" d="M55.07,-188.89C62.9,-197.31 72.84,-207.99 82.27,-218.14"/>
<polygon fill="blue" stroke="blue" points="79.98,-220.81 89.35,-225.75 85.1,-216.04 79.98,-220.81"/>
</g>
<!-- 5 -->
<g id="node4" class="node">
<title>5</title>
<polygon fill="yellowgreen" stroke="yellowgreen" points="280.8,-368 227.8,-368 227.8,-315 280.8,-315 280.8,-368"/>
<text text-anchor="middle" x="254.3" y="-337.8" font-family="Times,serif" font-size="14.00">4.7.1</text>
</g>
<!-- 0&#45;&gt;5 -->
<g id="edge8" class="edge">
<title>0&#45;&gt;5</title>
<path fill="none" stroke="blue" stroke-dasharray="5,2" d="M41.9,-190.09C44.97,-213.29 53.73,-254.63 78.3,-279 116.16,-316.56 178.2,-331.25 217.6,-336.95"/>
<polygon fill="blue" stroke="blue" points="217.22,-340.43 227.59,-338.27 218.14,-333.49 217.22,-340.43"/>
</g>
<!-- 7 -->
<g id="node6" class="node">
<title>7</title>
<polygon fill="yellowgreen" stroke="yellowgreen" points="318.8,-457 265.8,-457 265.8,-404 318.8,-404 318.8,-457"/>
<text text-anchor="middle" x="292.3" y="-426.8" font-family="Times,serif" font-size="14.00">4.7.2</text>
</g>
<!-- 0&#45;&gt;7 -->
<g id="edge14" class="edge">
<title>0&#45;&gt;7</title>
<path fill="none" stroke="blue" stroke-dasharray="5,2" d="M37.79,-190.23C35.38,-211.81 33.63,-249.54 45.3,-279 64.44,-327.36 78.5,-338.43 121.3,-368 162.76,-396.65 219.05,-413.49 255.53,-422.1"/>
<polygon fill="blue" stroke="blue" points="255.19,-425.62 265.72,-424.42 256.74,-418.79 255.19,-425.62"/>
</g>
<!-- 2 -->
<g id="node2" class="node">
<title>2</title>
<ellipse fill="lightgrey" stroke="lightgrey" cx="176.3" cy="-172" rx="40.09" ry="18"/>
<text text-anchor="middle" x="176.3" y="-168.3" font-family="Times,serif" font-size="14.00">4.6.18</text>
</g>
<!-- 2&#45;&gt;3 -->
<g id="edge4" class="edge">
<title>2&#45;&gt;3</title>
<path fill="none" stroke="blue" stroke-dasharray="5,2" d="M163.24,-189.27C156.53,-197.63 148.09,-208.14 140.08,-218.13"/>
<polygon fill="blue" stroke="blue" points="137.3,-215.99 133.78,-225.98 142.76,-220.37 137.3,-215.99"/>
</g>
<!-- 2&#45;&gt;5 -->
<g id="edge13" class="edge">
<title>2&#45;&gt;5</title>
<path fill="none" stroke="blue" stroke-dasharray="5,2" d="M184.06,-189.67C196.56,-216.52 221.43,-269.92 237.97,-305.43"/>
<polygon fill="blue" stroke="blue" points="235,-307.35 242.39,-314.94 241.34,-304.4 235,-307.35"/>
</g>
<!-- 2&#45;&gt;7 -->
<g id="edge21" class="edge">
<title>2&#45;&gt;7</title>
<path fill="none" stroke="blue" stroke-dasharray="5,2" d="M176.35,-190.06C177.2,-225.8 183.22,-310.01 219.3,-368 228.87,-383.38 243.57,-396.84 257.29,-407.21"/>
<polygon fill="blue" stroke="blue" points="255.49,-410.23 265.64,-413.26 259.59,-404.56 255.49,-410.23"/>
</g>
<!-- 3&#45;&gt;5 -->
<g id="edge5" class="edge">
<title>3&#45;&gt;5</title>
<path fill="none" stroke="blue" stroke-dasharray="5,2" d="M139.82,-269.86C162.13,-283.63 194.22,-303.43 218.75,-318.57"/>
<polygon fill="blue" stroke="blue" points="217.07,-321.64 227.41,-323.91 220.74,-315.68 217.07,-321.64"/>
</g>
<!-- 3&#45;&gt;7 -->
<g id="edge12" class="edge">
<title>3&#45;&gt;7</title>
<path fill="none" stroke="blue" stroke-dasharray="5,2" d="M116.58,-279.28C121.05,-304.69 131.33,-343.23 154.3,-368 181.38,-397.2 224.88,-413.4 255.8,-421.74"/>
<polygon fill="blue" stroke="blue" points="255.2,-425.2 265.76,-424.28 256.93,-418.42 255.2,-425.2"/>
</g>
<!-- 5&#45;&gt;7 -->
<g id="edge15" class="edge">
<title>5&#45;&gt;7</title>
<path fill="none" stroke="blue" stroke-dasharray="5,2" d="M265.49,-368.13C269.09,-376.38 273.15,-385.66 276.99,-394.46"/>
<polygon fill="blue" stroke="blue" points="273.84,-395.99 281.05,-403.75 280.25,-393.19 273.84,-395.99"/>
</g>
<!-- 6 -->
<g id="node5" class="node">
<title>6</title>
<polygon fill="salmon" stroke="salmon" points="328.03,-76.09 278.3,-88.6 228.56,-76.09 247.56,-55.86 309.03,-55.86 328.03,-76.09"/>
<polygon fill="none" stroke="salmon" points="335.63,-78.33 278.3,-92.75 220.97,-78.33 245.84,-51.83 310.76,-51.83 335.63,-78.33"/>
<text text-anchor="middle" x="278.3" y="-66.8" font-family="Times,serif" font-size="14.00">4.6.15</text>
</g>
<!-- 6&#45;&gt;0 -->
<g id="edge9" class="edge">
<title>6&#45;&gt;0</title>
<path fill="none" stroke="blue" d="M246.2,-84.92C202.61,-103.14 124.81,-135.67 78.33,-155.1"/>
<polygon fill="blue" stroke="blue" points="76.79,-151.95 68.92,-159.04 79.49,-158.41 76.79,-151.95"/>
</g>
<!-- 6&#45;&gt;2 -->
<g id="edge18" class="edge">
<title>6&#45;&gt;2</title>
<path fill="none" stroke="blue" d="M260.53,-88.83C243.75,-105.2 218.47,-129.86 199.98,-147.9"/>
<polygon fill="blue" stroke="blue" points="197.23,-145.69 192.51,-155.18 202.12,-150.7 197.23,-145.69"/>
</g>
<!-- 6&#45;&gt;3 -->
<g id="edge1" class="edge">
<title>6&#45;&gt;3</title>
<path fill="none" stroke="red" stroke-width="2" d="M237.29,-82.58C202.2,-94.32 153.36,-116.45 127.3,-154 114.98,-171.74 111.41,-195.71 110.95,-215.44"/>
<polygon fill="red" stroke="red" stroke-width="2" points="107.45,-215.62 110.98,-225.61 114.45,-215.6 107.45,-215.62"/>
</g>
<!-- 6&#45;&gt;5 -->
<g id="edge11" class="edge">
<title>6&#45;&gt;5</title>
<path fill="none" stroke="red" stroke-width="2" d="M273.85,-91.73C270.38,-108.37 265.75,-132.59 263.3,-154 257.34,-206.03 255.32,-266.66 254.63,-304.32"/>
<polygon fill="red" stroke="red" stroke-width="2" points="251.13,-304.72 254.47,-314.77 258.13,-304.83 251.13,-304.72"/>
</g>
<!-- 6&#45;&gt;7 -->
<g id="edge7" class="edge">
<title>6&#45;&gt;7</title>
<path fill="none" stroke="red" stroke-width="2" d="M299.47,-87.6C312.16,-96.95 328.8,-108.68 344.3,-118 428.2,-168.46 487.9,-140.89 536.3,-226 591.14,-322.45 409.16,-392.97 328.66,-418.76"/>
<polygon fill="red" stroke="red" stroke-width="2" points="327.4,-415.49 318.91,-421.82 329.5,-422.16 327.4,-415.49"/>
</g>
<!-- 11 -->
<g id="node7" class="node">
<title>11</title>
<ellipse fill="lightgrey" stroke="lightgrey" cx="388.3" cy="-252.5" rx="40.09" ry="18"/>
<text text-anchor="middle" x="388.3" y="-248.8" font-family="Times,serif" font-size="14.00">4.6.20</text>
</g>
<!-- 6&#45;&gt;11 -->
<g id="edge23" class="edge">
<title>6&#45;&gt;11</title>
<path fill="none" stroke="blue" d="M299.8,-87.49C318.67,-102.62 345.5,-126.99 361.3,-154 374.06,-175.82 381.01,-203.92 384.64,-224.34"/>
<polygon fill="blue" stroke="blue" points="381.19,-224.94 386.25,-234.25 388.1,-223.82 381.19,-224.94"/>
</g>
<!-- 13 -->
<g id="node8" class="node">
<title>13</title>
<ellipse fill="lightgrey" stroke="lightgrey" cx="312.3" cy="-172" rx="40.09" ry="18"/>
<text text-anchor="middle" x="312.3" y="-168.3" font-family="Times,serif" font-size="14.00">4.6.16</text>
</g>
<!-- 6&#45;&gt;13 -->
<g id="edge16" class="edge">
<title>6&#45;&gt;13</title>
<path fill="none" stroke="blue" d="M285.01,-91.16C290.21,-106.35 297.45,-127.55 303.17,-144.28"/>
<polygon fill="blue" stroke="blue" points="299.95,-145.7 306.5,-154.03 306.58,-143.44 299.95,-145.7"/>
</g>
<!-- 14 -->
<g id="node9" class="node">
<title>14</title>
<ellipse fill="lightgrey" stroke="lightgrey" cx="487.3" cy="-252.5" rx="40.09" ry="18"/>
<text text-anchor="middle" x="487.3" y="-248.8" font-family="Times,serif" font-size="14.00">4.6.19</text>
</g>
<!-- 6&#45;&gt;14 -->
<g id="edge22" class="edge">
<title>6&#45;&gt;14</title>
<path fill="none" stroke="blue" d="M299.4,-87.47C320.69,-103.76 354.32,-129.98 382.3,-154 411.08,-178.72 442.84,-208.59 463.81,-228.7"/>
<polygon fill="blue" stroke="blue" points="461.65,-231.49 471.29,-235.9 466.51,-226.44 461.65,-231.49"/>
</g>
<!-- 11&#45;&gt;5 -->
<g id="edge24" class="edge">
<title>11&#45;&gt;5</title>
<path fill="none" stroke="blue" stroke-dasharray="5,2" d="M366.47,-267.67C345.73,-281.14 314.18,-301.62 289.82,-317.44"/>
<polygon fill="blue" stroke="blue" points="287.68,-314.65 281.2,-323.03 291.49,-320.52 287.68,-314.65"/>
</g>
<!-- 11&#45;&gt;7 -->
<g id="edge20" class="edge">
<title>11&#45;&gt;7</title>
<path fill="none" stroke="blue" stroke-dasharray="5,2" d="M381.24,-270.61C371.62,-293.37 353.41,-334.62 334.3,-368 329.09,-377.09 322.98,-386.58 317.05,-395.32"/>
<polygon fill="blue" stroke="blue" points="314.03,-393.54 311.22,-403.75 319.79,-397.51 314.03,-393.54"/>
</g>
<!-- 13&#45;&gt;3 -->
<g id="edge2" class="edge">
<title>13&#45;&gt;3</title>
<path fill="none" stroke="blue" stroke-dasharray="5,2" d="M282.93,-184.58C247.5,-198.56 187.93,-222.06 149.64,-237.17"/>
<polygon fill="blue" stroke="blue" points="147.93,-234.08 139.91,-241 150.5,-240.59 147.93,-234.08"/>
</g>
<!-- 13&#45;&gt;5 -->
<g id="edge19" class="edge">
<title>13&#45;&gt;5</title>
<path fill="none" stroke="blue" stroke-dasharray="5,2" d="M306.42,-189.98C297.1,-216.89 278.74,-269.91 266.49,-305.28"/>
<polygon fill="blue" stroke="blue" points="263.18,-304.16 263.21,-314.76 269.79,-306.45 263.18,-304.16"/>
</g>
<!-- 13&#45;&gt;7 -->
<g id="edge10" class="edge">
<title>13&#45;&gt;7</title>
<path fill="none" stroke="blue" stroke-dasharray="5,2" d="M310.95,-190.23C307.72,-231.7 299.45,-337.78 295.09,-393.72"/>
<polygon fill="blue" stroke="blue" points="291.58,-393.64 294.29,-403.89 298.56,-394.19 291.58,-393.64"/>
</g>
<!-- 14&#45;&gt;5 -->
<g id="edge6" class="edge">
<title>14&#45;&gt;5</title>
<path fill="none" stroke="blue" stroke-dasharray="5,2" d="M462.71,-266.95C454.72,-271.07 445.74,-275.45 437.3,-279 387.59,-299.89 328.09,-318.81 290.73,-329.99"/>
<polygon fill="blue" stroke="blue" points="289.4,-326.73 280.81,-332.93 291.39,-333.45 289.4,-326.73"/>
</g>
<!-- 14&#45;&gt;7 -->
<g id="edge17" class="edge">
<title>14&#45;&gt;7</title>
<path fill="none" stroke="blue" stroke-dasharray="5,2" d="M470.22,-269.11C446.04,-291.2 400.4,-332.8 361.3,-368 349.96,-378.2 337.53,-389.31 326.38,-399.24"/>
<polygon fill="blue" stroke="blue" points="324.03,-396.64 318.89,-405.9 328.69,-401.87 324.03,-396.64"/>
</g>
<!-- Key -->
<g id="node10" class="node">
<title>Key</title>
<text text-anchor="start" x="424.3" y="-83.3" font-family="Times,serif" font-weight="bold" font-size="14.00">Key</text>
<text text-anchor="start" x="377.3" y="-66.3" font-family="Times,serif" font-size="14.00">Direct Path</text>
<text text-anchor="start" x="476.3" y="-66.3" font-family="Times,serif" font-size="14.00" fill="red">⟶</text>
<text text-anchor="start" x="377.3" y="-50.3" font-family="Times,serif" font-size="14.00">Indirect Path</text>
<text text-anchor="start" x="472.3" y="-50.3" font-family="Times,serif" font-size="14.00" fill="blue">→ ⤏</text>
<polygon fill="none" stroke="black" stroke-dasharray="1,5" points="375.3,-45 375.3,-96 503.3,-96 503.3,-45 375.3,-45"/>
</g>
</g>
</svg>
