<?xml version="1.0" encoding="UTF-8" standalone="no"?>
<!DOCTYPE svg PUBLIC "-//W3C//DTD SVG 1.1//EN"
 "http://www.w3.org/Graphics/SVG/1.1/DTD/svg11.dtd">
<!-- Generated by graphviz version 2.40.1 (0)
 -->
<!-- Title: fast Pages: 1 -->
<svg width="1632pt" height="1119pt"
 viewBox="0.00 0.00 1632.37 1119.49" xmlns="http://www.w3.org/2000/svg" xmlns:xlink="http://www.w3.org/1999/xlink">
<g id="graph0" class="graph" transform="scale(1 1) rotate(0) translate(4 1115.4913)">
<title>fast</title>
<polygon fill="#ffffff" stroke="transparent" points="-4,4 -4,-1115.4913 1628.3683,-1115.4913 1628.3683,4 -4,4"/>
<text text-anchor="middle" x="812.1841" y="-1096.2913" font-family="Times,serif" font-size="14.00" fill="#000000">fast&#45;4.3 (2020&#45;05&#45;14) [amd64]</text>
<!-- 0 -->
<g id="node1" class="node">
<title>0</title>
<polygon fill="#d3d3d3" stroke="#d3d3d3" points="1043.8683,-744.9913 990.8683,-744.9913 990.8683,-691.9913 1043.8683,-691.9913 1043.8683,-744.9913"/>
<text text-anchor="middle" x="1017.3683" y="-714.7913" font-family="Times,serif" font-size="14.00" fill="#000000">4.3.9</text>
</g>
<!-- 4 -->
<g id="node5" class="node">
<title>4</title>
<polygon fill="#9acd32" stroke="#9acd32" points="1031.3683,-975.4913 969.3683,-975.4913 969.3683,-913.4913 1031.3683,-913.4913 1031.3683,-975.4913"/>
<text text-anchor="middle" x="1000.3683" y="-940.7913" font-family="Times,serif" font-size="14.00" fill="#000000">4.3.18</text>
</g>
<!-- 0&#45;&gt;4 -->
<g id="edge26" class="edge">
<title>0&#45;&gt;4</title>
<path fill="none" stroke="#000000" d="M1004.4944,-745.1185C997.6197,-760.8276 989.8697,-781.3276 986.3683,-800.4913 978.7793,-842.0259 980.512,-853.6772 986.3683,-895.4913 986.7408,-898.1513 987.2219,-900.8696 987.7805,-903.5948"/>
<polygon fill="#000000" stroke="#000000" points="984.3907,-904.4698 990.0876,-913.4027 991.2048,-902.8669 984.3907,-904.4698"/>
</g>
<!-- 20 -->
<g id="node21" class="node">
<title>20</title>
<polygon fill="#9acd32" stroke="#9acd32" points="1308.3683,-1088.4913 1246.3683,-1088.4913 1246.3683,-1026.4913 1308.3683,-1026.4913 1308.3683,-1088.4913"/>
<text text-anchor="middle" x="1277.3683" y="-1053.7913" font-family="Times,serif" font-size="14.00" fill="#000000">4.3.19</text>
</g>
<!-- 0&#45;&gt;20 -->
<g id="edge40" class="edge">
<title>0&#45;&gt;20</title>
<path fill="none" stroke="#000000" d="M990.487,-732.2069C940.5376,-759.7067 841.1916,-825.0147 872.3683,-895.4913 893.7518,-943.8299 913.8675,-950.3606 960.3683,-975.4913 1051.373,-1024.6735 1173.1737,-1045.3683 1236.006,-1053.2243"/>
<polygon fill="#000000" stroke="#000000" points="1235.955,-1056.7433 1246.3013,-1054.4618 1236.7905,-1049.7933 1235.955,-1056.7433"/>
</g>
<!-- 23 -->
<g id="node24" class="node">
<title>23</title>
<polygon fill="#9acd32" stroke="#9acd32" points="1162.3683,-862.4913 1100.3683,-862.4913 1100.3683,-800.4913 1162.3683,-800.4913 1162.3683,-862.4913"/>
<text text-anchor="middle" x="1131.3683" y="-827.7913" font-family="Times,serif" font-size="14.00" fill="#000000">4.3.13</text>
</g>
<!-- 0&#45;&gt;23 -->
<g id="edge8" class="edge">
<title>0&#45;&gt;23</title>
<path fill="none" stroke="#000000" d="M1044.0149,-733.9348C1057.8594,-742.7171 1074.5208,-754.5349 1087.3683,-767.4913 1094.6312,-774.8158 1101.4826,-783.4779 1107.5197,-792.024"/>
<polygon fill="#000000" stroke="#000000" points="1104.752,-794.1781 1113.2705,-800.4777 1110.5397,-790.2408 1104.752,-794.1781"/>
</g>
<!-- 1 -->
<g id="node2" class="node">
<title>1</title>
<polygon fill="#d3d3d3" stroke="#d3d3d3" points="721.8683,-744.9913 668.8683,-744.9913 668.8683,-691.9913 721.8683,-691.9913 721.8683,-744.9913"/>
<text text-anchor="middle" x="695.3683" y="-714.7913" font-family="Times,serif" font-size="14.00" fill="#000000">4.3.5</text>
</g>
<!-- 1&#45;&gt;4 -->
<g id="edge35" class="edge">
<title>1&#45;&gt;4</title>
<path fill="none" stroke="#000000" d="M722.2642,-743.0193C725.2498,-745.3236 728.3162,-747.5279 731.3683,-749.4913 747.4234,-759.8197 756.8022,-754.0598 770.3683,-767.4913 803.5682,-800.362 785.6219,-826.4653 815.3683,-862.4913 831.1593,-881.616 838.4237,-883.935 860.3683,-895.4913 892.164,-912.2354 930.8952,-925.2847 959.553,-933.692"/>
<polygon fill="#000000" stroke="#000000" points="958.6642,-937.0782 969.2416,-936.4707 960.594,-930.3494 958.6642,-937.0782"/>
</g>
<!-- 1&#45;&gt;20 -->
<g id="edge10" class="edge">
<title>1&#45;&gt;20</title>
<path fill="none" stroke="#000000" d="M673.2592,-745.1707C666.5124,-756.5002 661.9159,-769.9624 666.3683,-782.4913 703.3947,-886.6825 733.5885,-910.9439 823.3683,-975.4913 889.4865,-1023.0272 1137.0036,-1046.7824 1236.0345,-1054.5439"/>
<polygon fill="#000000" stroke="#000000" points="1236.0136,-1058.0525 1246.2524,-1055.329 1236.5499,-1051.0731 1236.0136,-1058.0525"/>
</g>
<!-- 1&#45;&gt;23 -->
<g id="edge90" class="edge">
<title>1&#45;&gt;23</title>
<path fill="none" stroke="#000000" d="M722.1656,-744.2621C725.1249,-746.2646 728.2135,-748.0604 731.3683,-749.4913 802.293,-781.6607 1001.8089,-769.9639 1090.4809,-801.1898"/>
<polygon fill="#000000" stroke="#000000" points="1089.3848,-804.5189 1099.9732,-804.887 1091.9254,-797.9962 1089.3848,-804.5189"/>
</g>
<!-- 2 -->
<g id="node3" class="node">
<title>2</title>
<ellipse fill="#d3d3d3" stroke="#d3d3d3" cx="613.3683" cy="-310" rx="40.0939" ry="18"/>
<text text-anchor="middle" x="613.3683" y="-306.3" font-family="Times,serif" font-size="14.00" fill="#000000">4.2.22</text>
</g>
<!-- 2&#45;&gt;4 -->
<g id="edge5" class="edge">
<title>2&#45;&gt;4</title>
<path fill="none" stroke="#000000" d="M609.0053,-328.1938C593.6196,-397.2112 548.9511,-645.8484 667.3683,-782.4913 681.4754,-798.7697 693.8446,-789.497 712.3683,-800.4913 770.2666,-834.8557 770.2672,-865.1433 830.3683,-895.4913 871.9181,-916.4719 923.8467,-929.7835 959.307,-937.1537"/>
<polygon fill="#000000" stroke="#000000" points="958.8069,-940.6231 969.3008,-939.1642 960.1876,-933.7606 958.8069,-940.6231"/>
</g>
<!-- 7 -->
<g id="node8" class="node">
<title>7</title>
<ellipse fill="#d3d3d3" stroke="#d3d3d3" cx="488.3683" cy="-718.4913" rx="40.0939" ry="18"/>
<text text-anchor="middle" x="488.3683" y="-714.7913" font-family="Times,serif" font-size="14.00" fill="#000000">4.2.29</text>
</g>
<!-- 2&#45;&gt;7 -->
<g id="edge93" class="edge">
<title>2&#45;&gt;7</title>
<path fill="none" stroke="#000000" d="M601.964,-327.2832C589.7126,-345.7201 569.5483,-375.6925 551.3683,-401 539.3365,-417.7488 531.1318,-418.8947 523.3683,-438 488.0966,-524.7994 485.9682,-638.1383 487.1655,-690.1546"/>
<polygon fill="#000000" stroke="#000000" points="483.671,-690.398 487.4608,-700.2919 490.6681,-690.1942 483.671,-690.398"/>
</g>
<!-- 10 -->
<g id="node11" class="node">
<title>10</title>
<ellipse fill="#d3d3d3" stroke="#d3d3d3" cx="803.3683" cy="-545.4913" rx="40.0939" ry="18"/>
<text text-anchor="middle" x="803.3683" y="-541.7913" font-family="Times,serif" font-size="14.00" fill="#000000">4.2.27</text>
</g>
<!-- 2&#45;&gt;10 -->
<g id="edge63" class="edge">
<title>2&#45;&gt;10</title>
<path fill="none" stroke="#000000" d="M631.1561,-326.3967C637.4083,-332.3943 644.3669,-339.3435 650.3683,-346 657.5726,-353.9907 658.7673,-356.5041 665.3683,-365 708.0921,-419.9891 757.5175,-484.9703 784.084,-520.012"/>
<polygon fill="#000000" stroke="#000000" points="781.4985,-522.3952 790.3277,-528.2516 787.0776,-518.1675 781.4985,-522.3952"/>
</g>
<!-- 11 -->
<g id="node12" class="node">
<title>11</title>
<ellipse fill="#d3d3d3" stroke="#d3d3d3" cx="1012.3683" cy="-618.4913" rx="40.0939" ry="18"/>
<text text-anchor="middle" x="1012.3683" y="-614.7913" font-family="Times,serif" font-size="14.00" fill="#000000">4.2.28</text>
</g>
<!-- 2&#45;&gt;11 -->
<g id="edge27" class="edge">
<title>2&#45;&gt;11</title>
<path fill="none" stroke="#000000" d="M619.383,-327.8836C634.4995,-372.7796 673.0438,-486.9268 675.3683,-490.4913 701.4818,-530.5352 711.9201,-541.5007 754.3683,-563.4913 821.0325,-598.0272 908.1161,-610.8857 962.13,-615.6676"/>
<polygon fill="#000000" stroke="#000000" points="961.8927,-619.1598 972.147,-616.4951 962.4692,-612.1836 961.8927,-619.1598"/>
</g>
<!-- 12 -->
<g id="node13" class="node">
<title>12</title>
<polygon fill="#fa8072" stroke="#fa8072" points="266.1943,-469.8605 216.3683,-482.4157 166.5422,-469.8605 185.574,-449.5458 247.1625,-449.5458 266.1943,-469.8605"/>
<polygon fill="none" stroke="#fa8072" points="273.8034,-472.1049 216.3683,-486.5775 158.9331,-472.1049 183.8504,-445.508 248.8861,-445.508 273.8034,-472.1049"/>
<polygon fill="none" stroke="#fa8072" points="281.4125,-474.3494 216.3683,-490.7393 151.324,-474.3494 182.1268,-441.4702 250.6097,-441.4702 281.4125,-474.3494"/>
<text text-anchor="middle" x="216.3683" y="-460.5456" font-family="Times,serif" font-size="14.00" fill="#000000">4.2.26</text>
</g>
<!-- 2&#45;&gt;12 -->
<g id="edge16" class="edge">
<title>2&#45;&gt;12</title>
<path fill="none" stroke="#000000" d="M582.8755,-321.8473C514.8485,-348.2777 350.1223,-412.2784 266.6472,-444.7108"/>
<polygon fill="#000000" stroke="#000000" points="265.1787,-441.5264 257.1251,-448.4105 267.7139,-448.0513 265.1787,-441.5264"/>
</g>
<!-- 15 -->
<g id="node16" class="node">
<title>15</title>
<ellipse fill="#d3d3d3" stroke="#d3d3d3" cx="795.3683" cy="-383" rx="40.0939" ry="18"/>
<text text-anchor="middle" x="795.3683" y="-379.3" font-family="Times,serif" font-size="14.00" fill="#000000">4.2.25</text>
</g>
<!-- 2&#45;&gt;15 -->
<g id="edge33" class="edge">
<title>2&#45;&gt;15</title>
<path fill="none" stroke="#000000" d="M643.4219,-322.0545C674.1138,-334.365 721.9243,-353.5417 755.706,-367.0915"/>
<polygon fill="#000000" stroke="#000000" points="754.6858,-370.4533 765.27,-370.9276 757.2917,-363.9564 754.6858,-370.4533"/>
</g>
<!-- 22 -->
<g id="node23" class="node">
<title>22</title>
<ellipse fill="#d3d3d3" stroke="#d3d3d3" cx="394.3683" cy="-831.4913" rx="40.0939" ry="18"/>
<text text-anchor="middle" x="394.3683" y="-827.7913" font-family="Times,serif" font-size="14.00" fill="#000000">4.2.33</text>
</g>
<!-- 2&#45;&gt;22 -->
<g id="edge83" class="edge">
<title>2&#45;&gt;22</title>
<path fill="none" stroke="#000000" d="M593.1432,-325.6346C580.3817,-336.035 563.986,-350.4209 551.3683,-365 525.9576,-394.3607 519.4119,-402.6397 503.3683,-438 444.4112,-567.9418 410.7786,-736.8217 399.0966,-803.0655"/>
<polygon fill="#000000" stroke="#000000" points="395.608,-802.6995 397.3491,-813.1503 402.5052,-803.8947 395.608,-802.6995"/>
</g>
<!-- 3 -->
<g id="node4" class="node">
<title>3</title>
<ellipse fill="#d3d3d3" stroke="#d3d3d3" cx="1055.3683" cy="-18" rx="40.0939" ry="18"/>
<text text-anchor="middle" x="1055.3683" y="-14.3" font-family="Times,serif" font-size="14.00" fill="#000000">4.2.16</text>
</g>
<!-- 9 -->
<g id="node10" class="node">
<title>9</title>
<ellipse fill="#d3d3d3" stroke="#d3d3d3" cx="961.3683" cy="-91" rx="40.0939" ry="18"/>
<text text-anchor="middle" x="961.3683" y="-87.3" font-family="Times,serif" font-size="14.00" fill="#000000">4.2.18</text>
</g>
<!-- 3&#45;&gt;9 -->
<g id="edge68" class="edge">
<title>3&#45;&gt;9</title>
<path fill="none" stroke="#000000" d="M1034.9717,-33.8399C1021.7915,-44.0756 1004.4494,-57.5433 989.9095,-68.835"/>
<polygon fill="#000000" stroke="#000000" points="987.4763,-66.2931 981.7251,-75.191 991.7699,-71.8217 987.4763,-66.2931"/>
</g>
<!-- 3&#45;&gt;10 -->
<g id="edge46" class="edge">
<title>3&#45;&gt;10</title>
<path fill="none" stroke="#000000" d="M1092.7042,-24.8373C1127.2745,-33.577 1173.3683,-52.4569 1173.3683,-91 1173.3683,-91 1173.3683,-91 1173.3683,-200.5 1173.3683,-307.909 1125.6036,-371.676 957.3683,-490.4913 925.2481,-513.176 882.8036,-527.414 850.6096,-535.7049"/>
<polygon fill="#000000" stroke="#000000" points="849.4124,-532.3954 840.5433,-538.191 851.0908,-539.1912 849.4124,-532.3954"/>
</g>
<!-- 3&#45;&gt;11 -->
<g id="edge84" class="edge">
<title>3&#45;&gt;11</title>
<path fill="none" stroke="#000000" d="M1095.4642,-20.7497C1169.3174,-26.9227 1319.3683,-45.1111 1319.3683,-91 1319.3683,-91 1319.3683,-91 1319.3683,-346.5 1319.3683,-459.6146 1269.3129,-486.5817 1186.3683,-563.4913 1167.686,-580.8142 1103.7978,-598.0798 1058.8804,-608.5224"/>
<polygon fill="#000000" stroke="#000000" points="1058.0107,-605.1309 1049.0424,-610.7718 1059.571,-611.9548 1058.0107,-605.1309"/>
</g>
<!-- 3&#45;&gt;12 -->
<g id="edge14" class="edge">
<title>3&#45;&gt;12</title>
<path fill="none" stroke="#000000" d="M1015.1698,-20.2062C854.6442,-29.4906 260.0599,-68.5374 90.3683,-146 57.43,-161.036 44.2347,-166.9848 29.3683,-200 -8.473,-284.0373 21.5184,-330.0711 80.3683,-401 100.7448,-425.5588 132.779,-441.0982 160.6398,-450.6255"/>
<polygon fill="#000000" stroke="#000000" points="159.7027,-454.0008 170.2946,-453.7496 161.8578,-447.3408 159.7027,-454.0008"/>
</g>
<!-- 3&#45;&gt;15 -->
<g id="edge97" class="edge">
<title>3&#45;&gt;15</title>
<path fill="none" stroke="#000000" d="M1057.2916,-36.0308C1059.8109,-67.6736 1061.2384,-134.3598 1035.3683,-182 1010.1436,-228.4515 884.6921,-320.3567 825.886,-361.8241"/>
<polygon fill="#000000" stroke="#000000" points="823.551,-359.1871 817.3791,-367.7986 827.5741,-364.9155 823.551,-359.1871"/>
</g>
<!-- 18 -->
<g id="node19" class="node">
<title>18</title>
<ellipse fill="#d3d3d3" stroke="#d3d3d3" cx="697.3683" cy="-164" rx="40.0939" ry="18"/>
<text text-anchor="middle" x="697.3683" y="-160.3" font-family="Times,serif" font-size="14.00" fill="#000000">4.2.19</text>
</g>
<!-- 3&#45;&gt;18 -->
<g id="edge73" class="edge">
<title>3&#45;&gt;18</title>
<path fill="none" stroke="#000000" d="M1019.6004,-26.7614C960.4617,-42.0776 839.5787,-76.93 746.3683,-127 738.841,-131.0434 731.2237,-136.1822 724.3105,-141.3339"/>
<polygon fill="#000000" stroke="#000000" points="721.7485,-138.8915 715.9903,-147.785 726.0378,-144.4235 721.7485,-138.8915"/>
</g>
<!-- 19 -->
<g id="node20" class="node">
<title>19</title>
<ellipse fill="#d3d3d3" stroke="#d3d3d3" cx="692.3683" cy="-237" rx="40.0939" ry="18"/>
<text text-anchor="middle" x="692.3683" y="-233.3" font-family="Times,serif" font-size="14.00" fill="#000000">4.2.20</text>
</g>
<!-- 3&#45;&gt;19 -->
<g id="edge52" class="edge">
<title>3&#45;&gt;19</title>
<path fill="none" stroke="#000000" d="M1015.9386,-22.1799C961.9465,-28.7412 862.5638,-43.8341 782.3683,-73 718.6328,-96.1796 683.003,-87.691 648.3683,-146 635.2728,-168.0467 651.4629,-194.5739 667.7729,-213.2835"/>
<polygon fill="#000000" stroke="#000000" points="665.3357,-215.8037 674.6851,-220.7874 670.4842,-211.061 665.3357,-215.8037"/>
</g>
<!-- 24 -->
<g id="node25" class="node">
<title>24</title>
<ellipse fill="#d3d3d3" stroke="#d3d3d3" cx="985.3683" cy="-310" rx="40.0939" ry="18"/>
<text text-anchor="middle" x="985.3683" y="-306.3" font-family="Times,serif" font-size="14.00" fill="#000000">4.2.21</text>
</g>
<!-- 3&#45;&gt;24 -->
<g id="edge15" class="edge">
<title>3&#45;&gt;24</title>
<path fill="none" stroke="#000000" d="M1084.703,-30.4394C1107.535,-42.3124 1135.3683,-62.6087 1135.3683,-91 1135.3683,-91 1135.3683,-91 1135.3683,-237 1135.3683,-260.6944 1074.0894,-283.9222 1029.8657,-297.6"/>
<polygon fill="#000000" stroke="#000000" points="1028.7171,-294.2907 1020.1583,-300.5356 1030.7433,-300.9911 1028.7171,-294.2907"/>
</g>
<!-- 4&#45;&gt;20 -->
<g id="edge76" class="edge">
<title>4&#45;&gt;20</title>
<path fill="none" stroke="#0000ff" stroke-dasharray="5,2" d="M1031.6052,-957.2342C1081.9254,-977.7619 1180.9192,-1018.1456 1236.6876,-1040.8959"/>
<polygon fill="#0000ff" stroke="#0000ff" points="1235.6642,-1044.2584 1246.2454,-1044.795 1238.3083,-1037.777 1235.6642,-1044.2584"/>
<text text-anchor="middle" x="1184.3683" y="-997.2913" font-family="Times,serif" font-size="14.00" fill="#000000">Indirect</text>
</g>
<!-- 5 -->
<g id="node6" class="node">
<title>5</title>
<polygon fill="#d3d3d3" stroke="#d3d3d3" points="802.3683,-749.4913 740.3683,-749.4913 740.3683,-687.4913 802.3683,-687.4913 802.3683,-749.4913"/>
<text text-anchor="middle" x="771.3683" y="-714.7913" font-family="Times,serif" font-size="14.00" fill="#000000">4.3.10</text>
</g>
<!-- 5&#45;&gt;4 -->
<g id="edge4" class="edge">
<title>5&#45;&gt;4</title>
<path fill="none" stroke="#000000" d="M788.741,-749.5486C816.7842,-799.5957 869.2295,-892.7993 872.3683,-895.4913 897.1124,-916.7136 932.0301,-929.2546 959.1463,-936.3281"/>
<polygon fill="#000000" stroke="#000000" points="958.5732,-939.7913 969.1194,-938.778 960.2432,-932.9934 958.5732,-939.7913"/>
</g>
<!-- 5&#45;&gt;20 -->
<g id="edge88" class="edge">
<title>5&#45;&gt;20</title>
<path fill="none" stroke="#000000" d="M774.4896,-749.8097C781.8103,-805.1703 805.4124,-919.725 878.3683,-975.4913 934.4397,-1018.3514 1145.6262,-1044.2249 1235.9631,-1053.5454"/>
<polygon fill="#000000" stroke="#000000" points="1235.8057,-1057.0473 1246.108,-1054.5747 1236.5124,-1050.0831 1235.8057,-1057.0473"/>
</g>
<!-- 5&#45;&gt;23 -->
<g id="edge48" class="edge">
<title>5&#45;&gt;23</title>
<path fill="none" stroke="#000000" d="M802.4327,-742.9089C806.9169,-745.5173 811.6249,-747.8233 816.3683,-749.4913 919.7863,-785.8572 961.8472,-723.7501 1062.3683,-767.4913 1075.8707,-773.3668 1088.4179,-783.0375 1099.0089,-793.103"/>
<polygon fill="#000000" stroke="#000000" points="1096.8143,-795.8581 1106.3608,-800.4533 1101.7636,-790.9078 1096.8143,-795.8581"/>
</g>
<!-- 6 -->
<g id="node7" class="node">
<title>6</title>
<polygon fill="#d3d3d3" stroke="#d3d3d3" points="1081.8683,-857.9913 1028.8683,-857.9913 1028.8683,-804.9913 1081.8683,-804.9913 1081.8683,-857.9913"/>
<text text-anchor="middle" x="1055.3683" y="-827.7913" font-family="Times,serif" font-size="14.00" fill="#000000">4.3.0</text>
</g>
<!-- 6&#45;&gt;4 -->
<g id="edge58" class="edge">
<title>6&#45;&gt;4</title>
<path fill="none" stroke="#000000" d="M1042.334,-858.2707C1035.7048,-871.8907 1027.5078,-888.7318 1020.1224,-903.9056"/>
<polygon fill="#000000" stroke="#000000" points="1016.8794,-902.571 1015.65,-913.0942 1023.1735,-905.6345 1016.8794,-902.571"/>
</g>
<!-- 7&#45;&gt;4 -->
<g id="edge61" class="edge">
<title>7&#45;&gt;4</title>
<path fill="none" stroke="#0000ff" stroke-dasharray="5,2" d="M503.129,-735.2721C537.054,-772.4561 625.0249,-861.1988 720.3683,-895.4913 801.9486,-924.8336 903.4209,-936.9795 959.0654,-941.7127"/>
<polygon fill="#0000ff" stroke="#0000ff" points="958.9851,-945.2176 969.2355,-942.5381 959.5514,-938.2406 958.9851,-945.2176"/>
<text text-anchor="middle" x="679.3683" y="-827.7913" font-family="Times,serif" font-size="14.00" fill="#000000">Indirect</text>
</g>
<!-- 7&#45;&gt;20 -->
<g id="edge80" class="edge">
<title>7&#45;&gt;20</title>
<path fill="none" stroke="#0000ff" stroke-dasharray="5,2" d="M494.7932,-736.6702C505.8122,-765.8811 530.6329,-823.8952 566.3683,-862.4913 629.2684,-930.4267 657.075,-937.1991 741.3683,-975.4913 789.7809,-997.4839 804.2298,-998.0494 856.3683,-1008.4913 994.0155,-1036.0583 1160.3121,-1049.7507 1236.1145,-1054.9383"/>
<polygon fill="#0000ff" stroke="#0000ff" points="1235.9858,-1058.4374 1246.1976,-1055.6144 1236.4542,-1051.4531 1235.9858,-1058.4374"/>
<text text-anchor="middle" x="627.3683" y="-884.2913" font-family="Times,serif" font-size="14.00" fill="#000000">Indirect</text>
</g>
<!-- 7&#45;&gt;22 -->
<g id="edge72" class="edge">
<title>7&#45;&gt;22</title>
<path fill="none" stroke="#000000" d="M474.0917,-735.6536C458.3343,-754.596 432.8348,-785.2496 414.9268,-806.7773"/>
<polygon fill="#000000" stroke="#000000" points="412.1756,-804.6116 408.4712,-814.5378 417.5571,-809.0883 412.1756,-804.6116"/>
</g>
<!-- 7&#45;&gt;23 -->
<g id="edge99" class="edge">
<title>7&#45;&gt;23</title>
<path fill="none" stroke="#0000ff" stroke-dasharray="5,2" d="M521.8847,-728.8185C571.3304,-743.5624 666.9846,-770.2164 750.3683,-782.4913 822.5832,-793.122 1005.5789,-775.4833 1090.477,-801.3224"/>
<polygon fill="#0000ff" stroke="#0000ff" points="1089.4925,-804.6845 1100.087,-804.6005 1091.7525,-798.0593 1089.4925,-804.6845"/>
<text text-anchor="middle" x="779.3683" y="-771.2913" font-family="Times,serif" font-size="14.00" fill="#000000">Indirect</text>
</g>
<!-- 8 -->
<g id="node9" class="node">
<title>8</title>
<polygon fill="#d3d3d3" stroke="#d3d3d3" points="1153.8683,-744.9913 1100.8683,-744.9913 1100.8683,-691.9913 1153.8683,-691.9913 1153.8683,-744.9913"/>
<text text-anchor="middle" x="1127.3683" y="-714.7913" font-family="Times,serif" font-size="14.00" fill="#000000">4.3.1</text>
</g>
<!-- 8&#45;&gt;4 -->
<g id="edge50" class="edge">
<title>8&#45;&gt;4</title>
<path fill="none" stroke="#000000" d="M1100.8463,-738.6239C1069.3653,-762.5485 1021.0033,-799.4011 1020.3683,-800.4913 1002.2421,-831.6087 998.1082,-872.7701 998.0002,-903.114"/>
<polygon fill="#000000" stroke="#000000" points="994.503,-903.401 998.1135,-913.3616 1001.5026,-903.3235 994.503,-903.401"/>
</g>
<!-- 8&#45;&gt;20 -->
<g id="edge102" class="edge">
<title>8&#45;&gt;20</title>
<path fill="none" stroke="#000000" d="M1142.4268,-745.1504C1151.214,-761.0436 1162.3159,-781.7185 1171.3683,-800.4913 1211.9248,-884.5971 1220.1184,-906.6261 1254.3683,-993.4913 1257.322,-1000.9826 1260.3344,-1009.025 1263.1645,-1016.7929"/>
<polygon fill="#000000" stroke="#000000" points="1259.9517,-1018.2016 1266.6338,-1026.4236 1266.5375,-1015.8292 1259.9517,-1018.2016"/>
</g>
<!-- 8&#45;&gt;23 -->
<g id="edge74" class="edge">
<title>8&#45;&gt;23</title>
<path fill="none" stroke="#000000" d="M1128.3162,-745.2707C1128.7892,-758.6337 1129.372,-775.0975 1129.9011,-790.045"/>
<polygon fill="#000000" stroke="#000000" points="1126.4052,-790.2243 1130.2569,-800.0942 1133.4008,-789.9766 1126.4052,-790.2243"/>
</g>
<!-- 9&#45;&gt;10 -->
<g id="edge47" class="edge">
<title>9&#45;&gt;10</title>
<path fill="none" stroke="#000000" d="M973.9727,-108.252C1000.9463,-147.3577 1059.8167,-245.7396 1034.3683,-328 1003.188,-428.7883 970.0539,-452.348 881.3683,-509.4913 869.5793,-517.0873 855.9273,-523.9601 843.3714,-529.6162"/>
<polygon fill="#000000" stroke="#000000" points="841.795,-526.4854 834.0324,-533.6961 844.5973,-532.9 841.795,-526.4854"/>
</g>
<!-- 9&#45;&gt;11 -->
<g id="edge31" class="edge">
<title>9&#45;&gt;11</title>
<path fill="none" stroke="#000000" d="M981.7919,-106.7197C994.0924,-116.937 1009.4371,-131.094 1020.3683,-146 1124.8308,-288.4476 1157.8847,-333.6933 1183.3683,-508.4913 1192.0275,-567.887 1113.7396,-596.9098 1060.1887,-609.7036"/>
<polygon fill="#000000" stroke="#000000" points="1059.1492,-606.3505 1050.1729,-611.9788 1060.6999,-613.1766 1059.1492,-606.3505"/>
</g>
<!-- 9&#45;&gt;12 -->
<g id="edge57" class="edge">
<title>9&#45;&gt;12</title>
<path fill="none" stroke="#000000" d="M920.9798,-91.7169C748.3677,-95.3045 81.3683,-114.7176 81.3683,-200.5 81.3683,-200.5 81.3683,-200.5 81.3683,-346.5 81.3683,-393.1422 127.7023,-425.5463 166.0812,-444.3865"/>
<polygon fill="#000000" stroke="#000000" points="164.5929,-447.5543 175.1303,-448.6566 167.5802,-441.2237 164.5929,-447.5543"/>
</g>
<!-- 9&#45;&gt;15 -->
<g id="edge7" class="edge">
<title>9&#45;&gt;15</title>
<path fill="none" stroke="#000000" d="M951.2341,-108.8264C923.0949,-158.3242 843.8831,-297.6607 810.5019,-356.3793"/>
<polygon fill="#000000" stroke="#000000" points="807.2693,-354.9838 805.3698,-365.407 813.3547,-358.4433 807.2693,-354.9838"/>
</g>
<!-- 9&#45;&gt;18 -->
<g id="edge18" class="edge">
<title>9&#45;&gt;18</title>
<path fill="none" stroke="#000000" d="M920.8817,-92.8021C877.5298,-95.8916 807.4144,-104.2728 751.3683,-127 742.0667,-130.7719 732.7559,-136.3451 724.5492,-142.0278"/>
<polygon fill="#000000" stroke="#000000" points="722.4754,-139.2083 716.4435,-147.9185 726.5906,-144.8709 722.4754,-139.2083"/>
</g>
<!-- 9&#45;&gt;19 -->
<g id="edge53" class="edge">
<title>9&#45;&gt;19</title>
<path fill="none" stroke="#000000" d="M935.5754,-104.9991C886.9704,-131.3795 781.7942,-188.464 727.0559,-218.1732"/>
<polygon fill="#000000" stroke="#000000" points="725.2024,-215.1969 718.083,-223.0433 728.5415,-221.3492 725.2024,-215.1969"/>
</g>
<!-- 9&#45;&gt;24 -->
<g id="edge23" class="edge">
<title>9&#45;&gt;24</title>
<path fill="none" stroke="#000000" d="M963.3732,-109.2951C967.566,-147.5542 977.2847,-236.2377 982.2807,-281.8258"/>
<polygon fill="#000000" stroke="#000000" points="978.8173,-282.3518 983.3859,-291.911 985.7756,-281.5892 978.8173,-282.3518"/>
</g>
<!-- 10&#45;&gt;4 -->
<g id="edge42" class="edge">
<title>10&#45;&gt;4</title>
<path fill="none" stroke="#0000ff" stroke-dasharray="5,2" d="M803.8292,-563.6213C806.2067,-619.9905 820.8113,-794.4436 910.3683,-895.4913 917.7871,-903.862 939.6312,-915.8313 959.9399,-925.8446"/>
<polygon fill="#0000ff" stroke="#0000ff" points="958.5803,-929.0751 969.1055,-930.2877 961.6338,-922.7761 958.5803,-929.0751"/>
<text text-anchor="middle" x="863.3683" y="-714.7913" font-family="Times,serif" font-size="14.00" fill="#000000">Indirect</text>
</g>
<!-- 10&#45;&gt;7 -->
<g id="edge19" class="edge">
<title>10&#45;&gt;7</title>
<path fill="none" stroke="#000000" d="M765.6335,-552.1144C738.9532,-557.6995 702.8365,-567.1187 673.3683,-581.4913 610.516,-612.1465 547.1576,-664.897 513.3466,-695.2184"/>
<polygon fill="#000000" stroke="#000000" points="510.8609,-692.7475 505.8,-702.0554 515.5609,-697.9351 510.8609,-692.7475"/>
</g>
<!-- 10&#45;&gt;11 -->
<g id="edge11" class="edge">
<title>10&#45;&gt;11</title>
<path fill="none" stroke="#000000" d="M835.5665,-556.7376C871.8786,-569.4208 931.0362,-590.0834 970.8083,-603.9751"/>
<polygon fill="#000000" stroke="#000000" points="969.8816,-607.3587 980.4764,-607.352 972.1899,-600.7503 969.8816,-607.3587"/>
</g>
<!-- 10&#45;&gt;22 -->
<g id="edge78" class="edge">
<title>10&#45;&gt;22</title>
<path fill="none" stroke="#000000" d="M785.0086,-561.5517C756.542,-586.8877 700.7307,-638.3229 659.3683,-687.4913 637.7807,-713.1529 636.5573,-722.7154 616.3683,-749.4913 604.9594,-764.6224 605.3671,-772.335 589.3683,-782.4913 545.2208,-810.5168 485.9675,-822.5217 444.405,-827.6589"/>
<polygon fill="#000000" stroke="#000000" points="443.7764,-824.208 434.2393,-828.8226 444.5725,-831.1625 443.7764,-824.208"/>
</g>
<!-- 11&#45;&gt;4 -->
<g id="edge32" class="edge">
<title>11&#45;&gt;4</title>
<path fill="none" stroke="#0000ff" stroke-dasharray="5,2" d="M1052.1433,-621.7307C1156.3389,-630.6167 1431.0428,-656.7693 1457.3683,-687.4913 1475.2982,-708.4156 1468.937,-724.4818 1457.3683,-749.4913 1424.8038,-819.8898 1390.403,-821.7996 1324.3683,-862.4913 1233.824,-918.2862 1106.8387,-936.2206 1042.0139,-941.9071"/>
<polygon fill="#0000ff" stroke="#0000ff" points="1041.4624,-938.4405 1031.7824,-942.7474 1042.0354,-945.417 1041.4624,-938.4405"/>
<text text-anchor="middle" x="1476.3683" y="-771.2913" font-family="Times,serif" font-size="14.00" fill="#000000">Indirect</text>
</g>
<!-- 11&#45;&gt;7 -->
<g id="edge56" class="edge">
<title>11&#45;&gt;7</title>
<path fill="none" stroke="#000000" d="M974.2038,-624.5225C931.5239,-631.3647 860.3754,-643.0622 799.3683,-654.4913 705.1257,-672.1467 595.377,-695.3556 534.6997,-708.4209"/>
<polygon fill="#000000" stroke="#000000" points="533.7113,-705.0535 524.6742,-710.5835 535.1874,-711.8961 533.7113,-705.0535"/>
</g>
<!-- 11&#45;&gt;20 -->
<g id="edge59" class="edge">
<title>11&#45;&gt;20</title>
<path fill="none" stroke="#0000ff" stroke-dasharray="5,2" d="M1052.3181,-620.92C1135.9407,-626.2285 1326.9144,-639.5889 1390.3683,-654.4913 1430.2235,-663.8514 1443.2262,-663.4568 1476.3683,-687.4913 1513.4549,-714.3864 1517.7449,-728.2395 1541.3683,-767.4913 1589.9112,-848.1486 1564.182,-905.3739 1501.3683,-975.4913 1453.9006,-1028.4782 1369.2763,-1047.2765 1318.7343,-1053.9104"/>
<polygon fill="#0000ff" stroke="#0000ff" points="1317.9995,-1050.4737 1308.4922,-1055.1493 1318.8401,-1057.423 1317.9995,-1050.4737"/>
<text text-anchor="middle" x="1595.3683" y="-827.7913" font-family="Times,serif" font-size="14.00" fill="#000000">Indirect</text>
</g>
<!-- 11&#45;&gt;22 -->
<g id="edge22" class="edge">
<title>11&#45;&gt;22</title>
<path fill="none" stroke="#000000" d="M1001.4742,-636.253C983.5921,-664.0472 945.4607,-717.9015 900.3683,-749.4913 777.3805,-835.6512 715.3489,-781.6683 566.3683,-800.4913 523.8103,-805.8683 475.8014,-814.7607 441.3413,-821.6459"/>
<polygon fill="#000000" stroke="#000000" points="440.2128,-818.303 431.1028,-823.7121 441.5976,-825.1647 440.2128,-818.303"/>
</g>
<!-- 12&#45;&gt;4 -->
<g id="edge43" class="edge">
<title>12&#45;&gt;4</title>
<path fill="none" stroke="#ff0000" stroke-width="2" d="M194.369,-485.2946C160.0653,-520.6802 98.7854,-595.5013 109.3683,-669.4913 116.7762,-721.2842 110.7086,-740.8374 142.3683,-782.4913 183.1914,-836.2014 207.1929,-841.6868 271.3683,-862.4913 377.3377,-896.8447 414.3648,-849.5084 521.3683,-880.4913 534.9289,-884.4178 535.8812,-891.319 549.3683,-895.4913 625.4264,-919.0202 862.6311,-935.9462 959.0219,-942.0239"/>
<polygon fill="#ff0000" stroke="#ff0000" stroke-width="2" points="959.0542,-945.5326 969.2526,-942.6614 959.4897,-938.5462 959.0542,-945.5326"/>
<text text-anchor="middle" x="132.3683" y="-658.2913" font-family="Times,serif" font-size="14.00" fill="#000000">Direct</text>
</g>
<!-- 12&#45;&gt;7 -->
<g id="edge103" class="edge">
<title>12&#45;&gt;7</title>
<path fill="none" stroke="#0000ff" stroke-width="2" d="M239.091,-485.4852C289.6126,-532.7091 410.929,-646.1068 463.4414,-695.1915"/>
<polygon fill="#0000ff" stroke="#0000ff" stroke-width="2" points="461.2701,-697.9529 470.9656,-702.2246 466.0502,-692.839 461.2701,-697.9529"/>
</g>
<!-- 12&#45;&gt;10 -->
<g id="edge44" class="edge">
<title>12&#45;&gt;10</title>
<path fill="none" stroke="#0000ff" stroke-width="2" d="M280.305,-473.095C398.4953,-489.4535 648.7285,-524.0879 754.5155,-538.7297"/>
<polygon fill="#0000ff" stroke="#0000ff" stroke-width="2" points="754.2073,-542.2203 764.5928,-540.1244 755.1671,-535.2864 754.2073,-542.2203"/>
</g>
<!-- 12&#45;&gt;11 -->
<g id="edge6" class="edge">
<title>12&#45;&gt;11</title>
<path fill="none" stroke="#0000ff" stroke-width="2" d="M258.0092,-480.3651C327.4133,-506.4934 471.6485,-557.6651 598.3683,-582.4913 727.7862,-607.8461 883.4625,-615.3469 961.9152,-617.5634"/>
<polygon fill="#0000ff" stroke="#0000ff" stroke-width="2" points="961.9165,-621.0646 972.0059,-617.8312 962.1023,-614.0671 961.9165,-621.0646"/>
</g>
<!-- 12&#45;&gt;22 -->
<g id="edge21" class="edge">
<title>12&#45;&gt;22</title>
<path fill="none" stroke="#0000ff" stroke-width="2" d="M217.1268,-490.5664C218.9529,-530.3361 225.1741,-607.662 246.3683,-669.4913 265.084,-724.0905 269.8165,-741.4192 310.3683,-782.4913 323.2365,-795.5247 340.2831,-806.3112 355.6559,-814.4146"/>
<polygon fill="#0000ff" stroke="#0000ff" stroke-width="2" points="354.4545,-817.7287 364.9589,-819.1095 357.6083,-811.4794 354.4545,-817.7287"/>
</g>
<!-- 13 -->
<g id="node14" class="node">
<title>13</title>
<polygon fill="#d3d3d3" stroke="#d3d3d3" points="1224.8683,-744.9913 1171.8683,-744.9913 1171.8683,-691.9913 1224.8683,-691.9913 1224.8683,-744.9913"/>
<text text-anchor="middle" x="1198.3683" y="-714.7913" font-family="Times,serif" font-size="14.00" fill="#000000">4.3.8</text>
</g>
<!-- 13&#45;&gt;4 -->
<g id="edge41" class="edge">
<title>13&#45;&gt;4</title>
<path fill="none" stroke="#000000" d="M1200.1997,-745.2645C1200.9214,-776.5557 1197.5368,-828.3881 1171.3683,-862.4913 1139.4702,-904.0613 1081.1459,-925.6364 1041.5795,-936.0114"/>
<polygon fill="#000000" stroke="#000000" points="1040.5604,-932.6583 1031.7031,-938.472 1042.2527,-939.4506 1040.5604,-932.6583"/>
</g>
<!-- 13&#45;&gt;20 -->
<g id="edge39" class="edge">
<title>13&#45;&gt;20</title>
<path fill="none" stroke="#000000" d="M1223.5709,-745.0456C1258.4931,-782.5545 1318.5426,-849.8871 1329.3683,-880.4913 1348.3397,-934.1237 1351.9166,-956.2618 1329.3683,-1008.4913 1326.1878,-1015.8582 1321.2945,-1022.6307 1315.757,-1028.6389"/>
<polygon fill="#000000" stroke="#000000" points="1313.1339,-1026.3102 1308.4788,-1035.8276 1318.053,-1031.2905 1313.1339,-1026.3102"/>
</g>
<!-- 13&#45;&gt;23 -->
<g id="edge85" class="edge">
<title>13&#45;&gt;23</title>
<path fill="none" stroke="#000000" d="M1182.4902,-745.2707C1174.3385,-759.0192 1164.2406,-776.0499 1155.178,-791.3346"/>
<polygon fill="#000000" stroke="#000000" points="1152.0738,-789.7075 1149.9842,-800.0942 1158.095,-793.2776 1152.0738,-789.7075"/>
</g>
<!-- 14 -->
<g id="node15" class="node">
<title>14</title>
<polygon fill="#d3d3d3" stroke="#d3d3d3" points="1305.3683,-749.4913 1243.3683,-749.4913 1243.3683,-687.4913 1305.3683,-687.4913 1305.3683,-749.4913"/>
<text text-anchor="middle" x="1274.3683" y="-714.7913" font-family="Times,serif" font-size="14.00" fill="#000000">4.3.12</text>
</g>
<!-- 14&#45;&gt;4 -->
<g id="edge64" class="edge">
<title>14&#45;&gt;4</title>
<path fill="none" stroke="#000000" d="M1264.337,-749.724C1249.0152,-791.5831 1215.3914,-864.2291 1158.3683,-895.4913 1121.1681,-915.8858 1074.2913,-929.059 1041.2913,-936.5541"/>
<polygon fill="#000000" stroke="#000000" points="1040.5381,-933.136 1031.5216,-938.6996 1042.0396,-939.9731 1040.5381,-933.136"/>
</g>
<!-- 14&#45;&gt;20 -->
<g id="edge89" class="edge">
<title>14&#45;&gt;20</title>
<path fill="none" stroke="#000000" d="M1302.3915,-749.5029C1328.1044,-780.2181 1364.3982,-829.8709 1379.3683,-880.4913 1395.5014,-935.0446 1409.6581,-960.3366 1379.3683,-1008.4913 1366.0341,-1029.69 1340.6877,-1041.9267 1318.5985,-1048.8703"/>
<polygon fill="#000000" stroke="#000000" points="1317.38,-1045.5786 1308.7335,-1051.7013 1319.311,-1052.307 1317.38,-1045.5786"/>
</g>
<!-- 14&#45;&gt;23 -->
<g id="edge12" class="edge">
<title>14&#45;&gt;23</title>
<path fill="none" stroke="#000000" d="M1243.3394,-743.0106C1222.1233,-759.7758 1193.8184,-782.1425 1170.9757,-800.1931"/>
<polygon fill="#000000" stroke="#000000" points="1168.5064,-797.6835 1162.8304,-806.6296 1172.8464,-803.1757 1168.5064,-797.6835"/>
</g>
<!-- 15&#45;&gt;4 -->
<g id="edge81" class="edge">
<title>15&#45;&gt;4</title>
<path fill="none" stroke="#000000" d="M807.7373,-400.277C840.025,-446.0516 924.3683,-570.2436 924.3683,-618.4913 924.3683,-618.4913 924.3683,-618.4913 924.3683,-831.4913 924.3683,-861.6021 943.1785,-889.7207 962.083,-910.3768"/>
<polygon fill="#000000" stroke="#000000" points="959.5801,-912.8237 969.0174,-917.6392 964.6429,-907.9896 959.5801,-912.8237"/>
</g>
<!-- 15&#45;&gt;7 -->
<g id="edge67" class="edge">
<title>15&#45;&gt;7</title>
<path fill="none" stroke="#000000" d="M774.6123,-398.6093C733.556,-430.1352 640.4128,-504.9448 576.3683,-581.4913 546.7066,-616.9431 519.0345,-662.9997 502.9117,-691.6501"/>
<polygon fill="#000000" stroke="#000000" points="499.7032,-690.2183 497.9005,-700.6586 505.8204,-693.6212 499.7032,-690.2183"/>
</g>
<!-- 15&#45;&gt;10 -->
<g id="edge36" class="edge">
<title>15&#45;&gt;10</title>
<path fill="none" stroke="#000000" d="M796.255,-401.0103C797.6426,-429.1942 800.3383,-483.9475 801.9834,-517.362"/>
<polygon fill="#000000" stroke="#000000" points="798.49,-517.5846 802.4776,-527.4004 805.4815,-517.2403 798.49,-517.5846"/>
</g>
<!-- 15&#45;&gt;11 -->
<g id="edge75" class="edge">
<title>15&#45;&gt;11</title>
<path fill="none" stroke="#000000" d="M821.445,-396.8531C857.2332,-417.0513 921.5415,-457.7635 960.3683,-508.4913 979.7162,-533.7697 994.3047,-567.4053 1003.0326,-590.7991"/>
<polygon fill="#000000" stroke="#000000" points="999.8299,-592.2351 1006.5187,-600.4516 1006.4136,-589.8572 999.8299,-592.2351"/>
</g>
<!-- 15&#45;&gt;12 -->
<g id="edge66" class="edge">
<title>15&#45;&gt;12</title>
<path fill="none" stroke="#000000" d="M756.4794,-388.4569C657.1914,-402.3891 393.8416,-439.3425 275.4631,-455.9534"/>
<polygon fill="#000000" stroke="#000000" points="274.9061,-452.4972 265.4896,-457.3529 275.8789,-459.4293 274.9061,-452.4972"/>
</g>
<!-- 15&#45;&gt;22 -->
<g id="edge28" class="edge">
<title>15&#45;&gt;22</title>
<path fill="none" stroke="#000000" d="M786.5495,-400.6968C757.5848,-457.4316 660.1574,-637.5921 537.3683,-749.4913 506.3521,-777.7567 463.9521,-800.5446 433.3847,-814.8566"/>
<polygon fill="#000000" stroke="#000000" points="431.5375,-811.8531 423.9054,-819.2017 434.4543,-818.2164 431.5375,-811.8531"/>
</g>
<!-- 16 -->
<g id="node17" class="node">
<title>16</title>
<ellipse fill="#d3d3d3" stroke="#d3d3d3" cx="423.3683" cy="-310" rx="40.0939" ry="18"/>
<text text-anchor="middle" x="423.3683" y="-306.3" font-family="Times,serif" font-size="14.00" fill="#000000">4.2.23</text>
</g>
<!-- 16&#45;&gt;4 -->
<g id="edge13" class="edge">
<title>16&#45;&gt;4</title>
<path fill="none" stroke="#000000" d="M410.797,-327.1517C368.7414,-384.7008 235.0583,-569.0698 225.3683,-600.4913 201.0167,-679.4549 216.7451,-714.2672 263.3683,-782.4913 292.0957,-824.5285 299.1129,-841.2113 345.3683,-862.4913 386.109,-881.2343 501.8174,-875.3597 546.3683,-880.4913 699.0488,-898.0779 879.6779,-925.5426 959.244,-937.9806"/>
<polygon fill="#000000" stroke="#000000" points="958.9169,-941.472 969.3382,-939.5628 960.0009,-934.5565 958.9169,-941.472"/>
</g>
<!-- 16&#45;&gt;7 -->
<g id="edge38" class="edge">
<title>16&#45;&gt;7</title>
<path fill="none" stroke="#000000" d="M420.7487,-328.1779C417.3242,-352.9462 411.5103,-398.714 409.3683,-438 407.6384,-469.7268 403.6581,-478.2347 409.3683,-509.4913 421.8678,-577.9118 455.613,-653.0173 474.7106,-691.8781"/>
<polygon fill="#000000" stroke="#000000" points="471.6379,-693.5595 479.2285,-700.951 477.904,-690.4392 471.6379,-693.5595"/>
</g>
<!-- 16&#45;&gt;10 -->
<g id="edge51" class="edge">
<title>16&#45;&gt;10</title>
<path fill="none" stroke="#000000" d="M441.9596,-326.2353C491.2113,-368.9835 624.8037,-483.1713 676.3683,-509.4913 701.3052,-522.2198 731.3641,-530.9983 755.9773,-536.6981"/>
<polygon fill="#000000" stroke="#000000" points="755.2921,-540.1311 765.8129,-538.8809 756.8088,-533.2974 755.2921,-540.1311"/>
</g>
<!-- 16&#45;&gt;11 -->
<g id="edge29" class="edge">
<title>16&#45;&gt;11</title>
<path fill="none" stroke="#000000" d="M432.6169,-327.696C443.2409,-347.0209 461.985,-378.2472 483.3683,-401 565.6383,-488.5393 589.8372,-514.1513 699.3683,-563.4913 745.6113,-584.3222 886.8705,-603.6002 962.8186,-612.8118"/>
<polygon fill="#000000" stroke="#000000" points="962.7392,-616.3273 973.0851,-614.0439 963.5734,-609.3772 962.7392,-616.3273"/>
</g>
<!-- 16&#45;&gt;12 -->
<g id="edge95" class="edge">
<title>16&#45;&gt;12</title>
<path fill="none" stroke="#000000" d="M383.7882,-313.7621C356.7212,-317.9943 321.2052,-326.9725 295.3683,-346 263.8025,-369.2464 269.2857,-387.4974 247.3683,-420 244.4923,-424.2649 241.4259,-428.7331 238.3825,-433.1218"/>
<polygon fill="#000000" stroke="#000000" points="235.466,-431.1851 232.6146,-441.3891 241.2069,-435.1904 235.466,-431.1851"/>
</g>
<!-- 16&#45;&gt;15 -->
<g id="edge34" class="edge">
<title>16&#45;&gt;15</title>
<path fill="none" stroke="#000000" d="M460.397,-317.2664C528.411,-330.6132 673.1193,-359.0103 748.11,-373.7262"/>
<polygon fill="#000000" stroke="#000000" points="747.7267,-377.2177 758.2136,-375.7089 749.0747,-370.3487 747.7267,-377.2177"/>
</g>
<!-- 16&#45;&gt;22 -->
<g id="edge92" class="edge">
<title>16&#45;&gt;22</title>
<path fill="none" stroke="#000000" d="M417.4506,-328.1312C414.2281,-338.7583 410.4781,-352.5083 408.3683,-365 402.9523,-397.0663 404.9798,-405.5195 403.3683,-438 396.5823,-574.774 394.9054,-738.5492 394.4972,-803.2309"/>
<polygon fill="#000000" stroke="#000000" points="390.9961,-803.4172 394.4383,-813.4372 397.996,-803.4576 390.9961,-803.4172"/>
</g>
<!-- 17 -->
<g id="node18" class="node">
<title>17</title>
<polygon fill="#d3d3d3" stroke="#d3d3d3" points="1376.8683,-744.9913 1323.8683,-744.9913 1323.8683,-691.9913 1376.8683,-691.9913 1376.8683,-744.9913"/>
<text text-anchor="middle" x="1350.3683" y="-714.7913" font-family="Times,serif" font-size="14.00" fill="#000000">4.3.2</text>
</g>
<!-- 17&#45;&gt;4 -->
<g id="edge71" class="edge">
<title>17&#45;&gt;4</title>
<path fill="none" stroke="#000000" d="M1332.6748,-745.0271C1311.4453,-775.6265 1273.6437,-826.347 1233.3683,-862.4913 1178.5776,-911.6619 1092.4917,-931.7606 1041.7229,-939.6665"/>
<polygon fill="#000000" stroke="#000000" points="1041.1389,-936.2146 1031.7546,-941.1323 1042.1574,-943.1401 1041.1389,-936.2146"/>
</g>
<!-- 17&#45;&gt;20 -->
<g id="edge77" class="edge">
<title>17&#45;&gt;20</title>
<path fill="none" stroke="#000000" d="M1377.1725,-744.247C1380.1304,-746.2525 1383.2168,-748.0532 1386.3683,-749.4913 1437.8602,-772.9889 1522.2746,-727.3825 1509.3683,-782.4913 1483.8059,-891.6402 1479.4547,-932.1452 1397.3683,-1008.4913 1375.3297,-1028.9887 1343.5651,-1041.4431 1318.2525,-1048.6637"/>
<polygon fill="#000000" stroke="#000000" points="1317.3012,-1045.2951 1308.5512,-1051.2691 1319.1168,-1052.0556 1317.3012,-1045.2951"/>
</g>
<!-- 17&#45;&gt;23 -->
<g id="edge49" class="edge">
<title>17&#45;&gt;23</title>
<path fill="none" stroke="#000000" d="M1323.4948,-743.0543C1320.5048,-745.3518 1317.4312,-747.5449 1314.3683,-749.4913 1268.5136,-778.6301 1210.5614,-802.7146 1172.3002,-817.0789"/>
<polygon fill="#000000" stroke="#000000" points="1170.7,-813.9392 1162.5374,-820.6936 1173.1305,-820.5037 1170.7,-813.9392"/>
</g>
<!-- 18&#45;&gt;7 -->
<g id="edge87" class="edge">
<title>18&#45;&gt;7</title>
<path fill="none" stroke="#000000" d="M657.2711,-166.9296C554.7754,-174.6563 285.1726,-196.5423 198.3683,-219 137.4008,-234.7733 107.5381,-224.5004 67.3683,-273 5.7039,-347.4512 14.2661,-411.7637 70.3683,-490.4913 163.2353,-620.8107 354.6752,-684.4135 442.5041,-707.6808"/>
<polygon fill="#000000" stroke="#000000" points="441.8783,-711.1342 452.4367,-710.2565 443.6354,-704.3583 441.8783,-711.1342"/>
</g>
<!-- 18&#45;&gt;10 -->
<g id="edge55" class="edge">
<title>18&#45;&gt;10</title>
<path fill="none" stroke="#000000" d="M724.2866,-177.5903C760.5364,-197.4229 824.0955,-237.9035 855.3683,-292 899.8688,-368.9782 921.0543,-411.4307 880.3683,-490.4913 872.0888,-506.5798 856.6806,-519.0053 841.8103,-527.9417"/>
<polygon fill="#000000" stroke="#000000" points="839.6997,-525.1124 832.6895,-533.0565 843.1236,-531.2179 839.6997,-525.1124"/>
</g>
<!-- 18&#45;&gt;11 -->
<g id="edge65" class="edge">
<title>18&#45;&gt;11</title>
<path fill="none" stroke="#000000" d="M736.4223,-168.8319C805.1773,-179.2796 948.6509,-210.0354 1034.3683,-292 1083.1983,-338.6923 1127.0164,-353.283 1116.3683,-420 1104.3062,-495.5763 1108.72,-523.9962 1059.3683,-582.4913 1054.9151,-587.7694 1049.5621,-592.7568 1044.0882,-597.2424"/>
<polygon fill="#000000" stroke="#000000" points="1041.8492,-594.5492 1036.0726,-603.4308 1046.127,-600.0901 1041.8492,-594.5492"/>
</g>
<!-- 18&#45;&gt;12 -->
<g id="edge91" class="edge">
<title>18&#45;&gt;12</title>
<path fill="none" stroke="#000000" d="M657.2738,-166.1827C546.6878,-173.1215 241.5567,-198.7692 181.3683,-273 144.2124,-318.8246 174.1067,-391.2226 196.8152,-432.5482"/>
<polygon fill="#000000" stroke="#000000" points="193.8369,-434.3917 201.8121,-441.3665 199.9271,-430.9407 193.8369,-434.3917"/>
</g>
<!-- 18&#45;&gt;15 -->
<g id="edge101" class="edge">
<title>18&#45;&gt;15</title>
<path fill="none" stroke="#000000" d="M713.3503,-180.6972C722.5689,-191.0575 733.7971,-205.0221 741.3683,-219 765.5875,-263.7134 781.4209,-321.1825 789.3472,-354.8675"/>
<polygon fill="#000000" stroke="#000000" points="786.0048,-355.9525 791.6435,-364.9222 792.8291,-354.3939 786.0048,-355.9525"/>
</g>
<!-- 18&#45;&gt;19 -->
<g id="edge54" class="edge">
<title>18&#45;&gt;19</title>
<path fill="none" stroke="#000000" d="M696.1323,-182.0449C695.5794,-190.1172 694.9146,-199.8236 694.2985,-208.8183"/>
<polygon fill="#000000" stroke="#000000" points="690.7989,-208.6938 693.6073,-218.9096 697.7826,-209.1722 690.7989,-208.6938"/>
</g>
<!-- 18&#45;&gt;22 -->
<g id="edge98" class="edge">
<title>18&#45;&gt;22</title>
<path fill="none" stroke="#000000" d="M657.0808,-165.6305C528.1336,-171.1191 131.0744,-190.2079 81.3683,-219 47.1208,-238.8377 44.5413,-255.0467 30.3683,-292 -30.8559,-451.6288 5.8157,-529.7875 104.3683,-669.4913 164.4469,-754.6561 284.2258,-800.3118 349.4736,-819.7982"/>
<polygon fill="#000000" stroke="#000000" points="348.4956,-823.1587 359.0754,-822.5941 350.4527,-816.4378 348.4956,-823.1587"/>
</g>
<!-- 18&#45;&gt;24 -->
<g id="edge24" class="edge">
<title>18&#45;&gt;24</title>
<path fill="none" stroke="#000000" d="M736.3118,-168.8323C767.0916,-173.727 810.5236,-183.0696 845.3683,-200 857.7751,-206.0283 920.9453,-257.1297 958.0559,-287.5175"/>
<polygon fill="#000000" stroke="#000000" points="956.0436,-290.3937 965.9955,-294.0283 960.4823,-284.9809 956.0436,-290.3937"/>
</g>
<!-- 19&#45;&gt;7 -->
<g id="edge69" class="edge">
<title>19&#45;&gt;7</title>
<path fill="none" stroke="#000000" d="M652.1465,-239.2755C563.3757,-244.8123 353.5593,-260.8722 290.3683,-292 207.4815,-332.8298 178.0174,-352.7567 142.3683,-438 133.3672,-459.5231 131.4037,-469.899 142.3683,-490.4913 156.0263,-516.1421 335.0482,-620.5841 359.3683,-636.4913 391.9492,-657.8017 429.5517,-681.6164 455.721,-698.0669"/>
<polygon fill="#000000" stroke="#000000" points="454.1434,-701.2091 464.4736,-703.5623 457.8656,-695.2807 454.1434,-701.2091"/>
</g>
<!-- 19&#45;&gt;10 -->
<g id="edge37" class="edge">
<title>19&#45;&gt;10</title>
<path fill="none" stroke="#000000" d="M691.1998,-255.2918C690.3574,-270.0517 689.3683,-291.3541 689.3683,-310 689.3683,-310 689.3683,-310 689.3683,-464.2456 689.3683,-499.8162 726.6302,-521.2702 758.5476,-533.1223"/>
<polygon fill="#000000" stroke="#000000" points="757.6395,-536.5122 768.2343,-536.4973 759.9426,-529.9019 757.6395,-536.5122"/>
</g>
<!-- 19&#45;&gt;11 -->
<g id="edge20" class="edge">
<title>19&#45;&gt;11</title>
<path fill="none" stroke="#000000" d="M715.1875,-251.887C772.0904,-290.2531 921.0907,-398.5765 996.3683,-527.4913 1009.2699,-549.5857 1013.7235,-556.9083 1013.3683,-582.4913 1013.3346,-584.9178 1013.2881,-587.436 1013.2335,-589.9623"/>
<polygon fill="#000000" stroke="#000000" points="1009.7292,-590.0939 1012.9753,-600.1792 1016.7269,-590.2709 1009.7292,-590.0939"/>
</g>
<!-- 19&#45;&gt;12 -->
<g id="edge3" class="edge">
<title>19&#45;&gt;12</title>
<path fill="none" stroke="#000000" d="M652.1859,-239.0899C590.584,-243.3577 469.9065,-255.9568 374.3683,-292 316.3148,-313.9015 295.2209,-317.4433 255.3683,-365 239.3252,-384.1444 229.3597,-410.6766 223.5219,-431.4915"/>
<polygon fill="#000000" stroke="#000000" points="220.1289,-430.6323 220.9791,-441.193 226.9002,-432.4072 220.1289,-430.6323"/>
</g>
<!-- 19&#45;&gt;15 -->
<g id="edge100" class="edge">
<title>19&#45;&gt;15</title>
<path fill="none" stroke="#000000" d="M699.9165,-254.9593C710.0266,-277.7828 729.4891,-317.7259 753.3683,-347 757.2571,-351.7674 761.8298,-356.4032 766.5005,-360.6747"/>
<polygon fill="#000000" stroke="#000000" points="764.501,-363.5734 774.3501,-367.4783 769.0858,-358.2838 764.501,-363.5734"/>
</g>
<!-- 19&#45;&gt;22 -->
<g id="edge17" class="edge">
<title>19&#45;&gt;22</title>
<path fill="none" stroke="#000000" d="M651.8336,-237.9031C551.6862,-240.7347 295.3358,-251.8145 221.3683,-292 183.1959,-312.7385 178.2816,-327.4898 156.3683,-365 67.6833,-516.8062 139.9345,-611.889 249.3683,-749.4913 275.6332,-782.5168 319.0605,-804.5336 351.5551,-817.3624"/>
<polygon fill="#000000" stroke="#000000" points="350.6665,-820.7689 361.2576,-821.0508 353.1539,-814.2258 350.6665,-820.7689"/>
</g>
<!-- 19&#45;&gt;24 -->
<g id="edge25" class="edge">
<title>19&#45;&gt;24</title>
<path fill="none" stroke="#000000" d="M727.7109,-245.8055C780.9471,-259.0691 881.6903,-284.169 940.1891,-298.7438"/>
<polygon fill="#000000" stroke="#000000" points="939.3507,-302.1418 949.9003,-301.1633 941.0431,-295.3494 939.3507,-302.1418"/>
</g>
<!-- 21 -->
<g id="node22" class="node">
<title>21</title>
<polygon fill="#d3d3d3" stroke="#d3d3d3" points="1447.8683,-744.9913 1394.8683,-744.9913 1394.8683,-691.9913 1447.8683,-691.9913 1447.8683,-744.9913"/>
<text text-anchor="middle" x="1421.3683" y="-714.7913" font-family="Times,serif" font-size="14.00" fill="#000000">4.3.3</text>
</g>
<!-- 21&#45;&gt;4 -->
<g id="edge96" class="edge">
<title>21&#45;&gt;4</title>
<path fill="none" stroke="#000000" d="M1398.8407,-745.0646C1371.7434,-775.9295 1323.823,-827.1246 1275.3683,-862.4913 1203.7686,-914.7513 1098.8552,-933.9782 1041.5223,-940.8449"/>
<polygon fill="#000000" stroke="#000000" points="1040.9339,-937.389 1031.3895,-941.9884 1041.7189,-944.3449 1040.9339,-937.389"/>
</g>
<!-- 21&#45;&gt;20 -->
<g id="edge9" class="edge">
<title>21&#45;&gt;20</title>
<path fill="none" stroke="#000000" d="M1448.0967,-727.6445C1475.3425,-737.5807 1514.791,-753.8551 1523.3683,-767.4913 1574.5311,-848.8297 1524.1397,-900.252 1464.3683,-975.4913 1428.2356,-1020.9744 1361.7424,-1041.8276 1318.5597,-1050.9465"/>
<polygon fill="#000000" stroke="#000000" points="1317.7748,-1047.534 1308.6512,-1052.92 1319.1422,-1054.3991 1317.7748,-1047.534"/>
</g>
<!-- 21&#45;&gt;23 -->
<g id="edge60" class="edge">
<title>21&#45;&gt;23</title>
<path fill="none" stroke="#000000" d="M1394.6894,-744.0238C1391.983,-746.0215 1389.1892,-747.8836 1386.3683,-749.4913 1316.484,-789.3186 1224.6242,-812.7608 1172.3881,-823.7776"/>
<polygon fill="#000000" stroke="#000000" points="1171.5759,-820.3713 1162.4874,-825.8165 1172.9879,-827.2274 1171.5759,-820.3713"/>
</g>
<!-- 22&#45;&gt;20 -->
<g id="edge1" class="edge">
<title>22&#45;&gt;20</title>
<path fill="none" stroke="#0000ff" stroke-dasharray="5,2" d="M388.2484,-849.3472C379.555,-878.1046 367.108,-935.4954 390.3683,-975.4913 405.2783,-1001.1291 419.933,-1000.0627 448.3683,-1008.4913 524.2074,-1030.971 1079.2414,-1050.9185 1236.1517,-1056.1552"/>
<polygon fill="#0000ff" stroke="#0000ff" points="1236.2159,-1059.6592 1246.3265,-1056.4927 1236.4481,-1052.663 1236.2159,-1059.6592"/>
<text text-anchor="middle" x="419.3683" y="-940.7913" font-family="Times,serif" font-size="14.00" fill="#000000">Indirect</text>
</g>
<!-- 23&#45;&gt;4 -->
<g id="edge62" class="edge">
<title>23&#45;&gt;4</title>
<path fill="none" stroke="#000000" d="M1100.3231,-858.2707C1082.1024,-873.9878 1058.9088,-893.9945 1039.4514,-910.7783"/>
<polygon fill="#000000" stroke="#000000" points="1036.9306,-908.3305 1031.6446,-917.5125 1041.5028,-913.631 1036.9306,-908.3305"/>
</g>
<!-- 23&#45;&gt;20 -->
<g id="edge70" class="edge">
<title>23&#45;&gt;20</title>
<path fill="none" stroke="#000000" d="M1151.6689,-862.9156C1177.8193,-903.3949 1223.2887,-973.7792 1251.7791,-1017.8806"/>
<polygon fill="#000000" stroke="#000000" points="1248.8737,-1019.8334 1257.24,-1026.3338 1254.7535,-1016.0349 1248.8737,-1019.8334"/>
</g>
<!-- 24&#45;&gt;4 -->
<g id="edge86" class="edge">
<title>24&#45;&gt;4</title>
<path fill="none" stroke="#000000" d="M1018.3786,-320.4236C1151.838,-364.4243 1638.3036,-543.7598 1509.3683,-782.4913 1478.5558,-839.5425 1445.7231,-834.2253 1387.3683,-862.4913 1270.427,-919.1354 1114.9611,-936.8418 1041.7852,-942.2256"/>
<polygon fill="#000000" stroke="#000000" points="1041.3333,-938.7485 1031.6002,-942.9337 1041.8189,-945.7316 1041.3333,-938.7485"/>
</g>
<!-- 24&#45;&gt;7 -->
<g id="edge45" class="edge">
<title>24&#45;&gt;7</title>
<path fill="none" stroke="#000000" d="M1008.5473,-325.1326C1068.2257,-366.0346 1218.4644,-482.4542 1159.3683,-582.4913 1082.1062,-713.2793 838.6885,-659.8823 659.3683,-687.4913 617.3453,-693.9613 569.7705,-702.7019 535.4902,-709.2527"/>
<polygon fill="#000000" stroke="#000000" points="534.4592,-705.8867 525.2991,-711.2105 535.7799,-712.761 534.4592,-705.8867"/>
</g>
<!-- 24&#45;&gt;10 -->
<g id="edge94" class="edge">
<title>24&#45;&gt;10</title>
<path fill="none" stroke="#000000" d="M971.9854,-327.3162C940.1569,-368.4993 859.8397,-472.4224 822.7237,-520.4471"/>
<polygon fill="#000000" stroke="#000000" points="819.8711,-518.4146 816.5253,-528.4673 825.4098,-522.6952 819.8711,-518.4146"/>
</g>
<!-- 24&#45;&gt;11 -->
<g id="edge2" class="edge">
<title>24&#45;&gt;11</title>
<path fill="none" stroke="#000000" d="M996.5329,-327.3355C1011.1393,-351.1491 1035.9769,-395.8385 1045.3683,-438 1059.3305,-500.6822 1068.6489,-522.6414 1045.3683,-582.4913 1043.6979,-586.7854 1041.2497,-590.8787 1038.429,-594.6629"/>
<polygon fill="#000000" stroke="#000000" points="1035.6458,-592.5326 1031.8168,-602.4114 1040.9705,-597.0765 1035.6458,-592.5326"/>
</g>
<!-- 24&#45;&gt;12 -->
<g id="edge30" class="edge">
<title>24&#45;&gt;12</title>
<path fill="none" stroke="#000000" d="M958.3626,-323.4233C938.2161,-333.8456 910.3281,-349.1497 887.3683,-365 866.8567,-379.1602 867.3379,-391.3238 844.3683,-401 743.8786,-443.332 420.0824,-458.069 280.9198,-462.5322"/>
<polygon fill="#000000" stroke="#000000" points="280.711,-459.0369 270.8254,-462.8482 280.9301,-466.0335 280.711,-459.0369"/>
</g>
<!-- 24&#45;&gt;15 -->
<g id="edge79" class="edge">
<title>24&#45;&gt;15</title>
<path fill="none" stroke="#000000" d="M954.4186,-321.8912C922.0271,-334.3363 871.0403,-353.926 835.5581,-367.5586"/>
<polygon fill="#000000" stroke="#000000" points="834.0693,-364.3812 825.9898,-371.2349 836.5799,-370.9155 834.0693,-364.3812"/>
</g>
<!-- 24&#45;&gt;22 -->
<g id="edge82" class="edge">
<title>24&#45;&gt;22</title>
<path fill="none" stroke="#000000" d="M1014.5208,-322.4546C1092.4635,-357.675 1295.7662,-463.212 1235.3683,-582.4913 1199.7488,-652.8357 1146.0837,-629.7701 1092.3683,-687.4913 1070.191,-711.3224 1080.3485,-731.2754 1053.3683,-749.4913 979.7537,-799.1926 575.7143,-799.3764 566.3683,-800.4913 523.6374,-805.5887 475.4611,-814.553 440.9886,-821.5349"/>
<polygon fill="#000000" stroke="#000000" points="439.8458,-818.1962 430.7514,-823.6316 441.2503,-825.0539 439.8458,-818.1962"/>
</g>
</g>
</svg>
