<?xml version="1.0" encoding="UTF-8" standalone="no"?>
<!DOCTYPE svg PUBLIC "-//W3C//DTD SVG 1.1//EN"
 "http://www.w3.org/Graphics/SVG/1.1/DTD/svg11.dtd">
<!-- Generated by graphviz version 2.40.1 (0)
 -->
<!-- Title: fast Pages: 1 -->
<svg width="238pt" height="406pt"
 viewBox="0.00 0.00 238.00 406.49" xmlns="http://www.w3.org/2000/svg" xmlns:xlink="http://www.w3.org/1999/xlink">
<g id="graph0" class="graph" transform="scale(1 1) rotate(0) translate(4 402.4913)">
<title>fast</title>
<polygon fill="#ffffff" stroke="transparent" points="-4,4 -4,-402.4913 234,-402.4913 234,4 -4,4"/>
<text text-anchor="middle" x="115" y="-383.2913" font-family="Times,serif" font-size="14.00" fill="#000000">fast&#45;4.4 (2020&#45;05&#45;16) [amd64]</text>
<!-- 0 -->
<g id="node1" class="node">
<title>0</title>
<polygon fill="#9acd32" stroke="#9acd32" points="98.1856,-375.4913 45.1856,-375.4913 45.1856,-322.4913 98.1856,-322.4913 98.1856,-375.4913"/>
<text text-anchor="middle" x="71.6856" y="-345.2913" font-family="Times,serif" font-size="14.00" fill="#000000">4.4.3</text>
</g>
<!-- 1 -->
<g id="node2" class="node">
<title>1</title>
<ellipse fill="#d3d3d3" stroke="#d3d3d3" cx="60.6856" cy="-180.4913" rx="40.0939" ry="18"/>
<text text-anchor="middle" x="60.6856" y="-176.7913" font-family="Times,serif" font-size="14.00" fill="#000000">4.3.18</text>
</g>
<!-- 1&#45;&gt;0 -->
<g id="edge3" class="edge">
<title>1&#45;&gt;0</title>
<path fill="none" stroke="#0000ff" stroke-dasharray="5,2" d="M61.2365,-198.6338C61.8525,-217.0104 62.9915,-246.2459 64.6856,-271.4913 65.5759,-284.76 66.8166,-299.2834 68.0065,-312.1347"/>
<polygon fill="#0000ff" stroke="#0000ff" points="64.5581,-312.8467 68.9852,-322.4723 71.527,-312.1869 64.5581,-312.8467"/>
<text text-anchor="middle" x="93.6856" y="-249.7913" font-family="Times,serif" font-size="14.00" fill="#000000">Indirect</text>
</g>
<!-- 3 -->
<g id="node4" class="node">
<title>3</title>
<ellipse fill="#d3d3d3" stroke="#d3d3d3" cx="171.6856" cy="-253.4913" rx="40.0939" ry="18"/>
<text text-anchor="middle" x="171.6856" y="-249.7913" font-family="Times,serif" font-size="14.00" fill="#000000">4.3.19</text>
</g>
<!-- 1&#45;&gt;3 -->
<g id="edge7" class="edge">
<title>1&#45;&gt;3</title>
<path fill="none" stroke="#000000" d="M83.4159,-195.4401C99.8771,-206.2659 122.3305,-221.0325 140.4715,-232.9632"/>
<polygon fill="#000000" stroke="#000000" points="138.7073,-235.9919 148.9856,-238.5625 142.5537,-230.1434 138.7073,-235.9919"/>
</g>
<!-- 2 -->
<g id="node3" class="node">
<title>2</title>
<ellipse fill="#d3d3d3" stroke="#d3d3d3" cx="98.6856" cy="-18" rx="40.0939" ry="18"/>
<text text-anchor="middle" x="98.6856" y="-14.3" font-family="Times,serif" font-size="14.00" fill="#000000">4.3.12</text>
</g>
<!-- 2&#45;&gt;1 -->
<g id="edge1" class="edge">
<title>2&#45;&gt;1</title>
<path fill="none" stroke="#000000" d="M70.0992,-30.9238C53.5536,-40.089 34.1759,-54.1219 24.6856,-73 14.2071,-93.8438 18.0193,-103.1345 24.6856,-125.4913 27.8161,-135.9902 33.6612,-146.3493 39.7448,-155.1971"/>
<polygon fill="#000000" stroke="#000000" points="37.0848,-157.4889 45.8161,-163.4902 42.733,-153.3539 37.0848,-157.4889"/>
</g>
<!-- 2&#45;&gt;3 -->
<g id="edge2" class="edge">
<title>2&#45;&gt;3</title>
<path fill="none" stroke="#000000" d="M127.2719,-30.9238C143.8175,-40.089 163.1952,-54.1219 172.6856,-73 197.3449,-122.0523 187.7824,-188.5038 179.2902,-225.5627"/>
<polygon fill="#000000" stroke="#000000" points="175.8034,-225.0891 176.8406,-235.633 182.6051,-226.7436 175.8034,-225.0891"/>
</g>
<!-- 4 -->
<g id="node5" class="node">
<title>4</title>
<polygon fill="#fa8072" stroke="#fa8072" points="148.5116,-104.8605 98.6856,-117.4157 48.8595,-104.8605 67.8913,-84.5458 129.4798,-84.5458 148.5116,-104.8605"/>
<polygon fill="none" stroke="#fa8072" points="156.1207,-107.1049 98.6856,-121.5775 41.2504,-107.1049 66.1677,-80.508 131.2034,-80.508 156.1207,-107.1049"/>
<polygon fill="none" stroke="#fa8072" points="163.7298,-109.3494 98.6856,-125.7393 33.6413,-109.3494 64.4441,-76.4702 132.927,-76.4702 163.7298,-109.3494"/>
<text text-anchor="middle" x="98.6856" y="-95.5456" font-family="Times,serif" font-size="14.00" fill="#000000">4.3.13</text>
</g>
<!-- 2&#45;&gt;4 -->
<g id="edge5" class="edge">
<title>2&#45;&gt;4</title>
<path fill="none" stroke="#000000" d="M98.6856,-36.031C98.6856,-44.9368 98.6856,-55.9666 98.6856,-66.307"/>
<polygon fill="#000000" stroke="#000000" points="95.1857,-66.3133 98.6856,-76.3134 102.1857,-66.3134 95.1857,-66.3133"/>
</g>
<!-- 3&#45;&gt;0 -->
<g id="edge6" class="edge">
<title>3&#45;&gt;0</title>
<path fill="none" stroke="#0000ff" stroke-dasharray="5,2" d="M154.2669,-270.1261C140.8736,-282.9167 121.956,-300.983 105.6057,-316.5975"/>
<polygon fill="#0000ff" stroke="#0000ff" points="103.1178,-314.1338 98.3031,-323.5715 107.9524,-319.1962 103.1178,-314.1338"/>
<text text-anchor="middle" x="161.6856" y="-293.2913" font-family="Times,serif" font-size="14.00" fill="#000000">Indirect</text>
</g>
<!-- 4&#45;&gt;1 -->
<g id="edge8" class="edge">
<title>4&#45;&gt;1</title>
<path fill="none" stroke="#0000ff" stroke-width="2" d="M87.4898,-123.1826C83.0566,-132.6611 77.9372,-143.6066 73.3679,-153.3759"/>
<polygon fill="#0000ff" stroke="#0000ff" stroke-width="2" points="70.0941,-152.1143 69.0278,-162.6553 76.4348,-155.08 70.0941,-152.1143"/>
</g>
<!-- 4&#45;&gt;3 -->
<g id="edge4" class="edge">
<title>4&#45;&gt;3</title>
<path fill="none" stroke="#0000ff" stroke-width="2" d="M109.9318,-123.0085C123.1549,-150.9483 145.0514,-197.2145 158.9055,-226.4877"/>
<polygon fill="#0000ff" stroke="#0000ff" stroke-width="2" points="155.83,-228.1711 163.2714,-235.7127 162.1572,-225.1766 155.83,-228.1711"/>
</g>
</g>
</svg>
