<?xml version="1.0" encoding="UTF-8" standalone="no"?>
<!DOCTYPE svg PUBLIC "-//W3C//DTD SVG 1.1//EN"
 "http://www.w3.org/Graphics/SVG/1.1/DTD/svg11.dtd">
<!-- Generated by graphviz version 2.40.1 (0)
 -->
<!-- Title: fast Pages: 1 -->
<svg width="1494pt" height="1119pt"
 viewBox="0.00 0.00 1493.76 1119.49" xmlns="http://www.w3.org/2000/svg" xmlns:xlink="http://www.w3.org/1999/xlink">
<g id="graph0" class="graph" transform="scale(1 1) rotate(0) translate(4 1115.4913)">
<title>fast</title>
<polygon fill="#ffffff" stroke="transparent" points="-4,4 -4,-1115.4913 1489.7591,-1115.4913 1489.7591,4 -4,4"/>
<text text-anchor="middle" x="742.8795" y="-1096.2913" font-family="Times,serif" font-size="14.00" fill="#000000">fast&#45;4.3 (2020&#45;05&#45;16) [amd64]</text>
<!-- 0 -->
<g id="node1" class="node">
<title>0</title>
<ellipse fill="#d3d3d3" stroke="#d3d3d3" cx="839.7591" cy="-545.4913" rx="40.0939" ry="18"/>
<text text-anchor="middle" x="839.7591" y="-541.7913" font-family="Times,serif" font-size="14.00" fill="#000000">4.2.27</text>
</g>
<!-- 5 -->
<g id="node6" class="node">
<title>5</title>
<polygon fill="#9acd32" stroke="#9acd32" points="568.7591,-975.4913 506.7591,-975.4913 506.7591,-913.4913 568.7591,-913.4913 568.7591,-975.4913"/>
<text text-anchor="middle" x="537.7591" y="-940.7913" font-family="Times,serif" font-size="14.00" fill="#000000">4.3.18</text>
</g>
<!-- 0&#45;&gt;5 -->
<g id="edge20" class="edge">
<title>0&#45;&gt;5</title>
<path fill="none" stroke="#0000ff" stroke-dasharray="5,2" d="M836.7783,-563.8377C825.4529,-632.5533 784.4861,-871.9716 759.7591,-895.4913 726.4041,-927.2176 702.7454,-903.7268 657.7591,-913.4913 631.3825,-919.2164 602.0436,-926.7739 578.9782,-932.9934"/>
<polygon fill="#0000ff" stroke="#0000ff" points="577.9124,-929.656 569.1804,-935.6564 579.7484,-936.411 577.9124,-929.656"/>
<text text-anchor="middle" x="843.7591" y="-714.7913" font-family="Times,serif" font-size="14.00" fill="#000000">Indirect</text>
</g>
<!-- 11 -->
<g id="node12" class="node">
<title>11</title>
<ellipse fill="#d3d3d3" stroke="#d3d3d3" cx="1042.7591" cy="-831.4913" rx="40.0939" ry="18"/>
<text text-anchor="middle" x="1042.7591" y="-827.7913" font-family="Times,serif" font-size="14.00" fill="#000000">4.2.33</text>
</g>
<!-- 0&#45;&gt;11 -->
<g id="edge57" class="edge">
<title>0&#45;&gt;11</title>
<path fill="none" stroke="#000000" d="M854.7444,-562.515C876.9489,-588.2924 919.05,-639.3392 947.7591,-687.4913 971.4931,-727.2989 963.8279,-744.7731 990.7591,-782.4913 997.6022,-792.0754 1006.5214,-801.2899 1015.0356,-809.0909"/>
<polygon fill="#000000" stroke="#000000" points="1012.8559,-811.8353 1022.6697,-815.8277 1017.4875,-806.5867 1012.8559,-811.8353"/>
</g>
<!-- 12 -->
<g id="node13" class="node">
<title>12</title>
<ellipse fill="#d3d3d3" stroke="#d3d3d3" cx="1137.7591" cy="-618.4913" rx="40.0939" ry="18"/>
<text text-anchor="middle" x="1137.7591" y="-614.7913" font-family="Times,serif" font-size="14.00" fill="#000000">4.2.28</text>
</g>
<!-- 0&#45;&gt;12 -->
<g id="edge46" class="edge">
<title>0&#45;&gt;12</title>
<path fill="none" stroke="#000000" d="M875.1138,-554.152C929.1843,-567.3975 1032.4135,-592.6852 1092.0858,-607.3029"/>
<polygon fill="#000000" stroke="#000000" points="1091.4413,-610.7484 1101.9869,-609.7283 1093.1068,-603.9494 1091.4413,-610.7484"/>
</g>
<!-- 17 -->
<g id="node18" class="node">
<title>17</title>
<ellipse fill="#d3d3d3" stroke="#d3d3d3" cx="694.7591" cy="-718.4913" rx="40.0939" ry="18"/>
<text text-anchor="middle" x="694.7591" y="-714.7913" font-family="Times,serif" font-size="14.00" fill="#000000">4.2.29</text>
</g>
<!-- 0&#45;&gt;17 -->
<g id="edge40" class="edge">
<title>0&#45;&gt;17</title>
<path fill="none" stroke="#000000" d="M819.8311,-561.5806C812.8826,-567.5493 805.2144,-574.5589 798.7591,-581.4913 765.1554,-617.5784 731.6315,-664.1122 712.066,-692.601"/>
<polygon fill="#000000" stroke="#000000" points="708.959,-690.9453 706.2216,-701.1804 714.7442,-694.8863 708.959,-690.9453"/>
</g>
<!-- 1 -->
<g id="node2" class="node">
<title>1</title>
<polygon fill="#d3d3d3" stroke="#d3d3d3" points="157.2591,-744.9913 104.2591,-744.9913 104.2591,-691.9913 157.2591,-691.9913 157.2591,-744.9913"/>
<text text-anchor="middle" x="130.7591" y="-714.7913" font-family="Times,serif" font-size="14.00" fill="#000000">4.3.9</text>
</g>
<!-- 3 -->
<g id="node4" class="node">
<title>3</title>
<polygon fill="#9acd32" stroke="#9acd32" points="431.7591,-1088.4913 369.7591,-1088.4913 369.7591,-1026.4913 431.7591,-1026.4913 431.7591,-1088.4913"/>
<text text-anchor="middle" x="400.7591" y="-1053.7913" font-family="Times,serif" font-size="14.00" fill="#000000">4.3.19</text>
</g>
<!-- 1&#45;&gt;3 -->
<g id="edge61" class="edge">
<title>1&#45;&gt;3</title>
<path fill="none" stroke="#000000" d="M138.3816,-745.1335C153.6484,-794.8913 191.9126,-903.4164 253.7591,-975.4913 282.0425,-1008.4524 327.0326,-1030.78 359.7975,-1043.7112"/>
<polygon fill="#000000" stroke="#000000" points="358.9505,-1047.1339 369.5414,-1047.424 361.4431,-1040.5927 358.9505,-1047.1339"/>
</g>
<!-- 1&#45;&gt;5 -->
<g id="edge39" class="edge">
<title>1&#45;&gt;5</title>
<path fill="none" stroke="#000000" d="M144.9968,-745.265C162.5016,-776.3205 194.6254,-827.6965 232.7591,-862.4913 254.383,-882.2219 262.3622,-885.1811 289.7591,-895.4913 359.7441,-921.8284 446.4254,-934.8131 496.5782,-940.5525"/>
<polygon fill="#000000" stroke="#000000" points="496.3832,-944.0522 506.7066,-941.6695 497.1506,-937.0943 496.3832,-944.0522"/>
</g>
<!-- 6 -->
<g id="node7" class="node">
<title>6</title>
<polygon fill="#9acd32" stroke="#9acd32" points="372.7591,-862.4913 310.7591,-862.4913 310.7591,-800.4913 372.7591,-800.4913 372.7591,-862.4913"/>
<text text-anchor="middle" x="341.7591" y="-827.7913" font-family="Times,serif" font-size="14.00" fill="#000000">4.3.13</text>
</g>
<!-- 1&#45;&gt;6 -->
<g id="edge74" class="edge">
<title>1&#45;&gt;6</title>
<path fill="none" stroke="#000000" d="M157.2604,-742.6858C160.3716,-745.1076 163.5742,-747.4294 166.7591,-749.4913 210.1943,-777.6115 264.8059,-801.6099 301.3653,-816.2475"/>
<polygon fill="#000000" stroke="#000000" points="300.1265,-819.5213 310.713,-819.9436 302.7005,-813.0117 300.1265,-819.5213"/>
</g>
<!-- 2 -->
<g id="node3" class="node">
<title>2</title>
<polygon fill="#fa8072" stroke="#fa8072" points="492.5852,-469.8605 442.7591,-482.4157 392.933,-469.8605 411.9649,-449.5458 473.5533,-449.5458 492.5852,-469.8605"/>
<polygon fill="none" stroke="#fa8072" points="500.1943,-472.1049 442.7591,-486.5775 385.3239,-472.1049 410.2413,-445.508 475.2769,-445.508 500.1943,-472.1049"/>
<polygon fill="none" stroke="#fa8072" points="507.8034,-474.3494 442.7591,-490.7393 377.7148,-474.3494 408.5177,-441.4702 477.0005,-441.4702 507.8034,-474.3494"/>
<text text-anchor="middle" x="442.7591" y="-460.5456" font-family="Times,serif" font-size="14.00" fill="#000000">4.2.26</text>
</g>
<!-- 2&#45;&gt;0 -->
<g id="edge5" class="edge">
<title>2&#45;&gt;0</title>
<path fill="none" stroke="#0000ff" stroke-width="2" d="M496.4544,-477.2354C516.2781,-481.7811 538.9737,-486.6933 559.7591,-490.4913 659.883,-508.7865 687.2862,-501.7502 785.7591,-527.4913 789.9001,-528.5738 794.1857,-529.8052 798.4483,-531.1042"/>
<polygon fill="#0000ff" stroke="#0000ff" stroke-width="2" points="797.6839,-534.5335 808.2741,-534.2196 799.7996,-527.8609 797.6839,-534.5335"/>
</g>
<!-- 2&#45;&gt;5 -->
<g id="edge66" class="edge">
<title>2&#45;&gt;5</title>
<path fill="none" stroke="#ff0000" stroke-width="2" d="M381.5955,-475.4672C283.8743,-497.0545 95.3538,-554.5533 14.7591,-687.4913 .4736,-711.0547 5.3223,-723.602 14.7591,-749.4913 37.2289,-811.1362 55.8432,-825.1006 109.7591,-862.4913 172.4541,-905.9703 402.0226,-931.8374 496.6074,-940.856"/>
<polygon fill="#ff0000" stroke="#ff0000" stroke-width="2" points="496.3764,-944.3496 506.6596,-941.7992 497.0304,-937.3802 496.3764,-944.3496"/>
<text text-anchor="middle" x="60.7591" y="-658.2913" font-family="Times,serif" font-size="14.00" fill="#000000">Direct</text>
</g>
<!-- 2&#45;&gt;11 -->
<g id="edge81" class="edge">
<title>2&#45;&gt;11</title>
<path fill="none" stroke="#0000ff" stroke-width="2" d="M416.4026,-484.1121C409.312,-490.9725 402.5603,-499.2781 398.7591,-508.4913 371.4422,-574.7005 353.4703,-620.5448 405.7591,-669.4913 446.736,-707.849 478.957,-665.8819 530.7591,-687.4913 572.9265,-705.0815 570.8182,-731.3675 612.7591,-749.4913 736.9097,-803.14 780.2421,-773.4577 912.7591,-800.4913 941.1322,-806.2794 972.7381,-813.7918 997.6812,-819.9716"/>
<polygon fill="#0000ff" stroke="#0000ff" stroke-width="2" points="997.0359,-823.4178 1007.5857,-822.442 998.73,-816.6259 997.0359,-823.4178"/>
</g>
<!-- 2&#45;&gt;12 -->
<g id="edge90" class="edge">
<title>2&#45;&gt;12</title>
<path fill="none" stroke="#0000ff" stroke-width="2" d="M492.9571,-478.1824C524.0278,-486.8386 564.7323,-498.2327 600.7591,-508.4913 685.3094,-532.5669 704.9568,-544.3508 790.7591,-563.4913 895.94,-586.9547 1021.2201,-604.2286 1088.7568,-612.6805"/>
<polygon fill="#0000ff" stroke="#0000ff" stroke-width="2" points="1088.336,-616.1551 1098.6907,-613.912 1089.1973,-609.2082 1088.336,-616.1551"/>
</g>
<!-- 2&#45;&gt;17 -->
<g id="edge35" class="edge">
<title>2&#45;&gt;17</title>
<path fill="none" stroke="#0000ff" stroke-width="2" d="M461.6592,-486.0502C495.3093,-524.4739 568.4093,-606.1669 635.7591,-669.4913 645.4596,-678.612 656.5843,-688.084 666.5403,-696.2411"/>
<polygon fill="#0000ff" stroke="#0000ff" stroke-width="2" points="664.5982,-699.1721 674.5716,-702.7472 669.0045,-693.7329 664.5982,-699.1721"/>
</g>
<!-- 4 -->
<g id="node5" class="node">
<title>4</title>
<ellipse fill="#d3d3d3" stroke="#d3d3d3" cx="560.7591" cy="-18" rx="40.0939" ry="18"/>
<text text-anchor="middle" x="560.7591" y="-14.3" font-family="Times,serif" font-size="14.00" fill="#000000">4.2.16</text>
</g>
<!-- 4&#45;&gt;0 -->
<g id="edge2" class="edge">
<title>4&#45;&gt;0</title>
<path fill="none" stroke="#000000" d="M520.9164,-21.0354C418.9933,-29.332 156.7591,-54.249 156.7591,-91 156.7591,-91 156.7591,-91 156.7591,-346.5 156.7591,-416.4417 307.0997,-478.4463 338.7591,-490.4913 420.363,-521.5379 679.1895,-537.6029 789.3446,-543.1774"/>
<polygon fill="#000000" stroke="#000000" points="789.3681,-546.6828 799.5297,-543.6842 789.7161,-539.6914 789.3681,-546.6828"/>
</g>
<!-- 4&#45;&gt;2 -->
<g id="edge10" class="edge">
<title>4&#45;&gt;2</title>
<path fill="none" stroke="#000000" d="M521.2429,-21.757C426.6034,-31.2855 194.7591,-57.9959 194.7591,-91 194.7591,-91 194.7591,-91 194.7591,-346.5 194.7591,-388.9482 314.8215,-429.3297 387.8701,-449.9704"/>
<polygon fill="#000000" stroke="#000000" points="387.2757,-453.438 397.8482,-452.75 389.1542,-446.6948 387.2757,-453.438"/>
</g>
<!-- 8 -->
<g id="node9" class="node">
<title>8</title>
<ellipse fill="#d3d3d3" stroke="#d3d3d3" cx="1038.7591" cy="-91" rx="40.0939" ry="18"/>
<text text-anchor="middle" x="1038.7591" y="-87.3" font-family="Times,serif" font-size="14.00" fill="#000000">4.2.18</text>
</g>
<!-- 4&#45;&gt;8 -->
<g id="edge33" class="edge">
<title>4&#45;&gt;8</title>
<path fill="none" stroke="#000000" d="M600.6265,-21.0376C661.0657,-25.9748 779.3694,-36.94 878.7591,-54 918.0605,-60.746 962.1761,-71.1648 994.1145,-79.2297"/>
<polygon fill="#000000" stroke="#000000" points="993.4801,-82.6798 1004.0347,-81.7578 995.2088,-75.8966 993.4801,-82.6798"/>
</g>
<!-- 10 -->
<g id="node11" class="node">
<title>10</title>
<ellipse fill="#d3d3d3" stroke="#d3d3d3" cx="936.7591" cy="-164" rx="40.0939" ry="18"/>
<text text-anchor="middle" x="936.7591" y="-160.3" font-family="Times,serif" font-size="14.00" fill="#000000">4.2.19</text>
</g>
<!-- 4&#45;&gt;10 -->
<g id="edge31" class="edge">
<title>4&#45;&gt;10</title>
<path fill="none" stroke="#000000" d="M591.2102,-29.8241C658.7227,-56.0391 820.9625,-119.0364 896.634,-148.4195"/>
<polygon fill="#000000" stroke="#000000" points="895.6977,-151.8105 906.2865,-152.1676 898.2315,-145.2852 895.6977,-151.8105"/>
</g>
<!-- 4&#45;&gt;12 -->
<g id="edge100" class="edge">
<title>4&#45;&gt;12</title>
<path fill="none" stroke="#000000" d="M601.1,-19.0386C779.1359,-23.8824 1485.7591,-45.9453 1485.7591,-91 1485.7591,-91 1485.7591,-91 1485.7591,-545.4913 1485.7591,-575.6442 1283.0546,-602.2927 1187.0564,-613.2223"/>
<polygon fill="#000000" stroke="#000000" points="1186.5484,-609.7573 1177.0026,-614.3539 1187.3314,-616.7134 1186.5484,-609.7573"/>
</g>
<!-- 15 -->
<g id="node16" class="node">
<title>15</title>
<ellipse fill="#d3d3d3" stroke="#d3d3d3" cx="794.7591" cy="-383" rx="40.0939" ry="18"/>
<text text-anchor="middle" x="794.7591" y="-379.3" font-family="Times,serif" font-size="14.00" fill="#000000">4.2.25</text>
</g>
<!-- 4&#45;&gt;15 -->
<g id="edge3" class="edge">
<title>4&#45;&gt;15</title>
<path fill="none" stroke="#000000" d="M520.4358,-19.7657C440.7518,-24.359 270.7591,-40.1205 270.7591,-91 270.7591,-91 270.7591,-91 270.7591,-200.5 270.7591,-202.0937 629.3178,-325.9305 753.2303,-368.679"/>
<polygon fill="#000000" stroke="#000000" points="752.1746,-372.0172 762.7693,-371.9696 754.4574,-365.3998 752.1746,-372.0172"/>
</g>
<!-- 19 -->
<g id="node20" class="node">
<title>19</title>
<ellipse fill="#d3d3d3" stroke="#d3d3d3" cx="753.7591" cy="-237" rx="40.0939" ry="18"/>
<text text-anchor="middle" x="753.7591" y="-233.3" font-family="Times,serif" font-size="14.00" fill="#000000">4.2.20</text>
</g>
<!-- 4&#45;&gt;19 -->
<g id="edge58" class="edge">
<title>4&#45;&gt;19</title>
<path fill="none" stroke="#000000" d="M575.583,-34.8209C609.4734,-73.2768 692.7317,-167.7513 732.2581,-212.6025"/>
<polygon fill="#000000" stroke="#000000" points="729.6471,-214.9335 738.8847,-220.1218 734.8988,-210.3053 729.6471,-214.9335"/>
</g>
<!-- 22 -->
<g id="node23" class="node">
<title>22</title>
<ellipse fill="#d3d3d3" stroke="#d3d3d3" cx="1100.7591" cy="-310" rx="40.0939" ry="18"/>
<text text-anchor="middle" x="1100.7591" y="-306.3" font-family="Times,serif" font-size="14.00" fill="#000000">4.2.21</text>
</g>
<!-- 4&#45;&gt;22 -->
<g id="edge25" class="edge">
<title>4&#45;&gt;22</title>
<path fill="none" stroke="#000000" d="M601.0494,-19.4094C718.2082,-23.8887 1052.7156,-39.5182 1087.7591,-73 1144.6428,-127.3488 1123.9114,-232.4498 1109.6945,-282.3748"/>
<polygon fill="#000000" stroke="#000000" points="1106.2825,-281.57 1106.7899,-292.1526 1112.9927,-283.5633 1106.2825,-281.57"/>
</g>
<!-- 5&#45;&gt;3 -->
<g id="edge1" class="edge">
<title>5&#45;&gt;3</title>
<path fill="none" stroke="#0000ff" stroke-dasharray="5,2" d="M506.5321,-972.6771C493.7481,-984.0026 478.7069,-997.0589 464.7591,-1008.4913 456.8855,-1014.9449 448.3185,-1021.6877 440.0879,-1028.0341"/>
<polygon fill="#0000ff" stroke="#0000ff" points="437.8184,-1025.3637 432.0077,-1034.223 442.0748,-1030.9209 437.8184,-1025.3637"/>
<text text-anchor="middle" x="510.7591" y="-997.2913" font-family="Times,serif" font-size="14.00" fill="#000000">Indirect</text>
</g>
<!-- 6&#45;&gt;3 -->
<g id="edge98" class="edge">
<title>6&#45;&gt;3</title>
<path fill="none" stroke="#000000" d="M349.3695,-862.5778C358.1047,-897.9813 373.0022,-957.5235 386.7591,-1008.4913 387.4695,-1011.1232 388.2117,-1013.8314 388.9677,-1016.5594"/>
<polygon fill="#000000" stroke="#000000" points="385.6638,-1017.7405 391.7342,-1026.4239 392.4038,-1015.8502 385.6638,-1017.7405"/>
</g>
<!-- 6&#45;&gt;5 -->
<g id="edge43" class="edge">
<title>6&#45;&gt;5</title>
<path fill="none" stroke="#000000" d="M372.8159,-849.3965C406.5497,-868.845 460.5547,-899.9806 497.5166,-921.2902"/>
<polygon fill="#000000" stroke="#000000" points="496.1122,-924.5206 506.5237,-926.4831 499.6085,-918.4562 496.1122,-924.5206"/>
</g>
<!-- 7 -->
<g id="node8" class="node">
<title>7</title>
<polygon fill="#d3d3d3" stroke="#d3d3d3" points="522.2591,-744.9913 469.2591,-744.9913 469.2591,-691.9913 522.2591,-691.9913 522.2591,-744.9913"/>
<text text-anchor="middle" x="495.7591" y="-714.7913" font-family="Times,serif" font-size="14.00" fill="#000000">4.3.1</text>
</g>
<!-- 7&#45;&gt;3 -->
<g id="edge48" class="edge">
<title>7&#45;&gt;3</title>
<path fill="none" stroke="#000000" d="M489.8378,-745.1727C478.1841,-796.6254 450.6996,-912.9235 419.7591,-1008.4913 418.8765,-1011.2175 417.9244,-1014.0123 416.9333,-1016.8178"/>
<polygon fill="#000000" stroke="#000000" points="413.6082,-1015.7198 413.4571,-1026.3135 420.1815,-1018.1262 413.6082,-1015.7198"/>
</g>
<!-- 7&#45;&gt;5 -->
<g id="edge91" class="edge">
<title>7&#45;&gt;5</title>
<path fill="none" stroke="#000000" d="M522.5578,-739.9766C527.1831,-743.3266 532.0276,-746.6236 536.7591,-749.4913 552.7407,-759.1775 564.7658,-751.6999 574.7591,-767.4913 601.0684,-809.0652 581.2991,-866.0713 562.0084,-904.0344"/>
<polygon fill="#000000" stroke="#000000" points="558.7144,-902.7772 557.1426,-913.2548 564.9053,-906.0443 558.7144,-902.7772"/>
</g>
<!-- 7&#45;&gt;6 -->
<g id="edge102" class="edge">
<title>7&#45;&gt;6</title>
<path fill="none" stroke="#000000" d="M468.8833,-742.1577C465.8422,-744.6784 462.7584,-747.1678 459.7591,-749.4913 434.4023,-769.1346 404.7508,-789.7308 381.5147,-805.3677"/>
<polygon fill="#000000" stroke="#000000" points="379.3076,-802.6334 372.9457,-811.1056 383.2023,-808.4499 379.3076,-802.6334"/>
</g>
<!-- 8&#45;&gt;0 -->
<g id="edge41" class="edge">
<title>8&#45;&gt;0</title>
<path fill="none" stroke="#000000" d="M1060.7605,-106.26C1073.5667,-116.206 1089.0505,-130.2387 1098.7591,-146 1142.8164,-217.5244 1181.1138,-250.0663 1149.7591,-328 1112.3919,-420.8779 1077.2542,-435.2539 993.7591,-490.4913 973.9325,-503.6078 966.1051,-501.38 943.7591,-509.4913 923.4179,-516.8748 900.7192,-524.7715 881.7305,-531.2821"/>
<polygon fill="#000000" stroke="#000000" points="880.5009,-528.0035 872.1709,-534.5503 882.7654,-534.6271 880.5009,-528.0035"/>
</g>
<!-- 8&#45;&gt;2 -->
<g id="edge17" class="edge">
<title>8&#45;&gt;2</title>
<path fill="none" stroke="#000000" d="M999.0456,-94.1293C857.1039,-106.2438 378.8694,-155.3664 294.7591,-273 251.4415,-333.5824 339.2225,-402.035 397.214,-438.3607"/>
<polygon fill="#000000" stroke="#000000" points="395.5362,-441.4378 405.8877,-443.6956 399.2036,-435.4753 395.5362,-441.4378"/>
</g>
<!-- 8&#45;&gt;10 -->
<g id="edge53" class="edge">
<title>8&#45;&gt;10</title>
<path fill="none" stroke="#000000" d="M1017.1275,-106.4814C1002.5224,-116.9341 983.0428,-130.8754 966.9194,-142.4147"/>
<polygon fill="#000000" stroke="#000000" points="964.4545,-139.8747 958.3595,-148.5409 968.5284,-145.5671 964.4545,-139.8747"/>
</g>
<!-- 8&#45;&gt;12 -->
<g id="edge79" class="edge">
<title>8&#45;&gt;12</title>
<path fill="none" stroke="#000000" d="M1077.9376,-95.5027C1165.9635,-106.1487 1371.7591,-134.2224 1371.7591,-164 1371.7591,-164 1371.7591,-164 1371.7591,-310 1371.7591,-380.2535 1257.7591,-349.2465 1257.7591,-419.5 1257.7591,-419.5 1257.7591,-419.5 1257.7591,-545.4913 1257.7591,-564.6048 1212.7623,-587.683 1177.8764,-602.7033"/>
<polygon fill="#000000" stroke="#000000" points="1176.2075,-599.6084 1168.3506,-606.7161 1178.9251,-606.0593 1176.2075,-599.6084"/>
</g>
<!-- 8&#45;&gt;15 -->
<g id="edge44" class="edge">
<title>8&#45;&gt;15</title>
<path fill="none" stroke="#000000" d="M1054.6286,-107.5545C1073.6978,-129.551 1101.09,-169.3225 1083.7591,-201 1056.0461,-251.6539 903.2366,-330.5713 831.708,-365.4318"/>
<polygon fill="#000000" stroke="#000000" points="830.0558,-362.3431 822.5837,-369.8543 833.109,-368.6422 830.0558,-362.3431"/>
</g>
<!-- 8&#45;&gt;19 -->
<g id="edge12" class="edge">
<title>8&#45;&gt;19</title>
<path fill="none" stroke="#000000" d="M1004.7709,-100.7295C973.4922,-110.2943 926.2575,-126.3018 887.7591,-146 848.9047,-165.8803 807.91,-195.1027 781.6512,-215.0325"/>
<polygon fill="#000000" stroke="#000000" points="779.473,-212.2922 773.6648,-221.1531 783.731,-217.8482 779.473,-212.2922"/>
</g>
<!-- 8&#45;&gt;22 -->
<g id="edge26" class="edge">
<title>8&#45;&gt;22</title>
<path fill="none" stroke="#000000" d="M1043.8328,-108.9217C1054.6456,-147.1153 1080.0218,-236.7505 1092.9264,-282.3329"/>
<polygon fill="#000000" stroke="#000000" points="1089.6105,-283.4694 1095.7022,-292.1378 1096.3458,-281.5626 1089.6105,-283.4694"/>
</g>
<!-- 9 -->
<g id="node10" class="node">
<title>9</title>
<polygon fill="#d3d3d3" stroke="#d3d3d3" points="903.2591,-857.9913 850.2591,-857.9913 850.2591,-804.9913 903.2591,-804.9913 903.2591,-857.9913"/>
<text text-anchor="middle" x="876.7591" y="-827.7913" font-family="Times,serif" font-size="14.00" fill="#000000">4.3.0</text>
</g>
<!-- 9&#45;&gt;5 -->
<g id="edge6" class="edge">
<title>9&#45;&gt;5</title>
<path fill="none" stroke="#000000" d="M866.0373,-858.1409C859.312,-871.4464 849.3175,-886.5693 835.7591,-895.4913 794.17,-922.8585 650.2897,-936.5875 578.7723,-941.8521"/>
<polygon fill="#000000" stroke="#000000" points="578.4911,-938.3632 568.7664,-942.5681 578.9907,-945.3454 578.4911,-938.3632"/>
</g>
<!-- 10&#45;&gt;0 -->
<g id="edge54" class="edge">
<title>10&#45;&gt;0</title>
<path fill="none" stroke="#000000" d="M937.6298,-182.119C937.6878,-188.1447 937.5021,-194.8783 936.7591,-201 919.7463,-341.1781 913.766,-378.6112 860.7591,-509.4913 859.4426,-512.7418 857.8718,-516.052 856.1903,-519.2827"/>
<polygon fill="#000000" stroke="#000000" points="853.1067,-517.6259 851.277,-528.0616 859.2151,-521.0446 853.1067,-517.6259"/>
</g>
<!-- 10&#45;&gt;2 -->
<g id="edge29" class="edge">
<title>10&#45;&gt;2</title>
<path fill="none" stroke="#000000" d="M897.3109,-168.1437C784.5027,-180.7513 463.8547,-222.1124 388.7591,-292 370.0296,-309.4305 364.8791,-322.3569 371.7591,-347 380.6673,-378.908 400.8834,-410.7851 417.4744,-433.2288"/>
<polygon fill="#000000" stroke="#000000" points="414.7967,-435.4905 423.6244,-441.3491 420.377,-431.2642 414.7967,-435.4905"/>
</g>
<!-- 10&#45;&gt;11 -->
<g id="edge84" class="edge">
<title>10&#45;&gt;11</title>
<path fill="none" stroke="#000000" d="M974.6671,-170.1887C1086.9082,-189.5731 1409.7591,-253.4205 1409.7591,-346.5 1409.7591,-346.5 1409.7591,-346.5 1409.7591,-545.4913 1409.7591,-647.6671 1385.9856,-688.8389 1303.7591,-749.4913 1282.7204,-765.01 1271.8241,-757.2769 1247.7591,-767.4913 1234.7636,-773.0072 1232.8647,-777.2424 1219.7591,-782.4913 1176.7407,-799.7203 1125.5191,-813.1798 1089.2736,-821.5968"/>
<polygon fill="#000000" stroke="#000000" points="1088.4368,-818.1977 1079.4668,-823.8361 1089.9951,-825.0221 1088.4368,-818.1977"/>
</g>
<!-- 10&#45;&gt;12 -->
<g id="edge16" class="edge">
<title>10&#45;&gt;12</title>
<path fill="none" stroke="#000000" d="M961.395,-178.3409C1015.8536,-210.1047 1142.264,-284.2066 1149.7591,-292 1194.5697,-338.5942 1219.7591,-354.8547 1219.7591,-419.5 1219.7591,-419.5 1219.7591,-419.5 1219.7591,-545.4913 1219.7591,-570.6744 1197.9165,-589.3081 1176.7778,-601.4447"/>
<polygon fill="#000000" stroke="#000000" points="1174.9833,-598.4356 1167.8272,-606.2485 1178.2936,-604.6034 1174.9833,-598.4356"/>
</g>
<!-- 10&#45;&gt;15 -->
<g id="edge82" class="edge">
<title>10&#45;&gt;15</title>
<path fill="none" stroke="#000000" d="M930.2939,-181.9503C918.4184,-213.4685 890.9897,-279.968 854.7591,-328 845.8081,-339.8666 834.083,-351.2671 823.3748,-360.5812"/>
<polygon fill="#000000" stroke="#000000" points="820.833,-358.1463 815.4471,-367.2701 825.3471,-363.4964 820.833,-358.1463"/>
</g>
<!-- 10&#45;&gt;17 -->
<g id="edge45" class="edge">
<title>10&#45;&gt;17</title>
<path fill="none" stroke="#000000" d="M896.2065,-164.716C812.1384,-167.0439 613.3067,-176.9393 452.7591,-219 372.0297,-240.1497 348.7154,-244.9939 279.7591,-292 214.576,-336.4339 185.5119,-345.9385 155.7591,-419 98.423,-559.7955 285.5044,-565.1717 419.7591,-636.4913 430.1937,-642.0344 576.2151,-684.4026 651.1144,-705.9661"/>
<polygon fill="#000000" stroke="#000000" points="650.1762,-709.3381 660.7541,-708.7395 652.1117,-702.611 650.1762,-709.3381"/>
</g>
<!-- 10&#45;&gt;19 -->
<g id="edge13" class="edge">
<title>10&#45;&gt;19</title>
<path fill="none" stroke="#000000" d="M906.5404,-176.0545C875.6797,-188.365 827.6066,-207.5417 793.6392,-221.0915"/>
<polygon fill="#000000" stroke="#000000" points="792.0142,-217.9715 784.0227,-224.9276 794.6078,-224.4733 792.0142,-217.9715"/>
</g>
<!-- 10&#45;&gt;22 -->
<g id="edge93" class="edge">
<title>10&#45;&gt;22</title>
<path fill="none" stroke="#000000" d="M952.9377,-180.8661C958.4248,-186.7892 964.4947,-193.5715 969.7591,-200 995.5551,-231.4999 992.3287,-248.1193 1023.7591,-274 1034.0963,-282.512 1046.7798,-289.5128 1058.8473,-295.0043"/>
<polygon fill="#000000" stroke="#000000" points="1057.7673,-298.3497 1068.3367,-299.0847 1060.5326,-291.919 1057.7673,-298.3497"/>
</g>
<!-- 11&#45;&gt;3 -->
<g id="edge88" class="edge">
<title>11&#45;&gt;3</title>
<path fill="none" stroke="#0000ff" stroke-dasharray="5,2" d="M1042.779,-849.6346C1041.7355,-886.3398 1033.6614,-969.2437 983.7591,-1008.4913 941.3401,-1041.8534 567.5514,-1053.5931 441.8191,-1056.6183"/>
<polygon fill="#0000ff" stroke="#0000ff" points="441.7313,-1053.1193 431.8162,-1056.853 441.8956,-1060.1173 441.7313,-1053.1193"/>
<text text-anchor="middle" x="1063.7591" y="-940.7913" font-family="Times,serif" font-size="14.00" fill="#000000">Indirect</text>
</g>
<!-- 12&#45;&gt;3 -->
<g id="edge86" class="edge">
<title>12&#45;&gt;3</title>
<path fill="none" stroke="#0000ff" stroke-dasharray="5,2" d="M1172.4841,-627.9896C1230.2389,-644.8242 1339.7591,-681.6099 1339.7591,-718.4913 1339.7591,-718.4913 1339.7591,-718.4913 1339.7591,-944.4913 1339.7591,-1036.2556 623.7429,-1053.9232 442.2041,-1056.9279"/>
<polygon fill="#0000ff" stroke="#0000ff" points="441.9442,-1053.4315 432.0013,-1057.0905 442.0558,-1060.4306 441.9442,-1053.4315"/>
<text text-anchor="middle" x="1368.7591" y="-827.7913" font-family="Times,serif" font-size="14.00" fill="#000000">Indirect</text>
</g>
<!-- 12&#45;&gt;5 -->
<g id="edge36" class="edge">
<title>12&#45;&gt;5</title>
<path fill="none" stroke="#0000ff" stroke-dasharray="5,2" d="M1140.3818,-636.4664C1145.8299,-681.3508 1153.1918,-799.2676 1091.7591,-862.4913 1055.9601,-899.334 701.7012,-931.2313 579.1884,-941.2391"/>
<polygon fill="#0000ff" stroke="#0000ff" points="578.7652,-937.7618 569.0805,-942.058 579.3305,-944.739 578.7652,-937.7618"/>
<text text-anchor="middle" x="1164.7591" y="-771.2913" font-family="Times,serif" font-size="14.00" fill="#000000">Indirect</text>
</g>
<!-- 12&#45;&gt;11 -->
<g id="edge63" class="edge">
<title>12&#45;&gt;11</title>
<path fill="none" stroke="#000000" d="M1129.8228,-636.2852C1113.1979,-673.5601 1074.6239,-760.047 1054.8788,-804.3176"/>
<polygon fill="#000000" stroke="#000000" points="1051.6164,-803.0397 1050.7396,-813.5982 1058.0094,-805.8911 1051.6164,-803.0397"/>
</g>
<!-- 12&#45;&gt;17 -->
<g id="edge42" class="edge">
<title>12&#45;&gt;17</title>
<path fill="none" stroke="#000000" d="M1099.4699,-624.3311C1034.5538,-634.6066 899.0031,-657.6852 786.7591,-687.4913 769.7615,-692.005 751.3359,-697.9892 735.4703,-703.4954"/>
<polygon fill="#000000" stroke="#000000" points="734.2282,-700.2221 725.9582,-706.8446 736.553,-706.8248 734.2282,-700.2221"/>
</g>
<!-- 13 -->
<g id="node14" class="node">
<title>13</title>
<polygon fill="#d3d3d3" stroke="#d3d3d3" points="451.2591,-744.9913 398.2591,-744.9913 398.2591,-691.9913 451.2591,-691.9913 451.2591,-744.9913"/>
<text text-anchor="middle" x="424.7591" y="-714.7913" font-family="Times,serif" font-size="14.00" fill="#000000">4.3.8</text>
</g>
<!-- 13&#45;&gt;3 -->
<g id="edge60" class="edge">
<title>13&#45;&gt;3</title>
<path fill="none" stroke="#000000" d="M422.8758,-745.092C418.7136,-803.8841 408.7056,-945.2474 403.7056,-1015.8723"/>
<polygon fill="#000000" stroke="#000000" points="400.1916,-1015.9465 402.9766,-1026.1688 407.1742,-1016.441 400.1916,-1015.9465"/>
</g>
<!-- 13&#45;&gt;5 -->
<g id="edge85" class="edge">
<title>13&#45;&gt;5</title>
<path fill="none" stroke="#000000" d="M451.6651,-744.6591C454.2833,-746.4707 456.9968,-748.1188 459.7591,-749.4913 496.2905,-767.6422 523.8973,-735.945 549.7591,-767.4913 580.8111,-805.3686 568.6545,-864.4875 554.9884,-903.8422"/>
<polygon fill="#000000" stroke="#000000" points="551.642,-902.8029 551.5068,-913.3969 558.219,-905.1995 551.642,-902.8029"/>
</g>
<!-- 13&#45;&gt;6 -->
<g id="edge4" class="edge">
<title>13&#45;&gt;6</title>
<path fill="none" stroke="#000000" d="M398.107,-741.4178C387.14,-751.1965 376.0127,-761.6753 371.7591,-767.4913 366.4958,-774.6878 361.8036,-782.9546 357.7823,-791.1045"/>
<polygon fill="#000000" stroke="#000000" points="354.5979,-789.6518 353.5325,-800.193 360.9389,-792.6169 354.5979,-789.6518"/>
</g>
<!-- 14 -->
<g id="node15" class="node">
<title>14</title>
<polygon fill="#d3d3d3" stroke="#d3d3d3" points="85.7591,-749.4913 23.7591,-749.4913 23.7591,-687.4913 85.7591,-687.4913 85.7591,-749.4913"/>
<text text-anchor="middle" x="54.7591" y="-714.7913" font-family="Times,serif" font-size="14.00" fill="#000000">4.3.12</text>
</g>
<!-- 14&#45;&gt;3 -->
<g id="edge96" class="edge">
<title>14&#45;&gt;3</title>
<path fill="none" stroke="#000000" d="M66.4274,-749.6248C87.482,-802.1935 136.3752,-909.2821 207.7591,-975.4913 251.2505,-1015.83 317.5638,-1038.0377 360.0296,-1048.8531"/>
<polygon fill="#000000" stroke="#000000" points="359.2132,-1052.2566 369.759,-1051.2381 360.8799,-1045.4579 359.2132,-1052.2566"/>
</g>
<!-- 14&#45;&gt;5 -->
<g id="edge101" class="edge">
<title>14&#45;&gt;5</title>
<path fill="none" stroke="#000000" d="M74.7892,-749.6776C96.6088,-781.5848 134.1444,-830.8434 176.7591,-862.4913 206.3227,-884.4468 217.4717,-884.9628 252.7591,-895.4913 337.2766,-920.7083 440.0095,-934.3908 496.1559,-940.4944"/>
<polygon fill="#000000" stroke="#000000" points="496.1007,-944.008 506.4138,-941.5811 496.8382,-937.047 496.1007,-944.008"/>
</g>
<!-- 14&#45;&gt;6 -->
<g id="edge7" class="edge">
<title>14&#45;&gt;6</title>
<path fill="none" stroke="#000000" d="M85.968,-744.2272C88.8605,-746.1326 91.8132,-747.9203 94.7591,-749.4913 163.0157,-785.8918 250.4479,-810.2799 300.8796,-822.4425"/>
<polygon fill="#000000" stroke="#000000" points="300.2202,-825.8831 310.7576,-824.7821 301.8335,-819.0715 300.2202,-825.8831"/>
</g>
<!-- 15&#45;&gt;0 -->
<g id="edge14" class="edge">
<title>15&#45;&gt;0</title>
<path fill="none" stroke="#000000" d="M798.4413,-401.2194C803.6235,-425.9857 813.7859,-471.5414 825.7591,-509.4913 826.6481,-512.3092 827.6459,-515.2236 828.6886,-518.1177"/>
<polygon fill="#000000" stroke="#000000" points="825.5046,-519.5934 832.3141,-527.7101 832.0525,-517.1184 825.5046,-519.5934"/>
</g>
<!-- 15&#45;&gt;2 -->
<g id="edge77" class="edge">
<title>15&#45;&gt;2</title>
<path fill="none" stroke="#000000" d="M758.7431,-391.3129C697.2422,-405.508 571.5657,-434.5156 498.6046,-451.3559"/>
<polygon fill="#000000" stroke="#000000" points="497.6281,-447.9891 488.6715,-453.6485 499.2024,-454.8098 497.6281,-447.9891"/>
</g>
<!-- 15&#45;&gt;5 -->
<g id="edge65" class="edge">
<title>15&#45;&gt;5</title>
<path fill="none" stroke="#000000" d="M793.4495,-401.0127C787.2942,-483.7549 760.3377,-824.9577 731.7591,-862.4913 712.4978,-887.788 629.8791,-916.5567 578.8717,-932.4063"/>
<polygon fill="#000000" stroke="#000000" points="577.6529,-929.1191 569.1199,-935.3991 579.7067,-935.8111 577.6529,-929.1191"/>
</g>
<!-- 15&#45;&gt;11 -->
<g id="edge24" class="edge">
<title>15&#45;&gt;11</title>
<path fill="none" stroke="#000000" d="M806.8492,-400.4776C825.2608,-427.3331 861.1048,-480.5678 888.7591,-527.4913 929.6432,-596.863 937.4646,-615.6118 973.7591,-687.4913 994.1907,-727.9551 1016.6722,-775.4768 1030.2493,-804.5318"/>
<polygon fill="#000000" stroke="#000000" points="1027.0983,-806.0564 1034.4965,-813.6405 1033.4425,-803.0982 1027.0983,-806.0564"/>
</g>
<!-- 15&#45;&gt;12 -->
<g id="edge68" class="edge">
<title>15&#45;&gt;12</title>
<path fill="none" stroke="#000000" d="M829.975,-392.205C884.1104,-407.9217 988.3577,-444.5906 1053.7591,-508.4913 1080.2037,-534.3291 1068.2088,-553.9905 1091.7591,-582.4913 1095.9982,-587.6215 1101.0868,-592.4872 1106.3108,-596.8869"/>
<polygon fill="#000000" stroke="#000000" points="1104.5145,-599.9287 1114.5287,-603.3881 1108.8576,-594.4388 1104.5145,-599.9287"/>
</g>
<!-- 15&#45;&gt;17 -->
<g id="edge72" class="edge">
<title>15&#45;&gt;17</title>
<path fill="none" stroke="#000000" d="M771.817,-398.0936C764.5179,-403.8747 756.9904,-411.0205 751.7591,-419 695.3077,-505.1072 691.7363,-633.2858 693.2758,-689.876"/>
<polygon fill="#000000" stroke="#000000" points="689.7896,-690.3345 693.6377,-700.2058 696.7854,-690.0893 689.7896,-690.3345"/>
</g>
<!-- 16 -->
<g id="node17" class="node">
<title>16</title>
<ellipse fill="#d3d3d3" stroke="#d3d3d3" cx="481.7591" cy="-310" rx="40.0939" ry="18"/>
<text text-anchor="middle" x="481.7591" y="-306.3" font-family="Times,serif" font-size="14.00" fill="#000000">4.2.23</text>
</g>
<!-- 16&#45;&gt;0 -->
<g id="edge32" class="edge">
<title>16&#45;&gt;0</title>
<path fill="none" stroke="#000000" d="M497.626,-326.6536C536.0309,-366.6679 633.7665,-466.669 673.7591,-490.4913 711.0307,-512.6927 758.4138,-527.2455 793.0076,-535.771"/>
<polygon fill="#000000" stroke="#000000" points="792.3169,-539.2044 802.8562,-538.1211 793.9417,-532.3956 792.3169,-539.2044"/>
</g>
<!-- 16&#45;&gt;2 -->
<g id="edge78" class="edge">
<title>16&#45;&gt;2</title>
<path fill="none" stroke="#000000" d="M477.209,-327.9958C470.8183,-353.2708 459.074,-399.7198 451.0932,-431.2839"/>
<polygon fill="#000000" stroke="#000000" points="447.6023,-430.8126 448.5442,-441.3655 454.3888,-432.5286 447.6023,-430.8126"/>
</g>
<!-- 16&#45;&gt;5 -->
<g id="edge64" class="edge">
<title>16&#45;&gt;5</title>
<path fill="none" stroke="#000000" d="M448.9895,-320.7482C335.5173,-360.1789 -31.877,-507.3323 2.7591,-749.4913 10.167,-801.2842 -1.0064,-825.2666 35.7591,-862.4913 71.0284,-898.2011 94.6724,-885.0218 143.7591,-895.4913 210.4826,-909.7225 409.599,-931.2432 496.4661,-940.271"/>
<polygon fill="#000000" stroke="#000000" points="496.1794,-943.7599 506.4867,-941.3087 496.9005,-936.7972 496.1794,-943.7599"/>
</g>
<!-- 16&#45;&gt;11 -->
<g id="edge9" class="edge">
<title>16&#45;&gt;11</title>
<path fill="none" stroke="#000000" d="M487.7403,-328.0022C495.6584,-352.5714 509.4668,-398.1143 516.7591,-438 535.3461,-539.6634 476.2221,-587.2109 538.7591,-669.4913 552.2944,-687.2998 567.0951,-675.1624 585.7591,-687.4913 617.7547,-708.6266 612.0206,-731.2668 645.7591,-749.4913 672.333,-763.8457 883.2285,-794.1534 912.7591,-800.4913 941.0719,-806.5678 972.6763,-814.0874 997.6337,-820.1988"/>
<polygon fill="#000000" stroke="#000000" points="996.9982,-823.6467 1007.5448,-822.6372 998.6706,-816.8494 996.9982,-823.6467"/>
</g>
<!-- 16&#45;&gt;12 -->
<g id="edge89" class="edge">
<title>16&#45;&gt;12</title>
<path fill="none" stroke="#000000" d="M509.5276,-323.0584C613.881,-372.1318 982.6261,-545.5383 1100.9332,-601.1735"/>
<polygon fill="#000000" stroke="#000000" points="1099.4449,-604.3412 1109.9837,-605.4296 1102.4238,-598.0067 1099.4449,-604.3412"/>
</g>
<!-- 16&#45;&gt;15 -->
<g id="edge75" class="edge">
<title>16&#45;&gt;15</title>
<path fill="none" stroke="#000000" d="M513.2008,-321.4429C520.5373,-323.8436 528.3677,-326.1923 535.7591,-328 585.1586,-340.0814 598.7327,-336.8548 648.7591,-346 689.8302,-353.5081 700.4398,-354.1573 740.7591,-365 744.8387,-366.0971 749.0617,-367.3297 753.2664,-368.6221"/>
<polygon fill="#000000" stroke="#000000" points="752.3775,-372.0121 762.968,-371.7101 754.5007,-365.3418 752.3775,-372.0121"/>
</g>
<!-- 16&#45;&gt;17 -->
<g id="edge51" class="edge">
<title>16&#45;&gt;17</title>
<path fill="none" stroke="#000000" d="M466.4703,-326.6784C436.202,-359.7846 371.3285,-431.2072 368.7591,-438 360.5054,-459.8206 358.3173,-469.6291 368.7591,-490.4913 417.2172,-587.3081 474.4628,-575.2715 563.7591,-636.4913 596.366,-658.846 634.8349,-682.6319 661.6161,-698.7961"/>
<polygon fill="#000000" stroke="#000000" points="659.8514,-701.8189 670.225,-703.9725 663.4586,-695.8199 659.8514,-701.8189"/>
</g>
<!-- 17&#45;&gt;3 -->
<g id="edge21" class="edge">
<title>17&#45;&gt;3</title>
<path fill="none" stroke="#0000ff" stroke-dasharray="5,2" d="M726.8598,-729.488C786.1205,-749.9368 907.2066,-792.4704 912.7591,-800.4913 928.4432,-823.1478 926.4305,-838.5664 912.7591,-862.4913 887.9687,-905.8744 558.9305,-1009.4146 441.8016,-1045.1296"/>
<polygon fill="#0000ff" stroke="#0000ff" points="440.6618,-1041.8179 432.113,-1048.0764 442.6988,-1048.515 440.6618,-1041.8179"/>
<text text-anchor="middle" x="919.7591" y="-884.2913" font-family="Times,serif" font-size="14.00" fill="#000000">Indirect</text>
</g>
<!-- 17&#45;&gt;5 -->
<g id="edge30" class="edge">
<title>17&#45;&gt;5</title>
<path fill="none" stroke="#0000ff" stroke-dasharray="5,2" d="M689.6433,-736.6397C678.0993,-776.6239 649.3514,-870.7253 627.7591,-895.4913 614.5406,-910.6527 595.443,-921.9797 578.2377,-929.9019"/>
<polygon fill="#0000ff" stroke="#0000ff" points="576.6959,-926.7558 568.9233,-933.9556 579.4893,-933.1743 576.6959,-926.7558"/>
<text text-anchor="middle" x="698.7591" y="-827.7913" font-family="Times,serif" font-size="14.00" fill="#000000">Indirect</text>
</g>
<!-- 17&#45;&gt;6 -->
<g id="edge49" class="edge">
<title>17&#45;&gt;6</title>
<path fill="none" stroke="#0000ff" stroke-dasharray="5,2" d="M661.8667,-729.0206C597.2657,-749.7002 453.9515,-795.577 383.0827,-818.263"/>
<polygon fill="#0000ff" stroke="#0000ff" points="381.6271,-815.054 373.1703,-821.4361 383.7613,-821.7207 381.6271,-815.054"/>
<text text-anchor="middle" x="568.7591" y="-771.2913" font-family="Times,serif" font-size="14.00" fill="#000000">Indirect</text>
</g>
<!-- 17&#45;&gt;11 -->
<g id="edge83" class="edge">
<title>17&#45;&gt;11</title>
<path fill="none" stroke="#000000" d="M726.5941,-729.5507C744.264,-735.6054 766.6694,-743.1451 786.7591,-749.4913 813.713,-758.0059 820.7718,-759.083 847.7591,-767.4913 900.7581,-784.004 961.4711,-804.1218 1000.8796,-817.3409"/>
<polygon fill="#000000" stroke="#000000" points="999.828,-820.6798 1010.422,-820.5467 1002.0573,-814.0442 999.828,-820.6798"/>
</g>
<!-- 18 -->
<g id="node19" class="node">
<title>18</title>
<polygon fill="#d3d3d3" stroke="#d3d3d3" points="237.7591,-749.4913 175.7591,-749.4913 175.7591,-687.4913 237.7591,-687.4913 237.7591,-749.4913"/>
<text text-anchor="middle" x="206.7591" y="-714.7913" font-family="Times,serif" font-size="14.00" fill="#000000">4.3.10</text>
</g>
<!-- 18&#45;&gt;3 -->
<g id="edge71" class="edge">
<title>18&#45;&gt;3</title>
<path fill="none" stroke="#000000" d="M211.0574,-749.7613C219.2374,-800.6868 240.7058,-903.1134 288.7591,-975.4913 306.5474,-1002.284 336.2255,-1023.4263 360.5634,-1037.5283"/>
<polygon fill="#000000" stroke="#000000" points="359.1585,-1040.753 369.5937,-1042.5854 362.5788,-1034.6455 359.1585,-1040.753"/>
</g>
<!-- 18&#45;&gt;5 -->
<g id="edge87" class="edge">
<title>18&#45;&gt;5</title>
<path fill="none" stroke="#000000" d="M216.085,-749.5474C226.5797,-780.6711 246.0086,-828.6912 274.7591,-862.4913 291.5327,-882.211 299.049,-885.0963 322.7591,-895.4913 380.2126,-920.6801 452.2042,-933.6988 496.5828,-939.807"/>
<polygon fill="#000000" stroke="#000000" points="496.3294,-943.3039 506.702,-941.1455 497.2474,-936.3643 496.3294,-943.3039"/>
</g>
<!-- 18&#45;&gt;6 -->
<g id="edge67" class="edge">
<title>18&#45;&gt;6</title>
<path fill="none" stroke="#000000" d="M238.0701,-744.6998C257.3239,-760.8159 282.1549,-781.6004 302.6903,-798.7892"/>
<polygon fill="#000000" stroke="#000000" points="300.7031,-801.6902 310.6178,-805.4249 305.1961,-796.3224 300.7031,-801.6902"/>
</g>
<!-- 19&#45;&gt;0 -->
<g id="edge37" class="edge">
<title>19&#45;&gt;0</title>
<path fill="none" stroke="#000000" d="M713.7177,-239.2088C637.6536,-244.1398 475.9924,-258.368 432.7591,-292 359.5985,-348.9131 307.1349,-421.2524 368.7591,-490.4913 382.6559,-506.1053 671.014,-531.5666 789.5497,-541.4192"/>
<polygon fill="#000000" stroke="#000000" points="789.5515,-544.9312 799.8061,-542.2679 790.1288,-537.955 789.5515,-544.9312"/>
</g>
<!-- 19&#45;&gt;2 -->
<g id="edge70" class="edge">
<title>19&#45;&gt;2</title>
<path fill="none" stroke="#000000" d="M728.4245,-251.2873C689.4093,-273.6922 612.8397,-319.2743 552.7591,-365 524.3801,-386.5984 494.4742,-413.9139 473.0201,-434.4179"/>
<polygon fill="#000000" stroke="#000000" points="470.5789,-431.9097 465.8004,-441.3658 475.4328,-436.9535 470.5789,-431.9097"/>
</g>
<!-- 19&#45;&gt;11 -->
<g id="edge55" class="edge">
<title>19&#45;&gt;11</title>
<path fill="none" stroke="#000000" d="M788.6673,-246.2063C827.3149,-256.5826 891.3472,-274.3201 945.7591,-292 950.6795,-293.5988 1295.7591,-414.3264 1295.7591,-419.5 1295.7591,-419.5 1295.7591,-419.5 1295.7591,-581.9913 1295.7591,-643.8341 1140.5701,-761.849 1073.2788,-810.1144"/>
<polygon fill="#000000" stroke="#000000" points="1070.8789,-807.5269 1064.7686,-816.1823 1074.9428,-813.2265 1070.8789,-807.5269"/>
</g>
<!-- 19&#45;&gt;12 -->
<g id="edge34" class="edge">
<title>19&#45;&gt;12</title>
<path fill="none" stroke="#000000" d="M786.7988,-247.6882C840.0755,-265.9738 946.6746,-306.9844 1022.7591,-365 1090.7524,-416.846 1102.4811,-445.216 1125.7591,-527.4913 1131.5705,-548.0316 1134.5858,-571.9925 1136.14,-590.17"/>
<polygon fill="#000000" stroke="#000000" points="1132.6691,-590.6886 1136.9136,-600.3961 1139.6492,-590.1605 1132.6691,-590.6886"/>
</g>
<!-- 19&#45;&gt;15 -->
<g id="edge23" class="edge">
<title>19&#45;&gt;15</title>
<path fill="none" stroke="#000000" d="M751.3967,-255.3098C749.6528,-274.0706 748.7831,-303.8326 756.7591,-328 760.2873,-338.6906 766.5975,-349.1761 773.0749,-358.0771"/>
<polygon fill="#000000" stroke="#000000" points="770.3707,-360.3019 779.251,-366.0804 775.9125,-356.0253 770.3707,-360.3019"/>
</g>
<!-- 19&#45;&gt;17 -->
<g id="edge50" class="edge">
<title>19&#45;&gt;17</title>
<path fill="none" stroke="#000000" d="M713.4088,-237.7738C628.782,-240.2179 436.5999,-250.3321 388.7591,-292 369.3408,-308.9127 373.8697,-320.9846 367.7591,-346 344.7247,-440.2981 326.1644,-488.4659 387.7591,-563.4913 451.5943,-641.2457 492.8971,-635.9967 587.7591,-669.4913 611.2168,-677.7739 618.0877,-677.2506 640.7591,-687.4913 648.0323,-690.7766 655.6016,-694.7453 662.6913,-698.7299"/>
<polygon fill="#000000" stroke="#000000" points="660.9469,-701.7642 671.3567,-703.7354 664.4482,-695.7028 660.9469,-701.7642"/>
</g>
<!-- 19&#45;&gt;22 -->
<g id="edge94" class="edge">
<title>19&#45;&gt;22</title>
<path fill="none" stroke="#000000" d="M790.2383,-244.6743C853.7586,-258.0374 984.5524,-285.5531 1054.4,-300.2472"/>
<polygon fill="#000000" stroke="#000000" points="1053.7416,-303.6852 1064.2479,-302.319 1055.1827,-296.8352 1053.7416,-303.6852"/>
</g>
<!-- 20 -->
<g id="node21" class="node">
<title>20</title>
<polygon fill="#d3d3d3" stroke="#d3d3d3" points="938.2591,-744.9913 885.2591,-744.9913 885.2591,-691.9913 938.2591,-691.9913 938.2591,-744.9913"/>
<text text-anchor="middle" x="911.7591" y="-714.7913" font-family="Times,serif" font-size="14.00" fill="#000000">4.3.2</text>
</g>
<!-- 20&#45;&gt;3 -->
<g id="edge97" class="edge">
<title>20&#45;&gt;3</title>
<path fill="none" stroke="#000000" d="M929.7803,-745.1123C952.224,-781.9156 984.0263,-849.047 952.7591,-895.4913 894.1504,-982.5487 559.7644,-1035.8457 441.8846,-1052.1422"/>
<polygon fill="#000000" stroke="#000000" points="441.2513,-1048.6961 431.8166,-1053.5165 442.1981,-1055.6318 441.2513,-1048.6961"/>
</g>
<!-- 20&#45;&gt;5 -->
<g id="edge38" class="edge">
<title>20&#45;&gt;5</title>
<path fill="none" stroke="#000000" d="M885.7874,-745.0931C871.6459,-760.4632 854.4895,-780.6378 841.7591,-800.4913 816.6425,-839.6613 834.4707,-866.9012 797.7591,-895.4913 764.2883,-921.5576 643.7542,-935.5187 579.224,-941.2726"/>
<polygon fill="#000000" stroke="#000000" points="578.6532,-937.8088 568.9921,-942.1579 579.2567,-944.7828 578.6532,-937.8088"/>
</g>
<!-- 20&#45;&gt;6 -->
<g id="edge19" class="edge">
<title>20&#45;&gt;6</title>
<path fill="none" stroke="#000000" d="M885.1302,-741.5092C880.5608,-744.5913 875.6894,-747.4034 870.7591,-749.4913 782.3472,-786.9326 492.0483,-817.3523 383.3452,-827.6946"/>
<polygon fill="#000000" stroke="#000000" points="382.7312,-824.2369 373.1041,-828.6605 383.3886,-831.2059 382.7312,-824.2369"/>
</g>
<!-- 21 -->
<g id="node22" class="node">
<title>21</title>
<polygon fill="#d3d3d3" stroke="#d3d3d3" points="309.2591,-744.9913 256.2591,-744.9913 256.2591,-691.9913 309.2591,-691.9913 309.2591,-744.9913"/>
<text text-anchor="middle" x="282.7591" y="-714.7913" font-family="Times,serif" font-size="14.00" fill="#000000">4.3.3</text>
</g>
<!-- 21&#45;&gt;3 -->
<g id="edge92" class="edge">
<title>21&#45;&gt;3</title>
<path fill="none" stroke="#000000" d="M280.064,-745.2162C276.3919,-794.1842 274.4101,-900.175 315.7591,-975.4913 326.9528,-995.8804 344.9162,-1014.3009 361.4518,-1028.4939"/>
<polygon fill="#000000" stroke="#000000" points="359.49,-1031.4144 369.4187,-1035.112 363.9629,-1026.0298 359.49,-1031.4144"/>
</g>
<!-- 21&#45;&gt;5 -->
<g id="edge15" class="edge">
<title>21&#45;&gt;5</title>
<path fill="none" stroke="#000000" d="M278.5824,-745.0749C275.1852,-776.6633 274.6777,-829.2604 301.7591,-862.4913 326.7554,-893.1637 435.9895,-921.7656 496.6969,-935.6694"/>
<polygon fill="#000000" stroke="#000000" points="496.1947,-939.144 506.72,-937.9324 497.7364,-932.3159 496.1947,-939.144"/>
</g>
<!-- 21&#45;&gt;6 -->
<g id="edge11" class="edge">
<title>21&#45;&gt;6</title>
<path fill="none" stroke="#000000" d="M296.7413,-745.2707C303.8526,-758.8907 312.6457,-775.7318 320.5683,-790.9056"/>
<polygon fill="#000000" stroke="#000000" points="317.635,-792.8497 325.3659,-800.0942 323.8401,-789.6098 317.635,-792.8497"/>
</g>
<!-- 22&#45;&gt;0 -->
<g id="edge76" class="edge">
<title>22&#45;&gt;0</title>
<path fill="none" stroke="#000000" d="M1090.0795,-327.4066C1065.9571,-365.4146 1003.5701,-456.6489 929.7591,-509.4913 916.0649,-519.2951 899.3233,-526.9355 884.0097,-532.6056"/>
<polygon fill="#000000" stroke="#000000" points="882.475,-529.4349 874.1992,-536.0501 884.794,-536.0397 882.475,-529.4349"/>
</g>
<!-- 22&#45;&gt;2 -->
<g id="edge103" class="edge">
<title>22&#45;&gt;2</title>
<path fill="none" stroke="#000000" d="M1070.2911,-321.9705C1051.2386,-329.3691 1026.149,-338.9549 1003.7591,-347 933.1283,-372.3789 916.6426,-383.0897 843.7591,-401 725.0376,-430.1744 583.096,-448.85 503.9092,-457.8598"/>
<polygon fill="#000000" stroke="#000000" points="503.1771,-454.42 493.6306,-459.015 503.9589,-461.3762 503.1771,-454.42"/>
</g>
<!-- 22&#45;&gt;5 -->
<g id="edge52" class="edge">
<title>22&#45;&gt;5</title>
<path fill="none" stroke="#000000" d="M1140.2266,-314.006C1231.175,-324.3288 1447.7591,-355.618 1447.7591,-419.5 1447.7591,-419.5 1447.7591,-419.5 1447.7591,-831.4913 1447.7591,-856.1449 1424.9699,-854.181 1401.7591,-862.4913 1323.6794,-890.4464 740.8511,-930.9679 579.2164,-941.7643"/>
<polygon fill="#000000" stroke="#000000" points="578.9341,-938.2753 569.1888,-942.432 579.3993,-945.2598 578.9341,-938.2753"/>
</g>
<!-- 22&#45;&gt;11 -->
<g id="edge27" class="edge">
<title>22&#45;&gt;11</title>
<path fill="none" stroke="#000000" d="M1140.1817,-314.152C1179.9374,-319.0688 1242.7052,-328.8417 1294.7591,-346 1313.0708,-352.036 1319.1074,-352.4668 1333.7591,-365 1356.1982,-384.1947 1371.7591,-389.9712 1371.7591,-419.5 1371.7591,-419.5 1371.7591,-419.5 1371.7591,-545.4913 1371.7591,-676.9582 1310.336,-719.8372 1194.7591,-782.4913 1152.364,-805.4736 1132.4538,-782.3828 1087.7591,-800.4913 1081.7581,-802.9226 1075.7585,-806.2609 1070.1859,-809.8498"/>
<polygon fill="#000000" stroke="#000000" points="1068.089,-807.0443 1061.8419,-815.6014 1072.0618,-812.8077 1068.089,-807.0443"/>
</g>
<!-- 22&#45;&gt;12 -->
<g id="edge69" class="edge">
<title>22&#45;&gt;12</title>
<path fill="none" stroke="#000000" d="M1111.371,-327.4186C1125.2533,-351.3263 1148.8561,-396.1221 1157.7591,-438 1171.113,-500.8146 1173.8677,-520.3261 1157.7591,-582.4913 1156.9341,-585.675 1155.7598,-588.8769 1154.3885,-591.9877"/>
<polygon fill="#000000" stroke="#000000" points="1151.2503,-590.4375 1149.8351,-600.9374 1157.4892,-593.6117 1151.2503,-590.4375"/>
</g>
<!-- 22&#45;&gt;15 -->
<g id="edge62" class="edge">
<title>22&#45;&gt;15</title>
<path fill="none" stroke="#000000" d="M1065.0581,-318.5169C1009.3538,-331.8058 901.8065,-357.4625 840.498,-372.0884"/>
<polygon fill="#000000" stroke="#000000" points="839.6205,-368.6995 830.7057,-374.4245 841.2449,-375.5084 839.6205,-368.6995"/>
</g>
<!-- 22&#45;&gt;17 -->
<g id="edge18" class="edge">
<title>22&#45;&gt;17</title>
<path fill="none" stroke="#000000" d="M1140.0871,-314.6542C1194.7185,-322.0204 1289.1997,-338.3303 1309.7591,-365 1369.6691,-442.7156 1338.098,-510.1858 1271.7591,-582.4913 1126.1786,-741.1654 1009.3592,-642.561 798.7591,-687.4913 777.986,-691.9231 755.3396,-698.4636 736.4986,-704.396"/>
<polygon fill="#000000" stroke="#000000" points="735.1983,-701.1372 726.7418,-707.5199 737.3328,-707.8039 735.1983,-701.1372"/>
</g>
<!-- 23 -->
<g id="node24" class="node">
<title>23</title>
<polygon fill="#d3d3d3" stroke="#d3d3d3" points="380.2591,-744.9913 327.2591,-744.9913 327.2591,-691.9913 380.2591,-691.9913 380.2591,-744.9913"/>
<text text-anchor="middle" x="353.7591" y="-714.7913" font-family="Times,serif" font-size="14.00" fill="#000000">4.3.5</text>
</g>
<!-- 23&#45;&gt;3 -->
<g id="edge59" class="edge">
<title>23&#45;&gt;3</title>
<path fill="none" stroke="#000000" d="M331.4607,-745.0357C320.1699,-760.2308 307.6345,-780.2554 301.7591,-800.4913 294.0758,-826.954 295.3807,-835.6841 301.7591,-862.4913 315.4277,-919.9385 349.0296,-979.5587 373.2989,-1017.5072"/>
<polygon fill="#000000" stroke="#000000" points="370.562,-1019.7195 378.9408,-1026.2039 376.4345,-1015.9097 370.562,-1019.7195"/>
</g>
<!-- 23&#45;&gt;5 -->
<g id="edge28" class="edge">
<title>23&#45;&gt;5</title>
<path fill="none" stroke="#000000" d="M375.5889,-745.3039C407.9179,-785.0124 468.7087,-859.6794 505.9802,-905.4585"/>
<polygon fill="#000000" stroke="#000000" points="503.4002,-907.8332 512.4281,-913.3782 508.8286,-903.4136 503.4002,-907.8332"/>
</g>
<!-- 23&#45;&gt;6 -->
<g id="edge73" class="edge">
<title>23&#45;&gt;6</title>
<path fill="none" stroke="#000000" d="M349.6344,-745.1544C348.6014,-752.3901 347.5604,-760.2311 346.7591,-767.4913 345.9521,-774.8026 345.2289,-782.5979 344.5999,-790.1417"/>
<polygon fill="#000000" stroke="#000000" points="341.1035,-789.9582 343.8015,-800.2037 348.0816,-790.5119 341.1035,-789.9582"/>
</g>
<!-- 24 -->
<g id="node25" class="node">
<title>24</title>
<ellipse fill="#d3d3d3" stroke="#d3d3d3" cx="805.7591" cy="-310" rx="40.0939" ry="18"/>
<text text-anchor="middle" x="805.7591" y="-306.3" font-family="Times,serif" font-size="14.00" fill="#000000">4.2.22</text>
</g>
<!-- 24&#45;&gt;0 -->
<g id="edge22" class="edge">
<title>24&#45;&gt;0</title>
<path fill="none" stroke="#000000" d="M821.442,-326.8635C829.8363,-337.068 839.3363,-350.818 843.7591,-365 859.9806,-417.0159 852.3268,-481.6168 845.7432,-517.7249"/>
<polygon fill="#000000" stroke="#000000" points="842.3063,-517.0635 843.8488,-527.5454 849.1796,-518.3894 842.3063,-517.0635"/>
</g>
<!-- 24&#45;&gt;2 -->
<g id="edge80" class="edge">
<title>24&#45;&gt;2</title>
<path fill="none" stroke="#000000" d="M769.2548,-317.8083C742.3841,-324.0692 705.2105,-333.8127 673.7591,-346 606.4129,-372.0965 532.8266,-411.8789 487.2256,-437.9727"/>
<polygon fill="#000000" stroke="#000000" points="485.4101,-434.9793 478.4887,-443.0008 488.9017,-441.0463 485.4101,-434.9793"/>
</g>
<!-- 24&#45;&gt;5 -->
<g id="edge99" class="edge">
<title>24&#45;&gt;5</title>
<path fill="none" stroke="#000000" d="M772.274,-320.1605C747.558,-328.9543 714.2706,-343.6507 690.7591,-365 653.1336,-399.1651 572.4606,-568.1355 564.7591,-600.4913 537.5826,-714.666 621.1465,-747.4806 597.7591,-862.4913 594.5843,-878.1037 592.4572,-882.1433 583.7591,-895.4913 581.2916,-899.2779 578.5177,-903.0404 575.5866,-906.6994"/>
<polygon fill="#000000" stroke="#000000" points="572.7628,-904.6182 568.9767,-914.5135 578.1072,-909.139 572.7628,-904.6182"/>
</g>
<!-- 24&#45;&gt;11 -->
<g id="edge56" class="edge">
<title>24&#45;&gt;11</title>
<path fill="none" stroke="#000000" d="M827.0613,-325.6474C834.3866,-331.5746 842.3499,-338.671 848.7591,-346 855.3339,-353.5183 856.067,-356.1831 860.7591,-365 934.3315,-503.2514 946.9302,-541.1715 1002.7591,-687.4913 1016.0867,-722.4212 1018.9747,-731.4081 1028.7591,-767.4913 1031.9171,-779.1376 1034.8621,-792.1229 1037.2283,-803.337"/>
<polygon fill="#000000" stroke="#000000" points="1033.8643,-804.3549 1039.3075,-813.4445 1040.7207,-802.9444 1033.8643,-804.3549"/>
</g>
<!-- 24&#45;&gt;12 -->
<g id="edge47" class="edge">
<title>24&#45;&gt;12</title>
<path fill="none" stroke="#000000" d="M842.6494,-317.6298C889.6605,-327.9114 967.6117,-347.0056 990.7591,-365 1068.3271,-425.3 1112.5207,-538.8847 1129.55,-591.0414"/>
<polygon fill="#000000" stroke="#000000" points="1126.2299,-592.1504 1132.5955,-600.6197 1132.9008,-590.0292 1126.2299,-592.1504"/>
</g>
<!-- 24&#45;&gt;15 -->
<g id="edge95" class="edge">
<title>24&#45;&gt;15</title>
<path fill="none" stroke="#000000" d="M803.04,-328.0449C801.8236,-336.1172 800.361,-345.8236 799.0056,-354.8183"/>
<polygon fill="#000000" stroke="#000000" points="795.5142,-354.4997 797.485,-364.9096 802.4361,-355.5428 795.5142,-354.4997"/>
</g>
<!-- 24&#45;&gt;17 -->
<g id="edge8" class="edge">
<title>24&#45;&gt;17</title>
<path fill="none" stroke="#000000" d="M782.066,-324.8296C738.4255,-354.1903 649.7591,-424.2687 649.7591,-508.9913 649.7591,-508.9913 649.7591,-508.9913 649.7591,-618.4913 649.7591,-645.4449 663.5225,-673.1709 675.8258,-692.5712"/>
<polygon fill="#000000" stroke="#000000" points="673.0563,-694.7277 681.501,-701.1259 678.8894,-690.858 673.0563,-694.7277"/>
</g>
</g>
</svg>
