<?xml version="1.0" encoding="UTF-8" standalone="no"?>
<!DOCTYPE svg PUBLIC "-//W3C//DTD SVG 1.1//EN"
 "http://www.w3.org/Graphics/SVG/1.1/DTD/svg11.dtd">
<!-- Generated by graphviz version 2.40.1 (0)
 -->
<!-- Title: fast Pages: 1 -->
<svg width="359pt" height="287pt"
 viewBox="0.00 0.00 358.67 287.00" xmlns="http://www.w3.org/2000/svg" xmlns:xlink="http://www.w3.org/1999/xlink">
<g id="graph0" class="graph" transform="scale(1 1) rotate(0) translate(4 283)">
<title>fast</title>
<polygon fill="#ffffff" stroke="transparent" points="-4,4 -4,-283 354.6705,-283 354.6705,4 -4,4"/>
<text text-anchor="middle" x="175.3352" y="-7.8" font-family="Times,serif" font-size="14.00" fill="#000000">fast&#45;4.6_amd64 (2020&#45;12&#45;16)</text>
<!-- 1 -->
<g id="node1" class="node">
<title>1</title>
<polygon fill="#9acd32" stroke="#9acd32" points="130.1705,-279 77.1705,-279 77.1705,-226 130.1705,-226 130.1705,-279"/>
<text text-anchor="middle" x="103.6705" y="-248.8" font-family="Times,serif" font-size="14.00" fill="#000000">4.6.8</text>
</g>
<!-- 7 -->
<g id="node2" class="node">
<title>7</title>
<ellipse fill="#d3d3d3" stroke="#d3d3d3" cx="54.6705" cy="-172" rx="40.0939" ry="18"/>
<text text-anchor="middle" x="54.6705" y="-168.3" font-family="Times,serif" font-size="14.00" fill="#000000">4.5.22</text>
</g>
<!-- 7&#45;&gt;1 -->
<g id="edge7" class="edge">
<title>7&#45;&gt;1</title>
<path fill="none" stroke="#0000ff" stroke-dasharray="5,2" d="M65.3027,-189.4673C70.2592,-197.6102 76.3449,-207.608 82.1966,-217.2215"/>
<polygon fill="#0000ff" stroke="#0000ff" points="79.2766,-219.1559 87.4658,-225.8781 85.256,-215.5162 79.2766,-219.1559"/>
</g>
<!-- 10 -->
<g id="node3" class="node">
<title>10</title>
<ellipse fill="#d3d3d3" stroke="#d3d3d3" cx="153.6705" cy="-172" rx="40.0939" ry="18"/>
<text text-anchor="middle" x="153.6705" y="-168.3" font-family="Times,serif" font-size="14.00" fill="#000000">4.5.21</text>
</g>
<!-- 10&#45;&gt;1 -->
<g id="edge4" class="edge">
<title>10&#45;&gt;1</title>
<path fill="none" stroke="#0000ff" stroke-dasharray="5,2" d="M142.8212,-189.4673C137.7635,-197.6102 131.5537,-207.608 125.5826,-217.2215"/>
<polygon fill="#0000ff" stroke="#0000ff" points="122.509,-215.5366 120.2058,-225.8781 128.4553,-219.23 122.509,-215.5366"/>
</g>
<!-- 21 -->
<g id="node4" class="node">
<title>21</title>
<ellipse fill="#d3d3d3" stroke="#d3d3d3" cx="252.6705" cy="-172" rx="40.0939" ry="18"/>
<text text-anchor="middle" x="252.6705" y="-168.3" font-family="Times,serif" font-size="14.00" fill="#000000">4.5.23</text>
</g>
<!-- 21&#45;&gt;1 -->
<g id="edge2" class="edge">
<title>21&#45;&gt;1</title>
<path fill="none" stroke="#0000ff" stroke-dasharray="5,2" d="M226.7166,-186.022C202.5514,-199.0778 166.3162,-218.6545 139.4194,-233.186"/>
<polygon fill="#0000ff" stroke="#0000ff" points="137.4646,-230.2639 130.3302,-238.0966 140.7919,-236.4226 137.4646,-230.2639"/>
</g>
<!-- 27 -->
<g id="node5" class="node">
<title>27</title>
<polygon fill="#fa8072" stroke="#fa8072" points="153.4065,-76.0934 103.6705,-88.6005 53.9344,-76.0934 72.9319,-55.8564 134.409,-55.8564 153.4065,-76.0934"/>
<polygon fill="none" stroke="#fa8072" points="161.0018,-78.3292 103.6705,-92.7463 46.3391,-78.3292 71.2114,-51.8341 136.1295,-51.8341 161.0018,-78.3292"/>
<text text-anchor="middle" x="103.6705" y="-66.8" font-family="Times,serif" font-size="14.00" fill="#000000">4.5.20</text>
</g>
<!-- 27&#45;&gt;1 -->
<g id="edge5" class="edge">
<title>27&#45;&gt;1</title>
<path fill="none" stroke="#ff0000" stroke-width="2" d="M74.9098,-85.7198C38.4269,-107.1731 -17.1618,-148.3583 5.6705,-190 18.7698,-213.8907 45.3122,-229.9662 67.4736,-239.8247"/>
<polygon fill="#ff0000" stroke="#ff0000" stroke-width="2" points="66.3906,-243.1655 76.9665,-243.798 69.0933,-236.7083 66.3906,-243.1655"/>
</g>
<!-- 27&#45;&gt;7 -->
<g id="edge3" class="edge">
<title>27&#45;&gt;7</title>
<path fill="none" stroke="#0000ff" d="M93.9896,-90.5531C86.4822,-106.1042 76.0011,-127.815 67.748,-144.9108"/>
<polygon fill="#0000ff" stroke="#0000ff" points="64.3811,-143.8346 63.1855,-154.3617 70.685,-146.8778 64.3811,-143.8346"/>
</g>
<!-- 27&#45;&gt;10 -->
<g id="edge6" class="edge">
<title>27&#45;&gt;10</title>
<path fill="none" stroke="#0000ff" d="M113.5488,-90.5531C121.2811,-106.2496 132.1046,-128.2214 140.5615,-145.3889"/>
<polygon fill="#0000ff" stroke="#0000ff" points="137.4228,-146.9378 144.9816,-154.3617 143.7023,-143.8444 137.4228,-146.9378"/>
</g>
<!-- 27&#45;&gt;21 -->
<g id="edge1" class="edge">
<title>27&#45;&gt;21</title>
<path fill="none" stroke="#0000ff" d="M126.3915,-87.2538C139.0322,-96.4729 155.1092,-108.0314 169.6705,-118 186.2717,-129.3651 205.0404,-141.6245 220.5254,-151.5852"/>
<polygon fill="#0000ff" stroke="#0000ff" points="218.9145,-154.7099 229.2221,-157.1602 222.6923,-148.8168 218.9145,-154.7099"/>
</g>
<!-- Key -->
<g id="node6" class="node">
<title>Key</title>
<text text-anchor="start" x="249.6705" y="-83.3" font-family="Times,serif" font-weight="bold" font-size="14.00" fill="#000000">Key</text>
<text text-anchor="start" x="202.6705" y="-66.3" font-family="Times,serif" font-size="14.00" fill="#000000">Direct Path</text>
<text text-anchor="start" x="301.6705" y="-66.3" font-family="Times,serif" font-size="14.00" fill="#ff0000">⟶</text>
<text text-anchor="start" x="202.6705" y="-50.3" font-family="Times,serif" font-size="14.00" fill="#000000">Indirect Path</text>
<text text-anchor="start" x="297.6705" y="-50.3" font-family="Times,serif" font-size="14.00" fill="#0000ff">→ ⤏</text>
<polygon fill="none" stroke="#000000" stroke-dasharray="1,5" points="200.6705,-45 200.6705,-96 328.6705,-96 328.6705,-45 200.6705,-45"/>
</g>
</g>
</svg>
