<?xml version="1.0" encoding="UTF-8" standalone="no"?>
<!DOCTYPE svg PUBLIC "-//W3C//DTD SVG 1.1//EN"
 "http://www.w3.org/Graphics/SVG/1.1/DTD/svg11.dtd">
<!-- Generated by graphviz version 2.40.1 (0)
 -->
<!-- Title: fast Pages: 1 -->
<svg width="238pt" height="406pt"
 viewBox="0.00 0.00 238.00 406.49" xmlns="http://www.w3.org/2000/svg" xmlns:xlink="http://www.w3.org/1999/xlink">
<g id="graph0" class="graph" transform="scale(1 1) rotate(0) translate(4 402.4913)">
<title>fast</title>
<polygon fill="#ffffff" stroke="transparent" points="-4,4 -4,-402.4913 234,-402.4913 234,4 -4,4"/>
<text text-anchor="middle" x="115" y="-383.2913" font-family="Times,serif" font-size="14.00" fill="#000000">fast&#45;4.4 (2020&#45;05&#45;14) [amd64]</text>
<!-- 0 -->
<g id="node1" class="node">
<title>0</title>
<polygon fill="#9acd32" stroke="#9acd32" points="85.0715,-375.4913 32.0715,-375.4913 32.0715,-322.4913 85.0715,-322.4913 85.0715,-375.4913"/>
<text text-anchor="middle" x="58.5715" y="-345.2913" font-family="Times,serif" font-size="14.00" fill="#000000">4.4.3</text>
</g>
<!-- 1 -->
<g id="node2" class="node">
<title>1</title>
<ellipse fill="#d3d3d3" stroke="#d3d3d3" cx="66.5715" cy="-180.4913" rx="40.0939" ry="18"/>
<text text-anchor="middle" x="66.5715" y="-176.7913" font-family="Times,serif" font-size="14.00" fill="#000000">4.3.18</text>
</g>
<!-- 1&#45;&gt;0 -->
<g id="edge1" class="edge">
<title>1&#45;&gt;0</title>
<path fill="none" stroke="#0000ff" stroke-dasharray="5,2" d="M60.3326,-198.5739C57.003,-209.1848 53.253,-222.9348 51.5715,-235.4913 48.1556,-260.9987 50.0334,-289.9583 52.6996,-312.2406"/>
<polygon fill="#0000ff" stroke="#0000ff" points="49.2454,-312.8203 54.0077,-322.2845 56.1868,-311.9162 49.2454,-312.8203"/>
<text text-anchor="middle" x="80.5715" y="-249.7913" font-family="Times,serif" font-size="14.00" fill="#000000">Indirect</text>
</g>
<!-- 4 -->
<g id="node5" class="node">
<title>4</title>
<ellipse fill="#d3d3d3" stroke="#d3d3d3" cx="158.5715" cy="-253.4913" rx="40.0939" ry="18"/>
<text text-anchor="middle" x="158.5715" y="-249.7913" font-family="Times,serif" font-size="14.00" fill="#000000">4.3.19</text>
</g>
<!-- 1&#45;&gt;4 -->
<g id="edge4" class="edge">
<title>1&#45;&gt;4</title>
<path fill="none" stroke="#000000" d="M86.5341,-196.3312C99.4339,-206.5669 116.4069,-220.0346 130.6375,-231.3263"/>
<polygon fill="#000000" stroke="#000000" points="128.6387,-234.2082 138.6478,-237.6823 132.9898,-228.7248 128.6387,-234.2082"/>
</g>
<!-- 2 -->
<g id="node3" class="node">
<title>2</title>
<polygon fill="#fa8072" stroke="#fa8072" points="168.3976,-104.8605 118.5715,-117.4157 68.7454,-104.8605 87.7773,-84.5458 149.3657,-84.5458 168.3976,-104.8605"/>
<polygon fill="none" stroke="#fa8072" points="176.0067,-107.1049 118.5715,-121.5775 61.1363,-107.1049 86.0537,-80.508 151.0893,-80.508 176.0067,-107.1049"/>
<polygon fill="none" stroke="#fa8072" points="183.6158,-109.3494 118.5715,-125.7393 53.5272,-109.3494 84.3301,-76.4702 152.8129,-76.4702 183.6158,-109.3494"/>
<text text-anchor="middle" x="118.5715" y="-95.5456" font-family="Times,serif" font-size="14.00" fill="#000000">4.3.13</text>
</g>
<!-- 2&#45;&gt;1 -->
<g id="edge2" class="edge">
<title>2&#45;&gt;1</title>
<path fill="none" stroke="#0000ff" stroke-width="2" d="M103.8095,-122.3101C97.3998,-132.3247 89.8618,-144.1022 83.2505,-154.4318"/>
<polygon fill="#0000ff" stroke="#0000ff" stroke-width="2" points="80.1737,-152.7464 77.7308,-163.0558 86.0695,-156.52 80.1737,-152.7464"/>
</g>
<!-- 2&#45;&gt;4 -->
<g id="edge5" class="edge">
<title>2&#45;&gt;4</title>
<path fill="none" stroke="#0000ff" stroke-width="2" d="M125.0872,-124.3712C132.3034,-152.1978 143.9034,-196.929 151.3802,-225.7609"/>
<polygon fill="#0000ff" stroke="#0000ff" stroke-width="2" points="148.0343,-226.8018 153.9326,-235.603 154.8102,-225.0446 148.0343,-226.8018"/>
</g>
<!-- 3 -->
<g id="node4" class="node">
<title>3</title>
<ellipse fill="#d3d3d3" stroke="#d3d3d3" cx="118.5715" cy="-18" rx="40.0939" ry="18"/>
<text text-anchor="middle" x="118.5715" y="-14.3" font-family="Times,serif" font-size="14.00" fill="#000000">4.3.12</text>
</g>
<!-- 3&#45;&gt;1 -->
<g id="edge7" class="edge">
<title>3&#45;&gt;1</title>
<path fill="none" stroke="#000000" d="M89.9851,-30.9238C73.4395,-40.089 54.0618,-54.1219 44.5715,-73 31.6952,-98.6136 41.5621,-131.2619 51.8815,-153.8211"/>
<polygon fill="#000000" stroke="#000000" points="48.7403,-155.365 56.2668,-162.8217 55.0331,-152.2989 48.7403,-155.365"/>
</g>
<!-- 3&#45;&gt;2 -->
<g id="edge6" class="edge">
<title>3&#45;&gt;2</title>
<path fill="none" stroke="#000000" d="M118.5715,-36.031C118.5715,-44.9368 118.5715,-55.9666 118.5715,-66.307"/>
<polygon fill="#000000" stroke="#000000" points="115.0716,-66.3133 118.5715,-76.3134 122.0716,-66.3134 115.0716,-66.3133"/>
</g>
<!-- 3&#45;&gt;4 -->
<g id="edge8" class="edge">
<title>3&#45;&gt;4</title>
<path fill="none" stroke="#000000" d="M147.1578,-30.9238C163.7034,-40.089 183.0812,-54.1219 192.5715,-73 217.9452,-123.4735 191.9142,-190.5318 173.4763,-227.0451"/>
<polygon fill="#000000" stroke="#000000" points="170.2902,-225.585 168.7574,-236.0684 176.4932,-228.829 170.2902,-225.585"/>
</g>
<!-- 4&#45;&gt;0 -->
<g id="edge3" class="edge">
<title>4&#45;&gt;0</title>
<path fill="none" stroke="#0000ff" stroke-dasharray="5,2" d="M141.1528,-270.1261C127.7595,-282.9167 108.8419,-300.983 92.4916,-316.5975"/>
<polygon fill="#0000ff" stroke="#0000ff" points="90.0037,-314.1338 85.1891,-323.5715 94.8383,-319.1962 90.0037,-314.1338"/>
<text text-anchor="middle" x="148.5715" y="-293.2913" font-family="Times,serif" font-size="14.00" fill="#000000">Indirect</text>
</g>
</g>
</svg>
