<?xml version="1.0" encoding="UTF-8" standalone="no"?>
<!DOCTYPE svg PUBLIC "-//W3C//DTD SVG 1.1//EN"
 "http://www.w3.org/Graphics/SVG/1.1/DTD/svg11.dtd">
<!-- Generated by graphviz version 2.40.1 (0)
 -->
<!-- Title: stable Pages: 1 -->
<svg width="1457pt" height="1119pt"
 viewBox="0.00 0.00 1456.72 1119.49" xmlns="http://www.w3.org/2000/svg" xmlns:xlink="http://www.w3.org/1999/xlink">
<g id="graph0" class="graph" transform="scale(1 1) rotate(0) translate(4 1115.4913)">
<title>stable</title>
<polygon fill="#ffffff" stroke="transparent" points="-4,4 -4,-1115.4913 1452.7203,-1115.4913 1452.7203,4 -4,4"/>
<text text-anchor="middle" x="724.3602" y="-1096.2913" font-family="Times,serif" font-size="14.00" fill="#000000">stable&#45;4.3 (2020&#45;05&#45;14) [amd64]</text>
<!-- 0 -->
<g id="node1" class="node">
<title>0</title>
<ellipse fill="#d3d3d3" stroke="#d3d3d3" cx="534" cy="-718.4913" rx="40.0939" ry="18"/>
<text text-anchor="middle" x="534" y="-714.7913" font-family="Times,serif" font-size="14.00" fill="#000000">4.2.29</text>
</g>
<!-- 16 -->
<g id="node17" class="node">
<title>16</title>
<polygon fill="#9acd32" stroke="#9acd32" points="1068,-862.4913 1006,-862.4913 1006,-800.4913 1068,-800.4913 1068,-862.4913"/>
<text text-anchor="middle" x="1037" y="-827.7913" font-family="Times,serif" font-size="14.00" fill="#000000">4.3.13</text>
</g>
<!-- 0&#45;&gt;16 -->
<g id="edge17" class="edge">
<title>0&#45;&gt;16</title>
<path fill="none" stroke="#0000ff" stroke-dasharray="5,2" d="M569.487,-727.4671C620.2434,-740.2125 716.553,-764.0538 799,-782.4913 867.847,-797.8874 948.3068,-814.0782 995.8289,-823.4556"/>
<polygon fill="#0000ff" stroke="#0000ff" points="995.2524,-826.9092 1005.7401,-825.4067 996.6045,-820.041 995.2524,-826.9092"/>
<text text-anchor="middle" x="828" y="-771.2913" font-family="Times,serif" font-size="14.00" fill="#000000">Indirect</text>
</g>
<!-- 17 -->
<g id="node18" class="node">
<title>17</title>
<polygon fill="#9acd32" stroke="#9acd32" points="1284,-1088.4913 1222,-1088.4913 1222,-1026.4913 1284,-1026.4913 1284,-1088.4913"/>
<text text-anchor="middle" x="1253" y="-1053.7913" font-family="Times,serif" font-size="14.00" fill="#000000">4.3.19</text>
</g>
<!-- 0&#45;&gt;17 -->
<g id="edge77" class="edge">
<title>0&#45;&gt;17</title>
<path fill="none" stroke="#0000ff" stroke-dasharray="5,2" d="M520.0073,-735.7965C495.5196,-768.3261 450.0391,-840.2859 478,-895.4913 505.1519,-949.0994 531.2673,-953.0207 587,-975.4913 701.8134,-1021.7822 1084.9993,-1047.7277 1211.8354,-1055.205"/>
<polygon fill="#0000ff" stroke="#0000ff" points="1211.7264,-1058.7045 1221.913,-1055.7918 1212.1334,-1051.7163 1211.7264,-1058.7045"/>
<text text-anchor="middle" x="507" y="-884.2913" font-family="Times,serif" font-size="14.00" fill="#000000">Indirect</text>
</g>
<!-- 20 -->
<g id="node21" class="node">
<title>20</title>
<polygon fill="#9acd32" stroke="#9acd32" points="895,-975.4913 833,-975.4913 833,-913.4913 895,-913.4913 895,-975.4913"/>
<text text-anchor="middle" x="864" y="-940.7913" font-family="Times,serif" font-size="14.00" fill="#000000">4.3.18</text>
</g>
<!-- 0&#45;&gt;20 -->
<g id="edge55" class="edge">
<title>0&#45;&gt;20</title>
<path fill="none" stroke="#0000ff" stroke-dasharray="5,2" d="M529.9969,-736.8814C524.6139,-766.9171 518.8875,-826.7289 549,-862.4913 584.1104,-904.1894 745.2016,-929.6097 822.4507,-939.6046"/>
<polygon fill="#0000ff" stroke="#0000ff" points="822.4119,-943.1276 832.7726,-940.9127 823.292,-936.1832 822.4119,-943.1276"/>
<text text-anchor="middle" x="578" y="-827.7913" font-family="Times,serif" font-size="14.00" fill="#000000">Indirect</text>
</g>
<!-- 1 -->
<g id="node2" class="node">
<title>1</title>
<polygon fill="#d3d3d3" stroke="#d3d3d3" points="807,-749.4913 745,-749.4913 745,-687.4913 807,-687.4913 807,-749.4913"/>
<text text-anchor="middle" x="776" y="-714.7913" font-family="Times,serif" font-size="14.00" fill="#000000">4.3.12</text>
</g>
<!-- 1&#45;&gt;16 -->
<g id="edge1" class="edge">
<title>1&#45;&gt;16</title>
<path fill="none" stroke="#000000" d="M807.3638,-741.4908C811.8381,-744.357 816.4632,-747.1119 821,-749.4913 879.4536,-780.1481 952.0074,-805.2739 996.3824,-819.3124"/>
<polygon fill="#000000" stroke="#000000" points="995.36,-822.6598 1005.9489,-822.305 997.4499,-815.979 995.36,-822.6598"/>
</g>
<!-- 1&#45;&gt;17 -->
<g id="edge12" class="edge">
<title>1&#45;&gt;17</title>
<path fill="none" stroke="#000000" d="M744.7352,-723.9495C683.0938,-735.4152 549.5426,-763.9867 523,-800.4913 506.7951,-822.7783 507.3086,-839.8398 523,-862.4913 603.8013,-979.1329 1069.3544,-1037.8911 1211.6774,-1053.2987"/>
<polygon fill="#000000" stroke="#000000" points="1211.4286,-1056.792 1221.7439,-1054.3743 1212.1723,-1049.8316 1211.4286,-1056.792"/>
</g>
<!-- 1&#45;&gt;20 -->
<g id="edge19" class="edge">
<title>1&#45;&gt;20</title>
<path fill="none" stroke="#000000" d="M776.6993,-749.552C778.7497,-786.5108 786.151,-849.0478 812,-895.4913 815.6082,-901.9742 820.3689,-908.1026 825.5467,-913.6882"/>
<polygon fill="#000000" stroke="#000000" points="823.2548,-916.3464 832.7967,-920.9509 828.2089,-911.4009 823.2548,-916.3464"/>
</g>
<!-- 2 -->
<g id="node3" class="node">
<title>2</title>
<ellipse fill="#d3d3d3" stroke="#d3d3d3" cx="917" cy="-310" rx="40.0939" ry="18"/>
<text text-anchor="middle" x="917" y="-306.3" font-family="Times,serif" font-size="14.00" fill="#000000">4.2.21</text>
</g>
<!-- 2&#45;&gt;0 -->
<g id="edge71" class="edge">
<title>2&#45;&gt;0</title>
<path fill="none" stroke="#000000" d="M944.141,-323.5775C1003.7735,-355.2007 1136.7777,-436.624 1083,-509.4913 1001.5242,-619.8886 913.8806,-545.9024 788,-600.4913 758.4132,-613.3218 753.7623,-621.9059 725,-636.4913 720.9853,-638.5271 655.1318,-667.7051 651,-669.4913 625.1767,-680.6549 595.9904,-692.8789 573.2282,-702.3249"/>
<polygon fill="#000000" stroke="#000000" points="571.7935,-699.1308 563.8948,-706.192 574.473,-705.5977 571.7935,-699.1308"/>
</g>
<!-- 8 -->
<g id="node9" class="node">
<title>8</title>
<ellipse fill="#d3d3d3" stroke="#d3d3d3" cx="826" cy="-545.4913" rx="40.0939" ry="18"/>
<text text-anchor="middle" x="826" y="-541.7913" font-family="Times,serif" font-size="14.00" fill="#000000">4.2.27</text>
</g>
<!-- 2&#45;&gt;8 -->
<g id="edge67" class="edge">
<title>2&#45;&gt;8</title>
<path fill="none" stroke="#000000" d="M924.8722,-327.9794C926.9706,-333.6351 928.946,-339.9781 930,-346 934.2834,-370.4732 929.6254,-378.0951 920,-401 912.2136,-419.529 905.1535,-421.2803 894,-438 875.7715,-465.3254 855.768,-497.1874 842.2067,-519.0882"/>
<polygon fill="#000000" stroke="#000000" points="839.0895,-517.4748 836.8131,-527.8222 845.0454,-521.1528 839.0895,-517.4748"/>
</g>
<!-- 10 -->
<g id="node11" class="node">
<title>10</title>
<polygon fill="#fa8072" stroke="#fa8072" points="750.8261,-469.8605 701,-482.4157 651.1739,-469.8605 670.2058,-449.5458 731.7942,-449.5458 750.8261,-469.8605"/>
<polygon fill="none" stroke="#fa8072" points="758.4352,-472.1049 701,-486.5775 643.5648,-472.1049 668.4822,-445.508 733.5178,-445.508 758.4352,-472.1049"/>
<polygon fill="none" stroke="#fa8072" points="766.0443,-474.3494 701,-490.7393 635.9557,-474.3494 666.7586,-441.4702 735.2414,-441.4702 766.0443,-474.3494"/>
<text text-anchor="middle" x="701" y="-460.5456" font-family="Times,serif" font-size="14.00" fill="#000000">4.2.26</text>
</g>
<!-- 2&#45;&gt;10 -->
<g id="edge44" class="edge">
<title>2&#45;&gt;10</title>
<path fill="none" stroke="#000000" d="M917.1094,-328.1625C916.157,-353.5735 910.1845,-398.9769 881,-420 861.6406,-433.9456 804.3155,-446.5807 759.5025,-454.7445"/>
<polygon fill="#000000" stroke="#000000" points="758.7999,-451.3145 749.5713,-456.5187 760.031,-458.2054 758.7999,-451.3145"/>
</g>
<!-- 13 -->
<g id="node14" class="node">
<title>13</title>
<ellipse fill="#d3d3d3" stroke="#d3d3d3" cx="393" cy="-383" rx="40.0939" ry="18"/>
<text text-anchor="middle" x="393" y="-379.3" font-family="Times,serif" font-size="14.00" fill="#000000">4.2.25</text>
</g>
<!-- 2&#45;&gt;13 -->
<g id="edge60" class="edge">
<title>2&#45;&gt;13</title>
<path fill="none" stroke="#000000" d="M878.469,-315.3679C784.7829,-328.4196 545.1813,-361.7992 441.7507,-376.2084"/>
<polygon fill="#000000" stroke="#000000" points="441.0088,-372.7779 431.5874,-377.6243 441.9748,-379.7109 441.0088,-372.7779"/>
</g>
<!-- 2&#45;&gt;20 -->
<g id="edge45" class="edge">
<title>2&#45;&gt;20</title>
<path fill="none" stroke="#000000" d="M957.2409,-312.3304C1067.4484,-319.2463 1366,-341.785 1366,-383 1366,-383 1366,-383 1366,-718.4913 1366,-734.8876 1357.88,-738.1907 1346,-749.4913 1336.8931,-758.154 1161.1221,-856.6366 1150,-862.4913 1119.9196,-878.3256 1113.1139,-884.3444 1081,-895.4913 1021.3807,-916.1855 949.4625,-930.425 905.2349,-938.0188"/>
<polygon fill="#000000" stroke="#000000" points="904.4322,-934.6046 895.1524,-939.7169 905.5949,-941.5074 904.4322,-934.6046"/>
</g>
<!-- 22 -->
<g id="node23" class="node">
<title>22</title>
<ellipse fill="#d3d3d3" stroke="#d3d3d3" cx="228" cy="-618.4913" rx="40.0939" ry="18"/>
<text text-anchor="middle" x="228" y="-614.7913" font-family="Times,serif" font-size="14.00" fill="#000000">4.2.28</text>
</g>
<!-- 2&#45;&gt;22 -->
<g id="edge21" class="edge">
<title>2&#45;&gt;22</title>
<path fill="none" stroke="#000000" d="M886.0403,-321.6193C828.246,-343.4532 700.1776,-392.5127 594,-438 506.7185,-475.3921 485.1081,-485.3861 400,-527.4913 351.8407,-551.3169 297.1325,-580.6626 262.6016,-599.473"/>
<polygon fill="#000000" stroke="#000000" points="260.5194,-596.622 253.4193,-604.4857 263.8737,-602.7661 260.5194,-596.622"/>
</g>
<!-- 3 -->
<g id="node4" class="node">
<title>3</title>
<polygon fill="#d3d3d3" stroke="#d3d3d3" points="1447.5,-744.9913 1394.5,-744.9913 1394.5,-691.9913 1447.5,-691.9913 1447.5,-744.9913"/>
<text text-anchor="middle" x="1421" y="-714.7913" font-family="Times,serif" font-size="14.00" fill="#000000">4.3.5</text>
</g>
<!-- 3&#45;&gt;16 -->
<g id="edge18" class="edge">
<title>3&#45;&gt;16</title>
<path fill="none" stroke="#000000" d="M1394.2512,-730.56C1380.0822,-736.6935 1362.2854,-743.9918 1346,-749.4913 1251.552,-781.3859 1137.5307,-808.8898 1077.8925,-822.4642"/>
<polygon fill="#000000" stroke="#000000" points="1077.084,-819.0586 1068.1024,-824.6784 1078.6282,-825.8862 1077.084,-819.0586"/>
</g>
<!-- 3&#45;&gt;17 -->
<g id="edge62" class="edge">
<title>3&#45;&gt;17</title>
<path fill="none" stroke="#000000" d="M1428.637,-745.1464C1440.9372,-792.6801 1461.3236,-894.6706 1436,-975.4913 1430.8722,-991.8568 1429.5591,-997.9902 1416,-1008.4913 1380.4899,-1035.9926 1329.6861,-1048.1105 1294.2674,-1053.4175"/>
<polygon fill="#000000" stroke="#000000" points="1293.6857,-1049.9645 1284.2578,-1054.7982 1294.6423,-1056.8988 1293.6857,-1049.9645"/>
</g>
<!-- 3&#45;&gt;20 -->
<g id="edge72" class="edge">
<title>3&#45;&gt;20</title>
<path fill="none" stroke="#000000" d="M1408.059,-745.0074C1401.0243,-757.4834 1391.4211,-771.9079 1380,-782.4913 1302.2587,-854.5307 1270.3979,-861.526 1170,-895.4913 1078.6524,-926.3948 965.2147,-938.0444 905.3991,-942.2521"/>
<polygon fill="#000000" stroke="#000000" points="904.9656,-938.7732 895.2212,-942.9321 905.4323,-945.7576 904.9656,-938.7732"/>
</g>
<!-- 4 -->
<g id="node5" class="node">
<title>4</title>
<ellipse fill="#d3d3d3" stroke="#d3d3d3" cx="486" cy="-310" rx="40.0939" ry="18"/>
<text text-anchor="middle" x="486" y="-306.3" font-family="Times,serif" font-size="14.00" fill="#000000">4.2.22</text>
</g>
<!-- 4&#45;&gt;0 -->
<g id="edge36" class="edge">
<title>4&#45;&gt;0</title>
<path fill="none" stroke="#000000" d="M491.2768,-328.0464C503.3595,-369.9869 532,-473.1786 532,-508.9913 532,-508.9913 532,-508.9913 532,-618.4913 532,-642.778 532.597,-670.3759 533.1386,-690.4176"/>
<polygon fill="#000000" stroke="#000000" points="529.6403,-690.5311 533.4215,-700.4282 536.6375,-690.3333 529.6403,-690.5311"/>
</g>
<!-- 4&#45;&gt;8 -->
<g id="edge8" class="edge">
<title>4&#45;&gt;8</title>
<path fill="none" stroke="#000000" d="M494.7784,-327.6875C513.7184,-363.9839 562.0152,-447.1085 627,-490.4913 672.1664,-520.6436 733.5731,-534.3703 776.1771,-540.5525"/>
<polygon fill="#000000" stroke="#000000" points="775.9316,-544.0512 786.3124,-541.9328 776.8762,-537.1153 775.9316,-544.0512"/>
</g>
<!-- 4&#45;&gt;10 -->
<g id="edge83" class="edge">
<title>4&#45;&gt;10</title>
<path fill="none" stroke="#000000" d="M507.401,-325.3536C543.0978,-350.9632 615.3479,-402.797 660.7826,-435.3928"/>
<polygon fill="#000000" stroke="#000000" points="658.7738,-438.2592 668.9394,-441.2447 662.8543,-432.5715 658.7738,-438.2592"/>
</g>
<!-- 4&#45;&gt;13 -->
<g id="edge80" class="edge">
<title>4&#45;&gt;13</title>
<path fill="none" stroke="#000000" d="M465.8204,-325.8399C452.7804,-336.0756 435.6229,-349.5433 421.2376,-360.835"/>
<polygon fill="#000000" stroke="#000000" points="418.8453,-358.2633 413.1402,-367.191 423.1675,-363.7696 418.8453,-358.2633"/>
</g>
<!-- 4&#45;&gt;20 -->
<g id="edge79" class="edge">
<title>4&#45;&gt;20</title>
<path fill="none" stroke="#000000" d="M447.0501,-314.6302C331.7241,-328.8608 0,-373.7684 0,-419.5 0,-419.5 0,-419.5 0,-831.4913 0,-915.5343 651.0421,-938.8171 822.8445,-943.4981"/>
<polygon fill="#000000" stroke="#000000" points="822.9055,-947.0008 832.995,-943.768 823.0917,-940.0033 822.9055,-947.0008"/>
</g>
<!-- 4&#45;&gt;22 -->
<g id="edge41" class="edge">
<title>4&#45;&gt;22</title>
<path fill="none" stroke="#000000" d="M447.3279,-315.7396C389.4575,-324.4736 286.3827,-340.651 280,-346 214.2155,-401.1301 228.8926,-442.9623 214,-527.4913 209.7586,-551.565 209.4928,-558.466 214,-582.4913 214.5332,-585.3337 215.2841,-588.24 216.1641,-591.1081"/>
<polygon fill="#000000" stroke="#000000" points="212.878,-592.3134 219.5253,-600.5634 219.4736,-589.9687 212.878,-592.3134"/>
</g>
<!-- 5 -->
<g id="node6" class="node">
<title>5</title>
<ellipse fill="#d3d3d3" stroke="#d3d3d3" cx="708" cy="-164" rx="40.0939" ry="18"/>
<text text-anchor="middle" x="708" y="-160.3" font-family="Times,serif" font-size="14.00" fill="#000000">4.2.19</text>
</g>
<!-- 5&#45;&gt;0 -->
<g id="edge15" class="edge">
<title>5&#45;&gt;0</title>
<path fill="none" stroke="#000000" d="M668.2831,-167.3438C598.1419,-173.9129 455.9599,-190.4079 416,-219 355.6511,-262.1808 352.6372,-292.9202 335,-365 305.1315,-487.0663 326.9401,-545.8663 414,-636.4913 438.7544,-662.2594 472.841,-684.6107 498.3608,-699.4405"/>
<polygon fill="#000000" stroke="#000000" points="496.9205,-702.648 507.3421,-704.5562 500.3851,-696.5655 496.9205,-702.648"/>
</g>
<!-- 5&#45;&gt;2 -->
<g id="edge49" class="edge">
<title>5&#45;&gt;2</title>
<path fill="none" stroke="#000000" d="M737.897,-176.4337C760.5118,-186.4557 791.8572,-201.6949 817,-219 845.6779,-238.7382 874.6911,-266.1493 894.0256,-285.7178"/>
<polygon fill="#000000" stroke="#000000" points="891.7011,-288.3471 901.1901,-293.0597 896.711,-283.4582 891.7011,-288.3471"/>
</g>
<!-- 6 -->
<g id="node7" class="node">
<title>6</title>
<ellipse fill="#d3d3d3" stroke="#d3d3d3" cx="697" cy="-237" rx="40.0939" ry="18"/>
<text text-anchor="middle" x="697" y="-233.3" font-family="Times,serif" font-size="14.00" fill="#000000">4.2.20</text>
</g>
<!-- 5&#45;&gt;6 -->
<g id="edge88" class="edge">
<title>5&#45;&gt;6</title>
<path fill="none" stroke="#000000" d="M705.2809,-182.0449C704.0645,-190.1172 702.6019,-199.8236 701.2466,-208.8183"/>
<polygon fill="#000000" stroke="#000000" points="697.7551,-208.4997 699.7259,-218.9096 704.677,-209.5428 697.7551,-208.4997"/>
</g>
<!-- 5&#45;&gt;8 -->
<g id="edge52" class="edge">
<title>5&#45;&gt;8</title>
<path fill="none" stroke="#000000" d="M743.9066,-172.2567C816.3767,-191.3025 975.8936,-246.0933 1007,-365 1013.1866,-388.6486 1018.3374,-398.3437 1007,-420 977.7344,-475.9021 910.9895,-511.8783 867.2446,-530.3891"/>
<polygon fill="#000000" stroke="#000000" points="865.6621,-527.2552 857.7402,-534.2904 868.3202,-533.7309 865.6621,-527.2552"/>
</g>
<!-- 5&#45;&gt;10 -->
<g id="edge14" class="edge">
<title>5&#45;&gt;10</title>
<path fill="none" stroke="#000000" d="M732.9601,-178.2844C761.107,-196.4665 803,-230.7148 803,-273.5 803,-273.5 803,-273.5 803,-383 803,-411.8333 777.7546,-432.0863 752.3829,-445.1599"/>
<polygon fill="#000000" stroke="#000000" points="750.5591,-442.1538 743.0762,-449.6542 753.6032,-448.4573 750.5591,-442.1538"/>
</g>
<!-- 5&#45;&gt;13 -->
<g id="edge47" class="edge">
<title>5&#45;&gt;13</title>
<path fill="none" stroke="#000000" d="M667.96,-166.3275C596.9664,-172.8559 450.3644,-197.6779 385,-292 372.2304,-310.4268 376.0024,-336.2502 381.9416,-355.6832"/>
<polygon fill="#000000" stroke="#000000" points="378.6399,-356.8457 385.1688,-365.1899 385.2684,-354.5955 378.6399,-356.8457"/>
</g>
<!-- 5&#45;&gt;22 -->
<g id="edge35" class="edge">
<title>5&#45;&gt;22</title>
<path fill="none" stroke="#000000" d="M667.639,-164.7101C533.9454,-167.5906 114,-181.0884 114,-237 114,-237 114,-237 114,-545.4913 114,-579.2493 149.8905,-598.1068 181.3955,-608.1571"/>
<polygon fill="#000000" stroke="#000000" points="180.4051,-611.514 190.9875,-611.0001 182.3944,-604.8026 180.4051,-611.514"/>
</g>
<!-- 6&#45;&gt;0 -->
<g id="edge6" class="edge">
<title>6&#45;&gt;0</title>
<path fill="none" stroke="#000000" d="M656.9406,-239.0833C582.1809,-243.7539 425.3261,-257.4898 385,-292 356.7279,-316.1946 353.4177,-329 344,-365 308.4767,-500.7907 446.5227,-641.7696 506.9612,-695.6807"/>
<polygon fill="#000000" stroke="#000000" points="504.7893,-698.4315 514.6099,-702.4073 509.4121,-693.1751 504.7893,-698.4315"/>
</g>
<!-- 6&#45;&gt;2 -->
<g id="edge57" class="edge">
<title>6&#45;&gt;2</title>
<path fill="none" stroke="#000000" d="M729.4618,-247.7714C767.9693,-260.5489 832.2706,-281.8852 874.6578,-295.9501"/>
<polygon fill="#000000" stroke="#000000" points="873.8116,-299.3569 884.4051,-299.1844 876.0162,-292.7131 873.8116,-299.3569"/>
</g>
<!-- 6&#45;&gt;8 -->
<g id="edge42" class="edge">
<title>6&#45;&gt;8</title>
<path fill="none" stroke="#000000" d="M708.7313,-254.4458C730.9602,-288.3182 779.2875,-365.998 805,-438 814.2873,-464.007 819.7958,-495.1018 822.8239,-517.1412"/>
<polygon fill="#000000" stroke="#000000" points="819.3669,-517.7006 824.1168,-527.1711 826.3095,-516.8056 819.3669,-517.7006"/>
</g>
<!-- 6&#45;&gt;10 -->
<g id="edge34" class="edge">
<title>6&#45;&gt;10</title>
<path fill="none" stroke="#000000" d="M698.3028,-255.1166C699.7867,-276.7354 702.1195,-313.9828 703,-346 703.7881,-374.6549 703.1217,-407.2251 702.3529,-430.9168"/>
<polygon fill="#000000" stroke="#000000" points="698.8474,-431.0157 701.9973,-441.1315 705.8432,-431.2593 698.8474,-431.0157"/>
</g>
<!-- 6&#45;&gt;13 -->
<g id="edge28" class="edge">
<title>6&#45;&gt;13</title>
<path fill="none" stroke="#000000" d="M656.8532,-239.2506C585.2926,-244.0911 439.825,-257.9465 404,-292 387.4007,-307.7785 385.9881,-334.5754 387.9333,-355.0159"/>
<polygon fill="#000000" stroke="#000000" points="384.4727,-355.5489 389.1939,-365.0336 391.4179,-354.6748 384.4727,-355.5489"/>
</g>
<!-- 6&#45;&gt;22 -->
<g id="edge78" class="edge">
<title>6&#45;&gt;22</title>
<path fill="none" stroke="#000000" d="M656.8483,-238.6974C575.7759,-242.5022 395.2948,-252.9882 337,-273 237.8016,-307.0534 152,-314.6194 152,-419.5 152,-419.5 152,-419.5 152,-545.4913 152,-569.2893 171.622,-587.7504 190.9253,-600.1538"/>
<polygon fill="#000000" stroke="#000000" points="189.3256,-603.2757 199.7004,-605.4238 192.9296,-597.2747 189.3256,-603.2757"/>
</g>
<!-- 7 -->
<g id="node8" class="node">
<title>7</title>
<ellipse fill="#d3d3d3" stroke="#d3d3d3" cx="614" cy="-310" rx="40.0939" ry="18"/>
<text text-anchor="middle" x="614" y="-306.3" font-family="Times,serif" font-size="14.00" fill="#000000">4.2.23</text>
</g>
<!-- 7&#45;&gt;0 -->
<g id="edge59" class="edge">
<title>7&#45;&gt;0</title>
<path fill="none" stroke="#000000" d="M611.1284,-328.0525C602.625,-380.8464 576.3283,-539.4357 547,-669.4913 545.439,-676.4135 543.5718,-683.8357 541.7461,-690.7564"/>
<polygon fill="#000000" stroke="#000000" points="538.3644,-689.8543 539.1415,-700.4206 545.1233,-691.6759 538.3644,-689.8543"/>
</g>
<!-- 7&#45;&gt;8 -->
<g id="edge27" class="edge">
<title>7&#45;&gt;8</title>
<path fill="none" stroke="#000000" d="M634.5934,-325.5396C675.5248,-356.5453 764.1201,-424.2967 775,-438 794.2437,-462.2375 808.4314,-494.9239 816.8896,-517.8673"/>
<polygon fill="#000000" stroke="#000000" points="813.6155,-519.1064 820.266,-527.3539 820.2102,-516.7592 813.6155,-519.1064"/>
</g>
<!-- 7&#45;&gt;10 -->
<g id="edge53" class="edge">
<title>7&#45;&gt;10</title>
<path fill="none" stroke="#000000" d="M623.98,-327.6939C638.3605,-353.1897 665.1422,-400.672 683.0226,-432.3728"/>
<polygon fill="#000000" stroke="#000000" points="680.0756,-434.2723 688.0369,-441.2629 686.1726,-430.8333 680.0756,-434.2723"/>
</g>
<!-- 7&#45;&gt;13 -->
<g id="edge68" class="edge">
<title>7&#45;&gt;13</title>
<path fill="none" stroke="#000000" d="M581.3907,-320.7714C542.6265,-333.5759 477.8419,-354.9753 435.2655,-369.039"/>
<polygon fill="#000000" stroke="#000000" points="434.1407,-365.7245 425.7431,-372.1844 436.3363,-372.3712 434.1407,-365.7245"/>
</g>
<!-- 7&#45;&gt;20 -->
<g id="edge66" class="edge">
<title>7&#45;&gt;20</title>
<path fill="none" stroke="#000000" d="M641.9212,-323.1332C664.3649,-333.8869 696.562,-349.7596 724,-365 764.1149,-387.2817 778.2088,-387.9543 812,-419 839.5479,-444.3096 867.4787,-498.0937 875,-527.4913 898.3484,-618.7499 774.5122,-601.5256 736,-687.4913 696.4023,-775.88 735.0607,-824.5508 801,-895.4913 808.1489,-903.1824 816.5859,-910.6138 824.922,-917.2654"/>
<polygon fill="#000000" stroke="#000000" points="822.7863,-920.0382 832.8381,-923.3867 827.0684,-914.5007 822.7863,-920.0382"/>
</g>
<!-- 7&#45;&gt;22 -->
<g id="edge26" class="edge">
<title>7&#45;&gt;22</title>
<path fill="none" stroke="#000000" d="M578.2671,-318.4018C564.735,-321.5151 549.1774,-325.0125 535,-328 450.3911,-345.8291 412.8427,-312.6815 344,-365 269.5577,-421.5741 241.4096,-537.1234 232.0784,-590.4178"/>
<polygon fill="#000000" stroke="#000000" points="228.5886,-590.0694 230.4088,-600.5066 235.4946,-591.2123 228.5886,-590.0694"/>
</g>
<!-- 8&#45;&gt;0 -->
<g id="edge73" class="edge">
<title>8&#45;&gt;0</title>
<path fill="none" stroke="#000000" d="M802.752,-560.452C765.5937,-584.2232 690.3454,-631.7855 625,-669.4913 606.9037,-679.9332 586.4435,-691.0133 569.5134,-699.9908"/>
<polygon fill="#000000" stroke="#000000" points="567.7178,-696.9809 560.5084,-704.7447 570.9858,-703.1713 567.7178,-696.9809"/>
</g>
<!-- 8&#45;&gt;20 -->
<g id="edge84" class="edge">
<title>8&#45;&gt;20</title>
<path fill="none" stroke="#0000ff" stroke-dasharray="5,2" d="M827.7315,-563.6723C833.467,-623.895 851.9415,-817.8767 860.0838,-903.3708"/>
<polygon fill="#0000ff" stroke="#0000ff" points="856.6146,-903.8616 861.047,-913.4847 863.583,-903.1979 856.6146,-903.8616"/>
<text text-anchor="middle" x="875" y="-714.7913" font-family="Times,serif" font-size="14.00" fill="#000000">Indirect</text>
</g>
<!-- 8&#45;&gt;22 -->
<g id="edge38" class="edge">
<title>8&#45;&gt;22</title>
<path fill="none" stroke="#000000" d="M786.7635,-550.281C681.4579,-563.1361 392.7742,-598.3767 276.9924,-612.5106"/>
<polygon fill="#000000" stroke="#000000" points="276.4936,-609.0454 266.9914,-613.7315 277.3418,-615.9939 276.4936,-609.0454"/>
</g>
<!-- 9 -->
<g id="node10" class="node">
<title>9</title>
<ellipse fill="#d3d3d3" stroke="#d3d3d3" cx="771" cy="-18" rx="40.0939" ry="18"/>
<text text-anchor="middle" x="771" y="-14.3" font-family="Times,serif" font-size="14.00" fill="#000000">4.2.16</text>
</g>
<!-- 9&#45;&gt;2 -->
<g id="edge69" class="edge">
<title>9&#45;&gt;2</title>
<path fill="none" stroke="#000000" d="M798.4469,-31.493C817.3724,-41.5115 842.5271,-56.2903 862,-73 894.0867,-100.5336 905.0064,-107.7393 923,-146 947.335,-197.7449 949.7483,-218.4958 936,-274 935.2428,-277.0569 934.1735,-280.1404 932.9237,-283.1486"/>
<polygon fill="#000000" stroke="#000000" points="929.6651,-281.8485 928.4775,-292.3766 935.9713,-284.8869 929.6651,-281.8485"/>
</g>
<!-- 9&#45;&gt;5 -->
<g id="edge64" class="edge">
<title>9&#45;&gt;5</title>
<path fill="none" stroke="#000000" d="M763.275,-35.9025C752.4116,-61.0779 732.5289,-107.1553 719.8053,-136.6416"/>
<polygon fill="#000000" stroke="#000000" points="716.5366,-135.3827 715.7882,-145.9511 722.9638,-138.1561 716.5366,-135.3827"/>
</g>
<!-- 9&#45;&gt;6 -->
<g id="edge32" class="edge">
<title>9&#45;&gt;6</title>
<path fill="none" stroke="#000000" d="M749.9163,-33.8061C722.8392,-55.5748 677.1752,-97.6275 659,-146 653.3724,-160.9776 654.2365,-166.7255 659,-182 662.3516,-192.7473 668.619,-203.2465 675.1114,-212.1427"/>
<polygon fill="#000000" stroke="#000000" points="672.4202,-214.3837 681.3171,-220.1365 677.9496,-210.0911 672.4202,-214.3837"/>
</g>
<!-- 9&#45;&gt;8 -->
<g id="edge89" class="edge">
<title>9&#45;&gt;8</title>
<path fill="none" stroke="#000000" d="M811.5599,-18.4011C951.2697,-20.3122 1404,-31.1246 1404,-91 1404,-91 1404,-91 1404,-464.2456 1404,-517.321 1016.8803,-537.9388 876.2683,-543.6772"/>
<polygon fill="#000000" stroke="#000000" points="876.0371,-540.1835 866.1849,-544.0803 876.3168,-547.178 876.0371,-540.1835"/>
</g>
<!-- 9&#45;&gt;10 -->
<g id="edge29" class="edge">
<title>9&#45;&gt;10</title>
<path fill="none" stroke="#000000" d="M811.0552,-20.9168C883.9873,-27.3365 1031,-45.8738 1031,-91 1031,-91 1031,-91 1031,-200.5 1031,-315.0298 999.3077,-370.557 896,-420 853.6556,-440.266 801.6354,-451.4675 761.977,-457.5261"/>
<polygon fill="#000000" stroke="#000000" points="761.3059,-454.0869 751.916,-458.9939 762.3165,-461.0135 761.3059,-454.0869"/>
</g>
<!-- 9&#45;&gt;13 -->
<g id="edge23" class="edge">
<title>9&#45;&gt;13</title>
<path fill="none" stroke="#000000" d="M739.4859,-29.3295C672.8822,-54.551 515.7535,-120.9407 416,-219 389.147,-245.3969 382.9043,-255.6712 373,-292 366.5608,-315.6188 368.7914,-323.6046 376,-347 376.9267,-350.0075 378.0615,-353.084 379.3011,-356.1098"/>
<polygon fill="#000000" stroke="#000000" points="376.2065,-357.763 383.4913,-365.4561 382.594,-354.8993 376.2065,-357.763"/>
</g>
<!-- 15 -->
<g id="node16" class="node">
<title>15</title>
<ellipse fill="#d3d3d3" stroke="#d3d3d3" cx="813" cy="-91" rx="40.0939" ry="18"/>
<text text-anchor="middle" x="813" y="-87.3" font-family="Times,serif" font-size="14.00" fill="#000000">4.2.18</text>
</g>
<!-- 9&#45;&gt;15 -->
<g id="edge16" class="edge">
<title>9&#45;&gt;15</title>
<path fill="none" stroke="#000000" d="M781.167,-35.6713C786.1712,-44.369 792.3055,-55.031 797.849,-64.6661"/>
<polygon fill="#000000" stroke="#000000" points="794.9059,-66.5691 802.9266,-73.4915 800.9733,-63.0782 794.9059,-66.5691"/>
</g>
<!-- 9&#45;&gt;22 -->
<g id="edge4" class="edge">
<title>9&#45;&gt;22</title>
<path fill="none" stroke="#000000" d="M730.8088,-19.8762C577.4952,-27.2941 38,-55.8912 38,-91 38,-91 38,-91 38,-545.4913 38,-575.8469 123.5763,-598.3374 179.865,-609.8473"/>
<polygon fill="#000000" stroke="#000000" points="179.5161,-613.3465 190.0073,-611.8681 180.884,-606.4815 179.5161,-613.3465"/>
</g>
<!-- 10&#45;&gt;0 -->
<g id="edge30" class="edge">
<title>10&#45;&gt;0</title>
<path fill="none" stroke="#0000ff" stroke-width="2" d="M690.1396,-488.0192C671.4562,-527.6673 630.7067,-608.9114 584,-669.4913 577.0984,-678.4429 568.6126,-687.3573 560.6044,-695.0801"/>
<polygon fill="#0000ff" stroke="#0000ff" stroke-width="2" points="557.7359,-692.9715 552.8318,-702.363 562.5221,-698.0796 557.7359,-692.9715"/>
</g>
<!-- 10&#45;&gt;8 -->
<g id="edge85" class="edge">
<title>10&#45;&gt;8</title>
<path fill="none" stroke="#0000ff" stroke-width="2" d="M730.6233,-483.4997C749.7811,-495.9516 774.7002,-512.1482 794.2626,-524.8631"/>
<polygon fill="#0000ff" stroke="#0000ff" stroke-width="2" points="792.5419,-527.919 802.8339,-530.4341 796.3567,-522.0498 792.5419,-527.919"/>
</g>
<!-- 10&#45;&gt;20 -->
<g id="edge56" class="edge">
<title>10&#45;&gt;20</title>
<path fill="none" stroke="#ff0000" stroke-width="2" d="M698.418,-490.24C690.6963,-573.7427 671.3209,-833.3267 722,-895.4913 734.9538,-911.3809 785.5539,-926.2347 822.6748,-935.332"/>
<polygon fill="#ff0000" stroke="#ff0000" stroke-width="2" points="822.2049,-938.8183 832.7448,-937.7413 823.8338,-932.0104 822.2049,-938.8183"/>
<text text-anchor="middle" x="712" y="-658.2913" font-family="Times,serif" font-size="14.00" fill="#000000">Direct</text>
</g>
<!-- 10&#45;&gt;22 -->
<g id="edge43" class="edge">
<title>10&#45;&gt;22</title>
<path fill="none" stroke="#0000ff" stroke-width="2" d="M656.0047,-479.4524C588.3968,-502.2324 456.5289,-546.3975 344,-582.4913 319.8842,-590.2264 292.8637,-598.6276 270.9723,-605.3672"/>
<polygon fill="#0000ff" stroke="#0000ff" stroke-width="2" points="269.8345,-602.0552 261.3039,-608.3385 271.8909,-608.7464 269.8345,-602.0552"/>
</g>
<!-- 11 -->
<g id="node12" class="node">
<title>11</title>
<polygon fill="#d3d3d3" stroke="#d3d3d3" points="972.5,-744.9913 919.5,-744.9913 919.5,-691.9913 972.5,-691.9913 972.5,-744.9913"/>
<text text-anchor="middle" x="946" y="-714.7913" font-family="Times,serif" font-size="14.00" fill="#000000">4.3.9</text>
</g>
<!-- 11&#45;&gt;16 -->
<g id="edge54" class="edge">
<title>11&#45;&gt;16</title>
<path fill="none" stroke="#000000" d="M967.5657,-745.2707C978.8444,-759.2761 992.8661,-776.6877 1005.3501,-792.1898"/>
<polygon fill="#000000" stroke="#000000" points="1002.7175,-794.501 1011.7156,-800.0942 1008.1694,-790.1105 1002.7175,-794.501"/>
</g>
<!-- 11&#45;&gt;17 -->
<g id="edge40" class="edge">
<title>11&#45;&gt;17</title>
<path fill="none" stroke="#000000" d="M972.611,-743.1875C975.3751,-745.4076 978.199,-747.5478 981,-749.4913 1020.6942,-777.0339 1040.5406,-768.7906 1077,-800.4913 1149.3327,-863.383 1205.8734,-962.3851 1233.8155,-1017.3458"/>
<polygon fill="#000000" stroke="#000000" points="1230.7601,-1019.0607 1238.3753,-1026.4267 1237.0157,-1015.9195 1230.7601,-1019.0607"/>
</g>
<!-- 11&#45;&gt;20 -->
<g id="edge2" class="edge">
<title>11&#45;&gt;20</title>
<path fill="none" stroke="#000000" d="M922.4966,-745.0979C910.3173,-760.3118 896.2946,-780.3345 888,-800.4913 874.4115,-833.5127 868.5106,-873.8026 865.9514,-903.359"/>
<polygon fill="#000000" stroke="#000000" points="862.4614,-903.0958 865.1784,-913.3363 869.4404,-903.6366 862.4614,-903.0958"/>
</g>
<!-- 12 -->
<g id="node13" class="node">
<title>12</title>
<polygon fill="#d3d3d3" stroke="#d3d3d3" points="669.5,-857.9913 616.5,-857.9913 616.5,-804.9913 669.5,-804.9913 669.5,-857.9913"/>
<text text-anchor="middle" x="643" y="-827.7913" font-family="Times,serif" font-size="14.00" fill="#000000">4.3.0</text>
</g>
<!-- 12&#45;&gt;20 -->
<g id="edge10" class="edge">
<title>12&#45;&gt;20</title>
<path fill="none" stroke="#000000" d="M654.4434,-858.2293C661.2673,-871.226 671.1307,-886.0407 684,-895.4913 705.9635,-911.6202 776.8251,-927.7168 822.8118,-936.8547"/>
<polygon fill="#000000" stroke="#000000" points="822.3011,-940.3211 832.787,-938.8056 823.6448,-933.4512 822.3011,-940.3211"/>
</g>
<!-- 13&#45;&gt;0 -->
<g id="edge74" class="edge">
<title>13&#45;&gt;0</title>
<path fill="none" stroke="#000000" d="M409.2944,-399.728C414.4171,-405.5307 419.8212,-412.2745 424,-419 451.6408,-463.4856 451.4438,-478.5152 470,-527.4913 475.9141,-543.1005 508.603,-641.6597 524.8412,-690.7622"/>
<polygon fill="#000000" stroke="#000000" points="521.5791,-692.0457 528.0409,-700.4419 528.2254,-689.8486 521.5791,-692.0457"/>
</g>
<!-- 13&#45;&gt;8 -->
<g id="edge91" class="edge">
<title>13&#45;&gt;8</title>
<path fill="none" stroke="#000000" d="M416.2184,-397.7963C426.3168,-404.2652 438.2701,-411.9673 449,-419 496.8347,-450.3521 503.2102,-468.4833 556,-490.4913 629.0062,-520.9275 720.3382,-534.9912 775.8688,-541.135"/>
<polygon fill="#000000" stroke="#000000" points="775.8312,-544.6506 786.1449,-542.2265 776.5706,-537.6898 775.8312,-544.6506"/>
</g>
<!-- 13&#45;&gt;10 -->
<g id="edge87" class="edge">
<title>13&#45;&gt;10</title>
<path fill="none" stroke="#000000" d="M427.7328,-392.162C480.9707,-406.2053 583.2066,-433.1736 646.4161,-449.8472"/>
<polygon fill="#000000" stroke="#000000" points="645.6502,-453.2649 656.2122,-452.4313 647.4357,-446.4964 645.6502,-453.2649"/>
</g>
<!-- 13&#45;&gt;20 -->
<g id="edge37" class="edge">
<title>13&#45;&gt;20</title>
<path fill="none" stroke="#000000" d="M393.1973,-401.2035C394.8279,-469.2757 408.7609,-712.6066 523,-862.4913 538.916,-883.3734 547.6118,-885.7651 572,-895.4913 656.7283,-929.2816 764.2991,-939.7708 822.3321,-943.0264"/>
<polygon fill="#000000" stroke="#000000" points="822.4081,-946.5349 832.575,-943.5541 822.7683,-939.5442 822.4081,-946.5349"/>
</g>
<!-- 13&#45;&gt;22 -->
<g id="edge81" class="edge">
<title>13&#45;&gt;22</title>
<path fill="none" stroke="#000000" d="M380.8672,-400.3162C352.1415,-441.314 279.8509,-544.4887 246.004,-592.7956"/>
<polygon fill="#000000" stroke="#000000" points="243.0225,-590.9515 240.1506,-601.1497 248.7554,-594.9683 243.0225,-590.9515"/>
</g>
<!-- 14 -->
<g id="node15" class="node">
<title>14</title>
<polygon fill="#d3d3d3" stroke="#d3d3d3" points="1043.5,-744.9913 990.5,-744.9913 990.5,-691.9913 1043.5,-691.9913 1043.5,-744.9913"/>
<text text-anchor="middle" x="1017" y="-714.7913" font-family="Times,serif" font-size="14.00" fill="#000000">4.3.1</text>
</g>
<!-- 14&#45;&gt;16 -->
<g id="edge31" class="edge">
<title>14&#45;&gt;16</title>
<path fill="none" stroke="#000000" d="M1017.1614,-745.1473C1017.6177,-756.7098 1018.6781,-770.354 1021,-782.4913 1021.5105,-785.1598 1022.1249,-787.8844 1022.8114,-790.6145"/>
<polygon fill="#000000" stroke="#000000" points="1019.4931,-791.7447 1025.5563,-800.4331 1026.2346,-789.86 1019.4931,-791.7447"/>
</g>
<!-- 14&#45;&gt;17 -->
<g id="edge48" class="edge">
<title>14&#45;&gt;17</title>
<path fill="none" stroke="#000000" d="M1043.6241,-743.4767C1046.6628,-745.6919 1049.8158,-747.7502 1053,-749.4913 1087.7925,-768.5156 1195.9378,-772.4742 1224,-800.4913 1280.5368,-856.9371 1272.4935,-959.0662 1262.3289,-1016.1102"/>
<polygon fill="#000000" stroke="#000000" points="1258.8371,-1015.74 1260.4214,-1026.2157 1265.7156,-1017.0385 1258.8371,-1015.74"/>
</g>
<!-- 14&#45;&gt;20 -->
<g id="edge76" class="edge">
<title>14&#45;&gt;20</title>
<path fill="none" stroke="#000000" d="M990.3399,-742.4502C987.2584,-744.9161 984.1062,-747.3127 981,-749.4913 967.6406,-758.8613 961.0804,-756.5216 949,-767.4913 927.6775,-786.8534 897.4691,-857.7743 879.396,-903.752"/>
<polygon fill="#000000" stroke="#000000" points="876.1008,-902.5686 875.7311,-913.157 882.6231,-905.1102 876.1008,-902.5686"/>
</g>
<!-- 15&#45;&gt;2 -->
<g id="edge58" class="edge">
<title>15&#45;&gt;2</title>
<path fill="none" stroke="#000000" d="M848.9151,-99.629C863.8723,-105.0428 880.0419,-113.6245 890,-127 924.0081,-172.6791 923.8572,-242.8819 920.5528,-281.7163"/>
<polygon fill="#000000" stroke="#000000" points="917.0576,-281.497 919.5629,-291.7913 924.024,-282.1815 917.0576,-281.497"/>
</g>
<!-- 15&#45;&gt;5 -->
<g id="edge70" class="edge">
<title>15&#45;&gt;5</title>
<path fill="none" stroke="#000000" d="M790.9886,-106.3032C775.7282,-116.9127 755.2085,-131.1789 738.3916,-142.8706"/>
<polygon fill="#000000" stroke="#000000" points="736.1952,-140.1348 729.9825,-148.717 740.1911,-145.8823 736.1952,-140.1348"/>
</g>
<!-- 15&#45;&gt;6 -->
<g id="edge33" class="edge">
<title>15&#45;&gt;6</title>
<path fill="none" stroke="#000000" d="M804.0064,-108.7218C793.9054,-127.7928 776.3711,-158.5415 757,-182 747.4639,-193.5482 735.5399,-204.9613 724.8397,-214.3719"/>
<polygon fill="#000000" stroke="#000000" points="722.2588,-211.9749 716.9555,-221.1469 726.821,-217.284 722.2588,-211.9749"/>
</g>
<!-- 15&#45;&gt;8 -->
<g id="edge92" class="edge">
<title>15&#45;&gt;8</title>
<path fill="none" stroke="#000000" d="M842.9907,-103.0677C847.9978,-105.0619 853.1421,-107.0983 858,-109 878.8293,-117.1539 885.9003,-115.3575 905,-127 988.4534,-177.8702 1069,-175.7644 1069,-273.5 1069,-273.5 1069,-273.5 1069,-464.2456 1069,-504.7356 946.1167,-528.7244 875.1198,-539.2052"/>
<polygon fill="#000000" stroke="#000000" points="874.4424,-535.7665 865.0422,-540.6539 875.4384,-542.6953 874.4424,-535.7665"/>
</g>
<!-- 15&#45;&gt;10 -->
<g id="edge13" class="edge">
<title>15&#45;&gt;10</title>
<path fill="none" stroke="#000000" d="M820.6162,-108.7544C822.5562,-114.7558 824.0825,-121.5671 824,-128 822.4443,-249.3632 858.2721,-286.8594 817,-401 807.7731,-426.5176 782.3037,-441.9571 757.5733,-451.1837"/>
<polygon fill="#000000" stroke="#000000" points="756.1248,-447.9804 747.8037,-454.5386 758.3984,-454.6009 756.1248,-447.9804"/>
</g>
<!-- 15&#45;&gt;13 -->
<g id="edge9" class="edge">
<title>15&#45;&gt;13</title>
<path fill="none" stroke="#000000" d="M811.7497,-109.227C808.2482,-144.3797 795.0766,-221.0627 746,-255 632.2369,-333.6691 549.5873,-211.6572 437,-292 416.2263,-306.8242 404.8553,-334.1732 398.9081,-355.0325"/>
<polygon fill="#000000" stroke="#000000" points="395.4566,-354.3997 396.339,-364.9577 402.2333,-356.1538 395.4566,-354.3997"/>
</g>
<!-- 15&#45;&gt;22 -->
<g id="edge82" class="edge">
<title>15&#45;&gt;22</title>
<path fill="none" stroke="#000000" d="M774.7152,-96.7163C676.602,-111.5709 408.3122,-153.4864 187,-200 152.505,-207.2499 138.5343,-198.3055 110,-219 86.8889,-235.7613 76,-244.9507 76,-273.5 76,-273.5 76,-273.5 76,-545.4913 76,-569.5095 138.4492,-592.7296 183.2908,-606.3068"/>
<polygon fill="#000000" stroke="#000000" points="182.546,-609.7364 193.1281,-609.2181 184.5324,-603.0241 182.546,-609.7364"/>
</g>
<!-- 16&#45;&gt;17 -->
<g id="edge22" class="edge">
<title>16&#45;&gt;17</title>
<path fill="none" stroke="#000000" d="M1067.0339,-862.9156C1106.0445,-903.7323 1174.1151,-974.9543 1216.1905,-1018.9777"/>
<polygon fill="#000000" stroke="#000000" points="1213.7816,-1021.5229 1223.2212,-1026.3338 1218.8421,-1016.6863 1213.7816,-1021.5229"/>
</g>
<!-- 16&#45;&gt;20 -->
<g id="edge63" class="edge">
<title>16&#45;&gt;20</title>
<path fill="none" stroke="#000000" d="M1020.455,-862.5471C1013.0257,-874.1501 1003.3583,-886.6434 992,-895.4913 966.3665,-915.4592 931.6594,-928.0668 904.8523,-935.4848"/>
<polygon fill="#000000" stroke="#000000" points="903.7799,-932.1478 895.0004,-938.0782 905.562,-938.9171 903.7799,-932.1478"/>
</g>
<!-- 18 -->
<g id="node19" class="node">
<title>18</title>
<polygon fill="#d3d3d3" stroke="#d3d3d3" points="1124,-749.4913 1062,-749.4913 1062,-687.4913 1124,-687.4913 1124,-749.4913"/>
<text text-anchor="middle" x="1093" y="-714.7913" font-family="Times,serif" font-size="14.00" fill="#000000">4.3.10</text>
</g>
<!-- 18&#45;&gt;16 -->
<g id="edge5" class="edge">
<title>18&#45;&gt;16</title>
<path fill="none" stroke="#000000" d="M1077.5495,-749.6682C1071.1839,-762.513 1063.7272,-777.5596 1056.9563,-791.2224"/>
<polygon fill="#000000" stroke="#000000" points="1053.7045,-789.9019 1052.4001,-800.4162 1059.9765,-793.0102 1053.7045,-789.9019"/>
</g>
<!-- 18&#45;&gt;17 -->
<g id="edge11" class="edge">
<title>18&#45;&gt;17</title>
<path fill="none" stroke="#000000" d="M1124.307,-744.0493C1127.1782,-745.9933 1130.0992,-747.8385 1133,-749.4913 1186.5664,-780.0122 1221.916,-753.6494 1262,-800.4913 1322.5035,-871.1954 1313.1757,-919.49 1286,-1008.4913 1285.086,-1011.4846 1283.921,-1014.4606 1282.5779,-1017.3808"/>
<polygon fill="#000000" stroke="#000000" points="1279.3517,-1015.9945 1277.7705,-1026.4707 1285.5397,-1019.2671 1279.3517,-1015.9945"/>
</g>
<!-- 18&#45;&gt;20 -->
<g id="edge61" class="edge">
<title>18&#45;&gt;20</title>
<path fill="none" stroke="#000000" d="M1061.9461,-742.5892C1058.6282,-744.9773 1055.2706,-747.3188 1052,-749.4913 1014.3453,-774.5029 996.5386,-769.1114 964,-800.4913 940.5675,-823.0894 943.3958,-835.6334 925,-862.4913 915.2853,-876.6748 904.1862,-891.8682 894.1422,-905.2753"/>
<polygon fill="#000000" stroke="#000000" points="891.2678,-903.274 888.0466,-913.3673 896.859,-907.4858 891.2678,-903.274"/>
</g>
<!-- 19 -->
<g id="node20" class="node">
<title>19</title>
<polygon fill="#d3d3d3" stroke="#d3d3d3" points="1195.5,-744.9913 1142.5,-744.9913 1142.5,-691.9913 1195.5,-691.9913 1195.5,-744.9913"/>
<text text-anchor="middle" x="1169" y="-714.7913" font-family="Times,serif" font-size="14.00" fill="#000000">4.3.3</text>
</g>
<!-- 19&#45;&gt;16 -->
<g id="edge3" class="edge">
<title>19&#45;&gt;16</title>
<path fill="none" stroke="#000000" d="M1142.4513,-742.0693C1128.6703,-754.2312 1111.5134,-769.253 1096,-782.4913 1089.521,-788.0202 1082.596,-793.8455 1075.8524,-799.4738"/>
<polygon fill="#000000" stroke="#000000" points="1073.5048,-796.874 1068.057,-805.961 1077.9824,-802.2546 1073.5048,-796.874"/>
</g>
<!-- 19&#45;&gt;17 -->
<g id="edge65" class="edge">
<title>19&#45;&gt;17</title>
<path fill="none" stroke="#000000" d="M1195.8303,-744.8166C1198.4649,-746.594 1201.2029,-748.1912 1204,-749.4913 1254.1016,-772.7782 1284.643,-732.0183 1327,-767.4913 1338.8525,-777.4175 1335.5236,-785.2309 1338,-800.4913 1352.808,-891.742 1384.2486,-928.4473 1338,-1008.4913 1328.3833,-1025.1352 1310.7273,-1036.627 1293.9887,-1044.2748"/>
<polygon fill="#000000" stroke="#000000" points="1292.1701,-1041.2424 1284.307,-1048.3433 1294.882,-1047.6958 1292.1701,-1041.2424"/>
</g>
<!-- 19&#45;&gt;20 -->
<g id="edge51" class="edge">
<title>19&#45;&gt;20</title>
<path fill="none" stroke="#000000" d="M1142.2485,-743.2531C1139.2347,-745.5119 1136.1223,-747.6415 1133,-749.4913 1077.4604,-782.395 1046.7934,-759.4069 997,-800.4913 972.0709,-821.0602 979.8893,-837.83 959,-862.4913 944.5424,-879.5595 937.9257,-880.8671 921,-895.4913 915.0985,-900.5904 908.8458,-905.9792 902.7276,-911.2447"/>
<polygon fill="#000000" stroke="#000000" points="900.3854,-908.6427 895.0863,-917.8171 904.95,-913.9497 900.3854,-908.6427"/>
</g>
<!-- 20&#45;&gt;17 -->
<g id="edge24" class="edge">
<title>20&#45;&gt;17</title>
<path fill="none" stroke="#0000ff" stroke-dasharray="5,2" d="M895.1759,-953.5475C964.9695,-973.8217 1133.7815,-1022.8597 1211.9786,-1045.575"/>
<polygon fill="#0000ff" stroke="#0000ff" points="1211.3667,-1049.0419 1221.9461,-1048.4705 1213.3194,-1042.3198 1211.3667,-1049.0419"/>
<text text-anchor="middle" x="1111" y="-997.2913" font-family="Times,serif" font-size="14.00" fill="#000000">Indirect</text>
</g>
<!-- 21 -->
<g id="node22" class="node">
<title>21</title>
<polygon fill="#d3d3d3" stroke="#d3d3d3" points="1266.5,-744.9913 1213.5,-744.9913 1213.5,-691.9913 1266.5,-691.9913 1266.5,-744.9913"/>
<text text-anchor="middle" x="1240" y="-714.7913" font-family="Times,serif" font-size="14.00" fill="#000000">4.3.8</text>
</g>
<!-- 21&#45;&gt;16 -->
<g id="edge90" class="edge">
<title>21&#45;&gt;16</title>
<path fill="none" stroke="#000000" d="M1213.3279,-743.3904C1210.2987,-745.6224 1207.1609,-747.7083 1204,-749.4913 1181.5981,-762.128 1172.7892,-757.7135 1149,-767.4913 1135.2121,-773.1583 1132.3694,-775.8972 1119,-782.4913 1102.5993,-790.5805 1097.7967,-791.278 1082,-800.4913 1080.2791,-801.495 1078.5377,-802.5426 1076.7907,-803.6203"/>
<polygon fill="#000000" stroke="#000000" points="1074.6167,-800.8561 1068.0792,-809.1934 1078.389,-806.7527 1074.6167,-800.8561"/>
</g>
<!-- 21&#45;&gt;17 -->
<g id="edge39" class="edge">
<title>21&#45;&gt;17</title>
<path fill="none" stroke="#000000" d="M1266.5308,-744.2977C1269.2682,-746.238 1272.1098,-748.0119 1275,-749.4913 1307.4416,-766.0968 1325.1847,-746.5331 1355,-767.4913 1369.2224,-777.4886 1371.1395,-783.8 1376,-800.4913 1401.8463,-889.2491 1427.8807,-931.9774 1376,-1008.4913 1357.7897,-1035.3479 1322.2623,-1047.4851 1294.0531,-1052.9699"/>
<polygon fill="#000000" stroke="#000000" points="1293.293,-1049.5494 1284.037,-1054.7046 1294.4876,-1056.4467 1293.293,-1049.5494"/>
</g>
<!-- 21&#45;&gt;20 -->
<g id="edge46" class="edge">
<title>21&#45;&gt;20</title>
<path fill="none" stroke="#000000" d="M1213.2659,-742.3465C1210.1983,-744.8318 1207.0695,-747.2613 1204,-749.4913 1195.1662,-755.9089 1127.9517,-793.0084 1120,-800.4913 1095.5788,-823.4727 1102.1345,-840.2922 1077,-862.4913 1053.3087,-883.4158 1043.1243,-883.2077 1014,-895.4913 978.0539,-910.652 935.6849,-924.108 905.1611,-933.0646"/>
<polygon fill="#000000" stroke="#000000" points="903.9205,-929.7801 895.2901,-935.9256 905.8691,-936.5034 903.9205,-929.7801"/>
</g>
<!-- 22&#45;&gt;0 -->
<g id="edge20" class="edge">
<title>22&#45;&gt;0</title>
<path fill="none" stroke="#000000" d="M258.8819,-630.219C275.9141,-636.9124 297.3324,-645.7015 316,-654.4913 328.7726,-660.5054 330.8485,-664.3585 344,-669.4913 391.0465,-687.8528 447.3227,-701.3806 486.3607,-709.5154"/>
<polygon fill="#000000" stroke="#000000" points="485.896,-712.9928 496.3944,-711.5667 487.2981,-706.1346 485.896,-712.9928"/>
</g>
<!-- 22&#45;&gt;17 -->
<g id="edge86" class="edge">
<title>22&#45;&gt;17</title>
<path fill="none" stroke="#0000ff" stroke-dasharray="5,2" d="M225.3968,-636.5126C222.7388,-656.5015 219,-689.7297 219,-718.4913 219,-718.4913 219,-718.4913 219,-944.4913 219,-995.3323 1019.3814,-1044.1817 1211.7793,-1055.1898"/>
<polygon fill="#0000ff" stroke="#0000ff" points="1211.5899,-1058.6846 1221.7727,-1055.7588 1211.9879,-1051.696 1211.5899,-1058.6846"/>
<text text-anchor="middle" x="248" y="-827.7913" font-family="Times,serif" font-size="14.00" fill="#000000">Indirect</text>
</g>
<!-- 22&#45;&gt;20 -->
<g id="edge75" class="edge">
<title>22&#45;&gt;20</title>
<path fill="none" stroke="#0000ff" stroke-dasharray="5,2" d="M233.0641,-636.7149C248.31,-687.7772 299.0096,-832.6126 399,-895.4913 434.4963,-917.813 715.6057,-936.0224 822.7325,-942.2168"/>
<polygon fill="#0000ff" stroke="#0000ff" points="822.6564,-945.718 832.8401,-942.7953 823.0565,-938.7295 822.6564,-945.718"/>
<text text-anchor="middle" x="325" y="-771.2913" font-family="Times,serif" font-size="14.00" fill="#000000">Indirect</text>
</g>
<!-- 23 -->
<g id="node24" class="node">
<title>23</title>
<polygon fill="#d3d3d3" stroke="#d3d3d3" points="1337.5,-744.9913 1284.5,-744.9913 1284.5,-691.9913 1337.5,-691.9913 1337.5,-744.9913"/>
<text text-anchor="middle" x="1311" y="-714.7913" font-family="Times,serif" font-size="14.00" fill="#000000">4.3.2</text>
</g>
<!-- 23&#45;&gt;16 -->
<g id="edge7" class="edge">
<title>23&#45;&gt;16</title>
<path fill="none" stroke="#000000" d="M1284.4902,-743.6942C1281.4293,-745.867 1278.2397,-747.8559 1275,-749.4913 1242.8525,-765.7188 1230.3668,-756.7342 1196,-767.4913 1154.8232,-780.38 1109.2822,-799.2005 1077.5311,-813.0982"/>
<polygon fill="#000000" stroke="#000000" points="1075.8765,-810.0026 1068.1401,-817.2412 1078.702,-816.407 1075.8765,-810.0026"/>
</g>
<!-- 23&#45;&gt;17 -->
<g id="edge25" class="edge">
<title>23&#45;&gt;17</title>
<path fill="none" stroke="#000000" d="M1337.7827,-734.1145C1359.2081,-748.3319 1387.6393,-771.5018 1400,-800.4913 1430.6178,-872.2992 1436.4742,-900.4401 1415,-975.4913 1400.6701,-1025.5735 1337.3367,-1045.1666 1294.236,-1052.7642"/>
<polygon fill="#000000" stroke="#000000" points="1293.6098,-1049.3199 1284.2958,-1054.3698 1294.726,-1056.2304 1293.6098,-1049.3199"/>
</g>
<!-- 23&#45;&gt;20 -->
<g id="edge50" class="edge">
<title>23&#45;&gt;20</title>
<path fill="none" stroke="#000000" d="M1284.1469,-743.0865C1281.1529,-745.3777 1278.0728,-747.5605 1275,-749.4913 1226.9688,-779.6705 1202.2145,-764.9547 1158,-800.4913 1131.4609,-821.8216 1138.9692,-840.4706 1113,-862.4913 1087.9864,-883.7016 1077.6628,-883.8574 1047,-895.4913 999.4969,-913.5147 942.6887,-927.6285 905.1022,-935.9883"/>
<polygon fill="#000000" stroke="#000000" points="904.0546,-932.6346 895.0343,-938.1921 905.5514,-939.4727 904.0546,-932.6346"/>
</g>
</g>
</svg>
