<?xml version="1.0" encoding="UTF-8" standalone="no"?>
<!DOCTYPE svg PUBLIC "-//W3C//DTD SVG 1.1//EN"
 "http://www.w3.org/Graphics/SVG/1.1/DTD/svg11.dtd">
<!-- Generated by graphviz version 2.42.4 (0)
 -->
<!-- Title: stable Pages: 1 -->
<svg width="720pt" height="483pt"
 viewBox="0.00 0.00 719.78 483.00" xmlns="http://www.w3.org/2000/svg" xmlns:xlink="http://www.w3.org/1999/xlink">
<g id="graph0" class="graph" transform="scale(1 1) rotate(0) translate(4 479)">
<title>stable</title>
<polygon fill="white" stroke="transparent" points="-4,4 -4,-479 715.78,-479 715.78,4 -4,4"/>
<text text-anchor="middle" x="355.89" y="-7.8" font-family="Times,serif" font-size="14.00">stable&#45;4.6_amd64 (2021&#45;02&#45;08)</text>
<!-- 0 -->
<g id="node1" class="node">
<title>0</title>
<ellipse fill="lightgrey" stroke="lightgrey" cx="632.63" cy="-172" rx="40.09" ry="18"/>
<text text-anchor="middle" x="632.63" y="-168.3" font-family="Times,serif" font-size="14.00">4.5.28</text>
</g>
<!-- 17 -->
<g id="node6" class="node">
<title>17</title>
<polygon fill="yellowgreen" stroke="yellowgreen" points="361.63,-475 299.63,-475 299.63,-413 361.63,-413 361.63,-475"/>
<text text-anchor="middle" x="330.63" y="-440.3" font-family="Times,serif" font-size="14.00">4.6.13</text>
</g>
<!-- 0&#45;&gt;17 -->
<g id="edge25" class="edge">
<title>0&#45;&gt;17</title>
<path fill="none" stroke="blue" stroke-dasharray="5,2" d="M626.27,-189.79C617.33,-211.9 599.44,-251.25 575.63,-279 517.15,-347.16 423.74,-398.93 370.75,-424.76"/>
<polygon fill="blue" stroke="blue" points="369.16,-421.64 361.66,-429.13 372.19,-427.95 369.16,-421.64"/>
</g>
<!-- 26 -->
<g id="node7" class="node">
<title>26</title>
<polygon fill="yellowgreen" stroke="yellowgreen" points="504.63,-475 442.63,-475 442.63,-413 504.63,-413 504.63,-475"/>
<text text-anchor="middle" x="473.63" y="-440.3" font-family="Times,serif" font-size="14.00">4.6.15</text>
</g>
<!-- 0&#45;&gt;26 -->
<g id="edge4" class="edge">
<title>0&#45;&gt;26</title>
<path fill="none" stroke="blue" stroke-dasharray="5,2" d="M639.41,-189.96C646.9,-211.26 656.68,-248.69 646.63,-279 624.82,-344.78 557.52,-394.68 513.57,-421.33"/>
<polygon fill="blue" stroke="blue" points="511.66,-418.39 504.84,-426.5 515.23,-424.41 511.66,-418.39"/>
</g>
<!-- 1 -->
<g id="node2" class="node">
<title>1</title>
<ellipse fill="lightgrey" stroke="lightgrey" cx="427.63" cy="-252.5" rx="40.09" ry="18"/>
<text text-anchor="middle" x="427.63" y="-248.8" font-family="Times,serif" font-size="14.00">4.5.24</text>
</g>
<!-- 1&#45;&gt;17 -->
<g id="edge13" class="edge">
<title>1&#45;&gt;17</title>
<path fill="none" stroke="blue" stroke-dasharray="5,2" d="M421.31,-270.29C412,-294.44 393.52,-340.14 373.63,-377 368.76,-386.03 363.05,-395.43 357.42,-404.21"/>
<polygon fill="blue" stroke="blue" points="354.38,-402.47 351.84,-412.75 360.24,-406.29 354.38,-402.47"/>
</g>
<!-- 1&#45;&gt;26 -->
<g id="edge15" class="edge">
<title>1&#45;&gt;26</title>
<path fill="none" stroke="blue" stroke-dasharray="5,2" d="M431.79,-270.65C438.99,-300.3 453.94,-361.88 463.88,-402.83"/>
<polygon fill="blue" stroke="blue" points="460.53,-403.87 466.29,-412.76 467.33,-402.22 460.53,-403.87"/>
</g>
<!-- 28 -->
<g id="node8" class="node">
<title>28</title>
<polygon fill="yellowgreen" stroke="yellowgreen" points="331.63,-377 269.63,-377 269.63,-315 331.63,-315 331.63,-377"/>
<text text-anchor="middle" x="300.63" y="-342.3" font-family="Times,serif" font-size="14.00">4.6.12</text>
</g>
<!-- 1&#45;&gt;28 -->
<g id="edge11" class="edge">
<title>1&#45;&gt;28</title>
<path fill="none" stroke="blue" stroke-dasharray="5,2" d="M407.23,-268.2C389.2,-281.19 362.39,-300.51 340.17,-316.51"/>
<polygon fill="blue" stroke="blue" points="337.97,-313.78 331.9,-322.47 342.06,-319.46 337.97,-313.78"/>
</g>
<!-- 3 -->
<g id="node3" class="node">
<title>3</title>
<ellipse fill="lightgrey" stroke="lightgrey" cx="355.63" cy="-172" rx="40.09" ry="18"/>
<text text-anchor="middle" x="355.63" y="-168.3" font-family="Times,serif" font-size="14.00">4.5.23</text>
</g>
<!-- 3&#45;&gt;17 -->
<g id="edge12" class="edge">
<title>3&#45;&gt;17</title>
<path fill="none" stroke="blue" stroke-dasharray="5,2" d="M354.81,-190.24C353.04,-225.42 348.38,-308.01 340.63,-377 339.69,-385.35 338.48,-394.27 337.23,-402.76"/>
<polygon fill="blue" stroke="blue" points="333.74,-402.42 335.7,-412.84 340.66,-403.48 333.74,-402.42"/>
</g>
<!-- 3&#45;&gt;26 -->
<g id="edge33" class="edge">
<title>3&#45;&gt;26</title>
<path fill="none" stroke="blue" stroke-dasharray="5,2" d="M394.61,-176.69C451.65,-182.98 553.51,-197.92 575.63,-226 620.41,-282.84 557.35,-362.54 512.26,-407.85"/>
<polygon fill="blue" stroke="blue" points="509.58,-405.57 504.91,-415.08 514.49,-410.56 509.58,-405.57"/>
</g>
<!-- 3&#45;&gt;28 -->
<g id="edge16" class="edge">
<title>3&#45;&gt;28</title>
<path fill="none" stroke="blue" stroke-dasharray="5,2" d="M350.16,-190.12C341.66,-216.68 325.08,-268.55 313.45,-304.91"/>
<polygon fill="blue" stroke="blue" points="310.02,-304.14 310.31,-314.73 316.69,-306.27 310.02,-304.14"/>
</g>
<!-- 29 -->
<g id="node9" class="node">
<title>29</title>
<polygon fill="yellowgreen" stroke="yellowgreen" points="179.13,-279 126.13,-279 126.13,-226 179.13,-226 179.13,-279"/>
<text text-anchor="middle" x="152.63" y="-248.8" font-family="Times,serif" font-size="14.00">4.6.8</text>
</g>
<!-- 3&#45;&gt;29 -->
<g id="edge28" class="edge">
<title>3&#45;&gt;29</title>
<path fill="none" stroke="blue" stroke-dasharray="5,2" d="M326.11,-184.41C289.72,-198.49 227.89,-222.4 188.71,-237.55"/>
<polygon fill="blue" stroke="blue" points="187.34,-234.33 179.27,-241.2 189.86,-240.86 187.34,-234.33"/>
</g>
<!-- 5 -->
<g id="node4" class="node">
<title>5</title>
<ellipse fill="lightgrey" stroke="lightgrey" cx="215.63" cy="-172" rx="40.09" ry="18"/>
<text text-anchor="middle" x="215.63" y="-168.3" font-family="Times,serif" font-size="14.00">4.5.22</text>
</g>
<!-- 5&#45;&gt;17 -->
<g id="edge2" class="edge">
<title>5&#45;&gt;17</title>
<path fill="none" stroke="blue" stroke-dasharray="5,2" d="M181.56,-181.62C159.11,-189.26 131.4,-202.91 117.63,-226 98.53,-258.04 135.45,-373.42 138.63,-377 177.17,-420.46 245.65,-435.32 289.55,-440.39"/>
<polygon fill="blue" stroke="blue" points="289.31,-443.88 299.61,-441.43 290.03,-436.92 289.31,-443.88"/>
</g>
<!-- 5&#45;&gt;26 -->
<g id="edge32" class="edge">
<title>5&#45;&gt;26</title>
<path fill="none" stroke="blue" stroke-dasharray="5,2" d="M214.1,-190.07C211.64,-228.7 211.3,-323.57 260.63,-377 263.64,-380.26 371.54,-412.69 432.58,-430.84"/>
<polygon fill="blue" stroke="blue" points="431.73,-434.24 442.31,-433.73 433.72,-427.53 431.73,-434.24"/>
</g>
<!-- 5&#45;&gt;28 -->
<g id="edge3" class="edge">
<title>5&#45;&gt;28</title>
<path fill="none" stroke="blue" stroke-dasharray="5,2" d="M223.94,-189.81C237.09,-216.42 263.07,-268.99 281.13,-305.53"/>
<polygon fill="blue" stroke="blue" points="278.19,-307.5 285.76,-314.91 284.47,-304.4 278.19,-307.5"/>
</g>
<!-- 5&#45;&gt;29 -->
<g id="edge23" class="edge">
<title>5&#45;&gt;29</title>
<path fill="none" stroke="blue" stroke-dasharray="5,2" d="M202.58,-189.27C195.87,-197.63 187.43,-208.14 179.41,-218.13"/>
<polygon fill="blue" stroke="blue" points="176.64,-215.99 173.11,-225.98 182.1,-220.37 176.64,-215.99"/>
</g>
<!-- 8 -->
<g id="node5" class="node">
<title>8</title>
<ellipse fill="lightgrey" stroke="lightgrey" cx="526.63" cy="-252.5" rx="40.09" ry="18"/>
<text text-anchor="middle" x="526.63" y="-248.8" font-family="Times,serif" font-size="14.00">4.5.27</text>
</g>
<!-- 8&#45;&gt;17 -->
<g id="edge7" class="edge">
<title>8&#45;&gt;17</title>
<path fill="none" stroke="blue" stroke-dasharray="5,2" d="M511,-269.25C487.48,-292.88 441.5,-338.79 401.63,-377 391.27,-386.93 379.93,-397.57 369.41,-407.35"/>
<polygon fill="blue" stroke="blue" points="366.88,-404.92 361.93,-414.29 371.64,-410.06 366.88,-404.92"/>
</g>
<!-- 8&#45;&gt;26 -->
<g id="edge14" class="edge">
<title>8&#45;&gt;26</title>
<path fill="none" stroke="blue" stroke-dasharray="5,2" d="M521.83,-270.65C513.52,-300.36 496.24,-362.15 484.79,-403.09"/>
<polygon fill="blue" stroke="blue" points="481.41,-402.19 482.09,-412.76 488.15,-404.08 481.41,-402.19"/>
</g>
<!-- 8&#45;&gt;28 -->
<g id="edge22" class="edge">
<title>8&#45;&gt;28</title>
<path fill="none" stroke="blue" stroke-dasharray="5,2" d="M501.97,-266.77C493.98,-270.89 485.01,-275.31 476.63,-279 431.19,-299.03 377.57,-318.57 341.56,-331.13"/>
<polygon fill="blue" stroke="blue" points="340.2,-327.89 331.89,-334.48 342.49,-334.51 340.2,-327.89"/>
</g>
<!-- 28&#45;&gt;17 -->
<g id="edge10" class="edge">
<title>28&#45;&gt;17</title>
<path fill="none" stroke="blue" stroke-dasharray="5,2" d="M310.04,-377.11C312.64,-385.42 315.5,-394.57 318.23,-403.33"/>
<polygon fill="blue" stroke="blue" points="314.93,-404.49 321.25,-413 321.61,-402.41 314.93,-404.49"/>
</g>
<!-- 28&#45;&gt;26 -->
<g id="edge6" class="edge">
<title>28&#45;&gt;26</title>
<path fill="none" stroke="blue" stroke-dasharray="5,2" d="M331.96,-364.38C360.5,-380.22 402.78,-403.68 433.73,-420.86"/>
<polygon fill="blue" stroke="blue" points="432.09,-423.95 442.54,-425.74 435.49,-417.83 432.09,-423.95"/>
</g>
<!-- 29&#45;&gt;17 -->
<g id="edge17" class="edge">
<title>29&#45;&gt;17</title>
<path fill="none" stroke="blue" stroke-dasharray="5,2" d="M146.57,-279.35C141.82,-306.37 139.02,-348.71 159.63,-377 189.71,-418.29 249.3,-433.75 289.57,-439.54"/>
<polygon fill="blue" stroke="blue" points="289.25,-443.02 299.61,-440.84 290.15,-436.08 289.25,-443.02"/>
</g>
<!-- 29&#45;&gt;26 -->
<g id="edge5" class="edge">
<title>29&#45;&gt;26</title>
<path fill="none" stroke="blue" stroke-dasharray="5,2" d="M154.75,-279.11C158.51,-307.38 168.9,-352.14 197.63,-377 257.02,-428.39 294.43,-394 370.63,-413 391.16,-418.12 413.75,-424.6 432.53,-430.23"/>
<polygon fill="blue" stroke="blue" points="431.66,-433.62 442.25,-433.17 433.69,-426.92 431.66,-433.62"/>
</g>
<!-- 29&#45;&gt;28 -->
<g id="edge30" class="edge">
<title>29&#45;&gt;28</title>
<path fill="none" stroke="blue" stroke-dasharray="5,2" d="M179.43,-270.07C202.09,-284.07 234.86,-304.34 260.62,-320.27"/>
<polygon fill="blue" stroke="blue" points="259.07,-323.42 269.41,-325.7 262.75,-317.46 259.07,-323.42"/>
</g>
<!-- 30 -->
<g id="node10" class="node">
<title>30</title>
<polygon fill="salmon" stroke="salmon" points="405.37,-76.09 355.63,-88.6 305.9,-76.09 324.89,-55.86 386.37,-55.86 405.37,-76.09"/>
<polygon fill="none" stroke="salmon" points="412.96,-78.33 355.63,-92.75 298.3,-78.33 323.17,-51.83 388.09,-51.83 412.96,-78.33"/>
<text text-anchor="middle" x="355.63" y="-66.8" font-family="Times,serif" font-size="14.00">4.5.20</text>
</g>
<!-- 30&#45;&gt;0 -->
<g id="edge1" class="edge">
<title>30&#45;&gt;0</title>
<path fill="none" stroke="blue" d="M374.96,-88.01C387.53,-97.98 404.69,-110.23 421.63,-118 474.71,-142.34 540.64,-156.61 584.53,-164.1"/>
<polygon fill="blue" stroke="blue" points="584.21,-167.59 594.65,-165.77 585.35,-160.69 584.21,-167.59"/>
</g>
<!-- 30&#45;&gt;1 -->
<g id="edge19" class="edge">
<title>30&#45;&gt;1</title>
<path fill="none" stroke="blue" d="M368.63,-89.66C379.65,-105.84 395.15,-130.52 404.63,-154 413.91,-176.96 419.98,-204.55 423.54,-224.51"/>
<polygon fill="blue" stroke="blue" points="420.11,-225.19 425.22,-234.46 427.01,-224.02 420.11,-225.19"/>
</g>
<!-- 30&#45;&gt;3 -->
<g id="edge34" class="edge">
<title>30&#45;&gt;3</title>
<path fill="none" stroke="blue" d="M355.63,-93.09C355.63,-107.86 355.63,-127.56 355.63,-143.46"/>
<polygon fill="blue" stroke="blue" points="352.13,-143.75 355.63,-153.75 359.13,-143.75 352.13,-143.75"/>
</g>
<!-- 30&#45;&gt;5 -->
<g id="edge27" class="edge">
<title>30&#45;&gt;5</title>
<path fill="none" stroke="blue" d="M333.45,-87.27C309.48,-104.3 271.19,-131.52 244.8,-150.27"/>
<polygon fill="blue" stroke="blue" points="242.46,-147.63 236.34,-156.28 246.52,-153.34 242.46,-147.63"/>
</g>
<!-- 30&#45;&gt;8 -->
<g id="edge8" class="edge">
<title>30&#45;&gt;8</title>
<path fill="none" stroke="blue" d="M372.03,-88.76C402.93,-121.29 469.82,-191.69 504.6,-228.31"/>
<polygon fill="blue" stroke="blue" points="502.09,-230.75 511.52,-235.59 507.17,-225.93 502.09,-230.75"/>
</g>
<!-- 30&#45;&gt;26 -->
<g id="edge31" class="edge">
<title>30&#45;&gt;26</title>
<path fill="none" stroke="red" stroke-width="2" d="M374.13,-88.19C386.64,-98.51 404.03,-111.06 421.63,-118 475.89,-139.4 643.32,-110.02 681.63,-154 749.44,-231.84 689.86,-304.24 616.63,-377 588.36,-405.08 545.94,-422.58 514.64,-432.44"/>
<polygon fill="red" stroke="red" stroke-width="2" points="513.46,-429.14 504.9,-435.38 515.48,-435.85 513.46,-429.14"/>
</g>
<!-- 30&#45;&gt;28 -->
<g id="edge21" class="edge">
<title>30&#45;&gt;28</title>
<path fill="none" stroke="red" stroke-width="2" d="M341.45,-89.25C329.66,-105.16 313.72,-129.69 306.63,-154 291.93,-204.43 293.12,-265.55 296.17,-304.84"/>
<polygon fill="red" stroke="red" stroke-width="2" points="292.68,-305.16 297.02,-314.83 299.66,-304.57 292.68,-305.16"/>
</g>
<!-- 30&#45;&gt;29 -->
<g id="edge18" class="edge">
<title>30&#45;&gt;29</title>
<path fill="none" stroke="red" stroke-width="2" d="M303.72,-79.85C260.05,-89.74 199.6,-110.71 166.63,-154 153.4,-171.38 149.88,-195.69 149.69,-215.69"/>
<polygon fill="red" stroke="red" stroke-width="2" points="146.19,-215.75 149.85,-225.69 153.18,-215.63 146.19,-215.75"/>
</g>
<!-- 35 -->
<g id="node11" class="node">
<title>35</title>
<ellipse fill="lightgrey" stroke="lightgrey" cx="79.63" cy="-172" rx="40.09" ry="18"/>
<text text-anchor="middle" x="79.63" y="-168.3" font-family="Times,serif" font-size="14.00">4.5.21</text>
</g>
<!-- 30&#45;&gt;35 -->
<g id="edge24" class="edge">
<title>30&#45;&gt;35</title>
<path fill="none" stroke="blue" d="M320.68,-84.1C269.33,-102.61 173.77,-137.06 119.67,-156.56"/>
<polygon fill="blue" stroke="blue" points="118.29,-153.34 110.07,-160.03 120.67,-159.93 118.29,-153.34"/>
</g>
<!-- 35&#45;&gt;17 -->
<g id="edge9" class="edge">
<title>35&#45;&gt;17</title>
<path fill="none" stroke="blue" stroke-dasharray="5,2" d="M52.19,-185.19C36.02,-193.99 16.95,-207.58 7.63,-226 -3,-247.02 -1.91,-257.46 7.63,-279 56.52,-389.39 213.72,-426.44 289.3,-438.07"/>
<polygon fill="blue" stroke="blue" points="289,-441.56 299.4,-439.55 290.01,-434.64 289,-441.56"/>
</g>
<!-- 35&#45;&gt;26 -->
<g id="edge20" class="edge">
<title>35&#45;&gt;26</title>
<path fill="none" stroke="blue" stroke-dasharray="5,2" d="M77.41,-190.12C75.3,-211.59 73.86,-249.2 84.63,-279 103.19,-330.33 111.99,-348.65 158.63,-377 240.3,-426.64 277.49,-391.6 370.63,-413 391.25,-417.74 413.85,-424.18 432.61,-429.87"/>
<polygon fill="blue" stroke="blue" points="431.74,-433.27 442.32,-432.86 433.79,-426.58 431.74,-433.27"/>
</g>
<!-- 35&#45;&gt;28 -->
<g id="edge29" class="edge">
<title>35&#45;&gt;28</title>
<path fill="none" stroke="blue" stroke-dasharray="5,2" d="M81.27,-190.06C84.38,-213.21 93.19,-254.51 117.63,-279 156.01,-317.45 218.42,-333.64 259.5,-340.36"/>
<polygon fill="blue" stroke="blue" points="259.04,-343.83 269.46,-341.87 260.1,-336.91 259.04,-343.83"/>
</g>
<!-- 35&#45;&gt;29 -->
<g id="edge26" class="edge">
<title>35&#45;&gt;29</title>
<path fill="none" stroke="blue" stroke-dasharray="5,2" d="M94.4,-188.89C102.24,-197.31 112.17,-207.99 121.61,-218.14"/>
<polygon fill="blue" stroke="blue" points="119.31,-220.81 128.68,-225.75 124.44,-216.04 119.31,-220.81"/>
</g>
<!-- Key -->
<g id="node12" class="node">
<title>Key</title>
<text text-anchor="start" x="501.63" y="-83.3" font-family="Times,serif" font-weight="bold" font-size="14.00">Key</text>
<text text-anchor="start" x="454.63" y="-66.3" font-family="Times,serif" font-size="14.00">Direct Path</text>
<text text-anchor="start" x="553.63" y="-66.3" font-family="Times,serif" font-size="14.00" fill="red">⟶</text>
<text text-anchor="start" x="454.63" y="-50.3" font-family="Times,serif" font-size="14.00">Indirect Path</text>
<text text-anchor="start" x="549.63" y="-50.3" font-family="Times,serif" font-size="14.00" fill="blue">→ ⤏</text>
<polygon fill="none" stroke="black" stroke-dasharray="1,5" points="452.63,-45 452.63,-96 580.63,-96 580.63,-45 452.63,-45"/>
</g>
</g>
</svg>
