<?xml version="1.0" encoding="UTF-8" standalone="no"?>
<!DOCTYPE svg PUBLIC "-//W3C//DTD SVG 1.1//EN"
 "http://www.w3.org/Graphics/SVG/1.1/DTD/svg11.dtd">
<!-- Generated by graphviz version 2.40.1 (0)
 -->
<!-- Title: stable Pages: 1 -->
<svg width="445pt" height="287pt"
 viewBox="0.00 0.00 444.80 287.00" xmlns="http://www.w3.org/2000/svg" xmlns:xlink="http://www.w3.org/1999/xlink">
<g id="graph0" class="graph" transform="scale(1 1) rotate(0) translate(4 283)">
<title>stable</title>
<polygon fill="#ffffff" stroke="transparent" points="-4,4 -4,-283 440.7964,-283 440.7964,4 -4,4"/>
<text text-anchor="middle" x="218.3982" y="-7.8" font-family="Times,serif" font-size="14.00" fill="#000000">stable&#45;4.4_amd64 (2020&#45;06&#45;03)</text>
<!-- 0 -->
<g id="node1" class="node">
<title>0</title>
<ellipse fill="#d3d3d3" stroke="#d3d3d3" cx="139.2964" cy="-172" rx="40.0939" ry="18"/>
<text text-anchor="middle" x="139.2964" y="-168.3" font-family="Times,serif" font-size="14.00" fill="#000000">4.3.18</text>
</g>
<!-- 4 -->
<g id="node4" class="node">
<title>4</title>
<polygon fill="#9acd32" stroke="#9acd32" points="179.7964,-279 126.7964,-279 126.7964,-226 179.7964,-226 179.7964,-279"/>
<text text-anchor="middle" x="153.2964" y="-248.8" font-family="Times,serif" font-size="14.00" fill="#000000">4.4.5</text>
</g>
<!-- 0&#45;&gt;4 -->
<g id="edge3" class="edge">
<title>0&#45;&gt;4</title>
<path fill="none" stroke="#0000ff" stroke-dasharray="5,2" d="M142.4732,-190.2667C143.7837,-197.8019 145.3521,-206.8199 146.8828,-215.6214"/>
<polygon fill="#0000ff" stroke="#0000ff" points="143.4829,-216.4999 148.6447,-225.7523 150.3794,-215.3005 143.4829,-216.4999"/>
</g>
<!-- 7 -->
<g id="node6" class="node">
<title>7</title>
<polygon fill="#9acd32" stroke="#9acd32" points="264.7964,-279 211.7964,-279 211.7964,-226 264.7964,-226 264.7964,-279"/>
<text text-anchor="middle" x="238.2964" y="-248.8" font-family="Times,serif" font-size="14.00" fill="#000000">4.4.4</text>
</g>
<!-- 0&#45;&gt;7 -->
<g id="edge7" class="edge">
<title>0&#45;&gt;7</title>
<path fill="none" stroke="#0000ff" stroke-dasharray="5,2" d="M158.8556,-187.9042C171.598,-198.2654 188.5803,-212.0743 203.572,-224.2645"/>
<polygon fill="#0000ff" stroke="#0000ff" points="201.6895,-227.2448 211.6564,-230.8381 206.1057,-221.8137 201.6895,-227.2448"/>
</g>
<!-- 2 -->
<g id="node2" class="node">
<title>2</title>
<polygon fill="#fa8072" stroke="#fa8072" points="238.0325,-76.0934 188.2964,-88.6005 138.5604,-76.0934 157.5579,-55.8564 219.035,-55.8564 238.0325,-76.0934"/>
<polygon fill="none" stroke="#fa8072" points="245.6278,-78.3292 188.2964,-92.7463 130.965,-78.3292 155.8374,-51.8341 220.7555,-51.8341 245.6278,-78.3292"/>
<text text-anchor="middle" x="188.2964" y="-66.8" font-family="Times,serif" font-size="14.00" fill="#000000">4.3.13</text>
</g>
<!-- 2&#45;&gt;0 -->
<g id="edge8" class="edge">
<title>2&#45;&gt;0</title>
<path fill="none" stroke="#0000ff" d="M178.6156,-90.5531C171.1082,-106.1042 160.6271,-127.815 152.374,-144.9108"/>
<polygon fill="#0000ff" stroke="#0000ff" points="149.0071,-143.8346 147.8115,-154.3617 155.3109,-146.8778 149.0071,-143.8346"/>
</g>
<!-- 3 -->
<g id="node3" class="node">
<title>3</title>
<ellipse fill="#d3d3d3" stroke="#d3d3d3" cx="238.2964" cy="-172" rx="40.0939" ry="18"/>
<text text-anchor="middle" x="238.2964" y="-168.3" font-family="Times,serif" font-size="14.00" fill="#000000">4.3.21</text>
</g>
<!-- 2&#45;&gt;3 -->
<g id="edge11" class="edge">
<title>2&#45;&gt;3</title>
<path fill="none" stroke="#0000ff" d="M198.1748,-90.5531C205.907,-106.2496 216.7306,-128.2214 225.1875,-145.3889"/>
<polygon fill="#0000ff" stroke="#0000ff" points="222.0488,-146.9378 229.6076,-154.3617 228.3283,-143.8444 222.0488,-146.9378"/>
</g>
<!-- 5 -->
<g id="node5" class="node">
<title>5</title>
<ellipse fill="#d3d3d3" stroke="#d3d3d3" cx="40.2964" cy="-172" rx="40.0939" ry="18"/>
<text text-anchor="middle" x="40.2964" y="-168.3" font-family="Times,serif" font-size="14.00" fill="#000000">4.3.22</text>
</g>
<!-- 2&#45;&gt;5 -->
<g id="edge1" class="edge">
<title>2&#45;&gt;5</title>
<path fill="none" stroke="#0000ff" d="M164.5177,-86.8077C139.154,-104.2024 98.8864,-131.8184 71.1088,-150.8686"/>
<polygon fill="#0000ff" stroke="#0000ff" points="68.831,-148.1866 62.5636,-156.7289 72.7901,-153.9595 68.831,-148.1866"/>
</g>
<!-- 8 -->
<g id="node7" class="node">
<title>8</title>
<ellipse fill="#d3d3d3" stroke="#d3d3d3" cx="337.2964" cy="-172" rx="40.0939" ry="18"/>
<text text-anchor="middle" x="337.2964" y="-168.3" font-family="Times,serif" font-size="14.00" fill="#000000">4.3.19</text>
</g>
<!-- 2&#45;&gt;8 -->
<g id="edge5" class="edge">
<title>2&#45;&gt;8</title>
<path fill="none" stroke="#0000ff" d="M211.4144,-87.1845C224.2626,-96.3825 240.5816,-107.9431 255.2964,-118 271.7662,-129.2563 290.3147,-141.5063 305.5992,-151.489"/>
<polygon fill="#0000ff" stroke="#0000ff" points="303.8918,-154.5538 314.181,-157.08 307.7129,-148.6887 303.8918,-154.5538"/>
</g>
<!-- 3&#45;&gt;4 -->
<g id="edge4" class="edge">
<title>3&#45;&gt;4</title>
<path fill="none" stroke="#0000ff" stroke-dasharray="5,2" d="M221.0954,-188.2904C211.3858,-197.486 198.9062,-209.3048 187.3064,-220.2906"/>
<polygon fill="#0000ff" stroke="#0000ff" points="184.7026,-217.936 179.8486,-227.3535 189.516,-223.0185 184.7026,-217.936"/>
</g>
<!-- 3&#45;&gt;7 -->
<g id="edge9" class="edge">
<title>3&#45;&gt;7</title>
<path fill="none" stroke="#0000ff" stroke-dasharray="5,2" d="M238.2964,-190.2667C238.2964,-197.8019 238.2964,-206.8199 238.2964,-215.6214"/>
<polygon fill="#0000ff" stroke="#0000ff" points="234.7965,-215.7523 238.2964,-225.7523 241.7965,-215.7524 234.7965,-215.7523"/>
</g>
<!-- 5&#45;&gt;4 -->
<g id="edge6" class="edge">
<title>5&#45;&gt;4</title>
<path fill="none" stroke="#0000ff" stroke-dasharray="5,2" d="M61.8168,-187.3309C77.8096,-198.724 99.9669,-214.5086 118.4693,-227.6895"/>
<polygon fill="#0000ff" stroke="#0000ff" points="116.5025,-230.5857 126.678,-233.5373 120.5641,-224.8845 116.5025,-230.5857"/>
</g>
<!-- 8&#45;&gt;4 -->
<g id="edge10" class="edge">
<title>8&#45;&gt;4</title>
<path fill="none" stroke="#0000ff" stroke-dasharray="5,2" d="M306.0357,-183.5369C278.6251,-193.9031 237.8668,-209.9264 203.2964,-226 198.6278,-228.1707 193.7753,-230.5632 189.0098,-232.9957"/>
<polygon fill="#0000ff" stroke="#0000ff" points="187.2769,-229.9519 180.024,-237.6751 190.5101,-236.1605 187.2769,-229.9519"/>
</g>
<!-- 8&#45;&gt;7 -->
<g id="edge2" class="edge">
<title>8&#45;&gt;7</title>
<path fill="none" stroke="#0000ff" stroke-dasharray="5,2" d="M317.7372,-187.9042C304.9949,-198.2654 288.0125,-212.0743 273.0208,-224.2645"/>
<polygon fill="#0000ff" stroke="#0000ff" points="270.4871,-221.8137 264.9365,-230.8381 274.9034,-227.2448 270.4871,-221.8137"/>
</g>
<!-- Key -->
<g id="node8" class="node">
<title>Key</title>
<text text-anchor="start" x="335.2964" y="-83.3" font-family="Times,serif" font-weight="bold" font-size="14.00" fill="#000000">Key</text>
<text text-anchor="start" x="288.2964" y="-66.3" font-family="Times,serif" font-size="14.00" fill="#000000">Direct Path</text>
<text text-anchor="start" x="388.2964" y="-66.3" font-family="Times,serif" font-size="14.00" fill="#ff0000">⟶</text>
<text text-anchor="start" x="288.2964" y="-50.3" font-family="Times,serif" font-size="14.00" fill="#000000">Indirect Path</text>
<text text-anchor="start" x="384.2964" y="-50.3" font-family="Times,serif" font-size="14.00" fill="#0000ff">→ ⤏</text>
<polygon fill="none" stroke="#000000" stroke-dasharray="1,5" points="285.7964,-45 285.7964,-96 414.7964,-96 414.7964,-45 285.7964,-45"/>
</g>
</g>
</svg>
