<?xml version="1.0" encoding="UTF-8" standalone="no"?>
<!DOCTYPE svg PUBLIC "-//W3C//DTD SVG 1.1//EN"
 "http://www.w3.org/Graphics/SVG/1.1/DTD/svg11.dtd">
<!-- Generated by graphviz version 2.40.1 (0)
 -->
<!-- Title: stable Pages: 1 -->
<svg width="460pt" height="374pt"
 viewBox="0.00 0.00 460.38 374.25" xmlns="http://www.w3.org/2000/svg" xmlns:xlink="http://www.w3.org/1999/xlink">
<g id="graph0" class="graph" transform="scale(1 1) rotate(0) translate(4 370.2456)">
<title>stable</title>
<polygon fill="#ffffff" stroke="transparent" points="-4,4 -4,-370.2456 456.3813,-370.2456 456.3813,4 -4,4"/>
<text text-anchor="middle" x="226.1907" y="-7.8" font-family="Times,serif" font-size="14.00" fill="#000000">stable&#45;4.3 (2020&#45;05&#45;27) [amd64]</text>
<!-- 0 -->
<g id="node1" class="node">
<title>0</title>
<polygon fill="#9acd32" stroke="#9acd32" points="294.0849,-366.2456 232.0849,-366.2456 232.0849,-304.2456 294.0849,-304.2456 294.0849,-366.2456"/>
<text text-anchor="middle" x="263.0849" y="-331.5456" font-family="Times,serif" font-size="14.00" fill="#000000">4.3.21</text>
</g>
<!-- 6 -->
<g id="node2" class="node">
<title>6</title>
<polygon fill="#fa8072" stroke="#fa8072" points="213.8209,-50.7162 164.0849,-63.2233 114.3489,-50.7162 133.3463,-30.4792 194.8234,-30.4792 213.8209,-50.7162"/>
<polygon fill="none" stroke="#fa8072" points="221.4163,-52.952 164.0849,-67.3692 106.7535,-52.952 131.6258,-26.4569 196.5439,-26.4569 221.4163,-52.952"/>
<text text-anchor="middle" x="164.0849" y="-41.4228" font-family="Times,serif" font-size="14.00" fill="#000000">4.2.27</text>
</g>
<!-- 13 -->
<g id="node3" class="node">
<title>13</title>
<ellipse fill="#d3d3d3" stroke="#d3d3d3" cx="49.0849" cy="-122.2456" rx="40.0939" ry="18"/>
<text text-anchor="middle" x="49.0849" y="-118.5456" font-family="Times,serif" font-size="14.00" fill="#000000">4.2.28</text>
</g>
<!-- 6&#45;&gt;13 -->
<g id="edge12" class="edge">
<title>6&#45;&gt;13</title>
<path fill="none" stroke="#0000ff" d="M139.6963,-61.4786C122.2795,-73.1589 98.7142,-88.9626 79.9813,-101.5255"/>
<polygon fill="#0000ff" stroke="#0000ff" points="77.8442,-98.7445 71.4883,-107.2212 81.743,-104.5582 77.8442,-98.7445"/>
</g>
<!-- 15 -->
<g id="node5" class="node">
<title>15</title>
<ellipse fill="#d3d3d3" stroke="#d3d3d3" cx="204.0849" cy="-122.2456" rx="40.0939" ry="18"/>
<text text-anchor="middle" x="204.0849" y="-118.5456" font-family="Times,serif" font-size="14.00" fill="#000000">4.2.29</text>
</g>
<!-- 6&#45;&gt;15 -->
<g id="edge2" class="edge">
<title>6&#45;&gt;15</title>
<path fill="none" stroke="#0000ff" d="M174.3859,-64.9839C179.1923,-74.251 184.9848,-85.4194 190.1731,-95.4228"/>
<polygon fill="#0000ff" stroke="#0000ff" points="187.1993,-97.291 194.9104,-104.5566 193.4132,-94.0681 187.1993,-97.291"/>
</g>
<!-- 22 -->
<g id="node7" class="node">
<title>22</title>
<polygon fill="#9acd32" stroke="#9acd32" points="156.0849,-253.2456 94.0849,-253.2456 94.0849,-191.2456 156.0849,-191.2456 156.0849,-253.2456"/>
<text text-anchor="middle" x="125.0849" y="-218.5456" font-family="Times,serif" font-size="14.00" fill="#000000">4.3.18</text>
</g>
<!-- 6&#45;&gt;22 -->
<g id="edge11" class="edge">
<title>6&#45;&gt;22</title>
<path fill="none" stroke="#ff0000" stroke-width="2" d="M151.7567,-64.5724C145.3215,-75.7387 137.993,-90.2793 134.0849,-104.2456 127.1232,-129.1245 124.8291,-158.0318 124.2969,-181.0079"/>
<polygon fill="#ff0000" stroke="#ff0000" stroke-width="2" points="120.7959,-181.0668 124.1659,-191.1114 127.7953,-181.1577 120.7959,-181.0668"/>
<text text-anchor="middle" x="144.5849" y="-118.5456" font-family="Times,serif" font-size="14.00" fill="#000000">dir</text>
</g>
<!-- 23 -->
<g id="node8" class="node">
<title>23</title>
<ellipse fill="#d3d3d3" stroke="#d3d3d3" cx="412.0849" cy="-222.2456" rx="40.0939" ry="18"/>
<text text-anchor="middle" x="412.0849" y="-218.5456" font-family="Times,serif" font-size="14.00" fill="#000000">4.2.33</text>
</g>
<!-- 6&#45;&gt;23 -->
<g id="edge13" class="edge">
<title>6&#45;&gt;23</title>
<path fill="none" stroke="#0000ff" d="M189.2559,-61.3438C207.2093,-73.0346 231.8345,-89.3171 253.0849,-104.2456 299.3647,-136.7576 351.8335,-176.2201 383.4195,-200.2695"/>
<polygon fill="#0000ff" stroke="#0000ff" points="381.6784,-203.3434 391.7521,-206.6254 385.9238,-197.7777 381.6784,-203.3434"/>
</g>
<!-- 13&#45;&gt;0 -->
<g id="edge10" class="edge">
<title>13&#45;&gt;0</title>
<path fill="none" stroke="#0000ff" stroke-dasharray="5,2" d="M44.7836,-140.2071C39.2321,-168.2751 33.397,-222.4976 62.0849,-253.2456 94.6836,-288.1853 123.7175,-253.4977 168.0849,-271.2456 187.7391,-279.1078 207.4734,-291.4968 223.8233,-303.2888"/>
<polygon fill="#0000ff" stroke="#0000ff" points="221.9259,-306.2388 232.0463,-309.3737 226.0897,-300.6118 221.9259,-306.2388"/>
<text text-anchor="middle" x="73.5849" y="-218.5456" font-family="Times,serif" font-size="14.00" fill="#000000">ind</text>
</g>
<!-- 14 -->
<g id="node4" class="node">
<title>14</title>
<polygon fill="#9acd32" stroke="#9acd32" points="199.0849,-366.2456 137.0849,-366.2456 137.0849,-304.2456 199.0849,-304.2456 199.0849,-366.2456"/>
<text text-anchor="middle" x="168.0849" y="-331.5456" font-family="Times,serif" font-size="14.00" fill="#000000">4.3.19</text>
</g>
<!-- 13&#45;&gt;14 -->
<g id="edge8" class="edge">
<title>13&#45;&gt;14</title>
<path fill="none" stroke="#0000ff" stroke-dasharray="5,2" d="M35.1182,-139.4787C15.7314,-165.639 -14.5334,-216.238 8.0849,-253.2456 33.8603,-295.4188 88.966,-316.7931 127.2555,-326.9632"/>
<polygon fill="#0000ff" stroke="#0000ff" points="126.5335,-330.3905 137.0846,-329.4281 128.2363,-323.6007 126.5335,-330.3905"/>
<text text-anchor="middle" x="19.5849" y="-218.5456" font-family="Times,serif" font-size="14.00" fill="#000000">ind</text>
</g>
<!-- 13&#45;&gt;22 -->
<g id="edge6" class="edge">
<title>13&#45;&gt;22</title>
<path fill="none" stroke="#0000ff" stroke-dasharray="5,2" d="M62.3231,-139.6643C71.3657,-151.5625 83.7217,-167.8204 95.0796,-182.7651"/>
<polygon fill="#0000ff" stroke="#0000ff" points="92.4221,-185.0527 101.2595,-190.8965 97.9953,-180.8171 92.4221,-185.0527"/>
<text text-anchor="middle" x="98.5849" y="-162.0456" font-family="Times,serif" font-size="14.00" fill="#000000">ind</text>
</g>
<!-- 15&#45;&gt;0 -->
<g id="edge3" class="edge">
<title>15&#45;&gt;0</title>
<path fill="none" stroke="#0000ff" stroke-dasharray="5,2" d="M235.0899,-133.7761C259.0131,-144.5601 290.2788,-163.2471 304.0849,-191.2456 320.4934,-224.5218 305.8589,-265.4564 289.697,-295.1649"/>
<polygon fill="#0000ff" stroke="#0000ff" points="286.571,-293.5815 284.6649,-304.0035 292.6542,-297.045 286.571,-293.5815"/>
<text text-anchor="middle" x="322.5849" y="-218.5456" font-family="Times,serif" font-size="14.00" fill="#000000">ind</text>
</g>
<!-- 15&#45;&gt;14 -->
<g id="edge5" class="edge">
<title>15&#45;&gt;14</title>
<path fill="none" stroke="#0000ff" stroke-dasharray="5,2" d="M201.0155,-140.4059C195.3089,-174.1704 182.9339,-247.3889 175.0849,-293.8289"/>
<polygon fill="#0000ff" stroke="#0000ff" points="171.6021,-293.4341 173.3865,-303.8776 178.5042,-294.6007 171.6021,-293.4341"/>
<text text-anchor="middle" x="202.5849" y="-218.5456" font-family="Times,serif" font-size="14.00" fill="#000000">ind</text>
</g>
<!-- 21 -->
<g id="node6" class="node">
<title>21</title>
<polygon fill="#9acd32" stroke="#9acd32" points="295.0849,-253.2456 233.0849,-253.2456 233.0849,-191.2456 295.0849,-191.2456 295.0849,-253.2456"/>
<text text-anchor="middle" x="264.0849" y="-218.5456" font-family="Times,serif" font-size="14.00" fill="#000000">4.3.13</text>
</g>
<!-- 15&#45;&gt;21 -->
<g id="edge4" class="edge">
<title>15&#45;&gt;21</title>
<path fill="none" stroke="#0000ff" stroke-dasharray="5,2" d="M214.5361,-139.6643C221.5428,-151.3421 231.0693,-167.2197 239.8976,-181.9335"/>
<polygon fill="#0000ff" stroke="#0000ff" points="237.1292,-184.1223 245.2754,-190.8965 243.1316,-180.5208 237.1292,-184.1223"/>
<text text-anchor="middle" x="245.5849" y="-162.0456" font-family="Times,serif" font-size="14.00" fill="#000000">ind</text>
</g>
<!-- 15&#45;&gt;22 -->
<g id="edge14" class="edge">
<title>15&#45;&gt;22</title>
<path fill="none" stroke="#0000ff" stroke-dasharray="5,2" d="M181.4333,-137.4773C173.7335,-143.3654 165.4703,-150.5434 159.0849,-158.2456 153.1289,-165.4299 147.77,-173.8237 143.1623,-182.123"/>
<polygon fill="#0000ff" stroke="#0000ff" points="140.034,-180.5518 138.4645,-191.0298 146.2256,-183.8175 140.034,-180.5518"/>
<text text-anchor="middle" x="170.5849" y="-162.0456" font-family="Times,serif" font-size="14.00" fill="#000000">ind</text>
</g>
<!-- 22&#45;&gt;0 -->
<g id="edge9" class="edge">
<title>22&#45;&gt;0</title>
<path fill="none" stroke="#0000ff" stroke-dasharray="5,2" d="M156.4552,-245.2328C160.9285,-248.1009 165.5516,-250.8596 170.0849,-253.2456 189.879,-263.6639 199.3685,-257.5901 217.0849,-271.2456 225.8803,-278.025 233.7221,-286.938 240.331,-295.9505"/>
<polygon fill="#0000ff" stroke="#0000ff" points="237.473,-297.9713 246.0457,-304.1969 243.2265,-293.9841 237.473,-297.9713"/>
<text text-anchor="middle" x="243.5849" y="-275.0456" font-family="Times,serif" font-size="14.00" fill="#000000">ind</text>
</g>
<!-- 22&#45;&gt;14 -->
<g id="edge1" class="edge">
<title>22&#45;&gt;14</title>
<path fill="none" stroke="#0000ff" stroke-dasharray="5,2" d="M131.1563,-253.3513C133.6746,-263.9714 136.9811,-275.7988 141.0849,-286.2456 142.2202,-289.1358 143.493,-292.0682 144.8512,-294.9873"/>
<polygon fill="#0000ff" stroke="#0000ff" points="141.8394,-296.792 149.4166,-304.1971 148.1111,-293.683 141.8394,-296.792"/>
<text text-anchor="middle" x="152.5849" y="-275.0456" font-family="Times,serif" font-size="14.00" fill="#000000">ind</text>
</g>
<!-- 23&#45;&gt;0 -->
<g id="edge15" class="edge">
<title>23&#45;&gt;0</title>
<path fill="none" stroke="#0000ff" stroke-dasharray="5,2" d="M409.7143,-240.4125C406.9833,-254.5578 401.1976,-273.8152 389.0849,-286.2456 366.4991,-309.4239 331.6902,-321.849 304.3775,-328.3805"/>
<polygon fill="#0000ff" stroke="#0000ff" points="303.3261,-325.0284 294.3178,-330.6053 304.8377,-331.8632 303.3261,-325.0284"/>
<text text-anchor="middle" x="410.5849" y="-275.0456" font-family="Times,serif" font-size="14.00" fill="#000000">ind</text>
</g>
<!-- 23&#45;&gt;14 -->
<g id="edge7" class="edge">
<title>23&#45;&gt;14</title>
<path fill="none" stroke="#0000ff" stroke-dasharray="5,2" d="M388.3318,-236.9769C379.0691,-242.4289 368.2508,-248.4452 358.0849,-253.2456 300.0873,-280.6328 281.19,-277.0874 223.0849,-304.2456 218.182,-306.5372 213.1245,-309.098 208.1543,-311.7389"/>
<polygon fill="#0000ff" stroke="#0000ff" points="206.4578,-308.6774 199.3545,-316.5383 209.8095,-314.8228 206.4578,-308.6774"/>
<text text-anchor="middle" x="322.5849" y="-275.0456" font-family="Times,serif" font-size="14.00" fill="#000000">ind</text>
</g>
</g>
</svg>
