<?xml version="1.0" encoding="UTF-8" standalone="no"?>
<!DOCTYPE svg PUBLIC "-//W3C//DTD SVG 1.1//EN"
 "http://www.w3.org/Graphics/SVG/1.1/DTD/svg11.dtd">
<!-- Generated by graphviz version 2.40.1 (0)
 -->
<!-- Title: stable Pages: 1 -->
<svg width="420pt" height="527pt"
 viewBox="0.00 0.00 420.00 527.25" xmlns="http://www.w3.org/2000/svg" xmlns:xlink="http://www.w3.org/1999/xlink">
<g id="graph0" class="graph" transform="scale(1 1) rotate(0) translate(4 523.2456)">
<title>stable</title>
<polygon fill="#ffffff" stroke="transparent" points="-4,4 -4,-523.2456 416,-523.2456 416,4 -4,4"/>
<text text-anchor="middle" x="206" y="-7.8" font-family="Times,serif" font-size="14.00" fill="#000000">stable&#45;4.3_amd64 (2020&#45;05&#45;28) [D=Direct / I=Indirect]</text>
<!-- 9 -->
<g id="node1" class="node">
<title>9</title>
<polygon fill="#9acd32" stroke="#9acd32" points="197.887,-519.2456 135.887,-519.2456 135.887,-457.2456 197.887,-457.2456 197.887,-519.2456"/>
<text text-anchor="middle" x="166.887" y="-484.5456" font-family="Times,serif" font-size="14.00" fill="#000000">4.3.21</text>
</g>
<!-- 11 -->
<g id="node2" class="node">
<title>11</title>
<polygon fill="#9acd32" stroke="#9acd32" points="130.887,-293.2456 68.887,-293.2456 68.887,-231.2456 130.887,-231.2456 130.887,-293.2456"/>
<text text-anchor="middle" x="99.887" y="-258.5456" font-family="Times,serif" font-size="14.00" fill="#000000">4.3.18</text>
</g>
<!-- 11&#45;&gt;9 -->
<g id="edge2" class="edge">
<title>11&#45;&gt;9</title>
<path fill="none" stroke="#0000ff" stroke-dasharray="5,2" d="M100.7986,-293.3717C102.4555,-323.0825 107.0751,-368.7472 119.887,-406.2456 124.801,-420.628 132.3119,-435.3375 139.8972,-448.2546"/>
<polygon fill="#0000ff" stroke="#0000ff" points="136.9521,-450.1482 145.1294,-456.8848 142.938,-446.5191 136.9521,-450.1482"/>
<text text-anchor="middle" x="123.387" y="-371.5456" font-family="Times,serif" font-size="14.00" fill="#000000">I</text>
</g>
<!-- 19 -->
<g id="node6" class="node">
<title>19</title>
<polygon fill="#9acd32" stroke="#9acd32" points="197.887,-406.2456 135.887,-406.2456 135.887,-344.2456 197.887,-344.2456 197.887,-406.2456"/>
<text text-anchor="middle" x="166.887" y="-371.5456" font-family="Times,serif" font-size="14.00" fill="#000000">4.3.19</text>
</g>
<!-- 11&#45;&gt;19 -->
<g id="edge9" class="edge">
<title>11&#45;&gt;19</title>
<path fill="none" stroke="#0000ff" stroke-dasharray="5,2" d="M118.3724,-293.4225C126.0617,-306.3909 135.0815,-321.6035 143.2443,-335.3705"/>
<polygon fill="#0000ff" stroke="#0000ff" points="140.3512,-337.3539 148.462,-344.1705 146.3724,-333.7838 140.3512,-337.3539"/>
<text text-anchor="middle" x="140.387" y="-315.0456" font-family="Times,serif" font-size="14.00" fill="#000000">I</text>
</g>
<!-- 14 -->
<g id="node3" class="node">
<title>14</title>
<polygon fill="#9acd32" stroke="#9acd32" points="162.887,-180.2456 100.887,-180.2456 100.887,-118.2456 162.887,-118.2456 162.887,-180.2456"/>
<text text-anchor="middle" x="131.887" y="-145.5456" font-family="Times,serif" font-size="14.00" fill="#000000">4.3.13</text>
</g>
<!-- 14&#45;&gt;9 -->
<g id="edge4" class="edge">
<title>14&#45;&gt;9</title>
<path fill="none" stroke="#0000ff" stroke-dasharray="5,2" d="M100.6766,-180.0885C83.2999,-198.109 64.295,-219.5446 59.887,-231.2456 50.1728,-257.0321 55.0099,-266.1251 59.887,-293.2456 72.3954,-362.8022 80.1617,-382.9507 122.887,-439.2456 125.4143,-442.5755 128.1171,-445.9537 130.8939,-449.2986"/>
<polygon fill="#0000ff" stroke="#0000ff" points="128.3097,-451.6623 137.4593,-457.0042 133.6379,-447.1225 128.3097,-451.6623"/>
<text text-anchor="middle" x="69.387" y="-315.0456" font-family="Times,serif" font-size="14.00" fill="#000000">I</text>
</g>
<!-- 14&#45;&gt;11 -->
<g id="edge5" class="edge">
<title>14&#45;&gt;11</title>
<path fill="none" stroke="#0000ff" stroke-dasharray="5,2" d="M123.0582,-180.4225C119.4907,-193.0204 115.3234,-207.7361 111.5143,-221.187"/>
<polygon fill="#0000ff" stroke="#0000ff" points="108.0443,-220.5952 108.6871,-231.1705 114.7794,-222.5025 108.0443,-220.5952"/>
<text text-anchor="middle" x="120.387" y="-202.0456" font-family="Times,serif" font-size="14.00" fill="#000000">I</text>
</g>
<!-- 14&#45;&gt;19 -->
<g id="edge12" class="edge">
<title>14&#45;&gt;19</title>
<path fill="none" stroke="#0000ff" stroke-dasharray="5,2" d="M136.7536,-180.67C142.9442,-220.6433 153.651,-289.7786 160.4946,-333.969"/>
<polygon fill="#0000ff" stroke="#0000ff" points="157.0725,-334.7417 162.0618,-344.0882 163.99,-333.6703 157.0725,-334.7417"/>
<text text-anchor="middle" x="157.387" y="-258.5456" font-family="Times,serif" font-size="14.00" fill="#000000">I</text>
</g>
<!-- 16 -->
<g id="node4" class="node">
<title>16</title>
<ellipse fill="#d3d3d3" stroke="#d3d3d3" cx="269.887" cy="-262.2456" rx="40.0939" ry="18"/>
<text text-anchor="middle" x="269.887" y="-258.5456" font-family="Times,serif" font-size="14.00" fill="#000000">4.2.33</text>
</g>
<!-- 16&#45;&gt;9 -->
<g id="edge8" class="edge">
<title>16&#45;&gt;9</title>
<path fill="none" stroke="#0000ff" stroke-dasharray="5,2" d="M262.3632,-280.0865C250.78,-307.4028 227.7316,-361.1678 206.887,-406.2456 200.5745,-419.897 193.4418,-434.7026 186.9657,-447.9281"/>
<polygon fill="#0000ff" stroke="#0000ff" points="183.6587,-446.7217 182.3873,-457.24 189.9405,-449.8103 183.6587,-446.7217"/>
<text text-anchor="middle" x="237.387" y="-371.5456" font-family="Times,serif" font-size="14.00" fill="#000000">I</text>
</g>
<!-- 16&#45;&gt;19 -->
<g id="edge13" class="edge">
<title>16&#45;&gt;19</title>
<path fill="none" stroke="#0000ff" stroke-dasharray="5,2" d="M256.0565,-279.4252C245.3666,-292.5073 230.0511,-310.8304 215.887,-326.2456 212.4645,-329.9705 208.8444,-333.7936 205.1839,-337.5823"/>
<polygon fill="#0000ff" stroke="#0000ff" points="202.6246,-335.1935 198.1362,-344.7906 207.6298,-340.0871 202.6246,-335.1935"/>
<text text-anchor="middle" x="231.387" y="-315.0456" font-family="Times,serif" font-size="14.00" fill="#000000">I</text>
</g>
<!-- 17 -->
<g id="node5" class="node">
<title>17</title>
<polygon fill="#fa8072" stroke="#fa8072" points="251.6231,-50.7162 201.887,-63.2233 152.151,-50.7162 171.1485,-30.4792 232.6256,-30.4792 251.6231,-50.7162"/>
<polygon fill="none" stroke="#fa8072" points="259.2184,-52.952 201.887,-67.3692 144.5557,-52.952 169.428,-26.4569 234.3461,-26.4569 259.2184,-52.952"/>
<text text-anchor="middle" x="201.887" y="-41.4228" font-family="Times,serif" font-size="14.00" fill="#000000">4.2.29</text>
</g>
<!-- 17&#45;&gt;9 -->
<g id="edge10" class="edge">
<title>17&#45;&gt;9</title>
<path fill="none" stroke="#ff0000" stroke-width="2" d="M245.4826,-56.5832C287.8655,-70.6714 345.887,-99.113 345.887,-149.2456 345.887,-149.2456 345.887,-149.2456 345.887,-375.2456 345.887,-440.0187 261.041,-469.1643 208.178,-481.0373"/>
<polygon fill="#ff0000" stroke="#ff0000" stroke-width="2" points="207.12,-477.684 198.0665,-483.1871 208.5757,-484.5309 207.12,-477.684"/>
<text text-anchor="middle" x="351.887" y="-258.5456" font-family="Times,serif" font-size="14.00" fill="#000000">D</text>
</g>
<!-- 17&#45;&gt;11 -->
<g id="edge6" class="edge">
<title>17&#45;&gt;11</title>
<path fill="none" stroke="#ff0000" stroke-width="2" d="M161.7343,-57.3279C133.32,-68.3055 97.2923,-87.5212 79.887,-118.2456 61.9817,-149.8527 70.5307,-191.4349 81.4479,-221.7861"/>
<polygon fill="#ff0000" stroke="#ff0000" stroke-width="2" points="78.2116,-223.1224 85.0452,-231.2189 84.7521,-220.6281 78.2116,-223.1224"/>
<text text-anchor="middle" x="85.887" y="-145.5456" font-family="Times,serif" font-size="14.00" fill="#000000">D</text>
</g>
<!-- 17&#45;&gt;14 -->
<g id="edge7" class="edge">
<title>17&#45;&gt;14</title>
<path fill="none" stroke="#ff0000" stroke-width="2" d="M189.048,-64.2206C180.5225,-76.9019 169.017,-94.0159 158.5632,-109.5657"/>
<polygon fill="#ff0000" stroke="#ff0000" stroke-width="2" points="155.564,-107.7537 152.8893,-118.0054 161.3733,-111.6592 155.564,-107.7537"/>
<text text-anchor="middle" x="178.887" y="-89.0456" font-family="Times,serif" font-size="14.00" fill="#000000">D</text>
</g>
<!-- 17&#45;&gt;16 -->
<g id="edge1" class="edge">
<title>17&#45;&gt;16</title>
<path fill="none" stroke="#0000ff" d="M209.3104,-65.8942C211.4813,-72.1017 213.8241,-78.9344 215.887,-85.2456 233.0289,-137.689 251.4732,-199.4245 261.7583,-234.3844"/>
<polygon fill="#0000ff" stroke="#0000ff" points="258.5038,-235.7244 264.6777,-244.3344 265.2206,-233.7535 258.5038,-235.7244"/>
</g>
<!-- 17&#45;&gt;19 -->
<g id="edge11" class="edge">
<title>17&#45;&gt;19</title>
<path fill="none" stroke="#ff0000" stroke-width="2" d="M199.5635,-67.0388C193.7981,-121.4179 178.7627,-263.2338 171.2671,-333.9324"/>
<polygon fill="#ff0000" stroke="#ff0000" stroke-width="2" points="167.7485,-333.9233 170.1747,-344.2366 174.7095,-334.6614 167.7485,-333.9233"/>
<text text-anchor="middle" x="190.887" y="-202.0456" font-family="Times,serif" font-size="14.00" fill="#000000">D</text>
</g>
<!-- 19&#45;&gt;9 -->
<g id="edge3" class="edge">
<title>19&#45;&gt;9</title>
<path fill="none" stroke="#0000ff" stroke-dasharray="5,2" d="M166.887,-406.4225C166.887,-418.8969 166.887,-433.4477 166.887,-446.791"/>
<polygon fill="#0000ff" stroke="#0000ff" points="163.3871,-447.1705 166.887,-457.1705 170.3871,-447.1705 163.3871,-447.1705"/>
<text text-anchor="middle" x="170.387" y="-428.0456" font-family="Times,serif" font-size="14.00" fill="#000000">I</text>
</g>
</g>
</svg>
