<?xml version="1.0" encoding="UTF-8" standalone="no"?>
<!DOCTYPE svg PUBLIC "-//W3C//DTD SVG 1.1//EN"
 "http://www.w3.org/Graphics/SVG/1.1/DTD/svg11.dtd">
<!-- Generated by graphviz version 2.42.4 (0)
 -->
<!-- Title: stable Pages: 1 -->
<svg width="685pt" height="483pt"
 viewBox="0.00 0.00 684.89 483.00" xmlns="http://www.w3.org/2000/svg" xmlns:xlink="http://www.w3.org/1999/xlink">
<g id="graph0" class="graph" transform="scale(1 1) rotate(0) translate(4 479)">
<title>stable</title>
<polygon fill="white" stroke="transparent" points="-4,4 -4,-479 680.89,-479 680.89,4 -4,4"/>
<text text-anchor="middle" x="338.45" y="-7.8" font-family="Times,serif" font-size="14.00">stable&#45;4.6_amd64 (2021&#45;02&#45;07)</text>
<!-- 0 -->
<g id="node1" class="node">
<title>0</title>
<polygon fill="yellowgreen" stroke="yellowgreen" points="494.28,-279 441.28,-279 441.28,-226 494.28,-226 494.28,-279"/>
<text text-anchor="middle" x="467.78" y="-248.8" font-family="Times,serif" font-size="14.00">4.6.8</text>
</g>
<!-- 5 -->
<g id="node2" class="node">
<title>5</title>
<polygon fill="yellowgreen" stroke="yellowgreen" points="384.78,-377 322.78,-377 322.78,-315 384.78,-315 384.78,-377"/>
<text text-anchor="middle" x="353.78" y="-342.3" font-family="Times,serif" font-size="14.00">4.6.12</text>
</g>
<!-- 0&#45;&gt;5 -->
<g id="edge18" class="edge">
<title>0&#45;&gt;5</title>
<path fill="none" stroke="blue" stroke-dasharray="5,2" d="M441.06,-274.95C426.71,-286.47 408.76,-300.88 392.87,-313.63"/>
<polygon fill="blue" stroke="blue" points="390.39,-311.13 384.79,-320.12 394.77,-316.59 390.39,-311.13"/>
</g>
<!-- 21 -->
<g id="node8" class="node">
<title>21</title>
<polygon fill="yellowgreen" stroke="yellowgreen" points="234.78,-475 172.78,-475 172.78,-413 234.78,-413 234.78,-475"/>
<text text-anchor="middle" x="203.78" y="-440.3" font-family="Times,serif" font-size="14.00">4.6.13</text>
</g>
<!-- 0&#45;&gt;21 -->
<g id="edge12" class="edge">
<title>0&#45;&gt;21</title>
<path fill="none" stroke="blue" stroke-dasharray="5,2" d="M458.61,-279.11C447.41,-306.93 425.88,-350.9 393.78,-377 350.2,-412.44 286.37,-429.4 244.94,-437.11"/>
<polygon fill="blue" stroke="blue" points="244.16,-433.7 234.92,-438.88 245.37,-440.59 244.16,-433.7"/>
</g>
<!-- 28 -->
<g id="node9" class="node">
<title>28</title>
<polygon fill="yellowgreen" stroke="yellowgreen" points="443.78,-475 381.78,-475 381.78,-413 443.78,-413 443.78,-475"/>
<text text-anchor="middle" x="412.78" y="-440.3" font-family="Times,serif" font-size="14.00">4.6.15</text>
</g>
<!-- 0&#45;&gt;28 -->
<g id="edge15" class="edge">
<title>0&#45;&gt;28</title>
<path fill="none" stroke="blue" stroke-dasharray="5,2" d="M471.8,-279.44C474.7,-305.05 476.34,-344.92 464.78,-377 461.23,-386.88 455.56,-396.42 449.24,-405.04"/>
<polygon fill="blue" stroke="blue" points="446.43,-402.95 443.04,-412.99 451.95,-407.26 446.43,-402.95"/>
</g>
<!-- 5&#45;&gt;21 -->
<g id="edge27" class="edge">
<title>5&#45;&gt;21</title>
<path fill="none" stroke="blue" stroke-dasharray="5,2" d="M322.7,-366.89C299.68,-381.63 268.12,-401.83 243.3,-417.71"/>
<polygon fill="blue" stroke="blue" points="241.36,-414.8 234.83,-423.13 245.13,-420.69 241.36,-414.8"/>
</g>
<!-- 5&#45;&gt;28 -->
<g id="edge30" class="edge">
<title>5&#45;&gt;28</title>
<path fill="none" stroke="blue" stroke-dasharray="5,2" d="M372.29,-377.11C377.62,-385.78 383.5,-395.35 389.1,-404.46"/>
<polygon fill="blue" stroke="blue" points="386.13,-406.31 394.34,-413 392.09,-402.64 386.13,-406.31"/>
</g>
<!-- 9 -->
<g id="node3" class="node">
<title>9</title>
<ellipse fill="lightgrey" stroke="lightgrey" cx="131.78" cy="-252.5" rx="40.09" ry="18"/>
<text text-anchor="middle" x="131.78" y="-248.8" font-family="Times,serif" font-size="14.00">4.5.27</text>
</g>
<!-- 9&#45;&gt;5 -->
<g id="edge20" class="edge">
<title>9&#45;&gt;5</title>
<path fill="none" stroke="blue" stroke-dasharray="5,2" d="M156.46,-266.73C164.45,-270.85 173.42,-275.27 181.78,-279 225.98,-298.69 278.01,-318.15 313.17,-330.79"/>
<polygon fill="blue" stroke="blue" points="312.03,-334.09 322.63,-334.16 314.39,-327.5 312.03,-334.09"/>
</g>
<!-- 9&#45;&gt;21 -->
<g id="edge3" class="edge">
<title>9&#45;&gt;21</title>
<path fill="none" stroke="blue" stroke-dasharray="5,2" d="M120.65,-270.06C105.6,-294.71 82.7,-341.92 101.78,-377 114.84,-400.99 140.79,-417.6 163.24,-428.16"/>
<polygon fill="blue" stroke="blue" points="162.05,-431.45 172.61,-432.31 164.89,-425.06 162.05,-431.45"/>
</g>
<!-- 9&#45;&gt;28 -->
<g id="edge28" class="edge">
<title>9&#45;&gt;28</title>
<path fill="none" stroke="blue" stroke-dasharray="5,2" d="M149.33,-268.94C163.2,-281.23 182.95,-298.98 199.78,-315 228.02,-341.86 229.59,-355.04 261.78,-377 296.12,-400.43 340.11,-418.52 371.75,-429.79"/>
<polygon fill="blue" stroke="blue" points="370.96,-433.22 381.55,-433.2 373.26,-426.61 370.96,-433.22"/>
</g>
<!-- 14 -->
<g id="node4" class="node">
<title>14</title>
<polygon fill="salmon" stroke="salmon" points="413.52,-76.09 363.78,-88.6 314.05,-76.09 333.05,-55.86 394.52,-55.86 413.52,-76.09"/>
<polygon fill="none" stroke="salmon" points="421.12,-78.33 363.78,-92.75 306.45,-78.33 331.33,-51.83 396.24,-51.83 421.12,-78.33"/>
<text text-anchor="middle" x="363.78" y="-66.8" font-family="Times,serif" font-size="14.00">4.5.20</text>
</g>
<!-- 14&#45;&gt;0 -->
<g id="edge8" class="edge">
<title>14&#45;&gt;0</title>
<path fill="none" stroke="red" stroke-width="2" d="M384.48,-87.7C397.14,-97.19 413.92,-109.05 429.78,-118 464.45,-137.56 490.02,-120.68 511.78,-154 524.85,-174 513.68,-198.52 499.32,-217.96"/>
<polygon fill="red" stroke="red" stroke-width="2" points="496.47,-215.93 493.04,-225.96 501.97,-220.26 496.47,-215.93"/>
</g>
<!-- 14&#45;&gt;5 -->
<g id="edge34" class="edge">
<title>14&#45;&gt;5</title>
<path fill="none" stroke="red" stroke-width="2" d="M349.41,-89.19C337.51,-105.08 321.49,-129.58 314.78,-154 300.58,-205.75 318.93,-266.67 334.96,-305.54"/>
<polygon fill="red" stroke="red" stroke-width="2" points="331.82,-307.11 338.97,-314.93 338.26,-304.36 331.82,-307.11"/>
</g>
<!-- 14&#45;&gt;9 -->
<g id="edge6" class="edge">
<title>14&#45;&gt;9</title>
<path fill="none" stroke="blue" d="M342.37,-87.48C320.32,-104 284.99,-130.6 254.78,-154 221.3,-179.94 183.14,-210.32 158.32,-230.19"/>
<polygon fill="blue" stroke="blue" points="156.05,-227.52 150.44,-236.5 160.43,-232.98 156.05,-227.52"/>
</g>
<!-- 15 -->
<g id="node5" class="node">
<title>15</title>
<ellipse fill="lightgrey" stroke="lightgrey" cx="598.78" cy="-172" rx="40.09" ry="18"/>
<text text-anchor="middle" x="598.78" y="-168.3" font-family="Times,serif" font-size="14.00">4.5.23</text>
</g>
<!-- 14&#45;&gt;15 -->
<g id="edge4" class="edge">
<title>14&#45;&gt;15</title>
<path fill="none" stroke="blue" d="M383.56,-87.9C396.17,-97.7 413.19,-109.81 429.78,-118 477.81,-141.71 493.69,-137.96 544.78,-154 548.79,-155.26 552.97,-156.57 557.14,-157.88"/>
<polygon fill="blue" stroke="blue" points="556.22,-161.26 566.81,-160.92 558.32,-154.58 556.22,-161.26"/>
</g>
<!-- 17 -->
<g id="node6" class="node">
<title>17</title>
<ellipse fill="lightgrey" stroke="lightgrey" cx="462.78" cy="-172" rx="40.09" ry="18"/>
<text text-anchor="middle" x="462.78" y="-168.3" font-family="Times,serif" font-size="14.00">4.5.22</text>
</g>
<!-- 14&#45;&gt;17 -->
<g id="edge11" class="edge">
<title>14&#45;&gt;17</title>
<path fill="none" stroke="blue" d="M381.03,-88.83C397.32,-105.2 421.86,-129.86 439.8,-147.9"/>
<polygon fill="blue" stroke="blue" points="437.51,-150.56 447.04,-155.18 442.47,-145.62 437.51,-150.56"/>
</g>
<!-- 20 -->
<g id="node7" class="node">
<title>20</title>
<ellipse fill="lightgrey" stroke="lightgrey" cx="150.78" cy="-346" rx="40.09" ry="18"/>
<text text-anchor="middle" x="150.78" y="-342.3" font-family="Times,serif" font-size="14.00">4.5.28</text>
</g>
<!-- 14&#45;&gt;20 -->
<g id="edge32" class="edge">
<title>14&#45;&gt;20</title>
<path fill="none" stroke="blue" d="M317.69,-81.23C251.72,-97.94 132.85,-139.03 82.78,-226 71.03,-246.41 73.61,-257.31 82.78,-279 90.5,-297.24 105.99,-312.92 120.25,-324.41"/>
<polygon fill="blue" stroke="blue" points="118.36,-327.38 128.43,-330.68 122.62,-321.82 118.36,-327.38"/>
</g>
<!-- 14&#45;&gt;28 -->
<g id="edge9" class="edge">
<title>14&#45;&gt;28</title>
<path fill="none" stroke="red" stroke-width="2" d="M382.62,-88.27C395.14,-98.47 412.4,-110.88 429.78,-118 520.66,-155.22 584.25,-79.12 647.78,-154 715.34,-233.63 652,-307.81 573.78,-377 539.39,-407.42 489.08,-424.98 453.88,-434.23"/>
<polygon fill="red" stroke="red" stroke-width="2" points="452.78,-430.9 443.93,-436.73 454.48,-437.69 452.78,-430.9"/>
</g>
<!-- 30 -->
<g id="node10" class="node">
<title>30</title>
<ellipse fill="lightgrey" stroke="lightgrey" cx="363.78" cy="-172" rx="40.09" ry="18"/>
<text text-anchor="middle" x="363.78" y="-168.3" font-family="Times,serif" font-size="14.00">4.5.21</text>
</g>
<!-- 14&#45;&gt;30 -->
<g id="edge14" class="edge">
<title>14&#45;&gt;30</title>
<path fill="none" stroke="blue" d="M363.78,-93.09C363.78,-107.86 363.78,-127.56 363.78,-143.46"/>
<polygon fill="blue" stroke="blue" points="360.28,-143.75 363.78,-153.75 367.28,-143.75 360.28,-143.75"/>
</g>
<!-- 31 -->
<g id="node11" class="node">
<title>31</title>
<ellipse fill="lightgrey" stroke="lightgrey" cx="230.78" cy="-252.5" rx="40.09" ry="18"/>
<text text-anchor="middle" x="230.78" y="-248.8" font-family="Times,serif" font-size="14.00">4.5.24</text>
</g>
<!-- 14&#45;&gt;31 -->
<g id="edge22" class="edge">
<title>14&#45;&gt;31</title>
<path fill="none" stroke="blue" d="M344.2,-88.1C326.44,-103.83 300.28,-128.75 281.78,-154 265.29,-176.52 251.02,-205.09 241.8,-225.47"/>
<polygon fill="blue" stroke="blue" points="238.53,-224.19 237.69,-234.75 244.93,-227.02 238.53,-224.19"/>
</g>
<!-- 15&#45;&gt;0 -->
<g id="edge25" class="edge">
<title>15&#45;&gt;0</title>
<path fill="none" stroke="blue" stroke-dasharray="5,2" d="M575.67,-186.85C555.69,-198.82 526.51,-216.31 503.53,-230.08"/>
<polygon fill="blue" stroke="blue" points="501.52,-227.2 494.74,-235.35 505.12,-233.21 501.52,-227.2"/>
</g>
<!-- 15&#45;&gt;5 -->
<g id="edge7" class="edge">
<title>15&#45;&gt;5</title>
<path fill="none" stroke="blue" stroke-dasharray="5,2" d="M587.62,-189.33C571.42,-212.02 539.4,-253.18 503.78,-279 470.22,-303.34 426.26,-321.35 394.62,-332.36"/>
<polygon fill="blue" stroke="blue" points="393.15,-329.16 384.81,-335.68 395.4,-335.79 393.15,-329.16"/>
</g>
<!-- 15&#45;&gt;21 -->
<g id="edge16" class="edge">
<title>15&#45;&gt;21</title>
<path fill="none" stroke="blue" stroke-dasharray="5,2" d="M592.34,-189.94C583.5,-211.88 566.12,-250.67 543.78,-279 502.63,-331.21 489.17,-345.21 430.78,-377 370.51,-409.83 292.12,-427.93 245,-436.54"/>
<polygon fill="blue" stroke="blue" points="244.39,-433.09 235.15,-438.28 245.61,-439.98 244.39,-433.09"/>
</g>
<!-- 15&#45;&gt;28 -->
<g id="edge10" class="edge">
<title>15&#45;&gt;28</title>
<path fill="none" stroke="blue" stroke-dasharray="5,2" d="M606.33,-189.93C614.78,-211.53 625.72,-249.61 612.78,-279 581.6,-349.85 501.72,-399.65 452.87,-424.62"/>
<polygon fill="blue" stroke="blue" points="451.21,-421.53 443.83,-429.14 454.34,-427.79 451.21,-421.53"/>
</g>
<!-- 17&#45;&gt;0 -->
<g id="edge19" class="edge">
<title>17&#45;&gt;0</title>
<path fill="none" stroke="blue" stroke-dasharray="5,2" d="M463.87,-190.03C464.35,-197.55 464.93,-206.69 465.5,-215.6"/>
<polygon fill="blue" stroke="blue" points="462.02,-216.09 466.15,-225.84 469.01,-215.64 462.02,-216.09"/>
</g>
<!-- 17&#45;&gt;5 -->
<g id="edge26" class="edge">
<title>17&#45;&gt;5</title>
<path fill="none" stroke="blue" stroke-dasharray="5,2" d="M452.33,-189.49C435.41,-216.19 401.57,-269.59 378.31,-306.3"/>
<polygon fill="blue" stroke="blue" points="375.33,-304.46 372.93,-314.78 381.24,-308.21 375.33,-304.46"/>
</g>
<!-- 17&#45;&gt;21 -->
<g id="edge33" class="edge">
<title>17&#45;&gt;21</title>
<path fill="none" stroke="blue" stroke-dasharray="5,2" d="M433.21,-184.25C426.57,-186.44 419.5,-188.51 412.78,-190 340.77,-205.97 132.04,-171.08 82.78,-226 67.23,-243.34 74.51,-351.15 90.78,-377 107.2,-403.08 137.96,-420.06 163.24,-430.25"/>
<polygon fill="blue" stroke="blue" points="162.03,-433.54 172.62,-433.83 164.53,-427 162.03,-433.54"/>
</g>
<!-- 17&#45;&gt;28 -->
<g id="edge23" class="edge">
<title>17&#45;&gt;28</title>
<path fill="none" stroke="blue" stroke-dasharray="5,2" d="M479.25,-188.48C488.4,-198.25 498.9,-211.69 503.78,-226 511.4,-248.29 506.27,-255.58 503.78,-279 499.09,-323.3 504.64,-338.19 482.78,-377 474.92,-390.97 463.11,-403.74 451.42,-414.25"/>
<polygon fill="blue" stroke="blue" points="449.09,-411.64 443.8,-420.82 453.66,-416.94 449.09,-411.64"/>
</g>
<!-- 20&#45;&gt;21 -->
<g id="edge24" class="edge">
<title>20&#45;&gt;21</title>
<path fill="none" stroke="blue" stroke-dasharray="5,2" d="M160.02,-363.72C166.15,-374.83 174.46,-389.89 182.2,-403.9"/>
<polygon fill="blue" stroke="blue" points="179.27,-405.84 187.17,-412.9 185.4,-402.46 179.27,-405.84"/>
</g>
<!-- 20&#45;&gt;28 -->
<g id="edge29" class="edge">
<title>20&#45;&gt;28</title>
<path fill="none" stroke="blue" stroke-dasharray="5,2" d="M173.66,-361.04C183.09,-366.47 194.25,-372.46 204.78,-377 261.15,-401.31 329.48,-421.28 372.05,-432.67"/>
<polygon fill="blue" stroke="blue" points="371.21,-436.07 381.78,-435.24 373,-429.3 371.21,-436.07"/>
</g>
<!-- 30&#45;&gt;0 -->
<g id="edge21" class="edge">
<title>30&#45;&gt;0</title>
<path fill="none" stroke="blue" stroke-dasharray="5,2" d="M383.35,-187.77C397.28,-198.28 416.38,-212.7 432.89,-225.16"/>
<polygon fill="blue" stroke="blue" points="431.15,-228.24 441.24,-231.47 435.37,-222.65 431.15,-228.24"/>
</g>
<!-- 30&#45;&gt;5 -->
<g id="edge13" class="edge">
<title>30&#45;&gt;5</title>
<path fill="none" stroke="blue" stroke-dasharray="5,2" d="M362.79,-190.12C361.25,-216.57 358.26,-268.1 356.14,-304.45"/>
<polygon fill="blue" stroke="blue" points="352.63,-304.54 355.55,-314.73 359.62,-304.95 352.63,-304.54"/>
</g>
<!-- 30&#45;&gt;21 -->
<g id="edge5" class="edge">
<title>30&#45;&gt;21</title>
<path fill="none" stroke="blue" stroke-dasharray="5,2" d="M323.31,-173.18C242.99,-174.5 67.98,-182.42 30.78,-226 -12.78,-277.05 -7.28,-321.73 30.78,-377 60.29,-419.83 121.6,-434.89 162.73,-440.17"/>
<polygon fill="blue" stroke="blue" points="162.38,-443.65 172.72,-441.31 163.18,-436.69 162.38,-443.65"/>
</g>
<!-- 30&#45;&gt;28 -->
<g id="edge2" class="edge">
<title>30&#45;&gt;28</title>
<path fill="none" stroke="blue" stroke-dasharray="5,2" d="M367.72,-189.98C373.8,-216.55 385.63,-269.62 393.78,-315 399.06,-344.35 403.97,-377.67 407.48,-402.95"/>
<polygon fill="blue" stroke="blue" points="404.02,-403.48 408.85,-412.92 410.95,-402.53 404.02,-403.48"/>
</g>
<!-- 31&#45;&gt;5 -->
<g id="edge17" class="edge">
<title>31&#45;&gt;5</title>
<path fill="none" stroke="blue" stroke-dasharray="5,2" d="M250.55,-268.2C267.69,-280.96 293.03,-299.81 314.32,-315.64"/>
<polygon fill="blue" stroke="blue" points="312.44,-318.6 322.55,-321.76 316.62,-312.99 312.44,-318.6"/>
</g>
<!-- 31&#45;&gt;21 -->
<g id="edge31" class="edge">
<title>31&#45;&gt;21</title>
<path fill="none" stroke="blue" stroke-dasharray="5,2" d="M228.34,-270.65C224.12,-300.3 215.34,-361.88 209.51,-402.83"/>
<polygon fill="blue" stroke="blue" points="206.04,-402.37 208.09,-412.76 212.97,-403.36 206.04,-402.37"/>
</g>
<!-- 31&#45;&gt;28 -->
<g id="edge1" class="edge">
<title>31&#45;&gt;28</title>
<path fill="none" stroke="blue" stroke-dasharray="5,2" d="M239.23,-270.17C252.58,-295.39 280.48,-343.82 313.78,-377 331.09,-394.24 353.54,-409.64 372.68,-421.22"/>
<polygon fill="blue" stroke="blue" points="371.1,-424.35 381.49,-426.42 374.66,-418.32 371.1,-424.35"/>
</g>
<!-- Key -->
<g id="node12" class="node">
<title>Key</title>
<text text-anchor="start" x="509.78" y="-83.3" font-family="Times,serif" font-weight="bold" font-size="14.00">Key</text>
<text text-anchor="start" x="462.78" y="-66.3" font-family="Times,serif" font-size="14.00">Direct Path</text>
<text text-anchor="start" x="561.78" y="-66.3" font-family="Times,serif" font-size="14.00" fill="red">⟶</text>
<text text-anchor="start" x="462.78" y="-50.3" font-family="Times,serif" font-size="14.00">Indirect Path</text>
<text text-anchor="start" x="557.78" y="-50.3" font-family="Times,serif" font-size="14.00" fill="blue">→ ⤏</text>
<polygon fill="none" stroke="black" stroke-dasharray="1,5" points="460.78,-45 460.78,-96 588.78,-96 588.78,-45 460.78,-45"/>
</g>
</g>
</svg>
