<?xml version="1.0" encoding="UTF-8" standalone="no"?>
<!DOCTYPE svg PUBLIC "-//W3C//DTD SVG 1.1//EN"
 "http://www.w3.org/Graphics/SVG/1.1/DTD/svg11.dtd">
<!-- Generated by graphviz version 2.40.1 (0)
 -->
<!-- Title: stable Pages: 1 -->
<svg width="255pt" height="252pt"
 viewBox="0.00 0.00 255.00 252.25" xmlns="http://www.w3.org/2000/svg" xmlns:xlink="http://www.w3.org/1999/xlink">
<g id="graph0" class="graph" transform="scale(1 1) rotate(0) translate(4 248.2456)">
<title>stable</title>
<polygon fill="#ffffff" stroke="transparent" points="-4,4 -4,-248.2456 251,-248.2456 251,4 -4,4"/>
<text text-anchor="middle" x="123.5" y="-7.8" font-family="Times,serif" font-size="14.00" fill="#000000">stable&#45;4.4 (2020&#45;05&#45;20) [amd64]</text>
<!-- 0 -->
<g id="node1" class="node">
<title>0</title>
<ellipse fill="#d3d3d3" stroke="#d3d3d3" cx="57.1482" cy="-122.2456" rx="40.0939" ry="18"/>
<text text-anchor="middle" x="57.1482" y="-118.5456" font-family="Times,serif" font-size="14.00" fill="#000000">4.3.19</text>
</g>
<!-- 2 -->
<g id="node3" class="node">
<title>2</title>
<polygon fill="#9acd32" stroke="#9acd32" points="182.6482,-244.2456 129.6482,-244.2456 129.6482,-191.2456 182.6482,-191.2456 182.6482,-244.2456"/>
<text text-anchor="middle" x="156.1482" y="-214.0456" font-family="Times,serif" font-size="14.00" fill="#000000">4.4.4</text>
</g>
<!-- 0&#45;&gt;2 -->
<g id="edge3" class="edge">
<title>0&#45;&gt;2</title>
<path fill="none" stroke="#0000ff" stroke-dasharray="5,2" d="M74.3927,-138.8805C87.556,-151.5784 106.1094,-169.4758 122.215,-185.0121"/>
<polygon fill="#0000ff" stroke="#0000ff" points="119.7873,-187.5333 129.4145,-191.957 124.6472,-182.4953 119.7873,-187.5333"/>
<text text-anchor="middle" x="121.6482" y="-162.0456" font-family="Times,serif" font-size="14.00" fill="#000000">ind</text>
</g>
<!-- 1 -->
<g id="node2" class="node">
<title>1</title>
<ellipse fill="#d3d3d3" stroke="#d3d3d3" cx="156.1482" cy="-122.2456" rx="40.0939" ry="18"/>
<text text-anchor="middle" x="156.1482" y="-118.5456" font-family="Times,serif" font-size="14.00" fill="#000000">4.3.18</text>
</g>
<!-- 1&#45;&gt;2 -->
<g id="edge1" class="edge">
<title>1&#45;&gt;2</title>
<path fill="none" stroke="#0000ff" stroke-dasharray="5,2" d="M156.1482,-140.659C156.1482,-152.0617 156.1482,-167.1084 156.1482,-180.8794"/>
<polygon fill="#0000ff" stroke="#0000ff" points="152.6483,-181.0801 156.1482,-191.0801 159.6483,-181.0801 152.6483,-181.0801"/>
<text text-anchor="middle" x="167.6482" y="-162.0456" font-family="Times,serif" font-size="14.00" fill="#000000">ind</text>
</g>
<!-- 4 -->
<g id="node4" class="node">
<title>4</title>
<polygon fill="#fa8072" stroke="#fa8072" points="205.8842,-50.7162 156.1482,-63.2233 106.4122,-50.7162 125.4097,-30.4792 186.8868,-30.4792 205.8842,-50.7162"/>
<polygon fill="none" stroke="#fa8072" points="213.4796,-52.952 156.1482,-67.3692 98.8168,-52.952 123.6892,-26.4569 188.6073,-26.4569 213.4796,-52.952"/>
<text text-anchor="middle" x="156.1482" y="-41.4228" font-family="Times,serif" font-size="14.00" fill="#000000">4.3.13</text>
</g>
<!-- 4&#45;&gt;0 -->
<g id="edge2" class="edge">
<title>4&#45;&gt;0</title>
<path fill="none" stroke="#0000ff" d="M134.1769,-62.2389C119.8537,-73.3969 101.0216,-88.0675 85.5633,-100.1097"/>
<polygon fill="#0000ff" stroke="#0000ff" points="83.1105,-97.5838 77.3726,-106.4904 87.4124,-103.106 83.1105,-97.5838"/>
</g>
<!-- 4&#45;&gt;1 -->
<g id="edge5" class="edge">
<title>4&#45;&gt;1</title>
<path fill="none" stroke="#0000ff" d="M156.1482,-67.4299C156.1482,-75.7163 156.1482,-85.2284 156.1482,-93.9777"/>
<polygon fill="#0000ff" stroke="#0000ff" points="152.6483,-94.1379 156.1482,-104.1379 159.6483,-94.1379 152.6483,-94.1379"/>
</g>
<!-- 4&#45;&gt;2 -->
<g id="edge4" class="edge">
<title>4&#45;&gt;2</title>
<path fill="none" stroke="#ff0000" stroke-width="2" d="M176.0547,-62.393C186.9189,-73.1813 199.3155,-88.0675 205.1482,-104.2456 210.5748,-119.2973 209.5991,-124.8772 205.1482,-140.2456 200.8307,-155.1536 192.6942,-169.9476 184.2741,-182.5519"/>
<polygon fill="#ff0000" stroke="#ff0000" stroke-width="2" points="181.2985,-180.6999 178.4429,-190.9027 187.0378,-184.7076 181.2985,-180.6999"/>
<text text-anchor="middle" x="219.6482" y="-118.5456" font-family="Times,serif" font-size="14.00" fill="#000000">dir</text>
</g>
</g>
</svg>
