<?xml version="1.0" encoding="UTF-8" standalone="no"?>
<!DOCTYPE svg PUBLIC "-//W3C//DTD SVG 1.1//EN"
 "http://www.w3.org/Graphics/SVG/1.1/DTD/svg11.dtd">
<!-- Generated by graphviz version 2.42.4 (0)
 -->
<!-- Title: stable&#45;multigraph Pages: 1 -->
<svg width="758pt" height="1063pt"
 viewBox="0.00 0.00 757.90 1062.62" xmlns="http://www.w3.org/2000/svg" xmlns:xlink="http://www.w3.org/1999/xlink">
<g id="graph0" class="graph" transform="scale(1 1) rotate(0) translate(4 1058.62)">
<title>stable&#45;multigraph</title>
<polygon fill="white" stroke="transparent" points="-4,4 -4,-1058.62 753.9,-1058.62 753.9,4 -4,4"/>
<text text-anchor="middle" x="374.95" y="-7.8" font-family="Times,serif" font-size="14.00">stable&#45;multigraph_amd64 (2021&#45;02&#45;08)</text>
<g id="clust1" class="cluster">
<title>cluster1</title>
<polygon fill="none" stroke="black" points="222,-31 222,-335.62 497,-335.62 497,-31 222,-31"/>
<text text-anchor="middle" x="359.5" y="-38.8" font-family="Times,serif" font-size="14.00">stable&#45;4.3</text>
</g>
<g id="clust2" class="cluster">
<title>cluster3</title>
<polygon fill="none" stroke="black" points="8,-343.62 8,-640.62 326,-640.62 326,-343.62 8,-343.62"/>
<text text-anchor="middle" x="167" y="-351.42" font-family="Times,serif" font-size="14.00">stable&#45;4.4</text>
</g>
<g id="clust3" class="cluster">
<title>cluster5</title>
<polygon fill="none" stroke="black" points="248,-648.62 248,-948.62 646,-948.62 646,-648.62 248,-648.62"/>
<text text-anchor="middle" x="447" y="-656.42" font-family="Times,serif" font-size="14.00">stable&#45;4.5</text>
</g>
<g id="clust4" class="cluster">
<title>cluster7</title>
<polygon fill="none" stroke="black" points="654,-847.62 654,-1046.62 741,-1046.62 741,-847.62 654,-847.62"/>
<text text-anchor="middle" x="697.5" y="-855.42" font-family="Times,serif" font-size="14.00">stable&#45;4.6</text>
</g>
<!-- 1005 -->
<g id="node1" class="node">
<title>1005</title>
<polygon fill="yellowgreen" stroke="yellowgreen" points="318,-327.62 256,-327.62 256,-265.62 318,-265.62 318,-327.62"/>
<text text-anchor="middle" x="287" y="-292.92" font-family="Times,serif" font-size="14.00">4.3.38</text>
</g>
<!-- 3003 -->
<g id="node7" class="node">
<title>3003</title>
<polygon fill="lightgrey" stroke="lightgrey" points="318,-436.62 256,-436.62 256,-374.62 318,-374.62 318,-436.62"/>
<text text-anchor="middle" x="287" y="-401.92" font-family="Times,serif" font-size="14.00">4.4.27</text>
</g>
<!-- 1005&#45;&gt;3003 -->
<g id="edge25" class="edge">
<title>1005&#45;&gt;3003</title>
<path fill="none" stroke="blue" d="M287,-327.71C287,-339 287,-352.01 287,-364.08"/>
<polygon fill="blue" stroke="blue" points="283.5,-364.39 287,-374.39 290.5,-364.39 283.5,-364.39"/>
</g>
<!-- 3032 -->
<g id="node8" class="node">
<title>3032</title>
<polygon fill="lightgrey" stroke="lightgrey" points="238,-436.62 176,-436.62 176,-374.62 238,-374.62 238,-436.62"/>
<text text-anchor="middle" x="207" y="-401.92" font-family="Times,serif" font-size="14.00">4.4.29</text>
</g>
<!-- 1005&#45;&gt;3032 -->
<g id="edge20" class="edge">
<title>1005&#45;&gt;3032</title>
<path fill="none" stroke="blue" d="M259.73,-327.82C255.35,-333 250.96,-338.39 247,-343.62 241.67,-350.66 236.28,-358.39 231.25,-365.91"/>
<polygon fill="blue" stroke="blue" points="228.11,-364.31 225.54,-374.59 233.96,-368.16 228.11,-364.31"/>
</g>
<!-- 3034 -->
<g id="node9" class="node">
<title>3034</title>
<polygon fill="yellowgreen" stroke="yellowgreen" points="238,-534.62 176,-534.62 176,-472.62 238,-472.62 238,-534.62"/>
<text text-anchor="middle" x="207" y="-499.92" font-family="Times,serif" font-size="14.00">4.4.31</text>
</g>
<!-- 1005&#45;&gt;3034 -->
<g id="edge14" class="edge">
<title>1005&#45;&gt;3034</title>
<path fill="none" stroke="red" stroke-width="2" d="M318.1,-327.55C321.73,-332.56 324.89,-337.97 327,-343.62 341.48,-382.34 348.04,-401.04 327,-436.62 310.03,-465.33 275.62,-482.4 247.99,-491.96"/>
<polygon fill="red" stroke="red" stroke-width="2" points="246.59,-488.73 238.16,-495.15 248.75,-495.39 246.59,-488.73"/>
</g>
<!-- 3035 -->
<g id="node10" class="node">
<title>3035</title>
<polygon fill="lightgrey" stroke="lightgrey" points="158,-436.62 96,-436.62 96,-374.62 158,-374.62 158,-436.62"/>
<text text-anchor="middle" x="127" y="-401.92" font-family="Times,serif" font-size="14.00">4.4.26</text>
</g>
<!-- 1005&#45;&gt;3035 -->
<g id="edge10" class="edge">
<title>1005&#45;&gt;3035</title>
<path fill="none" stroke="blue" d="M255.98,-303.89C230.03,-310.36 193.15,-322.55 167,-343.62 159.39,-349.76 152.73,-357.74 147.14,-365.89"/>
<polygon fill="blue" stroke="blue" points="144.15,-364.07 141.71,-374.38 150.05,-367.85 144.15,-364.07"/>
</g>
<!-- 3036 -->
<g id="node11" class="node">
<title>3036</title>
<polygon fill="lightgrey" stroke="lightgrey" points="78,-436.62 16,-436.62 16,-374.62 78,-374.62 78,-436.62"/>
<text text-anchor="middle" x="47" y="-401.92" font-family="Times,serif" font-size="14.00">4.4.30</text>
</g>
<!-- 1005&#45;&gt;3036 -->
<g id="edge21" class="edge">
<title>1005&#45;&gt;3036</title>
<path fill="none" stroke="blue" d="M255.69,-297.79C213.69,-299.49 138.46,-307.79 87,-343.62 78.66,-349.43 71.62,-357.59 65.88,-366.06"/>
<polygon fill="blue" stroke="blue" points="62.9,-364.22 60.58,-374.55 68.84,-367.92 62.9,-364.22"/>
</g>
<!-- 3038 -->
<g id="node12" class="node">
<title>3038</title>
<polygon fill="yellowgreen" stroke="yellowgreen" points="318,-632.62 256,-632.62 256,-570.62 318,-570.62 318,-632.62"/>
<text text-anchor="middle" x="287" y="-597.92" font-family="Times,serif" font-size="14.00">4.4.32</text>
</g>
<!-- 1005&#45;&gt;3038 -->
<g id="edge17" class="edge">
<title>1005&#45;&gt;3038</title>
<path fill="none" stroke="red" stroke-width="2" d="M318,-313.43C329.28,-320.93 340.79,-331.03 347,-343.62 365.29,-380.69 354.21,-395.92 347,-436.62 339.18,-480.78 320.37,-528.65 305.88,-561.21"/>
<polygon fill="red" stroke="red" stroke-width="2" points="302.66,-559.83 301.73,-570.39 309.04,-562.72 302.66,-559.83"/>
</g>
<!-- 1012 -->
<g id="node2" class="node">
<title>1012</title>
<polygon fill="lightgrey" stroke="lightgrey" points="292,-229.62 230,-229.62 230,-167.62 292,-167.62 292,-229.62"/>
<text text-anchor="middle" x="261" y="-194.92" font-family="Times,serif" font-size="14.00">4.3.28</text>
</g>
<!-- 1012&#45;&gt;1005 -->
<g id="edge3" class="edge">
<title>1012&#45;&gt;1005</title>
<path fill="none" stroke="blue" stroke-dasharray="5,2" d="M269.16,-229.73C271.41,-238.04 273.88,-247.19 276.26,-255.95"/>
<polygon fill="blue" stroke="blue" points="272.88,-256.88 278.87,-265.62 279.64,-255.05 272.88,-256.88"/>
</g>
<!-- 1016 -->
<g id="node4" class="node">
<title>1016</title>
<polygon fill="yellowgreen" stroke="yellowgreen" points="453,-327.62 391,-327.62 391,-265.62 453,-265.62 453,-327.62"/>
<text text-anchor="middle" x="422" y="-292.92" font-family="Times,serif" font-size="14.00">4.3.40</text>
</g>
<!-- 1012&#45;&gt;1016 -->
<g id="edge9" class="edge">
<title>1012&#45;&gt;1016</title>
<path fill="none" stroke="blue" stroke-dasharray="5,2" d="M292.14,-223.64C295.09,-225.72 298.08,-227.74 301,-229.62 327.12,-246.42 357.85,-263.15 381.81,-275.56"/>
<polygon fill="blue" stroke="blue" points="380.47,-278.8 390.96,-280.26 383.67,-272.58 380.47,-278.8"/>
</g>
<!-- 1014 -->
<g id="node3" class="node">
<title>1014</title>
<ellipse fill="lightgrey" stroke="lightgrey" cx="350" cy="-198.62" rx="40.09" ry="18"/>
<text text-anchor="middle" x="350" y="-194.92" font-family="Times,serif" font-size="14.00">4.2.36</text>
</g>
<!-- 1014&#45;&gt;1005 -->
<g id="edge4" class="edge">
<title>1014&#45;&gt;1005</title>
<path fill="none" stroke="blue" stroke-dasharray="5,2" d="M339.03,-216.34C331.67,-227.56 321.67,-242.8 312.4,-256.92"/>
<polygon fill="blue" stroke="blue" points="309.31,-255.25 306.75,-265.53 315.16,-259.09 309.31,-255.25"/>
</g>
<!-- 1014&#45;&gt;1016 -->
<g id="edge2" class="edge">
<title>1014&#45;&gt;1016</title>
<path fill="none" stroke="blue" stroke-dasharray="5,2" d="M362.21,-215.91C370.67,-227.18 382.28,-242.67 393.03,-257"/>
<polygon fill="blue" stroke="blue" points="390.43,-259.36 399.23,-265.26 396.03,-255.16 390.43,-259.36"/>
</g>
<!-- 1016&#45;&gt;3034 -->
<g id="edge11" class="edge">
<title>1016&#45;&gt;3034</title>
<path fill="none" stroke="red" stroke-width="2" d="M412.14,-327.73C400.72,-358.53 379.25,-406.08 347,-436.62 318.96,-463.19 278.26,-480.73 247.97,-491"/>
<polygon fill="red" stroke="red" stroke-width="2" points="246.55,-487.79 238.13,-494.21 248.72,-494.44 246.55,-487.79"/>
</g>
<!-- 1016&#45;&gt;3038 -->
<g id="edge26" class="edge">
<title>1016&#45;&gt;3038</title>
<path fill="none" stroke="red" stroke-width="2" d="M417.13,-327.74C412.03,-356.28 402.96,-400.1 390,-436.62 373.79,-482.33 368.38,-493.92 342,-534.62 335.85,-544.11 328.52,-553.76 321.25,-562.66"/>
<polygon fill="red" stroke="red" stroke-width="2" points="318.35,-560.66 314.62,-570.58 323.72,-565.15 318.35,-560.66"/>
</g>
<!-- 1017 -->
<g id="node5" class="node">
<title>1017</title>
<polygon fill="salmon" stroke="salmon" points="399.74,-89.72 350,-102.22 300.26,-89.72 319.26,-69.48 380.74,-69.48 399.74,-89.72"/>
<polygon fill="none" stroke="salmon" points="407.33,-91.95 350,-106.37 292.67,-91.95 317.54,-65.46 382.46,-65.46 407.33,-91.95"/>
<text text-anchor="middle" x="350" y="-80.42" font-family="Times,serif" font-size="14.00">4.2.26</text>
</g>
<!-- 1017&#45;&gt;1012 -->
<g id="edge6" class="edge">
<title>1017&#45;&gt;1012</title>
<path fill="none" stroke="blue" d="M335.9,-102.95C323.89,-118.13 306.22,-140.46 291.06,-159.62"/>
<polygon fill="blue" stroke="blue" points="288.2,-157.59 284.74,-167.61 293.69,-161.94 288.2,-157.59"/>
</g>
<!-- 1017&#45;&gt;1014 -->
<g id="edge7" class="edge">
<title>1017&#45;&gt;1014</title>
<path fill="none" stroke="blue" d="M350,-106.28C350,-124.44 350,-150.7 350,-170.42"/>
<polygon fill="blue" stroke="blue" points="346.5,-170.6 350,-180.6 353.5,-170.6 346.5,-170.6"/>
</g>
<!-- 1024 -->
<g id="node6" class="node">
<title>1024</title>
<ellipse fill="lightgrey" stroke="lightgrey" cx="449" cy="-198.62" rx="40.09" ry="18"/>
<text text-anchor="middle" x="449" y="-194.92" font-family="Times,serif" font-size="14.00">4.2.34</text>
</g>
<!-- 1017&#45;&gt;1024 -->
<g id="edge8" class="edge">
<title>1017&#45;&gt;1024</title>
<path fill="none" stroke="blue" d="M365.47,-102.7C382.35,-121.88 409.45,-152.68 428.19,-173.97"/>
<polygon fill="blue" stroke="blue" points="425.69,-176.43 434.92,-181.62 430.94,-171.8 425.69,-176.43"/>
</g>
<!-- 1024&#45;&gt;1005 -->
<g id="edge1" class="edge">
<title>1024&#45;&gt;1005</title>
<path fill="none" stroke="blue" stroke-dasharray="5,2" d="M425.87,-213.55C417.42,-218.63 407.79,-224.4 399,-229.62 375.24,-243.75 348.57,-259.47 327.22,-272.03"/>
<polygon fill="blue" stroke="blue" points="325.27,-269.11 318.42,-277.2 328.81,-275.15 325.27,-269.11"/>
</g>
<!-- 1024&#45;&gt;1016 -->
<g id="edge5" class="edge">
<title>1024&#45;&gt;1016</title>
<path fill="none" stroke="blue" stroke-dasharray="5,2" d="M444.17,-216.79C441.12,-227.64 437.04,-242.13 433.22,-255.73"/>
<polygon fill="blue" stroke="blue" points="429.84,-254.84 430.5,-265.41 436.57,-256.73 429.84,-254.84"/>
</g>
<!-- 3003&#45;&gt;3034 -->
<g id="edge16" class="edge">
<title>3003&#45;&gt;3034</title>
<path fill="none" stroke="blue" stroke-dasharray="5,2" d="M261.91,-436.73C254.46,-445.67 246.21,-455.57 238.42,-464.92"/>
<polygon fill="blue" stroke="blue" points="235.72,-462.7 232,-472.62 241.09,-467.18 235.72,-462.7"/>
</g>
<!-- 3003&#45;&gt;3038 -->
<g id="edge18" class="edge">
<title>3003&#45;&gt;3038</title>
<path fill="none" stroke="blue" stroke-dasharray="5,2" d="M287,-436.94C287,-470.11 287,-523.45 287,-560.17"/>
<polygon fill="blue" stroke="blue" points="283.5,-560.52 287,-570.52 290.5,-560.52 283.5,-560.52"/>
</g>
<!-- 3032&#45;&gt;3034 -->
<g id="edge15" class="edge">
<title>3032&#45;&gt;3034</title>
<path fill="none" stroke="blue" stroke-dasharray="5,2" d="M207,-436.73C207,-444.87 207,-453.8 207,-462.39"/>
<polygon fill="blue" stroke="blue" points="203.5,-462.62 207,-472.62 210.5,-462.62 203.5,-462.62"/>
</g>
<!-- 3032&#45;&gt;3038 -->
<g id="edge19" class="edge">
<title>3032&#45;&gt;3038</title>
<path fill="none" stroke="blue" stroke-dasharray="5,2" d="M227.32,-436.67C234.18,-447.67 241.49,-460.41 247,-472.62 259.85,-501.1 270.22,-534.89 277.18,-560.6"/>
<polygon fill="blue" stroke="blue" points="273.82,-561.61 279.77,-570.38 280.59,-559.82 273.82,-561.61"/>
</g>
<!-- 3034&#45;&gt;3038 -->
<g id="edge23" class="edge">
<title>3034&#45;&gt;3038</title>
<path fill="none" stroke="blue" stroke-dasharray="5,2" d="M232.09,-534.73C239.54,-543.67 247.79,-553.57 255.58,-562.92"/>
<polygon fill="blue" stroke="blue" points="252.91,-565.18 262,-570.62 258.28,-560.7 252.91,-565.18"/>
</g>
<!-- 5008 -->
<g id="node14" class="node">
<title>5008</title>
<polygon fill="yellowgreen" stroke="yellowgreen" points="413,-940.62 351,-940.62 351,-878.62 413,-878.62 413,-940.62"/>
<text text-anchor="middle" x="382" y="-905.92" font-family="Times,serif" font-size="14.00">4.5.30</text>
</g>
<!-- 3034&#45;&gt;5008 -->
<g id="edge39" class="edge">
<title>3034&#45;&gt;5008</title>
<path fill="none" stroke="red" stroke-width="2" d="M196.39,-534.79C192.99,-545.91 189.68,-558.7 188,-570.62 185.06,-591.46 189.04,-737.98 190,-741.62 202.62,-789.5 207.38,-805.23 243,-839.62 270.77,-866.44 311.01,-884.86 341.05,-895.87"/>
<polygon fill="red" stroke="red" stroke-width="2" points="340.22,-899.29 350.81,-899.33 342.55,-892.69 340.22,-899.29"/>
</g>
<!-- 5046 -->
<g id="node19" class="node">
<title>5046</title>
<polygon fill="yellowgreen" stroke="yellowgreen" points="438,-839.62 376,-839.62 376,-777.62 438,-777.62 438,-839.62"/>
<text text-anchor="middle" x="407" y="-804.92" font-family="Times,serif" font-size="14.00">4.5.28</text>
</g>
<!-- 3034&#45;&gt;5046 -->
<g id="edge36" class="edge">
<title>3034&#45;&gt;5046</title>
<path fill="none" stroke="red" stroke-width="2" d="M200.31,-534.8C191.33,-583.66 181.45,-680.76 228,-741.62 260.65,-784.31 323.82,-799.4 365.7,-804.73"/>
<polygon fill="red" stroke="red" stroke-width="2" points="365.53,-808.23 375.86,-805.88 366.32,-801.27 365.53,-808.23"/>
</g>
<!-- 3035&#45;&gt;3034 -->
<g id="edge13" class="edge">
<title>3035&#45;&gt;3034</title>
<path fill="none" stroke="blue" stroke-dasharray="5,2" d="M152.09,-436.73C159.54,-445.67 167.79,-455.57 175.58,-464.92"/>
<polygon fill="blue" stroke="blue" points="172.91,-467.18 182,-472.62 178.28,-462.7 172.91,-467.18"/>
</g>
<!-- 3035&#45;&gt;3038 -->
<g id="edge12" class="edge">
<title>3035&#45;&gt;3038</title>
<path fill="none" stroke="blue" stroke-dasharray="5,2" d="M129.98,-436.82C134.12,-464.86 143.94,-506.42 167,-534.62 187.49,-559.68 220.11,-576.75 246.17,-587.24"/>
<polygon fill="blue" stroke="blue" points="245.21,-590.62 255.8,-590.94 247.73,-584.09 245.21,-590.62"/>
</g>
<!-- 3036&#45;&gt;3034 -->
<g id="edge24" class="edge">
<title>3036&#45;&gt;3034</title>
<path fill="none" stroke="blue" stroke-dasharray="5,2" d="M78.14,-430.63C81.1,-432.71 84.08,-434.74 87,-436.62 112.84,-453.3 143.19,-469.97 166.91,-482.39"/>
<polygon fill="blue" stroke="blue" points="165.49,-485.59 175.98,-487.1 168.72,-479.38 165.49,-485.59"/>
</g>
<!-- 3036&#45;&gt;3038 -->
<g id="edge22" class="edge">
<title>3036&#45;&gt;3038</title>
<path fill="none" stroke="blue" stroke-dasharray="5,2" d="M60.84,-436.67C75.31,-465.2 100.43,-507.63 133,-534.62 166.29,-562.21 212.83,-580.01 246.02,-590.09"/>
<polygon fill="blue" stroke="blue" points="245.28,-593.52 255.86,-592.97 247.25,-586.8 245.28,-593.52"/>
</g>
<!-- 5005 -->
<g id="node13" class="node">
<title>5005</title>
<polygon fill="lightgrey" stroke="lightgrey" points="638,-741.62 576,-741.62 576,-679.62 638,-679.62 638,-741.62"/>
<text text-anchor="middle" x="607" y="-706.92" font-family="Times,serif" font-size="14.00">4.5.23</text>
</g>
<!-- 3038&#45;&gt;5005 -->
<g id="edge29" class="edge">
<title>3038&#45;&gt;5005</title>
<path fill="none" stroke="blue" d="M318.28,-604.61C382.44,-609.19 526.32,-622.17 567,-648.62 575.6,-654.22 582.76,-662.38 588.53,-670.92"/>
<polygon fill="blue" stroke="blue" points="585.61,-672.85 593.85,-679.51 591.56,-669.16 585.61,-672.85"/>
</g>
<!-- 3038&#45;&gt;5008 -->
<g id="edge37" class="edge">
<title>3038&#45;&gt;5008</title>
<path fill="none" stroke="red" stroke-width="2" d="M255.88,-618.96C244.99,-626.43 233.98,-636.37 228,-648.62 209.86,-685.76 213.21,-703.02 228,-741.62 250.56,-800.51 305.02,-850.99 342.73,-880.59"/>
<polygon fill="red" stroke="red" stroke-width="2" points="340.92,-883.61 350.98,-886.94 345.19,-878.07 340.92,-883.61"/>
</g>
<!-- 5009 -->
<g id="node15" class="node">
<title>5009</title>
<polygon fill="lightgrey" stroke="lightgrey" points="398,-741.62 336,-741.62 336,-679.62 398,-679.62 398,-741.62"/>
<text text-anchor="middle" x="367" y="-706.92" font-family="Times,serif" font-size="14.00">4.5.24</text>
</g>
<!-- 3038&#45;&gt;5009 -->
<g id="edge42" class="edge">
<title>3038&#45;&gt;5009</title>
<path fill="none" stroke="blue" d="M314.27,-632.82C318.65,-638 323.04,-643.39 327,-648.62 332.33,-655.66 337.72,-663.39 342.75,-670.91"/>
<polygon fill="blue" stroke="blue" points="340.04,-673.16 348.46,-679.59 345.89,-669.31 340.04,-673.16"/>
</g>
<!-- 5015 -->
<g id="node16" class="node">
<title>5015</title>
<polygon fill="lightgrey" stroke="lightgrey" points="318,-741.62 256,-741.62 256,-679.62 318,-679.62 318,-741.62"/>
<text text-anchor="middle" x="287" y="-706.92" font-family="Times,serif" font-size="14.00">4.5.22</text>
</g>
<!-- 3038&#45;&gt;5015 -->
<g id="edge34" class="edge">
<title>3038&#45;&gt;5015</title>
<path fill="none" stroke="blue" d="M287,-632.71C287,-644 287,-657.01 287,-669.08"/>
<polygon fill="blue" stroke="blue" points="283.5,-669.39 287,-679.39 290.5,-669.39 283.5,-669.39"/>
</g>
<!-- 5029 -->
<g id="node17" class="node">
<title>5029</title>
<polygon fill="lightgrey" stroke="lightgrey" points="558,-741.62 496,-741.62 496,-679.62 558,-679.62 558,-741.62"/>
<text text-anchor="middle" x="527" y="-706.92" font-family="Times,serif" font-size="14.00">4.5.27</text>
</g>
<!-- 3038&#45;&gt;5029 -->
<g id="edge30" class="edge">
<title>3038&#45;&gt;5029</title>
<path fill="none" stroke="blue" d="M318.31,-602.79C360.31,-604.49 435.54,-612.79 487,-648.62 495.34,-654.43 502.38,-662.59 508.12,-671.06"/>
<polygon fill="blue" stroke="blue" points="505.16,-672.92 513.42,-679.55 511.1,-669.22 505.16,-672.92"/>
</g>
<!-- 5034 -->
<g id="node18" class="node">
<title>5034</title>
<polygon fill="lightgrey" stroke="lightgrey" points="478,-741.62 416,-741.62 416,-679.62 478,-679.62 478,-741.62"/>
<text text-anchor="middle" x="447" y="-706.92" font-family="Times,serif" font-size="14.00">4.5.21</text>
</g>
<!-- 3038&#45;&gt;5034 -->
<g id="edge41" class="edge">
<title>3038&#45;&gt;5034</title>
<path fill="none" stroke="blue" d="M318.02,-608.89C343.97,-615.36 380.85,-627.55 407,-648.62 414.61,-654.76 421.27,-662.74 426.86,-670.89"/>
<polygon fill="blue" stroke="blue" points="423.95,-672.85 432.29,-679.38 429.85,-669.07 423.95,-672.85"/>
</g>
<!-- 3038&#45;&gt;5046 -->
<g id="edge44" class="edge">
<title>3038&#45;&gt;5046</title>
<path fill="none" stroke="red" stroke-width="2" d="M255.9,-632.55C252.27,-637.56 249.11,-642.97 247,-648.62 232.52,-687.34 224.01,-707.27 247,-741.62 273.27,-780.88 327.62,-796.81 365.65,-803.26"/>
<polygon fill="red" stroke="red" stroke-width="2" points="365.49,-806.78 375.91,-804.84 366.56,-799.86 365.49,-806.78"/>
</g>
<!-- 5005&#45;&gt;5008 -->
<g id="edge43" class="edge">
<title>5005&#45;&gt;5008</title>
<path fill="none" stroke="blue" stroke-dasharray="5,2" d="M579.88,-741.84C555.06,-768.77 516.71,-808.62 480,-839.62 461.69,-855.08 440.03,-870.6 421.73,-882.99"/>
<polygon fill="blue" stroke="blue" points="419.4,-880.33 413.04,-888.81 423.3,-886.15 419.4,-880.33"/>
</g>
<!-- 5005&#45;&gt;5046 -->
<g id="edge28" class="edge">
<title>5005&#45;&gt;5046</title>
<path fill="none" stroke="blue" stroke-dasharray="5,2" d="M575.62,-736.29C572.76,-738.18 569.87,-739.99 567,-741.62 528.42,-763.58 481.09,-782.17 447.95,-793.97"/>
<polygon fill="blue" stroke="blue" points="446.43,-790.8 438.15,-797.41 448.75,-797.4 446.43,-790.8"/>
</g>
<!-- 5009&#45;&gt;5008 -->
<g id="edge32" class="edge">
<title>5009&#45;&gt;5008</title>
<path fill="none" stroke="blue" stroke-dasharray="5,2" d="M365.19,-741.72C364.06,-767.72 363.42,-806.26 367,-839.62 368.01,-849.02 369.77,-859.02 371.74,-868.4"/>
<polygon fill="blue" stroke="blue" points="368.35,-869.28 373.94,-878.28 375.19,-867.76 368.35,-869.28"/>
</g>
<!-- 5009&#45;&gt;5046 -->
<g id="edge45" class="edge">
<title>5009&#45;&gt;5046</title>
<path fill="none" stroke="blue" stroke-dasharray="5,2" d="M379.55,-741.73C383.05,-750.13 386.9,-759.39 390.59,-768.23"/>
<polygon fill="blue" stroke="blue" points="387.42,-769.73 394.5,-777.62 393.88,-767.04 387.42,-769.73"/>
</g>
<!-- 5015&#45;&gt;5008 -->
<g id="edge46" class="edge">
<title>5015&#45;&gt;5008</title>
<path fill="none" stroke="blue" stroke-dasharray="5,2" d="M301.64,-741.97C318.14,-776.2 345.03,-831.96 363.11,-869.45"/>
<polygon fill="blue" stroke="blue" points="360.01,-871.08 367.5,-878.56 366.31,-868.03 360.01,-871.08"/>
</g>
<!-- 5015&#45;&gt;5046 -->
<g id="edge35" class="edge">
<title>5015&#45;&gt;5046</title>
<path fill="none" stroke="blue" stroke-dasharray="5,2" d="M318.22,-736.6C333.35,-748.71 351.7,-763.38 367.77,-776.24"/>
<polygon fill="blue" stroke="blue" points="365.95,-779.26 375.94,-782.78 370.32,-773.8 365.95,-779.26"/>
</g>
<!-- 5029&#45;&gt;5008 -->
<g id="edge40" class="edge">
<title>5029&#45;&gt;5008</title>
<path fill="none" stroke="blue" stroke-dasharray="5,2" d="M513.64,-741.71C500.9,-768.73 480.1,-808.79 456,-839.62 445.8,-852.68 433.06,-865.48 421.05,-876.45"/>
<polygon fill="blue" stroke="blue" points="418.43,-874.1 413.3,-883.37 423.09,-879.32 418.43,-874.1"/>
</g>
<!-- 5029&#45;&gt;5046 -->
<g id="edge33" class="edge">
<title>5029&#45;&gt;5046</title>
<path fill="none" stroke="blue" stroke-dasharray="5,2" d="M495.78,-736.6C480.65,-748.71 462.3,-763.38 446.23,-776.24"/>
<polygon fill="blue" stroke="blue" points="443.68,-773.8 438.06,-782.78 448.05,-779.26 443.68,-773.8"/>
</g>
<!-- 5034&#45;&gt;5008 -->
<g id="edge31" class="edge">
<title>5034&#45;&gt;5008</title>
<path fill="none" stroke="blue" stroke-dasharray="5,2" d="M453.09,-741.76C457.09,-768.47 459.54,-808.02 447,-839.62 441.33,-853.92 431.14,-866.97 420.48,-877.78"/>
<polygon fill="blue" stroke="blue" points="417.86,-875.44 413.08,-884.89 422.72,-880.49 417.86,-875.44"/>
</g>
<!-- 5034&#45;&gt;5046 -->
<g id="edge27" class="edge">
<title>5034&#45;&gt;5046</title>
<path fill="none" stroke="blue" stroke-dasharray="5,2" d="M434.45,-741.73C430.95,-750.13 427.1,-759.39 423.41,-768.23"/>
<polygon fill="blue" stroke="blue" points="420.12,-767.04 419.5,-777.62 426.58,-769.73 420.12,-767.04"/>
</g>
<!-- 5046&#45;&gt;5008 -->
<g id="edge38" class="edge">
<title>5046&#45;&gt;5008</title>
<path fill="none" stroke="blue" stroke-dasharray="5,2" d="M399.36,-839.86C397.06,-848.98 394.5,-859.13 392.06,-868.77"/>
<polygon fill="blue" stroke="blue" points="388.64,-868.01 389.59,-878.57 395.43,-869.73 388.64,-868.01"/>
</g>
<!-- 7018 -->
<g id="node20" class="node">
<title>7018</title>
<polygon fill="yellowgreen" stroke="yellowgreen" points="728,-1038.62 666,-1038.62 666,-976.62 728,-976.62 728,-1038.62"/>
<text text-anchor="middle" x="697" y="-1003.92" font-family="Times,serif" font-size="14.00">4.6.15</text>
</g>
<!-- 5046&#45;&gt;7018 -->
<g id="edge48" class="edge">
<title>5046&#45;&gt;7018</title>
<path fill="none" stroke="red" stroke-width="2" d="M438.06,-810.94C515.73,-814.54 713.56,-825.78 733,-847.62 762.85,-881.15 745.31,-905.45 733,-948.62 731.14,-955.13 728.32,-961.62 725.06,-967.78"/>
<polygon fill="red" stroke="red" stroke-width="2" points="721.99,-966.11 720.03,-976.53 728.05,-969.6 721.99,-966.11"/>
</g>
<!-- 7022 -->
<g id="node21" class="node">
<title>7022</title>
<polygon fill="yellowgreen" stroke="yellowgreen" points="724,-940.62 662,-940.62 662,-878.62 724,-878.62 724,-940.62"/>
<text text-anchor="middle" x="693" y="-905.92" font-family="Times,serif" font-size="14.00">4.6.13</text>
</g>
<!-- 5046&#45;&gt;7022 -->
<g id="edge49" class="edge">
<title>5046&#45;&gt;7022</title>
<path fill="none" stroke="red" stroke-width="2" d="M438.44,-811.5C495.9,-815.43 615.18,-825.99 650,-847.62 659.01,-853.22 666.65,-861.47 672.88,-870.11"/>
<polygon fill="red" stroke="red" stroke-width="2" points="669.97,-872.05 678.42,-878.44 675.8,-868.17 669.97,-872.05"/>
</g>
<!-- 7022&#45;&gt;7018 -->
<g id="edge47" class="edge">
<title>7022&#45;&gt;7018</title>
<path fill="none" stroke="blue" stroke-dasharray="5,2" d="M694.25,-940.73C694.59,-948.87 694.97,-957.8 695.32,-966.39"/>
<polygon fill="blue" stroke="blue" points="691.84,-966.77 695.75,-976.62 698.83,-966.48 691.84,-966.77"/>
</g>
<!-- Key -->
<g id="node22" class="node">
<title>Key</title>
<text text-anchor="start" x="576" y="-96.92" font-family="Times,serif" font-weight="bold" font-size="14.00">Key</text>
<text text-anchor="start" x="529" y="-79.92" font-family="Times,serif" font-size="14.00">Direct Path</text>
<text text-anchor="start" x="628" y="-79.92" font-family="Times,serif" font-size="14.00" fill="red">⟶</text>
<text text-anchor="start" x="529" y="-63.92" font-family="Times,serif" font-size="14.00">Indirect Path</text>
<text text-anchor="start" x="624" y="-63.92" font-family="Times,serif" font-size="14.00" fill="blue">→ ⤏</text>
<polygon fill="none" stroke="black" stroke-dasharray="1,5" points="527,-58.62 527,-109.62 655,-109.62 655,-58.62 527,-58.62"/>
</g>
</g>
</svg>
