<?xml version="1.0" encoding="UTF-8" standalone="no"?>
<!DOCTYPE svg PUBLIC "-//W3C//DTD SVG 1.1//EN"
 "http://www.w3.org/Graphics/SVG/1.1/DTD/svg11.dtd">
<!-- Generated by graphviz version 2.40.1 (0)
 -->
<!-- Title: stable Pages: 1 -->
<svg width="462pt" height="374pt"
 viewBox="0.00 0.00 461.91 374.25" xmlns="http://www.w3.org/2000/svg" xmlns:xlink="http://www.w3.org/1999/xlink">
<g id="graph0" class="graph" transform="scale(1 1) rotate(0) translate(4 370.2456)">
<title>stable</title>
<polygon fill="#ffffff" stroke="transparent" points="-4,4 -4,-370.2456 457.9148,-370.2456 457.9148,4 -4,4"/>
<text text-anchor="middle" x="226.9574" y="-7.8" font-family="Times,serif" font-size="14.00" fill="#000000">stable&#45;4.3 (2020&#45;05&#45;26) [amd64]</text>
<!-- 3 -->
<g id="node1" class="node">
<title>3</title>
<ellipse fill="#d3d3d3" stroke="#d3d3d3" cx="65.9148" cy="-122.2456" rx="40.0939" ry="18"/>
<text text-anchor="middle" x="65.9148" y="-118.5456" font-family="Times,serif" font-size="14.00" fill="#000000">4.2.33</text>
</g>
<!-- 5 -->
<g id="node2" class="node">
<title>5</title>
<polygon fill="#9acd32" stroke="#9acd32" points="99.9148,-366.2456 37.9148,-366.2456 37.9148,-304.2456 99.9148,-304.2456 99.9148,-366.2456"/>
<text text-anchor="middle" x="68.9148" y="-331.5456" font-family="Times,serif" font-size="14.00" fill="#000000">4.3.21</text>
</g>
<!-- 3&#45;&gt;5 -->
<g id="edge13" class="edge">
<title>3&#45;&gt;5</title>
<path fill="none" stroke="#0000ff" stroke-dasharray="5,2" d="M46.4316,-138.0847C32.4618,-150.7837 14.7765,-169.9544 6.9148,-191.2456 -2.63,-217.0953 -1.8498,-227.1212 6.9148,-253.2456 12.0838,-268.6525 21.4194,-283.4733 31.3036,-296.1758"/>
<polygon fill="#0000ff" stroke="#0000ff" points="28.8114,-298.6582 37.8399,-304.2021 34.2392,-294.2379 28.8114,-298.6582"/>
<text text-anchor="middle" x="18.4148" y="-218.5456" font-family="Times,serif" font-size="14.00" fill="#000000">ind</text>
</g>
<!-- 14 -->
<g id="node5" class="node">
<title>14</title>
<polygon fill="#9acd32" stroke="#9acd32" points="242.9148,-366.2456 180.9148,-366.2456 180.9148,-304.2456 242.9148,-304.2456 242.9148,-366.2456"/>
<text text-anchor="middle" x="211.9148" y="-331.5456" font-family="Times,serif" font-size="14.00" fill="#000000">4.3.19</text>
</g>
<!-- 3&#45;&gt;14 -->
<g id="edge7" class="edge">
<title>3&#45;&gt;14</title>
<path fill="none" stroke="#0000ff" stroke-dasharray="5,2" d="M74.8008,-139.8148C88.102,-165.5478 114.5639,-214.621 141.9148,-253.2456 152.3136,-267.9306 164.7735,-283.1498 176.2802,-296.4312"/>
<polygon fill="#0000ff" stroke="#0000ff" points="173.6985,-298.7957 182.9222,-304.0085 178.9624,-294.1814 173.6985,-298.7957"/>
<text text-anchor="middle" x="153.4148" y="-218.5456" font-family="Times,serif" font-size="14.00" fill="#000000">ind</text>
</g>
<!-- 10 -->
<g id="node3" class="node">
<title>10</title>
<polygon fill="#9acd32" stroke="#9acd32" points="272.9148,-253.2456 210.9148,-253.2456 210.9148,-191.2456 272.9148,-191.2456 272.9148,-253.2456"/>
<text text-anchor="middle" x="241.9148" y="-218.5456" font-family="Times,serif" font-size="14.00" fill="#000000">4.3.18</text>
</g>
<!-- 10&#45;&gt;5 -->
<g id="edge6" class="edge">
<title>10&#45;&gt;5</title>
<path fill="none" stroke="#0000ff" stroke-dasharray="5,2" d="M210.7707,-245.6919C206.2623,-248.4887 201.5692,-251.1054 196.9148,-253.2456 168.5108,-266.3067 155.7582,-255.2202 128.9148,-271.2456 117.8738,-277.8371 107.5893,-287.0421 98.7632,-296.4198"/>
<polygon fill="#0000ff" stroke="#0000ff" points="96.0935,-294.1542 92.011,-303.9308 101.2993,-298.834 96.0935,-294.1542"/>
<text text-anchor="middle" x="140.4148" y="-275.0456" font-family="Times,serif" font-size="14.00" fill="#000000">ind</text>
</g>
<!-- 10&#45;&gt;14 -->
<g id="edge8" class="edge">
<title>10&#45;&gt;14</title>
<path fill="none" stroke="#0000ff" stroke-dasharray="5,2" d="M233.6378,-253.4225C230.2932,-266.0204 226.3864,-280.7361 222.8154,-294.187"/>
<polygon fill="#0000ff" stroke="#0000ff" points="219.3481,-293.6072 220.1649,-304.1705 226.1137,-295.4034 219.3481,-293.6072"/>
<text text-anchor="middle" x="239.4148" y="-275.0456" font-family="Times,serif" font-size="14.00" fill="#000000">ind</text>
</g>
<!-- 13 -->
<g id="node4" class="node">
<title>13</title>
<ellipse fill="#d3d3d3" stroke="#d3d3d3" cx="164.9148" cy="-122.2456" rx="40.0939" ry="18"/>
<text text-anchor="middle" x="164.9148" y="-118.5456" font-family="Times,serif" font-size="14.00" fill="#000000">4.2.28</text>
</g>
<!-- 13&#45;&gt;5 -->
<g id="edge5" class="edge">
<title>13&#45;&gt;5</title>
<path fill="none" stroke="#0000ff" stroke-dasharray="5,2" d="M134.1056,-134.2719C110.6927,-145.2455 80.1649,-163.944 65.9148,-191.2456 49.3864,-222.9123 52.2383,-264.0767 57.9882,-294.2788"/>
<polygon fill="#0000ff" stroke="#0000ff" points="54.5619,-294.994 60.0254,-304.0714 61.4152,-293.5682 54.5619,-294.994"/>
<text text-anchor="middle" x="77.4148" y="-218.5456" font-family="Times,serif" font-size="14.00" fill="#000000">ind</text>
</g>
<!-- 13&#45;&gt;10 -->
<g id="edge12" class="edge">
<title>13&#45;&gt;10</title>
<path fill="none" stroke="#0000ff" stroke-dasharray="5,2" d="M178.2426,-139.735C185.7642,-149.5898 195.3458,-162.1184 203.9148,-173.2456 206.3574,-176.4175 208.8923,-179.7018 211.441,-182.9989"/>
<polygon fill="#0000ff" stroke="#0000ff" points="208.8721,-185.3983 217.7603,-191.1646 214.408,-181.1141 208.8721,-185.3983"/>
<text text-anchor="middle" x="215.4148" y="-162.0456" font-family="Times,serif" font-size="14.00" fill="#000000">ind</text>
</g>
<!-- 13&#45;&gt;14 -->
<g id="edge9" class="edge">
<title>13&#45;&gt;14</title>
<path fill="none" stroke="#0000ff" stroke-dasharray="5,2" d="M165.2767,-140.3174C166.1398,-165.841 169.0579,-213.7437 178.9148,-253.2456 182.3492,-267.0088 187.6059,-281.5239 192.9212,-294.4535"/>
<polygon fill="#0000ff" stroke="#0000ff" points="189.8407,-296.1541 196.9681,-303.9931 196.2848,-293.4203 189.8407,-296.1541"/>
<text text-anchor="middle" x="190.4148" y="-218.5456" font-family="Times,serif" font-size="14.00" fill="#000000">ind</text>
</g>
<!-- 15 -->
<g id="node6" class="node">
<title>15</title>
<polygon fill="#fa8072" stroke="#fa8072" points="271.6509,-50.7162 221.9148,-63.2233 172.1788,-50.7162 191.1763,-30.4792 252.6534,-30.4792 271.6509,-50.7162"/>
<polygon fill="none" stroke="#fa8072" points="279.2462,-52.952 221.9148,-67.3692 164.5835,-52.952 189.4558,-26.4569 254.3739,-26.4569 279.2462,-52.952"/>
<text text-anchor="middle" x="221.9148" y="-41.4228" font-family="Times,serif" font-size="14.00" fill="#000000">4.2.27</text>
</g>
<!-- 15&#45;&gt;3 -->
<g id="edge15" class="edge">
<title>15&#45;&gt;3</title>
<path fill="none" stroke="#0000ff" d="M191.8365,-59.9929C166.2547,-72.6399 129.4446,-90.838 102.2258,-104.2944"/>
<polygon fill="#0000ff" stroke="#0000ff" points="100.4455,-101.2701 93.0323,-108.8394 103.5478,-107.5451 100.4455,-101.2701"/>
</g>
<!-- 15&#45;&gt;10 -->
<g id="edge2" class="edge">
<title>15&#45;&gt;10</title>
<path fill="none" stroke="#ff0000" stroke-width="2" d="M224.3672,-66.8416C227.5666,-95.1756 233.2302,-145.3334 237.2574,-180.9985"/>
<polygon fill="#ff0000" stroke="#ff0000" stroke-width="2" points="233.7982,-181.5576 238.3982,-191.1017 240.754,-180.7721 233.7982,-181.5576"/>
<text text-anchor="middle" x="242.4148" y="-118.5456" font-family="Times,serif" font-size="14.00" fill="#000000">dir</text>
</g>
<!-- 15&#45;&gt;13 -->
<g id="edge10" class="edge">
<title>15&#45;&gt;13</title>
<path fill="none" stroke="#0000ff" d="M207.8249,-64.1869C200.5412,-74.042 191.5534,-86.2028 183.6885,-96.8443"/>
<polygon fill="#0000ff" stroke="#0000ff" points="180.8047,-94.8575 177.6757,-104.9798 186.4341,-99.0181 180.8047,-94.8575"/>
</g>
<!-- 20 -->
<g id="node8" class="node">
<title>20</title>
<ellipse fill="#d3d3d3" stroke="#d3d3d3" cx="319.9148" cy="-122.2456" rx="40.0939" ry="18"/>
<text text-anchor="middle" x="319.9148" y="-118.5456" font-family="Times,serif" font-size="14.00" fill="#000000">4.2.29</text>
</g>
<!-- 15&#45;&gt;20 -->
<g id="edge14" class="edge">
<title>15&#45;&gt;20</title>
<path fill="none" stroke="#0000ff" d="M243.6642,-62.2389C257.8427,-73.3969 276.4847,-88.0675 291.7867,-100.1097"/>
<polygon fill="#0000ff" stroke="#0000ff" points="289.8718,-103.0566 299.8947,-106.4904 294.2008,-97.5557 289.8718,-103.0566"/>
</g>
<!-- 19 -->
<g id="node7" class="node">
<title>19</title>
<polygon fill="#9acd32" stroke="#9acd32" points="411.9148,-253.2456 349.9148,-253.2456 349.9148,-191.2456 411.9148,-191.2456 411.9148,-253.2456"/>
<text text-anchor="middle" x="380.9148" y="-218.5456" font-family="Times,serif" font-size="14.00" fill="#000000">4.3.13</text>
</g>
<!-- 20&#45;&gt;5 -->
<g id="edge3" class="edge">
<title>20&#45;&gt;5</title>
<path fill="none" stroke="#0000ff" stroke-dasharray="5,2" d="M319.8651,-140.6347C318.7685,-168.7882 312.4869,-222.5323 281.9148,-253.2456 261.9733,-273.2793 247.5377,-261.7463 220.9148,-271.2456 182.4673,-284.9642 139.7003,-303.2525 109.3497,-316.7658"/>
<polygon fill="#0000ff" stroke="#0000ff" points="107.6493,-313.6922 99.9531,-320.9735 110.5102,-320.0809 107.6493,-313.6922"/>
<text text-anchor="middle" x="323.4148" y="-218.5456" font-family="Times,serif" font-size="14.00" fill="#000000">ind</text>
</g>
<!-- 20&#45;&gt;10 -->
<g id="edge4" class="edge">
<title>20&#45;&gt;10</title>
<path fill="none" stroke="#0000ff" stroke-dasharray="5,2" d="M297.2105,-137.4338C289.5058,-143.3178 281.2529,-150.5044 274.9148,-158.2456 269.0408,-165.4201 263.8004,-173.8097 259.3195,-182.1081"/>
<polygon fill="#0000ff" stroke="#0000ff" points="256.2013,-180.5185 254.7614,-191.0151 262.4328,-183.7075 256.2013,-180.5185"/>
<text text-anchor="middle" x="286.4148" y="-162.0456" font-family="Times,serif" font-size="14.00" fill="#000000">ind</text>
</g>
<!-- 20&#45;&gt;14 -->
<g id="edge11" class="edge">
<title>20&#45;&gt;14</title>
<path fill="none" stroke="#0000ff" stroke-dasharray="5,2" d="M351.1704,-133.716C375.2984,-144.4651 406.8592,-163.1345 420.9148,-191.2456 433.2381,-215.8921 436.4387,-230.479 420.9148,-253.2456 401.3798,-281.8948 308.0406,-310.331 252.9248,-325.0111"/>
<polygon fill="#0000ff" stroke="#0000ff" points="251.8883,-321.6645 243.1047,-327.589 253.6657,-328.4351 251.8883,-321.6645"/>
<text text-anchor="middle" x="442.4148" y="-218.5456" font-family="Times,serif" font-size="14.00" fill="#000000">ind</text>
</g>
<!-- 20&#45;&gt;19 -->
<g id="edge1" class="edge">
<title>20&#45;&gt;19</title>
<path fill="none" stroke="#0000ff" stroke-dasharray="5,2" d="M330.5402,-139.6643C337.7309,-151.4523 347.532,-167.5197 356.5782,-182.3496"/>
<polygon fill="#0000ff" stroke="#0000ff" points="353.5963,-184.1821 361.7919,-190.8965 359.5722,-180.5368 353.5963,-184.1821"/>
<text text-anchor="middle" x="361.4148" y="-162.0456" font-family="Times,serif" font-size="14.00" fill="#000000">ind</text>
</g>
</g>
</svg>
