<?xml version="1.0" encoding="UTF-8" standalone="no"?>
<!DOCTYPE svg PUBLIC "-//W3C//DTD SVG 1.1//EN"
 "http://www.w3.org/Graphics/SVG/1.1/DTD/svg11.dtd">
<!-- Generated by graphviz version 2.42.4 (0)
 -->
<!-- Title: stable&#45;multigraph Pages: 1 -->
<svg width="1139pt" height="1476pt"
 viewBox="0.00 0.00 1138.87 1475.62" xmlns="http://www.w3.org/2000/svg" xmlns:xlink="http://www.w3.org/1999/xlink">
<g id="graph0" class="graph" transform="scale(1 1) rotate(0) translate(4 1471.62)">
<title>stable&#45;multigraph</title>
<polygon fill="white" stroke="transparent" points="-4,4 -4,-1471.62 1134.87,-1471.62 1134.87,4 -4,4"/>
<text text-anchor="middle" x="565.44" y="-7.8" font-family="Times,serif" font-size="14.00">stable&#45;multigraph_amd64 (2021&#45;03&#45;16)</text>
<g id="clust1" class="cluster">
<title>cluster1</title>
<polygon fill="none" stroke="black" points="232.87,-31 232.87,-343.62 507.87,-343.62 507.87,-31 232.87,-31"/>
<text text-anchor="middle" x="370.37" y="-38.8" font-family="Times,serif" font-size="14.00">stable&#45;4.2</text>
</g>
<g id="clust2" class="cluster">
<title>cluster3</title>
<polygon fill="none" stroke="black" points="20.87,-351.62 20.87,-648.62 658.87,-648.62 658.87,-351.62 20.87,-351.62"/>
<text text-anchor="middle" x="339.87" y="-359.42" font-family="Times,serif" font-size="14.00">stable&#45;4.3</text>
</g>
<g id="clust3" class="cluster">
<title>cluster5</title>
<polygon fill="none" stroke="black" points="398.87,-656.62 398.87,-956.62 796.87,-956.62 796.87,-656.62 398.87,-656.62"/>
<text text-anchor="middle" x="597.87" y="-664.42" font-family="Times,serif" font-size="14.00">stable&#45;4.4</text>
</g>
<g id="clust4" class="cluster">
<title>cluster7</title>
<polygon fill="none" stroke="black" points="804.87,-855.62 804.87,-1152.62 1122.87,-1152.62 1122.87,-855.62 804.87,-855.62"/>
<text text-anchor="middle" x="963.87" y="-863.42" font-family="Times,serif" font-size="14.00">stable&#45;4.5</text>
</g>
<g id="clust5" class="cluster">
<title>cluster9</title>
<polygon fill="none" stroke="black" points="781.87,-1160.62 781.87,-1359.62 868.87,-1359.62 868.87,-1160.62 781.87,-1160.62"/>
<text text-anchor="middle" x="825.37" y="-1168.42" font-family="Times,serif" font-size="14.00">stable&#45;4.6</text>
</g>
<g id="clust6" class="cluster">
<title>cluster10</title>
<polygon fill="none" stroke="black" points="786.87,-1367.62 786.87,-1459.62 873.87,-1459.62 873.87,-1367.62 786.87,-1367.62"/>
<text text-anchor="middle" x="830.37" y="-1375.42" font-family="Times,serif" font-size="14.00">stable&#45;4.7</text>
</g>
<!-- 1001 -->
<g id="node1" class="node">
<title>1001</title>
<ellipse fill="lightgrey" stroke="lightgrey" cx="280.87" cy="-206.62" rx="40.09" ry="18"/>
<text text-anchor="middle" x="280.87" y="-202.92" font-family="Times,serif" font-size="14.00">4.1.41</text>
</g>
<!-- 1031 -->
<g id="node3" class="node">
<title>1031</title>
<polygon fill="yellowgreen" stroke="yellowgreen" points="370.87,-335.62 308.87,-335.62 308.87,-273.62 370.87,-273.62 370.87,-335.62"/>
<text text-anchor="middle" x="339.87" y="-300.92" font-family="Times,serif" font-size="14.00">4.2.36</text>
</g>
<!-- 1001&#45;&gt;1031 -->
<g id="edge1" class="edge">
<title>1001&#45;&gt;1031</title>
<path fill="none" stroke="blue" stroke-dasharray="5,2" d="M291.15,-224.34C298.04,-235.56 307.41,-250.8 316.09,-264.92"/>
<polygon fill="blue" stroke="blue" points="313.16,-266.84 321.38,-273.53 319.12,-263.18 313.16,-266.84"/>
</g>
<!-- 1040 -->
<g id="node6" class="node">
<title>1040</title>
<polygon fill="yellowgreen" stroke="yellowgreen" points="450.87,-335.62 388.87,-335.62 388.87,-273.62 450.87,-273.62 450.87,-335.62"/>
<text text-anchor="middle" x="419.87" y="-300.92" font-family="Times,serif" font-size="14.00">4.2.34</text>
</g>
<!-- 1001&#45;&gt;1040 -->
<g id="edge2" class="edge">
<title>1001&#45;&gt;1040</title>
<path fill="none" stroke="blue" stroke-dasharray="5,2" d="M303.13,-221.96C323.35,-235.1 353.9,-255.25 379.87,-273.62 380.05,-273.75 380.23,-273.87 380.4,-274"/>
<polygon fill="blue" stroke="blue" points="378.39,-276.86 388.55,-279.87 382.49,-271.19 378.39,-276.86"/>
</g>
<!-- 1025 -->
<g id="node2" class="node">
<title>1025</title>
<ellipse fill="lightgrey" stroke="lightgrey" cx="379.87" cy="-206.62" rx="40.09" ry="18"/>
<text text-anchor="middle" x="379.87" y="-202.92" font-family="Times,serif" font-size="14.00">4.1.38</text>
</g>
<!-- 1025&#45;&gt;1031 -->
<g id="edge4" class="edge">
<title>1025&#45;&gt;1031</title>
<path fill="none" stroke="blue" stroke-dasharray="5,2" d="M372.72,-224.79C368.16,-235.74 362.04,-250.41 356.33,-264.13"/>
<polygon fill="blue" stroke="blue" points="353.08,-262.83 352.46,-273.41 359.54,-265.53 353.08,-262.83"/>
</g>
<!-- 1025&#45;&gt;1040 -->
<g id="edge5" class="edge">
<title>1025&#45;&gt;1040</title>
<path fill="none" stroke="blue" stroke-dasharray="5,2" d="M387.02,-224.79C391.59,-235.74 397.7,-250.41 403.41,-264.13"/>
<polygon fill="blue" stroke="blue" points="400.21,-265.53 407.28,-273.41 406.67,-262.83 400.21,-265.53"/>
</g>
<!-- 3022 -->
<g id="node14" class="node">
<title>3022</title>
<polygon fill="yellowgreen" stroke="yellowgreen" points="333.87,-542.62 271.87,-542.62 271.87,-480.62 333.87,-480.62 333.87,-542.62"/>
<text text-anchor="middle" x="302.87" y="-507.92" font-family="Times,serif" font-size="14.00">4.3.38</text>
</g>
<!-- 1031&#45;&gt;3022 -->
<g id="edge20" class="edge">
<title>1031&#45;&gt;3022</title>
<path fill="none" stroke="red" stroke-width="2" d="M308.66,-305.18C235.65,-304.89 57.09,-308.68 19.87,-351.62 -7.2,-382.86 -5.82,-412.25 19.87,-444.62 49.61,-482.1 190.63,-500.27 261.71,-507.17"/>
<polygon fill="red" stroke="red" stroke-width="2" points="261.39,-510.66 271.67,-508.11 262.04,-503.69 261.39,-510.66"/>
</g>
<!-- 3029 -->
<g id="node15" class="node">
<title>3029</title>
<polygon fill="yellowgreen" stroke="yellowgreen" points="480.87,-640.62 418.87,-640.62 418.87,-578.62 480.87,-578.62 480.87,-640.62"/>
<text text-anchor="middle" x="449.87" y="-605.92" font-family="Times,serif" font-size="14.00">4.3.40</text>
</g>
<!-- 1031&#45;&gt;3029 -->
<g id="edge26" class="edge">
<title>1031&#45;&gt;3029</title>
<path fill="none" stroke="red" stroke-width="2" d="M366.83,-335.91C370.89,-339.01 375.27,-341.71 379.87,-343.62 394.24,-349.6 649.03,-340.46 659.87,-351.62 739.24,-433.29 570.9,-542.03 490.02,-587.37"/>
<polygon fill="red" stroke="red" stroke-width="2" points="488.13,-584.42 481.08,-592.33 491.52,-590.54 488.13,-584.42"/>
</g>
<!-- 1033 -->
<g id="node4" class="node">
<title>1033</title>
<polygon fill="salmon" stroke="salmon" points="429.61,-89.72 379.87,-102.22 330.14,-89.72 349.13,-69.48 410.61,-69.48 429.61,-89.72"/>
<polygon fill="none" stroke="salmon" points="437.2,-91.95 379.87,-106.37 322.54,-91.95 347.41,-65.46 412.33,-65.46 437.2,-91.95"/>
<text text-anchor="middle" x="379.87" y="-80.42" font-family="Times,serif" font-size="14.00">4.1.34</text>
</g>
<!-- 1033&#45;&gt;1001 -->
<g id="edge6" class="edge">
<title>1033&#45;&gt;1001</title>
<path fill="none" stroke="blue" d="M365.26,-102.9C348.21,-123.66 319.91,-158.1 300.84,-181.32"/>
<polygon fill="blue" stroke="blue" points="297.91,-179.37 294.27,-189.32 303.32,-183.81 297.91,-179.37"/>
</g>
<!-- 1033&#45;&gt;1025 -->
<g id="edge8" class="edge">
<title>1033&#45;&gt;1025</title>
<path fill="none" stroke="blue" d="M379.87,-106.39C379.87,-126.39 379.87,-156.43 379.87,-178.22"/>
<polygon fill="blue" stroke="blue" points="376.37,-178.47 379.87,-188.47 383.37,-178.47 376.37,-178.47"/>
</g>
<!-- 1038 -->
<g id="node5" class="node">
<title>1038</title>
<polygon fill="lightgrey" stroke="lightgrey" points="499.87,-237.62 437.87,-237.62 437.87,-175.62 499.87,-175.62 499.87,-237.62"/>
<text text-anchor="middle" x="468.87" y="-202.92" font-family="Times,serif" font-size="14.00">4.2.21</text>
</g>
<!-- 1033&#45;&gt;1038 -->
<g id="edge7" class="edge">
<title>1033&#45;&gt;1038</title>
<path fill="none" stroke="blue" d="M393.2,-103.16C405.61,-119.97 424.53,-145.59 440.35,-167"/>
<polygon fill="blue" stroke="blue" points="437.7,-169.31 446.46,-175.28 443.33,-165.15 437.7,-169.31"/>
</g>
<!-- 1038&#45;&gt;1031 -->
<g id="edge9" class="edge">
<title>1038&#45;&gt;1031</title>
<path fill="none" stroke="blue" stroke-dasharray="5,2" d="M437.45,-231.23C434.55,-233.4 431.66,-235.55 428.87,-237.62 407.17,-253.73 401.57,-257.52 379.87,-273.62 379.7,-273.75 379.52,-273.88 379.35,-274.01"/>
<polygon fill="blue" stroke="blue" points="377.22,-271.23 371.29,-280.01 381.4,-276.84 377.22,-271.23"/>
</g>
<!-- 1038&#45;&gt;1040 -->
<g id="edge3" class="edge">
<title>1038&#45;&gt;1040</title>
<path fill="none" stroke="blue" stroke-dasharray="5,2" d="M453.5,-237.73C449.17,-246.22 444.39,-255.58 439.83,-264.52"/>
<polygon fill="blue" stroke="blue" points="436.62,-263.12 435.19,-273.62 442.85,-266.3 436.62,-263.12"/>
</g>
<!-- 3000 -->
<g id="node7" class="node">
<title>3000</title>
<polygon fill="lightgrey" stroke="lightgrey" points="650.87,-444.62 588.87,-444.62 588.87,-382.62 650.87,-382.62 650.87,-444.62"/>
<text text-anchor="middle" x="619.87" y="-409.92" font-family="Times,serif" font-size="14.00">4.3.26</text>
</g>
<!-- 1040&#45;&gt;3000 -->
<g id="edge18" class="edge">
<title>1040&#45;&gt;3000</title>
<path fill="none" stroke="blue" d="M450.97,-308.13C485.44,-312.27 541.25,-323.16 579.87,-351.62 587.89,-357.53 594.76,-365.57 600.43,-373.87"/>
<polygon fill="blue" stroke="blue" points="597.6,-375.95 605.9,-382.54 603.52,-372.22 597.6,-375.95"/>
</g>
<!-- 3001 -->
<g id="node8" class="node">
<title>3001</title>
<polygon fill="lightgrey" stroke="lightgrey" points="570.87,-444.62 508.87,-444.62 508.87,-382.62 570.87,-382.62 570.87,-444.62"/>
<text text-anchor="middle" x="539.87" y="-409.92" font-family="Times,serif" font-size="14.00">4.3.31</text>
</g>
<!-- 1040&#45;&gt;3001 -->
<g id="edge30" class="edge">
<title>1040&#45;&gt;3001</title>
<path fill="none" stroke="blue" d="M450.99,-319.22C466.82,-327.14 485.65,-338.21 499.87,-351.62 506.77,-358.13 513.06,-366.05 518.5,-374.01"/>
<polygon fill="blue" stroke="blue" points="515.69,-376.09 524.06,-382.58 521.56,-372.28 515.69,-376.09"/>
</g>
<!-- 3003 -->
<g id="node9" class="node">
<title>3003</title>
<polygon fill="lightgrey" stroke="lightgrey" points="490.87,-444.62 428.87,-444.62 428.87,-382.62 490.87,-382.62 490.87,-444.62"/>
<text text-anchor="middle" x="459.87" y="-409.92" font-family="Times,serif" font-size="14.00">4.3.29</text>
</g>
<!-- 1040&#45;&gt;3003 -->
<g id="edge16" class="edge">
<title>1040&#45;&gt;3003</title>
<path fill="none" stroke="blue" d="M431.12,-335.71C435.42,-347.22 440.4,-360.54 444.99,-372.81"/>
<polygon fill="blue" stroke="blue" points="441.79,-374.25 448.57,-382.39 448.35,-371.8 441.79,-374.25"/>
</g>
<!-- 3005 -->
<g id="node10" class="node">
<title>3005</title>
<polygon fill="lightgrey" stroke="lightgrey" points="410.87,-444.62 348.87,-444.62 348.87,-382.62 410.87,-382.62 410.87,-444.62"/>
<text text-anchor="middle" x="379.87" y="-409.92" font-family="Times,serif" font-size="14.00">4.3.25</text>
</g>
<!-- 1040&#45;&gt;3005 -->
<g id="edge37" class="edge">
<title>1040&#45;&gt;3005</title>
<path fill="none" stroke="blue" d="M408.62,-335.71C404.32,-347.22 399.34,-360.54 394.75,-372.81"/>
<polygon fill="blue" stroke="blue" points="391.4,-371.8 391.17,-382.39 397.95,-374.25 391.4,-371.8"/>
</g>
<!-- 3007 -->
<g id="node11" class="node">
<title>3007</title>
<polygon fill="lightgrey" stroke="lightgrey" points="330.87,-444.62 268.87,-444.62 268.87,-382.62 330.87,-382.62 330.87,-444.62"/>
<text text-anchor="middle" x="299.87" y="-409.92" font-family="Times,serif" font-size="14.00">4.3.27</text>
</g>
<!-- 1040&#45;&gt;3007 -->
<g id="edge29" class="edge">
<title>1040&#45;&gt;3007</title>
<path fill="none" stroke="blue" d="M391.65,-335.92C387.91,-338.85 383.95,-341.51 379.87,-343.62 363.78,-351.97 354.9,-341.48 339.87,-351.62 331.45,-357.31 324.38,-365.43 318.63,-373.89"/>
<polygon fill="blue" stroke="blue" points="315.66,-372.05 313.34,-382.39 321.6,-375.76 315.66,-372.05"/>
</g>
<!-- 3009 -->
<g id="node12" class="node">
<title>3009</title>
<polygon fill="lightgrey" stroke="lightgrey" points="250.87,-444.62 188.87,-444.62 188.87,-382.62 250.87,-382.62 250.87,-444.62"/>
<text text-anchor="middle" x="219.87" y="-409.92" font-family="Times,serif" font-size="14.00">4.3.33</text>
</g>
<!-- 1040&#45;&gt;3009 -->
<g id="edge19" class="edge">
<title>1040&#45;&gt;3009</title>
<path fill="none" stroke="blue" d="M392.84,-335.75C388.79,-338.87 384.43,-341.62 379.87,-343.62 355.39,-354.35 282.95,-338.15 259.87,-351.62 250.85,-356.89 243.49,-365.1 237.65,-373.8"/>
<polygon fill="blue" stroke="blue" points="234.52,-372.22 232.32,-382.59 240.5,-375.85 234.52,-372.22"/>
</g>
<!-- 3019 -->
<g id="node13" class="node">
<title>3019</title>
<polygon fill="lightgrey" stroke="lightgrey" points="170.87,-444.62 108.87,-444.62 108.87,-382.62 170.87,-382.62 170.87,-444.62"/>
<text text-anchor="middle" x="139.87" y="-409.92" font-family="Times,serif" font-size="14.00">4.3.35</text>
</g>
<!-- 1040&#45;&gt;3019 -->
<g id="edge28" class="edge">
<title>1040&#45;&gt;3019</title>
<path fill="none" stroke="blue" d="M392.89,-335.86C388.83,-338.96 384.46,-341.68 379.87,-343.62 359.39,-352.28 199.23,-340.67 179.87,-351.62 170.78,-356.77 163.39,-364.94 157.56,-373.64"/>
<polygon fill="blue" stroke="blue" points="154.42,-372.06 152.23,-382.43 160.41,-375.69 154.42,-372.06"/>
</g>
<!-- 1040&#45;&gt;3022 -->
<g id="edge14" class="edge">
<title>1040&#45;&gt;3022</title>
<path fill="none" stroke="red" stroke-width="2" d="M451.13,-306.85C509.99,-309.89 633.72,-319.98 659.87,-351.62 686.2,-383.48 686.31,-412.85 659.87,-444.62 620.06,-492.47 429.17,-505.77 344.03,-509.35"/>
<polygon fill="red" stroke="red" stroke-width="2" points="343.8,-505.86 333.94,-509.75 344.07,-512.86 343.8,-505.86"/>
</g>
<!-- 1040&#45;&gt;3029 -->
<g id="edge22" class="edge">
<title>1040&#45;&gt;3029</title>
<path fill="none" stroke="red" stroke-width="2" d="M450.93,-306.46C513.68,-308.85 652.25,-317.92 682.87,-351.62 740.03,-414.54 744.5,-475.1 692.87,-542.62 668.47,-574.53 553.88,-594.64 491.16,-603.45"/>
<polygon fill="red" stroke="red" stroke-width="2" points="490.63,-599.99 481.2,-604.81 491.58,-606.92 490.63,-599.99"/>
</g>
<!-- 3031 -->
<g id="node16" class="node">
<title>3031</title>
<polygon fill="lightgrey" stroke="lightgrey" points="90.87,-444.62 28.87,-444.62 28.87,-382.62 90.87,-382.62 90.87,-444.62"/>
<text text-anchor="middle" x="59.87" y="-409.92" font-family="Times,serif" font-size="14.00">4.3.28</text>
</g>
<!-- 1040&#45;&gt;3031 -->
<g id="edge12" class="edge">
<title>1040&#45;&gt;3031</title>
<path fill="none" stroke="blue" d="M392.91,-335.91C388.85,-339.01 384.47,-341.71 379.87,-343.62 351.13,-355.58 127.04,-336.44 99.87,-351.62 90.75,-356.72 83.35,-364.87 77.52,-373.57"/>
<polygon fill="blue" stroke="blue" points="74.38,-371.99 72.2,-382.36 80.37,-375.62 74.38,-371.99"/>
</g>
<!-- 3000&#45;&gt;3022 -->
<g id="edge36" class="edge">
<title>3000&#45;&gt;3022</title>
<path fill="none" stroke="blue" stroke-dasharray="5,2" d="M588.75,-439.79C585.84,-441.58 582.86,-443.22 579.87,-444.62 501.25,-481.51 400.09,-498.85 344.35,-506.1"/>
<polygon fill="blue" stroke="blue" points="343.64,-502.66 334.15,-507.38 344.51,-509.61 343.64,-502.66"/>
</g>
<!-- 3000&#45;&gt;3029 -->
<g id="edge33" class="edge">
<title>3000&#45;&gt;3029</title>
<path fill="none" stroke="blue" stroke-dasharray="5,2" d="M593.31,-444.94C563.49,-478.96 515.08,-534.21 482.86,-570.97"/>
<polygon fill="blue" stroke="blue" points="480.21,-568.7 476.25,-578.52 485.47,-573.31 480.21,-568.7"/>
</g>
<!-- 3001&#45;&gt;3022 -->
<g id="edge11" class="edge">
<title>3001&#45;&gt;3022</title>
<path fill="none" stroke="blue" stroke-dasharray="5,2" d="M508.61,-439.5C505.73,-441.35 502.79,-443.09 499.87,-444.62 448.94,-471.36 385.01,-490.4 344.04,-500.95"/>
<polygon fill="blue" stroke="blue" points="342.98,-497.61 334.14,-503.45 344.7,-504.4 342.98,-497.61"/>
</g>
<!-- 3001&#45;&gt;3029 -->
<g id="edge31" class="edge">
<title>3001&#45;&gt;3029</title>
<path fill="none" stroke="blue" stroke-dasharray="5,2" d="M525.81,-444.94C510.29,-478.39 485.25,-532.36 468.2,-569.11"/>
<polygon fill="blue" stroke="blue" points="464.87,-567.98 463.84,-578.52 471.22,-570.92 464.87,-567.98"/>
</g>
<!-- 3003&#45;&gt;3022 -->
<g id="edge25" class="edge">
<title>3003&#45;&gt;3022</title>
<path fill="none" stroke="blue" stroke-dasharray="5,2" d="M428.71,-438.6C425.75,-440.69 422.78,-442.72 419.87,-444.62 395.16,-460.76 366.28,-477.08 343.4,-489.45"/>
<polygon fill="blue" stroke="blue" points="341.47,-486.51 334.31,-494.32 344.78,-492.68 341.47,-486.51"/>
</g>
<!-- 3003&#45;&gt;3029 -->
<g id="edge21" class="edge">
<title>3003&#45;&gt;3029</title>
<path fill="none" stroke="blue" stroke-dasharray="5,2" d="M458.31,-444.94C456.6,-478.11 453.85,-531.45 451.96,-568.17"/>
<polygon fill="blue" stroke="blue" points="448.44,-568.36 451.42,-578.52 455.43,-568.72 448.44,-568.36"/>
</g>
<!-- 3005&#45;&gt;3022 -->
<g id="edge10" class="edge">
<title>3005&#45;&gt;3022</title>
<path fill="none" stroke="blue" stroke-dasharray="5,2" d="M355.72,-444.73C348.62,-453.58 340.77,-463.37 333.33,-472.64"/>
<polygon fill="blue" stroke="blue" points="330.46,-470.63 326.94,-480.62 335.93,-475.01 330.46,-470.63"/>
</g>
<!-- 3005&#45;&gt;3029 -->
<g id="edge32" class="edge">
<title>3005&#45;&gt;3029</title>
<path fill="none" stroke="blue" stroke-dasharray="5,2" d="M390.81,-444.94C402.88,-478.39 422.36,-532.36 435.61,-569.11"/>
<polygon fill="blue" stroke="blue" points="432.32,-570.3 439.01,-578.52 438.91,-567.93 432.32,-570.3"/>
</g>
<!-- 3007&#45;&gt;3022 -->
<g id="edge23" class="edge">
<title>3007&#45;&gt;3022</title>
<path fill="none" stroke="blue" stroke-dasharray="5,2" d="M300.81,-444.73C301.07,-452.87 301.35,-461.8 301.61,-470.39"/>
<polygon fill="blue" stroke="blue" points="298.12,-470.73 301.93,-480.62 305.12,-470.51 298.12,-470.73"/>
</g>
<!-- 3007&#45;&gt;3029 -->
<g id="edge34" class="edge">
<title>3007&#45;&gt;3029</title>
<path fill="none" stroke="blue" stroke-dasharray="5,2" d="M323.31,-444.94C349.51,-478.82 391.98,-533.74 420.4,-570.51"/>
<polygon fill="blue" stroke="blue" points="417.71,-572.75 426.6,-578.52 423.25,-568.47 417.71,-572.75"/>
</g>
<!-- 3009&#45;&gt;3022 -->
<g id="edge38" class="edge">
<title>3009&#45;&gt;3022</title>
<path fill="none" stroke="blue" stroke-dasharray="5,2" d="M245.91,-444.73C253.63,-453.67 262.19,-463.57 270.28,-472.92"/>
<polygon fill="blue" stroke="blue" points="267.74,-475.34 276.93,-480.62 273.04,-470.76 267.74,-475.34"/>
</g>
<!-- 3009&#45;&gt;3029 -->
<g id="edge15" class="edge">
<title>3009&#45;&gt;3029</title>
<path fill="none" stroke="blue" stroke-dasharray="5,2" d="M222.49,-444.66C226.53,-473.39 236.8,-516.15 262.87,-542.62 302.04,-582.39 366.6,-598.26 408.68,-604.55"/>
<polygon fill="blue" stroke="blue" points="408.22,-608.02 418.61,-605.92 409.18,-601.09 408.22,-608.02"/>
</g>
<!-- 3019&#45;&gt;3022 -->
<g id="edge13" class="edge">
<title>3019&#45;&gt;3022</title>
<path fill="none" stroke="blue" stroke-dasharray="5,2" d="M171,-438.67C173.96,-440.74 176.94,-442.75 179.87,-444.62 206.68,-461.73 238.33,-478.64 262.81,-491.06"/>
<polygon fill="blue" stroke="blue" points="261.31,-494.23 271.81,-495.6 264.45,-487.97 261.31,-494.23"/>
</g>
<!-- 3019&#45;&gt;3029 -->
<g id="edge27" class="edge">
<title>3019&#45;&gt;3029</title>
<path fill="none" stroke="blue" stroke-dasharray="5,2" d="M152.89,-444.7C167.01,-473.88 192.26,-517.35 226.87,-542.62 281.85,-582.78 361.16,-598.67 408.89,-604.84"/>
<polygon fill="blue" stroke="blue" points="408.51,-608.32 418.86,-606.05 409.36,-601.37 408.51,-608.32"/>
</g>
<!-- 3022&#45;&gt;3029 -->
<g id="edge17" class="edge">
<title>3022&#45;&gt;3029</title>
<path fill="none" stroke="blue" stroke-dasharray="5,2" d="M334.05,-532.98C356.26,-547.49 386.31,-567.11 410.23,-582.74"/>
<polygon fill="blue" stroke="blue" points="408.46,-585.76 418.74,-588.29 412.28,-579.89 408.46,-585.76"/>
</g>
<!-- 5017 -->
<g id="node18" class="node">
<title>5017</title>
<polygon fill="yellowgreen" stroke="yellowgreen" points="640.87,-948.62 578.87,-948.62 578.87,-886.62 640.87,-886.62 640.87,-948.62"/>
<text text-anchor="middle" x="609.87" y="-913.92" font-family="Times,serif" font-size="14.00">4.4.33</text>
</g>
<!-- 3022&#45;&gt;5017 -->
<g id="edge47" class="edge">
<title>3022&#45;&gt;5017</title>
<path fill="none" stroke="red" stroke-width="2" d="M298.43,-542.96C292.97,-589.58 287.77,-680.66 317.87,-749.62 340.03,-800.39 349.4,-816 394.87,-847.62 448.43,-884.87 523.21,-902.85 568.99,-910.87"/>
<polygon fill="red" stroke="red" stroke-width="2" points="568.41,-914.32 578.86,-912.52 569.57,-907.42 568.41,-914.32"/>
</g>
<!-- 5035 -->
<g id="node21" class="node">
<title>5035</title>
<polygon fill="yellowgreen" stroke="yellowgreen" points="715.87,-847.62 653.87,-847.62 653.87,-785.62 715.87,-785.62 715.87,-847.62"/>
<text text-anchor="middle" x="684.87" y="-812.92" font-family="Times,serif" font-size="14.00">4.4.32</text>
</g>
<!-- 3022&#45;&gt;5035 -->
<g id="edge39" class="edge">
<title>3022&#45;&gt;5035</title>
<path fill="none" stroke="red" stroke-width="2" d="M303.11,-542.75C305.22,-593.33 317.17,-695.15 376.87,-749.62 415.6,-784.96 569.08,-804.39 643.71,-811.91"/>
<polygon fill="red" stroke="red" stroke-width="2" points="643.4,-815.4 653.69,-812.9 644.08,-808.43 643.4,-815.4"/>
</g>
<!-- 5012 -->
<g id="node17" class="node">
<title>5012</title>
<polygon fill="lightgrey" stroke="lightgrey" points="788.87,-749.62 726.87,-749.62 726.87,-687.62 788.87,-687.62 788.87,-749.62"/>
<text text-anchor="middle" x="757.87" y="-714.92" font-family="Times,serif" font-size="14.00">4.4.31</text>
</g>
<!-- 3029&#45;&gt;5012 -->
<g id="edge54" class="edge">
<title>3029&#45;&gt;5012</title>
<path fill="none" stroke="blue" d="M481.23,-612.88C543.33,-617.84 679.28,-631.33 717.87,-656.62 726.45,-662.25 733.61,-670.42 739.38,-678.96"/>
<polygon fill="blue" stroke="blue" points="736.45,-680.89 744.69,-687.55 742.41,-677.2 736.45,-680.89"/>
</g>
<!-- 3029&#45;&gt;5017 -->
<g id="edge50" class="edge">
<title>3029&#45;&gt;5017</title>
<path fill="none" stroke="red" stroke-width="2" d="M418.82,-621.73C403.25,-629.06 385.85,-640.36 376.87,-656.62 356.9,-692.81 359.63,-712.06 376.87,-749.62 413.99,-830.48 512.89,-879.85 569.18,-902.27"/>
<polygon fill="red" stroke="red" stroke-width="2" points="568.25,-905.67 578.84,-906.02 570.78,-899.14 568.25,-905.67"/>
</g>
<!-- 5026 -->
<g id="node19" class="node">
<title>5026</title>
<polygon fill="lightgrey" stroke="lightgrey" points="548.87,-749.62 486.87,-749.62 486.87,-687.62 548.87,-687.62 548.87,-749.62"/>
<text text-anchor="middle" x="517.87" y="-714.92" font-family="Times,serif" font-size="14.00">4.4.30</text>
</g>
<!-- 3029&#45;&gt;5026 -->
<g id="edge41" class="edge">
<title>3029&#45;&gt;5026</title>
<path fill="none" stroke="blue" d="M468.99,-640.71C476.53,-652.57 485.27,-666.33 493.27,-678.91"/>
<polygon fill="blue" stroke="blue" points="490.34,-680.83 498.66,-687.39 496.25,-677.07 490.34,-680.83"/>
</g>
<!-- 5030 -->
<g id="node20" class="node">
<title>5030</title>
<polygon fill="lightgrey" stroke="lightgrey" points="628.87,-749.62 566.87,-749.62 566.87,-687.62 628.87,-687.62 628.87,-749.62"/>
<text text-anchor="middle" x="597.87" y="-714.92" font-family="Times,serif" font-size="14.00">4.4.29</text>
</g>
<!-- 3029&#45;&gt;5030 -->
<g id="edge52" class="edge">
<title>3029&#45;&gt;5030</title>
<path fill="none" stroke="blue" d="M480.87,-618.52C504,-625.59 535.36,-637.8 557.87,-656.62 565.37,-662.89 571.98,-670.93 577.56,-679.09"/>
<polygon fill="blue" stroke="blue" points="574.66,-681.05 583,-687.58 580.55,-677.27 574.66,-681.05"/>
</g>
<!-- 3029&#45;&gt;5035 -->
<g id="edge56" class="edge">
<title>3029&#45;&gt;5035</title>
<path fill="none" stroke="red" stroke-width="2" d="M418.8,-630.62C410.42,-637.73 402.43,-646.51 397.87,-656.62 380.89,-694.31 372.13,-717.29 397.87,-749.62 428.15,-787.65 571.79,-805.6 643.68,-812.32"/>
<polygon fill="red" stroke="red" stroke-width="2" points="643.47,-815.81 653.75,-813.23 644.1,-808.84 643.47,-815.81"/>
</g>
<!-- 5046 -->
<g id="node22" class="node">
<title>5046</title>
<polygon fill="lightgrey" stroke="lightgrey" points="468.87,-749.62 406.87,-749.62 406.87,-687.62 468.87,-687.62 468.87,-749.62"/>
<text text-anchor="middle" x="437.87" y="-714.92" font-family="Times,serif" font-size="14.00">4.4.26</text>
</g>
<!-- 3029&#45;&gt;5046 -->
<g id="edge55" class="edge">
<title>3029&#45;&gt;5046</title>
<path fill="none" stroke="blue" d="M446.5,-640.71C445.22,-652.11 443.74,-665.27 442.38,-677.45"/>
<polygon fill="blue" stroke="blue" points="438.9,-677.06 441.26,-687.39 445.86,-677.84 438.9,-677.06"/>
</g>
<!-- 5047 -->
<g id="node23" class="node">
<title>5047</title>
<polygon fill="lightgrey" stroke="lightgrey" points="708.87,-749.62 646.87,-749.62 646.87,-687.62 708.87,-687.62 708.87,-749.62"/>
<text text-anchor="middle" x="677.87" y="-714.92" font-family="Times,serif" font-size="14.00">4.4.27</text>
</g>
<!-- 3029&#45;&gt;5047 -->
<g id="edge46" class="edge">
<title>3029&#45;&gt;5047</title>
<path fill="none" stroke="blue" d="M481.03,-611.39C520.83,-613.81 590.26,-622.98 637.87,-656.62 646.01,-662.37 652.92,-670.35 658.59,-678.64"/>
<polygon fill="blue" stroke="blue" points="655.77,-680.72 664.06,-687.32 661.69,-676.99 655.77,-680.72"/>
</g>
<!-- 3031&#45;&gt;3022 -->
<g id="edge24" class="edge">
<title>3031&#45;&gt;3022</title>
<path fill="none" stroke="blue" stroke-dasharray="5,2" d="M91.12,-439.53C94,-441.37 96.94,-443.1 99.87,-444.62 152.89,-472.15 219.64,-491.18 261.79,-501.5"/>
<polygon fill="blue" stroke="blue" points="261.16,-504.95 271.7,-503.88 262.79,-498.14 261.16,-504.95"/>
</g>
<!-- 3031&#45;&gt;3029 -->
<g id="edge35" class="edge">
<title>3031&#45;&gt;3029</title>
<path fill="none" stroke="blue" stroke-dasharray="5,2" d="M78.01,-444.84C97.32,-474.34 130.61,-518.25 170.87,-542.62 246.43,-588.36 351.3,-602.4 408.54,-606.71"/>
<polygon fill="blue" stroke="blue" points="408.43,-610.22 418.65,-607.41 408.91,-603.23 408.43,-610.22"/>
</g>
<!-- 5012&#45;&gt;5017 -->
<g id="edge49" class="edge">
<title>5012&#45;&gt;5017</title>
<path fill="none" stroke="blue" stroke-dasharray="5,2" d="M756.5,-749.83C753.86,-777.68 746.29,-818.94 724.87,-847.62 706.1,-872.77 675.21,-890.56 650.18,-901.78"/>
<polygon fill="blue" stroke="blue" points="648.72,-898.59 640.91,-905.75 651.48,-905.03 648.72,-898.59"/>
</g>
<!-- 5012&#45;&gt;5035 -->
<g id="edge45" class="edge">
<title>5012&#45;&gt;5035</title>
<path fill="none" stroke="blue" stroke-dasharray="5,2" d="M734.97,-749.73C728.25,-758.58 720.8,-768.37 713.75,-777.64"/>
<polygon fill="blue" stroke="blue" points="710.95,-775.54 707.69,-785.62 716.53,-779.78 710.95,-775.54"/>
</g>
<!-- 7047 -->
<g id="node27" class="node">
<title>7047</title>
<polygon fill="yellowgreen" stroke="yellowgreen" points="914.87,-1046.62 852.87,-1046.62 852.87,-984.62 914.87,-984.62 914.87,-1046.62"/>
<text text-anchor="middle" x="883.87" y="-1011.92" font-family="Times,serif" font-size="14.00">4.5.33</text>
</g>
<!-- 5017&#45;&gt;7047 -->
<g id="edge68" class="edge">
<title>5017&#45;&gt;7047</title>
<path fill="none" stroke="red" stroke-width="2" d="M641.04,-929.54C690.79,-946.97 788.15,-981.09 843.28,-1000.4"/>
<polygon fill="red" stroke="red" stroke-width="2" points="842.14,-1003.71 852.74,-1003.71 844.46,-997.1 842.14,-1003.71"/>
</g>
<!-- 7051 -->
<g id="node28" class="node">
<title>7051</title>
<polygon fill="yellowgreen" stroke="yellowgreen" points="889.87,-1144.62 827.87,-1144.62 827.87,-1082.62 889.87,-1082.62 889.87,-1144.62"/>
<text text-anchor="middle" x="858.87" y="-1109.92" font-family="Times,serif" font-size="14.00">4.5.34</text>
</g>
<!-- 5017&#45;&gt;7051 -->
<g id="edge61" class="edge">
<title>5017&#45;&gt;7051</title>
<path fill="none" stroke="red" stroke-width="2" d="M621.42,-948.67C633.86,-977.41 656.22,-1020.18 687.87,-1046.62 725.71,-1078.23 780.38,-1095.75 817.65,-1104.66"/>
<polygon fill="red" stroke="red" stroke-width="2" points="817.15,-1108.14 827.67,-1106.95 818.7,-1101.31 817.15,-1108.14"/>
</g>
<!-- 5026&#45;&gt;5017 -->
<g id="edge48" class="edge">
<title>5026&#45;&gt;5017</title>
<path fill="none" stroke="blue" stroke-dasharray="5,2" d="M532.05,-749.97C548.03,-784.2 574.07,-839.96 591.58,-877.45"/>
<polygon fill="blue" stroke="blue" points="588.43,-878.98 595.83,-886.56 594.77,-876.02 588.43,-878.98"/>
</g>
<!-- 5026&#45;&gt;5035 -->
<g id="edge53" class="edge">
<title>5026&#45;&gt;5035</title>
<path fill="none" stroke="blue" stroke-dasharray="5,2" d="M548.97,-743.71C551.94,-745.77 554.93,-747.77 557.87,-749.62 585.85,-767.22 619.04,-784.35 644.47,-796.74"/>
<polygon fill="blue" stroke="blue" points="643.28,-800.06 653.81,-801.25 646.33,-793.75 643.28,-800.06"/>
</g>
<!-- 5030&#45;&gt;5017 -->
<g id="edge43" class="edge">
<title>5030&#45;&gt;5017</title>
<path fill="none" stroke="blue" stroke-dasharray="5,2" d="M599.72,-749.97C601.79,-783.91 605.14,-839.02 607.43,-876.49"/>
<polygon fill="blue" stroke="blue" points="603.94,-876.79 608.04,-886.56 610.93,-876.37 603.94,-876.79"/>
</g>
<!-- 5030&#45;&gt;5035 -->
<g id="edge51" class="edge">
<title>5030&#45;&gt;5035</title>
<path fill="none" stroke="blue" stroke-dasharray="5,2" d="M625.16,-749.73C633.34,-758.76 642.41,-768.77 650.96,-778.2"/>
<polygon fill="blue" stroke="blue" points="648.37,-780.56 657.68,-785.62 653.56,-775.86 648.37,-780.56"/>
</g>
<!-- 5035&#45;&gt;5017 -->
<g id="edge58" class="edge">
<title>5035&#45;&gt;5017</title>
<path fill="none" stroke="blue" stroke-dasharray="5,2" d="M661.96,-847.86C654.62,-857.56 646.39,-868.41 638.69,-878.59"/>
<polygon fill="blue" stroke="blue" points="635.89,-876.48 632.64,-886.57 641.47,-880.71 635.89,-876.48"/>
</g>
<!-- 7009 -->
<g id="node24" class="node">
<title>7009</title>
<polygon fill="lightgrey" stroke="lightgrey" points="954.87,-948.62 892.87,-948.62 892.87,-886.62 954.87,-886.62 954.87,-948.62"/>
<text text-anchor="middle" x="923.87" y="-913.92" font-family="Times,serif" font-size="14.00">4.5.27</text>
</g>
<!-- 5035&#45;&gt;7009 -->
<g id="edge69" class="edge">
<title>5035&#45;&gt;7009</title>
<path fill="none" stroke="blue" d="M716.06,-820.6C764.95,-825.74 856.83,-837.53 883.87,-855.62 892.32,-861.27 899.4,-869.38 905.14,-877.84"/>
<polygon fill="blue" stroke="blue" points="902.18,-879.7 910.44,-886.34 908.12,-876 902.18,-879.7"/>
</g>
<!-- 7018 -->
<g id="node25" class="node">
<title>7018</title>
<polygon fill="lightgrey" stroke="lightgrey" points="874.87,-948.62 812.87,-948.62 812.87,-886.62 874.87,-886.62 874.87,-948.62"/>
<text text-anchor="middle" x="843.87" y="-913.92" font-family="Times,serif" font-size="14.00">4.5.31</text>
</g>
<!-- 5035&#45;&gt;7018 -->
<g id="edge60" class="edge">
<title>5035&#45;&gt;7018</title>
<path fill="none" stroke="blue" d="M715.92,-822.25C740.82,-827.19 775.65,-836.98 800.87,-855.62 809.08,-861.69 816.3,-869.8 822.38,-878.11"/>
<polygon fill="blue" stroke="blue" points="819.53,-880.15 828.06,-886.43 825.31,-876.2 819.53,-880.15"/>
</g>
<!-- 7045 -->
<g id="node26" class="node">
<title>7045</title>
<polygon fill="lightgrey" stroke="lightgrey" points="1114.87,-948.62 1052.87,-948.62 1052.87,-886.62 1114.87,-886.62 1114.87,-948.62"/>
<text text-anchor="middle" x="1083.87" y="-913.92" font-family="Times,serif" font-size="14.00">4.5.28</text>
</g>
<!-- 5035&#45;&gt;7045 -->
<g id="edge70" class="edge">
<title>5035&#45;&gt;7045</title>
<path fill="none" stroke="blue" d="M715.97,-817.56C792.77,-817.94 989.17,-822.24 1043.87,-855.62 1052.71,-861.02 1059.98,-869.18 1065.79,-877.81"/>
<polygon fill="blue" stroke="blue" points="1062.9,-879.79 1071.11,-886.49 1068.87,-876.14 1062.9,-879.79"/>
</g>
<!-- 5035&#45;&gt;7047 -->
<g id="edge66" class="edge">
<title>5035&#45;&gt;7047</title>
<path fill="none" stroke="red" stroke-width="2" d="M710,-847.73C741.8,-885.71 793.66,-947.2 803.87,-956.62 816.18,-967.98 830.74,-979.11 844.03,-988.53"/>
<polygon fill="red" stroke="red" stroke-width="2" points="842.35,-991.62 852.55,-994.46 846.35,-985.87 842.35,-991.62"/>
</g>
<!-- 5035&#45;&gt;7051 -->
<g id="edge62" class="edge">
<title>5035&#45;&gt;7051</title>
<path fill="none" stroke="red" stroke-width="2" d="M687.05,-847.63C690.19,-876.87 697.75,-921.88 715.87,-956.62 741.74,-1006.23 787.44,-1052.03 820.22,-1080.99"/>
<polygon fill="red" stroke="red" stroke-width="2" points="818,-1083.69 827.84,-1087.62 822.59,-1078.41 818,-1083.69"/>
</g>
<!-- 7052 -->
<g id="node29" class="node">
<title>7052</title>
<polygon fill="lightgrey" stroke="lightgrey" points="1034.87,-948.62 972.87,-948.62 972.87,-886.62 1034.87,-886.62 1034.87,-948.62"/>
<text text-anchor="middle" x="1003.87" y="-913.92" font-family="Times,serif" font-size="14.00">4.5.30</text>
</g>
<!-- 5035&#45;&gt;7052 -->
<g id="edge74" class="edge">
<title>5035&#45;&gt;7052</title>
<path fill="none" stroke="blue" d="M716.01,-818.65C779.88,-821.28 923.15,-829.93 963.87,-855.62 972.55,-861.1 979.74,-869.21 985.51,-877.75"/>
<polygon fill="blue" stroke="blue" points="982.59,-879.68 990.82,-886.35 988.55,-876 982.59,-879.68"/>
</g>
<!-- 5046&#45;&gt;5017 -->
<g id="edge40" class="edge">
<title>5046&#45;&gt;5017</title>
<path fill="none" stroke="blue" stroke-dasharray="5,2" d="M462.58,-749.7C484.22,-775.86 516.68,-814.63 545.87,-847.62 554.93,-857.86 564.9,-868.78 574.23,-878.84"/>
<polygon fill="blue" stroke="blue" points="571.83,-881.4 581.21,-886.33 576.96,-876.63 571.83,-881.4"/>
</g>
<!-- 5046&#45;&gt;5035 -->
<g id="edge44" class="edge">
<title>5046&#45;&gt;5035</title>
<path fill="none" stroke="blue" stroke-dasharray="5,2" d="M469.11,-744.55C472,-746.39 474.94,-748.11 477.87,-749.62 532.34,-777.71 601.05,-796.73 643.98,-806.88"/>
<polygon fill="blue" stroke="blue" points="643.26,-810.3 653.79,-809.15 644.84,-803.48 643.26,-810.3"/>
</g>
<!-- 5047&#45;&gt;5017 -->
<g id="edge42" class="edge">
<title>5047&#45;&gt;5017</title>
<path fill="none" stroke="blue" stroke-dasharray="5,2" d="M661.1,-749.93C655.44,-760.95 649.41,-773.64 644.87,-785.62 633.6,-815.35 624.48,-850.18 618.38,-876.45"/>
<polygon fill="blue" stroke="blue" points="614.91,-875.9 616.11,-886.42 621.74,-877.45 614.91,-875.9"/>
</g>
<!-- 5047&#45;&gt;5035 -->
<g id="edge57" class="edge">
<title>5047&#45;&gt;5035</title>
<path fill="none" stroke="blue" stroke-dasharray="5,2" d="M680.07,-749.73C680.66,-757.87 681.31,-766.8 681.94,-775.39"/>
<polygon fill="blue" stroke="blue" points="678.47,-775.9 682.68,-785.62 685.45,-775.39 678.47,-775.9"/>
</g>
<!-- 7009&#45;&gt;7047 -->
<g id="edge65" class="edge">
<title>7009&#45;&gt;7047</title>
<path fill="none" stroke="blue" stroke-dasharray="5,2" d="M911.33,-948.73C907.83,-957.13 903.97,-966.39 900.28,-975.23"/>
<polygon fill="blue" stroke="blue" points="896.99,-974.04 896.37,-984.62 903.45,-976.73 896.99,-974.04"/>
</g>
<!-- 7009&#45;&gt;7051 -->
<g id="edge63" class="edge">
<title>7009&#45;&gt;7051</title>
<path fill="none" stroke="blue" stroke-dasharray="5,2" d="M930.13,-948.83C934.25,-975.59 936.76,-1015.16 923.87,-1046.62 918.17,-1060.53 907.98,-1073.07 897.32,-1083.4"/>
<polygon fill="blue" stroke="blue" points="894.93,-1080.85 889.92,-1090.19 899.66,-1086.01 894.93,-1080.85"/>
</g>
<!-- 7018&#45;&gt;7047 -->
<g id="edge59" class="edge">
<title>7018&#45;&gt;7047</title>
<path fill="none" stroke="blue" stroke-dasharray="5,2" d="M856.42,-948.73C859.92,-957.13 863.77,-966.39 867.46,-975.23"/>
<polygon fill="blue" stroke="blue" points="864.29,-976.73 871.37,-984.62 870.75,-974.04 864.29,-976.73"/>
</g>
<!-- 7018&#45;&gt;7051 -->
<g id="edge64" class="edge">
<title>7018&#45;&gt;7051</title>
<path fill="none" stroke="blue" stroke-dasharray="5,2" d="M841.98,-948.73C840.8,-974.74 840.13,-1013.28 843.87,-1046.62 844.81,-1055.01 846.41,-1063.88 848.21,-1072.31"/>
<polygon fill="blue" stroke="blue" points="844.86,-1073.33 850.49,-1082.31 851.68,-1071.78 844.86,-1073.33"/>
</g>
<!-- 7045&#45;&gt;7047 -->
<g id="edge71" class="edge">
<title>7045&#45;&gt;7047</title>
<path fill="none" stroke="blue" stroke-dasharray="5,2" d="M1054.85,-948.71C1051.31,-951.59 1047.62,-954.31 1043.87,-956.62 1006.52,-979.72 958.61,-995.54 924.99,-1004.76"/>
<polygon fill="blue" stroke="blue" points="923.81,-1001.45 915.04,-1007.41 925.61,-1008.22 923.81,-1001.45"/>
</g>
<!-- 7045&#45;&gt;7051 -->
<g id="edge72" class="edge">
<title>7045&#45;&gt;7051</title>
<path fill="none" stroke="blue" stroke-dasharray="5,2" d="M1057.15,-948.76C1032.43,-975.82 994.02,-1015.9 956.87,-1046.62 938.67,-1061.68 917.01,-1076.54 898.69,-1088.34"/>
<polygon fill="blue" stroke="blue" points="896.55,-1085.56 890,-1093.88 900.31,-1091.46 896.55,-1085.56"/>
</g>
<!-- 7047&#45;&gt;7051 -->
<g id="edge67" class="edge">
<title>7047&#45;&gt;7051</title>
<path fill="none" stroke="blue" stroke-dasharray="5,2" d="M876.03,-1046.73C873.89,-1054.96 871.54,-1063.99 869.28,-1072.67"/>
<polygon fill="blue" stroke="blue" points="865.82,-1072.06 866.69,-1082.62 872.59,-1073.82 865.82,-1072.06"/>
</g>
<!-- 9023 -->
<g id="node30" class="node">
<title>9023</title>
<polygon fill="yellowgreen" stroke="yellowgreen" points="860.87,-1351.62 798.87,-1351.62 798.87,-1289.62 860.87,-1289.62 860.87,-1351.62"/>
<text text-anchor="middle" x="829.87" y="-1316.92" font-family="Times,serif" font-size="14.00">4.6.20</text>
</g>
<!-- 7047&#45;&gt;9023 -->
<g id="edge77" class="edge">
<title>7047&#45;&gt;9023</title>
<path fill="none" stroke="red" stroke-width="2" d="M892.25,-1046.94C894.93,-1058.07 897.55,-1070.83 898.87,-1082.62 907.42,-1158.77 907.88,-1183.55 876.87,-1253.62 872.73,-1262.98 867.15,-1272.35 861.28,-1280.97"/>
<polygon fill="red" stroke="red" stroke-width="2" points="858.29,-1279.13 855.35,-1289.31 864,-1283.18 858.29,-1279.13"/>
</g>
<!-- 7051&#45;&gt;9023 -->
<g id="edge76" class="edge">
<title>7051&#45;&gt;9023</title>
<path fill="none" stroke="red" stroke-width="2" d="M863.3,-1144.86C866.54,-1173.3 869.07,-1216.88 860.87,-1253.62 858.89,-1262.51 855.57,-1271.61 851.83,-1280.11"/>
<polygon fill="red" stroke="red" stroke-width="2" points="848.55,-1278.86 847.47,-1289.4 854.89,-1281.84 848.55,-1278.86"/>
</g>
<!-- 9033 -->
<g id="node31" class="node">
<title>9033</title>
<polygon fill="yellowgreen" stroke="yellowgreen" points="851.87,-1253.62 789.87,-1253.62 789.87,-1191.62 851.87,-1191.62 851.87,-1253.62"/>
<text text-anchor="middle" x="820.87" y="-1218.92" font-family="Times,serif" font-size="14.00">4.6.19</text>
</g>
<!-- 7051&#45;&gt;9033 -->
<g id="edge78" class="edge">
<title>7051&#45;&gt;9033</title>
<path fill="none" stroke="grey" stroke-width="2" d="M848.19,-1144.71C844.1,-1156.22 839.37,-1169.54 835.01,-1181.81"/>
<polygon fill="grey" stroke="grey" stroke-width="2" points="831.66,-1180.79 831.61,-1191.39 838.25,-1183.14 831.66,-1180.79"/>
</g>
<!-- 7052&#45;&gt;7047 -->
<g id="edge75" class="edge">
<title>7052&#45;&gt;7047</title>
<path fill="none" stroke="blue" stroke-dasharray="5,2" d="M972.79,-948.9C969.82,-951.56 966.82,-954.17 963.87,-956.62 951.1,-967.24 936.55,-978.12 923.39,-987.54"/>
<polygon fill="blue" stroke="blue" points="921.11,-984.87 914.98,-993.51 925.16,-990.58 921.11,-984.87"/>
</g>
<!-- 7052&#45;&gt;7051 -->
<g id="edge73" class="edge">
<title>7052&#45;&gt;7051</title>
<path fill="none" stroke="blue" stroke-dasharray="5,2" d="M990.68,-948.83C978.04,-975.95 957.31,-1016.06 932.87,-1046.62 922.73,-1059.31 910.01,-1071.6 898,-1082.08"/>
<polygon fill="blue" stroke="blue" points="895.58,-1079.54 890.24,-1088.68 900.12,-1084.87 895.58,-1079.54"/>
</g>
<!-- 10000 -->
<g id="node32" class="node">
<title>10000</title>
<polygon fill="yellowgreen" stroke="yellowgreen" points="856.37,-1451.62 803.37,-1451.62 803.37,-1398.62 856.37,-1398.62 856.37,-1451.62"/>
<text text-anchor="middle" x="829.87" y="-1421.42" font-family="Times,serif" font-size="14.00">4.7.1</text>
</g>
<!-- 9023&#45;&gt;10000 -->
<g id="edge80" class="edge">
<title>9023&#45;&gt;10000</title>
<path fill="none" stroke="red" stroke-width="2" d="M829.87,-1351.82C829.87,-1363.24 829.87,-1376.35 829.87,-1388.24"/>
<polygon fill="red" stroke="red" stroke-width="2" points="826.37,-1388.3 829.87,-1398.3 833.37,-1388.3 826.37,-1388.3"/>
</g>
<!-- 9033&#45;&gt;9023 -->
<g id="edge79" class="edge">
<title>9033&#45;&gt;9023</title>
<path fill="none" stroke="blue" stroke-dasharray="5,2" d="M823.69,-1253.73C824.46,-1261.87 825.29,-1270.8 826.1,-1279.39"/>
<polygon fill="blue" stroke="blue" points="822.64,-1279.99 827.06,-1289.62 829.61,-1279.33 822.64,-1279.99"/>
</g>
<!-- Key -->
<g id="node33" class="node">
<title>Key</title>
<text text-anchor="start" x="605.37" y="-104.92" font-family="Times,serif" font-weight="bold" font-size="14.00">Key</text>
<text text-anchor="start" x="540.87" y="-87.92" font-family="Times,serif" font-size="14.00">Direct Path</text>
<text text-anchor="start" x="674.87" y="-87.92" font-family="Times,serif" font-size="14.00" fill="red">⟶</text>
<text text-anchor="start" x="540.87" y="-71.92" font-family="Times,serif" font-size="14.00">Dead Path (if any)</text>
<text text-anchor="start" x="674.87" y="-71.92" font-family="Times,serif" font-size="14.00" fill="grey">⟶</text>
<text text-anchor="start" x="540.87" y="-55.92" font-family="Times,serif" font-size="14.00">Indirect Path</text>
<text text-anchor="start" x="670.87" y="-55.92" font-family="Times,serif" font-size="14.00" fill="blue">→ ⤏</text>
<polygon fill="none" stroke="black" stroke-dasharray="1,5" points="538.37,-50.62 538.37,-117.62 701.37,-117.62 701.37,-50.62 538.37,-50.62"/>
</g>
</g>
</svg>
