<?xml version="1.0" encoding="UTF-8" standalone="no"?>
<!DOCTYPE svg PUBLIC "-//W3C//DTD SVG 1.1//EN"
 "http://www.w3.org/Graphics/SVG/1.1/DTD/svg11.dtd">
<!-- Generated by graphviz version 2.40.1 (0)
 -->
<!-- Title: stable Pages: 1 -->
<svg width="1318pt" height="992pt"
 viewBox="0.00 0.00 1318.00 992.49" xmlns="http://www.w3.org/2000/svg" xmlns:xlink="http://www.w3.org/1999/xlink">
<g id="graph0" class="graph" transform="scale(1 1) rotate(0) translate(4 988.4913)">
<title>stable</title>
<polygon fill="#ffffff" stroke="transparent" points="-4,4 -4,-988.4913 1314,-988.4913 1314,4 -4,4"/>
<text text-anchor="middle" x="655" y="-969.2913" font-family="Times,serif" font-size="14.00" fill="#000000">stable&#45;4.3 (2020&#45;05&#45;12) [amd64]</text>
<!-- 0 -->
<g id="node1" class="node">
<title>0</title>
<ellipse fill="#d3d3d3" stroke="#d3d3d3" cx="547.5" cy="-545.4913" rx="40.0939" ry="18"/>
<text text-anchor="middle" x="547.5" y="-541.7913" font-family="Times,serif" font-size="14.00" fill="#000000">4.2.27</text>
</g>
<!-- 7 -->
<g id="node8" class="node">
<title>7</title>
<ellipse fill="#d3d3d3" stroke="#d3d3d3" cx="756.5" cy="-618.4913" rx="40.0939" ry="18"/>
<text text-anchor="middle" x="756.5" y="-614.7913" font-family="Times,serif" font-size="14.00" fill="#000000">4.2.28</text>
</g>
<!-- 0&#45;&gt;7 -->
<g id="edge16" class="edge">
<title>0&#45;&gt;7</title>
<path fill="none" stroke="#000000" d="M577.5953,-557.6191C596.4293,-565.077 621.2577,-574.6698 643.5,-582.4913 666.3045,-590.5105 691.9593,-598.7461 713.0534,-605.313"/>
<polygon fill="#000000" stroke="#000000" points="712.1152,-608.6863 722.703,-608.2999 714.1851,-601.9993 712.1152,-608.6863"/>
</g>
<!-- 16 -->
<g id="node17" class="node">
<title>16</title>
<ellipse fill="#d3d3d3" stroke="#d3d3d3" cx="476.5" cy="-718.4913" rx="40.0939" ry="18"/>
<text text-anchor="middle" x="476.5" y="-714.7913" font-family="Times,serif" font-size="14.00" fill="#000000">4.2.29</text>
</g>
<!-- 0&#45;&gt;16 -->
<g id="edge58" class="edge">
<title>0&#45;&gt;16</title>
<path fill="none" stroke="#000000" d="M516.7568,-557.2783C506.048,-562.9563 495.0775,-570.8862 488.5,-581.4913 467.9897,-614.5611 468.7315,-661.0532 471.9782,-690.4725"/>
<polygon fill="#000000" stroke="#000000" points="468.5176,-691.0046 473.253,-700.4823 475.4615,-690.1202 468.5176,-691.0046"/>
</g>
<!-- 18 -->
<g id="node19" class="node">
<title>18</title>
<polygon fill="#9acd32" stroke="#9acd32" points="639.5,-961.4913 577.5,-961.4913 577.5,-899.4913 639.5,-899.4913 639.5,-961.4913"/>
<text text-anchor="middle" x="608.5" y="-926.7913" font-family="Times,serif" font-size="14.00" fill="#000000">4.3.18</text>
</g>
<!-- 0&#45;&gt;18 -->
<g id="edge66" class="edge">
<title>0&#45;&gt;18</title>
<path fill="none" stroke="#0000ff" stroke-dasharray="5,2" d="M569.3076,-560.7789C600.2907,-583.993 655.7076,-631.4144 677.5,-687.4913 704.568,-757.1436 665.034,-841.7301 635.5671,-890.5124"/>
<polygon fill="#0000ff" stroke="#0000ff" points="632.4821,-888.8465 630.2005,-899.1927 638.4361,-892.5276 632.4821,-888.8465"/>
<text text-anchor="middle" x="715.5" y="-714.7913" font-family="Times,serif" font-size="14.00" fill="#000000">Indirect</text>
</g>
<!-- 1 -->
<g id="node2" class="node">
<title>1</title>
<polygon fill="#d3d3d3" stroke="#d3d3d3" points="53,-744.9913 0,-744.9913 0,-691.9913 53,-691.9913 53,-744.9913"/>
<text text-anchor="middle" x="26.5" y="-714.7913" font-family="Times,serif" font-size="14.00" fill="#000000">4.3.2</text>
</g>
<!-- 4 -->
<g id="node5" class="node">
<title>4</title>
<polygon fill="#d3d3d3" stroke="#d3d3d3" points="408.5,-862.4913 346.5,-862.4913 346.5,-800.4913 408.5,-800.4913 408.5,-862.4913"/>
<text text-anchor="middle" x="377.5" y="-827.7913" font-family="Times,serif" font-size="14.00" fill="#000000">4.3.13</text>
</g>
<!-- 1&#45;&gt;4 -->
<g id="edge29" class="edge">
<title>1&#45;&gt;4</title>
<path fill="none" stroke="#000000" d="M53.0898,-743.5402C56.1351,-745.743 59.2992,-747.7811 62.5,-749.4913 152.9628,-797.8258 273.4897,-818.8415 335.9788,-826.9798"/>
<polygon fill="#000000" stroke="#000000" points="335.8662,-830.4931 346.2243,-828.2658 336.738,-823.5476 335.8662,-830.4931"/>
</g>
<!-- 1&#45;&gt;18 -->
<g id="edge9" class="edge">
<title>1&#45;&gt;18</title>
<path fill="none" stroke="#000000" d="M40.6313,-745.1734C59.7269,-778.4013 97.0325,-834.2264 145.5,-862.4913 216.939,-904.1525 467.5613,-922.5561 567.1999,-928.346"/>
<polygon fill="#000000" stroke="#000000" points="567.2919,-931.8567 577.4742,-928.9292 567.6887,-924.868 567.2919,-931.8567"/>
</g>
<!-- 2 -->
<g id="node3" class="node">
<title>2</title>
<ellipse fill="#d3d3d3" stroke="#d3d3d3" cx="560.5" cy="-164" rx="40.0939" ry="18"/>
<text text-anchor="middle" x="560.5" y="-160.3" font-family="Times,serif" font-size="14.00" fill="#000000">4.2.19</text>
</g>
<!-- 2&#45;&gt;0 -->
<g id="edge14" class="edge">
<title>2&#45;&gt;0</title>
<path fill="none" stroke="#000000" d="M559.8817,-182.1435C557.7945,-243.3957 550.9979,-442.845 548.4639,-517.2046"/>
<polygon fill="#000000" stroke="#000000" points="544.9648,-517.1233 548.1221,-527.2367 551.9607,-517.3618 544.9648,-517.1233"/>
</g>
<!-- 5 -->
<g id="node6" class="node">
<title>5</title>
<ellipse fill="#d3d3d3" stroke="#d3d3d3" cx="368.5" cy="-237" rx="40.0939" ry="18"/>
<text text-anchor="middle" x="368.5" y="-233.3" font-family="Times,serif" font-size="14.00" fill="#000000">4.2.20</text>
</g>
<!-- 2&#45;&gt;5 -->
<g id="edge27" class="edge">
<title>2&#45;&gt;5</title>
<path fill="none" stroke="#000000" d="M529.6519,-175.7287C496.9017,-188.1806 444.9973,-207.9151 408.9799,-221.6092"/>
<polygon fill="#000000" stroke="#000000" points="407.3749,-218.4749 399.2716,-225.3004 409.8626,-225.018 407.3749,-218.4749"/>
</g>
<!-- 2&#45;&gt;7 -->
<g id="edge79" class="edge">
<title>2&#45;&gt;7</title>
<path fill="none" stroke="#000000" d="M566.6356,-181.8958C568.5656,-187.6586 570.6697,-194.0839 572.5,-200 612.1844,-328.2756 594.3098,-370.9705 655.5,-490.4913 675.9866,-530.5072 709.9247,-570.135 732.7405,-594.4562"/>
<polygon fill="#000000" stroke="#000000" points="730.2967,-596.9653 739.7262,-601.796 735.3672,-592.1394 730.2967,-596.9653"/>
</g>
<!-- 11 -->
<g id="node12" class="node">
<title>11</title>
<ellipse fill="#d3d3d3" stroke="#d3d3d3" cx="454.5" cy="-310" rx="40.0939" ry="18"/>
<text text-anchor="middle" x="454.5" y="-306.3" font-family="Times,serif" font-size="14.00" fill="#000000">4.2.21</text>
</g>
<!-- 2&#45;&gt;11 -->
<g id="edge33" class="edge">
<title>2&#45;&gt;11</title>
<path fill="none" stroke="#000000" d="M549.3931,-181.5715C535.242,-203.6486 509.7069,-242.4637 485.5,-274 482.6547,-277.7068 479.5504,-281.5362 476.4412,-285.2523"/>
<polygon fill="#000000" stroke="#000000" points="473.5587,-283.2379 469.7252,-293.1149 478.8814,-287.7843 473.5587,-283.2379"/>
</g>
<!-- 2&#45;&gt;16 -->
<g id="edge25" class="edge">
<title>2&#45;&gt;16</title>
<path fill="none" stroke="#000000" d="M521.9172,-169.2645C473.4604,-176.67 388.3291,-192.33 319.5,-219 185.7188,-270.8376 66.5,-276.0269 66.5,-419.5 66.5,-419.5 66.5,-419.5 66.5,-618.4913 66.5,-650.8626 88.9018,-656.3821 118.5,-669.4913 181.3906,-697.3459 362.0194,-666.4341 427.5,-687.4913 434.6155,-689.7795 441.7254,-693.3481 448.2345,-697.262"/>
<polygon fill="#000000" stroke="#000000" points="446.3844,-700.2337 456.6821,-702.7253 450.1858,-694.3558 446.3844,-700.2337"/>
</g>
<!-- 17 -->
<g id="node18" class="node">
<title>17</title>
<ellipse fill="#d3d3d3" stroke="#d3d3d3" cx="704.5" cy="-383" rx="40.0939" ry="18"/>
<text text-anchor="middle" x="704.5" y="-379.3" font-family="Times,serif" font-size="14.00" fill="#000000">4.2.25</text>
</g>
<!-- 2&#45;&gt;17 -->
<g id="edge49" class="edge">
<title>2&#45;&gt;17</title>
<path fill="none" stroke="#000000" d="M597.9653,-170.7216C616.2063,-175.8346 637.0483,-184.7131 650.5,-200 695.0784,-250.6601 666.2764,-283.2835 688.5,-347 689.5256,-349.9404 690.6925,-352.9736 691.918,-355.9737"/>
<polygon fill="#000000" stroke="#000000" points="688.7603,-357.4902 695.9311,-365.2896 695.1891,-354.7208 688.7603,-357.4902"/>
</g>
<!-- 21 -->
<g id="node22" class="node">
<title>21</title>
<polygon fill="#fa8072" stroke="#fa8072" points="779.3261,-469.8605 729.5,-482.4157 679.6739,-469.8605 698.7058,-449.5458 760.2942,-449.5458 779.3261,-469.8605"/>
<polygon fill="none" stroke="#fa8072" points="786.9352,-472.1049 729.5,-486.5775 672.0648,-472.1049 696.9822,-445.508 762.0178,-445.508 786.9352,-472.1049"/>
<polygon fill="none" stroke="#fa8072" points="794.5443,-474.3494 729.5,-490.7393 664.4557,-474.3494 695.2586,-441.4702 763.7414,-441.4702 794.5443,-474.3494"/>
<text text-anchor="middle" x="729.5" y="-460.5456" font-family="Times,serif" font-size="14.00" fill="#000000">4.2.26</text>
</g>
<!-- 2&#45;&gt;21 -->
<g id="edge35" class="edge">
<title>2&#45;&gt;21</title>
<path fill="none" stroke="#000000" d="M588.7996,-177.0675C610.4075,-189.2114 636.5,-209.5572 636.5,-237 636.5,-237 636.5,-237 636.5,-346.5 636.5,-372.152 641.0259,-379.8216 655.5,-401 664.1002,-413.5837 675.825,-425.1506 687.4055,-434.8553"/>
<polygon fill="#000000" stroke="#000000" points="685.3773,-437.7159 695.3596,-441.2661 689.77,-432.2657 685.3773,-437.7159"/>
</g>
<!-- 3 -->
<g id="node4" class="node">
<title>3</title>
<polygon fill="#d3d3d3" stroke="#d3d3d3" points="205,-744.9913 152,-744.9913 152,-691.9913 205,-691.9913 205,-744.9913"/>
<text text-anchor="middle" x="178.5" y="-714.7913" font-family="Times,serif" font-size="14.00" fill="#000000">4.3.9</text>
</g>
<!-- 3&#45;&gt;4 -->
<g id="edge68" class="edge">
<title>3&#45;&gt;4</title>
<path fill="none" stroke="#000000" d="M205.0612,-743.2603C207.8353,-745.4656 210.6753,-747.5825 213.5,-749.4913 253.1593,-776.2906 302.8083,-799.8974 337.03,-814.8165"/>
<polygon fill="#000000" stroke="#000000" points="335.6832,-818.0473 346.252,-818.7896 338.4529,-811.6185 335.6832,-818.0473"/>
</g>
<!-- 3&#45;&gt;18 -->
<g id="edge62" class="edge">
<title>3&#45;&gt;18</title>
<path fill="none" stroke="#000000" d="M187.8389,-745.1092C200.6684,-777.7401 226.8819,-832.4002 267.5,-862.4913 314.6764,-897.441 487.0344,-918.5383 567.1035,-926.6562"/>
<polygon fill="#000000" stroke="#000000" points="567.0132,-930.1644 577.3105,-927.6712 567.706,-923.1987 567.0132,-930.1644"/>
</g>
<!-- 4&#45;&gt;18 -->
<g id="edge53" class="edge">
<title>4&#45;&gt;18</title>
<path fill="none" stroke="#000000" d="M407.2471,-862.5343C415.2334,-869.554 424.2399,-876.4213 433.5,-881.4913 476.1234,-904.8281 530.8036,-917.8208 567.6046,-924.4689"/>
<polygon fill="#000000" stroke="#000000" points="567.035,-927.9223 577.4854,-926.1791 568.2288,-921.0248 567.035,-927.9223"/>
</g>
<!-- 5&#45;&gt;0 -->
<g id="edge75" class="edge">
<title>5&#45;&gt;0</title>
<path fill="none" stroke="#000000" d="M368.5235,-255.2691C369.0471,-273.9976 371.2782,-303.7341 379.5,-328 406.2735,-407.0193 417.9835,-428.2113 473.5,-490.4913 485.2955,-503.7238 500.7335,-515.8001 514.4554,-525.2443"/>
<polygon fill="#000000" stroke="#000000" points="512.9078,-528.4192 523.1693,-531.0561 516.7919,-522.5956 512.9078,-528.4192"/>
</g>
<!-- 5&#45;&gt;7 -->
<g id="edge18" class="edge">
<title>5&#45;&gt;7</title>
<path fill="none" stroke="#000000" d="M357.1039,-254.5021C337.1313,-287.4848 299.8876,-360.8447 321.5,-420 350.1273,-498.3559 370.2975,-521.7065 442.5,-563.4913 486.5906,-589.0072 629.6434,-606.2671 706.5298,-613.9502"/>
<polygon fill="#000000" stroke="#000000" points="706.6283,-617.4766 716.9225,-614.9707 707.3124,-610.5101 706.6283,-617.4766"/>
</g>
<!-- 5&#45;&gt;11 -->
<g id="edge22" class="edge">
<title>5&#45;&gt;11</title>
<path fill="none" stroke="#000000" d="M387.5862,-253.2011C399.3883,-263.2192 414.7147,-276.2287 427.721,-287.269"/>
<polygon fill="#000000" stroke="#000000" points="425.5784,-290.0412 435.4672,-293.8442 430.1084,-284.7045 425.5784,-290.0412"/>
</g>
<!-- 5&#45;&gt;16 -->
<g id="edge5" class="edge">
<title>5&#45;&gt;16</title>
<path fill="none" stroke="#000000" d="M339.7448,-249.725C271.3218,-280.9248 104.5,-362.8062 104.5,-419.5 104.5,-419.5 104.5,-419.5 104.5,-618.4913 104.5,-710.9848 299.233,-644.993 427.5,-687.4913 434.595,-689.8421 441.6964,-693.437 448.2036,-697.3567"/>
<polygon fill="#000000" stroke="#000000" points="446.3538,-700.3284 456.6523,-702.8165 450.1531,-694.4492 446.3538,-700.3284"/>
</g>
<!-- 5&#45;&gt;17 -->
<g id="edge21" class="edge">
<title>5&#45;&gt;17</title>
<path fill="none" stroke="#000000" d="M398.9314,-249.0122C426.3836,-259.9398 467.8103,-276.6575 503.5,-292 561.0032,-316.7198 626.9882,-346.957 667.2003,-365.5973"/>
<polygon fill="#000000" stroke="#000000" points="665.8129,-368.812 676.357,-369.848 668.7604,-362.4627 665.8129,-368.812"/>
</g>
<!-- 5&#45;&gt;21 -->
<g id="edge20" class="edge">
<title>5&#45;&gt;21</title>
<path fill="none" stroke="#000000" d="M371.8955,-255.1093C376.4631,-275.0896 386.3293,-307.168 405.5,-328 476.635,-405.2993 598.6162,-440.2482 670.8898,-454.8494"/>
<polygon fill="#000000" stroke="#000000" points="670.2617,-458.2928 680.7475,-456.777 671.6051,-451.4229 670.2617,-458.2928"/>
</g>
<!-- 6 -->
<g id="node7" class="node">
<title>6</title>
<polygon fill="#d3d3d3" stroke="#d3d3d3" points="347,-744.9913 294,-744.9913 294,-691.9913 347,-691.9913 347,-744.9913"/>
<text text-anchor="middle" x="320.5" y="-714.7913" font-family="Times,serif" font-size="14.00" fill="#000000">4.3.1</text>
</g>
<!-- 6&#45;&gt;4 -->
<g id="edge76" class="edge">
<title>6&#45;&gt;4</title>
<path fill="none" stroke="#000000" d="M339.3012,-745.1068C343.9189,-752.2069 348.6398,-759.9936 352.5,-767.4913 356.3043,-774.8804 359.8896,-782.988 363.0934,-790.8756"/>
<polygon fill="#000000" stroke="#000000" points="359.8901,-792.294 366.801,-800.3246 366.4064,-789.7371 359.8901,-792.294"/>
</g>
<!-- 6&#45;&gt;18 -->
<g id="edge1" class="edge">
<title>6&#45;&gt;18</title>
<path fill="none" stroke="#000000" d="M315.4382,-745.1632C311.0282,-777.0853 309.1589,-830.2579 337.5,-862.4913 367.5849,-896.708 499.4454,-917.3241 567.5124,-925.8752"/>
<polygon fill="#000000" stroke="#000000" points="567.1164,-929.3528 577.4683,-927.0969 567.9691,-922.4049 567.1164,-929.3528"/>
</g>
<!-- 7&#45;&gt;16 -->
<g id="edge13" class="edge">
<title>7&#45;&gt;16</title>
<path fill="none" stroke="#000000" d="M719.7778,-626.1779C673.2511,-636.649 591.2121,-657.5788 525.5,-687.4913 519.2212,-690.3494 512.7926,-693.8989 506.7444,-697.5647"/>
<polygon fill="#000000" stroke="#000000" points="504.8018,-694.6519 498.2168,-702.9518 508.5404,-700.5699 504.8018,-694.6519"/>
</g>
<!-- 7&#45;&gt;18 -->
<g id="edge56" class="edge">
<title>7&#45;&gt;18</title>
<path fill="none" stroke="#0000ff" stroke-dasharray="5,2" d="M759.8477,-636.5734C762.2393,-650.4473 765.2468,-670.1062 766.5,-687.4913 772.8864,-776.0836 779.0609,-816.5162 718.5,-881.4913 700.2472,-901.0745 672.7326,-913.3265 649.7885,-920.6816"/>
<polygon fill="#0000ff" stroke="#0000ff" points="648.5206,-917.4078 639.9477,-923.6331 650.5317,-924.1127 648.5206,-917.4078"/>
<text text-anchor="middle" x="798.5" y="-771.2913" font-family="Times,serif" font-size="14.00" fill="#000000">Indirect</text>
</g>
<!-- 8 -->
<g id="node9" class="node">
<title>8</title>
<ellipse fill="#d3d3d3" stroke="#d3d3d3" cx="532.5" cy="-91" rx="40.0939" ry="18"/>
<text text-anchor="middle" x="532.5" y="-87.3" font-family="Times,serif" font-size="14.00" fill="#000000">4.2.18</text>
</g>
<!-- 8&#45;&gt;0 -->
<g id="edge15" class="edge">
<title>8&#45;&gt;0</title>
<path fill="none" stroke="#000000" d="M501.6222,-102.5965C476.5271,-112.5883 440.6383,-128.1877 411.5,-146 366.9649,-173.2244 342.205,-171.9997 319.5,-219 312.5402,-233.407 316.1139,-239.3624 319.5,-255 343.8288,-367.3563 345.2168,-409.1963 426.5,-490.4913 438.4618,-502.4548 476.4176,-518.7575 506.6655,-530.5037"/>
<polygon fill="#000000" stroke="#000000" points="505.5824,-533.8368 516.1727,-534.146 508.0867,-527.3 505.5824,-533.8368"/>
</g>
<!-- 8&#45;&gt;2 -->
<g id="edge73" class="edge">
<title>8&#45;&gt;2</title>
<path fill="none" stroke="#000000" d="M539.4214,-109.0449C542.6086,-117.3547 546.4602,-127.3962 549.9943,-136.6103"/>
<polygon fill="#000000" stroke="#000000" points="546.8091,-138.0793 553.6583,-146.1626 553.3448,-135.5724 546.8091,-138.0793"/>
</g>
<!-- 8&#45;&gt;5 -->
<g id="edge23" class="edge">
<title>8&#45;&gt;5</title>
<path fill="none" stroke="#000000" d="M506.0792,-104.7739C495.231,-110.9482 482.8215,-118.7058 472.5,-127 440.2468,-152.9182 408.3302,-188.561 388.5349,-212.1647"/>
<polygon fill="#000000" stroke="#000000" points="385.7467,-210.0439 382.0578,-219.9758 391.1352,-214.5121 385.7467,-210.0439"/>
</g>
<!-- 8&#45;&gt;7 -->
<g id="edge67" class="edge">
<title>8&#45;&gt;7</title>
<path fill="none" stroke="#000000" d="M495.707,-98.3834C411.8745,-116.0548 211.0885,-163.4692 174.5,-219 129.3127,-287.5813 172.1513,-326.398 206.5,-401 251.299,-498.2991 284.4253,-525.2928 384.5,-563.4913 442.4513,-585.6113 619.3378,-605.1969 706.6608,-613.8228"/>
<polygon fill="#000000" stroke="#000000" points="706.5587,-617.3294 716.852,-614.8198 707.2403,-610.3627 706.5587,-617.3294"/>
</g>
<!-- 8&#45;&gt;11 -->
<g id="edge31" class="edge">
<title>8&#45;&gt;11</title>
<path fill="none" stroke="#000000" d="M525.5538,-108.7832C521.3956,-119.5286 516.0514,-133.5166 511.5,-146 494.1708,-193.5301 475.064,-249.2289 463.959,-281.9559"/>
<polygon fill="#000000" stroke="#000000" points="460.5399,-281.1406 460.647,-291.7349 467.1699,-283.3861 460.5399,-281.1406"/>
</g>
<!-- 8&#45;&gt;17 -->
<g id="edge11" class="edge">
<title>8&#45;&gt;17</title>
<path fill="none" stroke="#000000" d="M559.4323,-104.6394C595.2032,-124.3951 657.0576,-164.6432 684.5,-219 706.4292,-262.4366 708.0776,-320.321 706.6942,-354.4316"/>
<polygon fill="#000000" stroke="#000000" points="703.1884,-354.4532 706.1604,-364.6226 710.1788,-354.8195 703.1884,-354.4532"/>
</g>
<!-- 8&#45;&gt;21 -->
<g id="edge77" class="edge">
<title>8&#45;&gt;21</title>
<path fill="none" stroke="#000000" d="M572.2443,-94.2495C671.9021,-102.9287 924.5,-128.4354 924.5,-164 924.5,-164 924.5,-164 924.5,-346.5 924.5,-380.2155 837.9946,-421.2529 780.217,-444.9019"/>
<polygon fill="#000000" stroke="#000000" points="778.8145,-441.6936 770.8545,-448.6856 781.4374,-448.1836 778.8145,-441.6936"/>
</g>
<!-- 9 -->
<g id="node10" class="node">
<title>9</title>
<polygon fill="#d3d3d3" stroke="#d3d3d3" points="133.5,-749.4913 71.5,-749.4913 71.5,-687.4913 133.5,-687.4913 133.5,-749.4913"/>
<text text-anchor="middle" x="102.5" y="-714.7913" font-family="Times,serif" font-size="14.00" fill="#000000">4.3.10</text>
</g>
<!-- 9&#45;&gt;4 -->
<g id="edge40" class="edge">
<title>9&#45;&gt;4</title>
<path fill="none" stroke="#000000" d="M133.735,-744.1787C136.6219,-746.0946 139.5661,-747.8979 142.5,-749.4913 206.4889,-784.2427 288.0615,-808.7742 336.3421,-821.4825"/>
<polygon fill="#000000" stroke="#000000" points="335.5629,-824.8961 346.121,-824.0143 337.3175,-818.1196 335.5629,-824.8961"/>
</g>
<!-- 9&#45;&gt;18 -->
<g id="edge80" class="edge">
<title>9&#45;&gt;18</title>
<path fill="none" stroke="#000000" d="M117.457,-749.6526C135.1422,-782.9982 167.7873,-834.82 211.5,-862.4913 270.3941,-899.7728 478.3154,-920.2267 567.4427,-927.4528"/>
<polygon fill="#000000" stroke="#000000" points="567.208,-930.9451 577.4541,-928.2492 567.7631,-923.9672 567.208,-930.9451"/>
</g>
<!-- 10 -->
<g id="node11" class="node">
<title>10</title>
<polygon fill="#d3d3d3" stroke="#d3d3d3" points="276,-744.9913 223,-744.9913 223,-691.9913 276,-691.9913 276,-744.9913"/>
<text text-anchor="middle" x="249.5" y="-714.7913" font-family="Times,serif" font-size="14.00" fill="#000000">4.3.5</text>
</g>
<!-- 10&#45;&gt;4 -->
<g id="edge36" class="edge">
<title>10&#45;&gt;4</title>
<path fill="none" stroke="#000000" d="M276.3307,-743.77C279.0052,-745.821 281.7502,-747.7648 284.5,-749.4913 302.0462,-760.5079 311.0321,-754.9198 327.5,-767.4913 336.5098,-774.3693 344.7916,-783.2387 351.9141,-792.1706"/>
<polygon fill="#000000" stroke="#000000" points="349.2807,-794.49 358.1169,-800.3356 354.8546,-790.2555 349.2807,-794.49"/>
</g>
<!-- 10&#45;&gt;18 -->
<g id="edge54" class="edge">
<title>10&#45;&gt;18</title>
<path fill="none" stroke="#000000" d="M254.0812,-744.994C260.9401,-776.9964 276.8543,-830.4994 310.5,-862.4913 347.1539,-897.3435 494.4534,-917.9959 567.2951,-926.2711"/>
<polygon fill="#000000" stroke="#000000" points="567.1547,-929.7769 577.48,-927.4024 567.9275,-922.8197 567.1547,-929.7769"/>
</g>
<!-- 11&#45;&gt;0 -->
<g id="edge70" class="edge">
<title>11&#45;&gt;0</title>
<path fill="none" stroke="#000000" d="M456.0306,-328.1078C459.8232,-364.795 472.1431,-449.5026 508.5,-509.4913 511.3655,-514.2194 515.0302,-518.7088 518.962,-522.8115"/>
<polygon fill="#000000" stroke="#000000" points="516.567,-525.3641 526.2127,-529.7471 521.4056,-520.3056 516.567,-525.3641"/>
</g>
<!-- 11&#45;&gt;7 -->
<g id="edge2" class="edge">
<title>11&#45;&gt;7</title>
<path fill="none" stroke="#000000" d="M445.7928,-327.6401C430.6975,-360.8005 403.395,-434.1623 426.5,-490.4913 443.7937,-532.6525 458.5339,-541.5972 498.5,-563.4913 534.0528,-582.9677 643.8105,-601.8085 708.1432,-611.5791"/>
<polygon fill="#000000" stroke="#000000" points="707.651,-615.0443 718.0598,-613.068 708.6904,-608.1219 707.651,-615.0443"/>
</g>
<!-- 11&#45;&gt;16 -->
<g id="edge32" class="edge">
<title>11&#45;&gt;16</title>
<path fill="none" stroke="#000000" d="M416.4006,-316.4027C363.1923,-325.9212 270.0479,-344.8571 242.5,-365 186.2552,-406.1259 180.5,-439.3148 180.5,-508.9913 180.5,-508.9913 180.5,-508.9913 180.5,-618.4913 180.5,-718.6757 370.5676,-667.9563 427.5,-687.4913 434.2811,-689.8181 441.0816,-693.2495 447.3658,-696.9908"/>
<polygon fill="#000000" stroke="#000000" points="445.8306,-700.1634 456.1411,-702.6014 449.6013,-694.2658 445.8306,-700.1634"/>
</g>
<!-- 11&#45;&gt;17 -->
<g id="edge7" class="edge">
<title>11&#45;&gt;17</title>
<path fill="none" stroke="#000000" d="M486.3756,-321.2685C508.4638,-328.9183 538.619,-339.0489 565.5,-347 596.4468,-356.1537 631.6414,-365.2558 658.8731,-372.0176"/>
<polygon fill="#000000" stroke="#000000" points="658.3474,-375.4928 668.8946,-374.4897 660.024,-368.6965 658.3474,-375.4928"/>
</g>
<!-- 11&#45;&gt;18 -->
<g id="edge61" class="edge">
<title>11&#45;&gt;18</title>
<path fill="none" stroke="#000000" d="M493.3804,-314.7881C563.3563,-323.7931 707.5037,-344.2223 753.5,-365 847.8157,-407.6048 936.5,-405.4992 936.5,-508.9913 936.5,-508.9913 936.5,-508.9913 936.5,-831.4913 936.5,-890.7215 737.9942,-917.7107 649.8363,-926.7763"/>
<polygon fill="#000000" stroke="#000000" points="649.2555,-923.3168 639.6532,-927.794 649.9517,-930.2821 649.2555,-923.3168"/>
</g>
<!-- 11&#45;&gt;21 -->
<g id="edge63" class="edge">
<title>11&#45;&gt;21</title>
<path fill="none" stroke="#000000" d="M479.8784,-324.2346C526.3251,-350.2862 625.5857,-405.9608 683.9761,-438.7116"/>
<polygon fill="#000000" stroke="#000000" points="682.5482,-441.9236 692.9821,-443.763 685.9726,-435.8184 682.5482,-441.9236"/>
</g>
<!-- 12 -->
<g id="node13" class="node">
<title>12</title>
<ellipse fill="#d3d3d3" stroke="#d3d3d3" cx="822.5" cy="-310" rx="40.0939" ry="18"/>
<text text-anchor="middle" x="822.5" y="-306.3" font-family="Times,serif" font-size="14.00" fill="#000000">4.2.22</text>
</g>
<!-- 12&#45;&gt;0 -->
<g id="edge38" class="edge">
<title>12&#45;&gt;0</title>
<path fill="none" stroke="#000000" d="M810.8591,-327.6495C795.1614,-351.0175 767.5581,-390.4998 753.5,-401 716.1996,-428.8602 693.4699,-411.0595 655.5,-438 630.673,-455.6154 632.8927,-468.8341 611.5,-490.4913 600.3157,-501.8139 587.0989,-513.4309 575.5886,-523.0537"/>
<polygon fill="#000000" stroke="#000000" points="573.0488,-520.6116 567.5624,-529.6753 577.5035,-526.0113 573.0488,-520.6116"/>
</g>
<!-- 12&#45;&gt;7 -->
<g id="edge26" class="edge">
<title>12&#45;&gt;7</title>
<path fill="none" stroke="#000000" d="M826.8762,-327.9926C836.4491,-371.5601 855.1532,-484.9138 812.5,-563.4913 805.8314,-575.7765 795.5158,-587.0471 785.5465,-596.1437"/>
<polygon fill="#000000" stroke="#000000" points="782.9609,-593.7532 777.7019,-602.9507 787.5487,-599.0403 782.9609,-593.7532"/>
</g>
<!-- 12&#45;&gt;16 -->
<g id="edge6" class="edge">
<title>12&#45;&gt;16</title>
<path fill="none" stroke="#000000" d="M782.7997,-313.1663C668.6312,-323.1742 343.573,-358.2965 280.5,-438 260.7828,-462.9161 268.8132,-479.9447 280.5,-509.4913 313.9154,-593.9717 399.4078,-664.2851 445.666,-697.6486"/>
<polygon fill="#000000" stroke="#000000" points="443.6457,-700.5067 453.8254,-703.4434 447.6989,-694.7995 443.6457,-700.5067"/>
</g>
<!-- 12&#45;&gt;17 -->
<g id="edge64" class="edge">
<title>12&#45;&gt;17</title>
<path fill="none" stroke="#000000" d="M798.9045,-324.5972C781.174,-335.5661 756.6741,-350.7228 737.0765,-362.8468"/>
<polygon fill="#000000" stroke="#000000" points="735.1218,-359.9403 728.459,-368.1779 738.8046,-365.8932 735.1218,-359.9403"/>
</g>
<!-- 12&#45;&gt;18 -->
<g id="edge47" class="edge">
<title>12&#45;&gt;18</title>
<path fill="none" stroke="#000000" d="M860.9319,-315.7301C945.1464,-330.6871 1138.5,-379.1644 1138.5,-508.9913 1138.5,-508.9913 1138.5,-508.9913 1138.5,-831.4913 1138.5,-881.1183 774.7938,-916.4614 649.9661,-927.13"/>
<polygon fill="#000000" stroke="#000000" points="649.3449,-923.67 639.6752,-927.9997 649.9345,-930.6451 649.3449,-923.67"/>
</g>
<!-- 12&#45;&gt;21 -->
<g id="edge12" class="edge">
<title>12&#45;&gt;21</title>
<path fill="none" stroke="#000000" d="M817.6453,-328.2405C815.8894,-334.2742 813.774,-340.9819 811.5,-347 802.1517,-371.74 801.072,-378.9294 786.5,-401 778.9067,-412.5008 769.2838,-424.0133 760.117,-434.0036"/>
<polygon fill="#000000" stroke="#000000" points="757.537,-431.6381 753.237,-441.3211 762.6369,-436.433 757.537,-431.6381"/>
</g>
<!-- 13 -->
<g id="node14" class="node">
<title>13</title>
<polygon fill="#d3d3d3" stroke="#d3d3d3" points="668,-744.9913 615,-744.9913 615,-691.9913 668,-691.9913 668,-744.9913"/>
<text text-anchor="middle" x="641.5" y="-714.7913" font-family="Times,serif" font-size="14.00" fill="#000000">4.3.3</text>
</g>
<!-- 13&#45;&gt;4 -->
<g id="edge51" class="edge">
<title>13&#45;&gt;4</title>
<path fill="none" stroke="#000000" d="M614.7741,-743.2967C611.7553,-745.5469 608.6347,-747.6627 605.5,-749.4913 588.8928,-759.1789 479.7235,-796.8505 418.6683,-817.5958"/>
<polygon fill="#000000" stroke="#000000" points="417.2883,-814.3679 408.943,-820.8953 419.5374,-820.9968 417.2883,-814.3679"/>
</g>
<!-- 13&#45;&gt;18 -->
<g id="edge60" class="edge">
<title>13&#45;&gt;18</title>
<path fill="none" stroke="#000000" d="M637.3205,-745.3412C631.6646,-781.676 621.5215,-846.838 614.9018,-889.3645"/>
<polygon fill="#000000" stroke="#000000" points="611.4206,-888.9738 613.3407,-899.3932 618.3373,-890.0506 611.4206,-888.9738"/>
</g>
<!-- 14 -->
<g id="node15" class="node">
<title>14</title>
<polygon fill="#d3d3d3" stroke="#d3d3d3" points="418,-744.9913 365,-744.9913 365,-691.9913 418,-691.9913 418,-744.9913"/>
<text text-anchor="middle" x="391.5" y="-714.7913" font-family="Times,serif" font-size="14.00" fill="#000000">4.3.8</text>
</g>
<!-- 14&#45;&gt;4 -->
<g id="edge46" class="edge">
<title>14&#45;&gt;4</title>
<path fill="none" stroke="#000000" d="M388.1822,-745.2707C386.5266,-758.6337 384.4868,-775.0975 382.6349,-790.045"/>
<polygon fill="#000000" stroke="#000000" points="379.1461,-789.7397 381.3899,-800.0942 386.093,-790.6005 379.1461,-789.7397"/>
</g>
<!-- 14&#45;&gt;18 -->
<g id="edge37" class="edge">
<title>14&#45;&gt;18</title>
<path fill="none" stroke="#000000" d="M404.103,-745.1514C419.8804,-776.3338 449.3977,-828.0616 486.5,-862.4913 510.299,-884.576 542.5769,-902.1608 567.9539,-913.9113"/>
<polygon fill="#000000" stroke="#000000" points="566.7548,-917.2099 577.3099,-918.1264 569.6301,-910.8277 566.7548,-917.2099"/>
</g>
<!-- 15 -->
<g id="node16" class="node">
<title>15</title>
<ellipse fill="#d3d3d3" stroke="#d3d3d3" cx="674.5" cy="-18" rx="40.0939" ry="18"/>
<text text-anchor="middle" x="674.5" y="-14.3" font-family="Times,serif" font-size="14.00" fill="#000000">4.2.16</text>
</g>
<!-- 15&#45;&gt;0 -->
<g id="edge72" class="edge">
<title>15&#45;&gt;0</title>
<path fill="none" stroke="#000000" d="M634.3151,-19.8225C517.8757,-25.634 188.5,-46.0462 188.5,-91 188.5,-91 188.5,-91 188.5,-273.5 188.5,-401.1022 270.0478,-420.1333 376.5,-490.4913 413.9544,-515.2462 463.3619,-529.5525 499.4336,-537.3332"/>
<polygon fill="#000000" stroke="#000000" points="498.7316,-540.762 509.233,-539.358 500.1481,-533.9068 498.7316,-540.762"/>
</g>
<!-- 15&#45;&gt;2 -->
<g id="edge3" class="edge">
<title>15&#45;&gt;2</title>
<path fill="none" stroke="#000000" d="M661.1996,-35.0338C641.3135,-60.502 603.6924,-108.6834 580.4883,-138.401"/>
<polygon fill="#000000" stroke="#000000" points="577.4647,-136.5862 574.069,-146.6221 582.9821,-140.8943 577.4647,-136.5862"/>
</g>
<!-- 15&#45;&gt;5 -->
<g id="edge45" class="edge">
<title>15&#45;&gt;5</title>
<path fill="none" stroke="#000000" d="M634.732,-21.3241C567.7802,-27.264 438.2758,-40.3611 422.5,-54 377.299,-93.0782 368.9865,-167.9421 368.0197,-208.76"/>
<polygon fill="#000000" stroke="#000000" points="364.5192,-208.8016 367.9154,-218.8373 371.5188,-208.8741 364.5192,-208.8016"/>
</g>
<!-- 15&#45;&gt;7 -->
<g id="edge52" class="edge">
<title>15&#45;&gt;7</title>
<path fill="none" stroke="#000000" d="M715.0546,-19.3486C838.6923,-23.9937 1202.5,-41.8389 1202.5,-91 1202.5,-91 1202.5,-91 1202.5,-310 1202.5,-502.376 918.3603,-584.1873 803.6677,-609.3743"/>
<polygon fill="#000000" stroke="#000000" points="802.8012,-605.9805 793.7586,-611.5015 804.2705,-612.8245 802.8012,-605.9805"/>
</g>
<!-- 15&#45;&gt;8 -->
<g id="edge59" class="edge">
<title>15&#45;&gt;8</title>
<path fill="none" stroke="#000000" d="M647.7909,-31.7307C625.2794,-43.3035 592.8774,-59.9609 568.1528,-72.6715"/>
<polygon fill="#000000" stroke="#000000" points="566.3827,-69.6459 559.0893,-77.3308 569.5832,-75.8715 566.3827,-69.6459"/>
</g>
<!-- 15&#45;&gt;11 -->
<g id="edge78" class="edge">
<title>15&#45;&gt;11</title>
<path fill="none" stroke="#000000" d="M634.932,-21.898C567.2557,-29.6713 436.5,-49.9956 436.5,-91 436.5,-91 436.5,-91 436.5,-237 436.5,-252.2906 440.2688,-268.8726 444.3574,-282.3626"/>
<polygon fill="#000000" stroke="#000000" points="441.0708,-283.5738 447.4892,-292.0031 447.7283,-281.411 441.0708,-283.5738"/>
</g>
<!-- 15&#45;&gt;17 -->
<g id="edge4" class="edge">
<title>15&#45;&gt;17</title>
<path fill="none" stroke="#000000" d="M702.7996,-31.0675C724.4075,-43.2114 750.5,-63.5572 750.5,-91 750.5,-91 750.5,-91 750.5,-310 750.5,-328.2357 740.0983,-345.6354 729.1874,-358.8706"/>
<polygon fill="#000000" stroke="#000000" points="726.4088,-356.7297 722.4165,-366.5435 731.6575,-361.3613 726.4088,-356.7297"/>
</g>
<!-- 15&#45;&gt;21 -->
<g id="edge48" class="edge">
<title>15&#45;&gt;21</title>
<path fill="none" stroke="#000000" d="M714.7948,-19.6941C794.898,-24.1646 966.5,-39.7251 966.5,-91 966.5,-91 966.5,-91 966.5,-310 966.5,-357.9609 946.0482,-371.1607 908.5,-401 888.7876,-416.6653 828.8438,-436.1601 783.7132,-449.3332"/>
<polygon fill="#000000" stroke="#000000" points="782.676,-445.9896 774.0397,-452.1268 784.6183,-452.7148 782.676,-445.9896"/>
</g>
<!-- 16&#45;&gt;4 -->
<g id="edge34" class="edge">
<title>16&#45;&gt;4</title>
<path fill="none" stroke="#000000" d="M461.464,-735.6536C448.1887,-750.8061 428.3481,-773.4526 411.2864,-792.9271"/>
<polygon fill="#000000" stroke="#000000" points="408.6178,-790.6617 404.6606,-800.4898 413.883,-795.2745 408.6178,-790.6617"/>
</g>
<!-- 16&#45;&gt;18 -->
<g id="edge55" class="edge">
<title>16&#45;&gt;18</title>
<path fill="none" stroke="#0000ff" stroke-dasharray="5,2" d="M478.3181,-736.881C481.9434,-765.8787 492.224,-822.9856 519.5,-862.4913 532.1069,-880.7508 551.1579,-896.2428 568.4034,-907.8067"/>
<polygon fill="#0000ff" stroke="#0000ff" points="566.9128,-911.0101 577.2134,-913.4896 570.7072,-905.1277 566.9128,-911.0101"/>
<text text-anchor="middle" x="548.5" y="-827.7913" font-family="Times,serif" font-size="14.00" fill="#000000">Indirect</text>
</g>
<!-- 17&#45;&gt;0 -->
<g id="edge71" class="edge">
<title>17&#45;&gt;0</title>
<path fill="none" stroke="#000000" d="M675.1751,-395.501C662.8193,-401.5636 648.7314,-409.5825 637.5,-419 603.7302,-447.3159 576.382,-491.0651 561.0294,-518.9798"/>
<polygon fill="#000000" stroke="#000000" points="557.9431,-517.3291 556.2908,-527.7943 564.1087,-520.6436 557.9431,-517.3291"/>
</g>
<!-- 17&#45;&gt;7 -->
<g id="edge8" class="edge">
<title>17&#45;&gt;7</title>
<path fill="none" stroke="#000000" d="M739.4405,-392.3783C762.0467,-400.4592 789.74,-414.6146 803.5,-438 832.7921,-487.7824 798.4418,-555.8232 774.9197,-592.5058"/>
<polygon fill="#000000" stroke="#000000" points="771.8156,-590.8546 769.2181,-601.1261 777.654,-594.7163 771.8156,-590.8546"/>
</g>
<!-- 17&#45;&gt;16 -->
<g id="edge19" class="edge">
<title>17&#45;&gt;16</title>
<path fill="none" stroke="#000000" d="M669.5962,-392.0881C619.7737,-407.0951 529.7406,-442.2089 488.5,-508.4913 450.3144,-569.8636 457.5352,-597.6494 465.5,-669.4913 466.2566,-676.3154 467.5886,-683.5779 469.0704,-690.3633"/>
<polygon fill="#000000" stroke="#000000" points="465.7594,-691.572 471.4611,-700.5018 472.5725,-689.9654 465.7594,-691.572"/>
</g>
<!-- 17&#45;&gt;18 -->
<g id="edge28" class="edge">
<title>17&#45;&gt;18</title>
<path fill="none" stroke="#000000" d="M742.5758,-389.1815C824.9814,-404.9576 1012.5,-454.8275 1012.5,-581.9913 1012.5,-581.9913 1012.5,-581.9913 1012.5,-831.4913 1012.5,-905.6712 752.3105,-924.5491 649.5445,-929.1123"/>
<polygon fill="#000000" stroke="#000000" points="649.3744,-925.6163 639.5304,-929.5335 649.6686,-932.6101 649.3744,-925.6163"/>
</g>
<!-- 17&#45;&gt;21 -->
<g id="edge41" class="edge">
<title>17&#45;&gt;21</title>
<path fill="none" stroke="#000000" d="M710.0483,-401.031C712.8172,-410.0295 716.2534,-421.1966 719.4638,-431.6299"/>
<polygon fill="#000000" stroke="#000000" points="716.1573,-432.785 722.4435,-441.3134 722.8477,-430.7263 716.1573,-432.785"/>
</g>
<!-- 19 -->
<g id="node20" class="node">
<title>19</title>
<polygon fill="#d3d3d3" stroke="#d3d3d3" points="596.5,-749.4913 534.5,-749.4913 534.5,-687.4913 596.5,-687.4913 596.5,-749.4913"/>
<text text-anchor="middle" x="565.5" y="-714.7913" font-family="Times,serif" font-size="14.00" fill="#000000">4.3.12</text>
</g>
<!-- 19&#45;&gt;4 -->
<g id="edge74" class="edge">
<title>19&#45;&gt;4</title>
<path fill="none" stroke="#000000" d="M534.3919,-743.3275C531.4286,-745.4714 528.4345,-747.5576 525.5,-749.4913 490.2673,-772.7073 447.9778,-795.6865 417.6428,-811.3855"/>
<polygon fill="#000000" stroke="#000000" points="415.9274,-808.3319 408.6334,-816.0161 419.1274,-814.5577 415.9274,-808.3319"/>
</g>
<!-- 19&#45;&gt;18 -->
<g id="edge65" class="edge">
<title>19&#45;&gt;18</title>
<path fill="none" stroke="#000000" d="M571.8448,-749.7726C579.361,-786.8295 591.9051,-848.6747 600.1902,-889.5223"/>
<polygon fill="#000000" stroke="#000000" points="596.7812,-890.3223 602.1992,-899.427 603.6415,-888.9308 596.7812,-890.3223"/>
</g>
<!-- 20 -->
<g id="node21" class="node">
<title>20</title>
<ellipse fill="#d3d3d3" stroke="#d3d3d3" cx="1064.5" cy="-310" rx="40.0939" ry="18"/>
<text text-anchor="middle" x="1064.5" y="-306.3" font-family="Times,serif" font-size="14.00" fill="#000000">4.2.23</text>
</g>
<!-- 20&#45;&gt;0 -->
<g id="edge39" class="edge">
<title>20&#45;&gt;0</title>
<path fill="none" stroke="#000000" d="M1060.9397,-328.2729C1055.2771,-352.563 1041.9308,-395.2883 1014.5,-420 952.1738,-476.1479 702.5638,-521.1079 596.0564,-538.1306"/>
<polygon fill="#000000" stroke="#000000" points="595.2345,-534.7171 585.9047,-539.7376 596.329,-541.631 595.2345,-534.7171"/>
</g>
<!-- 20&#45;&gt;7 -->
<g id="edge43" class="edge">
<title>20&#45;&gt;7</title>
<path fill="none" stroke="#000000" d="M1065.78,-328.1112C1066.3651,-347.2395 1065.0689,-377.7836 1053.5,-401 1000.1155,-508.1313 865.878,-574.9176 797.6646,-603.051"/>
<polygon fill="#000000" stroke="#000000" points="796.0545,-599.9268 788.0969,-606.9216 798.6796,-606.4159 796.0545,-599.9268"/>
</g>
<!-- 20&#45;&gt;16 -->
<g id="edge50" class="edge">
<title>20&#45;&gt;16</title>
<path fill="none" stroke="#000000" d="M1075.2562,-327.5113C1077.9264,-333.4965 1079.9286,-340.3597 1079.5,-347 1073.1195,-445.8541 1095.0181,-491.9503 1026.5,-563.4913 954.9508,-638.1971 905.7365,-610.9394 805.5,-636.4913 774.857,-644.3027 554.9586,-675.9933 525.5,-687.4913 518.9475,-690.0488 512.3214,-693.5197 506.1501,-697.2149"/>
<polygon fill="#000000" stroke="#000000" points="504.0622,-694.3946 497.4954,-702.7089 507.8138,-700.3044 504.0622,-694.3946"/>
</g>
<!-- 20&#45;&gt;17 -->
<g id="edge69" class="edge">
<title>20&#45;&gt;17</title>
<path fill="none" stroke="#000000" d="M1027.6655,-317.4692C961.821,-330.821 824.0506,-358.7578 751.4975,-373.47"/>
<polygon fill="#000000" stroke="#000000" points="750.3874,-370.1237 741.2825,-375.5413 751.7786,-376.9841 750.3874,-370.1237"/>
</g>
<!-- 20&#45;&gt;18 -->
<g id="edge42" class="edge">
<title>20&#45;&gt;18</title>
<path fill="none" stroke="#000000" d="M1101.3048,-317.4322C1149.6575,-329.5904 1228.5,-358.7321 1228.5,-419.5 1228.5,-419.5 1228.5,-419.5 1228.5,-831.4913 1228.5,-890.2524 788.6147,-920.2627 649.8869,-928.266"/>
<polygon fill="#000000" stroke="#000000" points="649.456,-924.7848 639.6708,-928.8468 649.8534,-931.7735 649.456,-924.7848"/>
</g>
<!-- 20&#45;&gt;21 -->
<g id="edge24" class="edge">
<title>20&#45;&gt;21</title>
<path fill="none" stroke="#000000" d="M1046.1397,-326.3124C1022.6746,-346.4086 980.0942,-380.4094 938.5,-401 889.4872,-425.263 829.344,-442.2648 786.1795,-452.484"/>
<polygon fill="#000000" stroke="#000000" points="785.3656,-449.0798 776.415,-454.7489 786.9473,-455.8988 785.3656,-449.0798"/>
</g>
<!-- 21&#45;&gt;0 -->
<g id="edge44" class="edge">
<title>21&#45;&gt;0</title>
<path fill="none" stroke="#0000ff" stroke-width="2" d="M691.3468,-481.2774C660.1741,-495.193 616.34,-514.7608 585.2713,-528.63"/>
<polygon fill="#0000ff" stroke="#0000ff" stroke-width="2" points="583.772,-525.4663 576.0673,-532.7387 586.6255,-531.8584 583.772,-525.4663"/>
</g>
<!-- 21&#45;&gt;7 -->
<g id="edge30" class="edge">
<title>21&#45;&gt;7</title>
<path fill="none" stroke="#0000ff" stroke-width="2" d="M733.9585,-489.7162C738.7929,-517.3341 746.4902,-561.3073 751.5196,-590.0394"/>
<polygon fill="#0000ff" stroke="#0000ff" stroke-width="2" points="748.1332,-590.9925 753.3051,-600.2392 755.0283,-589.7855 748.1332,-590.9925"/>
</g>
<!-- 21&#45;&gt;16 -->
<g id="edge17" class="edge">
<title>21&#45;&gt;16</title>
<path fill="none" stroke="#0000ff" stroke-width="2" d="M708.3645,-485.4852C661.5812,-532.4988 549.5334,-645.0983 500.3419,-694.532"/>
<polygon fill="#0000ff" stroke="#0000ff" stroke-width="2" points="497.579,-692.3465 493.0063,-701.9038 502.5409,-697.2841 497.579,-692.3465"/>
</g>
<!-- 21&#45;&gt;18 -->
<g id="edge57" class="edge">
<title>21&#45;&gt;18</title>
<path fill="none" stroke="#ff0000" stroke-width="2" d="M764.1163,-482.027C806.4376,-506.5292 872.5,-554.9527 872.5,-618.4913 872.5,-618.4913 872.5,-618.4913 872.5,-831.4913 872.5,-878.5346 723.6758,-910.745 649.5072,-923.8765"/>
<polygon fill="#ff0000" stroke="#ff0000" stroke-width="2" points="648.8149,-920.4443 639.5605,-925.6024 650.0116,-927.3412 648.8149,-920.4443"/>
<text text-anchor="middle" x="895.5" y="-658.2913" font-family="Times,serif" font-size="14.00" fill="#000000">Direct</text>
</g>
<!-- 22 -->
<g id="node23" class="node">
<title>22</title>
<polygon fill="#d3d3d3" stroke="#d3d3d3" points="1310,-857.9913 1257,-857.9913 1257,-804.9913 1310,-804.9913 1310,-857.9913"/>
<text text-anchor="middle" x="1283.5" y="-827.7913" font-family="Times,serif" font-size="14.00" fill="#000000">4.3.0</text>
</g>
<!-- 22&#45;&gt;18 -->
<g id="edge10" class="edge">
<title>22&#45;&gt;18</title>
<path fill="none" stroke="#000000" d="M1268.0574,-857.9947C1261.3926,-867.0082 1252.753,-876.1462 1242.5,-881.4913 1190.1376,-908.7887 782.4497,-924.6843 649.9487,-929.1693"/>
<polygon fill="#000000" stroke="#000000" points="649.6792,-925.6762 639.8018,-929.5085 649.9132,-932.6723 649.6792,-925.6762"/>
</g>
</g>
</svg>
