<?xml version="1.0" encoding="UTF-8" standalone="no"?>
<!DOCTYPE svg PUBLIC "-//W3C//DTD SVG 1.1//EN"
 "http://www.w3.org/Graphics/SVG/1.1/DTD/svg11.dtd">
<!-- Generated by graphviz version 2.40.1 (0)
 -->
<!-- Title: stable Pages: 1 -->
<svg width="492pt" height="394pt"
 viewBox="0.00 0.00 491.82 394.00" xmlns="http://www.w3.org/2000/svg" xmlns:xlink="http://www.w3.org/1999/xlink">
<g id="graph0" class="graph" transform="scale(1 1) rotate(0) translate(4 390)">
<title>stable</title>
<polygon fill="#ffffff" stroke="transparent" points="-4,4 -4,-390 487.8246,-390 487.8246,4 -4,4"/>
<text text-anchor="middle" x="241.9123" y="-7.8" font-family="Times,serif" font-size="14.00" fill="#000000">stable&#45;4.3_amd64 (2020&#45;06&#45;03)</text>
<!-- 2 -->
<g id="node1" class="node">
<title>2</title>
<ellipse fill="#d3d3d3" stroke="#d3d3d3" cx="136.3246" cy="-172" rx="40.0939" ry="18"/>
<text text-anchor="middle" x="136.3246" y="-168.3" font-family="Times,serif" font-size="14.00" fill="#000000">4.2.29</text>
</g>
<!-- 5 -->
<g id="node2" class="node">
<title>5</title>
<polygon fill="#9acd32" stroke="#9acd32" points="216.3246,-288 154.3246,-288 154.3246,-226 216.3246,-226 216.3246,-288"/>
<text text-anchor="middle" x="185.3246" y="-253.3" font-family="Times,serif" font-size="14.00" fill="#000000">4.3.13</text>
</g>
<!-- 2&#45;&gt;5 -->
<g id="edge12" class="edge">
<title>2&#45;&gt;5</title>
<path fill="none" stroke="#0000ff" stroke-dasharray="5,2" d="M146.4775,-189.6121C151.0704,-197.5793 156.7019,-207.3482 162.2369,-216.9498"/>
<polygon fill="#0000ff" stroke="#0000ff" points="159.2339,-218.7486 167.2604,-225.6641 165.2984,-215.2526 159.2339,-218.7486"/>
</g>
<!-- 9 -->
<g id="node3" class="node">
<title>9</title>
<polygon fill="#9acd32" stroke="#9acd32" points="304.3246,-386 242.3246,-386 242.3246,-324 304.3246,-324 304.3246,-386"/>
<text text-anchor="middle" x="273.3246" y="-351.3" font-family="Times,serif" font-size="14.00" fill="#000000">4.3.21</text>
</g>
<!-- 2&#45;&gt;9 -->
<g id="edge14" class="edge">
<title>2&#45;&gt;9</title>
<path fill="none" stroke="#0000ff" stroke-dasharray="5,2" d="M166.7586,-184.1844C185.8785,-193.2069 209.7784,-207.1955 225.3246,-226 246.2514,-251.3127 258.5433,-286.6287 265.4403,-313.9106"/>
<polygon fill="#0000ff" stroke="#0000ff" points="262.106,-315.0178 267.8262,-323.9357 268.9158,-313.3971 262.106,-315.0178"/>
</g>
<!-- 12 -->
<g id="node4" class="node">
<title>12</title>
<polygon fill="#9acd32" stroke="#9acd32" points="89.3246,-386 27.3246,-386 27.3246,-324 89.3246,-324 89.3246,-386"/>
<text text-anchor="middle" x="58.3246" y="-351.3" font-family="Times,serif" font-size="14.00" fill="#000000">4.3.22</text>
</g>
<!-- 2&#45;&gt;12 -->
<g id="edge18" class="edge">
<title>2&#45;&gt;12</title>
<path fill="none" stroke="#0000ff" stroke-dasharray="5,2" d="M97.4269,-177.0562C67.7459,-183.18 28.7547,-196.6249 9.3246,-226 -5.8773,-248.9828 .7684,-261.8065 9.3246,-288 12.4793,-297.6574 17.6126,-307.077 23.3954,-315.6573"/>
<polygon fill="#0000ff" stroke="#0000ff" points="20.6671,-317.8583 29.3456,-323.9356 26.3511,-313.7727 20.6671,-317.8583"/>
</g>
<!-- 21 -->
<g id="node7" class="node">
<title>21</title>
<polygon fill="#9acd32" stroke="#9acd32" points="334.3246,-288 272.3246,-288 272.3246,-226 334.3246,-226 334.3246,-288"/>
<text text-anchor="middle" x="303.3246" y="-253.3" font-family="Times,serif" font-size="14.00" fill="#000000">4.3.18</text>
</g>
<!-- 2&#45;&gt;21 -->
<g id="edge16" class="edge">
<title>2&#45;&gt;21</title>
<path fill="none" stroke="#0000ff" stroke-dasharray="5,2" d="M167.1694,-183.7885C192.3048,-193.8323 228.4058,-209.266 258.3246,-226 259.8616,-226.8596 261.4122,-227.7576 262.9665,-228.6838"/>
<polygon fill="#0000ff" stroke="#0000ff" points="261.5028,-231.8962 271.838,-234.2271 265.2121,-225.9598 261.5028,-231.8962"/>
</g>
<!-- 25 -->
<g id="node9" class="node">
<title>25</title>
<polygon fill="#9acd32" stroke="#9acd32" points="211.3246,-386 149.3246,-386 149.3246,-324 211.3246,-324 211.3246,-386"/>
<text text-anchor="middle" x="180.3246" y="-351.3" font-family="Times,serif" font-size="14.00" fill="#000000">4.3.19</text>
</g>
<!-- 2&#45;&gt;25 -->
<g id="edge4" class="edge">
<title>2&#45;&gt;25</title>
<path fill="none" stroke="#0000ff" stroke-dasharray="5,2" d="M135.5101,-190.0815C134.9652,-213.2443 135.6871,-254.4103 145.3246,-288 147.9029,-296.9858 151.7562,-306.1586 155.9755,-314.7185"/>
<polygon fill="#0000ff" stroke="#0000ff" points="152.9396,-316.4668 160.6544,-323.7285 159.1519,-313.2407 152.9396,-316.4668"/>
</g>
<!-- 16 -->
<g id="node5" class="node">
<title>16</title>
<ellipse fill="#d3d3d3" stroke="#d3d3d3" cx="58.3246" cy="-257" rx="40.0939" ry="18"/>
<text text-anchor="middle" x="58.3246" y="-253.3" font-family="Times,serif" font-size="14.00" fill="#000000">4.2.33</text>
</g>
<!-- 16&#45;&gt;9 -->
<g id="edge6" class="edge">
<title>16&#45;&gt;9</title>
<path fill="none" stroke="#0000ff" stroke-dasharray="5,2" d="M89.6408,-268.4848C122.6898,-280.9425 176.0234,-302.0122 220.3246,-324 224.5767,-326.1104 228.9531,-328.4246 233.282,-330.8078"/>
<polygon fill="#0000ff" stroke="#0000ff" points="231.6168,-333.8869 242.0459,-335.7536 235.0572,-327.7907 231.6168,-333.8869"/>
</g>
<!-- 16&#45;&gt;12 -->
<g id="edge19" class="edge">
<title>16&#45;&gt;12</title>
<path fill="none" stroke="#0000ff" stroke-dasharray="5,2" d="M58.3246,-275.4331C58.3246,-286.3021 58.3246,-300.5122 58.3246,-313.9115"/>
<polygon fill="#0000ff" stroke="#0000ff" points="54.8247,-313.9312 58.3246,-323.9312 61.8247,-313.9312 54.8247,-313.9312"/>
</g>
<!-- 16&#45;&gt;25 -->
<g id="edge10" class="edge">
<title>16&#45;&gt;25</title>
<path fill="none" stroke="#0000ff" stroke-dasharray="5,2" d="M77.9261,-272.7454C94.8883,-286.3708 119.9368,-306.4918 141.0136,-323.4223"/>
<polygon fill="#0000ff" stroke="#0000ff" points="138.8838,-326.2008 148.8719,-329.7347 143.2676,-320.7435 138.8838,-326.2008"/>
</g>
<!-- 20 -->
<g id="node6" class="node">
<title>20</title>
<ellipse fill="#d3d3d3" stroke="#d3d3d3" cx="235.3246" cy="-172" rx="40.0939" ry="18"/>
<text text-anchor="middle" x="235.3246" y="-168.3" font-family="Times,serif" font-size="14.00" fill="#000000">4.2.27</text>
</g>
<!-- 20&#45;&gt;21 -->
<g id="edge3" class="edge">
<title>20&#45;&gt;21</title>
<path fill="none" stroke="#0000ff" stroke-dasharray="5,2" d="M249.0855,-189.201C255.6998,-197.469 263.9209,-207.7454 271.9461,-217.7768"/>
<polygon fill="#0000ff" stroke="#0000ff" points="269.3257,-220.1041 278.3057,-225.7263 274.7918,-215.7312 269.3257,-220.1041"/>
</g>
<!-- 21&#45;&gt;9 -->
<g id="edge17" class="edge">
<title>21&#45;&gt;9</title>
<path fill="none" stroke="#0000ff" stroke-dasharray="5,2" d="M293.8325,-288.0078C291.2881,-296.3193 288.4983,-305.4329 285.8182,-314.1876"/>
<polygon fill="#0000ff" stroke="#0000ff" points="282.4386,-313.271 282.8581,-323.8575 289.132,-315.3201 282.4386,-313.271"/>
</g>
<!-- 21&#45;&gt;12 -->
<g id="edge11" class="edge">
<title>21&#45;&gt;12</title>
<path fill="none" stroke="#0000ff" stroke-dasharray="5,2" d="M272.2952,-269.4118C228.2345,-287.036 147.4939,-319.3323 98.7829,-338.8167"/>
<polygon fill="#0000ff" stroke="#0000ff" points="97.473,-335.571 89.4881,-342.5346 100.0728,-342.0703 97.473,-335.571"/>
</g>
<!-- 21&#45;&gt;25 -->
<g id="edge7" class="edge">
<title>21&#45;&gt;25</title>
<path fill="none" stroke="#0000ff" stroke-dasharray="5,2" d="M272.2866,-281.7295C256.2628,-294.4965 236.5479,-310.2043 219.4871,-323.7974"/>
<polygon fill="#0000ff" stroke="#0000ff" points="216.9929,-321.3095 211.3528,-330.2784 221.3549,-326.7843 216.9929,-321.3095"/>
</g>
<!-- 23 -->
<g id="node8" class="node">
<title>23</title>
<polygon fill="#fa8072" stroke="#fa8072" points="285.0607,-76.0934 235.3246,-88.6005 185.5886,-76.0934 204.5861,-55.8564 266.0632,-55.8564 285.0607,-76.0934"/>
<polygon fill="none" stroke="#fa8072" points="292.656,-78.3292 235.3246,-92.7463 177.9933,-78.3292 202.8656,-51.8341 267.7837,-51.8341 292.656,-78.3292"/>
<text text-anchor="middle" x="235.3246" y="-66.8" font-family="Times,serif" font-size="14.00" fill="#000000">4.2.26</text>
</g>
<!-- 23&#45;&gt;2 -->
<g id="edge1" class="edge">
<title>23&#45;&gt;2</title>
<path fill="none" stroke="#0000ff" d="M217.6254,-88.6462C201.4687,-105.2109 177.4734,-129.8121 159.7358,-147.9977"/>
<polygon fill="#0000ff" stroke="#0000ff" points="157.035,-145.754 152.5582,-155.3565 162.0461,-150.6417 157.035,-145.754"/>
</g>
<!-- 23&#45;&gt;16 -->
<g id="edge2" class="edge">
<title>23&#45;&gt;16</title>
<path fill="none" stroke="#0000ff" d="M196.2686,-82.9349C162.6243,-95.6098 115.2052,-118.5023 87.3246,-154 70.4622,-175.4694 63.403,-206.2306 60.4488,-228.5415"/>
<polygon fill="#0000ff" stroke="#0000ff" points="56.9417,-228.4093 59.3033,-238.7375 63.8979,-229.1908 56.9417,-228.4093"/>
</g>
<!-- 23&#45;&gt;20 -->
<g id="edge15" class="edge">
<title>23&#45;&gt;20</title>
<path fill="none" stroke="#0000ff" d="M235.3246,-92.7746C235.3246,-107.6626 235.3246,-127.3847 235.3246,-143.4267"/>
<polygon fill="#0000ff" stroke="#0000ff" points="231.8247,-143.8401 235.3246,-153.8401 238.8247,-143.8401 231.8247,-143.8401"/>
</g>
<!-- 23&#45;&gt;21 -->
<g id="edge20" class="edge">
<title>23&#45;&gt;21</title>
<path fill="none" stroke="#ff0000" stroke-width="2" d="M249.0442,-89.4401C260.2142,-105.7667 275.5245,-130.3733 284.3246,-154 291.6413,-173.644 296.2213,-196.4828 299.0456,-215.6556"/>
<polygon fill="#ff0000" stroke="#ff0000" stroke-width="2" points="295.5824,-216.1638 300.4039,-225.598 302.518,-215.2162 295.5824,-216.1638"/>
</g>
<!-- 26 -->
<g id="node10" class="node">
<title>26</title>
<ellipse fill="#d3d3d3" stroke="#d3d3d3" cx="371.3246" cy="-172" rx="40.0939" ry="18"/>
<text text-anchor="middle" x="371.3246" y="-168.3" font-family="Times,serif" font-size="14.00" fill="#000000">4.2.28</text>
</g>
<!-- 23&#45;&gt;26 -->
<g id="edge9" class="edge">
<title>23&#45;&gt;26</title>
<path fill="none" stroke="#0000ff" d="M257.7823,-87.2607C280.9639,-104.5617 317.2144,-131.6162 342.4987,-150.4866"/>
<polygon fill="#0000ff" stroke="#0000ff" points="340.5108,-153.3702 350.6183,-156.5464 344.6976,-147.7603 340.5108,-153.3702"/>
</g>
<!-- 26&#45;&gt;9 -->
<g id="edge13" class="edge">
<title>26&#45;&gt;9</title>
<path fill="none" stroke="#0000ff" stroke-dasharray="5,2" d="M377.5614,-190.1777C384.6323,-214.1713 393.145,-256.9927 376.3246,-288 363.0934,-312.391 336.7153,-329.2933 313.9667,-340.0198"/>
<polygon fill="#0000ff" stroke="#0000ff" points="312.5194,-336.8329 304.8146,-344.1052 315.3728,-343.225 312.5194,-336.8329"/>
</g>
<!-- 26&#45;&gt;21 -->
<g id="edge5" class="edge">
<title>26&#45;&gt;21</title>
<path fill="none" stroke="#0000ff" stroke-dasharray="5,2" d="M357.5638,-189.201C350.9495,-197.469 342.7283,-207.7454 334.7032,-217.7768"/>
<polygon fill="#0000ff" stroke="#0000ff" points="331.8575,-215.7312 328.3436,-225.7263 337.3236,-220.1041 331.8575,-215.7312"/>
</g>
<!-- 26&#45;&gt;25 -->
<g id="edge8" class="edge">
<title>26&#45;&gt;25</title>
<path fill="none" stroke="#0000ff" stroke-dasharray="5,2" d="M372.0786,-190.1993C372.108,-215.4103 368.3444,-260.9093 343.3246,-288 308.4238,-325.7896 280.2362,-302.8947 233.3246,-324 228.9956,-325.9476 224.569,-328.1556 220.2097,-330.4746"/>
<polygon fill="#0000ff" stroke="#0000ff" points="218.4655,-327.4395 211.4089,-335.3424 221.8536,-333.565 218.4655,-327.4395"/>
</g>
<!-- Key -->
<g id="node11" class="node">
<title>Key</title>
<text text-anchor="start" x="382.3246" y="-83.3" font-family="Times,serif" font-weight="bold" font-size="14.00" fill="#000000">Key</text>
<text text-anchor="start" x="335.3246" y="-66.3" font-family="Times,serif" font-size="14.00" fill="#000000">Direct Path</text>
<text text-anchor="start" x="435.3246" y="-66.3" font-family="Times,serif" font-size="14.00" fill="#ff0000">⟶</text>
<text text-anchor="start" x="335.3246" y="-50.3" font-family="Times,serif" font-size="14.00" fill="#000000">Indirect Path</text>
<text text-anchor="start" x="431.3246" y="-50.3" font-family="Times,serif" font-size="14.00" fill="#0000ff">→ ⤏</text>
<polygon fill="none" stroke="#000000" stroke-dasharray="1,5" points="332.8246,-45 332.8246,-96 461.8246,-96 461.8246,-45 332.8246,-45"/>
</g>
</g>
</svg>
