<?xml version="1.0" encoding="UTF-8" standalone="no"?>
<!DOCTYPE svg PUBLIC "-//W3C//DTD SVG 1.1//EN"
 "http://www.w3.org/Graphics/SVG/1.1/DTD/svg11.dtd">
<!-- Generated by graphviz version 2.40.1 (0)
 -->
<!-- Title: stable Pages: 1 -->
<svg width="1014pt" height="741pt"
 viewBox="0.00 0.00 1014.30 741.00" xmlns="http://www.w3.org/2000/svg" xmlns:xlink="http://www.w3.org/1999/xlink">
<g id="graph0" class="graph" transform="scale(1 1) rotate(0) translate(4 737)">
<title>stable</title>
<polygon fill="#ffffff" stroke="transparent" points="-4,4 -4,-737 1010.2964,-737 1010.2964,4 -4,4"/>
<text text-anchor="middle" x="503.1482" y="-7.8" font-family="Times,serif" font-size="14.00" fill="#000000">stable&#45;4.4_amd64 (2020&#45;07&#45;08)</text>
<!-- 0 -->
<g id="node1" class="node">
<title>0</title>
<polygon fill="#9acd32" stroke="#9acd32" points="259.5,-457 206.5,-457 206.5,-404 259.5,-404 259.5,-457"/>
<text text-anchor="middle" x="233" y="-426.8" font-family="Times,serif" font-size="14.00" fill="#000000">4.4.6</text>
</g>
<!-- 1 -->
<g id="node2" class="node">
<title>1</title>
<polygon fill="#9acd32" stroke="#9acd32" points="562,-733 500,-733 500,-671 562,-671 562,-733"/>
<text text-anchor="middle" x="531" y="-698.3" font-family="Times,serif" font-size="14.00" fill="#000000">4.4.10</text>
</g>
<!-- 0&#45;&gt;1 -->
<g id="edge26" class="edge">
<title>0&#45;&gt;1</title>
<path fill="none" stroke="#0000ff" stroke-dasharray="5,2" d="M227.6995,-457.0437C224.2114,-482.0166 222.9904,-519.4403 240,-546 297.222,-635.3497 423.8267,-677.0472 489.5667,-693.2907"/>
<polygon fill="#0000ff" stroke="#0000ff" points="489.0354,-696.7622 499.5751,-695.6825 490.6625,-689.9539 489.0354,-696.7622"/>
</g>
<!-- 3 -->
<g id="node4" class="node">
<title>3</title>
<polygon fill="#9acd32" stroke="#9acd32" points="467.5,-546 414.5,-546 414.5,-493 467.5,-493 467.5,-546"/>
<text text-anchor="middle" x="441" y="-515.8" font-family="Times,serif" font-size="14.00" fill="#000000">4.4.8</text>
</g>
<!-- 0&#45;&gt;3 -->
<g id="edge27" class="edge">
<title>0&#45;&gt;3</title>
<path fill="none" stroke="#0000ff" stroke-dasharray="5,2" d="M259.7665,-441.953C296.741,-457.7738 363.5531,-486.3616 404.9091,-504.0573"/>
<polygon fill="#0000ff" stroke="#0000ff" points="403.7656,-507.3749 414.3362,-508.091 406.5193,-500.9392 403.7656,-507.3749"/>
</g>
<!-- 15 -->
<g id="node12" class="node">
<title>15</title>
<polygon fill="#9acd32" stroke="#9acd32" points="557.5,-635 504.5,-635 504.5,-582 557.5,-582 557.5,-635"/>
<text text-anchor="middle" x="531" y="-604.8" font-family="Times,serif" font-size="14.00" fill="#000000">4.4.9</text>
</g>
<!-- 0&#45;&gt;15 -->
<g id="edge18" class="edge">
<title>0&#45;&gt;15</title>
<path fill="none" stroke="#0000ff" stroke-dasharray="5,2" d="M235.3096,-457.4228C239.0278,-483.7769 248.7246,-523.1921 274,-546 306.2263,-575.0803 431.0256,-595.2962 494.086,-603.88"/>
<polygon fill="#0000ff" stroke="#0000ff" points="494.0058,-607.4002 504.3806,-605.2524 494.9309,-600.4616 494.0058,-607.4002"/>
</g>
<!-- 2 -->
<g id="node3" class="node">
<title>2</title>
<ellipse fill="#d3d3d3" stroke="#d3d3d3" cx="106" cy="-341.5" rx="40.0939" ry="18"/>
<text text-anchor="middle" x="106" y="-337.8" font-family="Times,serif" font-size="14.00" fill="#000000">4.3.23</text>
</g>
<!-- 2&#45;&gt;0 -->
<g id="edge43" class="edge">
<title>2&#45;&gt;0</title>
<path fill="none" stroke="#0000ff" stroke-dasharray="5,2" d="M127.8321,-356.7996C147.0753,-370.285 175.4589,-390.176 197.8906,-405.8957"/>
<polygon fill="#0000ff" stroke="#0000ff" points="195.9668,-408.8215 206.1648,-411.6942 199.9841,-403.089 195.9668,-408.8215"/>
</g>
<!-- 2&#45;&gt;1 -->
<g id="edge23" class="edge">
<title>2&#45;&gt;1</title>
<path fill="none" stroke="#0000ff" stroke-dasharray="5,2" d="M105.9512,-359.5235C106.514,-382.9624 109.6852,-424.7199 124,-457 165.2509,-550.0212 182.3316,-580.0865 268,-635 337.5018,-679.5507 435.061,-694.5034 489.7168,-699.5042"/>
<polygon fill="#0000ff" stroke="#0000ff" points="489.471,-702.9958 499.7307,-700.3523 490.0618,-696.0208 489.471,-702.9958"/>
</g>
<!-- 2&#45;&gt;3 -->
<g id="edge35" class="edge">
<title>2&#45;&gt;3</title>
<path fill="none" stroke="#0000ff" stroke-dasharray="5,2" d="M119.3521,-358.7367C144.0078,-390.5258 194.4194,-455.3199 197,-457 261.8331,-499.2105 353.5884,-512.9288 404.0917,-517.3763"/>
<polygon fill="#0000ff" stroke="#0000ff" points="403.9692,-520.8777 414.2179,-518.1916 404.531,-513.9003 403.9692,-520.8777"/>
</g>
<!-- 2&#45;&gt;15 -->
<g id="edge24" class="edge">
<title>2&#45;&gt;15</title>
<path fill="none" stroke="#0000ff" stroke-dasharray="5,2" d="M111.2357,-359.7382C118.5387,-383.4093 133.2601,-425.4174 154,-457 184.1931,-502.9778 191.9155,-519.2894 240,-546 283.4136,-570.116 425.6906,-593.2528 493.8932,-603.285"/>
<polygon fill="#0000ff" stroke="#0000ff" points="493.7771,-606.8049 504.1768,-604.7807 494.7847,-599.8778 493.7771,-606.8049"/>
</g>
<!-- 3&#45;&gt;1 -->
<g id="edge11" class="edge">
<title>3&#45;&gt;1</title>
<path fill="none" stroke="#0000ff" stroke-dasharray="5,2" d="M453.0222,-546.3098C463.6995,-569.8495 479.9066,-604.9296 495,-635 499.3964,-643.7589 504.2695,-653.0706 508.9734,-661.8783"/>
<polygon fill="#0000ff" stroke="#0000ff" points="505.9683,-663.6803 513.7869,-670.8302 512.1336,-660.3651 505.9683,-663.6803"/>
</g>
<!-- 3&#45;&gt;15 -->
<g id="edge47" class="edge">
<title>3&#45;&gt;15</title>
<path fill="none" stroke="#0000ff" stroke-dasharray="5,2" d="M467.5162,-545.7216C476.7716,-554.8742 487.2897,-565.2754 497.065,-574.9421"/>
<polygon fill="#0000ff" stroke="#0000ff" points="494.7908,-577.6155 504.3623,-582.1583 499.7129,-572.6382 494.7908,-577.6155"/>
</g>
<!-- 5 -->
<g id="node5" class="node">
<title>5</title>
<ellipse fill="#d3d3d3" stroke="#d3d3d3" cx="906" cy="-519.5" rx="40.0939" ry="18"/>
<text text-anchor="middle" x="906" y="-515.8" font-family="Times,serif" font-size="14.00" fill="#000000">4.3.26</text>
</g>
<!-- 5&#45;&gt;1 -->
<g id="edge39" class="edge">
<title>5&#45;&gt;1</title>
<path fill="none" stroke="#0000ff" stroke-dasharray="5,2" d="M902.808,-537.4558C897.2455,-563.2149 883.24,-610.2697 852,-635 808.9954,-669.0435 648.8715,-689.7967 572.2994,-697.9797"/>
<polygon fill="#0000ff" stroke="#0000ff" points="571.6512,-694.5283 562.0702,-699.051 572.3804,-701.4902 571.6512,-694.5283"/>
</g>
<!-- 5&#45;&gt;15 -->
<g id="edge42" class="edge">
<title>5&#45;&gt;15</title>
<path fill="none" stroke="#0000ff" stroke-dasharray="5,2" d="M870.3828,-527.9531C799.1126,-544.8679 639.6286,-582.7188 567.5754,-599.8194"/>
<polygon fill="#0000ff" stroke="#0000ff" points="566.5214,-596.4723 557.6,-602.1869 568.1379,-603.2831 566.5214,-596.4723"/>
</g>
<!-- 6 -->
<g id="node6" class="node">
<title>6</title>
<polygon fill="#9acd32" stroke="#9acd32" points="559.5,-368 506.5,-368 506.5,-315 559.5,-315 559.5,-368"/>
<text text-anchor="middle" x="533" y="-337.8" font-family="Times,serif" font-size="14.00" fill="#000000">4.4.5</text>
</g>
<!-- 6&#45;&gt;0 -->
<g id="edge8" class="edge">
<title>6&#45;&gt;0</title>
<path fill="none" stroke="#0000ff" stroke-dasharray="5,2" d="M506.377,-349.3982C452.449,-365.3968 330.2568,-401.6472 269.1743,-419.7683"/>
<polygon fill="#0000ff" stroke="#0000ff" points="268.1549,-416.4199 259.5633,-422.6195 270.1458,-423.1308 268.1549,-416.4199"/>
</g>
<!-- 6&#45;&gt;1 -->
<g id="edge5" class="edge">
<title>6&#45;&gt;1</title>
<path fill="none" stroke="#0000ff" stroke-dasharray="5,2" d="M559.9297,-344.1841C618.3719,-350.6225 753.776,-369.0639 781,-404 850.8951,-493.6953 757.3723,-561.0379 671,-635 641.7627,-660.0364 601.5619,-677.9939 571.7371,-688.977"/>
<polygon fill="#0000ff" stroke="#0000ff" points="570.2925,-685.7762 562.0512,-692.4344 572.6458,-692.3688 570.2925,-685.7762"/>
</g>
<!-- 6&#45;&gt;3 -->
<g id="edge19" class="edge">
<title>6&#45;&gt;3</title>
<path fill="none" stroke="#0000ff" stroke-dasharray="5,2" d="M519.2267,-368.1484C503.3275,-398.9099 477.1061,-449.6426 459.4531,-483.7972"/>
<polygon fill="#0000ff" stroke="#0000ff" points="456.1993,-482.4699 454.717,-492.9605 462.4179,-485.684 456.1993,-482.4699"/>
</g>
<!-- 6&#45;&gt;15 -->
<g id="edge29" class="edge">
<title>6&#45;&gt;15</title>
<path fill="none" stroke="#0000ff" stroke-dasharray="5,2" d="M532.8009,-368.0771C532.4424,-415.9333 531.6877,-516.6918 531.2783,-571.3471"/>
<polygon fill="#0000ff" stroke="#0000ff" points="527.7763,-571.6081 531.2012,-581.6341 534.7761,-571.6606 527.7763,-571.6081"/>
</g>
<!-- 8 -->
<g id="node7" class="node">
<title>8</title>
<ellipse fill="#d3d3d3" stroke="#d3d3d3" cx="596" cy="-252.5" rx="40.0939" ry="18"/>
<text text-anchor="middle" x="596" y="-248.8" font-family="Times,serif" font-size="14.00" fill="#000000">4.3.22</text>
</g>
<!-- 8&#45;&gt;0 -->
<g id="edge37" class="edge">
<title>8&#45;&gt;0</title>
<path fill="none" stroke="#0000ff" stroke-dasharray="5,2" d="M568.716,-265.8789C504.019,-297.6036 341.3109,-377.3889 268.8161,-412.9373"/>
<polygon fill="#0000ff" stroke="#0000ff" points="267.0517,-409.9042 259.6141,-417.4496 270.1337,-416.1893 267.0517,-409.9042"/>
</g>
<!-- 8&#45;&gt;1 -->
<g id="edge34" class="edge">
<title>8&#45;&gt;1</title>
<path fill="none" stroke="#0000ff" stroke-dasharray="5,2" d="M627.1526,-264.0726C675.82,-284.0626 768.2207,-330.1604 806,-404 816.2659,-424.0647 802.533,-535.8518 798,-546 757.576,-636.4993 636.5899,-677.6019 572.2667,-693.4867"/>
<polygon fill="#0000ff" stroke="#0000ff" points="571.3684,-690.1027 562.4507,-695.8233 572.9895,-696.9124 571.3684,-690.1027"/>
</g>
<!-- 8&#45;&gt;3 -->
<g id="edge7" class="edge">
<title>8&#45;&gt;3</title>
<path fill="none" stroke="#0000ff" stroke-dasharray="5,2" d="M593.8892,-270.8737C590.6786,-294.3276 583.2544,-335.7288 568,-368 545.5822,-415.4256 504.6632,-460.2243 475.3258,-488.6277"/>
<polygon fill="#0000ff" stroke="#0000ff" points="472.5833,-486.4065 467.7598,-495.8396 477.4131,-491.4734 472.5833,-486.4065"/>
</g>
<!-- 8&#45;&gt;6 -->
<g id="edge1" class="edge">
<title>8&#45;&gt;6</title>
<path fill="none" stroke="#0000ff" stroke-dasharray="5,2" d="M583.5532,-270.0835C576.211,-280.4559 566.6565,-293.9535 557.8334,-306.4179"/>
<polygon fill="#0000ff" stroke="#0000ff" points="554.799,-304.6467 551.8781,-314.831 560.5125,-308.6911 554.799,-304.6467"/>
</g>
<!-- 8&#45;&gt;15 -->
<g id="edge38" class="edge">
<title>8&#45;&gt;15</title>
<path fill="none" stroke="#0000ff" stroke-dasharray="5,2" d="M596.3371,-270.6102C596.5054,-293.4405 595.9498,-333.8348 591,-368 580.3368,-441.6013 556.7269,-525.4321 542.5098,-572.1389"/>
<polygon fill="#0000ff" stroke="#0000ff" points="539.1323,-571.215 539.5408,-581.8019 545.8236,-573.2709 539.1323,-571.215"/>
</g>
<!-- 10 -->
<g id="node8" class="node">
<title>10</title>
<ellipse fill="#d3d3d3" stroke="#d3d3d3" cx="966" cy="-608.5" rx="40.0939" ry="18"/>
<text text-anchor="middle" x="966" y="-604.8" font-family="Times,serif" font-size="14.00" fill="#000000">4.3.27</text>
</g>
<!-- 10&#45;&gt;1 -->
<g id="edge33" class="edge">
<title>10&#45;&gt;1</title>
<path fill="none" stroke="#0000ff" stroke-dasharray="5,2" d="M938.877,-621.895C928.4823,-626.5969 916.3841,-631.5588 905,-635 786.9833,-670.6739 641.9358,-689.9708 572.2359,-697.7886"/>
<polygon fill="#0000ff" stroke="#0000ff" points="571.6686,-694.3298 562.1113,-698.9025 572.4341,-701.2878 571.6686,-694.3298"/>
</g>
<!-- 11 -->
<g id="node9" class="node">
<title>11</title>
<polygon fill="#9acd32" stroke="#9acd32" points="338.5,-279 285.5,-279 285.5,-226 338.5,-226 338.5,-279"/>
<text text-anchor="middle" x="312" y="-248.8" font-family="Times,serif" font-size="14.00" fill="#000000">4.4.4</text>
</g>
<!-- 11&#45;&gt;0 -->
<g id="edge4" class="edge">
<title>11&#45;&gt;0</title>
<path fill="none" stroke="#0000ff" stroke-dasharray="5,2" d="M294.1014,-279.2056C287.2866,-290.0375 279.7784,-302.8426 274,-315 261.8262,-340.6128 251.2155,-370.8619 243.84,-393.9777"/>
<polygon fill="#0000ff" stroke="#0000ff" points="240.4334,-393.1441 240.7835,-403.7332 247.1133,-395.237 240.4334,-393.1441"/>
</g>
<!-- 11&#45;&gt;1 -->
<g id="edge12" class="edge">
<title>11&#45;&gt;1</title>
<path fill="none" stroke="#0000ff" stroke-dasharray="5,2" d="M285.1766,-255.3615C226.1851,-262.2176 87.961,-281.5476 57,-315 21.6632,-353.1803 38,-378.4767 38,-430.5 38,-430.5 38,-430.5 38,-519.5 38,-606.8435 117.0039,-599.9357 197,-635 296.2846,-678.519 424.6206,-694.0667 489.5077,-699.3878"/>
<polygon fill="#0000ff" stroke="#0000ff" points="489.4971,-702.8975 499.7386,-700.1844 490.0406,-695.9186 489.4971,-702.8975"/>
</g>
<!-- 11&#45;&gt;3 -->
<g id="edge10" class="edge">
<title>11&#45;&gt;3</title>
<path fill="none" stroke="#0000ff" stroke-dasharray="5,2" d="M317.7567,-279.1459C327.2822,-319.6494 348.8403,-398.2069 384,-457 390.4185,-467.7329 398.874,-478.241 407.301,-487.4863"/>
<polygon fill="#0000ff" stroke="#0000ff" points="404.9189,-490.0616 414.3277,-494.9325 410.01,-485.2574 404.9189,-490.0616"/>
</g>
<!-- 11&#45;&gt;6 -->
<g id="edge36" class="edge">
<title>11&#45;&gt;6</title>
<path fill="none" stroke="#0000ff" stroke-dasharray="5,2" d="M338.6578,-263.2355C378.1483,-279.1389 452.2971,-308.9997 496.7091,-326.8851"/>
<polygon fill="#0000ff" stroke="#0000ff" points="495.6641,-330.2374 506.2477,-330.7264 498.2791,-323.7442 495.6641,-330.2374"/>
</g>
<!-- 11&#45;&gt;15 -->
<g id="edge2" class="edge">
<title>11&#45;&gt;15</title>
<path fill="none" stroke="#0000ff" stroke-dasharray="5,2" d="M312.3724,-279.1598C314.6693,-336.5651 328.3863,-472.5976 405,-546 430.5181,-570.4485 467.454,-587.2291 494.7421,-597.1978"/>
<polygon fill="#0000ff" stroke="#0000ff" points="493.7252,-600.5502 504.3201,-600.5639 496.0462,-593.9462 493.7252,-600.5502"/>
</g>
<!-- 13 -->
<g id="node10" class="node">
<title>13</title>
<ellipse fill="#d3d3d3" stroke="#d3d3d3" cx="380" cy="-172" rx="40.0939" ry="18"/>
<text text-anchor="middle" x="380" y="-168.3" font-family="Times,serif" font-size="14.00" fill="#000000">4.3.21</text>
</g>
<!-- 13&#45;&gt;0 -->
<g id="edge13" class="edge">
<title>13&#45;&gt;0</title>
<path fill="none" stroke="#0000ff" stroke-dasharray="5,2" d="M346.0102,-181.8977C323.1783,-190.1974 294.0705,-204.2482 276,-226 236.2941,-273.795 230.47,-349.1704 230.9644,-393.8298"/>
<polygon fill="#0000ff" stroke="#0000ff" points="227.4679,-394.0293 231.1909,-403.9484 234.4662,-393.8725 227.4679,-394.0293"/>
</g>
<!-- 13&#45;&gt;1 -->
<g id="edge17" class="edge">
<title>13&#45;&gt;1</title>
<path fill="none" stroke="#0000ff" stroke-dasharray="5,2" d="M343.564,-180.0349C248.4531,-202.0555 0,-266.734 0,-341.5 0,-341.5 0,-341.5 0,-519.5 0,-577.7616 14.2467,-601.6228 62,-635 130.8549,-683.1262 388.4379,-697.1082 489.7242,-700.7937"/>
<polygon fill="#0000ff" stroke="#0000ff" points="489.7592,-704.2969 499.875,-701.1473 490.003,-697.3012 489.7592,-704.2969"/>
</g>
<!-- 13&#45;&gt;3 -->
<g id="edge6" class="edge">
<title>13&#45;&gt;3</title>
<path fill="none" stroke="#0000ff" stroke-dasharray="5,2" d="M381.7299,-190.1775C386.2552,-235.579 399.663,-357.4475 422,-457 423.9274,-465.5899 426.4328,-474.717 428.9886,-483.2657"/>
<polygon fill="#0000ff" stroke="#0000ff" points="425.6892,-484.4438 431.9803,-492.9686 432.3784,-482.3813 425.6892,-484.4438"/>
</g>
<!-- 13&#45;&gt;6 -->
<g id="edge16" class="edge">
<title>13&#45;&gt;6</title>
<path fill="none" stroke="#0000ff" stroke-dasharray="5,2" d="M395.2296,-188.872C419.9648,-216.2747 469.3632,-271.0005 501.7924,-306.9269"/>
<polygon fill="#0000ff" stroke="#0000ff" points="499.5425,-309.6578 508.8411,-314.7358 504.7387,-304.9674 499.5425,-309.6578"/>
</g>
<!-- 13&#45;&gt;11 -->
<g id="edge40" class="edge">
<title>13&#45;&gt;11</title>
<path fill="none" stroke="#0000ff" stroke-dasharray="5,2" d="M365.5789,-189.072C358.4421,-197.5208 349.5593,-208.0364 341.0914,-218.0609"/>
<polygon fill="#0000ff" stroke="#0000ff" points="338.2099,-216.0482 334.4306,-225.9461 343.5574,-220.5654 338.2099,-216.0482"/>
</g>
<!-- 13&#45;&gt;15 -->
<g id="edge22" class="edge">
<title>13&#45;&gt;15</title>
<path fill="none" stroke="#0000ff" stroke-dasharray="5,2" d="M386.7783,-189.9595C390.7043,-200.4459 395.7043,-213.9459 400,-226 445.1608,-352.726 496.1276,-504.0959 518.8934,-572.1772"/>
<polygon fill="#0000ff" stroke="#0000ff" points="515.683,-573.6136 522.1719,-581.9889 522.3222,-571.3951 515.683,-573.6136"/>
</g>
<!-- 14 -->
<g id="node11" class="node">
<title>14</title>
<ellipse fill="#d3d3d3" stroke="#d3d3d3" cx="732" cy="-430.5" rx="40.0939" ry="18"/>
<text text-anchor="middle" x="732" y="-426.8" font-family="Times,serif" font-size="14.00" fill="#000000">4.3.25</text>
</g>
<!-- 14&#45;&gt;1 -->
<g id="edge15" class="edge">
<title>14&#45;&gt;1</title>
<path fill="none" stroke="#0000ff" stroke-dasharray="5,2" d="M731.9249,-448.5669C731.0742,-472.4212 726.8984,-515.0183 709,-546 675.3213,-604.2972 611.8389,-651.8734 570.4987,-678.5718"/>
<polygon fill="#0000ff" stroke="#0000ff" points="568.5974,-675.6331 562.0319,-683.9484 572.3499,-681.5423 568.5974,-675.6331"/>
</g>
<!-- 14&#45;&gt;3 -->
<g id="edge31" class="edge">
<title>14&#45;&gt;3</title>
<path fill="none" stroke="#0000ff" stroke-dasharray="5,2" d="M698.6186,-440.7094C643.5526,-457.5509 534.1233,-491.019 477.2385,-508.4167"/>
<polygon fill="#0000ff" stroke="#0000ff" points="476.1227,-505.0979 467.5836,-511.3696 478.17,-511.7918 476.1227,-505.0979"/>
</g>
<!-- 14&#45;&gt;15 -->
<g id="edge45" class="edge">
<title>14&#45;&gt;15</title>
<path fill="none" stroke="#0000ff" stroke-dasharray="5,2" d="M727.9108,-448.5121C721.3816,-473.4853 706.3484,-518.6356 678,-546 647.213,-575.7182 600.135,-592.3177 567.589,-600.8163"/>
<polygon fill="#0000ff" stroke="#0000ff" points="566.4371,-597.4957 557.5719,-603.2973 568.12,-604.2904 566.4371,-597.4957"/>
</g>
<!-- 15&#45;&gt;1 -->
<g id="edge44" class="edge">
<title>15&#45;&gt;1</title>
<path fill="none" stroke="#0000ff" stroke-dasharray="5,2" d="M531,-635.0432C531,-643.0371 531,-652.007 531,-660.7199"/>
<polygon fill="#0000ff" stroke="#0000ff" points="527.5001,-660.7561 531,-670.7562 534.5001,-660.7562 527.5001,-660.7561"/>
</g>
<!-- 16 -->
<g id="node13" class="node">
<title>16</title>
<polygon fill="#fa8072" stroke="#fa8072" points="577.736,-76.0934 528,-88.6005 478.264,-76.0934 497.2614,-55.8564 558.7386,-55.8564 577.736,-76.0934"/>
<polygon fill="none" stroke="#fa8072" points="585.3314,-78.3292 528,-92.7463 470.6686,-78.3292 495.541,-51.8341 560.459,-51.8341 585.3314,-78.3292"/>
<text text-anchor="middle" x="528" y="-66.8" font-family="Times,serif" font-size="14.00" fill="#000000">4.3.19</text>
</g>
<!-- 16&#45;&gt;0 -->
<g id="edge9" class="edge">
<title>16&#45;&gt;0</title>
<path fill="none" stroke="#ff0000" stroke-width="2" d="M477.5258,-80.1322C408.7725,-96.3876 289.0789,-136.6716 244,-226 216.9932,-279.5166 220.788,-351.2419 226.5272,-393.9797"/>
<polygon fill="#ff0000" stroke="#ff0000" stroke-width="2" points="223.0716,-394.5392 227.9703,-403.9335 229.9992,-393.5347 223.0716,-394.5392"/>
</g>
<!-- 16&#45;&gt;2 -->
<g id="edge28" class="edge">
<title>16&#45;&gt;2</title>
<path fill="none" stroke="#0000ff" d="M472.6478,-76.1785C381.3082,-86.6408 204.6553,-111.8323 160,-154 115.573,-195.9521 106.9438,-271.8741 105.7223,-313.0664"/>
<polygon fill="#0000ff" stroke="#0000ff" points="102.2201,-313.1711 105.552,-323.2284 109.2191,-313.2884 102.2201,-313.1711"/>
</g>
<!-- 16&#45;&gt;3 -->
<g id="edge32" class="edge">
<title>16&#45;&gt;3</title>
<path fill="none" stroke="#ff0000" stroke-width="2" d="M523.8623,-91.8541C510.0734,-163.0177 465.5743,-392.674 448.1196,-482.7562"/>
<polygon fill="#ff0000" stroke="#ff0000" stroke-width="2" points="444.6434,-482.2981 446.1771,-492.7813 451.5155,-483.6298 444.6434,-482.2981"/>
</g>
<!-- 16&#45;&gt;5 -->
<g id="edge21" class="edge">
<title>16&#45;&gt;5</title>
<path fill="none" stroke="#0000ff" d="M548.3356,-87.6523C560.8739,-97.5684 577.6379,-109.6875 594,-118 728.6255,-186.3944 906,-101.4973 906,-252.5 906,-252.5 906,-252.5 906,-341.5 906,-394.2025 906,-455.6824 906,-490.8556"/>
<polygon fill="#0000ff" stroke="#0000ff" points="902.5001,-491.3066 906,-501.3066 909.5001,-491.3067 902.5001,-491.3066"/>
</g>
<!-- 16&#45;&gt;6 -->
<g id="edge20" class="edge">
<title>16&#45;&gt;6</title>
<path fill="none" stroke="#ff0000" stroke-width="2" d="M528.4092,-92.6771C529.2677,-139.2079 531.2646,-247.4394 532.3193,-304.6056"/>
<polygon fill="#ff0000" stroke="#ff0000" stroke-width="2" points="528.8208,-304.7254 532.5048,-314.6591 535.8196,-304.5962 528.8208,-304.7254"/>
</g>
<!-- 16&#45;&gt;8 -->
<g id="edge25" class="edge">
<title>16&#45;&gt;8</title>
<path fill="none" stroke="#0000ff" d="M535.6683,-91.0239C547.9234,-123.8243 571.9386,-188.1003 585.6859,-224.8947"/>
<polygon fill="#0000ff" stroke="#0000ff" points="582.4942,-226.3524 589.2728,-234.4949 589.0514,-223.9024 582.4942,-226.3524"/>
</g>
<!-- 16&#45;&gt;10 -->
<g id="edge14" class="edge">
<title>16&#45;&gt;10</title>
<path fill="none" stroke="#0000ff" d="M546.9913,-88.0367C559.4298,-98.488 576.5629,-111.0368 594,-118 760.3804,-184.441 974,-73.3441 974,-252.5 974,-252.5 974,-252.5 974,-430.5 974,-483.4841 970.4188,-545.2502 968.0485,-580.3285"/>
<polygon fill="#0000ff" stroke="#0000ff" points="964.556,-580.1009 967.3571,-590.3187 971.5393,-580.5843 964.556,-580.1009"/>
</g>
<!-- 16&#45;&gt;11 -->
<g id="edge3" class="edge">
<title>16&#45;&gt;11</title>
<path fill="none" stroke="#ff0000" stroke-width="2" d="M473.5683,-79.1102C428.4798,-89.1773 366.2798,-110.3925 331,-154 317.1012,-171.1796 312.3125,-195.5265 311.0175,-215.7158"/>
<polygon fill="#ff0000" stroke="#ff0000" stroke-width="2" points="307.5154,-215.7076 310.6291,-225.8345 314.5102,-215.9762 307.5154,-215.7076"/>
</g>
<!-- 16&#45;&gt;13 -->
<g id="edge41" class="edge">
<title>16&#45;&gt;13</title>
<path fill="none" stroke="#0000ff" d="M504.2212,-86.8077C478.8576,-104.2024 438.59,-131.8184 410.8123,-150.8686"/>
<polygon fill="#0000ff" stroke="#0000ff" points="408.5346,-148.1866 402.2672,-156.7289 412.4937,-153.9595 408.5346,-148.1866"/>
</g>
<!-- 16&#45;&gt;14 -->
<g id="edge30" class="edge">
<title>16&#45;&gt;14</title>
<path fill="none" stroke="#0000ff" d="M549.201,-87.5824C561.768,-97.2349 578.268,-109.1099 594,-118 629.3619,-137.9828 652.4794,-122.4013 678,-154 737.3697,-227.5093 737.8855,-347.5369 734.5648,-402.0094"/>
<polygon fill="#0000ff" stroke="#0000ff" points="731.0515,-402.0769 733.8418,-412.2977 738.0343,-402.5677 731.0515,-402.0769"/>
</g>
<!-- 16&#45;&gt;15 -->
<g id="edge46" class="edge">
<title>16&#45;&gt;15</title>
<path fill="none" stroke="#ff0000" stroke-width="2" d="M552.001,-86.7332C591.0439,-115.2883 664,-178.5416 664,-252.5 664,-252.5 664,-252.5 664,-430.5 664,-496.2269 605.0867,-553.3111 565.6796,-584.1426"/>
<polygon fill="#ff0000" stroke="#ff0000" stroke-width="2" points="563.418,-581.4658 557.5949,-590.3169 567.6667,-587.0291 563.418,-581.4658"/>
</g>
<!-- Key -->
<g id="node14" class="node">
<title>Key</title>
<text text-anchor="start" x="674" y="-83.3" font-family="Times,serif" font-weight="bold" font-size="14.00" fill="#000000">Key</text>
<text text-anchor="start" x="627" y="-66.3" font-family="Times,serif" font-size="14.00" fill="#000000">Direct Path</text>
<text text-anchor="start" x="726" y="-66.3" font-family="Times,serif" font-size="14.00" fill="#ff0000">⟶</text>
<text text-anchor="start" x="627" y="-50.3" font-family="Times,serif" font-size="14.00" fill="#000000">Indirect Path</text>
<text text-anchor="start" x="722" y="-50.3" font-family="Times,serif" font-size="14.00" fill="#0000ff">→ ⤏</text>
<polygon fill="none" stroke="#000000" stroke-dasharray="1,5" points="625,-45 625,-96 753,-96 753,-45 625,-45"/>
</g>
</g>
</svg>
