<?xml version="1.0" encoding="UTF-8" standalone="no"?>
<!DOCTYPE svg PUBLIC "-//W3C//DTD SVG 1.1//EN"
 "http://www.w3.org/Graphics/SVG/1.1/DTD/svg11.dtd">
<!-- Generated by graphviz version 2.40.1 (0)
 -->
<!-- Title: stable Pages: 1 -->
<svg width="1713pt" height="1119pt"
 viewBox="0.00 0.00 1712.50 1119.49" xmlns="http://www.w3.org/2000/svg" xmlns:xlink="http://www.w3.org/1999/xlink">
<g id="graph0" class="graph" transform="scale(1 1) rotate(0) translate(4 1115.4913)">
<title>stable</title>
<polygon fill="#ffffff" stroke="transparent" points="-4,4 -4,-1115.4913 1708.5,-1115.4913 1708.5,4 -4,4"/>
<text text-anchor="middle" x="852.25" y="-1096.2913" font-family="Times,serif" font-size="14.00" fill="#000000">stable&#45;4.3 (2020&#45;05&#45;18) [amd64]</text>
<!-- 0 -->
<g id="node1" class="node">
<title>0</title>
<polygon fill="#d3d3d3" stroke="#d3d3d3" points="329.5,-749.4913 267.5,-749.4913 267.5,-687.4913 329.5,-687.4913 329.5,-749.4913"/>
<text text-anchor="middle" x="298.5" y="-714.7913" font-family="Times,serif" font-size="14.00" fill="#000000">4.3.10</text>
</g>
<!-- 5 -->
<g id="node6" class="node">
<title>5</title>
<polygon fill="#9acd32" stroke="#9acd32" points="632.5,-975.4913 570.5,-975.4913 570.5,-913.4913 632.5,-913.4913 632.5,-975.4913"/>
<text text-anchor="middle" x="601.5" y="-940.7913" font-family="Times,serif" font-size="14.00" fill="#000000">4.3.18</text>
</g>
<!-- 0&#45;&gt;5 -->
<g id="edge56" class="edge">
<title>0&#45;&gt;5</title>
<path fill="none" stroke="#000000" d="M292.6132,-749.73C288.422,-782.3949 287.8062,-832.9356 316.5,-862.4913 334.6709,-881.2079 407.277,-873.836 432.5,-880.4913 477.5043,-892.366 527.1037,-911.9711 560.8583,-926.3589"/>
<polygon fill="#000000" stroke="#000000" points="559.8024,-929.7149 570.3714,-930.4547 562.5706,-923.2854 559.8024,-929.7149"/>
</g>
<!-- 11 -->
<g id="node12" class="node">
<title>11</title>
<polygon fill="#9acd32" stroke="#9acd32" points="424.5,-1088.4913 362.5,-1088.4913 362.5,-1026.4913 424.5,-1026.4913 424.5,-1088.4913"/>
<text text-anchor="middle" x="393.5" y="-1053.7913" font-family="Times,serif" font-size="14.00" fill="#000000">4.3.19</text>
</g>
<!-- 0&#45;&gt;11 -->
<g id="edge10" class="edge">
<title>0&#45;&gt;11</title>
<path fill="none" stroke="#000000" d="M295.8277,-749.7879C292.8495,-799.8771 292.2946,-900.0787 326.5,-975.4913 333.6062,-991.1583 344.4697,-1006.3283 355.3941,-1019.2712"/>
<polygon fill="#000000" stroke="#000000" points="352.9553,-1021.7994 362.1709,-1027.0267 358.2265,-1017.1934 352.9553,-1021.7994"/>
</g>
<!-- 23 -->
<g id="node24" class="node">
<title>23</title>
<polygon fill="#9acd32" stroke="#9acd32" points="387.5,-862.4913 325.5,-862.4913 325.5,-800.4913 387.5,-800.4913 387.5,-862.4913"/>
<text text-anchor="middle" x="356.5" y="-827.7913" font-family="Times,serif" font-size="14.00" fill="#000000">4.3.13</text>
</g>
<!-- 0&#45;&gt;23 -->
<g id="edge69" class="edge">
<title>0&#45;&gt;23</title>
<path fill="none" stroke="#000000" d="M329.5477,-748.3021C334.4675,-754.2658 339.0589,-760.7756 342.5,-767.4913 346.1469,-774.6086 348.8467,-782.6442 350.8444,-790.5568"/>
<polygon fill="#000000" stroke="#000000" points="347.4507,-791.4209 353.0179,-800.4352 354.2872,-789.9167 347.4507,-791.4209"/>
</g>
<!-- 1 -->
<g id="node2" class="node">
<title>1</title>
<ellipse fill="#d3d3d3" stroke="#d3d3d3" cx="842.5" cy="-545.4913" rx="40.0939" ry="18"/>
<text text-anchor="middle" x="842.5" y="-541.7913" font-family="Times,serif" font-size="14.00" fill="#000000">4.2.27</text>
</g>
<!-- 1&#45;&gt;5 -->
<g id="edge16" class="edge">
<title>1&#45;&gt;5</title>
<path fill="none" stroke="#0000ff" stroke-dasharray="5,2" d="M806.048,-553.2028C780.6574,-560.6715 748.5705,-574.7819 732.5,-600.4913 663.001,-711.6749 813.3528,-794.6915 729.5,-895.4913 704.9365,-925.0192 679.327,-899.9353 642.3178,-912.1582"/>
<polygon fill="#0000ff" stroke="#0000ff" points="640.5776,-909.0891 632.6568,-916.1255 643.2367,-915.5644 640.5776,-909.0891"/>
<text text-anchor="middle" x="763.5" y="-714.7913" font-family="Times,serif" font-size="14.00" fill="#000000">Indirect</text>
</g>
<!-- 18 -->
<g id="node19" class="node">
<title>18</title>
<ellipse fill="#d3d3d3" stroke="#d3d3d3" cx="1343.5" cy="-618.4913" rx="40.0939" ry="18"/>
<text text-anchor="middle" x="1343.5" y="-614.7913" font-family="Times,serif" font-size="14.00" fill="#000000">4.2.28</text>
</g>
<!-- 1&#45;&gt;18 -->
<g id="edge15" class="edge">
<title>1&#45;&gt;18</title>
<path fill="none" stroke="#000000" d="M880.9807,-551.0983C971.0498,-564.2221 1195.4461,-596.9186 1294.8192,-611.3981"/>
<polygon fill="#000000" stroke="#000000" points="1294.488,-614.8867 1304.8882,-612.8652 1295.4973,-607.9598 1294.488,-614.8867"/>
</g>
<!-- 21 -->
<g id="node22" class="node">
<title>21</title>
<ellipse fill="#d3d3d3" stroke="#d3d3d3" cx="1072.5" cy="-831.4913" rx="40.0939" ry="18"/>
<text text-anchor="middle" x="1072.5" y="-827.7913" font-family="Times,serif" font-size="14.00" fill="#000000">4.2.33</text>
</g>
<!-- 1&#45;&gt;21 -->
<g id="edge61" class="edge">
<title>1&#45;&gt;21</title>
<path fill="none" stroke="#000000" d="M842.7752,-563.8203C843.8564,-589.0243 848.4008,-635.1585 866.5,-669.4913 889.8029,-713.695 903.0759,-723.087 945.5,-749.4913 966.978,-762.859 977.5555,-754.9041 999.5,-767.4913 1018.0768,-778.1468 1036.1966,-793.9913 1049.7365,-807.2489"/>
<polygon fill="#000000" stroke="#000000" points="1047.6135,-810.0774 1057.1482,-814.697 1052.5754,-805.1398 1047.6135,-810.0774"/>
</g>
<!-- 22 -->
<g id="node23" class="node">
<title>22</title>
<ellipse fill="#d3d3d3" stroke="#d3d3d3" cx="994.5" cy="-718.4913" rx="40.0939" ry="18"/>
<text text-anchor="middle" x="994.5" y="-714.7913" font-family="Times,serif" font-size="14.00" fill="#000000">4.2.29</text>
</g>
<!-- 1&#45;&gt;22 -->
<g id="edge8" class="edge">
<title>1&#45;&gt;22</title>
<path fill="none" stroke="#000000" d="M868.3739,-559.4984C878.5728,-565.6003 890.0766,-573.2427 899.5,-581.4913 931.3143,-609.3392 936.8991,-619.4106 960.5,-654.4913 968.3461,-666.1538 975.8192,-679.8258 981.7507,-691.5323"/>
<polygon fill="#000000" stroke="#000000" points="978.7727,-693.4059 986.3449,-700.8162 985.0466,-690.3012 978.7727,-693.4059"/>
</g>
<!-- 2 -->
<g id="node3" class="node">
<title>2</title>
<ellipse fill="#d3d3d3" stroke="#d3d3d3" cx="850.5" cy="-18" rx="40.0939" ry="18"/>
<text text-anchor="middle" x="850.5" y="-14.3" font-family="Times,serif" font-size="14.00" fill="#000000">4.2.16</text>
</g>
<!-- 2&#45;&gt;1 -->
<g id="edge31" class="edge">
<title>2&#45;&gt;1</title>
<path fill="none" stroke="#000000" d="M810.0549,-19.5451C689.429,-24.6864 340.5,-43.6505 340.5,-91 340.5,-91 340.5,-91 340.5,-346.5 340.5,-443.6139 669.2772,-513.8694 794.6858,-537.1351"/>
<polygon fill="#000000" stroke="#000000" points="794.3009,-540.6229 804.7684,-538.9854 795.5644,-533.7378 794.3009,-540.6229"/>
</g>
<!-- 4 -->
<g id="node5" class="node">
<title>4</title>
<ellipse fill="#d3d3d3" stroke="#d3d3d3" cx="953.5" cy="-310" rx="40.0939" ry="18"/>
<text text-anchor="middle" x="953.5" y="-306.3" font-family="Times,serif" font-size="14.00" fill="#000000">4.2.21</text>
</g>
<!-- 2&#45;&gt;4 -->
<g id="edge82" class="edge">
<title>2&#45;&gt;4</title>
<path fill="none" stroke="#000000" d="M858.2034,-35.8552C860.6178,-41.6158 863.2404,-48.05 865.5,-54 896.7568,-136.3051 929.3906,-235.2373 944.6487,-282.3894"/>
<polygon fill="#000000" stroke="#000000" points="941.4027,-283.7276 947.8044,-292.1697 948.0646,-281.5781 941.4027,-283.7276"/>
</g>
<!-- 9 -->
<g id="node10" class="node">
<title>9</title>
<ellipse fill="#d3d3d3" stroke="#d3d3d3" cx="1002.5" cy="-91" rx="40.0939" ry="18"/>
<text text-anchor="middle" x="1002.5" y="-87.3" font-family="Times,serif" font-size="14.00" fill="#000000">4.2.18</text>
</g>
<!-- 2&#45;&gt;9 -->
<g id="edge34" class="edge">
<title>2&#45;&gt;9</title>
<path fill="none" stroke="#000000" d="M878.0261,-31.2197C902.5916,-43.0177 938.7537,-60.385 965.7784,-73.364"/>
<polygon fill="#000000" stroke="#000000" points="964.3928,-76.5812 974.9223,-77.7555 967.4233,-70.2712 964.3928,-76.5812"/>
</g>
<!-- 14 -->
<g id="node15" class="node">
<title>14</title>
<ellipse fill="#d3d3d3" stroke="#d3d3d3" cx="1028.5" cy="-383" rx="40.0939" ry="18"/>
<text text-anchor="middle" x="1028.5" y="-379.3" font-family="Times,serif" font-size="14.00" fill="#000000">4.2.25</text>
</g>
<!-- 2&#45;&gt;14 -->
<g id="edge14" class="edge">
<title>2&#45;&gt;14</title>
<path fill="none" stroke="#000000" d="M828.6253,-33.3086C812.551,-46.5221 793.5,-67.2024 793.5,-91 793.5,-91 793.5,-91 793.5,-237 793.5,-324.0319 911.2324,-361.0048 980.0338,-375.1808"/>
<polygon fill="#000000" stroke="#000000" points="979.7322,-378.6886 990.2202,-377.1874 981.0852,-371.8206 979.7322,-378.6886"/>
</g>
<!-- 16 -->
<g id="node17" class="node">
<title>16</title>
<ellipse fill="#d3d3d3" stroke="#d3d3d3" cx="1186.5" cy="-164" rx="40.0939" ry="18"/>
<text text-anchor="middle" x="1186.5" y="-160.3" font-family="Times,serif" font-size="14.00" fill="#000000">4.2.19</text>
</g>
<!-- 2&#45;&gt;16 -->
<g id="edge63" class="edge">
<title>2&#45;&gt;16</title>
<path fill="none" stroke="#000000" d="M888.4464,-24.5457C929.8374,-32.5511 997.4065,-48.1848 1051.5,-73 1091.6046,-91.3979 1132.9971,-121.1956 1159.1943,-141.6492"/>
<polygon fill="#000000" stroke="#000000" points="1157.1299,-144.4788 1167.1451,-147.9353 1161.4714,-138.9877 1157.1299,-144.4788"/>
</g>
<!-- 17 -->
<g id="node18" class="node">
<title>17</title>
<polygon fill="#fa8072" stroke="#fa8072" points="1053.3261,-469.8605 1003.5,-482.4157 953.6739,-469.8605 972.7058,-449.5458 1034.2942,-449.5458 1053.3261,-469.8605"/>
<polygon fill="none" stroke="#fa8072" points="1060.9352,-472.1049 1003.5,-486.5775 946.0648,-472.1049 970.9822,-445.508 1036.0178,-445.508 1060.9352,-472.1049"/>
<polygon fill="none" stroke="#fa8072" points="1068.5443,-474.3494 1003.5,-490.7393 938.4557,-474.3494 969.2586,-441.4702 1037.7414,-441.4702 1068.5443,-474.3494"/>
<text text-anchor="middle" x="1003.5" y="-460.5456" font-family="Times,serif" font-size="14.00" fill="#000000">4.2.26</text>
</g>
<!-- 2&#45;&gt;17 -->
<g id="edge88" class="edge">
<title>2&#45;&gt;17</title>
<path fill="none" stroke="#000000" d="M810.5387,-20.9559C707.6237,-29.101 441.5,-53.7634 441.5,-91 441.5,-91 441.5,-91 441.5,-310 441.5,-412.5732 794.046,-449.4242 940.6864,-460.3157"/>
<polygon fill="#000000" stroke="#000000" points="940.6538,-463.8225 950.881,-461.0556 941.1606,-456.8408 940.6538,-463.8225"/>
</g>
<!-- 2&#45;&gt;18 -->
<g id="edge5" class="edge">
<title>2&#45;&gt;18</title>
<path fill="none" stroke="#000000" d="M890.8298,-19.3066C1060.1084,-25.0515 1704.5,-49.637 1704.5,-91 1704.5,-91 1704.5,-91 1704.5,-419.5 1704.5,-500.304 1663.9578,-523.9314 1593.5,-563.4913 1559.546,-582.5554 1454.927,-601.2922 1392.301,-611.2163"/>
<polygon fill="#000000" stroke="#000000" points="1391.5896,-607.785 1382.2517,-612.7903 1392.6729,-614.7007 1391.5896,-607.785"/>
</g>
<!-- 20 -->
<g id="node21" class="node">
<title>20</title>
<ellipse fill="#d3d3d3" stroke="#d3d3d3" cx="862.5" cy="-237" rx="40.0939" ry="18"/>
<text text-anchor="middle" x="862.5" y="-233.3" font-family="Times,serif" font-size="14.00" fill="#000000">4.2.20</text>
</g>
<!-- 2&#45;&gt;20 -->
<g id="edge93" class="edge">
<title>2&#45;&gt;20</title>
<path fill="none" stroke="#000000" d="M851.5025,-36.2951C853.5989,-74.5542 858.4582,-163.2377 860.9562,-208.8258"/>
<polygon fill="#000000" stroke="#000000" points="857.4668,-209.1175 861.5088,-218.911 864.4564,-208.7344 857.4668,-209.1175"/>
</g>
<!-- 3 -->
<g id="node4" class="node">
<title>3</title>
<polygon fill="#d3d3d3" stroke="#d3d3d3" points="53,-744.9913 0,-744.9913 0,-691.9913 53,-691.9913 53,-744.9913"/>
<text text-anchor="middle" x="26.5" y="-714.7913" font-family="Times,serif" font-size="14.00" fill="#000000">4.3.9</text>
</g>
<!-- 3&#45;&gt;5 -->
<g id="edge77" class="edge">
<title>3&#45;&gt;5</title>
<path fill="none" stroke="#000000" d="M31.0737,-744.9994C38.2522,-778.0437 55.4853,-833.6748 93.5,-862.4913 167.0497,-918.2445 452.7973,-937.4167 560.2976,-942.7386"/>
<polygon fill="#000000" stroke="#000000" points="560.273,-946.2414 570.4294,-943.225 560.6088,-939.2494 560.273,-946.2414"/>
</g>
<!-- 3&#45;&gt;11 -->
<g id="edge19" class="edge">
<title>3&#45;&gt;11</title>
<path fill="none" stroke="#000000" d="M25.6864,-745.0215C26.2401,-756.9412 28.2071,-770.9004 33.5,-782.4913 82.0959,-888.9119 118.2833,-906.1362 212.5,-975.4913 255.9832,-1007.5002 313.9522,-1031.0204 352.4409,-1044.467"/>
<polygon fill="#000000" stroke="#000000" points="351.6737,-1047.9036 362.2682,-1047.8294 353.9398,-1041.2805 351.6737,-1047.9036"/>
</g>
<!-- 3&#45;&gt;23 -->
<g id="edge33" class="edge">
<title>3&#45;&gt;23</title>
<path fill="none" stroke="#000000" d="M53.3399,-730.3959C67.2905,-736.4146 84.6872,-743.6591 100.5,-749.4913 175.6196,-777.1974 265.0294,-804.5962 315.8378,-819.6561"/>
<polygon fill="#000000" stroke="#000000" points="314.8873,-823.0248 325.4691,-822.5 316.8697,-816.3113 314.8873,-823.0248"/>
</g>
<!-- 4&#45;&gt;1 -->
<g id="edge46" class="edge">
<title>4&#45;&gt;1</title>
<path fill="none" stroke="#000000" d="M944.8174,-327.8101C935.0254,-346.9566 917.9134,-377.7694 898.5,-401 882.5477,-420.0889 868.1871,-416.0392 856.5,-438 843.4485,-462.5246 840.7939,-494.5082 840.8854,-517.1934"/>
<polygon fill="#000000" stroke="#000000" points="837.3865,-517.2845 841.1051,-527.2053 844.3848,-517.1309 837.3865,-517.2845"/>
</g>
<!-- 4&#45;&gt;5 -->
<g id="edge41" class="edge">
<title>4&#45;&gt;5</title>
<path fill="none" stroke="#000000" d="M925.5977,-323.2142C887.0644,-342.874 817.9697,-383.447 779.5,-438 667.6186,-596.6562 709.8776,-671.2449 676.5,-862.4913 673.9223,-877.261 678.378,-883.4094 669.5,-895.4913 661.4983,-906.3807 653.9659,-905.1529 641.2528,-911.7563"/>
<polygon fill="#000000" stroke="#000000" points="639.3079,-908.8433 632.6171,-917.0582 642.9704,-914.8087 639.3079,-908.8433"/>
</g>
<!-- 4&#45;&gt;14 -->
<g id="edge64" class="edge">
<title>4&#45;&gt;14</title>
<path fill="none" stroke="#000000" d="M970.5187,-326.5648C980.4915,-336.2717 993.252,-348.692 1004.2619,-359.4083"/>
<polygon fill="#000000" stroke="#000000" points="1001.9415,-362.0339 1011.5487,-366.5007 1006.8239,-357.0177 1001.9415,-362.0339"/>
</g>
<!-- 4&#45;&gt;17 -->
<g id="edge84" class="edge">
<title>4&#45;&gt;17</title>
<path fill="none" stroke="#000000" d="M958.1411,-327.9218C963.0312,-346.3736 971.1662,-375.8934 979.5,-401 982.8576,-411.1151 986.8506,-422.0065 990.6067,-431.8527"/>
<polygon fill="#000000" stroke="#000000" points="987.3817,-433.2173 994.2515,-441.2831 993.911,-430.6937 987.3817,-433.2173"/>
</g>
<!-- 4&#45;&gt;18 -->
<g id="edge68" class="edge">
<title>4&#45;&gt;18</title>
<path fill="none" stroke="#000000" d="M993.165,-313.186C1060.8831,-320.5598 1199.8594,-344.3538 1286.5,-419 1336.6877,-462.2398 1344.1831,-546.3127 1344.4248,-590.2316"/>
<polygon fill="#000000" stroke="#000000" points="1340.9232,-590.4582 1344.3516,-600.483 1347.9231,-590.5083 1340.9232,-590.4582"/>
</g>
<!-- 4&#45;&gt;21 -->
<g id="edge6" class="edge">
<title>4&#45;&gt;21</title>
<path fill="none" stroke="#000000" d="M991.9918,-315.694C1052.1643,-326.9195 1166.5781,-358.1645 1214.5,-438 1250.4076,-497.8204 1276.1465,-478.3819 1165.5,-749.4913 1158.8393,-765.8116 1155.8637,-769.9272 1143.5,-782.4913 1143.2698,-782.7252 1121.983,-797.4089 1102.7798,-810.64"/>
<polygon fill="#000000" stroke="#000000" points="1100.716,-807.8116 1094.4665,-816.3669 1104.6872,-813.5761 1100.716,-807.8116"/>
</g>
<!-- 4&#45;&gt;22 -->
<g id="edge3" class="edge">
<title>4&#45;&gt;22</title>
<path fill="none" stroke="#000000" d="M936.2521,-326.4696C925.2081,-337.2031 910.7112,-351.6464 898.5,-365 831.1507,-438.6501 745.6141,-475.9288 793.5,-563.4913 811.483,-596.3744 906.7853,-630.4048 935.5,-654.4913 949.4616,-666.2026 963.3611,-681.0811 974.1592,-693.5446"/>
<polygon fill="#000000" stroke="#000000" points="971.6329,-695.9767 980.7767,-701.3286 976.9661,-691.4427 971.6329,-695.9767"/>
</g>
<!-- 5&#45;&gt;11 -->
<g id="edge45" class="edge">
<title>5&#45;&gt;11</title>
<path fill="none" stroke="#0000ff" stroke-dasharray="5,2" d="M570.3603,-961.4085C533.8766,-981.229 473.3525,-1014.1099 433.4424,-1035.7918"/>
<polygon fill="#0000ff" stroke="#0000ff" points="431.6286,-1032.794 424.5124,-1040.6432 434.9703,-1038.9449 431.6286,-1032.794"/>
<text text-anchor="middle" x="538.5" y="-997.2913" font-family="Times,serif" font-size="14.00" fill="#000000">Indirect</text>
</g>
<!-- 6 -->
<g id="node7" class="node">
<title>6</title>
<ellipse fill="#d3d3d3" stroke="#d3d3d3" cx="606.5" cy="-310" rx="40.0939" ry="18"/>
<text text-anchor="middle" x="606.5" y="-306.3" font-family="Times,serif" font-size="14.00" fill="#000000">4.2.22</text>
</g>
<!-- 6&#45;&gt;1 -->
<g id="edge11" class="edge">
<title>6&#45;&gt;1</title>
<path fill="none" stroke="#000000" d="M614.2547,-327.9262C631.8374,-366.5618 678.4013,-458.3152 744.5,-509.4913 759.4758,-521.0861 778.5535,-529.2133 795.8894,-534.772"/>
<polygon fill="#000000" stroke="#000000" points="795.2673,-538.2392 805.8511,-537.7548 797.2753,-531.5333 795.2673,-538.2392"/>
</g>
<!-- 6&#45;&gt;5 -->
<g id="edge42" class="edge">
<title>6&#45;&gt;5</title>
<path fill="none" stroke="#000000" d="M572.3815,-319.8598C447.6039,-358.0164 27.0742,-506.0853 100.5,-749.4913 117.9085,-807.2003 125.8228,-828.3511 175.5,-862.4913 238.0205,-905.458 465.9343,-931.5793 560.2289,-940.7608"/>
<polygon fill="#000000" stroke="#000000" points="559.966,-944.2516 570.2544,-941.722 560.6341,-937.2836 559.966,-944.2516"/>
</g>
<!-- 6&#45;&gt;14 -->
<g id="edge13" class="edge">
<title>6&#45;&gt;14</title>
<path fill="none" stroke="#000000" d="M644.3211,-316.5425C721.3234,-329.8628 896.1557,-360.1063 980.8073,-374.7498"/>
<polygon fill="#000000" stroke="#000000" points="980.4649,-378.2425 990.9152,-376.4984 981.6582,-371.345 980.4649,-378.2425"/>
</g>
<!-- 6&#45;&gt;17 -->
<g id="edge54" class="edge">
<title>6&#45;&gt;17</title>
<path fill="none" stroke="#000000" d="M631.871,-324.0875C674.6737,-347.2963 764.4997,-393.6212 845.5,-420 879.4471,-431.0553 918.0252,-441.8908 948.5631,-450.072"/>
<polygon fill="#000000" stroke="#000000" points="948.0291,-453.5516 958.5929,-452.7412 949.8294,-446.7871 948.0291,-453.5516"/>
</g>
<!-- 6&#45;&gt;18 -->
<g id="edge97" class="edge">
<title>6&#45;&gt;18</title>
<path fill="none" stroke="#000000" d="M609.6174,-328.1443C613.1102,-346.7734 619.4885,-376.432 628.5,-401 643.8309,-442.7963 643.3141,-457.7686 673.5,-490.4913 715.8279,-536.3763 734.3035,-543.6706 793.5,-563.4913 885.4747,-594.2871 1175.1407,-610.742 1292.9367,-616.3021"/>
<polygon fill="#000000" stroke="#000000" points="1292.9707,-619.8074 1303.1225,-616.7759 1293.296,-612.8149 1292.9707,-619.8074"/>
</g>
<!-- 6&#45;&gt;21 -->
<g id="edge92" class="edge">
<title>6&#45;&gt;21</title>
<path fill="none" stroke="#000000" d="M602.8597,-328.2409C601.8909,-333.9072 600.9808,-340.1905 600.5,-346 598.4835,-370.3652 599.9144,-376.603 601.5,-401 612.0333,-563.0757 577.9949,-656.9933 711.5,-749.4913 814.7559,-821.0314 868.4149,-767.0526 989.5,-800.4913 1004.0559,-804.511 1019.6539,-810.0066 1033.3541,-815.255"/>
<polygon fill="#000000" stroke="#000000" points="1032.3646,-818.6261 1042.9526,-819.0083 1034.9139,-812.1068 1032.3646,-818.6261"/>
</g>
<!-- 6&#45;&gt;22 -->
<g id="edge44" class="edge">
<title>6&#45;&gt;22</title>
<path fill="none" stroke="#000000" d="M605.5548,-328.2497C604.6045,-362.4262 606.459,-437.4138 636.5,-490.4913 658.9462,-530.15 670.6636,-538.0935 708.5,-563.4913 744.4086,-587.5951 762.3381,-576.7692 798.5,-600.4913 835.2922,-624.6269 832.5104,-645.6592 869.5,-669.4913 894.4959,-685.5959 925.6192,-697.8176 950.5565,-706.0272"/>
<polygon fill="#000000" stroke="#000000" points="949.5408,-709.3769 960.1316,-709.0842 951.6698,-702.7085 949.5408,-709.3769"/>
</g>
<!-- 7 -->
<g id="node8" class="node">
<title>7</title>
<polygon fill="#d3d3d3" stroke="#d3d3d3" points="535,-857.9913 482,-857.9913 482,-804.9913 535,-804.9913 535,-857.9913"/>
<text text-anchor="middle" x="508.5" y="-827.7913" font-family="Times,serif" font-size="14.00" fill="#000000">4.3.0</text>
</g>
<!-- 7&#45;&gt;5 -->
<g id="edge22" class="edge">
<title>7&#45;&gt;5</title>
<path fill="none" stroke="#000000" d="M523.4855,-858.0329C530.7157,-869.9549 539.8965,-883.9127 549.5,-895.4913 553.6055,-900.4412 558.1808,-905.3958 562.8672,-910.1502"/>
<polygon fill="#000000" stroke="#000000" points="560.6861,-912.914 570.2716,-917.4273 565.5928,-907.9215 560.6861,-912.914"/>
</g>
<!-- 8 -->
<g id="node9" class="node">
<title>8</title>
<polygon fill="#d3d3d3" stroke="#d3d3d3" points="401,-744.9913 348,-744.9913 348,-691.9913 401,-691.9913 401,-744.9913"/>
<text text-anchor="middle" x="374.5" y="-714.7913" font-family="Times,serif" font-size="14.00" fill="#000000">4.3.1</text>
</g>
<!-- 8&#45;&gt;5 -->
<g id="edge65" class="edge">
<title>8&#45;&gt;5</title>
<path fill="none" stroke="#000000" d="M401.2667,-743.874C403.9546,-745.9032 406.7202,-747.8135 409.5,-749.4913 436.956,-766.0627 521.6462,-777.9936 544.5,-800.4913 559.6266,-815.3822 577.7767,-866.6815 589.4666,-903.8143"/>
<polygon fill="#000000" stroke="#000000" points="586.1326,-904.88 592.439,-913.3935 592.8182,-902.8055 586.1326,-904.88"/>
</g>
<!-- 8&#45;&gt;11 -->
<g id="edge81" class="edge">
<title>8&#45;&gt;11</title>
<path fill="none" stroke="#000000" d="M349.0634,-745.3415C336.6413,-760.3233 322.9981,-780.0514 316.5,-800.4913 308.1514,-826.7517 311.4013,-835.4116 316.5,-862.4913 326.9927,-918.2189 353.2327,-978.3394 372.1667,-1016.8659"/>
<polygon fill="#000000" stroke="#000000" points="369.2156,-1018.7912 376.809,-1026.1798 375.4805,-1015.6685 369.2156,-1018.7912"/>
</g>
<!-- 8&#45;&gt;23 -->
<g id="edge72" class="edge">
<title>8&#45;&gt;23</title>
<path fill="none" stroke="#000000" d="M372.2668,-745.0498C371.1229,-756.595 369.5365,-770.2527 367.5,-782.4913 367.059,-785.1413 366.5649,-787.8632 366.0367,-790.6014"/>
<polygon fill="#000000" stroke="#000000" points="362.5895,-789.9893 364.0095,-800.4885 369.4468,-791.3953 362.5895,-789.9893"/>
</g>
<!-- 9&#45;&gt;1 -->
<g id="edge99" class="edge">
<title>9&#45;&gt;1</title>
<path fill="none" stroke="#000000" d="M969.7495,-101.7086C924.6047,-118.4922 845.2387,-155.7815 813.5,-219 762.9352,-319.7173 807.9603,-459.9974 830.9388,-518.3525"/>
<polygon fill="#000000" stroke="#000000" points="827.696,-519.6695 834.6827,-527.6342 834.1878,-517.0509 827.696,-519.6695"/>
</g>
<!-- 9&#45;&gt;4 -->
<g id="edge36" class="edge">
<title>9&#45;&gt;4</title>
<path fill="none" stroke="#000000" d="M998.4901,-108.9217C989.9657,-147.0205 969.9886,-236.306 959.7665,-281.9928"/>
<polygon fill="#000000" stroke="#000000" points="956.3333,-281.3077 957.5653,-291.8307 963.1644,-282.8362 956.3333,-281.3077"/>
</g>
<!-- 9&#45;&gt;14 -->
<g id="edge71" class="edge">
<title>9&#45;&gt;14</title>
<path fill="none" stroke="#000000" d="M1009.9003,-108.9628C1015.2352,-123.5366 1021.5,-144.7491 1021.5,-164 1021.5,-164 1021.5,-164 1021.5,-310 1021.5,-324.7678 1022.9371,-341.1397 1024.5089,-354.6303"/>
<polygon fill="#000000" stroke="#000000" points="1021.06,-355.2576 1025.7736,-364.7461 1028.0059,-354.3892 1021.06,-355.2576"/>
</g>
<!-- 9&#45;&gt;16 -->
<g id="edge12" class="edge">
<title>9&#45;&gt;16</title>
<path fill="none" stroke="#000000" d="M1032.8839,-103.0545C1063.9131,-115.365 1112.249,-134.5417 1146.4019,-148.0915"/>
<polygon fill="#000000" stroke="#000000" points="1145.4851,-151.4931 1156.071,-151.9276 1148.0666,-144.9865 1145.4851,-151.4931"/>
</g>
<!-- 9&#45;&gt;17 -->
<g id="edge24" class="edge">
<title>9&#45;&gt;17</title>
<path fill="none" stroke="#000000" d="M1041.7436,-95.1374C1132.7544,-105.2613 1350.5,-132.7484 1350.5,-164 1350.5,-164 1350.5,-164 1350.5,-273.5 1350.5,-339.8793 1153.0334,-414.6573 1056.0244,-447.3882"/>
<polygon fill="#000000" stroke="#000000" points="1054.7696,-444.1173 1046.397,-450.6097 1056.9909,-450.7555 1054.7696,-444.1173"/>
</g>
<!-- 9&#45;&gt;18 -->
<g id="edge20" class="edge">
<title>9&#45;&gt;18</title>
<path fill="none" stroke="#000000" d="M1042.5408,-93.288C1186.0984,-101.7519 1666.5,-132.4338 1666.5,-164 1666.5,-164 1666.5,-164 1666.5,-419.5 1666.5,-546.8153 1482.3433,-595.3181 1392.1357,-611.4397"/>
<polygon fill="#000000" stroke="#000000" points="1391.4009,-608.0146 1382.1405,-613.162 1392.5897,-614.913 1391.4009,-608.0146"/>
</g>
<!-- 9&#45;&gt;20 -->
<g id="edge94" class="edge">
<title>9&#45;&gt;20</title>
<path fill="none" stroke="#000000" d="M986.4402,-107.7481C961.65,-133.6007 913.9583,-183.3364 885.5084,-213.0055"/>
<polygon fill="#000000" stroke="#000000" points="882.7675,-210.807 878.3725,-220.4473 887.82,-215.6518 882.7675,-210.807"/>
</g>
<!-- 10 -->
<g id="node11" class="node">
<title>10</title>
<ellipse fill="#d3d3d3" stroke="#d3d3d3" cx="1418.5" cy="-310" rx="40.0939" ry="18"/>
<text text-anchor="middle" x="1418.5" y="-306.3" font-family="Times,serif" font-size="14.00" fill="#000000">4.2.23</text>
</g>
<!-- 10&#45;&gt;1 -->
<g id="edge4" class="edge">
<title>10&#45;&gt;1</title>
<path fill="none" stroke="#000000" d="M1402.9698,-326.8409C1368.1662,-363.4069 1279.6417,-450.025 1186.5,-490.4913 1134.5005,-513.083 974.1651,-532.0831 892.0625,-540.6355"/>
<polygon fill="#000000" stroke="#000000" points="891.5606,-537.1686 881.9719,-541.675 892.2779,-544.1317 891.5606,-537.1686"/>
</g>
<!-- 10&#45;&gt;5 -->
<g id="edge35" class="edge">
<title>10&#45;&gt;5</title>
<path fill="none" stroke="#000000" d="M1440.6077,-325.3819C1447.7129,-331.1861 1455.1271,-338.2728 1460.5,-346 1465.6376,-353.3887 1464.8656,-356.3949 1467.5,-365 1523.3236,-547.3435 1685.6475,-633.5977 1566.5,-782.4913 1507.3737,-856.3789 820.0902,-924.3739 642.9428,-940.7568"/>
<polygon fill="#000000" stroke="#000000" points="642.372,-937.2945 632.7347,-941.6959 643.0133,-944.2651 642.372,-937.2945"/>
</g>
<!-- 10&#45;&gt;14 -->
<g id="edge59" class="edge">
<title>10&#45;&gt;14</title>
<path fill="none" stroke="#000000" d="M1381.1052,-316.9995C1309.7633,-330.3533 1154.3578,-359.442 1075.8733,-374.1327"/>
<polygon fill="#000000" stroke="#000000" points="1074.9669,-370.7415 1065.7816,-376.0216 1076.2549,-377.622 1074.9669,-370.7415"/>
</g>
<!-- 10&#45;&gt;17 -->
<g id="edge29" class="edge">
<title>10&#45;&gt;17</title>
<path fill="none" stroke="#000000" d="M1387.3076,-321.5935C1316.1756,-348.0316 1141.4115,-412.9872 1054.4118,-445.3229"/>
<polygon fill="#000000" stroke="#000000" points="1053.1619,-442.0535 1045.0077,-448.8182 1055.6006,-448.615 1053.1619,-442.0535"/>
</g>
<!-- 10&#45;&gt;18 -->
<g id="edge38" class="edge">
<title>10&#45;&gt;18</title>
<path fill="none" stroke="#000000" d="M1411.4892,-327.9969C1406.4351,-342.59 1400.5,-363.8118 1400.5,-383 1400.5,-383 1400.5,-383 1400.5,-508.9913 1400.5,-543.6416 1391.8809,-552.5155 1374.5,-582.4913 1372.2038,-586.4513 1369.4463,-590.3864 1366.5352,-594.1211"/>
<polygon fill="#000000" stroke="#000000" points="1363.7563,-591.9885 1360.037,-601.909 1369.1311,-596.4731 1363.7563,-591.9885"/>
</g>
<!-- 10&#45;&gt;21 -->
<g id="edge60" class="edge">
<title>10&#45;&gt;21</title>
<path fill="none" stroke="#000000" d="M1433.9839,-326.9879C1438.5498,-332.7022 1443.2012,-339.3282 1446.5,-346 1450.3701,-353.8274 1450.2995,-356.351 1451.5,-365 1468.1771,-485.1509 1491.8928,-536.3074 1423.5,-636.4913 1372.8122,-710.7403 1364.1676,-742.8062 1283.5,-782.4913 1216.9115,-815.25 1187.0669,-774.6533 1117.5,-800.4913 1111.4303,-802.7456 1105.3986,-806.0013 1099.816,-809.5642"/>
<polygon fill="#000000" stroke="#000000" points="1097.7189,-806.7588 1091.4721,-815.3161 1101.6919,-812.5221 1097.7189,-806.7588"/>
</g>
<!-- 10&#45;&gt;22 -->
<g id="edge27" class="edge">
<title>10&#45;&gt;22</title>
<path fill="none" stroke="#000000" d="M1426.2898,-327.9269C1431.9055,-342.4805 1438.5,-363.6832 1438.5,-383 1438.5,-383 1438.5,-383 1438.5,-545.4913 1438.5,-590.8094 1429.85,-610.826 1392.5,-636.4913 1359.9153,-658.8821 1253.8259,-644.7839 1215.5,-654.4913 1198.6973,-658.7472 1195.9156,-663.9261 1179.5,-669.4913 1133.0488,-685.2389 1078.6532,-699.1184 1040.9214,-708.0479"/>
<polygon fill="#000000" stroke="#000000" points="1039.6795,-704.744 1030.7414,-710.4326 1041.2761,-711.5595 1039.6795,-704.744"/>
</g>
<!-- 12 -->
<g id="node13" class="node">
<title>12</title>
<polygon fill="#d3d3d3" stroke="#d3d3d3" points="163,-744.9913 110,-744.9913 110,-691.9913 163,-691.9913 163,-744.9913"/>
<text text-anchor="middle" x="136.5" y="-714.7913" font-family="Times,serif" font-size="14.00" fill="#000000">4.3.8</text>
</g>
<!-- 12&#45;&gt;5 -->
<g id="edge76" class="edge">
<title>12&#45;&gt;5</title>
<path fill="none" stroke="#000000" d="M147.7222,-745.1546C163.0189,-778.0954 193.6234,-833.3449 237.5,-862.4913 268.9415,-883.3773 284.8162,-868.1845 320.5,-880.4913 334.9696,-885.4816 336.9812,-890.646 351.5,-895.4913 422.9816,-919.3465 510.0533,-933.153 560.2998,-939.7197"/>
<polygon fill="#000000" stroke="#000000" points="560.0819,-943.2201 570.4441,-941.0121 560.9666,-936.2763 560.0819,-943.2201"/>
</g>
<!-- 12&#45;&gt;11 -->
<g id="edge18" class="edge">
<title>12&#45;&gt;11</title>
<path fill="none" stroke="#000000" d="M142.936,-745.1266C146.1318,-756.8091 150.4053,-770.5515 155.5,-782.4913 194.2486,-873.3015 198.6884,-902.7991 265.5,-975.4913 290.3699,-1002.5502 326.059,-1024.4349 353.4373,-1038.7677"/>
<polygon fill="#000000" stroke="#000000" points="351.8785,-1041.9016 362.3758,-1043.3354 355.0638,-1035.6683 351.8785,-1041.9016"/>
</g>
<!-- 12&#45;&gt;23 -->
<g id="edge70" class="edge">
<title>12&#45;&gt;23</title>
<path fill="none" stroke="#000000" d="M163.3689,-744.1091C166.3137,-746.1425 169.3794,-747.9874 172.5,-749.4913 211.2125,-768.1477 228.0088,-750.5454 267.5,-767.4913 285.0605,-775.0266 302.537,-786.4961 317.2941,-797.6547"/>
<polygon fill="#000000" stroke="#000000" points="315.1521,-800.4227 325.1959,-803.7949 319.4472,-794.8953 315.1521,-800.4227"/>
</g>
<!-- 13 -->
<g id="node14" class="node">
<title>13</title>
<polygon fill="#d3d3d3" stroke="#d3d3d3" points="243.5,-749.4913 181.5,-749.4913 181.5,-687.4913 243.5,-687.4913 243.5,-749.4913"/>
<text text-anchor="middle" x="212.5" y="-714.7913" font-family="Times,serif" font-size="14.00" fill="#000000">4.3.12</text>
</g>
<!-- 13&#45;&gt;5 -->
<g id="edge57" class="edge">
<title>13&#45;&gt;5</title>
<path fill="none" stroke="#000000" d="M220.8201,-749.7531C231.2062,-782.6834 252.1822,-833.6771 288.5,-862.4913 293.9257,-866.796 476.8534,-913.1591 560.4973,-934.2046"/>
<polygon fill="#000000" stroke="#000000" points="559.8736,-937.6566 570.4252,-936.7009 561.5806,-930.868 559.8736,-937.6566"/>
</g>
<!-- 13&#45;&gt;11 -->
<g id="edge37" class="edge">
<title>13&#45;&gt;11</title>
<path fill="none" stroke="#000000" d="M216.4423,-749.7317C218.146,-760.2535 220.4612,-771.9862 223.5,-782.4913 249.302,-871.6893 253.754,-897.0862 303.5,-975.4913 316.7575,-996.3865 336.7111,-1015.3193 354.4639,-1029.7147"/>
<polygon fill="#000000" stroke="#000000" points="352.4145,-1032.5558 362.4338,-1036.0002 356.7493,-1027.0595 352.4145,-1032.5558"/>
</g>
<!-- 13&#45;&gt;23 -->
<g id="edge101" class="edge">
<title>13&#45;&gt;23</title>
<path fill="none" stroke="#000000" d="M243.6382,-740.1212C248.556,-743.3491 253.6264,-746.5703 258.5,-749.4913 273.1656,-758.2813 278.7464,-757.3333 292.5,-767.4913 302.673,-775.0048 312.7753,-784.1199 321.8459,-793.0868"/>
<polygon fill="#000000" stroke="#000000" points="319.3645,-795.5553 328.8807,-800.2129 324.3461,-790.6375 319.3645,-795.5553"/>
</g>
<!-- 14&#45;&gt;1 -->
<g id="edge91" class="edge">
<title>14&#45;&gt;1</title>
<path fill="none" stroke="#000000" d="M991.9039,-390.8129C963.0319,-398.5826 923.2931,-413.0385 896.5,-438 873.1019,-459.7986 858.3748,-493.9777 850.3169,-517.9276"/>
<polygon fill="#000000" stroke="#000000" points="846.9681,-516.909 847.266,-527.4996 853.6375,-519.0347 846.9681,-516.909"/>
</g>
<!-- 14&#45;&gt;5 -->
<g id="edge58" class="edge">
<title>14&#45;&gt;5</title>
<path fill="none" stroke="#000000" d="M995.6484,-393.8239C973.9745,-402.55 946.5373,-416.8826 929.5,-438 892.9086,-483.3545 912.2972,-509.0538 891.5,-563.4913 855.8062,-656.921 832.7465,-674.2746 796.5,-767.4913 774.481,-824.1183 795.1026,-856.5085 748.5,-895.4913 718.2441,-920.8001 674.4212,-933.1919 642.4991,-939.1607"/>
<polygon fill="#000000" stroke="#000000" points="641.8396,-935.7228 632.5853,-940.8811 643.0365,-942.6197 641.8396,-935.7228"/>
</g>
<!-- 14&#45;&gt;17 -->
<g id="edge26" class="edge">
<title>14&#45;&gt;17</title>
<path fill="none" stroke="#000000" d="M1022.9517,-401.031C1020.1828,-410.0295 1016.7466,-421.1966 1013.5362,-431.6299"/>
<polygon fill="#000000" stroke="#000000" points="1010.1523,-430.7263 1010.5565,-441.3134 1016.8427,-432.785 1010.1523,-430.7263"/>
</g>
<!-- 14&#45;&gt;18 -->
<g id="edge28" class="edge">
<title>14&#45;&gt;18</title>
<path fill="none" stroke="#000000" d="M1066.472,-389.2789C1091.143,-394.5517 1123.2842,-403.7433 1148.5,-419 1188.8462,-443.4112 1280.6452,-546.1169 1322.2729,-593.8776"/>
<polygon fill="#000000" stroke="#000000" points="1319.7729,-596.3367 1328.9741,-601.5892 1325.0567,-591.7452 1319.7729,-596.3367"/>
</g>
<!-- 14&#45;&gt;21 -->
<g id="edge39" class="edge">
<title>14&#45;&gt;21</title>
<path fill="none" stroke="#000000" d="M1053.2104,-397.4398C1062.3557,-403.4436 1072.4475,-410.9032 1080.5,-419 1124.7566,-463.5005 1151.5,-528.7698 1151.5,-581.9913 1151.5,-581.9913 1151.5,-581.9913 1151.5,-718.4913 1151.5,-755.1064 1123.2947,-788.3093 1100.5905,-809.1051"/>
<polygon fill="#000000" stroke="#000000" points="1098.0347,-806.6922 1092.8445,-815.9286 1102.6618,-811.9448 1098.0347,-806.6922"/>
</g>
<!-- 14&#45;&gt;22 -->
<g id="edge78" class="edge">
<title>14&#45;&gt;22</title>
<path fill="none" stroke="#000000" d="M1048.3779,-398.795C1059.2323,-408.7379 1071.6286,-422.5831 1077.5,-438 1085.8031,-459.8019 1081.4717,-467.5024 1077.5,-490.4913 1064.4207,-566.1961 1027.8515,-649.7529 1007.8999,-691.5507"/>
<polygon fill="#000000" stroke="#000000" points="1004.6432,-690.2461 1003.4425,-700.7727 1010.9456,-693.2924 1004.6432,-690.2461"/>
</g>
<!-- 15 -->
<g id="node16" class="node">
<title>15</title>
<polygon fill="#d3d3d3" stroke="#d3d3d3" points="472,-744.9913 419,-744.9913 419,-691.9913 472,-691.9913 472,-744.9913"/>
<text text-anchor="middle" x="445.5" y="-714.7913" font-family="Times,serif" font-size="14.00" fill="#000000">4.3.2</text>
</g>
<!-- 15&#45;&gt;5 -->
<g id="edge96" class="edge">
<title>15&#45;&gt;5</title>
<path fill="none" stroke="#000000" d="M472.1023,-743.2001C474.8681,-745.4176 477.6949,-747.5538 480.5,-749.4913 520.5764,-777.1722 548.9645,-761.0189 577.5,-800.4913 598.9783,-830.2016 603.847,-872.3111 604.0188,-903.3225"/>
<polygon fill="#000000" stroke="#000000" points="600.5185,-903.3441 603.9143,-913.38 607.5181,-903.4169 600.5185,-903.3441"/>
</g>
<!-- 15&#45;&gt;11 -->
<g id="edge7" class="edge">
<title>15&#45;&gt;11</title>
<path fill="none" stroke="#000000" d="M441.4196,-745.092C432.4014,-803.8841 410.7173,-945.2474 399.884,-1015.8723"/>
<polygon fill="#000000" stroke="#000000" points="396.3614,-1015.7537 398.3046,-1026.1688 403.2804,-1016.8151 396.3614,-1015.7537"/>
</g>
<!-- 15&#45;&gt;23 -->
<g id="edge102" class="edge">
<title>15&#45;&gt;23</title>
<path fill="none" stroke="#000000" d="M424.4082,-745.2707C413.3774,-759.2761 399.6639,-776.6877 387.4543,-792.1898"/>
<polygon fill="#000000" stroke="#000000" points="384.6665,-790.0727 381.2287,-800.0942 390.1657,-794.4039 384.6665,-790.0727"/>
</g>
<!-- 16&#45;&gt;1 -->
<g id="edge86" class="edge">
<title>16&#45;&gt;1</title>
<path fill="none" stroke="#000000" d="M1187.714,-182.3059C1188.037,-187.9749 1188.3402,-194.2434 1188.5,-200 1189.1969,-225.1083 1183.2891,-231.1202 1175.5,-255 1140.3458,-362.7755 1163.9733,-417.1853 1077.5,-490.4913 1049.8542,-513.9274 952.2616,-530.8047 891.8795,-539.2856"/>
<polygon fill="#000000" stroke="#000000" points="891.2241,-535.8427 881.7943,-540.6729 892.178,-542.7774 891.2241,-535.8427"/>
</g>
<!-- 16&#45;&gt;4 -->
<g id="edge100" class="edge">
<title>16&#45;&gt;4</title>
<path fill="none" stroke="#000000" d="M1151.2673,-172.8362C1130.7034,-178.8277 1104.7152,-187.8741 1083.5,-200 1041.8617,-223.799 1000.7936,-261.6055 976.2923,-286.1111"/>
<polygon fill="#000000" stroke="#000000" points="973.7712,-283.683 969.238,-293.2591 978.7535,-288.6 973.7712,-283.683"/>
</g>
<!-- 16&#45;&gt;14 -->
<g id="edge32" class="edge">
<title>16&#45;&gt;14</title>
<path fill="none" stroke="#000000" d="M1156.1452,-176.1323C1144.2546,-182.0012 1131.1744,-189.9748 1121.5,-200 1077.3149,-245.7871 1049.5254,-316.7222 1036.7542,-355.4548"/>
<polygon fill="#000000" stroke="#000000" points="1033.4058,-354.4351 1033.6893,-365.0261 1040.0723,-356.5699 1033.4058,-354.4351"/>
</g>
<!-- 16&#45;&gt;17 -->
<g id="edge21" class="edge">
<title>16&#45;&gt;17</title>
<path fill="none" stroke="#000000" d="M1181.17,-182.0625C1168.2838,-223.6949 1132.397,-328.3853 1077.5,-401 1068.1426,-413.3774 1055.979,-425.0116 1044.2255,-434.8437"/>
<polygon fill="#000000" stroke="#000000" points="1041.7612,-432.3356 1036.1935,-441.3496 1046.1672,-437.775 1041.7612,-432.3356"/>
</g>
<!-- 16&#45;&gt;18 -->
<g id="edge47" class="edge">
<title>16&#45;&gt;18</title>
<path fill="none" stroke="#000000" d="M1218.1514,-175.2015C1297.4205,-204.0536 1500.1595,-283.0619 1528.5,-346 1574.6908,-448.5797 1440.6119,-554.4341 1376.0693,-597.9407"/>
<polygon fill="#000000" stroke="#000000" points="1373.8478,-595.2143 1367.4496,-603.659 1377.7175,-601.0474 1373.8478,-595.2143"/>
</g>
<!-- 16&#45;&gt;20 -->
<g id="edge95" class="edge">
<title>16&#45;&gt;20</title>
<path fill="none" stroke="#000000" d="M1150.2762,-172.1615C1091.0267,-185.511 973.4912,-211.9927 908.4601,-226.6448"/>
<polygon fill="#000000" stroke="#000000" points="907.4769,-223.2785 898.4908,-228.891 909.0156,-230.1073 907.4769,-223.2785"/>
</g>
<!-- 16&#45;&gt;21 -->
<g id="edge98" class="edge">
<title>16&#45;&gt;21</title>
<path fill="none" stroke="#000000" d="M1226.5041,-166.4199C1335.3064,-173.5323 1628.5,-196.4594 1628.5,-237 1628.5,-237 1628.5,-237 1628.5,-419.5 1628.5,-619.7722 1538.5846,-688.9497 1361.5,-782.4913 1350.9493,-788.0645 1200.6993,-811.778 1121.1374,-824.0558"/>
<polygon fill="#000000" stroke="#000000" points="1120.218,-820.6561 1110.8674,-825.6377 1121.2837,-827.5745 1120.218,-820.6561"/>
</g>
<!-- 16&#45;&gt;22 -->
<g id="edge30" class="edge">
<title>16&#45;&gt;22</title>
<path fill="none" stroke="#000000" d="M1224.7969,-169.6199C1290.7918,-181.1757 1426.7193,-213.4453 1508.5,-292 1551.3897,-333.1978 1561.0325,-362.0892 1547.5,-420 1522.2686,-527.9749 1516.5572,-576.1956 1423.5,-636.4913 1361.1931,-676.8625 1143.1956,-703.4507 1044.1461,-713.7204"/>
<polygon fill="#000000" stroke="#000000" points="1043.6811,-710.2496 1034.0893,-714.7492 1044.3936,-717.2132 1043.6811,-710.2496"/>
</g>
<!-- 17&#45;&gt;1 -->
<g id="edge43" class="edge">
<title>17&#45;&gt;1</title>
<path fill="none" stroke="#0000ff" stroke-width="2" d="M968.1679,-482.0753C941.5057,-495.5299 905.0696,-513.9167 878.2952,-527.4279"/>
<polygon fill="#0000ff" stroke="#0000ff" stroke-width="2" points="876.6104,-524.3577 869.2595,-531.9876 879.7641,-530.607 876.6104,-524.3577"/>
</g>
<!-- 17&#45;&gt;5 -->
<g id="edge53" class="edge">
<title>17&#45;&gt;5</title>
<path fill="none" stroke="#ff0000" stroke-width="2" d="M995.8774,-488.9586C968.7059,-576.3826 876.4579,-867.2975 843.5,-895.4913 842.5415,-896.3113 712.0196,-922.4442 643.0855,-936.2023"/>
<polygon fill="#ff0000" stroke="#ff0000" stroke-width="2" points="642.1039,-932.8291 632.9821,-938.2181 643.4737,-939.6937 642.1039,-932.8291"/>
<text text-anchor="middle" x="964.5" y="-658.2913" font-family="Times,serif" font-size="14.00" fill="#000000">Direct</text>
</g>
<!-- 17&#45;&gt;18 -->
<g id="edge17" class="edge">
<title>17&#45;&gt;18</title>
<path fill="none" stroke="#0000ff" stroke-width="2" d="M1040.7025,-481.3761C1083.8872,-501.2343 1157.2751,-534.8982 1220.5,-563.4913 1248.912,-576.3404 1281.086,-590.7212 1305.4003,-601.5545"/>
<polygon fill="#0000ff" stroke="#0000ff" stroke-width="2" points="1304.0813,-604.7984 1314.6403,-605.6692 1306.9289,-598.4038 1304.0813,-604.7984"/>
</g>
<!-- 17&#45;&gt;21 -->
<g id="edge62" class="edge">
<title>17&#45;&gt;21</title>
<path fill="none" stroke="#0000ff" stroke-width="2" d="M1010.6234,-488.9531C1012.3348,-495.2932 1014.0773,-502.1218 1015.5,-508.4913 1039.6977,-616.8241 1060.0945,-747.46 1068.4482,-803.6172"/>
<polygon fill="#0000ff" stroke="#0000ff" stroke-width="2" points="1064.9873,-804.1398 1069.9111,-813.521 1071.9122,-803.1169 1064.9873,-804.1398"/>
</g>
<!-- 17&#45;&gt;22 -->
<g id="edge87" class="edge">
<title>17&#45;&gt;22</title>
<path fill="none" stroke="#0000ff" stroke-width="2" d="M1002.5707,-490.4968C1000.8678,-538.6045 997.2607,-640.5029 995.5038,-690.1341"/>
<polygon fill="#0000ff" stroke="#0000ff" stroke-width="2" points="992.0045,-690.0554 995.1484,-700.173 999.0001,-690.3031 992.0045,-690.0554"/>
</g>
<!-- 18&#45;&gt;5 -->
<g id="edge55" class="edge">
<title>18&#45;&gt;5</title>
<path fill="none" stroke="#0000ff" stroke-dasharray="5,2" d="M1342.2949,-636.5838C1341.4101,-646.4034 1339.9266,-658.706 1337.5,-669.4913 1329.263,-706.1021 1328.6755,-716.6607 1310.5,-749.4913 1263.098,-835.1144 1215.2023,-834.2398 1121.5,-862.4913 1061.0142,-880.7279 1042.9175,-870.7357 980.5,-880.4913 944.3271,-886.145 935.5653,-889.1875 899.5,-895.4913 808.0914,-911.4685 700.6411,-928.7741 643.0192,-937.9349"/>
<polygon fill="#0000ff" stroke="#0000ff" points="642.1825,-934.5239 632.8549,-939.5485 643.28,-941.4373 642.1825,-934.5239"/>
<text text-anchor="middle" x="1328.5" y="-771.2913" font-family="Times,serif" font-size="14.00" fill="#000000">Indirect</text>
</g>
<!-- 18&#45;&gt;11 -->
<g id="edge52" class="edge">
<title>18&#45;&gt;11</title>
<path fill="none" stroke="#0000ff" stroke-dasharray="5,2" d="M1383.128,-622.0193C1461.4382,-631.392 1628.5,-664.3527 1628.5,-774.9913 1628.5,-774.9913 1628.5,-774.9913 1628.5,-944.4913 1628.5,-1005.8271 649.719,-1047.5117 434.8657,-1055.923"/>
<polygon fill="#0000ff" stroke="#0000ff" points="434.5023,-1052.4344 424.6459,-1056.3205 434.7744,-1059.4291 434.5023,-1052.4344"/>
<text text-anchor="middle" x="1657.5" y="-827.7913" font-family="Times,serif" font-size="14.00" fill="#000000">Indirect</text>
</g>
<!-- 18&#45;&gt;21 -->
<g id="edge89" class="edge">
<title>18&#45;&gt;21</title>
<path fill="none" stroke="#000000" d="M1335.512,-636.3216C1316.8824,-677.7581 1271.6665,-777.4252 1265.5,-782.4913 1243.5713,-800.5067 1170.3816,-815.5692 1120.7048,-824.056"/>
<polygon fill="#000000" stroke="#000000" points="1120.0814,-820.6116 1110.7968,-825.7153 1121.2376,-827.5155 1120.0814,-820.6116"/>
</g>
<!-- 18&#45;&gt;22 -->
<g id="edge79" class="edge">
<title>18&#45;&gt;22</title>
<path fill="none" stroke="#000000" d="M1306.7998,-626.2129C1275.6665,-632.9809 1229.9121,-643.4413 1190.5,-654.4913 1136.484,-669.6358 1075.1489,-690.223 1035.6993,-703.9134"/>
<polygon fill="#000000" stroke="#000000" points="1034.4504,-700.6421 1026.1591,-707.2379 1036.7539,-707.2523 1034.4504,-700.6421"/>
</g>
<!-- 19 -->
<g id="node20" class="node">
<title>19</title>
<polygon fill="#d3d3d3" stroke="#d3d3d3" points="543,-744.9913 490,-744.9913 490,-691.9913 543,-691.9913 543,-744.9913"/>
<text text-anchor="middle" x="516.5" y="-714.7913" font-family="Times,serif" font-size="14.00" fill="#000000">4.3.3</text>
</g>
<!-- 19&#45;&gt;5 -->
<g id="edge67" class="edge">
<title>19&#45;&gt;5</title>
<path fill="none" stroke="#000000" d="M543.1036,-743.5146C546.1462,-745.7224 549.3058,-747.7686 552.5,-749.4913 578.1305,-763.3143 597.9638,-744.243 615.5,-767.4913 644.848,-806.3988 632.6065,-864.7586 618.952,-903.7041"/>
<polygon fill="#000000" stroke="#000000" points="615.6399,-902.57 615.4745,-913.1636 622.21,-904.9854 615.6399,-902.57"/>
</g>
<!-- 19&#45;&gt;11 -->
<g id="edge80" class="edge">
<title>19&#45;&gt;11</title>
<path fill="none" stroke="#000000" d="M500.2159,-745.0731C491.1212,-760.7671 480.1212,-781.2671 472.5,-800.4913 437.2178,-889.489 449.5575,-918.6434 416.5,-1008.4913 415.4469,-1011.3535 414.2912,-1014.2775 413.0758,-1017.2015"/>
<polygon fill="#000000" stroke="#000000" points="409.8253,-1015.8999 409.0433,-1026.4658 416.2436,-1018.6936 409.8253,-1015.8999"/>
</g>
<!-- 19&#45;&gt;23 -->
<g id="edge40" class="edge">
<title>19&#45;&gt;23</title>
<path fill="none" stroke="#000000" d="M489.6778,-742.2277C486.6267,-744.7353 483.5259,-747.2025 480.5,-749.4913 453.2763,-770.0836 421.0852,-791.2851 396.3256,-806.9701"/>
<polygon fill="#000000" stroke="#000000" points="394.16,-804.1976 387.5628,-812.4878 397.8899,-810.1211 394.16,-804.1976"/>
</g>
<!-- 20&#45;&gt;1 -->
<g id="edge51" class="edge">
<title>20&#45;&gt;1</title>
<path fill="none" stroke="#000000" d="M859.5957,-254.9535C854.0726,-290.0185 842.1888,-370.118 837.5,-438 835.3409,-469.2581 836.7222,-477.1595 836.5,-508.4913 836.4968,-508.9357 836.4633,-509.0484 836.5,-509.4913 836.7104,-512.0329 837.0029,-514.6653 837.3465,-517.2969"/>
<polygon fill="#000000" stroke="#000000" points="833.8964,-517.89 838.8597,-527.2504 840.8169,-516.8379 833.8964,-517.89"/>
</g>
<!-- 20&#45;&gt;4 -->
<g id="edge49" class="edge">
<title>20&#45;&gt;4</title>
<path fill="none" stroke="#000000" d="M882.2456,-252.8399C895.0052,-263.0756 911.7938,-276.5433 925.8696,-287.835"/>
<polygon fill="#000000" stroke="#000000" points="923.8024,-290.6637 933.7929,-294.191 928.1827,-285.2034 923.8024,-290.6637"/>
</g>
<!-- 20&#45;&gt;14 -->
<g id="edge23" class="edge">
<title>20&#45;&gt;14</title>
<path fill="none" stroke="#000000" d="M866.6936,-254.9541C872.2338,-275.095 883.7999,-307.6067 904.5,-328 926.1446,-349.3238 957.4674,-363.1238 983.2157,-371.5675"/>
<polygon fill="#000000" stroke="#000000" points="982.1908,-374.9141 992.7793,-374.5459 984.2723,-368.2307 982.1908,-374.9141"/>
</g>
<!-- 20&#45;&gt;17 -->
<g id="edge9" class="edge">
<title>20&#45;&gt;17</title>
<path fill="none" stroke="#000000" d="M862.142,-255.0493C862.4588,-274.1259 864.9863,-304.6273 876.5,-328 897.5944,-370.8216 936.5908,-409.5618 965.8287,-434.6886"/>
<polygon fill="#000000" stroke="#000000" points="963.8929,-437.6346 973.7935,-441.4067 968.4062,-432.2838 963.8929,-437.6346"/>
</g>
<!-- 20&#45;&gt;18 -->
<g id="edge85" class="edge">
<title>20&#45;&gt;18</title>
<path fill="none" stroke="#000000" d="M902.2511,-240.7396C995.0892,-251.8002 1226.2503,-293.2812 1331.5,-438 1364.2546,-483.0377 1357.3896,-552.284 1350.0768,-590.591"/>
<polygon fill="#000000" stroke="#000000" points="1346.6191,-590.0295 1348.0349,-600.5293 1353.4759,-591.4383 1346.6191,-590.0295"/>
</g>
<!-- 20&#45;&gt;21 -->
<g id="edge48" class="edge">
<title>20&#45;&gt;21</title>
<path fill="none" stroke="#000000" d="M823.1779,-241.2796C744.6443,-250.2227 574.4293,-271.7449 557.5,-292 526.9167,-328.5917 514.7122,-322.8318 598.5,-490.4913 617.1486,-527.8072 628.4999,-533.5039 657.5,-563.4913 668.4795,-574.8446 859.0448,-741.2205 872.5,-749.4913 886.7881,-758.274 978.6478,-794.7766 1032.7741,-816.0023"/>
<polygon fill="#000000" stroke="#000000" points="1031.5028,-819.2632 1042.0906,-819.651 1034.0556,-812.7452 1031.5028,-819.2632"/>
</g>
<!-- 20&#45;&gt;22 -->
<g id="edge66" class="edge">
<title>20&#45;&gt;22</title>
<path fill="none" stroke="#000000" d="M822.7604,-240.4983C743.5067,-247.925 568.7498,-266.6822 514.5,-292 422.3573,-335.002 380.0138,-430.0624 443.5,-509.4913 509.6032,-592.1943 828.9665,-677.7785 948.8783,-707.5288"/>
<polygon fill="#000000" stroke="#000000" points="948.2963,-710.9901 958.8435,-709.9864 949.9725,-704.1937 948.2963,-710.9901"/>
</g>
<!-- 21&#45;&gt;11 -->
<g id="edge103" class="edge">
<title>21&#45;&gt;11</title>
<path fill="none" stroke="#0000ff" stroke-dasharray="5,2" d="M1072.7222,-849.6098C1072.0749,-886.6487 1064.7291,-970.7185 1013.5,-1008.4913 967.0682,-1042.7269 566.0732,-1053.9506 434.8627,-1056.7244"/>
<polygon fill="#0000ff" stroke="#0000ff" points="434.7345,-1053.2262 424.8087,-1056.9315 434.8787,-1060.2247 434.7345,-1053.2262"/>
<text text-anchor="middle" x="1094.5" y="-940.7913" font-family="Times,serif" font-size="14.00" fill="#000000">Indirect</text>
</g>
<!-- 22&#45;&gt;5 -->
<g id="edge74" class="edge">
<title>22&#45;&gt;5</title>
<path fill="none" stroke="#0000ff" stroke-dasharray="5,2" d="M979.4708,-735.5121C971.3461,-744.8406 961.2196,-756.6749 952.5,-767.4913 940.9518,-781.8164 937.3092,-784.9238 927.5,-800.4913 902.1734,-840.6852 916.7516,-867.3168 878.5,-895.4913 841.7349,-922.5708 710.8834,-936.2342 643.0135,-941.6326"/>
<polygon fill="#0000ff" stroke="#0000ff" points="642.387,-938.1704 632.6856,-942.4288 642.9251,-945.1497 642.387,-938.1704"/>
<text text-anchor="middle" x="956.5" y="-827.7913" font-family="Times,serif" font-size="14.00" fill="#000000">Indirect</text>
</g>
<!-- 22&#45;&gt;11 -->
<g id="edge83" class="edge">
<title>22&#45;&gt;11</title>
<path fill="none" stroke="#0000ff" stroke-dasharray="5,2" d="M999.0067,-736.4592C1005.2633,-765.8877 1012.9511,-824.8464 985.5,-862.4913 918.0506,-954.9876 557.701,-1027.792 434.688,-1050.2712"/>
<polygon fill="#0000ff" stroke="#0000ff" points="433.766,-1046.8811 424.5501,-1052.1077 435.0138,-1053.769 433.766,-1046.8811"/>
<text text-anchor="middle" x="994.5" y="-884.2913" font-family="Times,serif" font-size="14.00" fill="#000000">Indirect</text>
</g>
<!-- 22&#45;&gt;21 -->
<g id="edge90" class="edge">
<title>22&#45;&gt;21</title>
<path fill="none" stroke="#000000" d="M1006.6875,-736.1475C1019.5666,-754.8057 1040.0068,-784.4178 1054.6912,-805.6913"/>
<polygon fill="#000000" stroke="#000000" points="1051.8369,-807.7175 1060.3981,-813.959 1057.5977,-803.741 1051.8369,-807.7175"/>
</g>
<!-- 22&#45;&gt;23 -->
<g id="edge2" class="edge">
<title>22&#45;&gt;23</title>
<path fill="none" stroke="#0000ff" stroke-dasharray="5,2" d="M956.1711,-724.2733C843.7577,-741.2646 519.8431,-790.4758 472.5,-800.4913 447.3864,-805.8041 419.5931,-813.1785 397.5088,-819.4019"/>
<polygon fill="#0000ff" stroke="#0000ff" points="396.4527,-816.0635 387.7938,-822.1688 398.3701,-822.7958 396.4527,-816.0635"/>
<text text-anchor="middle" x="695.5" y="-771.2913" font-family="Times,serif" font-size="14.00" fill="#000000">Indirect</text>
</g>
<!-- 23&#45;&gt;5 -->
<g id="edge73" class="edge">
<title>23&#45;&gt;5</title>
<path fill="none" stroke="#000000" d="M387.7115,-842.8967C412.8022,-852.3104 448.8019,-866.3711 479.5,-880.4913 507.3155,-893.2856 537.8176,-909.2868 561.3647,-922.0888"/>
<polygon fill="#000000" stroke="#000000" points="559.8985,-925.2761 570.3517,-927.0028 563.2568,-919.1343 559.8985,-925.2761"/>
</g>
<!-- 23&#45;&gt;11 -->
<g id="edge1" class="edge">
<title>23&#45;&gt;11</title>
<path fill="none" stroke="#000000" d="M359.1398,-862.7395C362.4708,-898.2895 369.0598,-957.9644 379.5,-1008.4913 380.0435,-1011.1217 380.655,-1013.8174 381.3107,-1016.5258"/>
<polygon fill="#000000" stroke="#000000" points="377.9449,-1017.4901 383.8363,-1026.2958 384.7221,-1015.7381 377.9449,-1017.4901"/>
</g>
<!-- 24 -->
<g id="node25" class="node">
<title>24</title>
<polygon fill="#d3d3d3" stroke="#d3d3d3" points="614,-744.9913 561,-744.9913 561,-691.9913 614,-691.9913 614,-744.9913"/>
<text text-anchor="middle" x="587.5" y="-714.7913" font-family="Times,serif" font-size="14.00" fill="#000000">4.3.5</text>
</g>
<!-- 24&#45;&gt;5 -->
<g id="edge75" class="edge">
<title>24&#45;&gt;5</title>
<path fill="none" stroke="#000000" d="M614.0974,-738.6616C631.5488,-751.9268 651.2083,-766.9431 651.5,-767.4913 663.1886,-789.4606 672.085,-852.4421 653.5,-895.4913 650.3196,-902.8582 645.4263,-909.6307 639.8888,-915.6389"/>
<polygon fill="#000000" stroke="#000000" points="637.2657,-913.3102 632.6105,-922.8276 642.1847,-918.2905 637.2657,-913.3102"/>
</g>
<!-- 24&#45;&gt;11 -->
<g id="edge50" class="edge">
<title>24&#45;&gt;11</title>
<path fill="none" stroke="#000000" d="M614.2236,-728.6672C631.8168,-736.6793 654.0099,-749.5136 667.5,-767.4913 723.4164,-842.0088 703.8687,-906.284 641.5,-975.4913 613.6053,-1006.4446 497.9626,-1035.2135 434.926,-1048.9837"/>
<polygon fill="#000000" stroke="#000000" points="433.9498,-1045.6136 424.9115,-1051.1418 435.4245,-1052.4565 433.9498,-1045.6136"/>
</g>
<!-- 24&#45;&gt;23 -->
<g id="edge25" class="edge">
<title>24&#45;&gt;23</title>
<path fill="none" stroke="#000000" d="M560.6697,-743.7706C557.995,-745.8215 555.25,-747.7651 552.5,-749.4913 502.426,-780.9237 438.2209,-805.141 397.2097,-818.8561"/>
<polygon fill="#000000" stroke="#000000" points="395.9637,-815.5814 387.5593,-822.0326 398.1523,-822.2305 395.9637,-815.5814"/>
</g>
</g>
</svg>
