<?xml version="1.0" encoding="UTF-8" standalone="no"?>
<!DOCTYPE svg PUBLIC "-//W3C//DTD SVG 1.1//EN"
 "http://www.w3.org/Graphics/SVG/1.1/DTD/svg11.dtd">
<!-- Generated by graphviz version 2.40.1 (0)
 -->
<!-- Title: stable Pages: 1 -->
<svg width="420pt" height="252pt"
 viewBox="0.00 0.00 420.00 252.25" xmlns="http://www.w3.org/2000/svg" xmlns:xlink="http://www.w3.org/1999/xlink">
<g id="graph0" class="graph" transform="scale(1 1) rotate(0) translate(4 248.2456)">
<title>stable</title>
<polygon fill="#ffffff" stroke="transparent" points="-4,4 -4,-248.2456 416,-248.2456 416,4 -4,4"/>
<text text-anchor="middle" x="206" y="-7.8" font-family="Times,serif" font-size="14.00" fill="#000000">stable&#45;4.4_amd64 (2020&#45;05&#45;28) [D=Direct / I=Indirect]</text>
<!-- 1 -->
<g id="node1" class="node">
<title>1</title>
<ellipse fill="#d3d3d3" stroke="#d3d3d3" cx="178.4404" cy="-122.2456" rx="40.0939" ry="18"/>
<text text-anchor="middle" x="178.4404" y="-118.5456" font-family="Times,serif" font-size="14.00" fill="#000000">4.3.21</text>
</g>
<!-- 3 -->
<g id="node3" class="node">
<title>3</title>
<polygon fill="#9acd32" stroke="#9acd32" points="242.9404,-244.2456 189.9404,-244.2456 189.9404,-191.2456 242.9404,-191.2456 242.9404,-244.2456"/>
<text text-anchor="middle" x="216.4404" y="-214.0456" font-family="Times,serif" font-size="14.00" fill="#000000">4.4.4</text>
</g>
<!-- 1&#45;&gt;3 -->
<g id="edge3" class="edge">
<title>1&#45;&gt;3</title>
<path fill="none" stroke="#0000ff" stroke-dasharray="5,2" d="M185.5879,-140.2085C190.2345,-151.886 196.4556,-167.5208 202.0942,-181.6913"/>
<polygon fill="#0000ff" stroke="#0000ff" points="198.929,-183.2036 205.8782,-191.2011 205.433,-180.6156 198.929,-183.2036"/>
<text text-anchor="middle" x="201.9404" y="-162.0456" font-family="Times,serif" font-size="14.00" fill="#000000">I</text>
</g>
<!-- 2 -->
<g id="node2" class="node">
<title>2</title>
<polygon fill="#fa8072" stroke="#fa8072" points="266.1764,-50.7162 216.4404,-63.2233 166.7044,-50.7162 185.7018,-30.4792 247.179,-30.4792 266.1764,-50.7162"/>
<polygon fill="none" stroke="#fa8072" points="273.7718,-52.952 216.4404,-67.3692 159.109,-52.952 183.9814,-26.4569 248.8994,-26.4569 273.7718,-52.952"/>
<text text-anchor="middle" x="216.4404" y="-41.4228" font-family="Times,serif" font-size="14.00" fill="#000000">4.3.19</text>
</g>
<!-- 2&#45;&gt;1 -->
<g id="edge1" class="edge">
<title>2&#45;&gt;1</title>
<path fill="none" stroke="#0000ff" d="M206.6545,-64.9839C202.0883,-74.251 196.5854,-85.4194 191.6566,-95.4228"/>
<polygon fill="#0000ff" stroke="#0000ff" points="188.4364,-94.0394 187.1561,-104.5566 194.7156,-97.1334 188.4364,-94.0394"/>
</g>
<!-- 2&#45;&gt;3 -->
<g id="edge2" class="edge">
<title>2&#45;&gt;3</title>
<path fill="none" stroke="#ff0000" stroke-width="2" d="M221.3652,-66.3358C223.7175,-77.54 226.2705,-91.562 227.4404,-104.2456 229.8106,-129.9433 226.9149,-158.8993 223.5014,-181.1324"/>
<polygon fill="#ff0000" stroke="#ff0000" stroke-width="2" points="220.0231,-180.7156 221.8596,-191.1501 226.931,-181.8478 220.0231,-180.7156"/>
<text text-anchor="middle" x="233.4404" y="-118.5456" font-family="Times,serif" font-size="14.00" fill="#000000">D</text>
</g>
</g>
</svg>
