<?xml version="1.0" encoding="UTF-8" standalone="no"?>
<!DOCTYPE svg PUBLIC "-//W3C//DTD SVG 1.1//EN"
 "http://www.w3.org/Graphics/SVG/1.1/DTD/svg11.dtd">
<!-- Generated by graphviz version 2.40.1 (0)
 -->
<!-- Title: stable Pages: 1 -->
<svg width="678pt" height="296pt"
 viewBox="0.00 0.00 677.50 296.00" xmlns="http://www.w3.org/2000/svg" xmlns:xlink="http://www.w3.org/1999/xlink">
<g id="graph0" class="graph" transform="scale(1 1) rotate(0) translate(4 292)">
<title>stable</title>
<polygon fill="#ffffff" stroke="transparent" points="-4,4 -4,-292 673.5,-292 673.5,4 -4,4"/>
<text text-anchor="middle" x="334.75" y="-7.8" font-family="Times,serif" font-size="14.00" fill="#000000">stable&#45;4.2_amd64 (2020&#45;06&#45;03)</text>
<!-- 0 -->
<g id="node1" class="node">
<title>0</title>
<ellipse fill="#d3d3d3" stroke="#d3d3d3" cx="271" cy="-172" rx="40.0939" ry="18"/>
<text text-anchor="middle" x="271" y="-168.3" font-family="Times,serif" font-size="14.00" fill="#000000">4.1.38</text>
</g>
<!-- 23 -->
<g id="node5" class="node">
<title>23</title>
<polygon fill="#9acd32" stroke="#9acd32" points="62,-288 0,-288 0,-226 62,-226 62,-288"/>
<text text-anchor="middle" x="31" y="-253.3" font-family="Times,serif" font-size="14.00" fill="#000000">4.2.26</text>
</g>
<!-- 0&#45;&gt;23 -->
<g id="edge3" class="edge">
<title>0&#45;&gt;23</title>
<path fill="none" stroke="#0000ff" stroke-dasharray="5,2" d="M232.5375,-177.7331C191.0392,-184.9601 123.8127,-199.7345 71,-226 70.9066,-226.0465 70.8132,-226.0932 70.7198,-226.1401"/>
<polygon fill="#0000ff" stroke="#0000ff" points="69.0441,-223.0662 62.1144,-231.0806 72.5294,-229.1369 69.0441,-223.0662"/>
</g>
<!-- 24 -->
<g id="node6" class="node">
<title>24</title>
<polygon fill="#9acd32" stroke="#9acd32" points="142,-288 80,-288 80,-226 142,-226 142,-288"/>
<text text-anchor="middle" x="111" y="-253.3" font-family="Times,serif" font-size="14.00" fill="#000000">4.2.27</text>
</g>
<!-- 0&#45;&gt;24 -->
<g id="edge2" class="edge">
<title>0&#45;&gt;24</title>
<path fill="none" stroke="#0000ff" stroke-dasharray="5,2" d="M239.9169,-183.6249C215.0801,-193.465 179.7857,-208.7026 151,-226 150.9106,-226.0537 150.8211,-226.1076 150.7316,-226.1617"/>
<polygon fill="#0000ff" stroke="#0000ff" points="148.8656,-223.2002 142.3921,-231.5873 152.6829,-229.0677 148.8656,-223.2002"/>
</g>
<!-- 26 -->
<g id="node7" class="node">
<title>26</title>
<polygon fill="#9acd32" stroke="#9acd32" points="222,-288 160,-288 160,-226 222,-226 222,-288"/>
<text text-anchor="middle" x="191" y="-253.3" font-family="Times,serif" font-size="14.00" fill="#000000">4.2.28</text>
</g>
<!-- 0&#45;&gt;26 -->
<g id="edge10" class="edge">
<title>0&#45;&gt;26</title>
<path fill="none" stroke="#0000ff" stroke-dasharray="5,2" d="M255.1946,-188.7933C247.2066,-197.2805 237.1565,-207.9587 227.3952,-218.3301"/>
<polygon fill="#0000ff" stroke="#0000ff" points="224.677,-216.1114 220.372,-225.7923 229.7744,-220.909 224.677,-216.1114"/>
</g>
<!-- 32 -->
<g id="node8" class="node">
<title>32</title>
<polygon fill="#9acd32" stroke="#9acd32" points="302,-288 240,-288 240,-226 302,-226 302,-288"/>
<text text-anchor="middle" x="271" y="-253.3" font-family="Times,serif" font-size="14.00" fill="#000000">4.2.25</text>
</g>
<!-- 0&#45;&gt;32 -->
<g id="edge8" class="edge">
<title>0&#45;&gt;32</title>
<path fill="none" stroke="#0000ff" stroke-dasharray="5,2" d="M271,-190.0263C271,-197.6034 271,-206.7549 271,-215.8258"/>
<polygon fill="#0000ff" stroke="#0000ff" points="267.5001,-215.9447 271,-225.9447 274.5001,-215.9447 267.5001,-215.9447"/>
</g>
<!-- 33 -->
<g id="node9" class="node">
<title>33</title>
<polygon fill="#9acd32" stroke="#9acd32" points="382,-288 320,-288 320,-226 382,-226 382,-288"/>
<text text-anchor="middle" x="351" y="-253.3" font-family="Times,serif" font-size="14.00" fill="#000000">4.2.29</text>
</g>
<!-- 0&#45;&gt;33 -->
<g id="edge11" class="edge">
<title>0&#45;&gt;33</title>
<path fill="none" stroke="#0000ff" stroke-dasharray="5,2" d="M286.8054,-188.7933C294.7934,-197.2805 304.8435,-207.9587 314.6048,-218.3301"/>
<polygon fill="#0000ff" stroke="#0000ff" points="312.2256,-220.909 321.628,-225.7923 317.323,-216.1114 312.2256,-220.909"/>
</g>
<!-- 38 -->
<g id="node11" class="node">
<title>38</title>
<polygon fill="#9acd32" stroke="#9acd32" points="462,-288 400,-288 400,-226 462,-226 462,-288"/>
<text text-anchor="middle" x="431" y="-253.3" font-family="Times,serif" font-size="14.00" fill="#000000">4.2.33</text>
</g>
<!-- 0&#45;&gt;38 -->
<g id="edge4" class="edge">
<title>0&#45;&gt;38</title>
<path fill="none" stroke="#0000ff" stroke-dasharray="5,2" d="M302.0831,-183.6249C326.9199,-193.465 362.2143,-208.7026 391,-226 391.0894,-226.0537 391.1789,-226.1076 391.2684,-226.1617"/>
<polygon fill="#0000ff" stroke="#0000ff" points="389.3171,-229.0677 399.6079,-231.5873 393.1344,-223.2002 389.3171,-229.0677"/>
</g>
<!-- 7 -->
<g id="node2" class="node">
<title>7</title>
<ellipse fill="#d3d3d3" stroke="#d3d3d3" cx="421" cy="-172" rx="40.0939" ry="18"/>
<text text-anchor="middle" x="421" y="-168.3" font-family="Times,serif" font-size="14.00" fill="#000000">4.1.41</text>
</g>
<!-- 7&#45;&gt;38 -->
<g id="edge9" class="edge">
<title>7&#45;&gt;38</title>
<path fill="none" stroke="#0000ff" stroke-dasharray="5,2" d="M423.1207,-190.0263C424.0122,-197.6034 425.0888,-206.7549 426.156,-215.8258"/>
<polygon fill="#0000ff" stroke="#0000ff" points="422.7019,-216.4222 427.3464,-225.9447 429.654,-215.6042 422.7019,-216.4222"/>
</g>
<!-- 15 -->
<g id="node3" class="node">
<title>15</title>
<polygon fill="#fa8072" stroke="#fa8072" points="470.736,-76.0934 421,-88.6005 371.264,-76.0934 390.2614,-55.8564 451.7386,-55.8564 470.736,-76.0934"/>
<polygon fill="none" stroke="#fa8072" points="478.3314,-78.3292 421,-92.7463 363.6686,-78.3292 388.541,-51.8341 453.459,-51.8341 478.3314,-78.3292"/>
<text text-anchor="middle" x="421" y="-66.8" font-family="Times,serif" font-size="14.00" fill="#000000">4.1.28</text>
</g>
<!-- 15&#45;&gt;0 -->
<g id="edge6" class="edge">
<title>15&#45;&gt;0</title>
<path fill="none" stroke="#0000ff" d="M396.8999,-86.8077C371.0822,-104.2777 330.0281,-132.0577 301.8638,-151.1155"/>
<polygon fill="#0000ff" stroke="#0000ff" points="299.8887,-148.2259 293.5681,-156.7289 303.8117,-154.0234 299.8887,-148.2259"/>
</g>
<!-- 15&#45;&gt;7 -->
<g id="edge1" class="edge">
<title>15&#45;&gt;7</title>
<path fill="none" stroke="#0000ff" d="M421,-92.7746C421,-107.6626 421,-127.3847 421,-143.4267"/>
<polygon fill="#0000ff" stroke="#0000ff" points="417.5001,-143.8401 421,-153.8401 424.5001,-143.8401 417.5001,-143.8401"/>
</g>
<!-- 37 -->
<g id="node10" class="node">
<title>37</title>
<ellipse fill="#d3d3d3" stroke="#d3d3d3" cx="520" cy="-172" rx="40.0939" ry="18"/>
<text text-anchor="middle" x="520" y="-168.3" font-family="Times,serif" font-size="14.00" fill="#000000">4.1.34</text>
</g>
<!-- 15&#45;&gt;37 -->
<g id="edge5" class="edge">
<title>15&#45;&gt;37</title>
<path fill="none" stroke="#0000ff" d="M438.6992,-88.6462C454.856,-105.2109 478.8512,-129.8121 496.5888,-147.9977"/>
<polygon fill="#0000ff" stroke="#0000ff" points="494.2785,-150.6417 503.7665,-155.3565 499.2896,-145.754 494.2785,-150.6417"/>
</g>
<!-- 22 -->
<g id="node4" class="node">
<title>22</title>
<polygon fill="#9acd32" stroke="#9acd32" points="551,-288 489,-288 489,-226 551,-226 551,-288"/>
<text text-anchor="middle" x="520" y="-253.3" font-family="Times,serif" font-size="14.00" fill="#000000">4.2.21</text>
</g>
<!-- 37&#45;&gt;22 -->
<g id="edge7" class="edge">
<title>37&#45;&gt;22</title>
<path fill="none" stroke="#0000ff" stroke-dasharray="5,2" d="M520,-190.0263C520,-197.6034 520,-206.7549 520,-215.8258"/>
<polygon fill="#0000ff" stroke="#0000ff" points="516.5001,-215.9447 520,-225.9447 523.5001,-215.9447 516.5001,-215.9447"/>
</g>
<!-- Key -->
<g id="node12" class="node">
<title>Key</title>
<text text-anchor="start" x="568" y="-83.3" font-family="Times,serif" font-weight="bold" font-size="14.00" fill="#000000">Key</text>
<text text-anchor="start" x="521" y="-66.3" font-family="Times,serif" font-size="14.00" fill="#000000">Direct Path</text>
<text text-anchor="start" x="621" y="-66.3" font-family="Times,serif" font-size="14.00" fill="#ff0000">⟶</text>
<text text-anchor="start" x="521" y="-50.3" font-family="Times,serif" font-size="14.00" fill="#000000">Indirect Path</text>
<text text-anchor="start" x="617" y="-50.3" font-family="Times,serif" font-size="14.00" fill="#0000ff">→ ⤏</text>
<polygon fill="none" stroke="#000000" stroke-dasharray="1,5" points="518.5,-45 518.5,-96 647.5,-96 647.5,-45 518.5,-45"/>
</g>
</g>
</svg>
