<?xml version="1.0" encoding="UTF-8" standalone="no"?>
<!DOCTYPE svg PUBLIC "-//W3C//DTD SVG 1.1//EN"
 "http://www.w3.org/Graphics/SVG/1.1/DTD/svg11.dtd">
<!-- Generated by graphviz version 2.40.1 (0)
 -->
<!-- Title: stable Pages: 1 -->
<svg width="255pt" height="299pt"
 viewBox="0.00 0.00 255.00 299.49" xmlns="http://www.w3.org/2000/svg" xmlns:xlink="http://www.w3.org/1999/xlink">
<g id="graph0" class="graph" transform="scale(1 1) rotate(0) translate(4 295.4913)">
<title>stable</title>
<polygon fill="#ffffff" stroke="transparent" points="-4,4 -4,-295.4913 251,-295.4913 251,4 -4,4"/>
<text text-anchor="middle" x="123.5" y="-276.2913" font-family="Times,serif" font-size="14.00" fill="#000000">stable&#45;4.4 (2020&#45;05&#45;14) [amd64]</text>
<!-- 0 -->
<g id="node1" class="node">
<title>0</title>
<ellipse fill="#d3d3d3" stroke="#d3d3d3" cx="92.6371" cy="-178.4913" rx="40.0939" ry="18"/>
<text text-anchor="middle" x="92.6371" y="-174.7913" font-family="Times,serif" font-size="14.00" fill="#000000">4.3.18</text>
</g>
<!-- 1 -->
<g id="node2" class="node">
<title>1</title>
<ellipse fill="#d3d3d3" stroke="#d3d3d3" cx="92.6371" cy="-250.4913" rx="40.0939" ry="18"/>
<text text-anchor="middle" x="92.6371" y="-246.7913" font-family="Times,serif" font-size="14.00" fill="#000000">4.3.19</text>
</g>
<!-- 0&#45;&gt;1 -->
<g id="edge5" class="edge">
<title>0&#45;&gt;1</title>
<path fill="none" stroke="#000000" d="M92.6371,-196.6599C92.6371,-204.3603 92.6371,-213.5169 92.6371,-222.0747"/>
<polygon fill="#000000" stroke="#000000" points="89.1372,-222.078 92.6371,-232.078 96.1372,-222.0781 89.1372,-222.078"/>
</g>
<!-- 2 -->
<g id="node3" class="node">
<title>2</title>
<polygon fill="#fa8072" stroke="#fa8072" points="207.4632,-103.8605 157.6371,-116.4157 107.8111,-103.8605 126.8429,-83.5458 188.4314,-83.5458 207.4632,-103.8605"/>
<polygon fill="none" stroke="#fa8072" points="215.0723,-106.1049 157.6371,-120.5775 100.202,-106.1049 125.1193,-79.508 190.155,-79.508 215.0723,-106.1049"/>
<polygon fill="none" stroke="#fa8072" points="222.6814,-108.3494 157.6371,-124.7393 92.5929,-108.3494 123.3957,-75.4702 191.8786,-75.4702 222.6814,-108.3494"/>
<text text-anchor="middle" x="157.6371" y="-94.5456" font-family="Times,serif" font-size="14.00" fill="#000000">4.3.13</text>
</g>
<!-- 2&#45;&gt;0 -->
<g id="edge1" class="edge">
<title>2&#45;&gt;0</title>
<path fill="none" stroke="#0000ff" stroke-width="2" d="M139.531,-120.5985C131.2909,-130.7713 121.5038,-142.854 113.0078,-153.3427"/>
<polygon fill="#0000ff" stroke="#0000ff" stroke-width="2" points="110.0998,-151.3722 106.5252,-161.3458 115.5392,-155.7782 110.0998,-151.3722"/>
</g>
<!-- 2&#45;&gt;1 -->
<g id="edge4" class="edge">
<title>2&#45;&gt;1</title>
<path fill="none" stroke="#0000ff" stroke-width="2" d="M157.3582,-124.9088C156.2056,-145.3981 152.5176,-173.919 141.6371,-196.4913 136.1952,-207.7809 127.6343,-218.4145 119.1805,-227.211"/>
<polygon fill="#0000ff" stroke="#0000ff" stroke-width="2" points="116.5171,-224.9223 111.8602,-234.4388 121.4352,-229.9035 116.5171,-224.9223"/>
</g>
<!-- 3 -->
<g id="node4" class="node">
<title>3</title>
<ellipse fill="#d3d3d3" stroke="#d3d3d3" cx="64.6371" cy="-18" rx="40.0939" ry="18"/>
<text text-anchor="middle" x="64.6371" y="-14.3" font-family="Times,serif" font-size="14.00" fill="#000000">4.3.12</text>
</g>
<!-- 3&#45;&gt;0 -->
<g id="edge6" class="edge">
<title>3&#45;&gt;0</title>
<path fill="none" stroke="#000000" d="M67.7947,-36.0984C72.6471,-63.9119 81.9773,-117.3908 87.72,-150.3069"/>
<polygon fill="#000000" stroke="#000000" points="84.2815,-150.9631 89.4482,-160.2128 91.1774,-149.76 84.2815,-150.9631"/>
</g>
<!-- 3&#45;&gt;1 -->
<g id="edge2" class="edge">
<title>3&#45;&gt;1</title>
<path fill="none" stroke="#000000" d="M57.1118,-35.9252C44.4271,-68.9008 22.1729,-140.8954 43.6371,-196.4913 48.151,-208.1829 56.5017,-218.9076 65.0466,-227.6647"/>
<polygon fill="#000000" stroke="#000000" points="62.8749,-230.4315 72.5142,-234.8286 67.7209,-225.3801 62.8749,-230.4315"/>
</g>
<!-- 3&#45;&gt;2 -->
<g id="edge3" class="edge">
<title>3&#45;&gt;2</title>
<path fill="none" stroke="#000000" d="M83.4571,-34.2389C94.9041,-44.116 109.8697,-57.0292 123.3585,-68.6681"/>
<polygon fill="#000000" stroke="#000000" points="121.2344,-71.4581 131.0921,-75.3411 125.8074,-66.1583 121.2344,-71.4581"/>
</g>
</g>
</svg>
