<?xml version="1.0" encoding="UTF-8" standalone="no"?>
<!DOCTYPE svg PUBLIC "-//W3C//DTD SVG 1.1//EN"
 "http://www.w3.org/Graphics/SVG/1.1/DTD/svg11.dtd">
<!-- Generated by graphviz version 2.40.1 (0)
 -->
<!-- Title: stable Pages: 1 -->
<svg width="255pt" height="227pt"
 viewBox="0.00 0.00 255.00 227.49" xmlns="http://www.w3.org/2000/svg" xmlns:xlink="http://www.w3.org/1999/xlink">
<g id="graph0" class="graph" transform="scale(1 1) rotate(0) translate(4 223.4913)">
<title>stable</title>
<polygon fill="#ffffff" stroke="transparent" points="-4,4 -4,-223.4913 251,-223.4913 251,4 -4,4"/>
<text text-anchor="middle" x="123.5" y="-204.2913" font-family="Times,serif" font-size="14.00" fill="#000000">stable&#45;4.4 (2020&#45;05&#45;12) [amd64]</text>
<!-- 0 -->
<g id="node1" class="node">
<title>0</title>
<ellipse fill="#d3d3d3" stroke="#d3d3d3" cx="87.6371" cy="-178.4913" rx="40.0939" ry="18"/>
<text text-anchor="middle" x="87.6371" y="-174.7913" font-family="Times,serif" font-size="14.00" fill="#000000">4.3.18</text>
</g>
<!-- 1 -->
<g id="node2" class="node">
<title>1</title>
<ellipse fill="#d3d3d3" stroke="#d3d3d3" cx="87.6371" cy="-18" rx="40.0939" ry="18"/>
<text text-anchor="middle" x="87.6371" y="-14.3" font-family="Times,serif" font-size="14.00" fill="#000000">4.3.12</text>
</g>
<!-- 1&#45;&gt;0 -->
<g id="edge3" class="edge">
<title>1&#45;&gt;0</title>
<path fill="none" stroke="#000000" d="M76.1682,-35.689C70.2596,-45.8643 63.6714,-59.1465 60.6371,-72 55.2771,-94.7054 55.2771,-101.7859 60.6371,-124.4913 62.8417,-133.8301 66.9224,-143.3953 71.2554,-151.8308"/>
<polygon fill="#000000" stroke="#000000" points="68.2952,-153.7123 76.1682,-160.8022 74.435,-150.3501 68.2952,-153.7123"/>
</g>
<!-- 2 -->
<g id="node3" class="node">
<title>2</title>
<polygon fill="#fa8072" stroke="#fa8072" points="184.4632,-103.8605 134.6371,-116.4157 84.8111,-103.8605 103.8429,-83.5458 165.4314,-83.5458 184.4632,-103.8605"/>
<polygon fill="none" stroke="#fa8072" points="192.0723,-106.1049 134.6371,-120.5775 77.202,-106.1049 102.1193,-79.508 167.155,-79.508 192.0723,-106.1049"/>
<polygon fill="none" stroke="#fa8072" points="199.6814,-108.3494 134.6371,-124.7393 69.5929,-108.3494 100.3957,-75.4702 168.8786,-75.4702 199.6814,-108.3494"/>
<text text-anchor="middle" x="134.6371" y="-94.5456" font-family="Times,serif" font-size="14.00" fill="#000000">4.3.13</text>
</g>
<!-- 1&#45;&gt;2 -->
<g id="edge2" class="edge">
<title>1&#45;&gt;2</title>
<path fill="none" stroke="#000000" d="M98.068,-35.8091C103.339,-44.8087 109.8964,-56.0044 115.9968,-66.42"/>
<polygon fill="#000000" stroke="#000000" points="113.1222,-68.4375 121.1964,-75.2975 119.1625,-64.8997 113.1222,-68.4375"/>
</g>
<!-- 2&#45;&gt;0 -->
<g id="edge1" class="edge">
<title>2&#45;&gt;0</title>
<path fill="none" stroke="#0000ff" stroke-width="2" d="M121.0428,-121.456C115.3969,-131.0955 108.8173,-142.3292 102.9976,-152.2655"/>
<polygon fill="#0000ff" stroke="#0000ff" stroke-width="2" points="99.9491,-150.5452 97.9152,-160.943 105.9893,-154.083 99.9491,-150.5452"/>
</g>
</g>
</svg>
