<?xml version="1.0" encoding="UTF-8" standalone="no"?>
<!DOCTYPE svg PUBLIC "-//W3C//DTD SVG 1.1//EN"
 "http://www.w3.org/Graphics/SVG/1.1/DTD/svg11.dtd">
<!-- Generated by graphviz version 2.40.1 (0)
 -->
<!-- Title: stable Pages: 1 -->
<svg width="255pt" height="299pt"
 viewBox="0.00 0.00 255.00 299.49" xmlns="http://www.w3.org/2000/svg" xmlns:xlink="http://www.w3.org/1999/xlink">
<g id="graph0" class="graph" transform="scale(1 1) rotate(0) translate(4 295.4913)">
<title>stable</title>
<polygon fill="#ffffff" stroke="transparent" points="-4,4 -4,-295.4913 251,-295.4913 251,4 -4,4"/>
<text text-anchor="middle" x="123.5" y="-276.2913" font-family="Times,serif" font-size="14.00" fill="#000000">stable&#45;4.4 (2020&#45;05&#45;16) [amd64]</text>
<!-- 0 -->
<g id="node1" class="node">
<title>0</title>
<ellipse fill="#d3d3d3" stroke="#d3d3d3" cx="81.9913" cy="-178.4913" rx="40.0939" ry="18"/>
<text text-anchor="middle" x="81.9913" y="-174.7913" font-family="Times,serif" font-size="14.00" fill="#000000">4.3.18</text>
</g>
<!-- 3 -->
<g id="node4" class="node">
<title>3</title>
<ellipse fill="#d3d3d3" stroke="#d3d3d3" cx="149.9913" cy="-250.4913" rx="40.0939" ry="18"/>
<text text-anchor="middle" x="149.9913" y="-246.7913" font-family="Times,serif" font-size="14.00" fill="#000000">4.3.19</text>
</g>
<!-- 0&#45;&gt;3 -->
<g id="edge2" class="edge">
<title>0&#45;&gt;3</title>
<path fill="none" stroke="#000000" d="M97.7628,-195.1905C106.5169,-204.4596 117.56,-216.1523 127.2346,-226.3959"/>
<polygon fill="#000000" stroke="#000000" points="124.8946,-229.0157 134.3054,-233.8826 129.9837,-224.2093 124.8946,-229.0157"/>
</g>
<!-- 1 -->
<g id="node2" class="node">
<title>1</title>
<polygon fill="#fa8072" stroke="#fa8072" points="171.8174,-103.8605 121.9913,-116.4157 72.1652,-103.8605 91.1971,-83.5458 152.7855,-83.5458 171.8174,-103.8605"/>
<polygon fill="none" stroke="#fa8072" points="179.4265,-106.1049 121.9913,-120.5775 64.5561,-106.1049 89.4735,-79.508 154.5091,-79.508 179.4265,-106.1049"/>
<polygon fill="none" stroke="#fa8072" points="187.0356,-108.3494 121.9913,-124.7393 56.947,-108.3494 87.7499,-75.4702 156.2327,-75.4702 187.0356,-108.3494"/>
<text text-anchor="middle" x="121.9913" y="-94.5456" font-family="Times,serif" font-size="14.00" fill="#000000">4.3.13</text>
</g>
<!-- 1&#45;&gt;0 -->
<g id="edge1" class="edge">
<title>1&#45;&gt;0</title>
<path fill="none" stroke="#0000ff" stroke-width="2" d="M110.2064,-121.888C105.5398,-131.2498 100.1509,-142.0606 95.3412,-151.7096"/>
<polygon fill="#0000ff" stroke="#0000ff" stroke-width="2" points="92.1014,-150.3637 90.7726,-160.8748 98.3662,-153.4865 92.1014,-150.3637"/>
</g>
<!-- 1&#45;&gt;3 -->
<g id="edge4" class="edge">
<title>1&#45;&gt;3</title>
<path fill="none" stroke="#0000ff" stroke-width="2" d="M126.6779,-123.7281C131.6752,-150.9 139.5699,-193.8261 144.7648,-222.0727"/>
<polygon fill="#0000ff" stroke="#0000ff" stroke-width="2" points="141.3608,-222.9143 146.6119,-232.1163 148.2453,-221.6481 141.3608,-222.9143"/>
</g>
<!-- 2 -->
<g id="node3" class="node">
<title>2</title>
<ellipse fill="#d3d3d3" stroke="#d3d3d3" cx="121.9913" cy="-18" rx="40.0939" ry="18"/>
<text text-anchor="middle" x="121.9913" y="-14.3" font-family="Times,serif" font-size="14.00" fill="#000000">4.3.12</text>
</g>
<!-- 2&#45;&gt;0 -->
<g id="edge5" class="edge">
<title>2&#45;&gt;0</title>
<path fill="none" stroke="#000000" d="M93.0434,-30.7662C76.5867,-39.7216 57.4306,-53.4265 47.9913,-72 37.4216,-92.7977 41.5226,-102.0766 47.9913,-124.4913 50.864,-134.4452 56.1749,-144.3327 61.7593,-152.874"/>
<polygon fill="#000000" stroke="#000000" points="58.9973,-155.0321 67.5872,-161.234 64.7397,-151.029 58.9973,-155.0321"/>
</g>
<!-- 2&#45;&gt;1 -->
<g id="edge3" class="edge">
<title>2&#45;&gt;1</title>
<path fill="none" stroke="#000000" d="M121.9913,-36.209C121.9913,-44.789 121.9913,-55.2976 121.9913,-65.2102"/>
<polygon fill="#000000" stroke="#000000" points="118.4914,-65.2185 121.9913,-75.2186 125.4914,-65.2186 118.4914,-65.2185"/>
</g>
<!-- 2&#45;&gt;3 -->
<g id="edge6" class="edge">
<title>2&#45;&gt;3</title>
<path fill="none" stroke="#000000" d="M150.9393,-30.7662C167.3959,-39.7216 186.552,-53.4265 195.9913,-72 221.6111,-122.4113 189.9441,-188.2739 167.8698,-224.2372"/>
<polygon fill="#000000" stroke="#000000" points="164.6301,-222.8104 162.2295,-233.1297 170.5414,-226.5597 164.6301,-222.8104"/>
</g>
</g>
</svg>
