<?xml version="1.0" encoding="UTF-8" standalone="no"?>
<!DOCTYPE svg PUBLIC "-//W3C//DTD SVG 1.1//EN"
 "http://www.w3.org/Graphics/SVG/1.1/DTD/svg11.dtd">
<!-- Generated by graphviz version 2.40.1 (0)
 -->
<!-- Title: stable Pages: 1 -->
<svg width="255pt" height="299pt"
 viewBox="0.00 0.00 255.00 299.49" xmlns="http://www.w3.org/2000/svg" xmlns:xlink="http://www.w3.org/1999/xlink">
<g id="graph0" class="graph" transform="scale(1 1) rotate(0) translate(4 295.4913)">
<title>stable</title>
<polygon fill="#ffffff" stroke="transparent" points="-4,4 -4,-295.4913 251,-295.4913 251,4 -4,4"/>
<text text-anchor="middle" x="123.5" y="-276.2913" font-family="Times,serif" font-size="14.00" fill="#000000">stable&#45;4.4 (2020&#45;05&#45;18) [amd64]</text>
<!-- 0 -->
<g id="node1" class="node">
<title>0</title>
<polygon fill="#fa8072" stroke="#fa8072" points="139.1889,-103.8605 89.3629,-116.4157 39.5368,-103.8605 58.5686,-83.5458 120.1571,-83.5458 139.1889,-103.8605"/>
<polygon fill="none" stroke="#fa8072" points="146.798,-106.1049 89.3629,-120.5775 31.9277,-106.1049 56.845,-79.508 121.8807,-79.508 146.798,-106.1049"/>
<polygon fill="none" stroke="#fa8072" points="154.4071,-108.3494 89.3629,-124.7393 24.3186,-108.3494 55.1214,-75.4702 123.6043,-75.4702 154.4071,-108.3494"/>
<text text-anchor="middle" x="89.3629" y="-94.5456" font-family="Times,serif" font-size="14.00" fill="#000000">4.3.13</text>
</g>
<!-- 1 -->
<g id="node2" class="node">
<title>1</title>
<ellipse fill="#d3d3d3" stroke="#d3d3d3" cx="154.3629" cy="-250.4913" rx="40.0939" ry="18"/>
<text text-anchor="middle" x="154.3629" y="-246.7913" font-family="Times,serif" font-size="14.00" fill="#000000">4.3.19</text>
</g>
<!-- 0&#45;&gt;1 -->
<g id="edge6" class="edge">
<title>0&#45;&gt;1</title>
<path fill="none" stroke="#0000ff" stroke-width="2" d="M89.6418,-124.9088C90.7944,-145.3981 94.4824,-173.919 105.3629,-196.4913 110.8048,-207.7809 119.3657,-218.4145 127.8195,-227.211"/>
<polygon fill="#0000ff" stroke="#0000ff" stroke-width="2" points="125.5648,-229.9035 135.1398,-234.4388 130.4829,-224.9223 125.5648,-229.9035"/>
</g>
<!-- 3 -->
<g id="node4" class="node">
<title>3</title>
<ellipse fill="#d3d3d3" stroke="#d3d3d3" cx="154.3629" cy="-178.4913" rx="40.0939" ry="18"/>
<text text-anchor="middle" x="154.3629" y="-174.7913" font-family="Times,serif" font-size="14.00" fill="#000000">4.3.18</text>
</g>
<!-- 0&#45;&gt;3 -->
<g id="edge1" class="edge">
<title>0&#45;&gt;3</title>
<path fill="none" stroke="#0000ff" stroke-width="2" d="M107.469,-120.5985C115.7091,-130.7713 125.4962,-142.854 133.9922,-153.3427"/>
<polygon fill="#0000ff" stroke="#0000ff" stroke-width="2" points="131.4608,-155.7782 140.4748,-161.3458 136.9002,-151.3722 131.4608,-155.7782"/>
</g>
<!-- 2 -->
<g id="node3" class="node">
<title>2</title>
<ellipse fill="#d3d3d3" stroke="#d3d3d3" cx="182.3629" cy="-18" rx="40.0939" ry="18"/>
<text text-anchor="middle" x="182.3629" y="-14.3" font-family="Times,serif" font-size="14.00" fill="#000000">4.3.12</text>
</g>
<!-- 2&#45;&gt;0 -->
<g id="edge5" class="edge">
<title>2&#45;&gt;0</title>
<path fill="none" stroke="#000000" d="M163.5429,-34.2389C152.0959,-44.116 137.1303,-57.0292 123.6415,-68.6681"/>
<polygon fill="#000000" stroke="#000000" points="121.1926,-66.1583 115.9079,-75.3411 125.7656,-71.4581 121.1926,-66.1583"/>
</g>
<!-- 2&#45;&gt;1 -->
<g id="edge2" class="edge">
<title>2&#45;&gt;1</title>
<path fill="none" stroke="#000000" d="M189.8882,-35.9252C202.5729,-68.9008 224.8271,-140.8954 203.3629,-196.4913 198.849,-208.1829 190.4983,-218.9076 181.9534,-227.6647"/>
<polygon fill="#000000" stroke="#000000" points="179.2791,-225.3801 174.4858,-234.8286 184.1251,-230.4315 179.2791,-225.3801"/>
</g>
<!-- 2&#45;&gt;3 -->
<g id="edge3" class="edge">
<title>2&#45;&gt;3</title>
<path fill="none" stroke="#000000" d="M179.2053,-36.0984C174.3529,-63.9119 165.0227,-117.3908 159.28,-150.3069"/>
<polygon fill="#000000" stroke="#000000" points="155.8226,-149.76 157.5518,-160.2128 162.7185,-150.9631 155.8226,-149.76"/>
</g>
<!-- 3&#45;&gt;1 -->
<g id="edge4" class="edge">
<title>3&#45;&gt;1</title>
<path fill="none" stroke="#000000" d="M154.3629,-196.6599C154.3629,-204.3603 154.3629,-213.5169 154.3629,-222.0747"/>
<polygon fill="#000000" stroke="#000000" points="150.863,-222.078 154.3629,-232.078 157.863,-222.0781 150.863,-222.078"/>
</g>
</g>
</svg>
