<?xml version="1.0" encoding="UTF-8" standalone="no"?>
<!DOCTYPE svg PUBLIC "-//W3C//DTD SVG 1.1//EN"
 "http://www.w3.org/Graphics/SVG/1.1/DTD/svg11.dtd">
<!-- Generated by graphviz version 2.40.1 (0)
 -->
<!-- Title: stable Pages: 1 -->
<svg width="1889pt" height="1035pt"
 viewBox="0.00 0.00 1888.50 1035.00" xmlns="http://www.w3.org/2000/svg" xmlns:xlink="http://www.w3.org/1999/xlink">
<g id="graph0" class="graph" transform="scale(1 1) rotate(0) translate(4 1031)">
<title>stable</title>
<polygon fill="#ffffff" stroke="transparent" points="-4,4 -4,-1031 1884.5,-1031 1884.5,4 -4,4"/>
<text text-anchor="middle" x="940.25" y="-7.8" font-family="Times,serif" font-size="14.00" fill="#000000">stable&#45;4.3 (2020&#45;05&#45;20) [amd64]</text>
<!-- 0 -->
<g id="node1" class="node">
<title>0</title>
<polygon fill="#c0c0c0" stroke="#c0c0c0" points="344.5,-831 282.5,-831 282.5,-769 344.5,-769 344.5,-831"/>
<text text-anchor="middle" x="313.5" y="-796.3" font-family="Times,serif" font-size="14.00" fill="#000000">4.3.13</text>
</g>
<!-- 2 -->
<g id="node3" class="node">
<title>2</title>
<polygon fill="#c0c0c0" stroke="#c0c0c0" points="403.5,-1027 341.5,-1027 341.5,-965 403.5,-965 403.5,-1027"/>
<text text-anchor="middle" x="372.5" y="-992.3" font-family="Times,serif" font-size="14.00" fill="#000000">4.3.19</text>
</g>
<!-- 0&#45;&gt;2 -->
<g id="edge18" class="edge">
<title>0&#45;&gt;2</title>
<path fill="none" stroke="#000000" d="M322.8487,-831.0568C332.9172,-864.5047 348.9848,-917.8818 360.1022,-954.8141"/>
<polygon fill="#000000" stroke="#000000" points="356.8636,-956.1979 363.0975,-964.7646 363.5665,-954.1802 356.8636,-956.1979"/>
</g>
<!-- 13 -->
<g id="node14" class="node">
<title>13</title>
<polygon fill="#c0c0c0" stroke="#c0c0c0" points="627.5,-929 565.5,-929 565.5,-867 627.5,-867 627.5,-929"/>
<text text-anchor="middle" x="596.5" y="-894.3" font-family="Times,serif" font-size="14.00" fill="#000000">4.3.18</text>
</g>
<!-- 0&#45;&gt;13 -->
<g id="edge71" class="edge">
<title>0&#45;&gt;13</title>
<path fill="none" stroke="#000000" d="M344.5955,-810.768C395.932,-828.5454 498.4081,-864.0318 555.5682,-883.8257"/>
<polygon fill="#000000" stroke="#000000" points="554.7583,-887.2491 565.3531,-887.2141 557.0489,-880.6345 554.7583,-887.2491"/>
</g>
<!-- 1 -->
<g id="node2" class="node">
<title>1</title>
<ellipse fill="#c0c0c0" stroke="#c0c0c0" cx="1280.5" cy="-800" rx="40.0939" ry="18"/>
<text text-anchor="middle" x="1280.5" y="-796.3" font-family="Times,serif" font-size="14.00" fill="#000000">4.2.33</text>
</g>
<!-- 1&#45;&gt;2 -->
<g id="edge35" class="edge">
<title>1&#45;&gt;2</title>
<path fill="none" stroke="#000000" d="M1260.84,-815.9124C1224.5605,-844.2762 1143.5504,-903.0273 1064.5,-929 942.3698,-969.1269 544.3754,-988.8641 414.1544,-994.3612"/>
<polygon fill="#000000" stroke="#000000" points="413.6647,-990.8784 403.8188,-994.7912 413.9557,-997.8724 413.6647,-990.8784"/>
</g>
<!-- 3 -->
<g id="node4" class="node">
<title>3</title>
<polygon fill="#c0c0c0" stroke="#c0c0c0" points="269,-728.5 216,-728.5 216,-675.5 269,-675.5 269,-728.5"/>
<text text-anchor="middle" x="242.5" y="-698.3" font-family="Times,serif" font-size="14.00" fill="#000000">4.3.1</text>
</g>
<!-- 3&#45;&gt;0 -->
<g id="edge3" class="edge">
<title>3&#45;&gt;0</title>
<path fill="none" stroke="#000000" d="M261.7136,-728.5202C268.9134,-738.4579 277.2542,-749.9706 285.1106,-760.8146"/>
<polygon fill="#000000" stroke="#000000" points="282.2957,-762.895 290.9971,-768.9396 287.9644,-758.7881 282.2957,-762.895"/>
</g>
<!-- 3&#45;&gt;2 -->
<g id="edge30" class="edge">
<title>3&#45;&gt;2</title>
<path fill="none" stroke="#000000" d="M241.3228,-728.7499C240.6053,-773.6611 244.6454,-865.5282 284.5,-929 296.2387,-947.6948 315.1806,-963.1104 332.489,-974.422"/>
<polygon fill="#000000" stroke="#000000" points="331.0099,-977.625 341.3445,-979.9588 334.721,-971.6897 331.0099,-977.625"/>
</g>
<!-- 3&#45;&gt;13 -->
<g id="edge1" class="edge">
<title>3&#45;&gt;13</title>
<path fill="none" stroke="#000000" d="M241.1199,-728.7545C241.1601,-758.049 246.0435,-804.39 273.5,-831 313.2195,-869.495 476.8966,-888.0433 554.853,-894.8296"/>
<polygon fill="#000000" stroke="#000000" points="555.0029,-898.3547 565.2623,-895.7099 555.5928,-891.3796 555.0029,-898.3547"/>
</g>
<!-- 4 -->
<g id="node5" class="node">
<title>4</title>
<polygon fill="#c0c0c0" stroke="#c0c0c0" points="492,-826.5 439,-826.5 439,-773.5 492,-773.5 492,-826.5"/>
<text text-anchor="middle" x="465.5" y="-796.3" font-family="Times,serif" font-size="14.00" fill="#000000">4.3.0</text>
</g>
<!-- 4&#45;&gt;13 -->
<g id="edge97" class="edge">
<title>4&#45;&gt;13</title>
<path fill="none" stroke="#000000" d="M492.3846,-820.3724C497.085,-823.9213 501.9316,-827.5726 506.5,-831 522.9336,-843.3294 541.1024,-856.8719 556.7872,-868.5351"/>
<polygon fill="#000000" stroke="#000000" points="555.1049,-871.6455 565.2187,-874.8017 559.2806,-866.0274 555.1049,-871.6455"/>
</g>
<!-- 5 -->
<g id="node6" class="node">
<title>5</title>
<ellipse fill="#c0c0c0" stroke="#c0c0c0" cx="1189.5" cy="-329" rx="40.0939" ry="18"/>
<text text-anchor="middle" x="1189.5" y="-325.3" font-family="Times,serif" font-size="14.00" fill="#000000">4.2.21</text>
</g>
<!-- 5&#45;&gt;1 -->
<g id="edge41" class="edge">
<title>5&#45;&gt;1</title>
<path fill="none" stroke="#000000" d="M1228.6948,-333.261C1264.3307,-339.01 1316.4093,-352.3487 1350.5,-383 1377.8571,-407.5971 1429.8136,-566.5109 1435.5,-599 1447.2292,-666.0147 1408.529,-683.8388 1361.5,-733 1345.7081,-749.5079 1325.9926,-765.8917 1309.9667,-778.3255"/>
<polygon fill="#000000" stroke="#000000" points="1307.7795,-775.592 1301.9628,-784.4473 1312.0322,-781.1521 1307.7795,-775.592"/>
</g>
<!-- 5&#45;&gt;13 -->
<g id="edge98" class="edge">
<title>5&#45;&gt;13</title>
<path fill="none" stroke="#000000" d="M1149.7903,-332.2088C1028.7284,-344.3611 672.5,-398.6692 672.5,-617 672.5,-617 672.5,-617 672.5,-702 672.5,-759.1011 644.1127,-819.6157 622.0365,-858.0431"/>
<polygon fill="#000000" stroke="#000000" points="618.9127,-856.4508 616.8666,-866.8462 624.9488,-859.9957 618.9127,-856.4508"/>
</g>
<!-- 15 -->
<g id="node16" class="node">
<title>15</title>
<ellipse fill="#c0c0c0" stroke="#c0c0c0" cx="1014.5" cy="-401" rx="40.0939" ry="18"/>
<text text-anchor="middle" x="1014.5" y="-397.3" font-family="Times,serif" font-size="14.00" fill="#000000">4.2.25</text>
</g>
<!-- 5&#45;&gt;15 -->
<g id="edge82" class="edge">
<title>5&#45;&gt;15</title>
<path fill="none" stroke="#000000" d="M1159.8136,-341.2138C1130.6502,-353.2125 1085.9777,-371.592 1053.864,-384.8045"/>
<polygon fill="#000000" stroke="#000000" points="1052.2482,-381.6846 1044.332,-388.7263 1054.9116,-388.1581 1052.2482,-381.6846"/>
</g>
<!-- 18 -->
<g id="node19" class="node">
<title>18</title>
<ellipse fill="#c0c0c0" stroke="#c0c0c0" cx="1120.5" cy="-473" rx="40.0939" ry="18"/>
<text text-anchor="middle" x="1120.5" y="-469.3" font-family="Times,serif" font-size="14.00" fill="#000000">4.2.26</text>
</g>
<!-- 5&#45;&gt;18 -->
<g id="edge67" class="edge">
<title>5&#45;&gt;18</title>
<path fill="none" stroke="#000000" d="M1172.3857,-345.5959C1162.9309,-355.6279 1151.6809,-369.1279 1144.5,-383 1134.4327,-402.4479 1128.3005,-426.5051 1124.7572,-444.853"/>
<polygon fill="#000000" stroke="#000000" points="1121.2724,-444.4586 1122.96,-454.9181 1128.1634,-445.6891 1121.2724,-444.4586"/>
</g>
<!-- 19 -->
<g id="node20" class="node">
<title>19</title>
<ellipse fill="#c0c0c0" stroke="#c0c0c0" cx="1242.5" cy="-545" rx="40.0939" ry="18"/>
<text text-anchor="middle" x="1242.5" y="-541.3" font-family="Times,serif" font-size="14.00" fill="#000000">4.2.27</text>
</g>
<!-- 5&#45;&gt;19 -->
<g id="edge69" class="edge">
<title>5&#45;&gt;19</title>
<path fill="none" stroke="#000000" d="M1193.9276,-347.0445C1203.1636,-384.6856 1224.5422,-471.8133 1235.5991,-516.8754"/>
<polygon fill="#000000" stroke="#000000" points="1232.2655,-517.9771 1238.0477,-526.8549 1239.0638,-516.3089 1232.2655,-517.9771"/>
</g>
<!-- 22 -->
<g id="node23" class="node">
<title>22</title>
<ellipse fill="#c0c0c0" stroke="#c0c0c0" cx="1090.5" cy="-702" rx="40.0939" ry="18"/>
<text text-anchor="middle" x="1090.5" y="-698.3" font-family="Times,serif" font-size="14.00" fill="#000000">4.2.29</text>
</g>
<!-- 5&#45;&gt;22 -->
<g id="edge80" class="edge">
<title>5&#45;&gt;22</title>
<path fill="none" stroke="#000000" d="M1207.1985,-345.5076C1246.9487,-384.6426 1336.4324,-485.5734 1291.5,-563 1275.3133,-590.8925 1254.8609,-580.423 1228.5,-599 1208.4035,-613.1624 1205.9377,-619.9461 1186.5,-635 1165.4586,-651.2958 1140.8256,-668.4506 1121.7804,-681.322"/>
<polygon fill="#000000" stroke="#000000" points="1119.8039,-678.4333 1113.4561,-686.9159 1123.7083,-684.2433 1119.8039,-678.4333"/>
</g>
<!-- 23 -->
<g id="node24" class="node">
<title>23</title>
<ellipse fill="#c0c0c0" stroke="#c0c0c0" cx="1386.5" cy="-617" rx="40.0939" ry="18"/>
<text text-anchor="middle" x="1386.5" y="-613.3" font-family="Times,serif" font-size="14.00" fill="#000000">4.2.28</text>
</g>
<!-- 5&#45;&gt;23 -->
<g id="edge68" class="edge">
<title>5&#45;&gt;23</title>
<path fill="none" stroke="#000000" d="M1227.778,-334.7217C1258.2051,-341.2577 1299.6517,-354.9332 1324.5,-383 1376.8365,-442.1156 1385.7479,-540.4851 1386.7842,-588.6594"/>
<polygon fill="#000000" stroke="#000000" points="1383.2877,-589.0009 1386.8998,-598.9609 1390.2872,-588.9223 1383.2877,-589.0009"/>
</g>
<!-- 6 -->
<g id="node7" class="node">
<title>6</title>
<polygon fill="#c0c0c0" stroke="#c0c0c0" points="421,-728.5 368,-728.5 368,-675.5 421,-675.5 421,-728.5"/>
<text text-anchor="middle" x="394.5" y="-698.3" font-family="Times,serif" font-size="14.00" fill="#000000">4.3.8</text>
</g>
<!-- 6&#45;&gt;0 -->
<g id="edge26" class="edge">
<title>6&#45;&gt;0</title>
<path fill="none" stroke="#000000" d="M372.5802,-728.5202C364.2859,-738.5554 354.6641,-750.1965 345.6244,-761.1334"/>
<polygon fill="#000000" stroke="#000000" points="342.8455,-759.0018 339.1724,-768.9396 348.241,-763.4615 342.8455,-759.0018"/>
</g>
<!-- 6&#45;&gt;2 -->
<g id="edge17" class="edge">
<title>6&#45;&gt;2</title>
<path fill="none" stroke="#000000" d="M392.5088,-728.6091C388.6593,-780.0524 380.1725,-893.4681 375.5861,-954.7591"/>
<polygon fill="#000000" stroke="#000000" points="372.0869,-954.6177 374.8309,-964.851 379.0674,-955.1401 372.0869,-954.6177"/>
</g>
<!-- 6&#45;&gt;13 -->
<g id="edge39" class="edge">
<title>6&#45;&gt;13</title>
<path fill="none" stroke="#000000" d="M421.2034,-726.8441C424.2266,-729.0868 427.3544,-731.1902 430.5,-733 472.8972,-757.3921 497.9863,-736.454 534.5,-769 548.5548,-781.5276 567.6956,-824.4269 580.9759,-857.3506"/>
<polygon fill="#000000" stroke="#000000" points="577.7756,-858.7745 584.7269,-866.7701 584.2789,-856.1847 577.7756,-858.7745"/>
</g>
<!-- 7 -->
<g id="node8" class="node">
<title>7</title>
<ellipse fill="#c0c0c0" stroke="#c0c0c0" cx="1182.5" cy="-41" rx="40.0939" ry="18"/>
<text text-anchor="middle" x="1182.5" y="-37.3" font-family="Times,serif" font-size="14.00" fill="#000000">4.2.16</text>
</g>
<!-- 7&#45;&gt;5 -->
<g id="edge19" class="edge">
<title>7&#45;&gt;5</title>
<path fill="none" stroke="#000000" d="M1181.6458,-59.4897C1181.2067,-69.9153 1180.7188,-83.1814 1180.5,-95 1179.1265,-169.1954 1184.2871,-256.5489 1187.3623,-300.5767"/>
<polygon fill="#000000" stroke="#000000" points="1183.8891,-301.0776 1188.094,-310.8023 1190.8713,-300.578 1183.8891,-301.0776"/>
</g>
<!-- 8 -->
<g id="node9" class="node">
<title>8</title>
<ellipse fill="#c0c0c0" stroke="#c0c0c0" cx="1026.5" cy="-185" rx="40.0939" ry="18"/>
<text text-anchor="middle" x="1026.5" y="-181.3" font-family="Times,serif" font-size="14.00" fill="#000000">4.2.19</text>
</g>
<!-- 7&#45;&gt;8 -->
<g id="edge63" class="edge">
<title>7&#45;&gt;8</title>
<path fill="none" stroke="#000000" d="M1159.2199,-55.8692C1143.8974,-66.1023 1123.7457,-80.4321 1107.5,-95 1085.0055,-115.1713 1062.2369,-141.0625 1046.5928,-159.8922"/>
<polygon fill="#000000" stroke="#000000" points="1043.7837,-157.7978 1040.1396,-167.7462 1049.1923,-162.2416 1043.7837,-157.7978"/>
</g>
<!-- 12 -->
<g id="node13" class="node">
<title>12</title>
<ellipse fill="#c0c0c0" stroke="#c0c0c0" cx="1229.5" cy="-113" rx="40.0939" ry="18"/>
<text text-anchor="middle" x="1229.5" y="-109.3" font-family="Times,serif" font-size="14.00" fill="#000000">4.2.18</text>
</g>
<!-- 7&#45;&gt;12 -->
<g id="edge84" class="edge">
<title>7&#45;&gt;12</title>
<path fill="none" stroke="#000000" d="M1193.8774,-58.4292C1199.4361,-66.9447 1206.241,-77.3692 1212.4083,-86.817"/>
<polygon fill="#000000" stroke="#000000" points="1209.6674,-89.0211 1218.0645,-95.4818 1215.529,-85.1948 1209.6674,-89.0211"/>
</g>
<!-- 14 -->
<g id="node15" class="node">
<title>14</title>
<ellipse fill="#c0c0c0" stroke="#c0c0c0" cx="1318.5" cy="-257" rx="40.0939" ry="18"/>
<text text-anchor="middle" x="1318.5" y="-253.3" font-family="Times,serif" font-size="14.00" fill="#000000">4.2.20</text>
</g>
<!-- 7&#45;&gt;14 -->
<g id="edge55" class="edge">
<title>7&#45;&gt;14</title>
<path fill="none" stroke="#000000" d="M1215.1651,-51.6401C1236.2619,-60.1491 1262.6405,-74.1482 1278.5,-95 1308.5673,-134.532 1316.3023,-193.7727 1318.1318,-228.5934"/>
<polygon fill="#000000" stroke="#000000" points="1314.6501,-229.1296 1318.5392,-238.9849 1321.6447,-228.8554 1314.6501,-229.1296"/>
</g>
<!-- 7&#45;&gt;15 -->
<g id="edge56" class="edge">
<title>7&#45;&gt;15</title>
<path fill="none" stroke="#000000" d="M1147.2245,-49.9243C1097.7005,-64.66 1009.9835,-99.4141 977.5,-167 944.2191,-236.2452 979.2051,-329.0227 1000.5533,-374.1244"/>
<polygon fill="#000000" stroke="#000000" points="997.4745,-375.7965 1004.9999,-383.2543 1003.7678,-372.7313 997.4745,-375.7965"/>
</g>
<!-- 7&#45;&gt;18 -->
<g id="edge78" class="edge">
<title>7&#45;&gt;18</title>
<path fill="none" stroke="#000000" d="M1142.6488,-43.8323C1102.5073,-48.5669 1040.7653,-61.215 999.5,-95 971.5031,-117.9218 970.6865,-132.0022 961.5,-167 933.0611,-275.3439 898.7315,-329.0605 965.5,-419 978.7596,-436.8612 1033.497,-453.0212 1074.1882,-462.9118"/>
<polygon fill="#000000" stroke="#000000" points="1073.3976,-466.3213 1083.9359,-465.2278 1075.0158,-459.5109 1073.3976,-466.3213"/>
</g>
<!-- 7&#45;&gt;19 -->
<g id="edge27" class="edge">
<title>7&#45;&gt;19</title>
<path fill="none" stroke="#000000" d="M1218.669,-49.2732C1302.0166,-69.3851 1500.5,-123.7132 1500.5,-185 1500.5,-185 1500.5,-185 1500.5,-329 1500.5,-439.7487 1359.0058,-504.9258 1285.5869,-531.2906"/>
<polygon fill="#000000" stroke="#000000" points="1283.9813,-528.1445 1275.7008,-534.754 1286.2956,-534.7509 1283.9813,-528.1445"/>
</g>
<!-- 7&#45;&gt;23 -->
<g id="edge40" class="edge">
<title>7&#45;&gt;23</title>
<path fill="none" stroke="#000000" d="M1222.0274,-44.9093C1369.6849,-60.0348 1880.5,-117.2565 1880.5,-185 1880.5,-185 1880.5,-185 1880.5,-329 1880.5,-533.2245 1561.5031,-595.201 1436.1891,-611.6686"/>
<polygon fill="#000000" stroke="#000000" points="1435.5701,-608.219 1426.091,-612.9517 1436.4525,-615.1632 1435.5701,-608.219"/>
</g>
<!-- 8&#45;&gt;1 -->
<g id="edge38" class="edge">
<title>8&#45;&gt;1</title>
<path fill="none" stroke="#000000" d="M989.258,-192.3345C949.3005,-200.8826 884.4431,-216.7339 831.5,-239 772.756,-263.7058 739.2958,-255.7708 707.5,-311 694.3605,-333.8232 721.3842,-411.8766 723.5,-419 771.4435,-580.4156 790.6517,-647.1364 935.5,-733 984.94,-762.3072 1148.4516,-784.7641 1231.3678,-794.5815"/>
<polygon fill="#000000" stroke="#000000" points="1230.9694,-798.0587 1241.3081,-795.7436 1231.7822,-791.106 1230.9694,-798.0587"/>
</g>
<!-- 8&#45;&gt;5 -->
<g id="edge76" class="edge">
<title>8&#45;&gt;5</title>
<path fill="none" stroke="#000000" d="M1039.6838,-202.1141C1054.8375,-221.1612 1081.0405,-252.2496 1107.5,-275 1122.3021,-287.7272 1140.2711,-299.8741 1155.6112,-309.4129"/>
<polygon fill="#000000" stroke="#000000" points="1153.9363,-312.4909 1164.2956,-314.7124 1157.5827,-306.5156 1153.9363,-312.4909"/>
</g>
<!-- 8&#45;&gt;14 -->
<g id="edge101" class="edge">
<title>8&#45;&gt;14</title>
<path fill="none" stroke="#000000" d="M1062.013,-193.7566C1114.9204,-206.8023 1214.4447,-231.3425 1272.742,-245.7172"/>
<polygon fill="#000000" stroke="#000000" points="1272.2307,-249.1959 1282.7778,-248.1918 1273.9066,-242.3995 1272.2307,-249.1959"/>
</g>
<!-- 8&#45;&gt;15 -->
<g id="edge14" class="edge">
<title>8&#45;&gt;15</title>
<path fill="none" stroke="#000000" d="M1025.4975,-203.0445C1023.4108,-240.6062 1018.5863,-327.4459 1016.0784,-372.5897"/>
<polygon fill="#000000" stroke="#000000" points="1012.5682,-372.6762 1015.5081,-382.8549 1019.5575,-373.0645 1012.5682,-372.6762"/>
</g>
<!-- 8&#45;&gt;18 -->
<g id="edge49" class="edge">
<title>8&#45;&gt;18</title>
<path fill="none" stroke="#000000" d="M1032.3801,-203.0157C1048.3051,-251.8071 1092.353,-386.7623 1111.4614,-445.3073"/>
<polygon fill="#000000" stroke="#000000" points="1108.192,-446.5707 1114.6221,-454.9911 1114.8465,-444.3987 1108.192,-446.5707"/>
</g>
<!-- 8&#45;&gt;19 -->
<g id="edge22" class="edge">
<title>8&#45;&gt;19</title>
<path fill="none" stroke="#000000" d="M1013.9997,-202.1362C986.4338,-242.1971 925.9064,-344.2426 965.5,-419 1009.4232,-501.9323 1125.7564,-530.4395 1192.8657,-540.1213"/>
<polygon fill="#000000" stroke="#000000" points="1192.4154,-543.5922 1202.7952,-541.4684 1193.3565,-536.6558 1192.4154,-543.5922"/>
</g>
<!-- 8&#45;&gt;22 -->
<g id="edge61" class="edge">
<title>8&#45;&gt;22</title>
<path fill="none" stroke="#000000" d="M989.9908,-192.8504C956.885,-201.0296 907.5857,-215.9198 869.5,-239 849.6038,-251.0572 851.5624,-263.2214 831.5,-275 785.3145,-302.1154 748.213,-267.8418 716.5,-311 707.0258,-323.8934 712.4049,-331.5329 716.5,-347 757.4511,-501.6706 797.8019,-548.6494 932.5,-635 968.8707,-658.3161 1014.7292,-676.7141 1047.6592,-688.2851"/>
<polygon fill="#000000" stroke="#000000" points="1046.8443,-691.7062 1057.439,-691.6548 1049.1247,-685.088 1046.8443,-691.7062"/>
</g>
<!-- 8&#45;&gt;23 -->
<g id="edge28" class="edge">
<title>8&#45;&gt;23</title>
<path fill="none" stroke="#000000" d="M1004.291,-200.1675C974.6888,-219.8023 920.1365,-253.985 869.5,-275 813.3354,-298.3092 774.4109,-262.6744 737.5,-311 691.2432,-371.5618 734.3345,-403.9345 825.5,-491 828.5029,-493.8678 952.5504,-561.7185 956.5,-563 1026.1546,-585.5998 1238.4976,-605.0523 1336.2615,-613.0771"/>
<polygon fill="#000000" stroke="#000000" points="1336.2285,-616.5859 1346.4795,-613.9084 1336.7962,-609.609 1336.2285,-616.5859"/>
</g>
<!-- 9 -->
<g id="node10" class="node">
<title>9</title>
<polygon fill="#c0c0c0" stroke="#c0c0c0" points="53,-728.5 0,-728.5 0,-675.5 53,-675.5 53,-728.5"/>
<text text-anchor="middle" x="26.5" y="-698.3" font-family="Times,serif" font-size="14.00" fill="#000000">4.3.5</text>
</g>
<!-- 9&#45;&gt;0 -->
<g id="edge36" class="edge">
<title>9&#45;&gt;0</title>
<path fill="none" stroke="#000000" d="M53.3581,-726.1428C56.9533,-728.6929 60.7115,-731.0585 64.5,-733 132.8944,-768.05 221.534,-786.2211 272.5091,-794.3891"/>
<polygon fill="#000000" stroke="#000000" points="272.0711,-797.863 282.4894,-795.9371 273.1441,-790.9457 272.0711,-797.863"/>
</g>
<!-- 9&#45;&gt;2 -->
<g id="edge60" class="edge">
<title>9&#45;&gt;2</title>
<path fill="none" stroke="#000000" d="M35.1855,-728.685C51.9505,-776.0329 93.2609,-874.8406 161.5,-929 211.4936,-968.6784 285.4149,-985.0724 331.1834,-991.694"/>
<polygon fill="#000000" stroke="#000000" points="330.9624,-995.196 341.3417,-993.0699 331.902,-988.2593 330.9624,-995.196"/>
</g>
<!-- 9&#45;&gt;13 -->
<g id="edge86" class="edge">
<title>9&#45;&gt;13</title>
<path fill="none" stroke="#000000" d="M39.88,-728.5042C56.6474,-758.7192 88.3747,-807.018 130.5,-831 202.8759,-872.2038 455.3226,-890.2646 555.2864,-895.9177"/>
<polygon fill="#000000" stroke="#000000" points="555.1338,-899.4145 565.3117,-896.4717 555.5201,-892.4252 555.1338,-899.4145"/>
</g>
<!-- 10 -->
<g id="node11" class="node">
<title>10</title>
<polygon fill="#c0c0c0" stroke="#c0c0c0" points="127,-728.5 74,-728.5 74,-675.5 127,-675.5 127,-728.5"/>
<text text-anchor="middle" x="100.5" y="-698.3" font-family="Times,serif" font-size="14.00" fill="#000000">4.3.2</text>
</g>
<!-- 10&#45;&gt;0 -->
<g id="edge51" class="edge">
<title>10&#45;&gt;0</title>
<path fill="none" stroke="#000000" d="M127.2645,-727.3863C129.9529,-729.4148 132.7192,-731.3239 135.5,-733 179.1855,-759.3311 234.9627,-778.2806 272.3319,-789.1693"/>
<polygon fill="#000000" stroke="#000000" points="271.7822,-792.6519 282.3585,-792.0262 273.7004,-785.9199 271.7822,-792.6519"/>
</g>
<!-- 10&#45;&gt;2 -->
<g id="edge85" class="edge">
<title>10&#45;&gt;2</title>
<path fill="none" stroke="#000000" d="M107.204,-728.8051C120.1569,-775.4625 152.8407,-872.0513 213.5,-929 246.6939,-960.1634 296.5219,-977.9401 331.53,-987.2407"/>
<polygon fill="#000000" stroke="#000000" points="330.8802,-990.6866 341.4337,-989.7519 332.6007,-983.9013 330.8802,-990.6866"/>
</g>
<!-- 10&#45;&gt;13 -->
<g id="edge48" class="edge">
<title>10&#45;&gt;13</title>
<path fill="none" stroke="#000000" d="M111.7405,-728.5782C125.9234,-758.6266 153.292,-806.5378 192.5,-831 252.6981,-868.5581 464.6159,-888.2788 555.0746,-895.1456"/>
<polygon fill="#000000" stroke="#000000" points="554.9992,-898.6496 565.2313,-895.9011 555.5185,-891.6688 554.9992,-898.6496"/>
</g>
<!-- 11 -->
<g id="node12" class="node">
<title>11</title>
<polygon fill="#c0c0c0" stroke="#c0c0c0" points="198,-728.5 145,-728.5 145,-675.5 198,-675.5 198,-728.5"/>
<text text-anchor="middle" x="171.5" y="-698.3" font-family="Times,serif" font-size="14.00" fill="#000000">4.3.3</text>
</g>
<!-- 11&#45;&gt;0 -->
<g id="edge66" class="edge">
<title>11&#45;&gt;0</title>
<path fill="none" stroke="#000000" d="M198.2595,-726.4901C200.9935,-728.7519 203.7699,-730.9582 206.5,-733 227.7521,-748.8944 252.8374,-764.7418 273.3756,-777.031"/>
<polygon fill="#000000" stroke="#000000" points="271.7804,-780.154 282.1675,-782.2416 275.3493,-774.1321 271.7804,-780.154"/>
</g>
<!-- 11&#45;&gt;2 -->
<g id="edge46" class="edge">
<title>11&#45;&gt;2</title>
<path fill="none" stroke="#000000" d="M175.1688,-728.7955C182.6601,-774.5903 203.5306,-868.7889 254.5,-929 275.0149,-953.2347 306.6366,-970.5225 331.9833,-981.4608"/>
<polygon fill="#000000" stroke="#000000" points="330.776,-984.7491 341.3542,-985.3434 333.4555,-978.2822 330.776,-984.7491"/>
</g>
<!-- 11&#45;&gt;13 -->
<g id="edge95" class="edge">
<title>11&#45;&gt;13</title>
<path fill="none" stroke="#000000" d="M178.4493,-728.5751C187.6898,-758.3874 207.0154,-805.8524 241.5,-831 291.1914,-867.2369 473.0823,-887.2735 555.4646,-894.6649"/>
<polygon fill="#000000" stroke="#000000" points="555.2028,-898.1553 565.4708,-895.5442 555.8156,-891.1822 555.2028,-898.1553"/>
</g>
<!-- 12&#45;&gt;5 -->
<g id="edge45" class="edge">
<title>12&#45;&gt;5</title>
<path fill="none" stroke="#000000" d="M1226.1584,-131.0445C1219.1878,-168.6856 1203.0531,-255.8133 1194.7083,-300.8754"/>
<polygon fill="#000000" stroke="#000000" points="1191.2397,-300.3848 1192.8602,-310.8549 1198.1227,-301.6595 1191.2397,-300.3848"/>
</g>
<!-- 12&#45;&gt;8 -->
<g id="edge79" class="edge">
<title>12&#45;&gt;8</title>
<path fill="none" stroke="#000000" d="M1197.7813,-124.25C1162.8752,-136.6305 1106.6282,-156.5801 1068.1826,-170.216"/>
<polygon fill="#000000" stroke="#000000" points="1066.5851,-167.0689 1058.3303,-173.7104 1068.9251,-173.6663 1066.5851,-167.0689"/>
</g>
<!-- 12&#45;&gt;14 -->
<g id="edge100" class="edge">
<title>12&#45;&gt;14</title>
<path fill="none" stroke="#000000" d="M1241.0034,-130.4119C1247.9076,-140.9448 1256.813,-154.6775 1264.5,-167 1277.7225,-188.1962 1292.2704,-212.5026 1302.9316,-230.5083"/>
<polygon fill="#000000" stroke="#000000" points="1300.0254,-232.4701 1308.1249,-239.3 1306.0524,-228.9099 1300.0254,-232.4701"/>
</g>
<!-- 12&#45;&gt;15 -->
<g id="edge87" class="edge">
<title>12&#45;&gt;15</title>
<path fill="none" stroke="#000000" d="M1216.6946,-130.1532C1180.408,-178.7604 1076.7451,-317.6205 1033.6507,-375.347"/>
<polygon fill="#000000" stroke="#000000" points="1030.6876,-373.4654 1027.5101,-383.5725 1036.297,-377.6529 1030.6876,-373.4654"/>
</g>
<!-- 12&#45;&gt;18 -->
<g id="edge58" class="edge">
<title>12&#45;&gt;18</title>
<path fill="none" stroke="#000000" d="M1235.6198,-130.8934C1248.4599,-171.6897 1274.203,-273.7216 1238.5,-347 1227.129,-370.3383 1210.9551,-364.7412 1192.5,-383 1172.2384,-403.046 1152.2336,-428.6478 1138.4727,-447.4167"/>
<polygon fill="#000000" stroke="#000000" points="1135.4547,-445.6172 1132.4284,-455.7707 1141.1259,-449.7206 1135.4547,-445.6172"/>
</g>
<!-- 12&#45;&gt;19 -->
<g id="edge7" class="edge">
<title>12&#45;&gt;19</title>
<path fill="none" stroke="#000000" d="M1260.1439,-124.7765C1305.8338,-144.5718 1386.5,-189.1313 1386.5,-257 1386.5,-257 1386.5,-257 1386.5,-329 1386.5,-411.7758 1312.3816,-486.957 1270.4948,-522.8351"/>
<polygon fill="#000000" stroke="#000000" points="1268.2342,-520.1631 1262.8263,-529.2738 1272.7354,-525.524 1268.2342,-520.1631"/>
</g>
<!-- 12&#45;&gt;23 -->
<g id="edge11" class="edge">
<title>12&#45;&gt;23</title>
<path fill="none" stroke="#000000" d="M1269.9329,-114.4244C1400.8151,-120.1192 1804.5,-146.6299 1804.5,-257 1804.5,-257 1804.5,-257 1804.5,-329 1804.5,-494.6151 1659.8292,-483.5785 1514.5,-563 1506.2297,-567.5197 1460.3414,-586.6509 1425.8547,-600.8662"/>
<polygon fill="#000000" stroke="#000000" points="1424.3856,-597.6859 1416.4707,-604.729 1427.0502,-604.1589 1424.3856,-597.6859"/>
</g>
<!-- 13&#45;&gt;2 -->
<g id="edge102" class="edge">
<title>13&#45;&gt;2</title>
<path fill="none" stroke="#000000" d="M565.3538,-911.6265C525.5954,-929.0208 456.7304,-959.1492 412.9521,-978.3022"/>
<polygon fill="#000000" stroke="#000000" points="411.5007,-975.1168 403.742,-982.3316 414.3064,-981.5299 411.5007,-975.1168"/>
</g>
<!-- 14&#45;&gt;1 -->
<g id="edge34" class="edge">
<title>14&#45;&gt;1</title>
<path fill="none" stroke="#000000" d="M1358.7473,-259.3774C1481.4484,-267.7133 1842.5,-300.7586 1842.5,-401 1842.5,-401 1842.5,-401 1842.5,-473 1842.5,-708.9875 1467.7237,-777.6164 1330.2678,-794.8512"/>
<polygon fill="#000000" stroke="#000000" points="1329.524,-791.4157 1320.0187,-796.0956 1330.3677,-798.3646 1329.524,-791.4157"/>
</g>
<!-- 14&#45;&gt;5 -->
<g id="edge9" class="edge">
<title>14&#45;&gt;5</title>
<path fill="none" stroke="#000000" d="M1293.0138,-271.2249C1273.2252,-282.2696 1245.589,-297.6945 1223.8493,-309.8283"/>
<polygon fill="#000000" stroke="#000000" points="1221.9595,-306.8748 1214.9333,-314.8047 1225.3711,-312.9872 1221.9595,-306.8748"/>
</g>
<!-- 14&#45;&gt;15 -->
<g id="edge88" class="edge">
<title>14&#45;&gt;15</title>
<path fill="none" stroke="#000000" d="M1281.0035,-263.789C1243.7541,-271.5645 1185.8064,-286.4965 1140.5,-311 1118.5764,-322.8572 1117.5378,-332.177 1097.5,-347 1081.4412,-358.8795 1062.861,-371.0998 1047.3567,-380.9043"/>
<polygon fill="#000000" stroke="#000000" points="1045.2399,-378.1003 1038.6256,-386.377 1048.9576,-384.0315 1045.2399,-378.1003"/>
</g>
<!-- 14&#45;&gt;18 -->
<g id="edge59" class="edge">
<title>14&#45;&gt;18</title>
<path fill="none" stroke="#000000" d="M1311.6811,-274.7951C1303.8271,-293.8857 1289.6402,-324.4911 1271.5,-347 1236.5905,-390.3166 1184.948,-429.5365 1152.0152,-452.3267"/>
<polygon fill="#000000" stroke="#000000" points="1149.9432,-449.5034 1143.6599,-458.034 1153.8915,-455.2836 1149.9432,-449.5034"/>
</g>
<!-- 14&#45;&gt;19 -->
<g id="edge54" class="edge">
<title>14&#45;&gt;19</title>
<path fill="none" stroke="#000000" d="M1314.2568,-274.9648C1309.9252,-293.1561 1302.9419,-322.0832 1296.5,-347 1280.7664,-407.8562 1261.0737,-478.8651 1250.3501,-517.1343"/>
<polygon fill="#000000" stroke="#000000" points="1246.9068,-516.4505 1247.5741,-527.0243 1253.6464,-518.3423 1246.9068,-516.4505"/>
</g>
<!-- 14&#45;&gt;22 -->
<g id="edge70" class="edge">
<title>14&#45;&gt;22</title>
<path fill="none" stroke="#000000" d="M1324.072,-274.8453C1338.6433,-325.238 1372.6238,-470.9294 1310.5,-563 1267.1747,-627.2103 1183.204,-667.7601 1132.4635,-687.5411"/>
<polygon fill="#000000" stroke="#000000" points="1131.1892,-684.2811 1123.0869,-691.1076 1133.6779,-690.8238 1131.1892,-684.2811"/>
</g>
<!-- 14&#45;&gt;23 -->
<g id="edge75" class="edge">
<title>14&#45;&gt;23</title>
<path fill="none" stroke="#000000" d="M1358.299,-260.3439C1444.8052,-268.0146 1643.8173,-287.9969 1663.5,-311 1754.002,-416.7694 1584.8734,-474.4069 1477.5,-563 1460.8811,-576.7121 1440.3901,-589.1941 1423.0628,-598.695"/>
<polygon fill="#000000" stroke="#000000" points="1420.9675,-595.847 1413.8068,-603.6556 1424.2741,-602.0168 1420.9675,-595.847"/>
</g>
<!-- 15&#45;&gt;1 -->
<g id="edge99" class="edge">
<title>15&#45;&gt;1</title>
<path fill="none" stroke="#000000" d="M1009.6124,-419.052C996.027,-473.577 963.7109,-638.6163 1041.5,-733 1065.5797,-762.2165 1169.2057,-782.8912 1231.8323,-792.9852"/>
<polygon fill="#000000" stroke="#000000" points="1231.4663,-796.4706 1241.8896,-794.5722 1232.5575,-789.5562 1231.4663,-796.4706"/>
</g>
<!-- 15&#45;&gt;13 -->
<g id="edge2" class="edge">
<title>15&#45;&gt;13</title>
<path fill="none" stroke="#000000" d="M994.7416,-416.7779C955.1127,-448.8911 864.0305,-525.0826 797.5,-599 770.9177,-628.5338 763.2409,-635.9623 744.5,-671 708.8249,-737.6976 733.1905,-771.4914 686.5,-831 670.5728,-851.2997 658.3122,-850.1304 636.0427,-864.8038"/>
<polygon fill="#000000" stroke="#000000" points="633.8486,-862.0692 627.7258,-870.7158 637.9043,-867.7747 633.8486,-862.0692"/>
</g>
<!-- 15&#45;&gt;18 -->
<g id="edge25" class="edge">
<title>15&#45;&gt;18</title>
<path fill="none" stroke="#000000" d="M1036.7211,-416.0936C1052.1267,-426.5578 1072.8419,-440.6285 1089.8189,-452.16"/>
<polygon fill="#000000" stroke="#000000" points="1088.0694,-455.2027 1098.3082,-457.9263 1092.0026,-449.4122 1088.0694,-455.2027"/>
</g>
<!-- 15&#45;&gt;19 -->
<g id="edge91" class="edge">
<title>15&#45;&gt;19</title>
<path fill="none" stroke="#000000" d="M1051.9318,-407.9478C1085.1083,-415.454 1133.7046,-429.8604 1169.5,-455 1193.4859,-471.8456 1213.8136,-498.6657 1226.8786,-518.6518"/>
<polygon fill="#000000" stroke="#000000" points="1224.0469,-520.7218 1232.3575,-527.2933 1229.9588,-516.9736 1224.0469,-520.7218"/>
</g>
<!-- 15&#45;&gt;22 -->
<g id="edge44" class="edge">
<title>15&#45;&gt;22</title>
<path fill="none" stroke="#000000" d="M1019.0265,-418.9275C1031.7744,-469.4158 1068.0465,-613.0724 1083.4465,-674.0645"/>
<polygon fill="#000000" stroke="#000000" points="1080.0594,-674.947 1085.9011,-683.7859 1086.8464,-673.2333 1080.0594,-674.947"/>
</g>
<!-- 15&#45;&gt;23 -->
<g id="edge96" class="edge">
<title>15&#45;&gt;23</title>
<path fill="none" stroke="#000000" d="M1023.3686,-418.5796C1041.9244,-453.2504 1088.4877,-529.9409 1152.5,-563 1211.466,-593.453 1287.5725,-606.9129 1336.7065,-612.7381"/>
<polygon fill="#000000" stroke="#000000" points="1336.4375,-616.2298 1346.7659,-613.8687 1337.2193,-609.2736 1336.4375,-616.2298"/>
</g>
<!-- 16 -->
<g id="node17" class="node">
<title>16</title>
<polygon fill="#c0c0c0" stroke="#c0c0c0" points="349.5,-733 287.5,-733 287.5,-671 349.5,-671 349.5,-733"/>
<text text-anchor="middle" x="318.5" y="-698.3" font-family="Times,serif" font-size="14.00" fill="#000000">4.3.10</text>
</g>
<!-- 16&#45;&gt;0 -->
<g id="edge74" class="edge">
<title>16&#45;&gt;0</title>
<path fill="none" stroke="#000000" d="M316.918,-733.0078C316.503,-741.1406 316.0489,-750.0413 315.6111,-758.6223"/>
<polygon fill="#000000" stroke="#000000" points="312.1031,-758.6922 315.0889,-768.8575 319.094,-759.0489 312.1031,-758.6922"/>
</g>
<!-- 16&#45;&gt;2 -->
<g id="edge94" class="edge">
<title>16&#45;&gt;2</title>
<path fill="none" stroke="#000000" d="M292.0947,-733.0587C284.5764,-743.7569 277.3793,-756.2664 273.5,-769 265.4695,-795.3594 266.3254,-804.3948 273.5,-831 286.1953,-878.0774 316.5957,-925.1087 340.3855,-956.8432"/>
<polygon fill="#000000" stroke="#000000" points="337.7395,-959.1454 346.5874,-964.9734 343.3051,-954.8998 337.7395,-959.1454"/>
</g>
<!-- 16&#45;&gt;13 -->
<g id="edge47" class="edge">
<title>16&#45;&gt;13</title>
<path fill="none" stroke="#000000" d="M349.5896,-727.9696C352.5081,-729.8243 355.4993,-731.5364 358.5,-733 417.018,-761.5422 449.0152,-729.1462 500.5,-769 525.3513,-788.2371 516.1343,-805.4979 534.5,-831 541.6632,-840.9466 550.1574,-850.9987 558.5244,-860.1846"/>
<polygon fill="#000000" stroke="#000000" points="556.1178,-862.7363 565.4908,-867.6757 561.2438,-857.9693 556.1178,-862.7363"/>
</g>
<!-- 17 -->
<g id="node18" class="node">
<title>17</title>
<polygon fill="#c0c0c0" stroke="#c0c0c0" points="501.5,-733 439.5,-733 439.5,-671 501.5,-671 501.5,-733"/>
<text text-anchor="middle" x="470.5" y="-698.3" font-family="Times,serif" font-size="14.00" fill="#000000">4.3.12</text>
</g>
<!-- 17&#45;&gt;0 -->
<g id="edge83" class="edge">
<title>17&#45;&gt;0</title>
<path fill="none" stroke="#000000" d="M439.4494,-726.1028C436.1308,-728.49 432.7722,-730.8299 429.5,-733 404.9697,-749.268 376.342,-765.8265 353.6638,-778.4122"/>
<polygon fill="#000000" stroke="#000000" points="351.7239,-775.4849 344.6552,-783.3769 355.1026,-781.6156 351.7239,-775.4849"/>
</g>
<!-- 17&#45;&gt;2 -->
<g id="edge73" class="edge">
<title>17&#45;&gt;2</title>
<path fill="none" stroke="#000000" d="M448.4086,-733.2285C441.5156,-744.1352 434.4342,-756.7268 429.5,-769 402.3473,-836.5389 413.6572,-858.7735 394.5,-929 392.159,-937.5817 389.3747,-946.6891 386.5873,-955.3324"/>
<polygon fill="#000000" stroke="#000000" points="383.2595,-954.2483 383.4624,-964.8412 389.9096,-956.4338 383.2595,-954.2483"/>
</g>
<!-- 17&#45;&gt;13 -->
<g id="edge81" class="edge">
<title>17&#45;&gt;13</title>
<path fill="none" stroke="#000000" d="M501.8059,-714.4367C525.0262,-725.3206 555.4903,-743.4177 572.5,-769 589.6477,-794.7899 595.351,-829.5696 596.9292,-856.5172"/>
<polygon fill="#000000" stroke="#000000" points="593.444,-856.9493 597.3567,-866.7951 600.438,-856.6583 593.444,-856.9493"/>
</g>
<!-- 18&#45;&gt;1 -->
<g id="edge16" class="edge">
<title>18&#45;&gt;1</title>
<path fill="none" stroke="#000000" d="M1125.9679,-490.9045C1131.792,-509.2966 1141.652,-538.6041 1152.5,-563 1187.7257,-642.2188 1239.0627,-730.9964 1264.7003,-773.9396"/>
<polygon fill="#000000" stroke="#000000" points="1261.7674,-775.8544 1269.9121,-782.6303 1267.7706,-772.2541 1261.7674,-775.8544"/>
</g>
<!-- 18&#45;&gt;13 -->
<g id="edge24" class="edge">
<title>18&#45;&gt;13</title>
<path fill="none" stroke="#000000" d="M1086.0434,-482.5233C1015.3282,-503.8814 853.3417,-562.4437 768.5,-671 723.085,-729.1093 773.8517,-776.1948 724.5,-831 697.299,-861.2068 673.8515,-846.9275 636.9857,-864.9869"/>
<polygon fill="#000000" stroke="#000000" points="634.9385,-862.1177 627.8516,-869.9935 638.3031,-868.2561 634.9385,-862.1177"/>
</g>
<!-- 18&#45;&gt;19 -->
<g id="edge5" class="edge">
<title>18&#45;&gt;19</title>
<path fill="none" stroke="#000000" d="M1144.8953,-487.3972C1163.4306,-498.3361 1189.1211,-513.4977 1209.4929,-525.5204"/>
<polygon fill="#000000" stroke="#000000" points="1207.756,-528.5594 1218.147,-530.6277 1211.3138,-522.5309 1207.756,-528.5594"/>
</g>
<!-- 18&#45;&gt;22 -->
<g id="edge65" class="edge">
<title>18&#45;&gt;22</title>
<path fill="none" stroke="#000000" d="M1118.0957,-491.3529C1112.8605,-531.315 1100.4012,-626.421 1094.1742,-673.9536"/>
<polygon fill="#000000" stroke="#000000" points="1090.7028,-673.5076 1092.8741,-683.8775 1097.6435,-674.4169 1090.7028,-673.5076"/>
</g>
<!-- 18&#45;&gt;23 -->
<g id="edge50" class="edge">
<title>18&#45;&gt;23</title>
<path fill="none" stroke="#000000" d="M1130.2156,-490.6518C1142.3692,-511.0921 1165.0797,-544.3366 1193.5,-563 1217.4617,-578.7355 1290.5384,-596.5868 1339.5749,-607.3108"/>
<polygon fill="#000000" stroke="#000000" points="1339.1338,-610.7962 1349.6475,-609.4877 1340.6126,-603.9542 1339.1338,-610.7962"/>
</g>
<!-- 19&#45;&gt;1 -->
<g id="edge37" class="edge">
<title>19&#45;&gt;1</title>
<path fill="none" stroke="#000000" d="M1263.8277,-560.4121C1275.2702,-570.0494 1288.2702,-583.5494 1294.5,-599 1317.9653,-657.1969 1301.6711,-732.5273 1289.8165,-772.4043"/>
<polygon fill="#000000" stroke="#000000" points="1286.4668,-771.3895 1286.8507,-781.9774 1293.1533,-773.461 1286.4668,-771.3895"/>
</g>
<!-- 19&#45;&gt;13 -->
<g id="edge6" class="edge">
<title>19&#45;&gt;13</title>
<path fill="none" stroke="#000000" d="M1217.9295,-559.4661C1199.767,-570.2262 1174.48,-585.3476 1152.5,-599 1132.2485,-611.5787 812.9556,-820.6073 791.5,-831 740.417,-855.7437 677.8048,-875.5393 637.5427,-887.0239"/>
<polygon fill="#000000" stroke="#000000" points="636.487,-883.6849 627.8087,-889.7625 638.383,-890.4233 636.487,-883.6849"/>
</g>
<!-- 19&#45;&gt;22 -->
<g id="edge4" class="edge">
<title>19&#45;&gt;22</title>
<path fill="none" stroke="#000000" d="M1226.2333,-561.8018C1199.1489,-589.7771 1144.7225,-645.9939 1113.6472,-678.0914"/>
<polygon fill="#000000" stroke="#000000" points="1111.0909,-675.7 1106.6497,-685.3191 1116.1201,-680.569 1111.0909,-675.7"/>
</g>
<!-- 19&#45;&gt;23 -->
<g id="edge92" class="edge">
<title>19&#45;&gt;23</title>
<path fill="none" stroke="#000000" d="M1269.5853,-558.5426C1292.4138,-569.9569 1325.2722,-586.3861 1350.3451,-598.9225"/>
<polygon fill="#000000" stroke="#000000" points="1349.0266,-602.1764 1359.5362,-603.5181 1352.1571,-595.9154 1349.0266,-602.1764"/>
</g>
<!-- 20 -->
<g id="node21" class="node">
<title>20</title>
<polygon fill="#c0c0c0" stroke="#c0c0c0" points="830,-728.5 777,-728.5 777,-675.5 830,-675.5 830,-728.5"/>
<text text-anchor="middle" x="803.5" y="-698.3" font-family="Times,serif" font-size="14.00" fill="#000000">4.3.9</text>
</g>
<!-- 20&#45;&gt;0 -->
<g id="edge29" class="edge">
<title>20&#45;&gt;0</title>
<path fill="none" stroke="#000000" d="M776.5894,-706.0266C714.8884,-715.4317 558.5935,-740.2404 429.5,-769 404.4448,-774.5818 376.6537,-781.9665 354.556,-788.128"/>
<polygon fill="#000000" stroke="#000000" points="353.5129,-784.7855 344.8339,-790.8621 355.408,-791.5241 353.5129,-784.7855"/>
</g>
<!-- 20&#45;&gt;2 -->
<g id="edge12" class="edge">
<title>20&#45;&gt;2</title>
<path fill="none" stroke="#000000" d="M807.5108,-728.5835C810.2875,-756.2592 810.6005,-799.8376 791.5,-831 748.908,-900.4887 711.3721,-896.7985 636.5,-929 561.1603,-961.4026 466.7302,-980.6528 413.6573,-989.6993"/>
<polygon fill="#000000" stroke="#000000" points="412.9006,-986.2771 403.6121,-991.3735 414.0514,-993.1819 412.9006,-986.2771"/>
</g>
<!-- 20&#45;&gt;13 -->
<g id="edge43" class="edge">
<title>20&#45;&gt;13</title>
<path fill="none" stroke="#000000" d="M801.6327,-728.532C798.2712,-757.193 788.858,-802.5619 762.5,-831 729.5752,-866.5231 675.2166,-883.6258 637.7234,-891.5707"/>
<polygon fill="#000000" stroke="#000000" points="636.7538,-888.1948 627.6275,-893.5764 638.1178,-895.0607 636.7538,-888.1948"/>
</g>
<!-- 21 -->
<g id="node22" class="node">
<title>21</title>
<ellipse fill="#c0c0c0" stroke="#c0c0c0" cx="786.5" cy="-329" rx="40.0939" ry="18"/>
<text text-anchor="middle" x="786.5" y="-325.3" font-family="Times,serif" font-size="14.00" fill="#000000">4.2.23</text>
</g>
<!-- 21&#45;&gt;1 -->
<g id="edge77" class="edge">
<title>21&#45;&gt;1</title>
<path fill="none" stroke="#000000" d="M783.8558,-347.0431C780.1458,-378.0946 776.1328,-442.9291 798.5,-491 829.2878,-557.1684 971.8497,-713.3692 1004.5,-733 1075.4593,-775.6638 1172.0772,-791.185 1230.1635,-796.8151"/>
<polygon fill="#000000" stroke="#000000" points="1229.9201,-800.3073 1240.1956,-797.726 1230.5531,-793.336 1229.9201,-800.3073"/>
</g>
<!-- 21&#45;&gt;13 -->
<g id="edge62" class="edge">
<title>21&#45;&gt;13</title>
<path fill="none" stroke="#000000" d="M772.0363,-345.9423C745.0013,-378.596 686.9741,-453.5297 658.5,-527 614.3932,-640.8065 601.6423,-786.1924 597.9724,-856.3817"/>
<polygon fill="#000000" stroke="#000000" points="594.4663,-856.4238 597.476,-866.5822 601.458,-856.7642 594.4663,-856.4238"/>
</g>
<!-- 21&#45;&gt;15 -->
<g id="edge8" class="edge">
<title>21&#45;&gt;15</title>
<path fill="none" stroke="#000000" d="M819.6532,-339.4694C859.841,-352.1603 927.6457,-373.5723 971.733,-387.4946"/>
<polygon fill="#000000" stroke="#000000" points="970.717,-390.8441 981.3068,-390.5179 972.825,-384.169 970.717,-390.8441"/>
</g>
<!-- 21&#45;&gt;18 -->
<g id="edge15" class="edge">
<title>21&#45;&gt;18</title>
<path fill="none" stroke="#000000" d="M801.9726,-345.9919C821.5353,-366.4243 857.1887,-400.2981 894.5,-419 951.2815,-447.4612 1023.7053,-461.3395 1071.0523,-467.807"/>
<polygon fill="#000000" stroke="#000000" points="1070.6842,-471.2886 1081.0534,-469.1138 1071.5912,-464.3476 1070.6842,-471.2886"/>
</g>
<!-- 21&#45;&gt;19 -->
<g id="edge53" class="edge">
<title>21&#45;&gt;19</title>
<path fill="none" stroke="#000000" d="M794.4994,-346.8698C803.6212,-366.0243 819.8442,-396.6839 839.5,-419 874.0503,-458.2265 884.6777,-469.8938 932.5,-491 978.3839,-511.2507 1117.923,-530.2316 1193.1663,-539.3466"/>
<polygon fill="#000000" stroke="#000000" points="1192.9947,-542.851 1203.3403,-540.5663 1193.8281,-535.9007 1192.9947,-542.851"/>
</g>
<!-- 21&#45;&gt;22 -->
<g id="edge20" class="edge">
<title>21&#45;&gt;22</title>
<path fill="none" stroke="#000000" d="M785.8021,-347.2301C785.5405,-365.6278 786.3457,-394.7121 792.5,-419 801.1463,-453.1226 803.8049,-463.2794 825.5,-491 892.7947,-576.9849 1001.8652,-649.2321 1056.7195,-682.4411"/>
<polygon fill="#000000" stroke="#000000" points="1054.9834,-685.4811 1065.3601,-687.6201 1058.5821,-679.477 1054.9834,-685.4811"/>
</g>
<!-- 21&#45;&gt;23 -->
<g id="edge57" class="edge">
<title>21&#45;&gt;23</title>
<path fill="none" stroke="#000000" d="M789.0384,-347.0417C792.1873,-365.8014 798.6506,-395.636 810.5,-419 829.0863,-455.6476 834.4978,-467.9275 868.5,-491 913.3441,-521.4294 1048.9049,-549.935 1101.5,-563 1183.6286,-583.4014 1280.7363,-600.2866 1337.7711,-609.4814"/>
<polygon fill="#000000" stroke="#000000" points="1337.5145,-612.9847 1347.9418,-611.1078 1338.62,-606.0725 1337.5145,-612.9847"/>
</g>
<!-- 22&#45;&gt;0 -->
<g id="edge93" class="edge">
<title>22&#45;&gt;0</title>
<path fill="none" stroke="#000000" d="M1051.8495,-707.2035C1002.6006,-713.7348 914.8214,-725.0444 839.5,-733 657.5886,-752.2139 609.6498,-737.2669 429.5,-769 404.2198,-773.4531 376.4201,-780.7949 354.3742,-787.216"/>
<polygon fill="#000000" stroke="#000000" points="353.2736,-783.8916 344.6795,-790.0877 355.2618,-790.6033 353.2736,-783.8916"/>
</g>
<!-- 22&#45;&gt;1 -->
<g id="edge31" class="edge">
<title>22&#45;&gt;1</title>
<path fill="none" stroke="#000000" d="M1116.9187,-715.6265C1150.2888,-732.8384 1207.8327,-762.519 1245.0133,-781.6963"/>
<polygon fill="#000000" stroke="#000000" points="1243.5082,-784.8581 1254.0001,-786.3316 1246.7171,-778.6369 1243.5082,-784.8581"/>
</g>
<!-- 22&#45;&gt;2 -->
<g id="edge21" class="edge">
<title>22&#45;&gt;2</title>
<path fill="none" stroke="#000000" d="M1083.2436,-719.7193C1071.0321,-747.4027 1043.7966,-800.8566 1004.5,-831 909.1065,-904.1737 538.1579,-969.3284 413.5706,-989.5476"/>
<polygon fill="#000000" stroke="#000000" points="412.9744,-986.0984 403.6589,-991.1455 414.0885,-993.0092 412.9744,-986.0984"/>
</g>
<!-- 22&#45;&gt;13 -->
<g id="edge33" class="edge">
<title>22&#45;&gt;13</title>
<path fill="none" stroke="#000000" d="M1077.1417,-719.4676C1054.4421,-747.8027 1005.4249,-803.3903 950.5,-831 896.0127,-858.3898 719.1453,-882.9265 637.9444,-893.0653"/>
<polygon fill="#000000" stroke="#000000" points="637.1007,-889.6428 627.6054,-894.3428 637.9592,-896.59 637.1007,-889.6428"/>
</g>
<!-- 23&#45;&gt;1 -->
<g id="edge103" class="edge">
<title>23&#45;&gt;1</title>
<path fill="none" stroke="#000000" d="M1379.6248,-634.9243C1370.3438,-658.2731 1352.6321,-700.0044 1332.5,-733 1323.5271,-747.7061 1311.8944,-762.9647 1301.9073,-775.199"/>
<polygon fill="#000000" stroke="#000000" points="1299.0068,-773.2132 1295.309,-783.1418 1304.3913,-777.6862 1299.0068,-773.2132"/>
</g>
<!-- 23&#45;&gt;2 -->
<g id="edge90" class="edge">
<title>23&#45;&gt;2</title>
<path fill="none" stroke="#000000" d="M1392.0446,-635.2988C1394.8965,-645.6647 1398.0681,-658.9347 1399.5,-671 1408.0785,-743.2854 1414.2423,-777.8543 1364.5,-831 1289.6866,-910.9321 1244.6264,-902.1048 1138.5,-929 999.1402,-964.3174 552.0407,-987.634 413.6939,-994.143"/>
<polygon fill="#000000" stroke="#000000" points="413.3469,-990.6553 403.5208,-994.6174 413.673,-997.6477 413.3469,-990.6553"/>
</g>
<!-- 23&#45;&gt;13 -->
<g id="edge52" class="edge">
<title>23&#45;&gt;13</title>
<path fill="none" stroke="#000000" d="M1388.0669,-635.085C1390.6067,-677.3316 1390.2226,-782.5785 1329.5,-831 1275.2205,-874.2836 784.9035,-892.3619 637.944,-896.8375"/>
<polygon fill="#000000" stroke="#000000" points="637.459,-893.3504 627.5683,-897.1482 637.6686,-900.3473 637.459,-893.3504"/>
</g>
<!-- 23&#45;&gt;22 -->
<g id="edge42" class="edge">
<title>23&#45;&gt;22</title>
<path fill="none" stroke="#000000" d="M1352.545,-626.7506C1298.7137,-642.2089 1193.8072,-672.3341 1134.3564,-689.4061"/>
<polygon fill="#000000" stroke="#000000" points="1133.1591,-686.1084 1124.5136,-692.2326 1135.0912,-692.8365 1133.1591,-686.1084"/>
</g>
<!-- 24 -->
<g id="node25" class="node">
<title>24</title>
<ellipse fill="#c0c0c0" stroke="#c0c0c0" cx="1614.5" cy="-329" rx="40.0939" ry="18"/>
<text text-anchor="middle" x="1614.5" y="-325.3" font-family="Times,serif" font-size="14.00" fill="#000000">4.2.22</text>
</g>
<!-- 24&#45;&gt;1 -->
<g id="edge32" class="edge">
<title>24&#45;&gt;1</title>
<path fill="none" stroke="#000000" d="M1615.5379,-347.3223C1616.0639,-365.7917 1615.4602,-394.9307 1608.5,-419 1581.2439,-513.2549 1474.2832,-670.0605 1404.5,-733 1379.8208,-755.2589 1346.425,-772.7582 1320.5084,-784.2828"/>
<polygon fill="#000000" stroke="#000000" points="1319.1155,-781.0719 1311.3285,-788.2562 1321.8961,-787.4959 1319.1155,-781.0719"/>
</g>
<!-- 24&#45;&gt;13 -->
<g id="edge23" class="edge">
<title>24&#45;&gt;13</title>
<path fill="none" stroke="#000000" d="M1619.1934,-347.3537C1621.6071,-357.7369 1624.2908,-371.0057 1625.5,-383 1630.4421,-432.0207 1619.888,-445.7058 1600.5,-491 1528.1151,-660.1055 1527.6138,-745.9699 1364.5,-831 1299.8131,-864.7208 788.2933,-889.5997 637.93,-896.2399"/>
<polygon fill="#000000" stroke="#000000" points="637.5763,-892.7519 627.7391,-896.6863 637.8828,-899.7452 637.5763,-892.7519"/>
</g>
<!-- 24&#45;&gt;15 -->
<g id="edge13" class="edge">
<title>24&#45;&gt;15</title>
<path fill="none" stroke="#000000" d="M1575.1323,-333.7241C1469.4745,-346.4031 1179.8253,-381.161 1063.6562,-395.1013"/>
<polygon fill="#000000" stroke="#000000" points="1063.1335,-391.6388 1053.6218,-396.3054 1063.9676,-398.5889 1063.1335,-391.6388"/>
</g>
<!-- 24&#45;&gt;18 -->
<g id="edge64" class="edge">
<title>24&#45;&gt;18</title>
<path fill="none" stroke="#000000" d="M1580.5454,-338.8977C1493.2786,-364.3358 1261.2231,-431.9795 1164.1513,-460.2757"/>
<polygon fill="#000000" stroke="#000000" points="1162.9859,-456.9697 1154.3649,-463.1284 1164.9449,-463.69 1162.9859,-456.9697"/>
</g>
<!-- 24&#45;&gt;19 -->
<g id="edge72" class="edge">
<title>24&#45;&gt;19</title>
<path fill="none" stroke="#000000" d="M1600.928,-346.0272C1573.6994,-379.0379 1508.9541,-451.9213 1438.5,-491 1392.1197,-516.7257 1332.6578,-530.8559 1291.4513,-538.1395"/>
<polygon fill="#000000" stroke="#000000" points="1290.6612,-534.7235 1281.3874,-539.8467 1291.832,-541.6249 1290.6612,-534.7235"/>
</g>
<!-- 24&#45;&gt;22 -->
<g id="edge89" class="edge">
<title>24&#45;&gt;22</title>
<path fill="none" stroke="#000000" d="M1610.9234,-347.1492C1606.8812,-365.7362 1599.4105,-395.1964 1588.5,-419 1563.8523,-472.7745 1440.9125,-631.5762 1435.5,-635 1386.9286,-665.7252 1223.0071,-687.5131 1139.8139,-696.8782"/>
<polygon fill="#000000" stroke="#000000" points="1139.3927,-693.4034 1129.8397,-697.985 1140.1647,-700.3607 1139.3927,-693.4034"/>
</g>
<!-- 24&#45;&gt;23 -->
<g id="edge10" class="edge">
<title>24&#45;&gt;23</title>
<path fill="none" stroke="#000000" d="M1605.4187,-346.5503C1595.7649,-364.9092 1579.8087,-394.4211 1564.5,-419 1543.9031,-452.0695 1539.6021,-461.2055 1514.5,-491 1481.9504,-529.634 1439.3356,-569.8313 1412.4308,-594.1407"/>
<polygon fill="#000000" stroke="#000000" points="1410.0509,-591.5737 1404.9473,-600.8583 1414.727,-596.7828 1410.0509,-591.5737"/>
</g>
</g>
</svg>
